<svg xmlns="http://www.w3.org/2000/svg" xmlns:xlink="http://www.w3.org/1999/xlink" width="317.35pt" height="178.3pt" viewBox="0 0 317.35 178.3" version="1.1">
<g id="all">
    <g transform="scale(1.25822552864762)">
<defs>
<clipPath id="clip_6">
<path transform="matrix(1,0,0,-1,0,141.732)" d="M0 0H252.283V141.732H0Z"/>
</clipPath>
</defs>
<path transform="matrix(1,0,0,-1,0,141.732)" d="M0 0H252.284V141.732H0Z" fill="#19f2c8"/>
<g clip-path="url(#clip_6)">
<path transform="matrix(1,0,0,-1,125.7297,77.01759)" d="M0 0-27.067-15.586-25.771-17.838C-24.136-20.678-21.163-22.266-18.105-22.266-16.61-22.266-15.094-21.886-13.705-21.086L11.418-6.621Z" fill="#1b1b19"/>
<path transform="matrix(1,0,0,-1,114.1173,42.447595)" d="M0 0C-4.875 0-8.83-3.949-8.836-8.825L-8.869-37.815 2.573-31.237 2.609-.003 .011 0Z" fill="#1b1b19"/>
<path transform="matrix(1,0,0,-1,124.1212,54.324998)" d="M0 0-.024-13.198 27.007-28.846 28.309-26.598C30.754-22.375 29.313-16.969 25.09-14.524Z" fill="#1b1b19"/>
</g>
</g>
</g>
</svg>
