<svg version="1.1" id="SVG" xmlns="http://www.w3.org/2000/svg" xmlns:xlink="http://www.w3.org/1999/xlink" x="0px" y="0px"
     width="193.89px" height="303.307px" viewBox="0 0 193.89 303.307" enable-background="new 0 0 193.89 303.307"
     xml:space="preserve">
	 <g transform="scale(1.235)">
            <g>
		<path fill="#D07327" d="M21.042,26.877c0.39,0.24,0.95,0.43,1.549,0.43c0.89,0,1.409-0.459,1.409-1.139c0-0.63-0.36-1-1.269-1.339
			c-1.1-0.38-1.779-0.959-1.779-1.899c0-1.049,0.87-1.829,2.179-1.829c0.68,0,1.189,0.16,1.479,0.32l-0.24,0.72
			c-0.21-0.13-0.66-0.32-1.27-0.32c-0.919,0-1.27,0.55-1.27,1.009c0,0.62,0.41,0.93,1.339,1.29c1.14,0.45,1.709,0.989,1.709,1.979
			c0,1.029-0.759,1.939-2.349,1.939c-0.649,0-1.359-0.2-1.719-0.44L21.042,26.877z"/>
		<path fill="#D07327" d="M26.552,25.678c0.02,1.179,0.77,1.669,1.649,1.669c0.63,0,1.02-0.11,1.339-0.25l0.16,0.629
			c-0.31,0.14-0.85,0.31-1.619,0.31c-1.479,0-2.378-0.99-2.378-2.439c0-1.459,0.87-2.608,2.279-2.608
			c1.579,0,1.989,1.389,1.989,2.279c0,0.18-0.01,0.31-0.03,0.41H26.552z M29.12,25.049c0.01-0.56-0.23-1.43-1.209-1.43
			c-0.899,0-1.279,0.82-1.349,1.43H29.12z"/>
		<path fill="#D07327" d="M31.062,24.609c0-0.57-0.01-1.06-0.04-1.509h0.77l0.04,0.95h0.03c0.22-0.65,0.759-1.06,1.349-1.06
			c0.09,0,0.16,0.01,0.24,0.02v0.83c-0.09-0.01-0.18-0.02-0.3-0.02c-0.62,0-1.06,0.47-1.179,1.119c-0.02,0.13-0.03,0.27-0.03,0.41
			v2.588h-0.879V24.609z"/>
		<path fill="#D07327" d="M34.671,23.1l0.95,2.708c0.16,0.45,0.29,0.85,0.39,1.25h0.03c0.11-0.4,0.25-0.8,0.41-1.25L37.39,23.1
			h0.919l-1.899,4.837h-0.84L33.732,23.1H34.671z"/>
		<path fill="#D07327" d="M39.561,22.28c-0.32,0-0.53-0.25-0.53-0.54c0-0.31,0.22-0.549,0.55-0.549c0.32,0,0.54,0.24,0.54,0.549
			c0,0.29-0.21,0.54-0.55,0.54H39.561z M39.141,27.937V23.1h0.879v4.837H39.141z"/>
		<path fill="#D07327" d="M44.93,27.757c-0.23,0.11-0.74,0.28-1.389,0.28c-1.459,0-2.409-0.99-2.409-2.469
			c0-1.489,1.02-2.579,2.599-2.579c0.52,0,0.979,0.13,1.219,0.26l-0.2,0.67c-0.21-0.11-0.54-0.23-1.02-0.23
			c-1.109,0-1.709,0.83-1.709,1.829c0,1.119,0.719,1.809,1.679,1.809c0.5,0,0.83-0.12,1.08-0.229L44.93,27.757z"/>
		<path fill="#D07327" d="M46.461,25.678c0.02,1.179,0.77,1.669,1.649,1.669c0.63,0,1.02-0.11,1.339-0.25l0.16,0.629
			c-0.31,0.14-0.85,0.31-1.619,0.31c-1.479,0-2.378-0.99-2.378-2.439c0-1.459,0.87-2.608,2.279-2.608
			c1.579,0,1.989,1.389,1.989,2.279c0,0.18-0.01,0.31-0.03,0.41H46.461z M49.03,25.049c0.01-0.56-0.23-1.43-1.209-1.43
			c-0.899,0-1.279,0.82-1.349,1.43H49.03z"/>
	</g>
	<g>
		<path fill="#2E5DAD" d="M50.562,27.427l2.189-2.848c0.22-0.27,0.41-0.5,0.64-0.76v-0.02h-2.628v-0.7h3.688v0.55l-2.169,2.818
			c-0.2,0.26-0.4,0.51-0.62,0.75v0.02h2.829v0.7h-3.928V27.427z"/>
		<path fill="#2E5DAD" d="M55.892,25.678c0.02,1.179,0.77,1.669,1.649,1.669c0.629,0,1.019-0.11,1.339-0.25l0.16,0.629
			c-0.311,0.14-0.85,0.31-1.62,0.31c-1.479,0-2.378-0.99-2.378-2.439c0-1.459,0.87-2.608,2.279-2.608
			c1.579,0,1.989,1.389,1.989,2.279c0,0.18-0.01,0.31-0.03,0.41H55.892z M58.46,25.049c0.01-0.56-0.229-1.43-1.209-1.43
			c-0.899,0-1.279,0.82-1.349,1.43H58.46z"/>
		<path fill="#2E5DAD" d="M60.821,22.28c-0.32,0-0.529-0.25-0.529-0.54c0-0.31,0.22-0.549,0.549-0.549c0.32,0,0.54,0.24,0.54,0.549
			c0,0.29-0.21,0.54-0.55,0.54H60.821z M60.401,27.937V23.1h0.88v4.837H60.401z"/>
		<path fill="#2E5DAD" d="M63.801,21.94V23.1h1.259v0.67h-1.259v2.598c0,0.6,0.17,0.939,0.659,0.939c0.24,0,0.38-0.02,0.51-0.06
			l0.04,0.669c-0.17,0.06-0.439,0.12-0.779,0.12c-0.41,0-0.739-0.14-0.949-0.37c-0.24-0.27-0.34-0.699-0.34-1.269V23.77h-0.75V23.1
			h0.75v-0.89L63.801,21.94z"/>
		<path fill="#2E5DAD" d="M66.552,25.678c0.02,1.179,0.77,1.669,1.648,1.669c0.63,0,1.02-0.11,1.34-0.25l0.16,0.629
			c-0.311,0.14-0.85,0.31-1.619,0.31c-1.479,0-2.379-0.99-2.379-2.439c0-1.459,0.869-2.608,2.278-2.608
			c1.579,0,1.989,1.389,1.989,2.279c0,0.18-0.01,0.31-0.03,0.41H66.552z M69.12,25.049c0.01-0.56-0.229-1.43-1.209-1.43
			c-0.899,0-1.279,0.82-1.35,1.43H69.12z"/>
		<path fill="#2E5DAD" d="M71.062,24.409c0-0.51-0.01-0.91-0.04-1.31h0.779l0.051,0.79h0.02c0.24-0.45,0.8-0.899,1.6-0.899
			c0.669,0,1.709,0.4,1.709,2.059v2.888H74.3v-2.789c0-0.779-0.29-1.439-1.119-1.439c-0.57,0-1.02,0.41-1.18,0.899
			c-0.04,0.11-0.06,0.27-0.06,0.41v2.918h-0.88V24.409z"/>
	</g>
	<g>
		<path fill="#5E5E5D" d="M20.602,42.04l2.62-3.831v-0.021h-2.396v-0.511h3.187v0.372l-2.605,3.817v0.021h2.64v0.511h-3.446V42.04z"
			/>
		<path fill="#5E5E5D" d="M25.02,39.007l0.455,1.716c0.091,0.378,0.182,0.735,0.245,1.085h0.021
			c0.077-0.343,0.189-0.708,0.301-1.079l0.553-1.723h0.519l0.525,1.695c0.126,0.399,0.224,0.763,0.301,1.106h0.021
			c0.056-0.343,0.147-0.7,0.259-1.1l0.483-1.702h0.609l-1.093,3.39h-0.56l-0.519-1.618c-0.119-0.385-0.217-0.722-0.301-1.121h-0.014
			c-0.084,0.406-0.189,0.763-0.308,1.127l-0.546,1.611h-0.561l-1.022-3.39H25.02z"/>
		<path fill="#5E5E5D" d="M30.136,40.814c0.014,0.827,0.54,1.17,1.156,1.17c0.441,0,0.714-0.077,0.938-0.175l0.112,0.441
			c-0.217,0.098-0.596,0.217-1.135,0.217c-1.037,0-1.667-0.693-1.667-1.708c0-1.023,0.609-1.828,1.597-1.828
			c1.107,0,1.394,0.974,1.394,1.597c0,0.126-0.007,0.217-0.021,0.287H30.136z M31.937,40.373c0.007-0.393-0.161-1.002-0.848-1.002
			c-0.63,0-0.896,0.575-0.945,1.002H31.937z"/>
		<path fill="#5E5E5D" d="M33.587,38.433c-0.224,0-0.372-0.175-0.372-0.378c0-0.217,0.154-0.385,0.385-0.385
			c0.224,0,0.378,0.168,0.378,0.385c0,0.203-0.147,0.378-0.385,0.378H33.587z M33.293,42.397v-3.39h0.616v3.39H33.293z"/>
		<path fill="#5E5E5D" d="M37.831,41.9c0,0.784-0.161,1.253-0.483,1.555c-0.336,0.301-0.813,0.406-1.24,0.406
			c-0.406,0-0.854-0.098-1.127-0.28l0.154-0.476c0.224,0.147,0.574,0.273,0.995,0.273c0.63,0,1.093-0.329,1.093-1.19v-0.372h-0.014
			c-0.182,0.315-0.553,0.567-1.079,0.567c-0.84,0-1.443-0.714-1.443-1.66c0-1.149,0.75-1.793,1.534-1.793
			c0.588,0,0.904,0.301,1.058,0.588h0.014l0.021-0.511h0.546c-0.021,0.238-0.028,0.518-0.028,0.924V41.9z M37.214,40.338
			c0-0.098-0.007-0.189-0.035-0.273c-0.112-0.364-0.406-0.659-0.861-0.659c-0.588,0-1.008,0.498-1.008,1.289
			c0,0.659,0.343,1.219,1.001,1.219c0.385,0,0.729-0.238,0.854-0.637c0.035-0.098,0.049-0.217,0.049-0.329V40.338z"/>
		<path fill="#5E5E5D" d="M38.76,41.767c0.189,0.112,0.511,0.238,0.819,0.238c0.441,0,0.651-0.217,0.651-0.504
			c0-0.294-0.175-0.448-0.623-0.616c-0.617-0.224-0.904-0.561-0.904-0.959c0-0.546,0.448-0.995,1.17-0.995
			c0.343,0,0.644,0.091,0.826,0.21l-0.147,0.441c-0.133-0.077-0.378-0.196-0.693-0.196c-0.364,0-0.561,0.21-0.561,0.462
			c0,0.28,0.196,0.406,0.638,0.581c0.581,0.217,0.889,0.512,0.889,1.016c0,0.603-0.469,1.022-1.261,1.022
			c-0.371,0-0.714-0.098-0.952-0.238L38.76,41.767z"/>
		<path fill="#5E5E5D" d="M42.359,38.195v0.813h0.882v0.469h-0.882v1.821c0,0.42,0.119,0.658,0.462,0.658
			c0.168,0,0.266-0.014,0.357-0.042l0.028,0.469c-0.119,0.042-0.308,0.084-0.546,0.084c-0.287,0-0.518-0.098-0.665-0.259
			c-0.168-0.189-0.238-0.49-0.238-0.89v-1.842h-0.525v-0.469h0.525v-0.624L42.359,38.195z"/>
		<path fill="#5E5E5D" d="M44.283,40.814c0.014,0.827,0.54,1.17,1.156,1.17c0.441,0,0.714-0.077,0.938-0.175l0.112,0.441
			c-0.217,0.098-0.596,0.217-1.135,0.217c-1.037,0-1.667-0.693-1.667-1.708c0-1.023,0.609-1.828,1.597-1.828
			c1.107,0,1.394,0.974,1.394,1.597c0,0.126-0.007,0.217-0.021,0.287H44.283z M46.083,40.373c0.007-0.393-0.161-1.002-0.848-1.002
			c-0.63,0-0.896,0.575-0.945,1.002H46.083z"/>
		<path fill="#5E5E5D" d="M47.44,37.424h0.616v4.973H47.44V37.424z"/>
		<path fill="#5E5E5D" d="M49.092,37.424h0.616v4.973h-0.616V37.424z"/>
		<path fill="#5E5E5D" d="M51.094,40.814c0.014,0.827,0.54,1.17,1.156,1.17c0.441,0,0.714-0.077,0.938-0.175L53.3,42.25
			c-0.217,0.098-0.596,0.217-1.135,0.217c-1.037,0-1.667-0.693-1.667-1.708c0-1.023,0.609-1.828,1.597-1.828
			c1.107,0,1.394,0.974,1.394,1.597c0,0.126-0.007,0.217-0.021,0.287H51.094z M52.894,40.373c0.007-0.393-0.161-1.002-0.848-1.002
			c-0.63,0-0.896,0.575-0.945,1.002H52.894z"/>
		<path fill="#5E5E5D" d="M55.434,42.04l2.619-3.831v-0.021h-2.395v-0.511h3.187v0.372l-2.605,3.817v0.021h2.641v0.511h-3.446V42.04
			z"/>
		<path fill="#5E5E5D" d="M61.994,41.584c0,0.294,0.015,0.582,0.049,0.813H61.49l-0.057-0.427h-0.021
			c-0.183,0.266-0.554,0.504-1.037,0.504c-0.686,0-1.036-0.483-1.036-0.974c0-0.819,0.729-1.268,2.038-1.261v-0.07
			c0-0.28-0.077-0.792-0.771-0.785c-0.322,0-0.651,0.091-0.89,0.252l-0.14-0.414c0.28-0.175,0.693-0.294,1.12-0.294
			c1.044,0,1.296,0.708,1.296,1.387V41.584z M61.392,40.667c-0.672-0.014-1.436,0.105-1.436,0.764c0,0.406,0.267,0.588,0.574,0.588
			c0.448,0,0.735-0.28,0.834-0.567c0.021-0.063,0.027-0.133,0.027-0.196V40.667z"/>
		<path fill="#5E5E5D" d="M62.98,39.925c0-0.357-0.008-0.638-0.028-0.917h0.546l0.035,0.553h0.014
			c0.169-0.315,0.561-0.63,1.121-0.63c0.469,0,1.197,0.28,1.197,1.443v2.024h-0.616v-1.954c0-0.546-0.203-1.008-0.784-1.008
			c-0.399,0-0.715,0.287-0.826,0.63c-0.028,0.077-0.042,0.189-0.042,0.287v2.045H62.98V39.925z"/>
		<path fill="#5E5E5D" d="M69.765,41.9c0,0.784-0.161,1.253-0.483,1.555c-0.336,0.301-0.813,0.406-1.24,0.406
			c-0.406,0-0.854-0.098-1.127-0.28l0.154-0.476c0.224,0.147,0.574,0.273,0.994,0.273c0.63,0,1.093-0.329,1.093-1.19v-0.372h-0.015
			c-0.182,0.315-0.553,0.567-1.078,0.567c-0.841,0-1.442-0.714-1.442-1.66c0-1.149,0.749-1.793,1.533-1.793
			c0.589,0,0.903,0.301,1.058,0.588h0.014l0.021-0.511h0.546c-0.021,0.238-0.027,0.518-0.027,0.924V41.9z M69.148,40.338
			c0-0.098-0.008-0.189-0.035-0.273c-0.112-0.364-0.406-0.659-0.861-0.659c-0.589,0-1.009,0.498-1.009,1.289
			c0,0.659,0.343,1.219,1.001,1.219c0.386,0,0.729-0.238,0.854-0.637c0.035-0.098,0.05-0.217,0.05-0.329V40.338z"/>
		<path fill="#5E5E5D" d="M71.128,40.814c0.014,0.827,0.539,1.17,1.156,1.17c0.44,0,0.714-0.077,0.938-0.175l0.111,0.441
			c-0.217,0.098-0.595,0.217-1.135,0.217c-1.036,0-1.666-0.693-1.666-1.708c0-1.023,0.608-1.828,1.597-1.828
			c1.106,0,1.394,0.974,1.394,1.597c0,0.126-0.007,0.217-0.021,0.287H71.128z M72.928,40.373c0.007-0.393-0.161-1.002-0.847-1.002
			c-0.631,0-0.896,0.575-0.946,1.002H72.928z"/>
		<path fill="#5E5E5D" d="M74.285,40.065c0-0.399-0.008-0.743-0.028-1.058h0.539l0.028,0.665h0.021
			c0.154-0.455,0.532-0.742,0.945-0.742c0.063,0,0.112,0.007,0.169,0.014v0.581c-0.063-0.007-0.126-0.014-0.211-0.014
			c-0.434,0-0.742,0.33-0.826,0.785c-0.014,0.091-0.021,0.189-0.021,0.287v1.814h-0.616V40.065z"/>
		<path fill="#5E5E5D" d="M78.078,37.747c0.267-0.063,0.693-0.105,1.113-0.105c0.609,0,1.002,0.105,1.289,0.343
			c0.245,0.182,0.399,0.462,0.399,0.833c0,0.462-0.309,0.862-0.799,1.037v0.021c0.448,0.105,0.974,0.477,0.974,1.177
			c0,0.406-0.161,0.714-0.406,0.945c-0.322,0.301-0.854,0.441-1.625,0.441c-0.42,0-0.742-0.028-0.945-0.056V37.747z M78.688,39.68
			h0.554c0.637,0,1.016-0.343,1.016-0.799c0-0.546-0.414-0.77-1.03-0.77c-0.28,0-0.441,0.021-0.539,0.042V39.68z M78.688,41.935
			c0.126,0.021,0.294,0.028,0.512,0.028c0.63,0,1.211-0.231,1.211-0.917c0-0.638-0.553-0.911-1.219-0.911h-0.504V41.935z"/>
		<path fill="#5E5E5D" d="M82.201,40.814c0.014,0.827,0.539,1.17,1.155,1.17c0.441,0,0.715-0.077,0.939-0.175l0.111,0.441
			c-0.217,0.098-0.595,0.217-1.135,0.217c-1.036,0-1.666-0.693-1.666-1.708c0-1.023,0.608-1.828,1.597-1.828
			c1.106,0,1.394,0.974,1.394,1.597c0,0.126-0.007,0.217-0.021,0.287H82.201z M84.001,40.373c0.007-0.393-0.161-1.002-0.847-1.002
			c-0.631,0-0.896,0.575-0.946,1.002H84.001z"/>
		<path fill="#5E5E5D" d="M85.358,40.065c0-0.399-0.008-0.743-0.028-1.058h0.539l0.028,0.665h0.021
			c0.154-0.455,0.532-0.742,0.946-0.742c0.063,0,0.111,0.007,0.168,0.014v0.581c-0.063-0.007-0.126-0.014-0.211-0.014
			c-0.434,0-0.742,0.33-0.826,0.785c-0.014,0.091-0.021,0.189-0.021,0.287v1.814h-0.616V40.065z"/>
		<path fill="#5E5E5D" d="M90.547,41.9c0,0.784-0.161,1.253-0.483,1.555c-0.336,0.301-0.813,0.406-1.24,0.406
			c-0.406,0-0.854-0.098-1.127-0.28l0.154-0.476c0.224,0.147,0.574,0.273,0.994,0.273c0.63,0,1.093-0.329,1.093-1.19v-0.372h-0.015
			c-0.182,0.315-0.553,0.567-1.078,0.567c-0.841,0-1.442-0.714-1.442-1.66c0-1.149,0.749-1.793,1.533-1.793
			c0.589,0,0.903,0.301,1.058,0.588h0.014l0.021-0.511h0.546c-0.021,0.238-0.027,0.518-0.027,0.924V41.9z M89.931,40.338
			c0-0.098-0.008-0.189-0.035-0.273c-0.112-0.364-0.406-0.659-0.861-0.659c-0.589,0-1.009,0.498-1.009,1.289
			c0,0.659,0.343,1.219,1.001,1.219c0.386,0,0.729-0.238,0.854-0.637c0.035-0.098,0.05-0.217,0.05-0.329V40.338z"/>
	</g>
	<g>
		<path fill="#5E5E5D" d="M23.677,50.408c0.324-0.048,0.702-0.084,1.115-0.084c0.75,0,1.284,0.174,1.637,0.504
			c0.366,0.33,0.576,0.797,0.576,1.451c0,0.66-0.21,1.199-0.582,1.571c-0.384,0.378-1.007,0.582-1.793,0.582
			c-0.378,0-0.684-0.012-0.954-0.048V50.408z M24.205,53.988c0.132,0.024,0.324,0.024,0.528,0.024
			c1.115,0.006,1.721-0.624,1.721-1.715c0.006-0.954-0.534-1.56-1.637-1.56c-0.27,0-0.474,0.024-0.612,0.054V53.988z"/>
		<path fill="#5E5E5D" d="M27.913,51.002c-0.192,0-0.318-0.15-0.318-0.324c0-0.186,0.132-0.33,0.33-0.33
			c0.192,0,0.324,0.144,0.324,0.33c0,0.174-0.126,0.324-0.33,0.324H27.913z M27.661,54.396v-2.902h0.527v2.902H27.661z"/>
	</g>
	<g>
		<path fill="#5E5E5D" d="M38.827,54.024c0.114,0.006,0.246,0,0.426-0.024c0.306-0.036,0.594-0.162,0.815-0.372
			c0.258-0.24,0.444-0.576,0.516-1.038h-0.018c-0.216,0.264-0.528,0.42-0.924,0.42c-0.702,0-1.151-0.528-1.151-1.199
			c0-0.732,0.54-1.379,1.337-1.379s1.289,0.642,1.289,1.643c0,0.857-0.288,1.457-0.671,1.829c-0.3,0.288-0.714,0.474-1.133,0.521
			c-0.192,0.024-0.366,0.036-0.486,0.03V54.024z M39.78,50.834c-0.444,0-0.762,0.396-0.762,0.947c0,0.486,0.294,0.828,0.75,0.828
			c0.354,0,0.63-0.174,0.773-0.408c0.024-0.048,0.042-0.108,0.042-0.192c0.006-0.671-0.246-1.175-0.797-1.175H39.78z"/>
		<path fill="#5E5E5D" d="M44.262,52.585v0.384H42.78v-0.384H44.262z"/>
		<path fill="#5E5E5D" d="M47.13,50.99h-0.012l-0.678,0.366l-0.102-0.401l0.852-0.456h0.45v3.898h-0.51V50.99z"/>
		<path fill="#5E5E5D" d="M49.063,54.396v-0.324l0.414-0.402c0.996-0.947,1.451-1.451,1.451-2.039c0-0.396-0.186-0.761-0.768-0.761
			c-0.354,0-0.647,0.18-0.828,0.33l-0.168-0.372c0.264-0.222,0.654-0.396,1.104-0.396c0.833,0,1.188,0.576,1.188,1.133
			c0,0.72-0.522,1.301-1.343,2.093l-0.306,0.288v0.012h1.745v0.438H49.063z"/>
		<path fill="#5E5E5D" d="M52.536,52.345c-0.204,0-0.348-0.162-0.348-0.372c0-0.222,0.15-0.377,0.354-0.377
			c0.216,0,0.354,0.156,0.354,0.377c0,0.21-0.138,0.372-0.354,0.372H52.536z M52.536,54.462c-0.204,0-0.348-0.162-0.348-0.372
			c0-0.222,0.15-0.378,0.354-0.378c0.216,0,0.354,0.156,0.354,0.378c0,0.209-0.138,0.372-0.354,0.372H52.536z"/>
		<path fill="#5E5E5D" d="M53.508,53.796c0.15,0.09,0.492,0.24,0.863,0.24c0.672,0,0.888-0.426,0.881-0.755
			c-0.006-0.546-0.498-0.78-1.007-0.78h-0.294v-0.396h0.294c0.384,0,0.87-0.198,0.87-0.66c0-0.312-0.198-0.588-0.684-0.588
			c-0.312,0-0.612,0.138-0.78,0.258l-0.144-0.384c0.209-0.15,0.605-0.3,1.025-0.3c0.768,0,1.115,0.456,1.115,0.93
			c0,0.408-0.246,0.75-0.72,0.923v0.012c0.48,0.09,0.87,0.45,0.87,0.995c0,0.624-0.492,1.169-1.421,1.169
			c-0.438,0-0.821-0.138-1.013-0.264L53.508,53.796z"/>
		<path fill="#5E5E5D" d="M57.701,54.462c-0.761,0-1.283-0.713-1.295-2.003c0-1.313,0.57-2.027,1.361-2.027
			c0.815,0,1.289,0.731,1.289,1.973c0,1.325-0.497,2.057-1.349,2.057H57.701z M57.731,54.054c0.534,0,0.792-0.63,0.792-1.625
			c0-0.959-0.24-1.589-0.792-1.589c-0.479,0-0.792,0.612-0.792,1.589c-0.012,1.013,0.3,1.625,0.786,1.625H57.731z"/>
		<path fill="#5E5E5D" d="M61.518,50.354v2.399c0,0.899,0.401,1.283,0.941,1.283c0.594,0,0.983-0.396,0.983-1.283v-2.399h0.527
			v2.363c0,1.241-0.653,1.745-1.528,1.745c-0.828,0-1.451-0.468-1.451-1.727v-2.381H61.518z"/>
		<path fill="#5E5E5D" d="M64.859,50.138h0.528v1.811h0.012c0.084-0.15,0.216-0.288,0.378-0.372c0.155-0.096,0.342-0.15,0.539-0.15
			c0.391,0,1.014,0.24,1.014,1.241v1.727h-0.527v-1.673c0-0.468-0.174-0.858-0.672-0.858c-0.342,0-0.605,0.24-0.708,0.528
			c-0.029,0.072-0.035,0.15-0.035,0.252v1.751h-0.528V50.138z"/>
		<path fill="#5E5E5D" d="M68.189,52.399c0-0.342-0.006-0.635-0.023-0.905h0.462l0.023,0.57h0.019
			c0.132-0.39,0.455-0.636,0.81-0.636c0.054,0,0.096,0.006,0.144,0.012v0.498c-0.054-0.006-0.108-0.012-0.18-0.012
			c-0.372,0-0.636,0.282-0.708,0.672c-0.012,0.078-0.018,0.162-0.018,0.246v1.553h-0.528V52.399z"/>
	</g>
	<g>
		<path fill="#5E5E5D" d="M81.936,53.599c0,0.306,0.006,0.569,0.024,0.797h-0.468l-0.03-0.474H81.45
			c-0.132,0.234-0.444,0.54-0.96,0.54c-0.455,0-1.001-0.258-1.001-1.271v-1.697h0.527v1.601c0,0.552,0.174,0.93,0.647,0.93
			c0.354,0,0.6-0.246,0.696-0.486c0.029-0.072,0.048-0.168,0.048-0.27v-1.775h0.527V53.599z"/>
		<path fill="#5E5E5D" d="M82.813,52.279c0-0.306-0.006-0.546-0.023-0.786h0.468l0.029,0.474h0.013
			c0.144-0.27,0.479-0.54,0.959-0.54c0.402,0,1.025,0.24,1.025,1.235v1.733h-0.527v-1.673c0-0.468-0.174-0.864-0.672-0.864
			c-0.342,0-0.611,0.246-0.708,0.54c-0.023,0.066-0.035,0.162-0.035,0.246v1.751h-0.528V52.279z"/>
		<path fill="#5E5E5D" d="M88.649,50.138v3.508c0,0.258,0.006,0.552,0.024,0.75H88.2l-0.024-0.504h-0.012
			c-0.162,0.324-0.51,0.57-0.983,0.57c-0.702,0-1.248-0.594-1.248-1.475c-0.006-0.972,0.6-1.559,1.302-1.559
			c0.449,0,0.749,0.21,0.875,0.438h0.013v-1.727H88.649z M88.122,52.675c0-0.072-0.006-0.156-0.024-0.228
			c-0.078-0.33-0.365-0.606-0.762-0.606c-0.546,0-0.869,0.48-0.869,1.116c0,0.593,0.294,1.079,0.857,1.079
			c0.354,0,0.678-0.24,0.773-0.636c0.019-0.066,0.024-0.138,0.024-0.222V52.675z"/>
	</g>
	<g>
		<path fill="#5E5E5D" d="M98.058,50.99h-0.012l-0.678,0.366l-0.102-0.401l0.852-0.456h0.449v3.898h-0.51V50.99z"/>
		<path fill="#5E5E5D" d="M101.622,54.396v-1.067h-1.812v-0.342l1.739-2.489h0.569v2.423h0.546v0.408h-0.546v1.067H101.622z
			 M101.622,52.921V51.62c0-0.204,0.006-0.408,0.018-0.612h-0.018c-0.12,0.228-0.216,0.396-0.324,0.576l-0.953,1.325v0.012H101.622z
			"/>
		<path fill="#5E5E5D" d="M105.731,52.585v0.384h-1.481v-0.384H105.731z"/>
		<path fill="#5E5E5D" d="M108.6,50.99h-0.012l-0.678,0.366l-0.102-0.401l0.852-0.456h0.449v3.898h-0.51V50.99z"/>
		<path fill="#5E5E5D" d="M113.063,50.498v0.348l-1.697,3.55h-0.54l1.686-3.448v-0.012h-1.907v-0.438H113.063z"/>
		<path fill="#5E5E5D" d="M115.59,50.354v2.399c0,0.899,0.401,1.283,0.941,1.283c0.594,0,0.983-0.396,0.983-1.283v-2.399h0.527
			v2.363c0,1.241-0.653,1.745-1.528,1.745c-0.828,0-1.451-0.468-1.451-1.727v-2.381H115.59z"/>
		<path fill="#5E5E5D" d="M118.932,50.138h0.528v1.811h0.012c0.084-0.15,0.216-0.288,0.378-0.372c0.155-0.096,0.342-0.15,0.539-0.15
			c0.391,0,1.014,0.24,1.014,1.241v1.727h-0.527v-1.673c0-0.468-0.174-0.858-0.672-0.858c-0.342,0-0.605,0.24-0.708,0.528
			c-0.029,0.072-0.035,0.15-0.035,0.252v1.751h-0.528V50.138z"/>
		<path fill="#5E5E5D" d="M122.262,52.399c0-0.342-0.006-0.635-0.023-0.905h0.462l0.023,0.57h0.019
			c0.132-0.39,0.455-0.636,0.81-0.636c0.054,0,0.096,0.006,0.144,0.012v0.498c-0.054-0.006-0.108-0.012-0.18-0.012
			c-0.372,0-0.636,0.282-0.708,0.672c-0.012,0.078-0.018,0.162-0.018,0.246v1.553h-0.528V52.399z"/>
	</g>
	<g>
		<path fill="#5E5E5D" d="M23.677,61.694h2.177v0.438h-1.649v1.343h1.523v0.432h-1.523v1.829h-0.528V61.694z"/>
		<path fill="#5E5E5D" d="M26.467,63.739c0-0.342-0.006-0.635-0.024-0.905h0.462l0.024,0.57h0.018
			c0.132-0.39,0.456-0.636,0.81-0.636c0.054,0,0.096,0.006,0.144,0.012v0.498c-0.054-0.006-0.108-0.012-0.18-0.012
			c-0.372,0-0.636,0.282-0.708,0.672c-0.012,0.078-0.018,0.162-0.018,0.246v1.553h-0.527V63.739z"/>
	</g>
	<g>
		<path fill="#5E5E5D" d="M38.827,65.364c0.114,0.006,0.246,0,0.426-0.024c0.306-0.036,0.594-0.162,0.815-0.372
			c0.258-0.24,0.444-0.576,0.516-1.038h-0.018c-0.216,0.264-0.528,0.42-0.924,0.42c-0.702,0-1.151-0.528-1.151-1.199
			c0-0.732,0.54-1.379,1.337-1.379s1.289,0.642,1.289,1.643c0,0.857-0.288,1.457-0.671,1.829c-0.3,0.288-0.714,0.474-1.133,0.521
			c-0.192,0.024-0.366,0.036-0.486,0.03V65.364z M39.78,62.174c-0.444,0-0.762,0.396-0.762,0.947c0,0.486,0.294,0.828,0.75,0.828
			c0.354,0,0.63-0.174,0.773-0.408c0.024-0.048,0.042-0.108,0.042-0.192c0.006-0.671-0.246-1.175-0.797-1.175H39.78z"/>
		<path fill="#5E5E5D" d="M44.262,63.925v0.384H42.78v-0.384H44.262z"/>
		<path fill="#5E5E5D" d="M47.13,62.33h-0.012l-0.678,0.366l-0.102-0.401l0.852-0.456h0.45v3.898h-0.51V62.33z"/>
		<path fill="#5E5E5D" d="M49.063,65.736v-0.324l0.414-0.402c0.996-0.947,1.451-1.451,1.451-2.039c0-0.396-0.186-0.761-0.768-0.761
			c-0.354,0-0.647,0.18-0.828,0.33l-0.168-0.372c0.264-0.222,0.654-0.396,1.104-0.396c0.833,0,1.188,0.576,1.188,1.133
			c0,0.72-0.522,1.301-1.343,2.093l-0.306,0.288v0.012h1.745v0.438H49.063z"/>
		<path fill="#5E5E5D" d="M52.536,63.685c-0.204,0-0.348-0.162-0.348-0.372c0-0.222,0.15-0.377,0.354-0.377
			c0.216,0,0.354,0.156,0.354,0.377c0,0.21-0.138,0.372-0.354,0.372H52.536z M52.536,65.802c-0.204,0-0.348-0.162-0.348-0.372
			c0-0.222,0.15-0.378,0.354-0.378c0.216,0,0.354,0.156,0.354,0.378c0,0.209-0.138,0.372-0.354,0.372H52.536z"/>
		<path fill="#5E5E5D" d="M53.508,65.136c0.15,0.09,0.492,0.24,0.863,0.24c0.672,0,0.888-0.426,0.881-0.755
			c-0.006-0.546-0.498-0.78-1.007-0.78h-0.294v-0.396h0.294c0.384,0,0.87-0.198,0.87-0.66c0-0.312-0.198-0.588-0.684-0.588
			c-0.312,0-0.612,0.138-0.78,0.258l-0.144-0.384c0.209-0.15,0.605-0.3,1.025-0.3c0.768,0,1.115,0.456,1.115,0.93
			c0,0.408-0.246,0.75-0.72,0.923v0.012c0.48,0.09,0.87,0.45,0.87,0.995c0,0.624-0.492,1.169-1.421,1.169
			c-0.438,0-0.821-0.138-1.013-0.264L53.508,65.136z"/>
		<path fill="#5E5E5D" d="M57.701,65.802c-0.761,0-1.283-0.713-1.295-2.003c0-1.313,0.57-2.027,1.361-2.027
			c0.815,0,1.289,0.731,1.289,1.973c0,1.325-0.497,2.057-1.349,2.057H57.701z M57.731,65.394c0.534,0,0.792-0.63,0.792-1.625
			c0-0.959-0.24-1.589-0.792-1.589c-0.479,0-0.792,0.612-0.792,1.589c-0.012,1.013,0.3,1.625,0.786,1.625H57.731z"/>
		<path fill="#5E5E5D" d="M61.518,61.694v2.399c0,0.899,0.401,1.283,0.941,1.283c0.594,0,0.983-0.396,0.983-1.283v-2.399h0.527
			v2.363c0,1.241-0.653,1.745-1.528,1.745c-0.828,0-1.451-0.468-1.451-1.727v-2.381H61.518z"/>
		<path fill="#5E5E5D" d="M64.859,61.478h0.528v1.811h0.012c0.084-0.15,0.216-0.288,0.378-0.372c0.155-0.096,0.342-0.15,0.539-0.15
			c0.391,0,1.014,0.24,1.014,1.241v1.727h-0.527v-1.673c0-0.468-0.174-0.858-0.672-0.858c-0.342,0-0.605,0.24-0.708,0.528
			c-0.029,0.072-0.035,0.15-0.035,0.252v1.751h-0.528V61.478z"/>
		<path fill="#5E5E5D" d="M68.189,63.739c0-0.342-0.006-0.635-0.023-0.905h0.462l0.023,0.57h0.019
			c0.132-0.39,0.455-0.636,0.81-0.636c0.054,0,0.096,0.006,0.144,0.012v0.498c-0.054-0.006-0.108-0.012-0.18-0.012
			c-0.372,0-0.636,0.282-0.708,0.672c-0.012,0.078-0.018,0.162-0.018,0.246v1.553h-0.528V63.739z"/>
	</g>
	<g>
		<path fill="#5E5E5D" d="M81.936,64.938c0,0.306,0.006,0.569,0.024,0.797h-0.468l-0.03-0.474H81.45
			c-0.132,0.234-0.444,0.54-0.96,0.54c-0.455,0-1.001-0.258-1.001-1.271v-1.697h0.527v1.601c0,0.552,0.174,0.93,0.647,0.93
			c0.354,0,0.6-0.246,0.696-0.486c0.029-0.072,0.048-0.168,0.048-0.27v-1.775h0.527V64.938z"/>
		<path fill="#5E5E5D" d="M82.813,63.619c0-0.306-0.006-0.546-0.023-0.786h0.468l0.029,0.474h0.013
			c0.144-0.27,0.479-0.54,0.959-0.54c0.402,0,1.025,0.24,1.025,1.235v1.733h-0.527v-1.673c0-0.468-0.174-0.864-0.672-0.864
			c-0.342,0-0.611,0.246-0.708,0.54c-0.023,0.066-0.035,0.162-0.035,0.246v1.751h-0.528V63.619z"/>
		<path fill="#5E5E5D" d="M88.649,61.478v3.508c0,0.258,0.006,0.552,0.024,0.75H88.2l-0.024-0.504h-0.012
			c-0.162,0.324-0.51,0.57-0.983,0.57c-0.702,0-1.248-0.594-1.248-1.475c-0.006-0.972,0.6-1.559,1.302-1.559
			c0.449,0,0.749,0.21,0.875,0.438h0.013v-1.727H88.649z M88.122,64.015c0-0.072-0.006-0.156-0.024-0.228
			c-0.078-0.33-0.365-0.606-0.762-0.606c-0.546,0-0.869,0.48-0.869,1.116c0,0.593,0.294,1.079,0.857,1.079
			c0.354,0,0.678-0.24,0.773-0.636c0.019-0.066,0.024-0.138,0.024-0.222V64.015z"/>
	</g>
	<g>
		<path fill="#5E5E5D" d="M98.058,62.33h-0.012l-0.678,0.366l-0.102-0.401l0.852-0.456h0.449v3.898h-0.51V62.33z"/>
		<path fill="#5E5E5D" d="M101.622,65.736v-1.067h-1.812v-0.342l1.739-2.489h0.569v2.423h0.546v0.408h-0.546v1.067H101.622z
			 M101.622,64.261v-1.301c0-0.204,0.006-0.408,0.018-0.612h-0.018c-0.12,0.228-0.216,0.396-0.324,0.576l-0.953,1.325v0.012H101.622
			z"/>
		<path fill="#5E5E5D" d="M105.731,63.925v0.384h-1.481v-0.384H105.731z"/>
		<path fill="#5E5E5D" d="M108.6,62.33h-0.012l-0.678,0.366l-0.102-0.401l0.852-0.456h0.449v3.898h-0.51V62.33z"/>
		<path fill="#5E5E5D" d="M113.063,61.838v0.348l-1.697,3.55h-0.54l1.686-3.448v-0.012h-1.907v-0.438H113.063z"/>
		<path fill="#5E5E5D" d="M115.59,61.694v2.399c0,0.899,0.401,1.283,0.941,1.283c0.594,0,0.983-0.396,0.983-1.283v-2.399h0.527
			v2.363c0,1.241-0.653,1.745-1.528,1.745c-0.828,0-1.451-0.468-1.451-1.727v-2.381H115.59z"/>
		<path fill="#5E5E5D" d="M118.932,61.478h0.528v1.811h0.012c0.084-0.15,0.216-0.288,0.378-0.372c0.155-0.096,0.342-0.15,0.539-0.15
			c0.391,0,1.014,0.24,1.014,1.241v1.727h-0.527v-1.673c0-0.468-0.174-0.858-0.672-0.858c-0.342,0-0.605,0.24-0.708,0.528
			c-0.029,0.072-0.035,0.15-0.035,0.252v1.751h-0.528V61.478z"/>
		<path fill="#5E5E5D" d="M122.262,63.739c0-0.342-0.006-0.635-0.023-0.905h0.462l0.023,0.57h0.019
			c0.132-0.39,0.455-0.636,0.81-0.636c0.054,0,0.096,0.006,0.144,0.012v0.498c-0.054-0.006-0.108-0.012-0.18-0.012
			c-0.372,0-0.636,0.282-0.708,0.672c-0.012,0.078-0.018,0.162-0.018,0.246v1.553h-0.528V63.739z"/>
	</g>
	<g>
		<path fill="#D07327" d="M24.53,98.43c0,0.419,0.02,0.83,0.07,1.159h-0.79l-0.08-0.61H23.7c-0.26,0.38-0.79,0.72-1.479,0.72
			c-0.979,0-1.479-0.689-1.479-1.389c0-1.169,1.04-1.809,2.909-1.799v-0.1c0-0.4-0.11-1.129-1.1-1.12
			c-0.459,0-0.929,0.13-1.269,0.36l-0.2-0.589c0.4-0.25,0.99-0.42,1.599-0.42c1.489,0,1.849,1.009,1.849,1.979V98.43z M23.67,97.121
			c-0.959-0.02-2.049,0.15-2.049,1.089c0,0.58,0.379,0.84,0.819,0.84c0.64,0,1.049-0.4,1.189-0.81c0.03-0.09,0.04-0.19,0.04-0.28
			V97.121z"/>
		<path fill="#D07327" d="M29.39,99.41c-0.23,0.11-0.74,0.28-1.389,0.28c-1.459,0-2.409-0.99-2.409-2.469
			c0-1.489,1.02-2.579,2.599-2.579c0.52,0,0.979,0.13,1.219,0.26l-0.2,0.67c-0.21-0.11-0.54-0.23-1.02-0.23
			c-1.109,0-1.709,0.83-1.709,1.829c0,1.119,0.719,1.809,1.679,1.809c0.5,0,0.83-0.12,1.08-0.229L29.39,99.41z"/>
		<path fill="#D07327" d="M30.421,92.493h0.879v3.019h0.02c0.14-0.25,0.36-0.48,0.63-0.62c0.26-0.16,0.57-0.25,0.899-0.25
			c0.65,0,1.689,0.4,1.689,2.069v2.878H33.66v-2.789c0-0.779-0.29-1.429-1.119-1.429c-0.57,0-1.01,0.4-1.18,0.879
			c-0.05,0.12-0.06,0.25-0.06,0.42v2.918h-0.879V92.493z"/>
		<path fill="#D07327" d="M37.031,93.593v1.159h1.259v0.67h-1.259v2.598c0,0.6,0.17,0.939,0.66,0.939c0.24,0,0.38-0.02,0.51-0.06
			l0.04,0.669c-0.17,0.06-0.44,0.12-0.78,0.12c-0.41,0-0.74-0.14-0.949-0.37c-0.24-0.27-0.34-0.699-0.34-1.269v-2.628h-0.75v-0.67
			h0.75v-0.89L37.031,93.593z"/>
	</g>
	<g>
		<path fill="#2E5DAD" d="M39.862,92.493h0.879v3.028h0.02c0.31-0.54,0.87-0.879,1.649-0.879c1.199,0,2.039,1,2.039,2.458
			c0,1.739-1.099,2.599-2.179,2.599c-0.7,0-1.249-0.27-1.619-0.909h-0.02l-0.05,0.799h-0.76c0.03-0.33,0.04-0.819,0.04-1.25V92.493z
			 M40.741,97.65c0,0.11,0.01,0.22,0.03,0.32C40.941,98.58,41.461,99,42.091,99c0.929,0,1.469-0.75,1.469-1.859
			c0-0.979-0.5-1.809-1.439-1.809c-0.6,0-1.159,0.42-1.329,1.08c-0.03,0.11-0.05,0.23-0.05,0.37V97.65z"/>
		<path fill="#2E5DAD" d="M45.972,93.933c-0.32,0-0.53-0.25-0.53-0.54c0-0.31,0.22-0.549,0.55-0.549c0.32,0,0.54,0.24,0.54,0.549
			c0,0.29-0.21,0.54-0.55,0.54H45.972z M45.552,99.589v-4.837h0.879v4.837H45.552z"/>
		<path fill="#2E5DAD" d="M47.772,98.69c0.27,0.16,0.729,0.34,1.169,0.34c0.63,0,0.93-0.31,0.93-0.72c0-0.42-0.25-0.64-0.89-0.879
			c-0.879-0.32-1.289-0.8-1.289-1.369c0-0.78,0.64-1.419,1.669-1.419c0.49,0,0.919,0.13,1.179,0.3l-0.209,0.63
			c-0.19-0.11-0.54-0.28-0.99-0.28c-0.52,0-0.799,0.3-0.799,0.66c0,0.4,0.28,0.58,0.909,0.83c0.83,0.31,1.27,0.73,1.27,1.449
			c0,0.86-0.67,1.459-1.799,1.459c-0.529,0-1.019-0.14-1.359-0.34L47.772,98.69z"/>
	</g>
	<g>
		<path fill="#D07327" d="M54.93,98.43c0,0.419,0.02,0.83,0.07,1.159h-0.79l-0.08-0.61H54.1c-0.26,0.38-0.79,0.72-1.479,0.72
			c-0.979,0-1.479-0.689-1.479-1.389c0-1.169,1.04-1.809,2.909-1.799v-0.1c0-0.4-0.11-1.129-1.1-1.12
			c-0.459,0-0.929,0.13-1.269,0.36l-0.2-0.589c0.4-0.25,0.99-0.42,1.599-0.42c1.489,0,1.849,1.009,1.849,1.979V98.43z M54.07,97.121
			c-0.959-0.02-2.049,0.15-2.049,1.089c0,0.58,0.379,0.84,0.819,0.84c0.64,0,1.049-0.4,1.189-0.81c0.03-0.09,0.04-0.19,0.04-0.28
			V97.121z"/>
		<path fill="#D07327" d="M59.789,99.41c-0.229,0.11-0.739,0.28-1.389,0.28c-1.459,0-2.409-0.99-2.409-2.469
			c0-1.489,1.02-2.579,2.598-2.579c0.521,0,0.979,0.13,1.22,0.26l-0.2,0.67c-0.21-0.11-0.539-0.23-1.02-0.23
			c-1.109,0-1.708,0.83-1.708,1.829c0,1.119,0.719,1.809,1.679,1.809c0.499,0,0.829-0.12,1.079-0.229L59.789,99.41z"/>
		<path fill="#D07327" d="M60.821,92.493h0.88v3.019h0.02c0.14-0.25,0.36-0.48,0.63-0.62c0.26-0.16,0.569-0.25,0.899-0.25
			c0.649,0,1.689,0.4,1.689,2.069v2.878h-0.88v-2.789c0-0.779-0.29-1.429-1.119-1.429c-0.57,0-1.01,0.4-1.18,0.879
			c-0.05,0.12-0.06,0.25-0.06,0.42v2.918h-0.88V92.493z"/>
		<path fill="#D07327" d="M67.431,93.593v1.159h1.259v0.67h-1.259v2.598c0,0.6,0.17,0.939,0.659,0.939c0.24,0,0.38-0.02,0.51-0.06
			l0.04,0.669c-0.17,0.06-0.439,0.12-0.779,0.12c-0.41,0-0.739-0.14-0.949-0.37c-0.24-0.27-0.34-0.699-0.34-1.269v-2.628h-0.75
			v-0.67h0.75v-0.89L67.431,93.593z"/>
	</g>
	<g>
		<path fill="#D07327" d="M20.842,177.189v-0.54l0.689-0.669c1.659-1.579,2.419-2.419,2.419-3.398c0-0.66-0.31-1.27-1.279-1.27
			c-0.59,0-1.08,0.3-1.379,0.55l-0.28-0.619c0.44-0.37,1.089-0.66,1.839-0.66c1.389,0,1.979,0.96,1.979,1.889
			c0,1.199-0.87,2.169-2.239,3.488l-0.51,0.479v0.021h2.909v0.729H20.842z"/>
		<path fill="#D07327" d="M28.69,177.189v-1.779h-3.019v-0.569l2.898-4.147h0.949v4.037h0.91v0.68h-0.91v1.779H28.69z M28.69,174.73
			v-2.169c0-0.339,0.01-0.679,0.03-1.019h-0.03c-0.2,0.379-0.36,0.659-0.54,0.959l-1.589,2.209v0.02H28.69z"/>
		<path fill="#D07327" d="M33.42,174.171v0.64h-2.469v-0.64H33.42z"/>
		<path fill="#D07327" d="M34.581,176.13c0.39,0.24,0.95,0.43,1.549,0.43c0.89,0,1.409-0.46,1.409-1.139c0-0.63-0.36-1-1.269-1.34
			c-1.1-0.38-1.779-0.959-1.779-1.898c0-1.05,0.87-1.829,2.179-1.829c0.68,0,1.189,0.159,1.479,0.319l-0.24,0.72
			c-0.21-0.13-0.66-0.319-1.27-0.319c-0.919,0-1.269,0.549-1.269,1.009c0,0.62,0.41,0.93,1.339,1.289
			c1.14,0.45,1.709,0.99,1.709,1.979c0,1.029-0.759,1.938-2.349,1.938c-0.649,0-1.359-0.199-1.719-0.439L34.581,176.13z"/>
		<path fill="#D07327" d="M40.651,171.192v1.16h1.259v0.669h-1.259v2.599c0,0.6,0.17,0.939,0.66,0.939c0.24,0,0.38-0.02,0.51-0.06
			l0.04,0.67c-0.17,0.06-0.44,0.119-0.78,0.119c-0.41,0-0.74-0.14-0.949-0.369c-0.24-0.271-0.34-0.7-0.34-1.27v-2.629h-0.75v-0.669
			h0.75v-0.89L40.651,171.192z"/>
		<path fill="#D07327" d="M46.949,175.86c0,0.51,0.01,0.949,0.04,1.329h-0.78l-0.05-0.79h-0.02c-0.22,0.391-0.74,0.9-1.599,0.9
			c-0.76,0-1.669-0.43-1.669-2.119v-2.828h0.879v2.668c0,0.92,0.29,1.549,1.08,1.549c0.589,0,1-0.409,1.159-0.81
			c0.05-0.119,0.08-0.279,0.08-0.449v-2.958h0.879V175.86z"/>
		<path fill="#D07327" d="M48.411,173.661c0-0.51-0.01-0.909-0.04-1.309h0.78l0.05,0.789h0.02c0.24-0.449,0.8-0.899,1.599-0.899
			c0.67,0,1.709,0.399,1.709,2.059v2.889h-0.879v-2.788c0-0.78-0.29-1.439-1.119-1.439c-0.57,0-1.02,0.409-1.18,0.899
			c-0.04,0.11-0.06,0.27-0.06,0.41v2.918h-0.879V173.661z"/>
		<path fill="#D07327" d="M58.139,170.094v5.847c0,0.43,0.01,0.919,0.04,1.249h-0.79l-0.04-0.84h-0.02
			c-0.27,0.54-0.85,0.95-1.639,0.95c-1.169,0-2.079-0.99-2.079-2.459c-0.01-1.619,1-2.599,2.169-2.599
			c0.75,0,1.249,0.35,1.459,0.729h0.02v-2.878H58.139z M57.259,174.321c0-0.12-0.01-0.26-0.04-0.38c-0.13-0.55-0.61-1.01-1.269-1.01
			c-0.91,0-1.449,0.8-1.449,1.859c0,0.989,0.489,1.799,1.429,1.799c0.589,0,1.129-0.399,1.289-1.06c0.03-0.109,0.04-0.229,0.04-0.37
			V174.321z"/>
		<path fill="#D07327" d="M60.101,174.931c0.02,1.18,0.77,1.669,1.648,1.669c0.63,0,1.02-0.109,1.34-0.25l0.16,0.63
			c-0.311,0.14-0.85,0.31-1.619,0.31c-1.479,0-2.379-0.989-2.379-2.438c0-1.459,0.869-2.608,2.278-2.608
			c1.579,0,1.989,1.39,1.989,2.278c0,0.181-0.01,0.311-0.03,0.41H60.101z M62.669,174.301c0.01-0.56-0.229-1.429-1.209-1.429
			c-0.899,0-1.279,0.819-1.35,1.429H62.669z"/>
		<path fill="#D07327" d="M64.611,173.661c0-0.51-0.01-0.909-0.04-1.309h0.779l0.051,0.789h0.02c0.24-0.449,0.8-0.899,1.6-0.899
			c0.669,0,1.709,0.399,1.709,2.059v2.889h-0.88v-2.788c0-0.78-0.29-1.439-1.119-1.439c-0.57,0-1.02,0.409-1.18,0.899
			c-0.04,0.11-0.06,0.27-0.06,0.41v2.918h-0.88V173.661z"/>
	</g>
	<g>
		<path fill="#2E5DAD" d="M73.991,174.171v0.64h-2.469v-0.64H73.991z"/>
		<path fill="#2E5DAD" d="M75.263,170.553c0.38-0.09,0.989-0.149,1.589-0.149c0.869,0,1.43,0.149,1.839,0.489
			c0.35,0.26,0.57,0.66,0.57,1.189c0,0.66-0.44,1.229-1.14,1.479v0.03c0.64,0.149,1.389,0.68,1.389,1.679
			c0,0.58-0.229,1.02-0.579,1.35c-0.46,0.43-1.22,0.629-2.319,0.629c-0.6,0-1.059-0.04-1.349-0.079V170.553z M76.132,173.312h0.79
			c0.909,0,1.449-0.489,1.449-1.14c0-0.779-0.59-1.099-1.47-1.099c-0.399,0-0.63,0.029-0.77,0.06V173.312z M76.132,176.53
			c0.18,0.029,0.42,0.039,0.729,0.039c0.899,0,1.729-0.329,1.729-1.309c0-0.91-0.79-1.3-1.739-1.3h-0.72V176.53z"/>
		<path fill="#2E5DAD" d="M84.061,176.03c0,0.42,0.021,0.829,0.07,1.159h-0.79l-0.08-0.609h-0.029c-0.261,0.38-0.79,0.72-1.479,0.72
			c-0.979,0-1.479-0.69-1.479-1.39c0-1.169,1.04-1.809,2.908-1.799v-0.101c0-0.399-0.109-1.129-1.099-1.119
			c-0.46,0-0.93,0.13-1.27,0.36l-0.2-0.59c0.4-0.25,0.989-0.42,1.6-0.42c1.489,0,1.849,1.01,1.849,1.979V176.03z M83.201,174.721
			c-0.96-0.02-2.049,0.15-2.049,1.09c0,0.579,0.38,0.839,0.819,0.839c0.64,0,1.05-0.399,1.189-0.81c0.03-0.09,0.04-0.189,0.04-0.279
			V174.721z"/>
		<path fill="#2E5DAD" d="M85.472,173.661c0-0.51-0.01-0.909-0.04-1.309h0.779l0.051,0.789h0.02c0.24-0.449,0.8-0.899,1.6-0.899
			c0.669,0,1.709,0.399,1.709,2.059v2.889h-0.88v-2.788c0-0.78-0.29-1.439-1.119-1.439c-0.57,0-1.02,0.409-1.18,0.899
			c-0.04,0.11-0.06,0.27-0.06,0.41v2.918h-0.88V173.661z"/>
		<path fill="#2E5DAD" d="M91.901,174.571h0.02c0.12-0.17,0.28-0.38,0.42-0.55l1.43-1.669h1.049l-1.869,1.988l2.129,2.849H94.01
			l-1.659-2.318l-0.449,0.499v1.819h-0.88v-7.096h0.88V174.571z"/>
	</g>
	<g>
		<path fill="#5E5E5D" d="M21.501,109.463l-0.42,1.271h-0.54l1.373-4.042h0.63l1.379,4.042h-0.558l-0.432-1.271H21.501z
			 M22.827,109.055l-0.402-1.163c-0.084-0.264-0.144-0.504-0.204-0.738h-0.018c-0.054,0.234-0.12,0.486-0.198,0.731l-0.396,1.169
			H22.827z"/>
		<path fill="#5E5E5D" d="M26.81,109.937c0,0.306,0.006,0.569,0.024,0.797h-0.468l-0.03-0.474h-0.012
			c-0.132,0.234-0.444,0.54-0.959,0.54c-0.456,0-1.001-0.258-1.001-1.271v-1.697h0.527v1.601c0,0.552,0.174,0.93,0.648,0.93
			c0.354,0,0.6-0.246,0.695-0.486c0.03-0.072,0.048-0.168,0.048-0.27v-1.775h0.527V109.937z"/>
		<path fill="#5E5E5D" d="M29.757,110.626c-0.138,0.066-0.444,0.168-0.834,0.168c-0.875,0-1.445-0.594-1.445-1.481
			c0-0.894,0.611-1.547,1.559-1.547c0.312,0,0.587,0.078,0.731,0.156l-0.12,0.402c-0.125-0.066-0.324-0.138-0.611-0.138
			c-0.666,0-1.025,0.498-1.025,1.098c0,0.671,0.432,1.085,1.007,1.085c0.3,0,0.498-0.072,0.647-0.138L29.757,110.626z"/>
		<path fill="#5E5E5D" d="M30.376,106.477h0.527v1.811h0.012c0.084-0.15,0.216-0.288,0.378-0.372c0.156-0.096,0.342-0.15,0.54-0.15
			c0.39,0,1.013,0.24,1.013,1.241v1.727h-0.527v-1.673c0-0.468-0.174-0.858-0.672-0.858c-0.342,0-0.605,0.24-0.708,0.528
			c-0.03,0.072-0.036,0.15-0.036,0.252v1.751h-0.527V106.477z"/>
		<path fill="#5E5E5D" d="M37.022,110.039c0,0.252,0.012,0.498,0.042,0.696h-0.474l-0.048-0.366h-0.018
			c-0.156,0.228-0.474,0.432-0.888,0.432c-0.587,0-0.887-0.414-0.887-0.833c0-0.702,0.624-1.085,1.745-1.08v-0.06
			c0-0.24-0.066-0.678-0.66-0.672c-0.276,0-0.558,0.078-0.762,0.216l-0.12-0.354c0.24-0.15,0.594-0.252,0.959-0.252
			c0.894,0,1.109,0.605,1.109,1.187V110.039z M36.507,109.253c-0.576-0.012-1.229,0.09-1.229,0.653c0,0.348,0.228,0.504,0.492,0.504
			c0.384,0,0.629-0.24,0.713-0.486c0.018-0.054,0.024-0.114,0.024-0.168V109.253z"/>
		<path fill="#5E5E5D" d="M40.298,109.937c0,0.306,0.006,0.569,0.024,0.797h-0.468l-0.03-0.474h-0.012
			c-0.132,0.234-0.444,0.54-0.959,0.54c-0.456,0-1.001-0.258-1.001-1.271v-1.697h0.527v1.601c0,0.552,0.174,0.93,0.648,0.93
			c0.354,0,0.6-0.246,0.695-0.486c0.03-0.072,0.048-0.168,0.048-0.27v-1.775h0.527V109.937z"/>
		<path fill="#5E5E5D" d="M41.176,110.734v-2.71c0-0.684,0.162-1.067,0.432-1.307c0.222-0.204,0.51-0.306,0.87-0.306
			c0.576,0,1.073,0.354,1.073,1.014c0,0.204-0.072,0.39-0.138,0.492c-0.27,0.114-0.432,0.282-0.432,0.486
			c0,0.204,0.12,0.33,0.306,0.521c0.24,0.24,0.485,0.492,0.485,0.923c0,0.564-0.408,0.954-1.073,0.954
			c-0.228,0-0.462-0.036-0.636-0.126l0.096-0.402c0.156,0.078,0.324,0.12,0.503,0.12c0.384,0,0.588-0.228,0.588-0.504
			c0-0.251-0.114-0.419-0.324-0.618c-0.252-0.24-0.468-0.468-0.468-0.797c0-0.312,0.186-0.57,0.534-0.738
			c0.036-0.072,0.054-0.162,0.054-0.258c0-0.414-0.258-0.653-0.624-0.653c-0.462,0-0.72,0.324-0.72,1.175v2.734H41.176z"/>
		<path fill="#5E5E5D" d="M44.764,109.379c0.012,0.708,0.461,1.001,0.989,1.001c0.378,0,0.612-0.066,0.804-0.15l0.096,0.378
			c-0.186,0.084-0.51,0.186-0.971,0.186c-0.888,0-1.427-0.594-1.427-1.463c0-0.875,0.521-1.565,1.367-1.565
			c0.947,0,1.193,0.833,1.193,1.367c0,0.108-0.006,0.186-0.018,0.246H44.764z M46.305,109.001c0.006-0.336-0.138-0.858-0.726-0.858
			c-0.54,0-0.768,0.492-0.81,0.858H46.305z"/>
		<path fill="#5E5E5D" d="M47.47,108.737c0-0.342-0.006-0.635-0.024-0.905h0.462l0.024,0.57h0.018
			c0.132-0.39,0.456-0.636,0.81-0.636c0.054,0,0.096,0.006,0.144,0.012v0.498c-0.054-0.006-0.108-0.012-0.18-0.012
			c-0.372,0-0.636,0.282-0.708,0.672c-0.012,0.078-0.018,0.162-0.018,0.246v1.553H47.47V108.737z"/>
		<path fill="#5E5E5D" d="M49.432,106.477h0.527v1.811h0.012c0.084-0.15,0.216-0.288,0.378-0.372c0.156-0.096,0.342-0.15,0.54-0.15
			c0.39,0,1.013,0.24,1.013,1.241v1.727h-0.527v-1.673c0-0.468-0.174-0.858-0.672-0.858c-0.342,0-0.605,0.24-0.708,0.528
			c-0.03,0.072-0.036,0.15-0.036,0.252v1.751h-0.527V106.477z"/>
		<path fill="#5E5E5D" d="M54.806,110.039c0,0.252,0.012,0.498,0.042,0.696h-0.474l-0.048-0.366h-0.018
			c-0.156,0.228-0.474,0.432-0.888,0.432c-0.587,0-0.887-0.414-0.887-0.833c0-0.702,0.624-1.085,1.745-1.08v-0.06
			c0-0.24-0.066-0.678-0.66-0.672c-0.276,0-0.558,0.078-0.762,0.216l-0.12-0.354c0.24-0.15,0.594-0.252,0.959-0.252
			c0.894,0,1.109,0.605,1.109,1.187V110.039z M54.291,109.253c-0.576-0.012-1.229,0.09-1.229,0.653c0,0.348,0.228,0.504,0.492,0.504
			c0.384,0,0.629-0.24,0.713-0.486c0.018-0.054,0.024-0.114,0.024-0.168V109.253z"/>
		<path fill="#5E5E5D" d="M55.654,106.477h0.527v4.258h-0.527V106.477z"/>
		<path fill="#5E5E5D" d="M57.07,106.477h0.528v1.817h0.012c0.186-0.324,0.521-0.528,0.989-0.528c0.72,0,1.224,0.6,1.224,1.475
			c0,1.043-0.66,1.559-1.308,1.559c-0.42,0-0.749-0.162-0.971-0.545h-0.012l-0.03,0.479h-0.456c0.018-0.198,0.024-0.492,0.024-0.75
			V106.477z M57.598,109.571c0,0.066,0.006,0.132,0.018,0.192c0.102,0.366,0.414,0.618,0.792,0.618c0.558,0,0.881-0.45,0.881-1.115
			c0-0.587-0.3-1.085-0.863-1.085c-0.359,0-0.695,0.252-0.798,0.648c-0.018,0.066-0.029,0.138-0.029,0.222V109.571z"/>
		<path fill="#5E5E5D" d="M64.184,109.937c0,0.306,0.006,0.569,0.024,0.797H63.74l-0.03-0.474h-0.012
			c-0.132,0.234-0.444,0.54-0.96,0.54c-0.455,0-1.001-0.258-1.001-1.271v-1.697h0.527v1.601c0,0.552,0.174,0.93,0.647,0.93
			c0.354,0,0.6-0.246,0.696-0.486c0.029-0.072,0.048-0.168,0.048-0.27v-1.775h0.527V109.937z"/>
		<path fill="#5E5E5D" d="M65.061,108.618c0-0.306-0.006-0.546-0.023-0.786h0.468l0.029,0.474h0.013
			c0.144-0.27,0.479-0.54,0.959-0.54c0.402,0,1.025,0.24,1.025,1.235v1.733h-0.527v-1.673c0-0.468-0.174-0.864-0.672-0.864
			c-0.342,0-0.611,0.246-0.708,0.54c-0.023,0.066-0.035,0.162-0.035,0.246v1.751h-0.528V108.618z"/>
		<path fill="#5E5E5D" d="M68.319,110.195c0.161,0.096,0.438,0.204,0.701,0.204c0.378,0,0.558-0.186,0.558-0.432
			c0-0.252-0.149-0.384-0.533-0.528c-0.528-0.192-0.774-0.479-0.774-0.821c0-0.468,0.384-0.852,1.002-0.852
			c0.294,0,0.552,0.078,0.708,0.18l-0.126,0.378c-0.114-0.066-0.324-0.168-0.594-0.168c-0.313,0-0.48,0.18-0.48,0.396
			c0,0.24,0.168,0.348,0.546,0.498c0.498,0.186,0.762,0.438,0.762,0.87c0,0.516-0.401,0.875-1.079,0.875
			c-0.318,0-0.612-0.084-0.815-0.204L68.319,110.195z"/>
		<path fill="#5E5E5D" d="M71.066,109.379c0.013,0.708,0.462,1.001,0.989,1.001c0.378,0,0.612-0.066,0.804-0.15l0.097,0.378
			c-0.187,0.084-0.51,0.186-0.972,0.186c-0.888,0-1.428-0.594-1.428-1.463c0-0.875,0.522-1.565,1.367-1.565
			c0.948,0,1.193,0.833,1.193,1.367c0,0.108-0.006,0.186-0.018,0.246H71.066z M72.607,109.001c0.007-0.336-0.138-0.858-0.726-0.858
			c-0.539,0-0.768,0.492-0.81,0.858H72.607z"/>
		<path fill="#5E5E5D" d="M73.772,108.737c0-0.342-0.006-0.635-0.023-0.905h0.462l0.023,0.57h0.019
			c0.132-0.39,0.455-0.636,0.809-0.636c0.055,0,0.097,0.006,0.145,0.012v0.498c-0.054-0.006-0.108-0.012-0.18-0.012
			c-0.372,0-0.636,0.282-0.708,0.672c-0.012,0.078-0.018,0.162-0.018,0.246v1.553h-0.528V108.737z"/>
		<path fill="#5E5E5D" d="M75.908,109.379c0.013,0.708,0.462,1.001,0.989,1.001c0.378,0,0.612-0.066,0.804-0.15l0.097,0.378
			c-0.187,0.084-0.51,0.186-0.972,0.186c-0.888,0-1.428-0.594-1.428-1.463c0-0.875,0.522-1.565,1.367-1.565
			c0.948,0,1.193,0.833,1.193,1.367c0,0.108-0.006,0.186-0.018,0.246H75.908z M77.449,109.001c0.007-0.336-0.138-0.858-0.726-0.858
			c-0.539,0-0.768,0.492-0.81,0.858H77.449z"/>
		<path fill="#5E5E5D" d="M78.615,108.737c0-0.342-0.006-0.635-0.023-0.905h0.462l0.023,0.57h0.019
			c0.132-0.39,0.455-0.636,0.81-0.636c0.054,0,0.096,0.006,0.144,0.012v0.498c-0.054-0.006-0.108-0.012-0.18-0.012
			c-0.372,0-0.636,0.282-0.708,0.672c-0.012,0.078-0.018,0.162-0.018,0.246v1.553h-0.528V108.737z"/>
		<path fill="#5E5E5D" d="M81.801,110.099c0.234,0.144,0.569,0.258,0.93,0.258c0.533,0,0.846-0.276,0.846-0.684
			c0-0.378-0.216-0.6-0.762-0.803c-0.66-0.228-1.067-0.576-1.067-1.14c0-0.629,0.521-1.097,1.308-1.097
			c0.407,0,0.713,0.096,0.887,0.192l-0.144,0.432c-0.126-0.078-0.396-0.192-0.762-0.192c-0.552,0-0.762,0.33-0.762,0.605
			c0,0.372,0.246,0.558,0.804,0.774c0.684,0.27,1.025,0.593,1.025,1.187c0,0.618-0.456,1.164-1.409,1.164
			c-0.39,0-0.815-0.12-1.031-0.264L81.801,110.099z"/>
		<path fill="#5E5E5D" d="M85.106,109.379c0.013,0.708,0.462,1.001,0.99,1.001c0.377,0,0.611-0.066,0.803-0.15l0.097,0.378
			c-0.187,0.084-0.51,0.186-0.972,0.186c-0.888,0-1.428-0.594-1.428-1.463c0-0.875,0.522-1.565,1.367-1.565
			c0.948,0,1.193,0.833,1.193,1.367c0,0.108-0.006,0.186-0.018,0.246H85.106z M86.647,109.001c0.007-0.336-0.138-0.858-0.726-0.858
			c-0.539,0-0.768,0.492-0.81,0.858H86.647z"/>
		<path fill="#5E5E5D" d="M87.813,108.737c0-0.342-0.006-0.635-0.023-0.905h0.462l0.023,0.57h0.019
			c0.132-0.39,0.455-0.636,0.81-0.636c0.054,0,0.096,0.006,0.144,0.012v0.498c-0.054-0.006-0.108-0.012-0.18-0.012
			c-0.372,0-0.636,0.282-0.708,0.672c-0.012,0.078-0.018,0.162-0.018,0.246v1.553h-0.528V108.737z"/>
		<path fill="#5E5E5D" d="M89.979,107.832l0.569,1.625c0.097,0.27,0.174,0.51,0.234,0.75H90.8c0.066-0.24,0.15-0.479,0.246-0.75
			l0.563-1.625h0.552l-1.139,2.902h-0.504l-1.104-2.902H89.979z"/>
		<path fill="#5E5E5D" d="M92.912,107.34c-0.191,0-0.317-0.15-0.317-0.324c0-0.186,0.132-0.33,0.329-0.33
			c0.192,0,0.324,0.144,0.324,0.33c0,0.174-0.126,0.324-0.33,0.324H92.912z M92.66,110.734v-2.902h0.528v2.902H92.66z"/>
		<path fill="#5E5E5D" d="M96.134,110.626c-0.138,0.066-0.444,0.168-0.834,0.168c-0.875,0-1.445-0.594-1.445-1.481
			c0-0.894,0.612-1.547,1.56-1.547c0.312,0,0.588,0.078,0.731,0.156l-0.12,0.402c-0.126-0.066-0.323-0.138-0.611-0.138
			c-0.666,0-1.025,0.498-1.025,1.098c0,0.671,0.432,1.085,1.007,1.085c0.301,0,0.498-0.072,0.648-0.138L96.134,110.626z"/>
		<path fill="#5E5E5D" d="M97.053,109.379c0.013,0.708,0.462,1.001,0.989,1.001c0.378,0,0.612-0.066,0.804-0.15l0.097,0.378
			c-0.187,0.084-0.51,0.186-0.972,0.186c-0.888,0-1.428-0.594-1.428-1.463c0-0.875,0.522-1.565,1.367-1.565
			c0.948,0,1.193,0.833,1.193,1.367c0,0.108-0.006,0.186-0.018,0.246H97.053z M98.594,109.001c0.007-0.336-0.138-0.858-0.726-0.858
			c-0.539,0-0.768,0.492-0.81,0.858H98.594z"/>
		<path fill="#5E5E5D" d="M101.102,108.923v0.384H99.62v-0.384H101.102z"/>
	</g>
	<g>
	</g>
	<g>
		<path fill="#5E5E5D" d="M20.5,117.629l1.313-1.709c0.132-0.162,0.246-0.3,0.384-0.456v-0.012H20.62v-0.42h2.212v0.33l-1.301,1.691
			c-0.12,0.156-0.24,0.306-0.372,0.45v0.012h1.697v0.42H20.5V117.629z"/>
		<path fill="#5E5E5D" d="M23.698,116.579c0.012,0.708,0.461,1.001,0.989,1.001c0.378,0,0.612-0.066,0.804-0.15l0.096,0.378
			c-0.186,0.084-0.51,0.186-0.971,0.186c-0.888,0-1.427-0.594-1.427-1.463c0-0.875,0.521-1.565,1.367-1.565
			c0.947,0,1.193,0.833,1.193,1.367c0,0.108-0.006,0.186-0.018,0.246H23.698z M25.239,116.202c0.006-0.336-0.138-0.858-0.726-0.858
			c-0.54,0-0.768,0.492-0.81,0.858H25.239z"/>
		<path fill="#5E5E5D" d="M26.655,114.541c-0.192,0-0.318-0.15-0.318-0.324c0-0.186,0.132-0.33,0.33-0.33
			c0.192,0,0.324,0.144,0.324,0.33c0,0.174-0.126,0.324-0.33,0.324H26.655z M26.404,117.935v-2.902h0.527v2.902H26.404z"/>
		<path fill="#5E5E5D" d="M28.443,114.336v0.696h0.756v0.402h-0.756v1.559c0,0.36,0.102,0.563,0.396,0.563
			c0.144,0,0.228-0.012,0.306-0.036l0.024,0.401c-0.102,0.036-0.264,0.072-0.468,0.072c-0.246,0-0.443-0.084-0.569-0.222
			c-0.144-0.162-0.204-0.419-0.204-0.761v-1.577h-0.45v-0.402h0.45v-0.534L28.443,114.336z"/>
		<path fill="#5E5E5D" d="M30.094,116.579c0.012,0.708,0.461,1.001,0.989,1.001c0.378,0,0.612-0.066,0.804-0.15l0.096,0.378
			c-0.186,0.084-0.51,0.186-0.971,0.186c-0.888,0-1.427-0.594-1.427-1.463c0-0.875,0.521-1.565,1.367-1.565
			c0.947,0,1.193,0.833,1.193,1.367c0,0.108-0.006,0.186-0.018,0.246H30.094z M31.635,116.202c0.006-0.336-0.138-0.858-0.726-0.858
			c-0.54,0-0.768,0.492-0.81,0.858H31.635z"/>
		<path fill="#5E5E5D" d="M32.8,115.818c0-0.306-0.006-0.546-0.024-0.786h0.468l0.03,0.474h0.012c0.144-0.27,0.48-0.54,0.959-0.54
			c0.402,0,1.025,0.24,1.025,1.235v1.733h-0.527v-1.673c0-0.468-0.174-0.864-0.672-0.864c-0.342,0-0.612,0.246-0.708,0.54
			c-0.024,0.066-0.036,0.162-0.036,0.246v1.751H32.8V115.818z"/>
		<path fill="#5E5E5D" d="M37.402,113.677h0.527v1.817h0.012c0.186-0.324,0.521-0.528,0.989-0.528c0.72,0,1.224,0.6,1.224,1.475
			c0,1.043-0.66,1.559-1.308,1.559c-0.419,0-0.75-0.162-0.971-0.545h-0.012l-0.03,0.479h-0.456c0.018-0.198,0.024-0.492,0.024-0.75
			V113.677z M37.929,116.771c0,0.066,0.006,0.132,0.018,0.192c0.102,0.366,0.414,0.618,0.792,0.618c0.558,0,0.882-0.45,0.882-1.115
			c0-0.587-0.3-1.085-0.864-1.085c-0.36,0-0.696,0.252-0.797,0.648c-0.018,0.066-0.03,0.138-0.03,0.222V116.771z"/>
		<path fill="#5E5E5D" d="M41.116,116.579c0.012,0.708,0.461,1.001,0.989,1.001c0.378,0,0.612-0.066,0.804-0.15l0.096,0.378
			c-0.186,0.084-0.51,0.186-0.971,0.186c-0.888,0-1.427-0.594-1.427-1.463c0-0.875,0.521-1.565,1.367-1.565
			c0.947,0,1.193,0.833,1.193,1.367c0,0.108-0.006,0.186-0.018,0.246H41.116z M42.657,116.202c0.006-0.336-0.138-0.858-0.726-0.858
			c-0.54,0-0.768,0.492-0.81,0.858H42.657z"/>
		<path fill="#5E5E5D" d="M43.822,115.938c0-0.342-0.006-0.635-0.024-0.905h0.462l0.024,0.57h0.018
			c0.132-0.39,0.456-0.636,0.81-0.636c0.054,0,0.096,0.006,0.144,0.012v0.498c-0.054-0.006-0.108-0.012-0.18-0.012
			c-0.372,0-0.635,0.282-0.708,0.672c-0.012,0.078-0.018,0.162-0.018,0.246v1.553h-0.527V115.938z"/>
		<path fill="#5E5E5D" d="M47.708,117.239c0,0.252,0.012,0.498,0.042,0.696h-0.474l-0.048-0.366H47.21
			c-0.156,0.228-0.474,0.432-0.888,0.432c-0.587,0-0.887-0.414-0.887-0.833c0-0.702,0.624-1.085,1.745-1.08v-0.06
			c0-0.24-0.066-0.678-0.66-0.672c-0.276,0-0.558,0.078-0.762,0.216l-0.12-0.354c0.24-0.15,0.594-0.252,0.959-0.252
			c0.894,0,1.109,0.605,1.109,1.187V117.239z M47.192,116.454c-0.576-0.012-1.229,0.09-1.229,0.653c0,0.348,0.228,0.504,0.492,0.504
			c0.384,0,0.629-0.24,0.713-0.486c0.018-0.054,0.024-0.114,0.024-0.168V116.454z"/>
		<path fill="#5E5E5D" d="M49.191,114.336v0.696h0.756v0.402h-0.756v1.559c0,0.36,0.102,0.563,0.396,0.563
			c0.144,0,0.228-0.012,0.306-0.036l0.024,0.401c-0.102,0.036-0.264,0.072-0.468,0.072c-0.246,0-0.443-0.084-0.569-0.222
			c-0.144-0.162-0.204-0.419-0.204-0.761v-1.577h-0.45v-0.402h0.45v-0.534L49.191,114.336z"/>
		<path fill="#5E5E5D" d="M50.841,116.579c0.012,0.708,0.461,1.001,0.989,1.001c0.378,0,0.612-0.066,0.804-0.15l0.096,0.378
			c-0.186,0.084-0.51,0.186-0.971,0.186c-0.888,0-1.427-0.594-1.427-1.463c0-0.875,0.521-1.565,1.367-1.565
			c0.947,0,1.193,0.833,1.193,1.367c0,0.108-0.006,0.186-0.018,0.246H50.841z M52.382,116.202c0.006-0.336-0.138-0.858-0.726-0.858
			c-0.54,0-0.768,0.492-0.81,0.858H52.382z"/>
		<path fill="#5E5E5D" d="M53.547,115.818c0-0.306-0.006-0.546-0.024-0.786h0.468l0.03,0.474h0.012c0.144-0.27,0.48-0.54,0.959-0.54
			c0.402,0,1.025,0.24,1.025,1.235v1.733H55.49v-1.673c0-0.468-0.174-0.864-0.672-0.864c-0.342,0-0.612,0.246-0.708,0.54
			c-0.024,0.066-0.036,0.162-0.036,0.246v1.751h-0.527V115.818z"/>
		<path fill="#5E5E5D" d="M58.358,115.032l0.39,1.469c0.078,0.324,0.156,0.629,0.21,0.929h0.019
			c0.065-0.293,0.161-0.605,0.258-0.923l0.474-1.475h0.443l0.45,1.451c0.107,0.342,0.191,0.654,0.258,0.947h0.018
			c0.048-0.293,0.126-0.6,0.222-0.941l0.414-1.457h0.521l-0.936,2.902h-0.479l-0.443-1.385c-0.103-0.33-0.187-0.618-0.258-0.959
			h-0.013c-0.071,0.348-0.161,0.654-0.264,0.965l-0.468,1.379h-0.479l-0.875-2.902H58.358z"/>
		<path fill="#5E5E5D" d="M62.816,114.541c-0.191,0-0.317-0.15-0.317-0.324c0-0.186,0.132-0.33,0.329-0.33
			c0.192,0,0.324,0.144,0.324,0.33c0,0.174-0.126,0.324-0.33,0.324H62.816z M62.564,117.935v-2.902h0.528v2.902H62.564z"/>
		<path fill="#5E5E5D" d="M63.969,115.938c0-0.342-0.006-0.635-0.023-0.905h0.462l0.023,0.57h0.019
			c0.132-0.39,0.455-0.636,0.81-0.636c0.054,0,0.096,0.006,0.144,0.012v0.498c-0.054-0.006-0.108-0.012-0.18-0.012
			c-0.372,0-0.636,0.282-0.708,0.672c-0.012,0.078-0.018,0.162-0.018,0.246v1.553h-0.528V115.938z"/>
		<path fill="#5E5E5D" d="M67.155,117.299c0.234,0.144,0.57,0.258,0.93,0.258c0.533,0,0.846-0.276,0.846-0.684
			c0-0.378-0.216-0.6-0.762-0.803c-0.66-0.228-1.067-0.576-1.067-1.14c0-0.629,0.521-1.097,1.308-1.097
			c0.407,0,0.713,0.096,0.887,0.192l-0.144,0.432c-0.126-0.078-0.396-0.192-0.762-0.192c-0.552,0-0.762,0.33-0.762,0.605
			c0,0.372,0.246,0.558,0.804,0.774c0.684,0.27,1.025,0.593,1.025,1.187c0,0.618-0.456,1.164-1.409,1.164
			c-0.39,0-0.815-0.12-1.031-0.264L67.155,117.299z"/>
		<path fill="#5E5E5D" d="M70.413,114.541c-0.191,0-0.317-0.15-0.317-0.324c0-0.186,0.132-0.33,0.329-0.33
			c0.192,0,0.324,0.144,0.324,0.33c0,0.174-0.126,0.324-0.33,0.324H70.413z M70.161,117.935v-2.902h0.528v2.902H70.161z"/>
		<path fill="#5E5E5D" d="M71.864,116.579c0.013,0.708,0.462,1.001,0.99,1.001c0.377,0,0.611-0.066,0.803-0.15l0.097,0.378
			c-0.187,0.084-0.51,0.186-0.972,0.186c-0.888,0-1.428-0.594-1.428-1.463c0-0.875,0.522-1.565,1.367-1.565
			c0.948,0,1.193,0.833,1.193,1.367c0,0.108-0.006,0.186-0.018,0.246H71.864z M73.405,116.202c0.007-0.336-0.138-0.858-0.726-0.858
			c-0.539,0-0.768,0.492-0.81,0.858H73.405z"/>
		<path fill="#5E5E5D" d="M78.325,117.509c0,0.672-0.138,1.073-0.413,1.331c-0.288,0.258-0.696,0.348-1.062,0.348
			c-0.348,0-0.731-0.084-0.966-0.24l0.132-0.408c0.192,0.126,0.492,0.234,0.852,0.234c0.54,0,0.936-0.282,0.936-1.019v-0.318h-0.012
			c-0.156,0.27-0.474,0.485-0.924,0.485c-0.72,0-1.235-0.611-1.235-1.421c0-0.983,0.642-1.535,1.313-1.535
			c0.504,0,0.773,0.258,0.905,0.503h0.013l0.018-0.438h0.468c-0.018,0.204-0.024,0.444-0.024,0.792V117.509z M77.798,116.171
			c0-0.084-0.006-0.162-0.03-0.234c-0.096-0.312-0.348-0.563-0.737-0.563c-0.504,0-0.863,0.426-0.863,1.104
			c0,0.563,0.294,1.043,0.857,1.043c0.33,0,0.624-0.204,0.731-0.546c0.03-0.084,0.042-0.186,0.042-0.282V116.171z"/>
		<path fill="#5E5E5D" d="M79.496,116.579c0.013,0.708,0.462,1.001,0.989,1.001c0.378,0,0.612-0.066,0.804-0.15l0.097,0.378
			c-0.187,0.084-0.51,0.186-0.972,0.186c-0.888,0-1.428-0.594-1.428-1.463c0-0.875,0.522-1.565,1.367-1.565
			c0.948,0,1.193,0.833,1.193,1.367c0,0.108-0.006,0.186-0.018,0.246H79.496z M81.037,116.202c0.007-0.336-0.138-0.858-0.726-0.858
			c-0.539,0-0.768,0.492-0.81,0.858H81.037z"/>
		<path fill="#5E5E5D" d="M82.202,115.938c0-0.342-0.006-0.635-0.023-0.905h0.462l0.023,0.57h0.019
			c0.132-0.39,0.455-0.636,0.809-0.636c0.055,0,0.097,0.006,0.145,0.012v0.498c-0.054-0.006-0.108-0.012-0.18-0.012
			c-0.372,0-0.636,0.282-0.708,0.672c-0.012,0.078-0.018,0.162-0.018,0.246v1.553h-0.528V115.938z"/>
		<path fill="#5E5E5D" d="M84.164,115.818c0-0.306-0.006-0.546-0.023-0.786h0.468l0.029,0.474h0.013
			c0.144-0.27,0.479-0.54,0.959-0.54c0.402,0,1.025,0.24,1.025,1.235v1.733h-0.527v-1.673c0-0.468-0.174-0.864-0.672-0.864
			c-0.342,0-0.611,0.246-0.708,0.54c-0.023,0.066-0.035,0.162-0.035,0.246v1.751h-0.528V115.818z"/>
		<path fill="#5E5E5D" d="M87.794,116.579c0.013,0.708,0.462,1.001,0.99,1.001c0.377,0,0.611-0.066,0.803-0.15l0.097,0.378
			c-0.187,0.084-0.51,0.186-0.972,0.186c-0.888,0-1.428-0.594-1.428-1.463c0-0.875,0.522-1.565,1.367-1.565
			c0.948,0,1.193,0.833,1.193,1.367c0,0.108-0.006,0.186-0.018,0.246H87.794z M89.335,116.202c0.007-0.336-0.138-0.858-0.726-0.858
			c-0.539,0-0.768,0.492-0.81,0.858H89.335z"/>
		<path fill="#5E5E5D" d="M90.849,115.884c-0.204,0-0.349-0.162-0.349-0.372c0-0.222,0.15-0.377,0.354-0.377
			c0.216,0,0.354,0.156,0.354,0.377c0,0.21-0.138,0.372-0.354,0.372H90.849z M90.849,118c-0.204,0-0.349-0.162-0.349-0.372
			c0-0.222,0.15-0.378,0.354-0.378c0.216,0,0.354,0.156,0.354,0.378c0,0.21-0.138,0.372-0.354,0.372H90.849z"/>
	</g>
	<g>
		<path fill="#5E5E5D" d="M24.254,130.56c-0.03-0.558-0.066-1.247-0.066-1.745h-0.012c-0.144,0.468-0.306,0.983-0.509,1.535
			l-0.714,1.961h-0.396l-0.66-1.925c-0.192-0.569-0.348-1.092-0.462-1.571h-0.012c-0.012,0.504-0.042,1.182-0.078,1.787
			l-0.108,1.732H20.74l0.282-4.041h0.666l0.689,1.955c0.168,0.497,0.3,0.947,0.408,1.367h0.012c0.108-0.408,0.252-0.857,0.432-1.367
			l0.72-1.955h0.666l0.252,4.041H24.35L24.254,130.56z"/>
		<path fill="#5E5E5D" d="M26.835,132.4c-0.78,0-1.391-0.576-1.391-1.493c0-0.972,0.642-1.541,1.439-1.541
			c0.833,0,1.397,0.605,1.397,1.487c0,1.079-0.75,1.547-1.439,1.547H26.835z M26.859,132.005c0.504,0,0.881-0.474,0.881-1.134
			c0-0.492-0.246-1.109-0.869-1.109c-0.618,0-0.888,0.576-0.888,1.127c0,0.637,0.36,1.116,0.87,1.116H26.859z"/>
		<path fill="#5E5E5D" d="M28.948,130.218c0-0.306-0.006-0.546-0.024-0.786h0.468l0.03,0.475h0.012
			c0.144-0.271,0.48-0.54,0.959-0.54c0.402,0,1.025,0.239,1.025,1.235v1.732h-0.527v-1.672c0-0.469-0.174-0.864-0.672-0.864
			c-0.342,0-0.612,0.246-0.708,0.54c-0.024,0.065-0.036,0.162-0.036,0.246v1.75h-0.527V130.218z"/>
		<path fill="#5E5E5D" d="M32.913,128.736v0.695h0.756v0.402h-0.756v1.559c0,0.36,0.102,0.564,0.396,0.564
			c0.144,0,0.228-0.012,0.306-0.036l0.024,0.401c-0.102,0.036-0.264,0.072-0.468,0.072c-0.246,0-0.443-0.084-0.569-0.223
			c-0.144-0.161-0.204-0.419-0.204-0.761v-1.577h-0.45v-0.402h0.45v-0.533L32.913,128.736z"/>
		<path fill="#5E5E5D" d="M36.308,131.639c0,0.252,0.012,0.498,0.042,0.695h-0.474l-0.048-0.365h-0.018
			c-0.156,0.229-0.474,0.432-0.888,0.432c-0.587,0-0.887-0.414-0.887-0.834c0-0.701,0.624-1.085,1.745-1.079v-0.06
			c0-0.24-0.066-0.678-0.66-0.672c-0.276,0-0.558,0.078-0.762,0.216l-0.12-0.354c0.24-0.149,0.594-0.252,0.959-0.252
			c0.894,0,1.109,0.605,1.109,1.187V131.639z M35.792,130.854c-0.576-0.012-1.229,0.09-1.229,0.653c0,0.348,0.228,0.504,0.492,0.504
			c0.384,0,0.629-0.239,0.713-0.485c0.018-0.055,0.024-0.114,0.024-0.168V130.854z"/>
		<path fill="#5E5E5D" d="M39.638,131.908c0,0.672-0.138,1.074-0.414,1.332c-0.288,0.258-0.696,0.348-1.062,0.348
			c-0.348,0-0.732-0.084-0.966-0.24l0.132-0.408c0.192,0.127,0.492,0.234,0.852,0.234c0.54,0,0.935-0.281,0.935-1.02v-0.317h-0.012
			c-0.156,0.27-0.474,0.485-0.923,0.485c-0.72,0-1.235-0.611-1.235-1.421c0-0.983,0.642-1.535,1.313-1.535
			c0.504,0,0.774,0.258,0.906,0.503h0.012l0.018-0.438h0.468c-0.018,0.204-0.024,0.444-0.024,0.792V131.908z M39.11,130.571
			c0-0.084-0.006-0.161-0.03-0.233c-0.096-0.313-0.348-0.564-0.738-0.564c-0.503,0-0.863,0.426-0.863,1.104
			c0,0.564,0.294,1.044,0.857,1.044c0.33,0,0.624-0.204,0.731-0.546c0.03-0.084,0.042-0.186,0.042-0.281V130.571z"/>
		<path fill="#5E5E5D" d="M41.782,128.076h0.527v1.818h0.012c0.186-0.324,0.521-0.528,0.989-0.528c0.72,0,1.224,0.6,1.224,1.476
			c0,1.043-0.66,1.559-1.308,1.559c-0.419,0-0.75-0.162-0.971-0.546h-0.012l-0.03,0.479h-0.456c0.018-0.197,0.024-0.491,0.024-0.749
			V128.076z M42.309,131.171c0,0.066,0.006,0.132,0.018,0.192c0.102,0.365,0.414,0.617,0.792,0.617c0.558,0,0.882-0.449,0.882-1.115
			c0-0.588-0.3-1.086-0.864-1.086c-0.36,0-0.696,0.252-0.797,0.648c-0.018,0.066-0.03,0.138-0.03,0.222V131.171z"/>
		<path fill="#5E5E5D" d="M45.447,128.94c-0.192,0-0.318-0.149-0.318-0.323c0-0.187,0.132-0.33,0.33-0.33
			c0.192,0,0.324,0.144,0.324,0.33c0,0.174-0.126,0.323-0.33,0.323H45.447z M45.196,132.334v-2.902h0.527v2.902H45.196z"/>
		<path fill="#5E5E5D" d="M46.527,131.795c0.162,0.096,0.438,0.203,0.702,0.203c0.378,0,0.558-0.186,0.558-0.432
			c0-0.252-0.15-0.383-0.534-0.527c-0.528-0.191-0.773-0.479-0.773-0.821c0-0.468,0.384-0.852,1.001-0.852
			c0.294,0,0.552,0.077,0.708,0.18l-0.126,0.378c-0.114-0.066-0.324-0.168-0.594-0.168c-0.312,0-0.479,0.18-0.479,0.396
			c0,0.239,0.168,0.348,0.545,0.497c0.498,0.187,0.762,0.438,0.762,0.87c0,0.516-0.402,0.875-1.08,0.875
			c-0.317,0-0.611-0.084-0.815-0.204L46.527,131.795z"/>
		<path fill="#5E5E5D" d="M50.259,128.293h2.177v0.438h-1.649v1.344h1.523v0.432h-1.523v1.828h-0.528V128.293z"/>
		<path fill="#5E5E5D" d="M53.049,130.338c0-0.342-0.006-0.636-0.024-0.906h0.462l0.024,0.57h0.018
			c0.132-0.391,0.456-0.636,0.81-0.636c0.054,0,0.096,0.006,0.144,0.012v0.498c-0.054-0.007-0.108-0.013-0.18-0.013
			c-0.372,0-0.635,0.282-0.708,0.672c-0.012,0.078-0.018,0.162-0.018,0.246v1.553h-0.527V130.338z"/>
		<path fill="#5E5E5D" d="M55.186,130.979c0.012,0.709,0.461,1.002,0.989,1.002c0.378,0,0.612-0.066,0.804-0.15l0.096,0.379
			c-0.186,0.084-0.51,0.186-0.971,0.186c-0.888,0-1.427-0.594-1.427-1.463c0-0.876,0.521-1.565,1.367-1.565
			c0.947,0,1.193,0.833,1.193,1.367c0,0.108-0.006,0.187-0.018,0.245H55.186z M56.727,130.602c0.006-0.336-0.138-0.857-0.726-0.857
			c-0.54,0-0.768,0.492-0.81,0.857H56.727z"/>
		<path fill="#5E5E5D" d="M58.144,128.94c-0.192,0-0.318-0.149-0.318-0.323c0-0.187,0.132-0.33,0.33-0.33
			c0.191,0,0.324,0.144,0.324,0.33c0,0.174-0.126,0.323-0.33,0.323H58.144z M57.892,132.334v-2.902h0.527v2.902H57.892z"/>
		<path fill="#5E5E5D" d="M59.931,128.736v0.695h0.756v0.402h-0.756v1.559c0,0.36,0.103,0.564,0.396,0.564
			c0.145,0,0.229-0.012,0.307-0.036l0.023,0.401c-0.102,0.036-0.264,0.072-0.468,0.072c-0.246,0-0.443-0.084-0.569-0.223
			c-0.145-0.161-0.204-0.419-0.204-0.761v-1.577h-0.449v-0.402h0.449v-0.533L59.931,128.736z"/>
		<path fill="#5E5E5D" d="M63.326,131.639c0,0.252,0.013,0.498,0.042,0.695h-0.474l-0.048-0.365h-0.018
			c-0.156,0.229-0.475,0.432-0.888,0.432c-0.588,0-0.888-0.414-0.888-0.834c0-0.701,0.624-1.085,1.745-1.079v-0.06
			c0-0.24-0.066-0.678-0.66-0.672c-0.275,0-0.558,0.078-0.761,0.216l-0.12-0.354c0.239-0.149,0.594-0.252,0.959-0.252
			c0.894,0,1.109,0.605,1.109,1.187V131.639z M62.811,130.854c-0.575-0.012-1.229,0.09-1.229,0.653c0,0.348,0.229,0.504,0.492,0.504
			c0.384,0,0.63-0.239,0.714-0.485c0.018-0.055,0.023-0.114,0.023-0.168V130.854z"/>
		<path fill="#5E5E5D" d="M66.655,131.908c0,0.672-0.138,1.074-0.413,1.332c-0.288,0.258-0.696,0.348-1.062,0.348
			c-0.348,0-0.731-0.084-0.966-0.24l0.132-0.408c0.192,0.127,0.492,0.234,0.852,0.234c0.54,0,0.936-0.281,0.936-1.02v-0.317h-0.012
			c-0.156,0.27-0.474,0.485-0.924,0.485c-0.72,0-1.235-0.611-1.235-1.421c0-0.983,0.642-1.535,1.313-1.535
			c0.504,0,0.773,0.258,0.905,0.503h0.013l0.018-0.438h0.468c-0.018,0.204-0.024,0.444-0.024,0.792V131.908z M66.128,130.571
			c0-0.084-0.006-0.161-0.03-0.233c-0.096-0.313-0.348-0.564-0.737-0.564c-0.504,0-0.863,0.426-0.863,1.104
			c0,0.564,0.294,1.044,0.857,1.044c0.33,0,0.624-0.204,0.731-0.546c0.03-0.084,0.042-0.186,0.042-0.281V130.571z"/>
		<path fill="#5E5E5D" d="M69.003,129.432l0.569,1.625c0.097,0.271,0.174,0.51,0.234,0.75h0.018c0.066-0.24,0.15-0.479,0.246-0.75
			l0.563-1.625h0.552l-1.139,2.902h-0.504l-1.104-2.902H69.003z"/>
		<path fill="#5E5E5D" d="M72.746,132.4c-0.779,0-1.392-0.576-1.392-1.493c0-0.972,0.642-1.541,1.439-1.541
			c0.834,0,1.397,0.605,1.397,1.487c0,1.079-0.75,1.547-1.439,1.547H72.746z M72.771,132.005c0.503,0,0.881-0.474,0.881-1.134
			c0-0.492-0.246-1.109-0.869-1.109c-0.618,0-0.888,0.576-0.888,1.127c0,0.637,0.359,1.116,0.869,1.116H72.771z"/>
		<path fill="#5E5E5D" d="M74.858,130.218c0-0.306-0.006-0.546-0.023-0.786h0.468l0.029,0.475h0.013
			c0.144-0.271,0.479-0.54,0.959-0.54c0.402,0,1.025,0.239,1.025,1.235v1.732h-0.527v-1.672c0-0.469-0.174-0.864-0.672-0.864
			c-0.342,0-0.611,0.246-0.708,0.54c-0.023,0.065-0.035,0.162-0.035,0.246v1.75h-0.528V130.218z"/>
		<path fill="#5E5E5D" d="M80.601,128.371c0.756,0,1.14,0.467,1.14,0.959c0,0.33-0.168,0.689-0.647,0.912v0.018
			c0.485,0.191,0.785,0.539,0.785,1.008c0,0.684-0.582,1.133-1.325,1.133c-0.815,0-1.308-0.479-1.308-1.049
			c0-0.492,0.294-0.846,0.768-1.05v-0.019c-0.438-0.203-0.623-0.539-0.623-0.875c0-0.617,0.521-1.037,1.205-1.037H80.601z
			 M80.564,132.017c0.474,0,0.779-0.294,0.779-0.696c0-0.467-0.329-0.701-0.857-0.851c-0.455,0.132-0.701,0.438-0.701,0.81
			c-0.019,0.39,0.281,0.737,0.773,0.737H80.564z M80.57,128.748c-0.438,0-0.678,0.288-0.678,0.624c-0.006,0.39,0.294,0.6,0.744,0.72
			c0.336-0.114,0.594-0.354,0.594-0.707c0-0.313-0.187-0.637-0.654-0.637H80.57z"/>
		<path fill="#5E5E5D" d="M83.811,128.076h0.528v1.818h0.012c0.186-0.324,0.521-0.528,0.989-0.528c0.72,0,1.224,0.6,1.224,1.476
			c0,1.043-0.66,1.559-1.308,1.559c-0.42,0-0.749-0.162-0.972-0.546h-0.012l-0.03,0.479h-0.455c0.018-0.197,0.023-0.491,0.023-0.749
			V128.076z M84.339,131.171c0,0.066,0.006,0.132,0.018,0.192c0.102,0.365,0.414,0.617,0.792,0.617c0.558,0,0.881-0.449,0.881-1.115
			c0-0.588-0.3-1.086-0.863-1.086c-0.359,0-0.695,0.252-0.798,0.648c-0.018,0.066-0.029,0.138-0.029,0.222V131.171z"/>
		<path fill="#5E5E5D" d="M87.477,128.94c-0.191,0-0.317-0.149-0.317-0.323c0-0.187,0.132-0.33,0.329-0.33
			c0.192,0,0.324,0.144,0.324,0.33c0,0.174-0.126,0.323-0.33,0.323H87.477z M87.225,132.334v-2.902h0.528v2.902H87.225z"/>
		<path fill="#5E5E5D" d="M88.557,131.795c0.161,0.096,0.438,0.203,0.701,0.203c0.378,0,0.558-0.186,0.558-0.432
			c0-0.252-0.149-0.383-0.533-0.527c-0.528-0.191-0.774-0.479-0.774-0.821c0-0.468,0.384-0.852,1.002-0.852
			c0.294,0,0.552,0.077,0.708,0.18l-0.126,0.378c-0.114-0.066-0.324-0.168-0.594-0.168c-0.313,0-0.48,0.18-0.48,0.396
			c0,0.239,0.168,0.348,0.546,0.497c0.498,0.187,0.762,0.438,0.762,0.87c0,0.516-0.401,0.875-1.079,0.875
			c-0.318,0-0.612-0.084-0.815-0.204L88.557,131.795z"/>
		<path fill="#5E5E5D" d="M92.108,132.334v-0.323l0.414-0.401c0.995-0.947,1.451-1.451,1.451-2.039c0-0.396-0.186-0.762-0.768-0.762
			c-0.354,0-0.647,0.18-0.827,0.33l-0.168-0.372c0.264-0.222,0.653-0.396,1.104-0.396c0.833,0,1.187,0.575,1.187,1.133
			c0,0.72-0.521,1.301-1.343,2.093l-0.306,0.288v0.012h1.745v0.438H92.108z"/>
		<path fill="#5E5E5D" d="M96.428,132.4c-0.761,0-1.283-0.713-1.295-2.003c0-1.313,0.569-2.026,1.361-2.026
			c0.815,0,1.289,0.73,1.289,1.973c0,1.325-0.497,2.057-1.349,2.057H96.428z M96.458,131.992c0.534,0,0.792-0.629,0.792-1.625
			c0-0.959-0.24-1.589-0.792-1.589c-0.479,0-0.791,0.612-0.791,1.589c-0.013,1.014,0.3,1.625,0.785,1.625H96.458z"/>
		<path fill="#5E5E5D" d="M100.244,128.293v2.398c0,0.899,0.401,1.283,0.941,1.283c0.594,0,0.983-0.396,0.983-1.283v-2.398h0.527
			v2.362c0,1.241-0.653,1.745-1.528,1.745c-0.828,0-1.451-0.468-1.451-1.727v-2.381H100.244z"/>
		<path fill="#5E5E5D" d="M103.586,128.076h0.528v1.812h0.012c0.084-0.149,0.216-0.288,0.378-0.372
			c0.155-0.096,0.342-0.149,0.539-0.149c0.391,0,1.014,0.239,1.014,1.241v1.727h-0.527v-1.672c0-0.469-0.174-0.858-0.672-0.858
			c-0.342,0-0.605,0.24-0.708,0.528c-0.029,0.071-0.035,0.149-0.035,0.252v1.75h-0.528V128.076z"/>
		<path fill="#5E5E5D" d="M106.916,130.338c0-0.342-0.006-0.636-0.023-0.906h0.462l0.023,0.57h0.019
			c0.132-0.391,0.455-0.636,0.81-0.636c0.054,0,0.096,0.006,0.144,0.012v0.498c-0.054-0.007-0.108-0.013-0.18-0.013
			c-0.372,0-0.636,0.282-0.708,0.672c-0.012,0.078-0.018,0.162-0.018,0.246v1.553h-0.528V130.338z"/>
	</g>
	<g>
		<path fill="#5E5E5D" d="M21.735,146.734l-1.325-4.042h0.57l0.629,1.991c0.168,0.546,0.318,1.043,0.432,1.511h0.012
			c0.114-0.468,0.276-0.978,0.462-1.505l0.684-1.997h0.558l-1.445,4.042H21.735z"/>
		<path fill="#5E5E5D" d="M23.986,145.379c0.012,0.708,0.461,1.002,0.989,1.002c0.378,0,0.612-0.066,0.804-0.15l0.096,0.378
			c-0.186,0.084-0.51,0.186-0.971,0.186c-0.888,0-1.427-0.594-1.427-1.463c0-0.875,0.521-1.565,1.367-1.565
			c0.947,0,1.193,0.834,1.193,1.367c0,0.108-0.006,0.187-0.018,0.246H23.986z M25.527,145.001c0.006-0.336-0.138-0.857-0.726-0.857
			c-0.54,0-0.768,0.492-0.81,0.857H25.527z"/>
		<path fill="#5E5E5D" d="M26.692,144.737c0-0.342-0.006-0.636-0.024-0.905h0.462l0.024,0.569h0.018
			c0.132-0.39,0.456-0.636,0.81-0.636c0.054,0,0.096,0.007,0.144,0.013v0.497c-0.054-0.006-0.108-0.012-0.18-0.012
			c-0.372,0-0.635,0.282-0.708,0.672c-0.012,0.078-0.018,0.162-0.018,0.246v1.553h-0.527V144.737z"/>
		<path fill="#5E5E5D" d="M28.834,145.379c0.012,0.708,0.461,1.002,0.989,1.002c0.378,0,0.612-0.066,0.804-0.15l0.096,0.378
			c-0.186,0.084-0.51,0.186-0.971,0.186c-0.888,0-1.427-0.594-1.427-1.463c0-0.875,0.521-1.565,1.367-1.565
			c0.947,0,1.193,0.834,1.193,1.367c0,0.108-0.006,0.187-0.018,0.246H28.834z M30.375,145.001c0.006-0.336-0.138-0.857-0.726-0.857
			c-0.54,0-0.768,0.492-0.81,0.857H30.375z"/>
		<path fill="#5E5E5D" d="M31.792,143.34c-0.192,0-0.318-0.149-0.318-0.323c0-0.187,0.132-0.33,0.33-0.33
			c0.192,0,0.324,0.144,0.324,0.33c0,0.174-0.126,0.323-0.33,0.323H31.792z M31.54,146.734v-2.902h0.527v2.902H31.54z"/>
		<path fill="#5E5E5D" d="M32.944,144.617c0-0.306-0.006-0.545-0.024-0.785h0.468l0.03,0.474h0.012c0.144-0.27,0.48-0.54,0.959-0.54
			c0.402,0,1.025,0.24,1.025,1.235v1.733h-0.527v-1.673c0-0.468-0.174-0.863-0.672-0.863c-0.342,0-0.612,0.245-0.708,0.539
			c-0.024,0.066-0.036,0.162-0.036,0.246v1.751h-0.527V144.617z"/>
		<path fill="#5E5E5D" d="M36.274,142.477h0.527v1.817h0.012c0.186-0.324,0.521-0.528,0.989-0.528c0.72,0,1.224,0.6,1.224,1.476
			c0,1.043-0.66,1.56-1.308,1.56c-0.419,0-0.75-0.162-0.971-0.546h-0.012l-0.03,0.479H36.25c0.018-0.198,0.024-0.492,0.024-0.75
			V142.477z M36.801,145.571c0,0.065,0.006,0.132,0.018,0.191c0.102,0.366,0.414,0.618,0.792,0.618c0.558,0,0.882-0.45,0.882-1.115
			c0-0.588-0.3-1.086-0.864-1.086c-0.36,0-0.696,0.252-0.797,0.647c-0.018,0.066-0.03,0.139-0.03,0.222V145.571z"/>
		<path fill="#5E5E5D" d="M41.732,146.039c0,0.252,0.012,0.497,0.042,0.695h-0.474l-0.048-0.366h-0.018
			c-0.156,0.229-0.474,0.433-0.888,0.433c-0.587,0-0.887-0.414-0.887-0.834c0-0.701,0.624-1.085,1.745-1.079v-0.061
			c0-0.239-0.066-0.678-0.66-0.671c-0.276,0-0.558,0.077-0.762,0.216l-0.12-0.354c0.24-0.149,0.594-0.252,0.959-0.252
			c0.894,0,1.109,0.606,1.109,1.188V146.039z M41.217,145.253c-0.576-0.012-1.229,0.09-1.229,0.654c0,0.348,0.228,0.503,0.492,0.503
			c0.384,0,0.629-0.239,0.713-0.485c0.018-0.054,0.024-0.114,0.024-0.168V145.253z"/>
		<path fill="#5E5E5D" d="M42.58,144.737c0-0.342-0.006-0.636-0.024-0.905h0.462l0.024,0.569h0.018
			c0.132-0.39,0.456-0.636,0.81-0.636c0.054,0,0.096,0.007,0.144,0.013v0.497c-0.054-0.006-0.108-0.012-0.18-0.012
			c-0.372,0-0.635,0.282-0.708,0.672c-0.012,0.078-0.018,0.162-0.018,0.246v1.553H42.58V144.737z"/>
		<path fill="#5E5E5D" d="M44.722,145.379c0.012,0.708,0.461,1.002,0.989,1.002c0.378,0,0.612-0.066,0.804-0.15l0.096,0.378
			c-0.186,0.084-0.51,0.186-0.971,0.186c-0.888,0-1.427-0.594-1.427-1.463c0-0.875,0.521-1.565,1.367-1.565
			c0.947,0,1.193,0.834,1.193,1.367c0,0.108-0.006,0.187-0.018,0.246H44.722z M46.263,145.001c0.006-0.336-0.138-0.857-0.726-0.857
			c-0.54,0-0.768,0.492-0.81,0.857H46.263z"/>
		<path fill="#5E5E5D" d="M47.428,144.617c0-0.306-0.006-0.545-0.024-0.785h0.468l0.03,0.474h0.012c0.144-0.27,0.48-0.54,0.959-0.54
			c0.402,0,1.025,0.24,1.025,1.235v1.733h-0.527v-1.673c0-0.468-0.174-0.863-0.672-0.863c-0.342,0-0.612,0.245-0.708,0.539
			c-0.024,0.066-0.036,0.162-0.036,0.246v1.751h-0.527V144.617z"/>
		<path fill="#5E5E5D" d="M51.981,146.099c0.234,0.144,0.57,0.258,0.93,0.258c0.534,0,0.846-0.275,0.846-0.684
			c0-0.378-0.216-0.6-0.762-0.804c-0.66-0.228-1.067-0.575-1.067-1.139c0-0.63,0.521-1.098,1.307-1.098
			c0.408,0,0.714,0.096,0.888,0.191l-0.144,0.432c-0.126-0.077-0.396-0.191-0.762-0.191c-0.552,0-0.762,0.33-0.762,0.605
			c0,0.372,0.246,0.558,0.804,0.773c0.684,0.271,1.025,0.594,1.025,1.188c0,0.618-0.456,1.163-1.409,1.163
			c-0.39,0-0.815-0.119-1.031-0.264L51.981,146.099z"/>
		<path fill="#5E5E5D" d="M55.239,143.34c-0.192,0-0.318-0.149-0.318-0.323c0-0.187,0.132-0.33,0.33-0.33
			c0.192,0,0.324,0.144,0.324,0.33c0,0.174-0.126,0.323-0.33,0.323H55.239z M54.987,146.734v-2.902h0.527v2.902H54.987z"/>
		<path fill="#5E5E5D" d="M56.691,145.379c0.012,0.708,0.461,1.002,0.989,1.002c0.378,0,0.611-0.066,0.804-0.15l0.096,0.378
			c-0.186,0.084-0.51,0.186-0.972,0.186c-0.887,0-1.427-0.594-1.427-1.463c0-0.875,0.521-1.565,1.367-1.565
			c0.947,0,1.193,0.834,1.193,1.367c0,0.108-0.006,0.187-0.019,0.246H56.691z M58.232,145.001c0.006-0.336-0.138-0.857-0.726-0.857
			c-0.54,0-0.768,0.492-0.81,0.857H58.232z"/>
		<path fill="#5E5E5D" d="M60.969,145.379c0.013,0.708,0.462,1.002,0.989,1.002c0.378,0,0.612-0.066,0.804-0.15l0.097,0.378
			c-0.187,0.084-0.51,0.186-0.972,0.186c-0.888,0-1.428-0.594-1.428-1.463c0-0.875,0.522-1.565,1.367-1.565
			c0.948,0,1.193,0.834,1.193,1.367c0,0.108-0.006,0.187-0.018,0.246H60.969z M62.51,145.001c0.007-0.336-0.138-0.857-0.726-0.857
			c-0.539,0-0.768,0.492-0.81,0.857H62.51z"/>
		<path fill="#5E5E5D" d="M63.927,143.34c-0.191,0-0.317-0.149-0.317-0.323c0-0.187,0.132-0.33,0.329-0.33
			c0.192,0,0.324,0.144,0.324,0.33c0,0.174-0.126,0.323-0.33,0.323H63.927z M63.675,146.734v-2.902h0.528v2.902H63.675z"/>
		<path fill="#5E5E5D" d="M65.079,144.617c0-0.306-0.006-0.545-0.023-0.785h0.468l0.029,0.474h0.013
			c0.144-0.27,0.479-0.54,0.959-0.54c0.402,0,1.025,0.24,1.025,1.235v1.733h-0.527v-1.673c0-0.468-0.174-0.863-0.672-0.863
			c-0.342,0-0.611,0.245-0.708,0.539c-0.023,0.066-0.035,0.162-0.035,0.246v1.751h-0.528V144.617z"/>
		<path fill="#5E5E5D" d="M68.709,145.379c0.013,0.708,0.462,1.002,0.989,1.002c0.378,0,0.612-0.066,0.804-0.15l0.097,0.378
			c-0.187,0.084-0.51,0.186-0.972,0.186c-0.888,0-1.428-0.594-1.428-1.463c0-0.875,0.522-1.565,1.367-1.565
			c0.948,0,1.193,0.834,1.193,1.367c0,0.108-0.006,0.187-0.018,0.246H68.709z M70.25,145.001c0.007-0.336-0.138-0.857-0.726-0.857
			c-0.539,0-0.768,0.492-0.81,0.857H70.25z"/>
		<path fill="#5E5E5D" d="M71.415,144.617c0-0.306-0.006-0.545-0.023-0.785h0.468l0.029,0.474h0.013
			c0.144-0.27,0.479-0.54,0.959-0.54c0.402,0,1.025,0.24,1.025,1.235v1.733h-0.527v-1.673c0-0.468-0.174-0.863-0.672-0.863
			c-0.342,0-0.611,0.245-0.708,0.539c-0.023,0.066-0.035,0.162-0.035,0.246v1.751h-0.528V144.617z"/>
		<path fill="#5E5E5D" d="M76.803,143.137h-1.229v-0.444h2.992v0.444H77.33v3.598h-0.527V143.137z"/>
		<path fill="#5E5E5D" d="M78.423,145.379c0.013,0.708,0.462,1.002,0.99,1.002c0.377,0,0.611-0.066,0.803-0.15l0.097,0.378
			c-0.187,0.084-0.51,0.186-0.972,0.186c-0.888,0-1.428-0.594-1.428-1.463c0-0.875,0.522-1.565,1.367-1.565
			c0.948,0,1.193,0.834,1.193,1.367c0,0.108-0.006,0.187-0.018,0.246H78.423z M79.964,145.001c0.007-0.336-0.138-0.857-0.726-0.857
			c-0.539,0-0.768,0.492-0.81,0.857H79.964z"/>
		<path fill="#5E5E5D" d="M81.129,144.737c0-0.342-0.006-0.636-0.023-0.905h0.462l0.023,0.569h0.019
			c0.132-0.39,0.455-0.636,0.81-0.636c0.054,0,0.096,0.007,0.144,0.013v0.497c-0.054-0.006-0.108-0.012-0.18-0.012
			c-0.372,0-0.636,0.282-0.708,0.672c-0.012,0.078-0.018,0.162-0.018,0.246v1.553h-0.528V144.737z"/>
		<path fill="#5E5E5D" d="M83.091,144.617c0-0.306-0.012-0.545-0.023-0.785h0.462l0.023,0.468h0.019
			c0.161-0.276,0.432-0.534,0.917-0.534c0.39,0,0.689,0.24,0.815,0.582h0.012c0.091-0.168,0.21-0.288,0.33-0.378
			c0.174-0.132,0.36-0.204,0.636-0.204c0.39,0,0.96,0.252,0.96,1.26v1.709h-0.517v-1.644c0-0.563-0.209-0.893-0.629-0.893
			c-0.306,0-0.534,0.222-0.63,0.474c-0.024,0.077-0.042,0.174-0.042,0.264v1.799h-0.516v-1.745c0-0.462-0.204-0.791-0.605-0.791
			c-0.324,0-0.57,0.264-0.654,0.527c-0.029,0.078-0.042,0.168-0.042,0.258v1.751h-0.516V144.617z"/>
		<path fill="#5E5E5D" d="M88.347,143.34c-0.191,0-0.317-0.149-0.317-0.323c0-0.187,0.132-0.33,0.329-0.33
			c0.192,0,0.324,0.144,0.324,0.33c0,0.174-0.126,0.323-0.33,0.323H88.347z M88.095,146.734v-2.902h0.528v2.902H88.095z"/>
		<path fill="#5E5E5D" d="M89.498,144.617c0-0.306-0.006-0.545-0.023-0.785h0.468l0.029,0.474h0.013
			c0.144-0.27,0.479-0.54,0.959-0.54c0.402,0,1.025,0.24,1.025,1.235v1.733h-0.527v-1.673c0-0.468-0.174-0.863-0.672-0.863
			c-0.342,0-0.611,0.245-0.708,0.539c-0.023,0.066-0.035,0.162-0.035,0.246v1.751h-0.528V144.617z"/>
		<path fill="#5E5E5D" d="M94.101,144.617c0-0.306-0.012-0.545-0.023-0.785h0.462l0.023,0.468h0.019
			c0.161-0.276,0.432-0.534,0.917-0.534c0.39,0,0.689,0.24,0.815,0.582h0.012c0.091-0.168,0.21-0.288,0.33-0.378
			c0.174-0.132,0.36-0.204,0.636-0.204c0.39,0,0.96,0.252,0.96,1.26v1.709h-0.517v-1.644c0-0.563-0.209-0.893-0.629-0.893
			c-0.306,0-0.534,0.222-0.63,0.474c-0.024,0.077-0.042,0.174-0.042,0.264v1.799h-0.516v-1.745c0-0.462-0.204-0.791-0.605-0.791
			c-0.324,0-0.57,0.264-0.654,0.527c-0.029,0.078-0.042,0.168-0.042,0.258v1.751h-0.516V144.617z"/>
		<path fill="#5E5E5D" d="M99.356,143.34c-0.191,0-0.317-0.149-0.317-0.323c0-0.187,0.132-0.33,0.329-0.33
			c0.192,0,0.324,0.144,0.324,0.33c0,0.174-0.126,0.323-0.33,0.323H99.356z M99.104,146.734v-2.902h0.528v2.902H99.104z"/>
		<path fill="#5E5E5D" d="M101.145,143.137v0.695h0.756v0.401h-0.756v1.56c0,0.359,0.103,0.563,0.396,0.563
			c0.145,0,0.229-0.012,0.307-0.036l0.023,0.402c-0.102,0.036-0.264,0.071-0.468,0.071c-0.246,0-0.443-0.084-0.569-0.222
			c-0.145-0.162-0.204-0.42-0.204-0.762v-1.577h-0.449v-0.401h0.449v-0.534L101.145,143.137z"/>
		<path fill="#5E5E5D" d="M106.195,145.937c0,0.306,0.006,0.57,0.024,0.798h-0.468l-0.03-0.474h-0.012
			c-0.132,0.233-0.444,0.54-0.96,0.54c-0.455,0-1.001-0.259-1.001-1.271v-1.697h0.527v1.601c0,0.552,0.174,0.93,0.647,0.93
			c0.354,0,0.6-0.245,0.696-0.485c0.029-0.072,0.048-0.168,0.048-0.27v-1.775h0.527V145.937z"/>
		<path fill="#5E5E5D" d="M107.072,144.617c0-0.306-0.006-0.545-0.023-0.785h0.468l0.029,0.474h0.013
			c0.144-0.27,0.479-0.54,0.959-0.54c0.402,0,1.025,0.24,1.025,1.235v1.733h-0.527v-1.673c0-0.468-0.174-0.863-0.672-0.863
			c-0.342,0-0.611,0.245-0.708,0.539c-0.023,0.066-0.035,0.162-0.035,0.246v1.751h-0.528V144.617z"/>
		<path fill="#5E5E5D" d="M110.331,146.194c0.161,0.097,0.438,0.204,0.701,0.204c0.378,0,0.558-0.186,0.558-0.432
			c0-0.252-0.149-0.384-0.533-0.527c-0.528-0.192-0.774-0.48-0.774-0.822c0-0.468,0.384-0.852,1.002-0.852
			c0.294,0,0.552,0.078,0.708,0.181l-0.126,0.377c-0.114-0.065-0.324-0.167-0.594-0.167c-0.313,0-0.48,0.18-0.48,0.396
			c0,0.239,0.168,0.348,0.546,0.497c0.498,0.187,0.762,0.438,0.762,0.87c0,0.516-0.401,0.875-1.079,0.875
			c-0.318,0-0.612-0.084-0.815-0.203L110.331,146.194z"/>
		<path fill="#5E5E5D" d="M113.145,146.801c-0.204,0-0.348-0.162-0.348-0.372c0-0.216,0.149-0.372,0.354-0.372
			c0.216,0,0.354,0.156,0.354,0.372c0,0.21-0.138,0.372-0.354,0.372H113.145z M112.946,145.577l-0.084-2.885h0.576l-0.084,2.885
			H112.946z"/>
	</g>
	<g>
		<path fill="#5E5E5D" d="M21.04,184.788l0.39,1.469c0.078,0.324,0.156,0.63,0.21,0.93h0.018c0.066-0.294,0.162-0.605,0.258-0.923
			l0.474-1.476h0.443l0.45,1.451c0.108,0.342,0.192,0.653,0.258,0.947h0.018c0.048-0.294,0.125-0.6,0.222-0.941l0.414-1.457h0.522
			l-0.936,2.902H23.3l-0.443-1.385c-0.102-0.33-0.186-0.618-0.258-0.96h-0.012c-0.072,0.348-0.162,0.653-0.264,0.966l-0.468,1.379
			h-0.48l-0.875-2.902H21.04z"/>
		<path fill="#5E5E5D" d="M25.456,184.788l0.39,1.469c0.078,0.324,0.156,0.63,0.21,0.93h0.018c0.066-0.294,0.162-0.605,0.258-0.923
			l0.474-1.476h0.443l0.45,1.451c0.108,0.342,0.192,0.653,0.258,0.947h0.018c0.048-0.294,0.125-0.6,0.222-0.941l0.414-1.457h0.522
			l-0.936,2.902h-0.48l-0.443-1.385c-0.102-0.33-0.186-0.618-0.258-0.96h-0.012c-0.072,0.348-0.162,0.653-0.264,0.966l-0.468,1.379
			h-0.48l-0.875-2.902H25.456z"/>
		<path fill="#5E5E5D" d="M29.872,184.788l0.39,1.469c0.078,0.324,0.156,0.63,0.21,0.93h0.018c0.066-0.294,0.162-0.605,0.258-0.923
			l0.474-1.476h0.443l0.45,1.451c0.108,0.342,0.192,0.653,0.258,0.947h0.018c0.048-0.294,0.125-0.6,0.222-0.941l0.414-1.457h0.522
			l-0.936,2.902h-0.48l-0.443-1.385c-0.102-0.33-0.186-0.618-0.258-0.96h-0.012c-0.072,0.348-0.162,0.653-0.264,0.966l-0.468,1.379
			h-0.48l-0.875-2.902H29.872z"/>
		<path fill="#5E5E5D" d="M34.054,187.757c-0.204,0-0.348-0.162-0.348-0.378s0.15-0.378,0.359-0.378c0.21,0,0.354,0.155,0.354,0.378
			c0,0.216-0.144,0.378-0.36,0.378H34.054z"/>
		<path fill="#5E5E5D" d="M35.074,183.433h0.527v1.812h0.012c0.084-0.15,0.216-0.288,0.378-0.372c0.156-0.096,0.342-0.15,0.54-0.15
			c0.39,0,1.013,0.24,1.013,1.242v1.727h-0.527v-1.673c0-0.468-0.174-0.857-0.672-0.857c-0.342,0-0.605,0.239-0.708,0.527
			c-0.03,0.072-0.036,0.15-0.036,0.252v1.751h-0.527V183.433z"/>
		<path fill="#5E5E5D" d="M40.91,183.433v3.508c0,0.258,0.006,0.552,0.024,0.75H40.46l-0.024-0.504h-0.012
			c-0.162,0.324-0.51,0.57-0.983,0.57c-0.702,0-1.247-0.594-1.247-1.476c-0.006-0.972,0.6-1.56,1.301-1.56
			c0.45,0,0.75,0.21,0.875,0.438h0.012v-1.728H40.91z M40.382,185.97c0-0.072-0.006-0.156-0.024-0.229
			c-0.078-0.329-0.366-0.605-0.762-0.605c-0.545,0-0.869,0.479-0.869,1.115c0,0.594,0.294,1.08,0.857,1.08
			c0.354,0,0.678-0.24,0.773-0.636c0.018-0.066,0.024-0.139,0.024-0.223V185.97z"/>
		<path fill="#5E5E5D" d="M41.788,183.433h0.527v1.812h0.012c0.084-0.15,0.216-0.288,0.378-0.372c0.156-0.096,0.342-0.15,0.54-0.15
			c0.39,0,1.013,0.24,1.013,1.242v1.727H43.73v-1.673c0-0.468-0.174-0.857-0.672-0.857c-0.342,0-0.605,0.239-0.708,0.527
			c-0.03,0.072-0.036,0.15-0.036,0.252v1.751h-0.527V183.433z"/>
		<path fill="#5E5E5D" d="M46.461,185.88v0.384h-1.481v-0.384H46.461z"/>
		<path fill="#5E5E5D" d="M47.283,184.788l0.57,1.625c0.096,0.27,0.174,0.51,0.234,0.75h0.018c0.066-0.24,0.15-0.48,0.246-0.75
			l0.564-1.625h0.551l-1.139,2.902h-0.504l-1.103-2.902H47.283z"/>
		<path fill="#5E5E5D" d="M51.021,187.757c-0.78,0-1.391-0.576-1.391-1.493c0-0.972,0.642-1.542,1.439-1.542
			c0.833,0,1.397,0.606,1.397,1.487c0,1.08-0.75,1.548-1.439,1.548H51.021z M51.045,187.36c0.504,0,0.881-0.474,0.881-1.133
			c0-0.492-0.246-1.109-0.869-1.109c-0.618,0-0.888,0.575-0.888,1.127c0,0.636,0.36,1.115,0.87,1.115H51.045z"/>
		<path fill="#5E5E5D" d="M53.134,183.433h0.527v1.817h0.012c0.186-0.324,0.521-0.528,0.989-0.528c0.72,0,1.224,0.6,1.224,1.476
			c0,1.043-0.66,1.56-1.308,1.56c-0.419,0-0.75-0.162-0.971-0.546h-0.012l-0.03,0.479h-0.456c0.018-0.198,0.024-0.492,0.024-0.75
			V183.433z M53.661,186.527c0,0.065,0.006,0.132,0.018,0.191c0.102,0.366,0.414,0.618,0.792,0.618c0.558,0,0.882-0.45,0.882-1.115
			c0-0.588-0.3-1.086-0.864-1.086c-0.36,0-0.696,0.252-0.797,0.647c-0.018,0.066-0.03,0.139-0.03,0.222V186.527z"/>
		<path fill="#5E5E5D" d="M58.592,186.995c0,0.252,0.013,0.497,0.042,0.695H58.16l-0.048-0.366h-0.018
			c-0.156,0.229-0.475,0.433-0.888,0.433c-0.587,0-0.887-0.414-0.887-0.834c0-0.701,0.624-1.085,1.745-1.079v-0.061
			c0-0.239-0.066-0.678-0.66-0.671c-0.276,0-0.558,0.077-0.762,0.216l-0.12-0.354c0.24-0.149,0.594-0.252,0.959-0.252
			c0.894,0,1.109,0.606,1.109,1.188V186.995z M58.076,186.209c-0.576-0.012-1.229,0.09-1.229,0.654c0,0.348,0.228,0.503,0.492,0.503
			c0.384,0,0.63-0.239,0.714-0.485c0.018-0.054,0.023-0.114,0.023-0.168V186.209z"/>
		<path fill="#5E5E5D" d="M59.78,187.757c-0.203,0-0.348-0.162-0.348-0.378s0.15-0.378,0.36-0.378s0.354,0.155,0.354,0.378
			c0,0.216-0.144,0.378-0.359,0.378H59.78z"/>
		<path fill="#5E5E5D" d="M63.308,183.433v3.508c0,0.258,0.006,0.552,0.024,0.75h-0.474l-0.024-0.504h-0.012
			c-0.162,0.324-0.51,0.57-0.983,0.57c-0.702,0-1.248-0.594-1.248-1.476c-0.006-0.972,0.6-1.56,1.302-1.56
			c0.449,0,0.749,0.21,0.875,0.438h0.013v-1.728H63.308z M62.78,185.97c0-0.072-0.006-0.156-0.024-0.229
			c-0.078-0.329-0.365-0.605-0.762-0.605c-0.546,0-0.869,0.479-0.869,1.115c0,0.594,0.294,1.08,0.857,1.08
			c0.354,0,0.678-0.24,0.773-0.636c0.019-0.066,0.024-0.139,0.024-0.223V185.97z"/>
		<path fill="#5E5E5D" d="M64.484,186.335c0.013,0.708,0.462,1.002,0.989,1.002c0.378,0,0.612-0.066,0.804-0.15l0.097,0.378
			c-0.187,0.084-0.51,0.186-0.972,0.186c-0.888,0-1.428-0.594-1.428-1.463c0-0.875,0.522-1.565,1.367-1.565
			c0.948,0,1.193,0.834,1.193,1.367c0,0.108-0.006,0.187-0.018,0.246H64.484z M66.025,185.957c0.007-0.336-0.138-0.857-0.726-0.857
			c-0.539,0-0.768,0.492-0.81,0.857H66.025z"/>
	</g>
</g>
</svg>
