<svg xmlns="http://www.w3.org/2000/svg" width="303.307pt" height="193.89pt" viewBox="0 0 303.307 193.89"><g transform="scale(1.25822552864762)"><defs><clipPath id="a"><path transform="matrix(1 0 0 -1 -29.509 185.404)" d="M21 21h257.953v172.913H21z"/></clipPath><clipPath id="b"><path transform="matrix(1 0 0 -1 -29.509 185.404)" d="M21 21h257.953v172.913H21z"/></clipPath><clipPath id="c"><path transform="matrix(1 0 0 -1 -29.509 185.404)" d="M21 21h257.953v172.913H21z"/></clipPath><clipPath id="d"><path transform="matrix(1 0 0 -1 -29.509 185.404)" d="M21 21h257.953v172.913H21z"/></clipPath><clipPath id="e"><path transform="matrix(1 0 0 -1 -29.509 185.404)" d="M21 21h257.953v172.913H21z"/></clipPath><clipPath id="f"><path transform="matrix(1 0 0 -1 -29.509 185.404)" d="M0 0h299.953v214.913H0z"/></clipPath></defs><path d="M91.987-8.51-8.51 26.694v61.2H93.67V-8.508zM204.557-8.51 93.67 30.334v57.56h112.57V-8.508z" fill="#0f2c5b"/><path d="M206.24 30.333v57.561h43.205V15.2z" fill="#005aaa"/><path d="M-8.509-8.51v35.203L91.987-8.51z" fill="#0e4f9f"/><path d="M93.67-8.51v38.843L204.557-8.51z" fill="#8a4182"/><path d="M206.24-8.51v38.843l43.205-15.134V-8.51z" fill="#e84a73"/><path d="M-8.509 123.685v40.72H93.67V87.894z" fill="#0e4f9f"/><path d="M93.67 127.325v37.08h112.57V87.894z" fill="#0f2c5b"/><path d="M206.24 127.325v37.08h43.205V112.19z" fill="#8a4182"/><path d="M-8.509 87.894v35.791L93.67 87.895z" fill="#0e4f9f"/><path d="m93.67 127.325 112.57-39.43H93.67z" fill="#e84a73"/><path d="M206.24 87.894v39.431l43.205-15.134V87.894z" fill="#0f2c5b"/><path d="M51.867 60.169h2.928V48.062h-2.928zM51.867 46.145h2.928v-2.874h-2.928z" fill="#fff"/><g clip-path="url(#a)" fill="#fff"><path d="M65.99 48.222c-.592-.314-1.307-.47-2.145-.47-.596 0-1.145.091-1.647.274-.503.183-.948.45-1.336.801a4.275 4.275 0 0 0-.736.882l-.055-1.648h-2.723V60.17h2.927v-6.907c.004-.697.13-1.273.374-1.727.246-.454.568-.783.967-.987a2.856 2.856 0 0 1 1.324-.307c.432 0 .794.081 1.087.242.292.162.51.402.654.72.144.317.216.711.216 1.182v7.784h2.928v-8.403c0-.853-.158-1.579-.474-2.177a3.201 3.201 0 0 0-1.36-1.367M105.66 48.222c-.594-.314-1.308-.47-2.145-.47-.597 0-1.146.091-1.648.274-.503.183-.948.45-1.336.801a4.275 4.275 0 0 0-.736.882l-.055-1.648h-2.722V60.17h2.926v-6.907c.004-.697.13-1.273.374-1.727.246-.454.569-.783.968-.987a2.856 2.856 0 0 1 1.323-.307c.433 0 .794.081 1.088.242.291.162.51.402.653.72.144.317.216.711.216 1.182v7.784h2.928v-8.403c0-.853-.157-1.579-.473-2.177a3.209 3.209 0 0 0-1.362-1.367"/></g><path d="M110.047 46.145h2.927v-2.874h-2.927zM110.047 60.169h2.927V48.062h-2.927z" fill="#fff"/><g clip-path="url(#b)" fill="#fff"><path d="M92.316 48.523c-.835-.518-1.845-.777-3.03-.777-1.176 0-2.193.254-3.05.762-.857.51-1.514 1.24-1.972 2.192-.458.952-.687 2.083-.687 3.392 0 1.324.23 2.465.684 3.421.456.956 1.115 1.692 1.978 2.206s1.891.771 3.083.771c.896 0 1.7-.145 2.413-.435a4.651 4.651 0 0 0 1.805-1.292c.491-.57.973-1.428 1.202-2.436h-2.81c-.06.317-.312.838-.594 1.16a2.188 2.188 0 0 1-.842.6c-.327.13-.699.194-1.116.194-.627 0-1.158-.137-1.592-.412-.435-.274-.766-.7-.994-1.276-.189-.479-.298-1.068-.33-1.765h8.403v-.748c0-1.286-.216-2.403-.649-3.354-.432-.95-1.066-1.685-1.902-2.203m-4.543 1.844c.421-.275.925-.412 1.513-.412.59 0 1.087.14 1.497.417.408.28.721.7.937 1.263.146.38.243.83.292 1.347h-5.519a4.92 4.92 0 0 1 .307-1.356c.228-.565.552-.985.973-1.259M78.687 48.062l-.05 1.548a3.935 3.935 0 0 0-1.693-1.44 4.758 4.758 0 0 0-1.973-.4c-.974 0-1.837.239-2.589.719-.752.479-1.34 1.18-1.765 2.103-.424.923-.637 2.032-.637 3.325 0 1.305.205 2.435.614 3.389.41.955.991 1.688 1.747 2.2.756.512 1.65.769 2.682.769.728 0 1.39-.143 1.981-.427a3.94 3.94 0 0 0 1.475-1.212l.062-.087v1.45c0 .679-.09 1.235-.272 1.669a1.892 1.892 0 0 1-.903.979c-.42.218-.99.327-1.712.327-.463 0-.86-.051-1.189-.155a1.81 1.81 0 0 1-.818-.511c-.216-.238-.373-.557-.47-.958l-2.622.954c.146.479.358.894.638 1.243.434.54 1.015.942 1.741 1.2.727.26 1.596.389 2.61.389 1.258 0 2.323-.198 3.195-.596a4.25 4.25 0 0 0 2-1.823c.458-.818.688-1.844.688-3.08V48.063zm-.473 8.026c-.246.602-.587 1.056-1.023 1.36a2.56 2.56 0 0 1-1.508.46c-.572 0-1.06-.151-1.466-.453-.405-.302-.718-.752-.938-1.35-.22-.598-.33-1.335-.33-2.211 0-.865.112-1.581.336-2.148.224-.567.54-.986.946-1.26.407-.272.901-.408 1.482-.408.565 0 1.062.142 1.493.427.43.284.767.712 1.011 1.285.243.573.365 1.28.365 2.12 0 .85-.123 1.576-.368 2.178M122.858 57.157a2.05 2.05 0 0 1-.795.83c-.329.185-.727.277-1.195.277-.604 0-1.112-.152-1.525-.455-.413-.304-.725-.763-.935-1.377-.21-.613-.315-1.385-.315-2.316 0-.931.101-1.703.304-2.314.202-.612.512-1.068.93-1.368.415-.3.936-.45 1.56-.45.451 0 .84.083 1.167.249.328.165.593.417.795.756.151.253.267.559.35.92l2.617-.953a4.777 4.777 0 0 0-.568-1.173 4.355 4.355 0 0 0-1.797-1.531c-.744-.35-1.607-.523-2.589-.523-1.18 0-2.2.249-3.062.748-.86.498-1.522 1.23-1.983 2.194-.462.964-.693 2.13-.693 3.497s.23 2.525.687 3.474c.457.949 1.111 1.662 1.96 2.139.85.477 1.854.715 3.015.715 1.021 0 1.906-.182 2.656-.546a4.338 4.338 0 0 0 1.797-1.601c.366-.575.62-1.25.765-2.022h-2.839c-.078.32-.18.597-.307.83M135.769 53.674c-.586-.294-1.325-.537-2.218-.727l-1.35-.287a6.902 6.902 0 0 1-1.12-.35 1.59 1.59 0 0 1-.653-.488c-.15-.2-.225-.453-.225-.757 0-.292.077-.539.23-.739.155-.2.379-.353.673-.456.294-.103.655-.155 1.084-.155.47 0 .868.064 1.189.193.32.128.577.324.762.59.179.257.355.626.423 1.41l2.614-.95c-.152-.716-.408-1.203-.708-1.596-.416-.546-.98-.948-1.68-1.213-.701-.265-1.533-.397-2.495-.397-1.021 0-1.885.14-2.591.421-.707.28-1.243.69-1.607 1.227-.365.537-.547 1.184-.547 1.94 0 .662.142 1.228.424 1.697.283.47.7.854 1.253 1.154.553.3 1.245.53 2.075.69l1.396.292c.534.125.957.26 1.268.406.312.146.538.323.678.532.14.208.21.47.21.786 0 .32-.084.598-.251.835-.167.238-.425.422-.774.552-.35.131-.78.196-1.294.196-.522 0-.957-.07-1.304-.213a1.74 1.74 0 0 1-.815-.663c-.196-.3-.335-.71-.384-1.277h-2.75c.069 1.013.356 1.828.765 2.416.409.588.977 1.028 1.703 1.321.727.292 1.618.438 2.673.438 1.064 0 1.982-.148 2.756-.444.773-.296 1.369-.734 1.788-1.315.419-.58.628-1.285.628-2.115 0-.709-.158-1.305-.473-1.788-.316-.483-.767-.872-1.353-1.166"/></g><path d="M24.209 50.141V60.17h18.876V43.271z" fill="#fff"/><g clip-path="url(#c)"><path d="M33.647 41.883c7.818 0 14.157-6.338 14.157-14.157l-14.157 5.153z" fill="#e84a73"/></g><path d="M58.802 72.232h2.62v-.859h-2.62v-1.542h2.896v-.88h-3.891v5.855h3.91v-.882h-2.915z" fill="#fff"/><g clip-path="url(#d)" fill="#fff"><path d="M66.817 72.311c.277-.149.488-.358.633-.628.145-.27.218-.586.218-.948 0-.367-.073-.684-.219-.95a1.455 1.455 0 0 0-.656-.618c-.291-.144-.647-.216-1.068-.216h-2.261v5.854h.995v-2.242h.976l1.31 2.242h1.106l-1.416-2.348a1.8 1.8 0 0 0 .382-.146m-2.358-2.517h1.244c.212 0 .39.04.533.116a.758.758 0 0 1 .324.332c.073.144.109.317.109.518 0 .203-.037.377-.11.521a.746.746 0 0 1-.324.331 1.114 1.114 0 0 1-.53.114h-1.246zM71.913 72.24a59.959 59.959 0 0 0-.387 1.413l-.067.258c-.022-.088-.043-.18-.066-.266A36.515 36.515 0 0 0 71 72.243l-1.007-3.291h-1.05l1.918 5.854h1.184l1.882-5.854h-1.023z"/></g><path d="M75.49 74.806h.994v-5.855h-.995zM85.82 72.232h2.62v-.859h-2.62v-1.542h2.895v-.88h-3.89v5.855h3.91v-.882h-2.916z" fill="#fff"/><g clip-path="url(#e)" fill="#fff"><path d="M55.312 71.857a3.35 3.35 0 0 0-.923-.38l-.672-.186a2.646 2.646 0 0 1-.58-.232.756.756 0 0 1-.295-.282.79.79 0 0 1-.087-.382c0-.159.037-.294.112-.405a.695.695 0 0 1 .336-.256c.149-.06.333-.09.55-.09.258 0 .47.037.635.111a.769.769 0 0 1 .37.328 1.3 1.3 0 0 1 .145.55l.924-.336a1.894 1.894 0 0 0-.225-.637 1.522 1.522 0 0 0-.7-.612c-.308-.14-.693-.212-1.154-.212-.433 0-.798.068-1.095.203-.297.135-.52.323-.67.565-.15.242-.223.525-.223.848 0 .315.063.582.189.801.126.218.3.396.523.532.223.136.49.248.8.334l.667.18c.263.08.472.161.626.246a.888.888 0 0 1 .338.3.786.786 0 0 1 .107.421.806.806 0 0 1-.127.461.764.764 0 0 1-.378.285 1.752 1.752 0 0 1-.628.097c-.26 0-.483-.037-.67-.112a.9.9 0 0 1-.438-.372c-.107-.173-.166-.406-.176-.698h-.99c.02.456.12.833.303 1.128.182.297.438.516.768.66.329.142.729.214 1.199.214.462 0 .854-.07 1.176-.212.322-.14.563-.342.724-.602.16-.26.242-.566.242-.917 0-.3-.058-.562-.174-.783a1.48 1.48 0 0 0-.53-.558M93.84 71.857a3.35 3.35 0 0 0-.922-.38l-.672-.186a2.646 2.646 0 0 1-.58-.232.756.756 0 0 1-.295-.282.79.79 0 0 1-.087-.382c0-.159.037-.294.112-.405a.7.7 0 0 1 .336-.256c.149-.06.333-.09.55-.09.258 0 .47.037.635.111a.769.769 0 0 1 .37.328 1.3 1.3 0 0 1 .145.55l.924-.336a1.916 1.916 0 0 0-.225-.637 1.522 1.522 0 0 0-.7-.612c-.308-.14-.693-.212-1.154-.212-.433 0-.798.068-1.095.203-.297.135-.52.323-.67.565-.15.242-.223.525-.223.848 0 .315.063.582.189.801.126.218.3.396.523.532.223.136.49.248.8.334l.667.18c.263.08.472.161.626.246a.888.888 0 0 1 .338.3.786.786 0 0 1 .107.421.813.813 0 0 1-.126.461.77.77 0 0 1-.38.285 1.752 1.752 0 0 1-.627.097c-.26 0-.483-.037-.67-.112a.9.9 0 0 1-.438-.372c-.107-.173-.165-.406-.176-.698h-.99c.02.456.12.833.303 1.128.182.297.438.516.768.66.329.142.729.214 1.199.214.462 0 .854-.07 1.176-.212a1.55 1.55 0 0 0 .724-.602c.16-.26.242-.566.242-.917 0-.3-.058-.562-.174-.783a1.48 1.48 0 0 0-.53-.558M81.965 73.45c-.128.21-.29.363-.484.46a1.43 1.43 0 0 1-.652.147 1.39 1.39 0 0 1-.815-.238c-.228-.159-.404-.4-.528-.726-.124-.324-.186-.729-.186-1.214 0-.484.061-.887.185-1.21.123-.323.3-.563.526-.722.228-.158.5-.237.814-.237.223 0 .426.041.608.122.181.082.336.213.464.394.128.181.221.414.28.701l.931-.339c-.08-.317-.2-.592-.362-.825a2.019 2.019 0 0 0-.819-.697 2.587 2.587 0 0 0-1.104-.23c-.51 0-.959.117-1.342.351-.384.233-.68.58-.89 1.036-.21.457-.315 1.01-.315 1.656 0 .648.105 1.201.316 1.658.21.458.506.805.887 1.042.381.236.825.354 1.334.354.425 0 .808-.085 1.15-.256.342-.17.622-.427.84-.769.217-.34.351-.762.401-1.26h-.989c-.039.324-.122.591-.25.801"/></g><path stroke-width="1.25" stroke-miterlimit="10" fill="none" stroke="#fff" d="M-6.005-.005h-15m267.945 0h15M-6.005 155.9h-15m267.945 0h15M-.005-6.005v-15m0 182.906v15M240.94-6.005v-15m0 182.906v15"/><path stroke-width=".25" stroke-miterlimit="10" fill="none" stroke="#000" d="M-6.005-.005h-15m267.945 0h15M-6.005 155.9h-15m267.945 0h15M-.005-6.005v-15m0 182.906v15M240.94-6.005v-15m0 182.906v15"/><g clip-path="url(#f)" stroke-miterlimit="10" fill="none"><path stroke-width="1.25" stroke="#fff" d="M-11.509-8.51h-18m281.953 0h18M-11.509 164.405h-18m281.953 0h18M-8.509-11.51v-18m0 196.913v18M249.444-11.51v-18m0 196.913v18"/><path stroke-width=".25" stroke="#000" d="M-11.509-8.51h-18m281.953 0h18M-11.509 164.405h-18m281.953 0h18M-8.509-11.51v-18m0 196.913v18M249.444-11.51v-18m0 196.913v18"/></g></g></svg>