<svg xmlns="http://www.w3.org/2000/svg" xmlns:xlink="http://www.w3.org/1999/xlink" width="303.307pt" height="193.89pt" viewBox="0 0 303.307 193.89" version="1.1">
<g id="all">
    <g transform="scale(1.25822552864762)">
<path transform="matrix(1,0,0,-1,0,155.906)" d="M 0 0 L 240.945 0 L 240.945 155.905 L 0 155.905 Z " fill="#00558f"/>
<path transform="matrix(1,0,0,-1,0,155.906)" d="M 85.065 50.16 L 155.931 50.16 L 155.931 121.026 L 85.065 121.026 Z " fill="#ffffff"/>
<clipPath id="cp0">
<path transform="matrix(1,0,0,-1,0,155.906)" d="M 0 0 L 240.945 0 L 240.945 155.905 L 0 155.905 Z "/>
</clipPath>
<g clip-path="url(#cp0)">
<path transform="matrix(1,0,0,-1,-5.9767,.024505616)" stroke-width="1.25" stroke-linecap="butt" stroke-miterlimit="10" stroke-linejoin="miter" fill="none" stroke="#ffffff" d="M 0 0 L -15 0 M 252.947 0 L 267.947 0 M 0 -155.906 L -15 -155.906 M 252.947 -155.906 L 267.947 -155.906 M 6.001 6.001 L 6.001 21.001 M 6.001 -161.906 L 6.001 -176.906 M 246.946 6.001 L 246.946 21.001 M 246.946 -161.906 L 246.946 -176.906 "/>
<path transform="matrix(1,0,0,-1,-5.9767,.024505616)" stroke-width=".25" stroke-linecap="butt" stroke-miterlimit="10" stroke-linejoin="miter" fill="none" stroke="#000000" d="M 0 0 L -15 0 M 252.947 0 L 267.947 0 M 0 -155.906 L -15 -155.906 M 252.947 -155.906 L 267.947 -155.906 M 6.001 6.001 L 6.001 21.001 M 6.001 -161.906 L 6.001 -176.906 M 246.946 6.001 L 246.946 21.001 M 246.946 -161.906 L 246.946 -176.906 "/>
<path transform="matrix(1,0,0,-1,-6.0011,.00050354006)" stroke-width="1.25" stroke-linecap="butt" stroke-miterlimit="10" stroke-linejoin="miter" fill="none" stroke="#ffffff" d="M 0 0 L -15 0 M 252.947 0 L 267.947 0 M 0 -155.906 L -15 -155.906 M 252.947 -155.906 L 267.947 -155.906 M 6.001 6.001 L 6.001 21.001 M 6.001 -161.906 L 6.001 -176.906 M 246.946 6.001 L 246.946 21.001 M 246.946 -161.906 L 246.946 -176.906 "/>
<path transform="matrix(1,0,0,-1,-6.0011,.00050354006)" stroke-width=".25" stroke-linecap="butt" stroke-miterlimit="10" stroke-linejoin="miter" fill="none" stroke="#000000" d="M 0 0 L -15 0 M 252.947 0 L 267.947 0 M 0 -155.906 L -15 -155.906 M 252.947 -155.906 L 267.947 -155.906 M 6.001 6.001 L 6.001 21.001 M 6.001 -161.906 L 6.001 -176.906 M 246.946 6.001 L 246.946 21.001 M 246.946 -161.906 L 246.946 -176.906 "/>
</g>
<text fill="#ffffff" xml:space="preserve" transform="matrix(1 0 -0 1 0 155.906)" font-size="6" font-family="MetaPro"><tspan y="-27.6399" x="76.2543 80.8923 84.6063 90.0903 92.1723 94.5183 96.6303 101.070308 104.874309 109.53631 113.50231 117.14431 121.91431 126.2823 130.5363 134.0043 136.0863 138.4323 140.5443 146.22029 150.85829 155.5143 158.0043 162.27629">ULM &#x00b7; STUTTGART &#x00b7; MUNICH</tspan><tspan y="-19.2399" x="52.09828 56.80828 61.24828 66.93028 71.38828 76.02628 80.22628 84.73828 86.82028 89.16628 91.27828 96.996288 101.91628 105.57629 109.10429 113.454288 117.912288 122.550289 126.75028 131.26229 133.34429 135.69028 137.80228 141.82828 146.19628 150.43828 152.87429 157.05629 159.13829 161.48429 163.59629 167.76628 172.23628 176.48429 181.16428 185.80228 188.89827">HAMBURG &#x00b7; WOLFSBURG &#x00b7; PARIS &#x00b7; PRAGUE </tspan><tspan y="-10.839901" x="71.12427 75.474269 80.184268 84.558269 89.22027 93.906269 98.616268 102.990268 105.28826 107.37026 109.71626 111.82826 115.88426 119.67626 123.53426 127.908267 132.58826 136.09825 140.19626 142.27826 144.62425 146.73625 150.91826 155.55626 159.43827 163.90227 167.76026">SHANGHAI &#x00b7; ATLANTA &#x00b7; PUEBLA</tspan></text>
</g>

</svg>
