<svg xmlns="http://www.w3.org/2000/svg" xmlns:xlink="http://www.w3.org/1999/xlink" width="303.307pt" height="193.89pt" viewBox="0 0 303.307 193.89" version="1.1">
<g id="all">
    <g transform="scale(1.25822552864762)">
<rect x="0" y="0" width="241.06" height="154.1" style=" stroke:none;fill-rule:nonzero;fill:rgb(6.314087%,31.352234%,55.078125%);fill-opacity:1;" />
<path style=" stroke:none;fill-rule:nonzero;fill:rgb(100%,100%,100%);fill-opacity:1;" d="M 92.703125 105.722656 L 148.242188 105.722656 L 148.242188 50.183594 L 92.703125 50.183594 Z M 92.703125 105.722656 "/>
<path style=" stroke:none;fill-rule:nonzero;fill:rgb(100%,100%,100%);fill-opacity:1;" d="M 73.613281 143.363281 C 73.613281 142.71875 73.15625 142.359375 72.605469 142.199219 L 72.117188 142.054688 C 71.675781 141.921875 71.507812 141.753906 71.507812 141.460938 C 71.507812 141.074219 71.796875 140.835938 72.257812 140.835938 C 72.601562 140.835938 72.859375 140.925781 73.242188 141.160156 L 73.5 140.75 C 73.132812 140.492188 72.691406 140.363281 72.234375 140.363281 C 71.417969 140.363281 70.867188 140.847656 70.867188 141.5625 C 70.867188 142.148438 71.21875 142.449219 71.84375 142.628906 L 72.273438 142.753906 C 72.738281 142.886719 72.960938 143.121094 72.960938 143.457031 C 72.960938 143.902344 72.605469 144.175781 72.066406 144.175781 C 71.652344 144.175781 71.308594 144.058594 70.949219 143.835938 L 70.722656 144.28125 C 71.125 144.527344 71.578125 144.644531 72.054688 144.644531 C 73.140625 144.644531 73.613281 143.9375 73.613281 143.363281 M 78.015625 144.566406 L 78.015625 140.433594 L 77.433594 140.433594 L 77.433594 142.132812 L 75.855469 142.132812 L 75.855469 140.433594 L 75.285156 140.433594 L 75.285156 144.566406 L 75.855469 144.566406 L 75.855469 142.605469 L 77.433594 142.605469 L 77.433594 144.566406 Z M 82.894531 144.566406 L 81.5625 140.425781 L 80.84375 140.425781 L 79.488281 144.566406 L 80.089844 144.566406 L 80.449219 143.398438 L 81.882812 143.398438 L 82.25 144.566406 Z M 81.757812 142.917969 L 80.59375 142.917969 C 80.664062 142.71875 81.101562 141.238281 81.160156 141.003906 L 81.199219 141.003906 C 81.253906 141.242188 81.683594 142.726562 81.757812 142.917969 M 87.125 144.566406 L 87.125 140.433594 L 86.566406 140.433594 L 86.582031 142.460938 C 86.582031 142.917969 86.628906 143.570312 86.640625 143.691406 L 86.601562 143.703125 C 86.574219 143.589844 86.367188 143.054688 86.195312 142.714844 L 85.042969 140.433594 L 84.371094 140.433594 L 84.371094 144.566406 L 84.953125 144.566406 L 84.929688 142.394531 C 84.921875 142.011719 84.910156 141.597656 84.882812 141.242188 L 84.917969 141.238281 C 84.996094 141.476562 85.210938 141.945312 85.421875 142.371094 L 86.507812 144.566406 Z M 91.867188 144.296875 L 91.867188 142.367188 L 90.441406 142.367188 L 90.535156 142.839844 L 91.296875 142.839844 L 91.296875 144.015625 C 91.128906 144.113281 90.921875 144.171875 90.6875 144.171875 C 90.332031 144.171875 89.976562 144.035156 89.796875 143.800781 C 89.605469 143.546875 89.503906 143.121094 89.503906 142.550781 C 89.503906 142.058594 89.539062 141.765625 89.730469 141.371094 C 89.910156 140.996094 90.222656 140.839844 90.621094 140.839844 C 90.9375 140.839844 91.195312 140.929688 91.503906 141.152344 L 91.777344 140.792969 C 91.453125 140.511719 91.058594 140.378906 90.609375 140.378906 C 90.199219 140.378906 89.871094 140.488281 89.570312 140.734375 C 89.097656 141.125 88.855469 141.695312 88.855469 142.523438 C 88.855469 143.199219 89.007812 143.6875 89.335938 144.070312 C 89.652344 144.441406 90.09375 144.625 90.644531 144.625 C 91.082031 144.625 91.53125 144.507812 91.867188 144.296875 M 96.457031 144.566406 L 96.457031 140.433594 L 95.875 140.433594 L 95.875 142.132812 L 94.296875 142.132812 L 94.296875 140.433594 L 93.726562 140.433594 L 93.726562 144.566406 L 94.296875 144.566406 L 94.296875 142.605469 L 95.875 142.605469 L 95.875 144.566406 Z M 101.335938 144.566406 L 100.003906 140.425781 L 99.285156 140.425781 L 97.929688 144.566406 L 98.527344 144.566406 L 98.886719 143.398438 L 100.324219 143.398438 L 100.6875 144.566406 Z M 100.195312 142.917969 L 99.03125 142.917969 C 99.105469 142.71875 99.542969 141.238281 99.601562 141.003906 L 99.636719 141.003906 C 99.691406 141.242188 100.125 142.726562 100.195312 142.917969 M 103.398438 140.433594 L 102.8125 140.433594 L 102.8125 144.566406 L 103.398438 144.566406 Z M 107.949219 142.898438 C 107.949219 142.648438 107.757812 142.457031 107.523438 142.457031 C 107.289062 142.457031 107.105469 142.648438 107.105469 142.898438 C 107.105469 143.144531 107.289062 143.347656 107.523438 143.347656 C 107.757812 143.347656 107.949219 143.144531 107.949219 142.898438 M 114.550781 144.566406 L 113.21875 140.425781 L 112.5 140.425781 L 111.144531 144.566406 L 111.742188 144.566406 L 112.105469 143.398438 L 113.539062 143.398438 L 113.902344 144.566406 Z M 113.410156 142.917969 L 112.25 142.917969 C 112.320312 142.71875 112.757812 141.238281 112.816406 141.003906 L 112.855469 141.003906 C 112.90625 141.242188 113.339844 142.726562 113.410156 142.917969 M 118.105469 140.433594 L 115.328125 140.433594 L 115.328125 140.914062 L 116.402344 140.914062 L 116.402344 144.566406 L 116.96875 144.566406 L 116.96875 140.914062 L 118.042969 140.914062 Z M 121.671875 144.085938 L 120.097656 144.085938 L 120.097656 140.433594 L 119.511719 140.433594 L 119.511719 144.566406 L 121.574219 144.566406 Z M 126.269531 144.566406 L 124.9375 140.425781 L 124.21875 140.425781 L 122.863281 144.566406 L 123.460938 144.566406 L 123.820312 143.398438 L 125.257812 143.398438 L 125.621094 144.566406 Z M 125.128906 142.917969 L 123.964844 142.917969 C 124.039062 142.71875 124.476562 141.238281 124.535156 141.003906 L 124.570312 141.003906 C 124.625 141.242188 125.058594 142.726562 125.128906 142.917969 M 130.5 144.566406 L 130.5 140.433594 L 129.941406 140.433594 L 129.953125 142.460938 C 129.953125 142.917969 130 143.570312 130.011719 143.691406 L 129.976562 143.703125 C 129.945312 143.589844 129.742188 143.054688 129.570312 142.714844 L 128.417969 140.433594 L 127.746094 140.433594 L 127.746094 144.566406 L 128.324219 144.566406 L 128.300781 142.394531 C 128.296875 142.011719 128.285156 141.597656 128.253906 141.242188 L 128.289062 141.238281 C 128.367188 141.476562 128.585938 141.945312 128.796875 142.371094 L 129.882812 144.566406 Z M 134.8125 140.433594 L 132.035156 140.433594 L 132.035156 140.914062 L 133.109375 140.914062 L 133.109375 144.566406 L 133.679688 144.566406 L 133.679688 140.914062 L 134.753906 140.914062 Z M 138.835938 144.566406 L 137.503906 140.425781 L 136.78125 140.425781 L 135.425781 144.566406 L 136.027344 144.566406 L 136.386719 143.398438 L 137.820312 143.398438 L 138.1875 144.566406 Z M 137.695312 142.917969 L 136.53125 142.917969 C 136.601562 142.71875 137.042969 141.238281 137.101562 141.003906 L 137.136719 141.003906 C 137.191406 141.242188 137.625 142.726562 137.695312 142.917969 M 142.875 142.898438 C 142.875 142.648438 142.683594 142.457031 142.449219 142.457031 C 142.214844 142.457031 142.03125 142.648438 142.03125 142.898438 C 142.03125 143.144531 142.214844 143.347656 142.449219 143.347656 C 142.683594 143.347656 142.875 143.144531 142.875 142.898438 M 149.214844 141.632812 C 149.214844 141.195312 149.023438 140.847656 148.667969 140.625 C 148.445312 140.488281 148.21875 140.433594 147.683594 140.433594 L 146.582031 140.433594 L 146.582031 144.566406 L 147.15625 144.566406 L 147.15625 142.945312 L 147.839844 142.945312 C 148.277344 142.945312 148.5 142.859375 148.710938 142.695312 C 149.078125 142.414062 149.214844 142.101562 149.214844 141.632812 M 148.574219 141.699219 C 148.574219 141.933594 148.511719 142.101562 148.398438 142.246094 C 148.265625 142.414062 148.085938 142.480469 147.804688 142.480469 L 147.15625 142.480469 L 147.15625 140.90625 L 147.695312 140.90625 C 148.019531 140.90625 148.226562 140.972656 148.367188 141.113281 C 148.507812 141.242188 148.574219 141.4375 148.574219 141.699219 M 153.519531 143.273438 L 153.519531 140.433594 L 152.945312 140.433594 L 152.945312 143.1875 C 152.945312 143.519531 152.898438 143.738281 152.796875 143.871094 C 152.660156 144.046875 152.433594 144.140625 152.121094 144.140625 C 151.792969 144.140625 151.582031 144.039062 151.46875 143.90625 C 151.347656 143.769531 151.316406 143.402344 151.316406 143.105469 L 151.316406 140.433594 L 150.738281 140.433594 L 150.738281 143.320312 C 150.738281 143.75 150.761719 143.867188 150.867188 144.058594 C 151.078125 144.4375 151.492188 144.632812 152.117188 144.632812 C 152.753906 144.632812 153.09375 144.40625 153.304688 144.148438 C 153.488281 143.917969 153.519531 143.792969 153.519531 143.273438 M 157.722656 144.566406 L 157.722656 144.070312 L 155.996094 144.070312 L 155.996094 142.652344 L 157.320312 142.652344 L 157.320312 142.167969 L 155.996094 142.167969 L 155.996094 140.90625 L 157.578125 140.90625 L 157.65625 140.433594 L 155.40625 140.433594 L 155.40625 144.566406 Z M 162.042969 143.433594 C 162.042969 142.894531 161.742188 142.503906 161.117188 142.367188 C 161.621094 142.214844 161.867188 141.886719 161.867188 141.453125 C 161.867188 141.074219 161.675781 140.78125 161.308594 140.589844 C 161.050781 140.453125 160.867188 140.433594 160.171875 140.433594 L 159.292969 140.433594 L 159.292969 144.566406 L 160.554688 144.566406 C 160.769531 144.566406 161.023438 144.546875 161.207031 144.5 C 161.6875 144.375 162.042969 144.007812 162.042969 143.433594 M 161.40625 143.367188 C 161.40625 143.894531 161.023438 144.097656 160.679688 144.097656 L 159.863281 144.097656 L 159.863281 142.660156 L 160.53125 142.660156 C 160.734375 142.660156 160.855469 142.671875 160.960938 142.695312 C 161.21875 142.753906 161.40625 143.03125 161.40625 143.367188 M 161.242188 141.550781 C 161.242188 141.6875 161.203125 141.84375 161.125 141.953125 C 161.003906 142.113281 160.878906 142.179688 160.511719 142.179688 L 159.855469 142.179688 L 159.855469 140.917969 L 160.421875 140.917969 C 160.632812 140.917969 160.746094 140.929688 160.84375 140.960938 C 161.082031 141.035156 161.242188 141.261719 161.242188 141.550781 M 165.921875 144.085938 L 164.351562 144.085938 L 164.351562 140.433594 L 163.761719 140.433594 L 163.761719 144.566406 L 165.828125 144.566406 Z M 170.523438 144.566406 L 169.191406 140.425781 L 168.472656 140.425781 L 167.113281 144.566406 L 167.714844 144.566406 L 168.074219 143.398438 L 169.507812 143.398438 L 169.875 144.566406 Z M 169.382812 142.917969 L 168.21875 142.917969 C 168.292969 142.71875 168.730469 141.238281 168.789062 141.003906 L 168.824219 141.003906 C 168.878906 141.242188 169.3125 142.726562 169.382812 142.917969 "/>
<path style=" stroke:none;fill-rule:nonzero;fill:rgb(100%,100%,100%);fill-opacity:1;" d="M 82.847656 136.167969 L 82.847656 132.035156 L 82.265625 132.035156 L 82.265625 133.730469 L 80.6875 133.730469 L 80.6875 132.035156 L 80.121094 132.035156 L 80.121094 136.167969 L 80.6875 136.167969 L 80.6875 134.203125 L 82.265625 134.203125 L 82.265625 136.167969 Z M 87.726562 136.167969 L 86.394531 132.027344 L 85.675781 132.027344 L 84.320312 136.167969 L 84.921875 136.167969 L 85.28125 134.996094 L 86.714844 134.996094 L 87.082031 136.167969 Z M 86.589844 134.519531 L 85.425781 134.519531 C 85.496094 134.320312 85.933594 132.839844 85.996094 132.605469 L 86.03125 132.605469 C 86.085938 132.84375 86.515625 134.324219 86.589844 134.519531 M 93.195312 136.167969 L 92.839844 132.035156 L 92.023438 132.035156 L 91.304688 134.601562 C 91.226562 134.878906 91.179688 135.148438 91.160156 135.25 L 91.148438 135.25 C 91.136719 135.160156 91.089844 134.90625 91 134.570312 L 90.300781 132.035156 L 89.492188 132.035156 L 89.121094 136.167969 L 89.683594 136.167969 L 89.894531 133.433594 C 89.914062 133.214844 89.929688 132.820312 89.9375 132.675781 L 89.949219 132.675781 C 89.976562 132.808594 90.042969 133.113281 90.132812 133.433594 L 90.890625 136.167969 L 91.386719 136.167969 L 92.210938 133.300781 C 92.277344 133.078125 92.335938 132.800781 92.359375 132.683594 L 92.371094 132.683594 C 92.378906 132.800781 92.382812 133.132812 92.402344 133.355469 L 92.617188 136.167969 Z M 97.703125 135.03125 C 97.703125 134.492188 97.402344 134.101562 96.78125 133.964844 C 97.285156 133.816406 97.53125 133.484375 97.53125 133.054688 C 97.53125 132.675781 97.339844 132.382812 96.972656 132.191406 C 96.714844 132.050781 96.527344 132.035156 95.832031 132.035156 L 94.957031 132.035156 L 94.957031 136.167969 L 96.214844 136.167969 C 96.433594 136.167969 96.683594 136.148438 96.871094 136.101562 C 97.351562 135.976562 97.703125 135.609375 97.703125 135.03125 M 97.070312 134.96875 C 97.070312 135.496094 96.683594 135.699219 96.34375 135.699219 L 95.527344 135.699219 L 95.527344 134.257812 L 96.191406 134.257812 C 96.394531 134.257812 96.515625 134.269531 96.625 134.296875 C 96.882812 134.355469 97.070312 134.632812 97.070312 134.96875 M 96.90625 133.148438 C 96.90625 133.285156 96.863281 133.445312 96.785156 133.550781 C 96.667969 133.714844 96.539062 133.78125 96.171875 133.78125 L 95.519531 133.78125 L 95.519531 132.519531 L 96.082031 132.519531 C 96.292969 132.519531 96.410156 132.53125 96.503906 132.5625 C 96.746094 132.632812 96.90625 132.859375 96.90625 133.148438 M 102.171875 134.871094 L 102.171875 132.035156 L 101.597656 132.035156 L 101.597656 134.789062 C 101.597656 135.117188 101.546875 135.339844 101.445312 135.472656 C 101.3125 135.644531 101.085938 135.742188 100.773438 135.742188 C 100.445312 135.742188 100.234375 135.640625 100.121094 135.507812 C 100 135.371094 99.96875 135.003906 99.96875 134.703125 L 99.96875 132.035156 L 99.386719 132.035156 L 99.386719 134.921875 C 99.386719 135.351562 99.414062 135.464844 99.519531 135.65625 C 99.730469 136.035156 100.144531 136.234375 100.769531 136.234375 C 101.40625 136.234375 101.746094 136.003906 101.957031 135.746094 C 102.140625 135.519531 102.171875 135.394531 102.171875 134.871094 M 106.765625 136.167969 L 106.164062 135.214844 C 106.027344 134.996094 105.902344 134.816406 105.816406 134.703125 C 105.691406 134.535156 105.636719 134.46875 105.457031 134.320312 L 105.503906 134.320312 C 106.164062 134.320312 106.558594 133.816406 106.558594 133.183594 C 106.558594 132.78125 106.378906 132.507812 106.195312 132.332031 C 105.996094 132.148438 105.710938 132.035156 105.214844 132.035156 L 104.058594 132.035156 L 104.058594 136.167969 L 104.632812 136.167969 L 104.632812 134.335938 C 104.808594 134.34375 104.898438 134.402344 105.007812 134.523438 C 105.300781 134.851562 105.402344 135.027344 105.722656 135.554688 C 105.890625 135.835938 105.945312 135.933594 106.0625 136.167969 Z M 105.957031 133.191406 C 105.957031 133.429688 105.878906 133.628906 105.75 133.75 C 105.605469 133.886719 105.402344 133.949219 105.035156 133.949219 L 104.632812 133.949219 L 104.632812 132.507812 L 105.066406 132.507812 C 105.28125 132.507812 105.453125 132.535156 105.570312 132.585938 C 105.800781 132.675781 105.957031 132.902344 105.957031 133.191406 M 111.09375 135.898438 L 111.09375 133.964844 L 109.667969 133.964844 L 109.761719 134.4375 L 110.523438 134.4375 L 110.523438 135.617188 C 110.355469 135.710938 110.144531 135.773438 109.914062 135.773438 C 109.558594 135.773438 109.203125 135.632812 109.023438 135.398438 C 108.832031 135.148438 108.730469 134.722656 108.730469 134.152344 C 108.730469 133.660156 108.765625 133.363281 108.957031 132.96875 C 109.136719 132.597656 109.449219 132.441406 109.847656 132.441406 C 110.164062 132.441406 110.421875 132.53125 110.726562 132.753906 L 111.003906 132.394531 C 110.679688 132.113281 110.285156 131.980469 109.835938 131.980469 C 109.425781 131.980469 109.097656 132.089844 108.796875 132.332031 C 108.324219 132.722656 108.082031 133.292969 108.082031 134.121094 C 108.082031 134.800781 108.230469 135.285156 108.5625 135.671875 C 108.878906 136.039062 109.320312 136.226562 109.871094 136.226562 C 110.308594 136.226562 110.757812 136.105469 111.09375 135.898438 M 115.617188 134.5 C 115.617188 134.246094 115.421875 134.054688 115.1875 134.054688 C 114.957031 134.054688 114.769531 134.246094 114.769531 134.5 C 114.769531 134.746094 114.957031 134.949219 115.1875 134.949219 C 115.421875 134.949219 115.617188 134.746094 115.617188 134.5 M 121.953125 133.234375 C 121.953125 132.796875 121.761719 132.445312 121.410156 132.226562 C 121.1875 132.089844 120.957031 132.035156 120.425781 132.035156 L 119.320312 132.035156 L 119.320312 136.167969 L 119.894531 136.167969 L 119.894531 134.546875 L 120.582031 134.546875 C 121.019531 134.546875 121.242188 134.457031 121.449219 134.296875 C 121.816406 134.015625 121.953125 133.703125 121.953125 133.234375 M 121.3125 133.300781 C 121.3125 133.535156 121.253906 133.703125 121.136719 133.847656 C 121.007812 134.015625 120.828125 134.078125 120.542969 134.078125 L 119.894531 134.078125 L 119.894531 132.507812 L 120.4375 132.507812 C 120.761719 132.507812 120.964844 132.574219 121.109375 132.710938 C 121.246094 132.84375 121.3125 133.035156 121.3125 133.300781 M 126.246094 136.167969 L 124.914062 132.027344 L 124.191406 132.027344 L 122.835938 136.167969 L 123.4375 136.167969 L 123.796875 134.996094 L 125.230469 134.996094 L 125.597656 136.167969 Z M 125.105469 134.519531 L 123.941406 134.519531 C 124.011719 134.320312 124.449219 132.839844 124.511719 132.605469 L 124.546875 132.605469 C 124.601562 132.84375 125.03125 134.324219 125.105469 134.519531 M 130.425781 136.167969 L 129.824219 135.214844 C 129.6875 134.996094 129.5625 134.816406 129.476562 134.703125 C 129.351562 134.535156 129.296875 134.46875 129.117188 134.320312 L 129.164062 134.320312 C 129.824219 134.320312 130.222656 133.816406 130.222656 133.183594 C 130.222656 132.78125 130.042969 132.507812 129.855469 132.332031 C 129.65625 132.148438 129.371094 132.035156 128.878906 132.035156 L 127.71875 132.035156 L 127.71875 136.167969 L 128.296875 136.167969 L 128.296875 134.335938 C 128.46875 134.34375 128.558594 134.402344 128.667969 134.523438 C 128.960938 134.851562 129.0625 135.027344 129.382812 135.554688 C 129.550781 135.835938 129.601562 135.933594 129.722656 136.167969 Z M 129.617188 133.191406 C 129.617188 133.429688 129.539062 133.628906 129.410156 133.75 C 129.265625 133.886719 129.0625 133.949219 128.699219 133.949219 L 128.296875 133.949219 L 128.296875 132.507812 L 128.726562 132.507812 C 128.945312 132.507812 129.113281 132.535156 129.230469 132.585938 C 129.460938 132.675781 129.617188 132.902344 129.617188 133.191406 M 132.550781 132.035156 L 131.964844 132.035156 L 131.964844 136.167969 L 132.550781 136.167969 Z M 137.085938 134.960938 C 137.085938 134.320312 136.628906 133.960938 136.078125 133.796875 L 135.589844 133.652344 C 135.144531 133.519531 134.976562 133.351562 134.976562 133.058594 C 134.976562 132.675781 135.265625 132.433594 135.726562 132.433594 C 136.070312 132.433594 136.328125 132.523438 136.710938 132.757812 L 136.96875 132.351562 C 136.605469 132.09375 136.160156 131.960938 135.703125 131.960938 C 134.886719 131.960938 134.335938 132.445312 134.335938 133.160156 C 134.335938 133.75 134.691406 134.050781 135.3125 134.230469 L 135.746094 134.355469 C 136.207031 134.488281 136.429688 134.722656 136.429688 135.058594 C 136.429688 135.503906 136.078125 135.777344 135.535156 135.777344 C 135.121094 135.777344 134.78125 135.65625 134.421875 135.4375 L 134.195312 135.878906 C 134.59375 136.125 135.050781 136.246094 135.523438 136.246094 C 136.609375 136.246094 137.085938 135.539062 137.085938 134.960938 M 141.425781 134.5 C 141.425781 134.246094 141.234375 134.054688 141 134.054688 C 140.765625 134.054688 140.578125 134.246094 140.578125 134.5 C 140.578125 134.746094 140.765625 134.949219 141 134.949219 C 141.234375 134.949219 141.425781 134.746094 141.425781 134.5 M 147.765625 133.234375 C 147.765625 132.796875 147.574219 132.445312 147.21875 132.226562 C 146.996094 132.089844 146.769531 132.035156 146.234375 132.035156 L 145.128906 132.035156 L 145.128906 136.167969 L 145.707031 136.167969 L 145.707031 134.546875 L 146.390625 134.546875 C 146.828125 134.546875 147.050781 134.457031 147.261719 134.296875 C 147.625 134.015625 147.765625 133.703125 147.765625 133.234375 M 147.121094 133.300781 C 147.121094 133.535156 147.0625 133.703125 146.949219 133.847656 C 146.816406 134.015625 146.636719 134.078125 146.355469 134.078125 L 145.707031 134.078125 L 145.707031 132.507812 L 146.246094 132.507812 C 146.570312 132.507812 146.773438 132.574219 146.917969 132.710938 C 147.054688 132.84375 147.121094 133.035156 147.121094 133.300781 M 152.007812 136.167969 L 151.410156 135.214844 C 151.269531 134.996094 151.144531 134.816406 151.058594 134.703125 C 150.933594 134.535156 150.878906 134.46875 150.699219 134.320312 L 150.75 134.320312 C 151.410156 134.320312 151.804688 133.816406 151.804688 133.183594 C 151.804688 132.78125 151.625 132.507812 151.4375 132.332031 C 151.242188 132.148438 150.953125 132.035156 150.460938 132.035156 L 149.300781 132.035156 L 149.300781 136.167969 L 149.878906 136.167969 L 149.878906 134.335938 C 150.050781 134.34375 150.140625 134.402344 150.25 134.523438 C 150.542969 134.851562 150.644531 135.027344 150.964844 135.554688 C 151.132812 135.835938 151.1875 135.933594 151.304688 136.167969 Z M 151.199219 133.191406 C 151.199219 133.429688 151.121094 133.628906 150.996094 133.75 C 150.851562 133.886719 150.644531 133.949219 150.28125 133.949219 L 149.878906 133.949219 L 149.878906 132.507812 L 150.308594 132.507812 C 150.527344 132.507812 150.695312 132.535156 150.8125 132.585938 C 151.042969 132.675781 151.199219 132.902344 151.199219 133.191406 M 156.671875 136.167969 L 155.339844 132.027344 L 154.621094 132.027344 L 153.265625 136.167969 L 153.867188 136.167969 L 154.226562 134.996094 L 155.660156 134.996094 L 156.027344 136.167969 Z M 155.535156 134.519531 L 154.371094 134.519531 C 154.441406 134.320312 154.878906 132.839844 154.9375 132.605469 L 154.976562 132.605469 C 155.03125 132.84375 155.460938 134.324219 155.535156 134.519531 M 160.855469 135.898438 L 160.855469 133.964844 L 159.429688 133.964844 L 159.523438 134.4375 L 160.285156 134.4375 L 160.285156 135.617188 C 160.117188 135.710938 159.910156 135.773438 159.675781 135.773438 C 159.320312 135.773438 158.964844 135.632812 158.785156 135.398438 C 158.59375 135.148438 158.492188 134.722656 158.492188 134.152344 C 158.492188 133.660156 158.527344 133.363281 158.71875 132.96875 C 158.898438 132.597656 159.210938 132.441406 159.609375 132.441406 C 159.925781 132.441406 160.183594 132.53125 160.492188 132.753906 L 160.765625 132.394531 C 160.441406 132.113281 160.046875 131.980469 159.597656 131.980469 C 159.1875 131.980469 158.855469 132.089844 158.558594 132.332031 C 158.085938 132.722656 157.84375 133.292969 157.84375 134.121094 C 157.84375 134.800781 157.996094 135.285156 158.324219 135.671875 C 158.640625 136.039062 159.082031 136.226562 159.632812 136.226562 C 160.070312 136.226562 160.519531 136.105469 160.855469 135.898438 "/>
<path style=" stroke:none;fill-rule:nonzero;fill:rgb(100%,100%,100%);fill-opacity:1;" d="M 75.792969 126.472656 L 75.792969 123.632812 L 75.21875 123.632812 L 75.21875 126.386719 C 75.21875 126.71875 75.167969 126.941406 75.066406 127.070312 C 74.933594 127.246094 74.707031 127.34375 74.394531 127.34375 C 74.0625 127.34375 73.855469 127.238281 73.738281 127.109375 C 73.621094 126.96875 73.589844 126.605469 73.589844 126.304688 L 73.589844 123.632812 L 73.007812 123.632812 L 73.007812 126.519531 C 73.007812 126.953125 73.03125 127.066406 73.140625 127.257812 C 73.351562 127.636719 73.765625 127.832031 74.386719 127.832031 C 75.023438 127.832031 75.367188 127.605469 75.574219 127.347656 C 75.761719 127.121094 75.792969 126.992188 75.792969 126.472656 M 79.839844 127.289062 L 78.265625 127.289062 L 78.265625 123.632812 L 77.679688 123.632812 L 77.679688 127.765625 L 79.742188 127.765625 Z M 85.324219 127.765625 L 84.96875 123.632812 L 84.152344 123.632812 L 83.433594 126.203125 C 83.355469 126.476562 83.308594 126.746094 83.289062 126.847656 L 83.277344 126.847656 C 83.265625 126.757812 83.21875 126.507812 83.125 126.171875 L 82.429688 123.632812 L 81.621094 123.632812 L 81.25 127.765625 L 81.8125 127.765625 L 82.023438 125.03125 C 82.039062 124.816406 82.058594 124.417969 82.066406 124.277344 L 82.078125 124.277344 C 82.105469 124.40625 82.171875 124.714844 82.261719 125.03125 L 83.019531 127.765625 L 83.515625 127.765625 L 84.339844 124.898438 C 84.40625 124.679688 84.464844 124.402344 84.488281 124.28125 L 84.5 124.28125 C 84.507812 124.402344 84.511719 124.730469 84.53125 124.953125 L 84.746094 127.765625 Z M 89.722656 126.101562 C 89.722656 125.847656 89.53125 125.65625 89.296875 125.65625 C 89.0625 125.65625 88.878906 125.847656 88.878906 126.101562 C 88.878906 126.34375 89.0625 126.546875 89.296875 126.546875 C 89.53125 126.546875 89.722656 126.34375 89.722656 126.101562 M 96.109375 126.5625 C 96.109375 125.917969 95.652344 125.558594 95.101562 125.398438 L 94.617188 125.253906 C 94.171875 125.121094 94.003906 124.953125 94.003906 124.660156 C 94.003906 124.273438 94.292969 124.035156 94.753906 124.035156 C 95.097656 124.035156 95.355469 124.125 95.738281 124.359375 L 95.996094 123.949219 C 95.632812 123.695312 95.1875 123.5625 94.730469 123.5625 C 93.914062 123.5625 93.363281 124.046875 93.363281 124.761719 C 93.363281 125.351562 93.714844 125.648438 94.339844 125.828125 L 94.773438 125.957031 C 95.234375 126.085938 95.457031 126.320312 95.457031 126.65625 C 95.457031 127.101562 95.101562 127.378906 94.5625 127.378906 C 94.148438 127.378906 93.804688 127.257812 93.445312 127.035156 L 93.21875 127.480469 C 93.621094 127.726562 94.074219 127.84375 94.550781 127.84375 C 95.636719 127.84375 96.109375 127.136719 96.109375 126.5625 M 100.257812 123.632812 L 97.480469 123.632812 L 97.480469 124.113281 L 98.554688 124.113281 L 98.554688 127.765625 L 99.125 127.765625 L 99.125 124.113281 L 100.199219 124.113281 Z M 104.433594 126.472656 L 104.433594 123.632812 L 103.859375 123.632812 L 103.859375 126.386719 C 103.859375 126.71875 103.808594 126.941406 103.707031 127.070312 C 103.574219 127.246094 103.347656 127.34375 103.035156 127.34375 C 102.703125 127.34375 102.496094 127.238281 102.382812 127.109375 C 102.261719 126.96875 102.230469 126.605469 102.230469 126.304688 L 102.230469 123.632812 L 101.648438 123.632812 L 101.648438 126.519531 C 101.648438 126.953125 101.675781 127.066406 101.78125 127.257812 C 101.992188 127.636719 102.40625 127.832031 103.027344 127.832031 C 103.664062 127.832031 104.007812 127.605469 104.21875 127.347656 C 104.402344 127.121094 104.433594 126.992188 104.433594 126.472656 M 108.730469 123.632812 L 105.953125 123.632812 L 105.953125 124.113281 L 107.027344 124.113281 L 107.027344 127.765625 L 107.597656 127.765625 L 107.597656 124.113281 L 108.671875 124.113281 Z M 112.703125 123.632812 L 109.925781 123.632812 L 109.925781 124.113281 L 111 124.113281 L 111 127.765625 L 111.566406 127.765625 L 111.566406 124.113281 L 112.640625 124.113281 Z M 116.792969 127.496094 L 116.792969 125.566406 L 115.363281 125.566406 L 115.460938 126.039062 L 116.222656 126.039062 L 116.222656 127.214844 C 116.054688 127.3125 115.84375 127.371094 115.609375 127.371094 C 115.257812 127.371094 114.902344 127.234375 114.722656 127 C 114.53125 126.746094 114.429688 126.320312 114.429688 125.75 C 114.429688 125.261719 114.464844 124.964844 114.65625 124.570312 C 114.835938 124.195312 115.148438 124.039062 115.542969 124.039062 C 115.863281 124.039062 116.121094 124.128906 116.425781 124.351562 L 116.703125 123.992188 C 116.378906 123.710938 115.980469 123.578125 115.53125 123.578125 C 115.125 123.578125 114.792969 123.6875 114.492188 123.933594 C 114.019531 124.324219 113.78125 124.894531 113.78125 125.722656 C 113.78125 126.398438 113.929688 126.886719 114.261719 127.269531 C 114.578125 127.640625 115.015625 127.828125 115.566406 127.828125 C 116.007812 127.828125 116.457031 127.707031 116.792969 127.496094 M 121.632812 127.765625 L 120.300781 123.628906 L 119.578125 123.628906 L 118.222656 127.765625 L 118.824219 127.765625 L 119.183594 126.597656 L 120.617188 126.597656 L 120.984375 127.765625 Z M 120.492188 126.117188 L 119.328125 126.117188 C 119.398438 125.917969 119.835938 124.4375 119.898438 124.203125 L 119.933594 124.203125 C 119.988281 124.445312 120.417969 125.925781 120.492188 126.117188 M 125.8125 127.765625 L 125.210938 126.8125 C 125.074219 126.597656 124.949219 126.417969 124.863281 126.304688 C 124.738281 126.136719 124.683594 126.070312 124.503906 125.917969 L 124.550781 125.917969 C 125.210938 125.917969 125.609375 125.414062 125.609375 124.785156 C 125.609375 124.382812 125.429688 124.105469 125.242188 123.933594 C 125.042969 123.746094 124.757812 123.632812 124.265625 123.632812 L 123.105469 123.632812 L 123.105469 127.765625 L 123.683594 127.765625 L 123.683594 125.9375 C 123.855469 125.941406 123.945312 126.003906 124.054688 126.121094 C 124.347656 126.453125 124.449219 126.625 124.769531 127.15625 C 124.9375 127.4375 124.988281 127.53125 125.109375 127.765625 Z M 125 124.792969 C 125 125.03125 124.925781 125.230469 124.796875 125.351562 C 124.652344 125.488281 124.449219 125.546875 124.082031 125.546875 L 123.683594 125.546875 L 123.683594 124.105469 L 124.113281 124.105469 C 124.328125 124.105469 124.496094 124.136719 124.617188 124.183594 C 124.847656 124.273438 125 124.503906 125 124.792969 M 129.75 123.632812 L 126.972656 123.632812 L 126.972656 124.113281 L 128.046875 124.113281 L 128.046875 127.765625 L 128.617188 127.765625 L 128.617188 124.113281 L 129.691406 124.113281 Z M 133.671875 126.101562 C 133.671875 125.847656 133.480469 125.65625 133.246094 125.65625 C 133.011719 125.65625 132.828125 125.847656 132.828125 126.101562 C 132.828125 126.34375 133.011719 126.546875 133.246094 126.546875 C 133.480469 126.546875 133.671875 126.34375 133.671875 126.101562 M 141.300781 127.765625 L 140.945312 123.632812 L 140.132812 123.632812 L 139.410156 126.203125 C 139.332031 126.476562 139.285156 126.746094 139.265625 126.847656 L 139.253906 126.847656 C 139.242188 126.757812 139.195312 126.507812 139.105469 126.171875 L 138.410156 123.632812 L 137.597656 123.632812 L 137.226562 127.765625 L 137.789062 127.765625 L 138 125.03125 C 138.019531 124.816406 138.035156 124.417969 138.042969 124.277344 L 138.054688 124.277344 C 138.085938 124.40625 138.152344 124.714844 138.242188 125.03125 L 138.996094 127.765625 L 139.496094 127.765625 L 140.316406 124.898438 C 140.382812 124.679688 140.441406 124.402344 140.46875 124.28125 L 140.480469 124.28125 C 140.484375 124.402344 140.492188 124.730469 140.507812 124.953125 L 140.726562 127.765625 Z M 145.8125 126.472656 L 145.8125 123.632812 L 145.234375 123.632812 L 145.234375 126.386719 C 145.234375 126.71875 145.1875 126.941406 145.085938 127.070312 C 144.953125 127.246094 144.726562 127.34375 144.414062 127.34375 C 144.082031 127.34375 143.875 127.238281 143.761719 127.109375 C 143.640625 126.96875 143.609375 126.605469 143.609375 126.304688 L 143.609375 123.632812 L 143.027344 123.632812 L 143.027344 126.519531 C 143.027344 126.953125 143.050781 127.066406 143.160156 127.257812 C 143.371094 127.636719 143.785156 127.832031 144.40625 127.832031 C 145.042969 127.832031 145.386719 127.605469 145.597656 127.347656 C 145.78125 127.121094 145.8125 126.992188 145.8125 126.472656 M 144.144531 123.046875 C 144.144531 122.84375 143.980469 122.671875 143.789062 122.671875 C 143.597656 122.671875 143.441406 122.84375 143.441406 123.046875 C 143.441406 123.25 143.597656 123.421875 143.789062 123.421875 C 143.988281 123.421875 144.144531 123.25 144.144531 123.046875 M 145.398438 123.046875 C 145.398438 122.84375 145.234375 122.671875 145.042969 122.671875 C 144.851562 122.671875 144.695312 122.84375 144.695312 123.046875 C 144.695312 123.25 144.851562 123.421875 145.042969 123.421875 C 145.242188 123.421875 145.398438 123.25 145.398438 123.046875 M 150.453125 127.765625 L 150.453125 123.632812 L 149.894531 123.632812 L 149.90625 125.660156 C 149.90625 126.117188 149.953125 126.769531 149.96875 126.890625 L 149.929688 126.902344 C 149.902344 126.789062 149.695312 126.253906 149.523438 125.914062 L 148.371094 123.632812 L 147.699219 123.632812 L 147.699219 127.765625 L 148.28125 127.765625 L 148.257812 125.597656 C 148.25 125.210938 148.238281 124.796875 148.207031 124.445312 L 148.246094 124.4375 C 148.324219 124.679688 148.539062 125.144531 148.75 125.570312 L 149.835938 127.765625 Z M 155.023438 127.484375 L 154.742188 127.109375 C 154.519531 127.28125 154.296875 127.367188 153.980469 127.367188 C 153.542969 127.367188 153.15625 127.148438 152.964844 126.695312 C 152.863281 126.453125 152.816406 126.183594 152.816406 125.722656 C 152.816406 125.222656 152.882812 124.875 153.015625 124.609375 C 153.207031 124.226562 153.523438 124.015625 153.933594 124.015625 C 154.207031 124.015625 154.4375 124.089844 154.664062 124.257812 L 154.945312 123.878906 C 154.6875 123.667969 154.320312 123.554688 153.933594 123.554688 C 153.296875 123.554688 152.75 123.914062 152.445312 124.503906 C 152.269531 124.839844 152.175781 125.253906 152.175781 125.734375 C 152.175781 126.332031 152.328125 126.832031 152.625 127.210938 C 152.9375 127.605469 153.367188 127.828125 153.90625 127.828125 C 154.328125 127.828125 154.707031 127.710938 155.023438 127.484375 M 159.359375 127.765625 L 159.359375 123.632812 L 158.777344 123.632812 L 158.777344 125.332031 L 157.199219 125.332031 L 157.199219 123.632812 L 156.628906 123.632812 L 156.628906 127.765625 L 157.199219 127.765625 L 157.199219 125.804688 L 158.777344 125.804688 L 158.777344 127.765625 Z M 163.582031 127.765625 L 163.582031 127.269531 L 161.855469 127.269531 L 161.855469 125.851562 L 163.179688 125.851562 L 163.179688 125.367188 L 161.855469 125.367188 L 161.855469 124.105469 L 163.4375 124.105469 L 163.515625 123.632812 L 161.265625 123.632812 L 161.265625 127.765625 Z M 167.90625 127.765625 L 167.90625 123.632812 L 167.347656 123.632812 L 167.359375 125.660156 C 167.359375 126.117188 167.410156 126.769531 167.421875 126.890625 L 167.386719 126.902344 C 167.355469 126.789062 167.152344 126.253906 166.976562 125.914062 L 165.824219 123.632812 L 165.152344 123.632812 L 165.152344 127.765625 L 165.734375 127.765625 L 165.710938 125.597656 C 165.703125 125.210938 165.691406 124.796875 165.660156 124.445312 L 165.699219 124.4375 C 165.777344 124.679688 165.992188 125.144531 166.203125 125.570312 L 167.289062 127.765625 Z M 167.90625 127.765625 "/>
</g>
</g>
</svg>
