<?xml version="1.0" encoding="UTF-8" standalone="no"?>
<!DOCTYPE svg PUBLIC "-//W3C//DTD SVG 1.1//EN" "http://www.w3.org/Graphics/SVG/1.1/DTD/svg11.dtd">
<svg xmlns="http://www.w3.org/2000/svg" xmlns:xlink="http://www.w3.org/1999/xlink" version="1.1" width="193.89px" height="303.307px" viewBox="0 0 156.218 240.8719">
<g enable-background="new">
<symbol id="font_0_5b">
<path d="M .048000006 .15100001 C .06933334 .13033335 .09566667 .114 .127 .102 C .15900001 .09 .194 .084000017 .232 .08400001 C .276 .084000017 .30933336 .09366667 .33200003 .113000009 C .35533334 .13233334 .367 .15866667 .367 .192 C .367 .21733333 .35966669 .23799999 .345 .254 C .33033336 .27 .30833338 .2836667 .279 .29500003 L .16 .34000004 C .11466667 .35733334 .08033334 .38000003 .057 .40800003 C .033666668 .43600003 .022 .47200004 .022 .51600006 C .022 .5493334 .030333335 .5796667 .047000003 .60700008 C .063666667 .6343334 .088 .6560001 .120000008 .67200008 C .15266668 .688 .19199999 .69600006 .238 .69600006 C .28133334 .69600006 .32133333 .68966677 .358 .67700007 C .39533333 .665 .42733336 .6476667 .45400004 .62500008 L .41300003 .554 C .39033333 .5726667 .36333335 .5873334 .33200003 .59800007 C .30133335 .6086667 .27 .614 .238 .614 C .19666668 .614 .16533333 .6056667 .14400001 .58900007 C .123333338 .57233336 .113000009 .55 .113000009 .522 C .113000009 .49733339 .120000008 .4773334 .134 .46200005 C .148 .44666673 .171 .43300007 .20300001 .42100004 L .316 .37700004 C .36533336 .35833336 .40133334 .3346667 .42400003 .30600003 C .44733335 .27733336 .45900003 .24066668 .45900003 .19600001 C .45900003 .136 .43866668 .08833334 .398 .053000004 C .35733334 .017666668 .303 0 .23500002 0 C .18566668 0 .14066667 .0066666665 .099999997 .02 C .060000004 .033999999 .02666667 .05333334 0 .07800001 L .048000006 .15100001 Z "/>
</symbol>
<symbol id="font_0_9c">
<path d="M .444 .261 C .444 .24633335 .44333337 .23500002 .442 .22700002 L .087000008 .22700002 C .08833334 .18433334 .10200002 .14866667 .12800002 .120000008 C .15466668 .09200001 .193 .07800001 .243 .07800001 C .27233336 .07800001 .29999999 .083333339 .326 .094 C .352 .10466667 .37399999 .11833334 .39200003 .135 L .43400003 .073 C .41133333 .051 .38333337 .03333333 .35000003 .02 C .3166667 .0066666665 .28066669 0 .24200002 0 C .164 0 .104 .023000002 .062000008 .069000009 C .020666669 .115 0 .17666666 0 .254 C 0 .30200003 .009333335 .34500004 .028000005 .38300003 C .04666667 .4216667 .07300001 .4516667 .107 .47300003 C .14100002 .49500004 .18033333 .50600007 .225 .50600007 C .26900003 .50600007 .3076667 .4956667 .34100003 .47500003 C .37433336 .4543334 .39966668 .42533339 .41700004 .38800005 C .43500004 .35133339 .444 .30900003 .444 .261 M .224 .43200005 C .18266666 .43200005 .15033333 .4186667 .127 .39200003 C .10433334 .36533336 .091 .3326667 .087000008 .29400004 L .36 .29400004 C .35600005 .33600006 .34233333 .36933337 .319 .39400003 C .29566667 .41933338 .26400004 .43200005 .224 .43200005 Z "/>
</symbol>
<symbol id="font_0_dd">
<path d="M .22900002 .49300004 C .24433334 .49300004 .25933335 .49133338 .274 .48800005 L .267 .40500004 C .25233335 .409 .23766668 .411 .223 .411 C .18900001 .411 .16100002 .39900003 .13900002 .37500004 C .117000009 .3516667 .106000009 .321 .106000009 .28300003 L .106000009 0 L .02 0 L .02 .28100003 L 0 .48000003 L .07900001 .48000003 L .08700001 .39000003 L .089 .39000003 C .09766668 .4206667 .114333357 .44533337 .13900002 .46400003 C .16433335 .48333336 .19433336 .49300004 .22900002 .49300004 Z "/>
</symbol>
<symbol id="font_0_f8">
<path d="M .24200003 .089 L .391 .48000003 L .481 .48000003 L .291 0 L .19100002 0 L 0 .48000003 L .095 .48000003 L .23800002 .089 L .24200003 .089 Z "/>
</symbol>
<symbol id="font_0_b0">
<path d="M .060000007 .574 C .043333338 .574 .029 .5796667 .017 .591 C .005666667 .603 0 .61733338 0 .634 C 0 .6506667 .005666667 .6646667 .017 .67600008 C .028333337 .68733337 .042666675 .693 .060000007 .693 C .07733334 .693 .091666679 .68733337 .103000018 .67600008 C .11433334 .6646667 .120000008 .6506667 .120000008 .634 C .120000008 .61733338 .11433334 .603 .103000018 .591 C .091666679 .5796667 .07733334 .574 .060000007 .574 M .103000018 0 L .017 0 L .017 .48000003 L .103000018 .48000003 L .103000018 0 Z "/>
</symbol>
<symbol id="font_0_92">
<path d="M .374 .37700004 C .34066669 .41166673 .29933334 .42900003 .25 .42900003 C .19800002 .42900003 .158 .41266669 .13 .38000003 C .102 .34733335 .08800001 .30533336 .08800001 .254 C .08800001 .202 .10166667 .15966667 .12900001 .127 C .15633334 .095 .19533335 .078999999 .24599999 .078999999 C .30266667 .078999999 .34666667 .096666667 .37800003 .132 L .42400003 .07000001 C .38066665 .023333336 .32066668 0 .24400002 0 C .194 0 .15066667 .0106666679 .114 .032 C .07733333 .054 .049 .08433334 .029 .12300001 C .009666666 .16166668 0 .20533335 0 .254 C 0 .3026667 .010000001 .34600006 .030000002 .38400004 C .05066667 .42200006 .079666677 .4516667 .117000009 .47300003 C .15433334 .49500004 .19766669 .50600007 .24700001 .50600007 C .31766669 .50600007 .375 .4826667 .419 .43600003 L .374 .37700004 Z "/>
</symbol>
<use xlink:href="#font_0_5b" transform="matrix(10,0,0,-10,19.5575,27.603693)" fill="#f36f21"/>
<use xlink:href="#font_0_9c" transform="matrix(10,0,0,-10,24.987505,27.603693)" fill="#f36f21"/>
<use xlink:href="#font_0_dd" transform="matrix(10,0,0,-10,30.407507,27.473694)" fill="#f36f21"/>
<use xlink:href="#font_0_f8" transform="matrix(10,0,0,-10,33.437505,27.473694)" fill="#f36f21"/>
<use xlink:href="#font_0_b0" transform="matrix(10,0,0,-10,38.957506,27.473694)" fill="#f36f21"/>
<use xlink:href="#font_0_92" transform="matrix(10,0,0,-10,41.147504,27.603693)" fill="#f36f21"/>
<use xlink:href="#font_0_9c" transform="matrix(10,0,0,-10,45.947507,27.603693)" fill="#f36f21"/>
<symbol id="font_0_105">
<path d="M 0 0 L 0 .071 L .24800003 .4 L .24800003 .40300004 L .012000002 .40300004 L .012000002 .48000003 L .36 .48000003 L .36 .411 L .11600001 .082 L .11600001 .079 L .36800004 .079 L .36800004 0 L 0 0 Z "/>
</symbol>
<symbol id="font_0_e8">
<path d="M .328 .41400004 L .167 .41400004 L .167 .158 C .167 .13266666 .17333333 .113000009 .18600002 .09900001 C .19866669 .085 .21733336 .078 .24200002 .078 C .26333336 .078 .2846667 .083333339 .30600003 .094000007 L .328 .022000002 C .2986667 .007333334 .26633335 0 .231 0 C .18433334 0 .14766668 .012666668 .121 .038000004 C .09433333 .06333334 .081 .099333349 .081 .14600002 L .081 .41400004 L 0 .41400004 L 0 .49100004 L .081 .49100004 L .081 .629 L .167 .629 L .167 .49100004 L .328 .49100004 L .328 .41400004 Z "/>
</symbol>
<symbol id="font_0_c7">
<path d="M .24800003 .49300004 C .30200003 .49300004 .34533335 .47600005 .37800003 .44200004 C .4106667 .40800003 .42700003 .36366669 .42700003 .30900003 L .42700003 0 L .34100003 0 L .34100003 .30100004 C .341 .33433334 .33 .36133338 .30800004 .38200004 C .286 .40333335 .25766669 .41400004 .22300002 .41400004 C .18966668 .41400004 .16166668 .40300004 .13900002 .381 C .117000009 .35966669 .106000009 .33300004 .106000009 .30100004 L .106000009 0 L .020000004 0 L .020000004 .28100003 L 0 .48000003 L .07700001 .48000003 L .08500001 .39900003 L .087 .39900003 C .10100001 .42966668 .12166667 .45300005 .149 .469 C .177 .485 .21000003 .49300004 .24800003 .49300004 Z "/>
</symbol>
<use xlink:href="#font_0_105" transform="matrix(10,0,0,-10,51.1175,27.473694)" fill="#0066b3"/>
<use xlink:href="#font_0_9c" transform="matrix(10,0,0,-10,55.507505,27.603693)" fill="#0066b3"/>
<use xlink:href="#font_0_b0" transform="matrix(10,0,0,-10,60.917505,27.473694)" fill="#0066b3"/>
<use xlink:href="#font_0_e8" transform="matrix(10,0,0,-10,62.8875,27.583695)" fill="#0066b3"/>
<use xlink:href="#font_0_9c" transform="matrix(10,0,0,-10,66.68751,27.603693)" fill="#0066b3"/>
<use xlink:href="#font_0_c7" transform="matrix(10,0,0,-10,72.1175,27.473694)" fill="#0066b3"/>
<symbol id="font_0_41">
<path d="M .62200006 .67 L .65900006 0 L .56900009 0 L .545 .531 L .54200008 .531 L .371 .083000008 L .287 .083000008 L .119 .53000006 L .11500001 .53000006 L .091000009 0 L 0 0 L .038000004 .67 L .15300001 .67 L .329 .20400001 L .33200003 .20400001 L .51000007 .67 L .62200006 .67 Z "/>
</symbol>
<symbol id="font_0_ce">
<path d="M 0 .254 C 0 .3026667 .009666666 .34600006 .029 .38400004 C .048333337 .42200006 .076000008 .4516667 .11200001 .47300003 C .14800002 .49500004 .19000001 .50600007 .238 .50600007 C .286 .50600007 .32766668 .49500004 .363 .47300003 C .39900003 .4516667 .4266667 .42200006 .446 .38400004 C .46533335 .34600006 .47500003 .3026667 .47500003 .254 C .47500003 .20600002 .46500004 .16266668 .44500003 .12400001 C .4256667 .08533334 .398 .054999997 .36200003 .033 C .32666669 .011 .28533338 0 .238 0 C .19000001 0 .14800002 .0106666679 .11200001 .032 C .076000008 .054 .048333337 .08433334 .029 .12300001 C .009666666 .16166668 0 .20533335 0 .254 M .38700003 .254 C .387 .30533336 .37400005 .34733335 .34800003 .38000003 C .32266668 .41266669 .286 .42900003 .238 .42900003 C .19000001 .42900003 .15300001 .41266669 .127 .38000003 C .10100001 .34800003 .08800001 .30600003 .08800001 .254 C .08800001 .202 .10100001 .15966667 .127 .127 C .15300001 .095 .19000001 .078999999 .238 .078999999 C .286 .078999999 .32266668 .09533334 .34800003 .128 C .37400005 .16066666 .387 .20266669 .38700003 .254 Z "/>
</symbol>
<symbol id="font_0_11c">
<path d="M .236 .69600006 C .284 .69600006 .327 .684 .365 .66 C .40300004 .636 .4326667 .6003334 .45400004 .55300006 C .47600005 .5056667 .48700009 .44833336 .48700006 .38100005 C .48700009 .2616667 .4586667 .16833334 .402 .10100001 C .34600006 .03366667 .26533333 0 .16 0 C .10666666 0 .062333336 .0066666665 .027000003 .02 L .044000005 .106000009 C .06266666 .09866667 .08066667 .093333337 .098000008 .09 C .116 .08666667 .13666667 .08500001 .16 .08500001 C .23066668 .08500001 .28666667 .10633334 .328 .149 C .37 .19166667 .39266668 .25100003 .39600004 .32700003 C .37399999 .3076667 .34766666 .2926667 .317 .28200004 C .28700004 .27133338 .25433336 .26600004 .21900001 .26600004 C .17566668 .26600004 .13733334 .2746667 .104 .29200004 C .07133334 .31000004 .04566667 .3346667 .027000003 .36600004 C .009000001 .39800004 0 .43466673 0 .47600005 C 0 .51933339 .010000001 .5576667 .030000002 .591 C .05 .6243334 .07800001 .65000006 .11400001 .66800007 C .14999999 .6866667 .19066668 .69600006 .236 .69600006 M .092999998 .47600005 C .092999998 .43600003 .10566666 .40400005 .131 .38000003 C .157 .35600005 .19033332 .344 .231 .34400005 C .26433335 .344 .29400004 .34900008 .32000003 .35900004 C .3466667 .3696667 .372 .3856667 .39600004 .40700004 C .39400003 .4736667 .37866668 .52433338 .35000003 .559 C .322 .59433338 .28266666 .61200007 .232 .61200007 C .19066668 .61200007 .157 .5996667 .131 .57500007 C .10566666 .55100008 .092999998 .51800009 .092999998 .47600005 Z "/>
</symbol>
<symbol id="font_0_1">
<path d="M -2147483500 -2147483500 Z "/>
</symbol>
<symbol id="font_0_169">
<path d="M .34600003 0 L 0 0 L 0 .086000028 L .34600003 .086000028 L .34600003 0 Z "/>
</symbol>
<symbol id="font_0_114">
<path d="M .29800005 .67 L .29800005 .08400001 L .46200005 .08400001 L .46200005 0 L .011 0 L .011 .08400001 L .20700002 .08400001 L .20700002 .569 L .029000007 .503 L 0 .578 L .22900003 .67 L .29800005 .67 Z "/>
</symbol>
<symbol id="font_0_115">
<path d="M .25700004 .312 C .29100005 .3446667 .3156667 .37333337 .33100004 .39800004 C .34700004 .4226667 .35500003 .4506667 .35500003 .48200003 C .35500003 .5186667 .344 .5473333 .32200004 .568 C .30000005 .5886667 .27 .59900006 .23200001 .59900006 C .19133334 .59900006 .158 .586 .132 .56 C .10666666 .534 .08933333 .5026667 .08 .46600003 L 0 .497 C .013333333 .5503333 .040666667 .5946667 .082 .63000008 C .123333338 .66533336 .17466669 .683 .23600002 .683 C .27600003 .683 .31200005 .675 .34400005 .65900006 C .37600003 .6436667 .40100003 .62133339 .41900004 .592 C .43766669 .5626667 .44700004 .52800008 .44700004 .48800005 C .44700004 .44666673 .43800006 .4096667 .42000003 .377 C .40200005 .34500004 .37433339 .31133337 .337 .27600003 L .143 .087000008 L .143 .08400001 L .45600004 .08400001 L .45600004 0 L .008000001 0 L .008000001 .069000009 L .25700004 .312 Z "/>
</symbol>
<symbol id="font_0_68">
<path d="M .526 .27500005 C .526 .22033334 .51533338 .17233335 .49400003 .13100001 C .47266666 .08966667 .442 .05733334 .402 .034 C .3626667 .011333334 .31633333 0 .263 0 C .20966669 0 .163 .011333334 .122999999 .034 C .08366666 .05733334 .05333333 .08966667 .031999999 .13100001 C .010666666 .17233335 0 .22033334 0 .27500005 L 0 .683 L .091000009 .683 L .091000009 .27500005 C .091 .21766669 .10666666 .17166668 .138 .13700001 C .17 .102333348 .21166666 .08500001 .263 .08500001 C .31566669 .08500001 .35733334 .102333348 .388 .13700001 C .41933335 .17166668 .43500004 .21766669 .435 .27500005 L .435 .683 L .526 .683 L .526 .27500005 Z "/>
</symbol>
<symbol id="font_0_ad">
<path d="M .23100002 .49300004 C .28300003 .49300004 .32500003 .47600005 .357 .44200004 C .38966669 .40800003 .40600003 .364 .40600003 .31 L .40600003 0 L .32 0 L .32 .30100004 C .32 .33433334 .309 .36133338 .287 .38200004 C .26566667 .40333335 .23766667 .41400004 .20300003 .41400004 C .1696667 .41400004 .14166667 .40300004 .119 .381 C .097 .35966669 .086 .33300004 .08600001 .30100004 L .08600001 0 L 0 0 L 0 .698 L .08600001 .698 L .08600001 .41900004 L .089 .41900004 C .09966668 .43900005 .11733333 .45633338 .142 .47100003 C .16733335 .48566667 .19700003 .49300004 .23100002 .49300004 Z "/>
</symbol>
<symbol id="font_0_ed">
<path d="M .42000003 .013 L .343 .013 L .33500005 .094 L .333 .094 C .31900005 .06333333 .29833339 .040000004 .27100004 .024 C .24433334 .008 .21233337 0 .17500001 0 C .123 0 .08066667 .017 .048 .051000004 C .016 .085 0 .129 0 .183 L 0 .49300004 L .08600001 .49300004 L .08600001 .191 C .086 .15833335 .09633335 .13133334 .117 .11 C .13833334 .08933333 .16600001 .078999999 .2 .078999999 C .23266667 .078999999 .25966669 .089666668 .28100003 .111 C .303 .13233334 .314 .159 .314 .191 L .314 .49300004 L .40000005 .49300004 L .40000005 .213 L .42000003 .013 Z "/>
</symbol>
<symbol id="font_0_98">
<path d="M .487 .013 L .411 .013 L .402 .109 L .39900003 .109 C .38500003 .074999999 .363 .048333337 .333 .029000001 C .30366669 .009666667 .267 0 .22299999 0 C .177 0 .13700001 .010333334 .10300001 .031000002 C .069666679 .052333338 .044 .08166667 .026 .119 C .008666667 .15633333 0 .19933333 0 .24800001 C 0 .2966667 .009666666 .34066669 .029 .38000003 C .048333337 .41933338 .076000008 .45000006 .11200001 .47200004 C .14800002 .4946667 .18966668 .50600007 .23700002 .50600007 C .29633335 .50600007 .3446667 .49033336 .382 .45900003 L .382 .711 L .468 .711 L .468 .223 L .487 .013 M .24200002 .078999999 C .28133334 .078999999 .31433336 .092 .34100003 .118 C .36833335 .14466667 .382 .17800002 .382 .21800001 L .382 .36800004 C .36733333 .38733337 .34833337 .40233336 .32500003 .41300003 C .3016667 .42433337 .2746667 .43000005 .24400002 .43000005 C .194 .43000005 .15533334 .41300003 .12800002 .37900005 C .10133334 .34566669 .08800001 .3026667 .08800001 .25000004 C .08800001 .19866669 .10133334 .15733333 .12800002 .126 C .15466668 .09466666 .1926667 .078999999 .24200002 .078999999 Z "/>
</symbol>
<symbol id="font_0_117">
<path d="M .40600003 .26000003 L .499 .26000003 L .499 .178 L .40600003 .178 L .40600003 0 L .31599999 0 L .31599999 .178 L 0 .178 L 0 .24100001 L .086 .67 L .17400001 .67 L .094 .26000003 L .31599999 .26000003 L .31599999 .54200008 L .40600003 .54200008 L .40600003 .26000003 Z "/>
</symbol>
<symbol id="font_0_11a">
<path d="M 0 .67 L .47800005 .67 L .47800005 .595 L .16600001 0 L .063 0 L .37700004 .588 L 0 .588 L 0 .67 Z "/>
</symbol>
<symbol id="font_0_15">
<path d="M .55100008 .33600004 C .55100008 .26933337 .53766676 .21066667 .51100006 .16000001 C .48433338 .10933334 .446 .07 .39600004 .042000005 C .3466667 .014000001 .28833337 0 .221 0 L 0 0 L 0 .67 L .221 .67 C .289 .67 .34766666 .6563334 .397 .629 C .44700004 .6016667 .48500005 .56266668 .51100006 .512 C .53766676 .462 .55100008 .40333335 .55100008 .33600004 M .45800007 .33600004 C .45800007 .41333334 .43700005 .47466669 .39500005 .52000007 C .3536667 .56533339 .29566667 .588 .221 .588 L .091000009 .588 L .091000009 .08400001 L .221 .08400001 C .29566667 .084000017 .3536667 .10633334 .39500005 .15100001 C .43700005 .19633335 .45800007 .25800003 .45800007 .33600004 Z "/>
</symbol>
<symbol id="font_0_23">
<path d="M .42800004 .67 L .42800004 .588 L .091000009 .588 L .091000009 .358 L .42000003 .358 L .42000003 .279 L .091000009 .279 L .091000009 0 L 0 0 L 0 .67 L .42800004 .67 Z "/>
</symbol>
<symbol id="font_0_116">
<path d="M .272 .39400003 C .31066669 .39400003 .34533335 .38633336 .37600003 .37100003 C .40733335 .35566668 .4316667 .33366669 .44900004 .30500005 C .467 .27633337 .47599999 .24300002 .476 .205 C .47599999 .163 .46533335 .12633334 .444 .095 C .42333333 .064333338 .39400003 .04066667 .356 .024 C .31800003 .008 .27433337 0 .225 0 C .17833333 0 .13466667 .009000001 .094 .027 C .054 .045 .022666665 .06866667 0 .098000008 L .054 .168 C .10133333 .11266667 .159 .08500001 .227 .08500001 C .27366669 .08500001 .31133334 .09566667 .34 .117 C .36933337 .13833334 .38399998 .16666667 .384 .202 C .38399998 .2386667 .37100003 .26700006 .345 .28700004 C .319 .3076667 .28333334 .31800003 .238 .31800003 C .216 .31800003 .194 .31566669 .172 .31100003 C .15066667 .30633334 .132 .30033336 .116 .293 L .08500001 .36900003 L .326 .601 L .044000005 .601 L .044000005 .683 L .44900004 .683 L .44900004 .60700008 L .216 .38900004 C .23266667 .39233337 .25133334 .39400003 .272 .39400003 Z "/>
</symbol>
<use xlink:href="#font_0_41" transform="matrix(6,0,0,-6,22.4681,53.6214)" fill="#58595b"/>
<use xlink:href="#font_0_ce" transform="matrix(6,0,0,-6,27.0341,53.699399)" fill="#58595b"/>
<use xlink:href="#font_0_11c" transform="matrix(6,0,0,-6,42.9581,53.699399)" fill="#58595b"/>
<use xlink:href="#font_0_1" transform="matrix(6,0,0,-6,12884901000,-12884901000)" fill="#58595b"/>
<use xlink:href="#font_0_169" transform="matrix(6,0,0,-6,47.7761,51.845399)" fill="#58595b"/>
<use xlink:href="#font_0_1" transform="matrix(6,0,0,-6,12884901000,-12884901000)" fill="#58595b"/>
<use xlink:href="#font_0_114" transform="matrix(6,0,0,-6,51.8861,53.6214)" fill="#58595b"/>
<use xlink:href="#font_0_115" transform="matrix(6,0,0,-6,55.150106,53.6214)" fill="#58595b"/>
<use xlink:href="#font_0_1" transform="matrix(6,0,0,-6,12884901000,-12884901000)" fill="#58595b"/>
<use xlink:href="#font_0_68" transform="matrix(6,0,0,-6,60.022108,53.699399)" fill="#58595b"/>
<use xlink:href="#font_0_ad" transform="matrix(6,0,0,-6,64.0355,53.6214)" fill="#58595b"/>
<use xlink:href="#font_0_dd" transform="matrix(6,0,0,-6,67.2455,53.6214)" fill="#58595b"/>
<use xlink:href="#font_0_ed" transform="matrix(6,0,0,-6,82.2941,53.699399)" fill="#58595b"/>
<use xlink:href="#font_0_c7" transform="matrix(6,0,0,-6,85.5341,53.6214)" fill="#58595b"/>
<use xlink:href="#font_0_98" transform="matrix(6,0,0,-6,88.7561,53.699399)" fill="#58595b"/>
<use xlink:href="#font_0_114" transform="matrix(6,0,0,-6,101.254108,53.6214)" fill="#58595b"/>
<use xlink:href="#font_0_117" transform="matrix(6,0,0,-6,104.4641,53.6214)" fill="#58595b"/>
<use xlink:href="#font_0_1" transform="matrix(6,0,0,-6,12884901000,-12884901000)" fill="#58595b"/>
<use xlink:href="#font_0_169" transform="matrix(6,0,0,-6,109.24611,51.845399)" fill="#58595b"/>
<use xlink:href="#font_0_1" transform="matrix(6,0,0,-6,12884901000,-12884901000)" fill="#58595b"/>
<use xlink:href="#font_0_114" transform="matrix(6,0,0,-6,113.35611,53.6214)" fill="#58595b"/>
<use xlink:href="#font_0_11a" transform="matrix(6,0,0,-6,116.56011,53.6214)" fill="#58595b"/>
<use xlink:href="#font_0_1" transform="matrix(6,0,0,-6,12884901000,-12884901000)" fill="#58595b"/>
<use xlink:href="#font_0_68" transform="matrix(6,0,0,-6,121.49211,53.699399)" fill="#58595b"/>
<use xlink:href="#font_0_ad" transform="matrix(6,0,0,-6,125.505519,53.6214)" fill="#58595b"/>
<use xlink:href="#font_0_dd" transform="matrix(6,0,0,-6,128.71553,53.6214)" fill="#58595b"/>
<use xlink:href="#font_0_15" transform="matrix(6,0,0,-6,22.5761,64.961399)" fill="#58595b"/>
<use xlink:href="#font_0_b0" transform="matrix(6,0,0,-6,26.4821,64.961399)" fill="#58595b"/>
<use xlink:href="#font_0_11c" transform="matrix(6,0,0,-6,42.9581,65.0394)" fill="#58595b"/>
<use xlink:href="#font_0_1" transform="matrix(6,0,0,-6,12884901000,-12884901000)" fill="#58595b"/>
<use xlink:href="#font_0_169" transform="matrix(6,0,0,-6,47.7761,63.185396)" fill="#58595b"/>
<use xlink:href="#font_0_1" transform="matrix(6,0,0,-6,12884901000,-12884901000)" fill="#58595b"/>
<use xlink:href="#font_0_114" transform="matrix(6,0,0,-6,51.8861,64.961399)" fill="#58595b"/>
<use xlink:href="#font_0_115" transform="matrix(6,0,0,-6,55.150106,64.961399)" fill="#58595b"/>
<use xlink:href="#font_0_1" transform="matrix(6,0,0,-6,12884901000,-12884901000)" fill="#58595b"/>
<use xlink:href="#font_0_68" transform="matrix(6,0,0,-6,60.022108,65.0394)" fill="#58595b"/>
<use xlink:href="#font_0_ad" transform="matrix(6,0,0,-6,64.0355,64.961399)" fill="#58595b"/>
<use xlink:href="#font_0_dd" transform="matrix(6,0,0,-6,67.2455,64.961399)" fill="#58595b"/>
<use xlink:href="#font_0_ed" transform="matrix(6,0,0,-6,82.2941,65.0394)" fill="#58595b"/>
<use xlink:href="#font_0_c7" transform="matrix(6,0,0,-6,85.5341,64.961399)" fill="#58595b"/>
<use xlink:href="#font_0_98" transform="matrix(6,0,0,-6,88.7561,65.0394)" fill="#58595b"/>
<use xlink:href="#font_0_114" transform="matrix(6,0,0,-6,101.254108,64.961399)" fill="#58595b"/>
<use xlink:href="#font_0_117" transform="matrix(6,0,0,-6,104.4641,64.961399)" fill="#58595b"/>
<use xlink:href="#font_0_1" transform="matrix(6,0,0,-6,12884901000,-12884901000)" fill="#58595b"/>
<use xlink:href="#font_0_169" transform="matrix(6,0,0,-6,109.24611,63.185396)" fill="#58595b"/>
<use xlink:href="#font_0_1" transform="matrix(6,0,0,-6,12884901000,-12884901000)" fill="#58595b"/>
<use xlink:href="#font_0_114" transform="matrix(6,0,0,-6,113.35611,64.961399)" fill="#58595b"/>
<use xlink:href="#font_0_11a" transform="matrix(6,0,0,-6,116.56011,64.961399)" fill="#58595b"/>
<use xlink:href="#font_0_1" transform="matrix(6,0,0,-6,12884901000,-12884901000)" fill="#58595b"/>
<use xlink:href="#font_0_68" transform="matrix(6,0,0,-6,121.49211,65.0394)" fill="#58595b"/>
<use xlink:href="#font_0_ad" transform="matrix(6,0,0,-6,125.505519,64.961399)" fill="#58595b"/>
<use xlink:href="#font_0_dd" transform="matrix(6,0,0,-6,128.71553,64.961399)" fill="#58595b"/>
<use xlink:href="#font_0_15" transform="matrix(6,0,0,-6,22.5761,76.30139)" fill="#58595b"/>
<use xlink:href="#font_0_ce" transform="matrix(6,0,0,-6,26.404099,76.379398)" fill="#58595b"/>
<use xlink:href="#font_0_11c" transform="matrix(6,0,0,-6,42.9581,76.379398)" fill="#58595b"/>
<use xlink:href="#font_0_1" transform="matrix(6,0,0,-6,12884901000,-12884901000)" fill="#58595b"/>
<use xlink:href="#font_0_169" transform="matrix(6,0,0,-6,47.7761,74.52539)" fill="#58595b"/>
<use xlink:href="#font_0_1" transform="matrix(6,0,0,-6,12884901000,-12884901000)" fill="#58595b"/>
<use xlink:href="#font_0_114" transform="matrix(6,0,0,-6,51.8861,76.30139)" fill="#58595b"/>
<use xlink:href="#font_0_115" transform="matrix(6,0,0,-6,55.150106,76.30139)" fill="#58595b"/>
<use xlink:href="#font_0_1" transform="matrix(6,0,0,-6,12884901000,-12884901000)" fill="#58595b"/>
<use xlink:href="#font_0_68" transform="matrix(6,0,0,-6,60.022108,76.379398)" fill="#58595b"/>
<use xlink:href="#font_0_ad" transform="matrix(6,0,0,-6,64.0355,76.30139)" fill="#58595b"/>
<use xlink:href="#font_0_dd" transform="matrix(6,0,0,-6,67.2455,76.30139)" fill="#58595b"/>
<use xlink:href="#font_0_ed" transform="matrix(6,0,0,-6,82.2941,76.379398)" fill="#58595b"/>
<use xlink:href="#font_0_c7" transform="matrix(6,0,0,-6,85.5341,76.30139)" fill="#58595b"/>
<use xlink:href="#font_0_98" transform="matrix(6,0,0,-6,88.7561,76.379398)" fill="#58595b"/>
<use xlink:href="#font_0_114" transform="matrix(6,0,0,-6,101.254108,76.30139)" fill="#58595b"/>
<use xlink:href="#font_0_117" transform="matrix(6,0,0,-6,104.4641,76.30139)" fill="#58595b"/>
<use xlink:href="#font_0_1" transform="matrix(6,0,0,-6,12884901000,-12884901000)" fill="#58595b"/>
<use xlink:href="#font_0_169" transform="matrix(6,0,0,-6,109.24611,74.52539)" fill="#58595b"/>
<use xlink:href="#font_0_1" transform="matrix(6,0,0,-6,12884901000,-12884901000)" fill="#58595b"/>
<use xlink:href="#font_0_114" transform="matrix(6,0,0,-6,113.35611,76.30139)" fill="#58595b"/>
<use xlink:href="#font_0_11a" transform="matrix(6,0,0,-6,116.56011,76.30139)" fill="#58595b"/>
<use xlink:href="#font_0_1" transform="matrix(6,0,0,-6,12884901000,-12884901000)" fill="#58595b"/>
<use xlink:href="#font_0_68" transform="matrix(6,0,0,-6,121.49211,76.379398)" fill="#58595b"/>
<use xlink:href="#font_0_ad" transform="matrix(6,0,0,-6,125.505519,76.30139)" fill="#58595b"/>
<use xlink:href="#font_0_dd" transform="matrix(6,0,0,-6,128.71553,76.30139)" fill="#58595b"/>
<use xlink:href="#font_0_23" transform="matrix(6,0,0,-6,22.5761,87.64139)" fill="#58595b"/>
<use xlink:href="#font_0_dd" transform="matrix(6,0,0,-6,25.6541,87.64139)" fill="#58595b"/>
<use xlink:href="#font_0_11c" transform="matrix(6,0,0,-6,42.9581,87.71939)" fill="#58595b"/>
<use xlink:href="#font_0_1" transform="matrix(6,0,0,-6,12884901000,-12884901000)" fill="#58595b"/>
<use xlink:href="#font_0_169" transform="matrix(6,0,0,-6,47.7761,85.86539)" fill="#58595b"/>
<use xlink:href="#font_0_1" transform="matrix(6,0,0,-6,12884901000,-12884901000)" fill="#58595b"/>
<use xlink:href="#font_0_114" transform="matrix(6,0,0,-6,51.8861,87.64139)" fill="#58595b"/>
<use xlink:href="#font_0_116" transform="matrix(6,0,0,-6,55.060106,87.71939)" fill="#58595b"/>
<use xlink:href="#font_0_1" transform="matrix(6,0,0,-6,12884901000,-12884901000)" fill="#58595b"/>
<use xlink:href="#font_0_68" transform="matrix(6,0,0,-6,60.022108,87.71939)" fill="#58595b"/>
<use xlink:href="#font_0_ad" transform="matrix(6,0,0,-6,64.0355,87.64139)" fill="#58595b"/>
<use xlink:href="#font_0_dd" transform="matrix(6,0,0,-6,67.2455,87.64139)" fill="#58595b"/>
<symbol id="font_0_24">
<path d="M .62100008 .31900005 C .62100008 .25833337 .609 .20366667 .58500006 .155 C .56166669 .107 .5273333 .069000009 .482 .041 C .43666665 .013666667 .38233338 0 .319 0 C .25500003 0 .19900002 .014333334 .15100001 .043 C .10300001 .07233333 .06566667 .11333334 .038999998 .16600001 C .012999999 .21933334 0 .28033338 0 .34900005 C 0 .41633336 .013333333 .47633339 .04 .52900007 C .06666666 .5816667 .104 .6226667 .15200001 .65200009 C .20066668 .68133339 .25633336 .69600006 .319 .69600006 C .38166667 .69600006 .43733336 .68133339 .486 .65200009 C .5346667 .6226667 .57 .58366677 .592 .535 L .514 .49100004 C .498 .527 .47233335 .556 .437 .578 C .40233336 .6006667 .363 .61200007 .319 .61200007 C .27366669 .61200007 .23400001 .6010001 .2 .57900008 C .16600001 .5576667 .13966668 .527 .12100001 .48700006 C .102333348 .44700004 .09300002 .40100003 .09300001 .34900005 C .09300002 .2956667 .102333348 .24900002 .12100001 .209 C .13966668 .16966667 .16633334 .139 .201 .117 C .23566668 .09566667 .27600003 .08500001 .32200004 .08500001 C .36600004 .08500001 .40333335 .094000007 .43400003 .112 C .46533335 .13066668 .489 .15533334 .505 .186 C .521 .21733333 .5296667 .252 .531 .29000003 L .289 .29000003 L .289 .36900003 L .62 .36900003 L .62100008 .31900005 Z "/>
</symbol>
<symbol id="font_0_e1">
<path d="M .040000008 .126 C .080666679 .09333334 .12900001 .07700001 .18500002 .07700001 C .21366668 .07700001 .23566668 .08266667 .251 .094 C .2663333 .10533333 .274 .121 .274 .141 C .274 .157 .269 .17 .259 .18 C .24966669 .19066668 .23500002 .2 .21500002 .208 L .133 .23900001 C .095000009 .25433336 .06666667 .27200005 .048000009 .29200004 C .030000002 .31266669 .021 .3393334 .021 .37200005 C .021 .4106667 .035333337 .44266669 .064 .46800003 C .09266668 .49333338 .13200002 .50600007 .18200001 .50600007 C .21866668 .50600007 .252 .5006667 .282 .49000005 C .31266669 .48000003 .33833335 .46600006 .359 .44800005 L .325 .38400004 C .307 .39800004 .28533335 .40933339 .26 .41800005 C .23533333 .4266667 .20933335 .43100003 .18200001 .43100003 C .15733335 .43100003 .13866668 .4256667 .126 .41500003 C .114 .40500007 .10800001 .39200006 .10800001 .37600003 C .10800001 .36 .112333338 .3476667 .12100001 .33900003 C .13033335 .33033336 .14666668 .3216667 .17000002 .31300003 L .24800001 .28200004 C .28800003 .26666669 .317 .24833334 .335 .22700002 C .35300002 .20633334 .36200003 .17866667 .36200003 .14400001 C .36200003 .1 .34600006 .065000008 .314 .039 C .282 .013 .23900001 0 .18500002 0 C .14700002 0 .11200001 .0053333339 .080000009 .016 C .048666669 .02666667 .022 .041000006 0 .059000005 L .040000008 .126 Z "/>
</symbol>
<symbol id="font_0_89">
<path d="M .40600003 .013 L .33000005 .013 L .32100005 .10800001 L .31800003 .10800001 C .3046667 .07333334 .28333337 .046666668 .254 .028 C .22533334 .009333334 .19000001 0 .148 0 C .10333333 0 .06733333 .012666668 .04 .038000004 C .013333333 .064 0 .09800001 0 .14 C 0 .18666667 .016666668 .223 .050000006 .24900002 C .084000017 .27566669 .13066668 .28900004 .19000001 .28900004 C .22666669 .28900004 .26366667 .28400005 .301 .27400003 L .301 .31500004 C .301 .34966669 .29133336 .37733338 .272 .39800004 C .25266669 .41933338 .22700002 .43000005 .19500001 .43000005 C .16633334 .43000005 .14233335 .42400003 .12300001 .41200004 C .10433334 .4 .08833333 .38133336 .075 .35600005 L .010000002 .39300005 C .026000003 .42966674 .05 .45766673 .082 .47700004 C .11466668 .49633337 .15333335 .50600007 .19800002 .50600007 C .25733335 .50600007 .30366669 .48900006 .337 .45500005 C .37100003 .42100004 .388 .37433339 .388 .31500004 L .388 .21800001 L .40600003 .013 M .16800002 .074 C .19200002 .074 .214 .080000009 .23400001 .09200001 C .25466667 .104 .271 .120000008 .283 .14 C .295 .16066666 .301 .18300002 .301 .207 C .28433336 .21233334 .26800005 .21633335 .25200004 .21900001 C .23600002 .22166668 .21700001 .223 .19500001 .223 C .15966667 .223 .13233334 .21633335 .113000009 .20300001 C .09366667 .19033332 .084000017 .172 .08400001 .148 C .084000017 .09866667 .11200001 .074 .16800002 .074 M .095 .57100006 C .08033334 .57100006 .06766667 .57600006 .057000005 .586 C .047000003 .59666678 .042000008 .60966679 .042000005 .62500008 C .042000008 .63966676 .047000003 .652 .057000005 .66200008 C .067 .6720001 .07966667 .67700007 .095 .67700007 C .10966667 .67700007 .122 .6720001 .132 .66200008 C .14266667 .652 .148 .63966676 .148 .62500008 C .148 .6103334 .14266667 .5976667 .132 .587 C .122 .57633337 .10966667 .57100006 .095 .57100006 M .302 .57100006 C .28733335 .57100006 .2746667 .57633337 .264 .587 C .25399999 .5976667 .249 .6103334 .249 .62500008 C .249 .63966676 .25399999 .652 .264 .66200008 C .2746667 .6720001 .28733335 .67700007 .302 .67700007 C .31666667 .67700007 .32933335 .6720001 .34000004 .66200008 C .35066668 .652 .35600005 .63966676 .356 .62500008 C .35600005 .6103334 .35066668 .5976667 .34000004 .587 C .32933335 .57633337 .31666667 .57100006 .302 .57100006 Z "/>
</symbol>
<symbol id="font_0_a7">
<path d="M .238 .632 C .21333333 .632 .19466667 .6243334 .18200001 .609 C .16933334 .59433338 .16300002 .5726667 .16300002 .544 L .16300002 .48000003 L .31000004 .48000003 L .31000004 .40300004 L .16300002 .40300004 L .16300002 0 L .07700001 0 L .07700001 .40300004 L 0 .40300004 L 0 .48000003 L .07700001 .48000003 L .07700001 .55300006 C .07700001 .6016667 .09100001 .63966676 .11900001 .66700008 C .14766668 .695 .18466668 .70900008 .23000002 .70900008 C .28000004 .70900008 .3186667 .6953334 .34600003 .66800007 L .31100003 .60300007 C .28966669 .62233337 .26533333 .632 .238 .632 Z "/>
</symbol>
<symbol id="font_0_c0">
<path d="M 0 .709 L .086 .709 L .086 .16400002 C .086 .13666667 .09233334 .11533334 .105 .1 C .11833333 .08533334 .13733334 .078 .162 .078 C .18066667 .078 .19699998 .081 .211 .087000008 L .22099999 .014 C .199 .004666667 .17399998 0 .146 0 C .10133334 0 .06566667 .013333335 .038999998 .040000004 C .012999999 .06733333 0 .10466667 0 .15200001 L 0 .709 Z "/>
</symbol>
<symbol id="font_0_39">
<path d="M .52900007 0 L .41400004 0 L .17600002 .31300003 L .091000009 .22100002 L .091000009 0 L 0 0 L 0 .67 L .091000009 .67 L .091000009 .33900003 L .39500005 .67 L .507 .67 L .24 .374 L .52900007 0 Z "/>
</symbol>
<symbol id="font_0_d2">
<path d="M 0 .254 C 0 .3026667 .009666666 .34600006 .029 .38400004 C .048333337 .42200006 .076000008 .4516667 .11200001 .47300003 C .14800002 .49500004 .19000001 .50600007 .238 .50600007 C .286 .50600007 .32766668 .49500004 .363 .47300003 C .39900003 .4516667 .4266667 .42200006 .446 .38400004 C .46533335 .34600006 .47500003 .3026667 .47500003 .254 C .47500003 .20600002 .46500004 .16266668 .44500003 .12400001 C .4256667 .08533334 .398 .054999997 .36200003 .033 C .32666669 .011 .28533338 0 .238 0 C .19000001 0 .14800002 .0106666679 .11200001 .032 C .076000008 .054 .048333337 .08433334 .029 .12300001 C .009666666 .16166668 0 .20533335 0 .254 M .38700003 .254 C .387 .30533336 .37400005 .34733335 .34800003 .38000003 C .32266668 .41266669 .286 .42900003 .238 .42900003 C .19000001 .42900003 .15300001 .41266669 .127 .38000003 C .10100001 .34800003 .08800001 .30600003 .08800001 .254 C .08800001 .202 .10100001 .15966667 .127 .127 C .15300001 .095 .19000001 .078999999 .238 .078999999 C .286 .078999999 .32266668 .09533334 .34800003 .128 C .37400005 .16066666 .387 .20266669 .38700003 .254 M .134 .57100006 C .11933335 .57100006 .10666668 .57600006 .09600001 .586 C .086 .59666678 .08100001 .60966679 .08100001 .62500008 C .08100001 .63966676 .086 .652 .09600001 .66200008 C .106000009 .6720001 .11866667 .67700007 .134 .67700007 C .14866668 .67700007 .16100002 .6720001 .171 .66200008 C .18166667 .652 .18699999 .63966676 .187 .62500008 C .18699999 .6103334 .18166667 .5976667 .171 .587 C .16100002 .57633337 .14866668 .57100006 .134 .57100006 M .34100003 .57100006 C .32633335 .57100006 .31366668 .57633337 .303 .587 C .293 .5976667 .28800003 .6103334 .28800003 .62500008 C .28800003 .63966676 .293 .652 .303 .66200008 C .31366668 .6720001 .32633335 .67700007 .34100003 .67700007 C .35566668 .67700007 .36833335 .6720001 .379 .66200008 C .38966669 .652 .395 .63966676 .395 .62500008 C .395 .6103334 .38966669 .5976667 .379 .587 C .36833335 .57633337 .35566668 .57100006 .34100003 .57100006 Z "/>
</symbol>
<symbol id="font_0_a8">
<path d="M .39900003 .679 L .475 .679 L .456 .47700007 L .456 .21200001 C .456 .14600002 .43500004 .09433335 .393 .05700001 C .3516667 .019000004 .29466669 0 .22200002 0 C .134 0 .06566667 .028000005 .017 .084000017 L .066 .14700002 C .086666669 .123 .10933334 .10533335 .134 .09400001 C .15866669 .08266667 .18766667 .07700001 .221 .07700001 C .26766668 .07700001 .30400003 .08933335 .33 .114000018 C .35666669 .13800001 .37 .17400001 .37 .22200002 L .37 .305 L .368 .305 C .354 .2776667 .333 .256 .305 .24000001 C .277 .22400002 .24666667 .21600002 .214 .21600002 C .17266667 .21600002 .13566669 .22600003 .103000018 .24600002 C .07100001 .26600004 .04566667 .29400004 .026999999 .33000005 C .009 .36600004 0 .40699999 0 .453 C 0 .50033339 .009333334 .54200008 .028 .578 C .04666667 .614 .072333339 .642 .105000007 .66200008 C .13833334 .682 .17600002 .6920001 .21800001 .69200006 C .25666667 .6920001 .29066668 .683 .32 .665 C .35 .6476667 .3726667 .62200006 .388 .58800008 L .39000003 .58800008 L .39900003 .679 M .23100002 .29500003 C .273 .29500003 .30666668 .30933336 .33200003 .33800004 C .35733334 .36733339 .37 .40633337 .37 .45500005 C .37 .5043334 .35733334 .54333338 .33200003 .572 C .30733336 .6013334 .27366669 .61600008 .23100002 .61600008 C .18766667 .61600008 .15300001 .6013334 .127 .572 C .10100001 .54266676 .08800002 .5036667 .088000018 .45500005 C .08800002 .40633337 .10100001 .36733339 .127 .33800004 C .15300001 .30933336 .18766667 .29500003 .23100002 .29500003 Z "/>
</symbol>
<symbol id="font_0_91">
<path d="M .24700001 .50600007 C .29033337 .50600007 .328 .49533335 .36 .47400005 C .39200006 .45266668 .41633336 .42333339 .43300004 .38600005 C .45033337 .34866668 .459 .30633334 .459 .259 C .459 .20833333 .44933335 .16333334 .43 .12400001 C .4106667 .08533334 .38233338 .054999997 .345 .033 C .3083333 .011 .264 0 .21200001 0 C .13333334 0 .06266667 .022333334 0 .067 L 0 .711 L .086 .711 L .086 .42400003 L .088999997 .42400003 C .10433333 .44733335 .12466667 .4666667 .15 .48200003 C .176 .49800004 .20833333 .50600007 .24700001 .50600007 M .21200001 .078999999 C .26533333 .078999999 .30499999 .095 .331 .127 C .3576667 .15966667 .37100003 .20333334 .37100003 .25800003 C .37100003 .30933336 .35833336 .35066668 .333 .38200004 C .30833335 .41400004 .27266667 .43000005 .22600001 .43000005 C .20066667 .43000005 .17733334 .42366673 .15600002 .41100005 C .13466668 .39900006 .11766667 .38233338 .105 .36100004 C .09233334 .3396667 .086 .316 .086 .29000003 L .086 .11500001 C .10333333 .10233334 .12166667 .092999998 .141 .087 C .161 .08166666 .18466668 .078999999 .21200001 .078999999 Z "/>
</symbol>
<use xlink:href="#font_0_24" transform="matrix(7,0,0,-7,19.559502,39.3979)" fill="#58595b"/>
<use xlink:href="#font_0_9c" transform="matrix(7,0,0,-7,24.487504,39.3979)" fill="#58595b"/>
<use xlink:href="#font_0_e1" transform="matrix(7,0,0,-7,28.0715,39.3979)" fill="#58595b"/>
<use xlink:href="#font_0_92" transform="matrix(7,0,0,-7,31.1725,39.3979)" fill="#58595b"/>
<use xlink:href="#font_0_ad" transform="matrix(7,0,0,-7,34.833498,39.3069)" fill="#58595b"/>
<use xlink:href="#font_0_89" transform="matrix(7,0,0,-7,38.480497,39.3979)" fill="#58595b"/>
<use xlink:href="#font_0_a7" transform="matrix(7,0,0,-7,41.8545,39.3069)" fill="#58595b"/>
<use xlink:href="#font_0_e8" transform="matrix(7,0,0,-7,44.241498,39.3839)" fill="#58595b"/>
<use xlink:href="#font_0_e1" transform="matrix(7,0,0,-7,46.873495,39.3979)" fill="#58595b"/>
<use xlink:href="#font_0_e1" transform="matrix(7,0,0,-7,49.89049,39.3979)" fill="#58595b"/>
<use xlink:href="#font_0_e8" transform="matrix(7,0,0,-7,52.83749,39.3839)" fill="#58595b"/>
<use xlink:href="#font_0_9c" transform="matrix(7,0,0,-7,55.497488,39.3979)" fill="#58595b"/>
<use xlink:href="#font_0_c0" transform="matrix(7,0,0,-7,59.38949,39.3839)" fill="#58595b"/>
<use xlink:href="#font_0_c0" transform="matrix(7,0,0,-7,61.46779,39.3839)" fill="#58595b"/>
<use xlink:href="#font_0_9c" transform="matrix(7,0,0,-7,63.260488,39.3979)" fill="#58595b"/>
<use xlink:href="#font_0_1" transform="matrix(7,0,0,-7,15032385000,-15032385000)" fill="#58595b"/>
<use xlink:href="#font_0_39" transform="matrix(7,0,0,-7,68.783489,39.3069)" fill="#58595b"/>
<use xlink:href="#font_0_d2" transform="matrix(7,0,0,-7,72.541797,39.3979)" fill="#58595b"/>
<use xlink:href="#font_0_c7" transform="matrix(7,0,0,-7,76.57379,39.3069)" fill="#58595b"/>
<use xlink:href="#font_0_b0" transform="matrix(7,0,0,-7,80.45179,39.3069)" fill="#58595b"/>
<use xlink:href="#font_0_a8" transform="matrix(7,0,0,-7,81.998798,40.6999)" fill="#58595b"/>
<use xlink:href="#font_0_e1" transform="matrix(7,0,0,-7,85.94679,39.3979)" fill="#58595b"/>
<use xlink:href="#font_0_91" transform="matrix(7,0,0,-7,89.27179,39.3979)" fill="#58595b"/>
<use xlink:href="#font_0_dd" transform="matrix(7,0,0,-7,93.19179,39.3069)" fill="#58595b"/>
<use xlink:href="#font_0_ce" transform="matrix(7,0,0,-7,95.375789,39.3979)" fill="#58595b"/>
<use xlink:href="#font_0_c7" transform="matrix(7,0,0,-7,99.40778,39.3069)" fill="#58595b"/>
<use xlink:href="#font_0_c7" transform="matrix(7,0,0,-7,103.29978,39.3069)" fill="#58595b"/>
<symbol id="font_0_85">
<path d="M .40600003 .013 L .33000005 .013 L .32100005 .10800001 L .31800003 .10800001 C .3046667 .07333334 .28333337 .046666668 .254 .028 C .22533334 .009333334 .19000001 0 .148 0 C .10333333 0 .06733333 .012666668 .04 .038000004 C .013333333 .064 0 .09800001 0 .14 C 0 .18666667 .016666668 .223 .050000006 .24900002 C .084000017 .27566669 .13066668 .28900004 .19000001 .28900004 C .22666669 .28900004 .26366667 .28400005 .301 .27400003 L .301 .31500004 C .301 .34966669 .29133336 .37733338 .272 .39800004 C .25266669 .41933338 .22700002 .43000005 .19500001 .43000005 C .16633334 .43000005 .14233335 .42400003 .12300001 .41200004 C .10433334 .4 .08833333 .38133336 .075 .35600005 L .010000002 .39300005 C .026000003 .42966674 .05 .45766673 .082 .47700004 C .11466668 .49633337 .15333335 .50600007 .19800002 .50600007 C .25733335 .50600007 .30366669 .48900006 .337 .45500005 C .37100003 .42100004 .388 .37433339 .388 .31500004 L .388 .21800001 L .40600003 .013 M .16800002 .074 C .19200002 .074 .214 .080000009 .23400001 .09200001 C .25466667 .104 .271 .120000008 .283 .14 C .295 .16066666 .301 .18300002 .301 .207 C .28433336 .21233334 .26800005 .21633335 .25200004 .21900001 C .23600002 .22166668 .21700001 .223 .19500001 .223 C .15966667 .223 .13233334 .21633335 .113000009 .20300001 C .09366667 .19033332 .084000017 .172 .08400001 .148 C .084000017 .09866667 .11200001 .074 .16800002 .074 Z "/>
</symbol>
<use xlink:href="#font_0_85" transform="matrix(10,0,0,-10,19.687502,127.1061)" fill="#f36f21"/>
<use xlink:href="#font_0_92" transform="matrix(10,0,0,-10,24.7175,127.1061)" fill="#f36f21"/>
<use xlink:href="#font_0_ad" transform="matrix(10,0,0,-10,29.9475,126.976108)" fill="#f36f21"/>
<use xlink:href="#font_0_e8" transform="matrix(10,0,0,-10,34.847494,127.086109)" fill="#f36f21"/>
<use xlink:href="#font_0_91" transform="matrix(10,0,0,-10,39.047498,127.1061)" fill="#0066b3"/>
<use xlink:href="#font_0_b0" transform="matrix(10,0,0,-10,44.637498,126.976108)" fill="#0066b3"/>
<use xlink:href="#font_0_e1" transform="matrix(10,0,0,-10,46.707498,127.1061)" fill="#0066b3"/>
<use xlink:href="#font_0_85" transform="matrix(10,0,0,-10,51.177495,127.1061)" fill="#f36f21"/>
<use xlink:href="#font_0_92" transform="matrix(10,0,0,-10,56.207494,127.1061)" fill="#f36f21"/>
<use xlink:href="#font_0_ad" transform="matrix(10,0,0,-10,61.437494,126.976108)" fill="#f36f21"/>
<use xlink:href="#font_0_e8" transform="matrix(10,0,0,-10,66.337497,127.086109)" fill="#f36f21"/>
<use xlink:href="#font_0_115" transform="matrix(10,0,0,-10,19.7075,210.2461)" fill="#f36f21"/>
<use xlink:href="#font_0_117" transform="matrix(10,0,0,-10,25.217499,210.2461)" fill="#f36f21"/>
<use xlink:href="#font_0_169" transform="matrix(10,0,0,-10,30.967499,207.28609)" fill="#f36f21"/>
<use xlink:href="#font_0_5b" transform="matrix(10,0,0,-10,35.1475,210.3761)" fill="#f36f21"/>
<use xlink:href="#font_0_e8" transform="matrix(10,0,0,-10,40.2375,210.3561)" fill="#f36f21"/>
<use xlink:href="#font_0_ed" transform="matrix(10,0,0,-10,44.387506,210.3761)" fill="#f36f21"/>
<use xlink:href="#font_0_c7" transform="matrix(10,0,0,-10,49.787508,210.2461)" fill="#f36f21"/>
<use xlink:href="#font_0_98" transform="matrix(10,0,0,-10,55.157506,210.3761)" fill="#f36f21"/>
<use xlink:href="#font_0_9c" transform="matrix(10,0,0,-10,61.037504,210.3761)" fill="#f36f21"/>
<use xlink:href="#font_0_c7" transform="matrix(10,0,0,-10,66.4675,210.2461)" fill="#f36f21"/>
<symbol id="font_0_e">
<path d="M .34900005 .347 C .387 .333 .41600005 .31233336 .43600006 .28500004 C .456 .25833337 .466 .227 .46600003 .19100002 C .466 .15566668 .45700003 .12333334 .439 .094000007 C .42166666 .06533334 .3956667 .042333336 .361 .025 C .32633335 .008333334 .28433336 0 .235 0 L 0 0 L 0 .67 L .23900001 .67 C .28300003 .67 .32066668 .6623333 .352 .647 C .38333334 .63166669 .40666668 .611 .42200006 .58500006 C .43800006 .559 .446 .52966669 .44600005 .497 C .446 .46500004 .43766669 .43566669 .421 .409 C .40433336 .38233338 .38033334 .36166669 .34900005 .347 M .091000009 .58900007 L .091000009 .381 L .23600002 .381 C .27733336 .381 .30800004 .3906667 .328 .41000004 C .34866668 .43000005 .35900007 .4546667 .35900004 .48400004 C .35900007 .51466676 .34866668 .5396667 .328 .559 C .30800004 .57900008 .27733336 .58900007 .23600002 .58900007 L .091000009 .58900007 M .23200001 .083000008 C .28 .083000008 .31566669 .09333334 .339 .11400001 C .36233334 .13466668 .37399999 .16100002 .374 .193 C .37399999 .22500001 .36233334 .25133337 .339 .272 C .31566669 .29333336 .28 .30400003 .23200001 .30400003 L .091000009 .30400003 L .091000009 .083000008 L .23200001 .083000008 Z "/>
</symbol>
<symbol id="font_0_be">
<path d="M .311 0 L .163 .20700002 L .08600001 .147 L .08600001 0 L 0 0 L 0 .698 L .08600001 .698 L .08600001 .23900001 C .15200001 .2916667 .2 .33200003 .23 .36 C .26000003 .38866673 .27933336 .4106667 .288 .42600004 C .29733334 .44200004 .3033333 .46000005 .306 .48000003 L .39500005 .48000003 C .39233337 .4546667 .387 .43233336 .379 .41300003 C .37100006 .39433337 .35600005 .3726667 .334 .34800003 C .312 .32333336 .27833335 .2916667 .23300003 .25300003 L .42000003 0 L .311 0 Z "/>
</symbol>
<use xlink:href="#font_0_169" transform="matrix(10,0,0,-10,71.9575,207.28609)" fill="#0066b3"/>
<use xlink:href="#font_0_e" transform="matrix(10,0,0,-10,76.79749,210.2461)" fill="#0066b3"/>
<use xlink:href="#font_0_85" transform="matrix(10,0,0,-10,82.35649,210.3761)" fill="#0066b3"/>
<use xlink:href="#font_0_c7" transform="matrix(10,0,0,-10,87.57649,210.2461)" fill="#0066b3"/>
<use xlink:href="#font_0_be" transform="matrix(10,0,0,-10,93.28649,210.2461)" fill="#0066b3"/>
<symbol id="font_0_2">
<path d="M .591 0 L .49300004 0 L .437 .16600001 L .15200001 .16600001 L .095 0 L 0 0 L .24300002 .67 L .34800003 .67 L .591 0 M .292 .573 L .18 .24800001 L .409 .24800001 L .298 .573 L .292 .573 Z "/>
</symbol>
<symbol id="font_0_e7">
<path d="M 0 .49600003 C 0 .56400009 .019333333 .6186667 .058 .66 C .097333338 .70133337 .15366668 .72200009 .22700002 .72200009 C .26833336 .72200009 .30400003 .71400007 .334 .6980001 C .36466668 .682 .388 .66 .40400005 .632 C .4206667 .60400006 .42900003 .572 .42900003 .536 C .42900003 .49266673 .41900004 .45533339 .39900006 .42400003 C .3796667 .39333336 .35566668 .3706667 .32700003 .35600005 L .32700003 .35300002 C .36900006 .3476667 .40533338 .33 .43600006 .3 C .4666667 .2706667 .48200003 .23133333 .48200006 .18200001 C .48200003 .126 .4636667 .08166667 .42700006 .049000004 C .39100004 .016333335 .344 0 .286 0 C .24000001 0 .20133335 .008 .17 .024 L .19200002 .10000001 C .20533334 .09200001 .21866668 .086333338 .23200001 .083000008 C .246 .079666677 .2616667 .07800001 .27899999 .07800001 C .31433336 .07800001 .34233336 .087333347 .36300005 .106000009 C .38433338 .12533334 .39500008 .15133333 .39500005 .184 C .39500008 .22000002 .37966673 .24866669 .34900005 .27 C .31833337 .29200004 .27733336 .30333338 .22600003 .30400003 L .22600003 .37300004 C .26266668 .38433338 .29133336 .40400005 .31200005 .43200005 C .33333338 .4606667 .344 .49366669 .34400005 .531 C .344 .5636667 .3336667 .5906667 .31300003 .61200007 C .29233334 .63400009 .263 .64500007 .22500001 .64500007 C .17766668 .64500007 .14266669 .63066676 .120000008 .60200008 C .09733334 .57400009 .086 .535 .08600001 .48500005 L .08600001 .013 L 0 .013 L 0 .49600003 Z "/>
</symbol>
<symbol id="font_0_f9">
<path d="M .545 .096 L .64400008 .48000003 L .73300006 .48000003 L .595 0 L .498 0 L .36900003 .39100004 L .366 .39100004 L .23800002 0 L .13900002 0 L 0 .48000003 L .092 .48000003 L .19000001 .096 L .19300002 .096 L .316 .48000003 L .42200003 .48000003 L .54200008 .096 L .545 .096 Z "/>
</symbol>
<symbol id="font_0_156">
<path d="M .06299999 .37 C .044999999 .37 .030000002 .37600003 .018000003 .388 C .006000001 .4 0 .41466669 0 .432 C 0 .45000003 .006000001 .46500004 .018000003 .47700004 C .030000002 .4896667 .044999999 .49600003 .06299999 .49600003 C .081 .49600003 .09599999 .4896667 .107999999 .47700004 C .12066666 .46500004 .127 .45000003 .127 .432 C .127 .41466669 .12066666 .4 .107999999 .388 C .09599999 .37600003 .081 .37 .06299999 .37 M .06299999 .0000000004656613 C .044999999 .0000000004656613 .030000002 .006000001 .018000003 .018000002 C .006000001 .030000002 0 .044666668 0 .062000004 C 0 .080000009 .006000001 .095 .018000003 .107 C .030000002 .119666669 .044999999 .126 .06299999 .126 C .081 .126 .09599999 .119666669 .107999999 .107 C .12066666 .095 .127 .080000009 .127 .062000004 C .127 .044666668 .12066666 .030000002 .107999999 .018000002 C .09599999 .006000001 .081 .0000000004656613 .06299999 .0000000004656613 Z "/>
</symbol>
<symbol id="font_0_11b">
<path d="M .35700003 .35800005 C .39900003 .344 .431 .32266668 .453 .29400004 C .475 .26533336 .48599998 .23133333 .486 .192 C .48599998 .15533334 .47566668 .12233335 .455 .09300001 C .43433336 .06366667 .40566669 .04066667 .36900003 .024 C .33233337 .008 .29033337 0 .243 0 C .19500001 0 .15266668 .008 .11600001 .024 C .07933334 .04066667 .05066667 .06333334 .030000002 .09200001 C .010000001 .12133334 0 .15466668 0 .192 C 0 .23066668 .010666668 .26433338 .032000007 .293 C .05333334 .3216667 .085 .34300003 .127 .35700003 L .127 .36 C .09233334 .3746667 .06566667 .395 .047000007 .42100004 C .029000005 .44766668 .020000004 .47833336 .020000004 .513 C .020000004 .54833337 .029333337 .5796667 .048 .60700008 C .06666667 .63500007 .093 .6566667 .127 .67200008 C .161 .688 .19966667 .69600006 .243 .69600006 C .28700004 .69600006 .326 .688 .36 .67200008 C .39400003 .6566667 .42 .63500007 .43800003 .60700008 C .4566667 .5796667 .466 .54833337 .46600003 .513 C .466 .4776667 .45633338 .44666673 .43700005 .42000003 C .41833339 .39333336 .39166669 .37333337 .35700003 .36 L .35700003 .35800005 M .243 .614 C .20166667 .614 .16866668 .60433337 .14400001 .58500006 C .120000008 .56566676 .10800001 .54 .10800001 .508 C .10800001 .47400008 .120000008 .44666673 .14400001 .42600004 C .16866668 .40600003 .20166667 .39600004 .243 .39600004 C .285 .39600004 .31800003 .40600003 .342 .42600004 C .36600004 .44666673 .37800003 .47400008 .37800003 .508 C .37800003 .5406667 .36600004 .56633338 .342 .58500006 C .31800003 .60433337 .285 .614 .243 .614 M .243 .083000008 C .29033337 .083000008 .32766668 .09366667 .35500003 .11500001 C .38233338 .13633333 .39600004 .165 .39600004 .201 C .39600004 .23633333 .38233338 .26466669 .35500003 .286 C .32766668 .30733336 .29033337 .31800003 .243 .31800003 C .19566667 .31800003 .15833335 .30733336 .13100001 .286 C .10366667 .26466669 .09 .23633333 .09 .201 C .09 .165 .10366667 .13633333 .13100001 .11500001 C .15833335 .09366667 .19566667 .083000008 .243 .083000008 Z "/>
</symbol>
<symbol id="font_0_113">
<path d="M 0 .34900005 C 0 .4543334 .019000002 .53833338 .057000005 .601 C .09566667 .66433337 .156 .69600006 .238 .69600006 C .32133339 .69600006 .3816667 .6646667 .41900004 .60200008 C .45700003 .53933337 .47599999 .4546667 .476 .34800003 C .47599999 .24133335 .45700003 .15666668 .41900004 .094 C .38100005 .03133333 .32066668 0 .238 0 C .15466666 0 .094000007 .03133333 .056 .094 C .018666668 .15666668 0 .24166668 0 .34900005 M .38500003 .34900005 C .38500003 .4276667 .37433336 .49100004 .35300002 .53900006 C .33233337 .5876667 .29400004 .61200007 .238 .61200007 C .182 .61200007 .14366667 .5876667 .123 .53900006 C .10233334 .49100004 .092 .42700006 .092 .34700004 C .092 .26766668 .10233334 .204 .123 .156 C .14366667 .10866668 .182 .08500001 .238 .08500001 C .29400004 .08500001 .33233337 .109000008 .35300002 .157 C .37433336 .20566666 .38500003 .26966668 .38500003 .34900005 Z "/>
</symbol>
<symbol id="font_0_73">
<path d="M .299 .097 L .49700005 .67 L .59400007 .67 L .35 0 L .24300002 0 L 0 .67 L .10000001 .67 L .294 .097 L .299 .097 Z "/>
</symbol>
<symbol id="font_0_63">
<path d="M .52700009 .67 L .52700009 .588 L .30900003 .588 L .30900003 0 L .21900001 0 L .21900001 .588 L 0 .588 L 0 .67 L .52700009 .67 Z "/>
</symbol>
<symbol id="font_0_c6">
<path d="M .509 .49300004 C .555 .49300004 .5916667 .4776667 .619 .44700004 C .647 .41633336 .661 .37600003 .661 .326 L .661 0 L .57500007 0 L .57500007 .317 C .57500007 .34633336 .56600007 .3696667 .54800006 .38700003 C .53066667 .40500007 .50733336 .41400004 .47800005 .41400004 C .45066668 .41400004 .428 .4046667 .41000004 .386 C .39200006 .36800004 .38300003 .34500004 .38300003 .317 L .38300003 0 L .29700003 0 L .29700003 .317 C .29700003 .34633336 .28800003 .3696667 .27 .38700003 C .25266669 .40500007 .22966667 .41400004 .201 .41400004 C .17366667 .41400004 .15066667 .40500007 .132 .38700003 C .114 .36900006 .105 .34566669 .105000007 .317 L .105000007 0 L .019000002 0 L .019000002 .293 L 0 .48000003 L .076000008 .48000003 L .08400001 .407 L .08500001 .407 C .09766667 .43500004 .116 .45633338 .14 .47100003 C .16400002 .48566667 .19333335 .49300004 .22800002 .49300004 C .25800003 .49300004 .2846667 .48533336 .30800004 .47000004 C .33133338 .4546667 .34866668 .4336667 .36 .407 L .363 .407 C .375 .43500004 .39366666 .45633338 .41900004 .47100003 C .44500003 .48566667 .475 .49300004 .509 .49300004 Z "/>
</symbol>
<symbol id="font_0_159">
<path d="M .10300001 .20300001 L .023000002 .20300001 L .016999998 .67700007 L .109000008 .67700007 L .10300001 .20300001 M .063 .0000000004656613 C .044999999 .0000000004656613 .03 .006000001 .018 .018000002 C .0059999998 .030000002 0 .044666668 0 .062000004 C 0 .080000009 .0059999998 .095 .018 .107 C .03 .119666669 .044999999 .126 .063 .126 C .08100001 .126 .09600001 .119666669 .108 .107 C .120666678 .095 .127 .080000009 .127 .062000004 C .127 .044666668 .120666678 .030000002 .108 .018000002 C .09600001 .006000001 .08100001 .0000000004656613 .063 .0000000004656613 Z "/>
</symbol>
<symbol id="font_0_154">
<path d="M .06300001 .0000000004656613 C .045000007 .0000000004656613 .030000007 .006000001 .018000003 .018000002 C .0060000035 .030000002 .0000000037252905 .044666668 .0000000037252905 .062000004 C .0000000037252905 .080000009 .0060000035 .095 .018000003 .107 C .030000007 .119666669 .045000007 .126 .06300001 .126 C .081000018 .126 .096000019 .119666669 .10800001 .107 C .12066668 .095 .12700002 .080000009 .12700002 .062000004 C .12700002 .044666668 .12066668 .030000002 .10800001 .018000002 C .096000019 .006000001 .081000018 .0000000004656613 .06300001 .0000000004656613 Z "/>
</symbol>
<use xlink:href="#font_0_2" transform="matrix(6,0,0,-6,19.3155,138.0294)" fill="#58595b"/>
<use xlink:href="#font_0_ed" transform="matrix(6,0,0,-6,23.299502,138.1074)" fill="#58595b"/>
<use xlink:href="#font_0_92" transform="matrix(6,0,0,-6,26.425499,138.1074)" fill="#58595b"/>
<use xlink:href="#font_0_ad" transform="matrix(6,0,0,-6,29.563498,138.0294)" fill="#58595b"/>
<use xlink:href="#font_0_1" transform="matrix(6,0,0,-6,12884901000,-12884901000)" fill="#58595b"/>
<use xlink:href="#font_0_85" transform="matrix(6,0,0,-6,34.021497,138.1074)" fill="#58595b"/>
<use xlink:href="#font_0_ed" transform="matrix(6,0,0,-6,37.201498,138.1074)" fill="#58595b"/>
<use xlink:href="#font_0_e7" transform="matrix(6,0,0,-6,40.531499,138.1074)" fill="#58595b"/>
<use xlink:href="#font_0_9c" transform="matrix(6,0,0,-6,43.897497,138.1074)" fill="#58595b"/>
<use xlink:href="#font_0_dd" transform="matrix(6,0,0,-6,47.149496,138.0294)" fill="#58595b"/>
<use xlink:href="#font_0_ad" transform="matrix(6,0,0,-6,49.333494,138.0294)" fill="#58595b"/>
<use xlink:href="#font_0_85" transform="matrix(6,0,0,-6,52.45949,138.1074)" fill="#58595b"/>
<use xlink:href="#font_0_c0" transform="matrix(6,0,0,-6,55.66949,138.0954)" fill="#58595b"/>
<use xlink:href="#font_0_91" transform="matrix(6,0,0,-6,57.47549,138.1074)" fill="#58595b"/>
<use xlink:href="#font_0_1" transform="matrix(6,0,0,-6,12884901000,-12884901000)" fill="#58595b"/>
<use xlink:href="#font_0_ed" transform="matrix(6,0,0,-6,62.221494,138.1074)" fill="#58595b"/>
<use xlink:href="#font_0_c7" transform="matrix(6,0,0,-6,65.461498,138.0294)" fill="#58595b"/>
<use xlink:href="#font_0_e1" transform="matrix(6,0,0,-6,68.611499,138.1074)" fill="#58595b"/>
<use xlink:href="#font_0_9c" transform="matrix(6,0,0,-6,71.26949,138.1074)" fill="#58595b"/>
<use xlink:href="#font_0_dd" transform="matrix(6,0,0,-6,74.521488,138.0294)" fill="#58595b"/>
<use xlink:href="#font_0_9c" transform="matrix(6,0,0,-6,76.39229,138.1074)" fill="#58595b"/>
<use xlink:href="#font_0_dd" transform="matrix(6,0,0,-6,79.64428,138.0294)" fill="#58595b"/>
<use xlink:href="#font_0_1" transform="matrix(6,0,0,-6,12884901000,-12884901000)" fill="#58595b"/>
<use xlink:href="#font_0_5b" transform="matrix(6,0,0,-6,82.758289,138.1074)" fill="#58595b"/>
<use xlink:href="#font_0_9c" transform="matrix(6,0,0,-6,86.01629,138.1074)" fill="#58595b"/>
<use xlink:href="#font_0_dd" transform="matrix(6,0,0,-6,89.26828,138.0294)" fill="#58595b"/>
<use xlink:href="#font_0_f8" transform="matrix(6,0,0,-6,91.08628,138.0294)" fill="#58595b"/>
<use xlink:href="#font_0_b0" transform="matrix(6,0,0,-6,94.39828,138.0294)" fill="#58595b"/>
<use xlink:href="#font_0_92" transform="matrix(6,0,0,-6,95.71228,138.1074)" fill="#58595b"/>
<use xlink:href="#font_0_9c" transform="matrix(6,0,0,-6,98.59228,138.1074)" fill="#58595b"/>
<use xlink:href="#font_0_169" transform="matrix(6,0,0,-6,101.80827,136.2534)" fill="#58595b"/>
<use xlink:href="#font_0_1" transform="matrix(6,0,0,-6,12884901000,-12884901000)" fill="#58595b"/>
<use xlink:href="#font_0_105" transform="matrix(6,0,0,-6,19.4475,145.2294)" fill="#58595b"/>
<use xlink:href="#font_0_9c" transform="matrix(6,0,0,-6,22.081501,145.3074)" fill="#58595b"/>
<use xlink:href="#font_0_b0" transform="matrix(6,0,0,-6,25.327502,145.2294)" fill="#58595b"/>
<use xlink:href="#font_0_e8" transform="matrix(6,0,0,-6,26.509503,145.2954)" fill="#58595b"/>
<use xlink:href="#font_0_9c" transform="matrix(6,0,0,-6,28.789502,145.3074)" fill="#58595b"/>
<use xlink:href="#font_0_c7" transform="matrix(6,0,0,-6,32.0475,145.2294)" fill="#58595b"/>
<use xlink:href="#font_0_1" transform="matrix(6,0,0,-6,12884901000,-12884901000)" fill="#58595b"/>
<use xlink:href="#font_0_91" transform="matrix(6,0,0,-6,36.7935,145.3074)" fill="#58595b"/>
<use xlink:href="#font_0_9c" transform="matrix(6,0,0,-6,40.045499,145.3074)" fill="#58595b"/>
<use xlink:href="#font_0_dd" transform="matrix(6,0,0,-6,43.297498,145.2294)" fill="#58595b"/>
<use xlink:href="#font_0_85" transform="matrix(6,0,0,-6,45.198896,145.3074)" fill="#58595b"/>
<use xlink:href="#font_0_e8" transform="matrix(6,0,0,-6,48.04889,145.2954)" fill="#58595b"/>
<use xlink:href="#font_0_9c" transform="matrix(6,0,0,-6,50.32889,145.3074)" fill="#58595b"/>
<use xlink:href="#font_0_c7" transform="matrix(6,0,0,-6,53.58689,145.2294)" fill="#58595b"/>
<use xlink:href="#font_0_1" transform="matrix(6,0,0,-6,12884901000,-12884901000)" fill="#58595b"/>
<use xlink:href="#font_0_f9" transform="matrix(6,0,0,-6,57.93089,145.2294)" fill="#58595b"/>
<use xlink:href="#font_0_b0" transform="matrix(6,0,0,-6,62.802888,145.2294)" fill="#58595b"/>
<use xlink:href="#font_0_dd" transform="matrix(6,0,0,-6,64.224887,145.2294)" fill="#58595b"/>
<use xlink:href="#font_0_1" transform="matrix(6,0,0,-6,12884901000,-12884901000)" fill="#58595b"/>
<use xlink:href="#font_0_5b" transform="matrix(6,0,0,-6,67.33889,145.3074)" fill="#58595b"/>
<use xlink:href="#font_0_b0" transform="matrix(6,0,0,-6,70.69889,145.2294)" fill="#58595b"/>
<use xlink:href="#font_0_9c" transform="matrix(6,0,0,-6,72.01289,145.3074)" fill="#58595b"/>
<use xlink:href="#font_0_1" transform="matrix(6,0,0,-6,12884901000,-12884901000)" fill="#58595b"/>
<use xlink:href="#font_0_a8" transform="matrix(6,0,0,-6,76.50089,146.4234)" fill="#58595b"/>
<use xlink:href="#font_0_9c" transform="matrix(6,0,0,-6,79.956897,145.3074)" fill="#58595b"/>
<use xlink:href="#font_0_dd" transform="matrix(6,0,0,-6,83.208889,145.2294)" fill="#58595b"/>
<use xlink:href="#font_0_c7" transform="matrix(6,0,0,-6,85.30289,145.2294)" fill="#58595b"/>
<use xlink:href="#font_0_9c" transform="matrix(6,0,0,-6,88.52489,145.3074)" fill="#58595b"/>
<use xlink:href="#font_0_156" transform="matrix(6,0,0,-6,91.79488,145.27141)" fill="#58595b"/>
<use xlink:href="#font_0_41" transform="matrix(6,0,0,-6,19.633502,159.6294)" fill="#58595b"/>
<use xlink:href="#font_0_ce" transform="matrix(6,0,0,-6,24.199501,159.7074)" fill="#58595b"/>
<use xlink:href="#font_0_c7" transform="matrix(6,0,0,-6,27.6555,159.6294)" fill="#58595b"/>
<use xlink:href="#font_0_e8" transform="matrix(6,0,0,-6,30.715504,159.69539)" fill="#58595b"/>
<use xlink:href="#font_0_85" transform="matrix(6,0,0,-6,33.0675,159.7074)" fill="#58595b"/>
<use xlink:href="#font_0_a8" transform="matrix(6,0,0,-6,36.0975,160.8234)" fill="#58595b"/>
<use xlink:href="#font_0_1" transform="matrix(6,0,0,-6,12884901000,-12884901000)" fill="#58595b"/>
<use xlink:href="#font_0_91" transform="matrix(6,0,0,-6,41.077505,159.7074)" fill="#58595b"/>
<use xlink:href="#font_0_b0" transform="matrix(6,0,0,-6,44.431505,159.6294)" fill="#58595b"/>
<use xlink:href="#font_0_e1" transform="matrix(6,0,0,-6,45.673505,159.7074)" fill="#58595b"/>
<use xlink:href="#font_0_1" transform="matrix(6,0,0,-6,12884901000,-12884901000)" fill="#58595b"/>
<use xlink:href="#font_0_23" transform="matrix(6,0,0,-6,49.921506,159.6294)" fill="#58595b"/>
<use xlink:href="#font_0_dd" transform="matrix(6,0,0,-6,52.998907,159.6294)" fill="#58595b"/>
<use xlink:href="#font_0_9c" transform="matrix(6,0,0,-6,54.8709,159.7074)" fill="#58595b"/>
<use xlink:href="#font_0_b0" transform="matrix(6,0,0,-6,58.116899,159.6294)" fill="#58595b"/>
<use xlink:href="#font_0_e8" transform="matrix(6,0,0,-6,59.298898,159.69539)" fill="#58595b"/>
<use xlink:href="#font_0_85" transform="matrix(6,0,0,-6,61.650899,159.7074)" fill="#58595b"/>
<use xlink:href="#font_0_a8" transform="matrix(6,0,0,-6,64.6809,160.8234)" fill="#58595b"/>
<use xlink:href="#font_0_1" transform="matrix(6,0,0,-6,12884901000,-12884901000)" fill="#58595b"/>
<use xlink:href="#font_0_f8" transform="matrix(6,0,0,-6,69.1929,159.6294)" fill="#58595b"/>
<use xlink:href="#font_0_ce" transform="matrix(6,0,0,-6,72.3489,159.7074)" fill="#58595b"/>
<use xlink:href="#font_0_c7" transform="matrix(6,0,0,-6,75.8049,159.6294)" fill="#58595b"/>
<use xlink:href="#font_0_1" transform="matrix(6,0,0,-6,12884901000,-12884901000)" fill="#58595b"/>
<use xlink:href="#font_0_11b" transform="matrix(6,0,0,-6,80.3349,159.7074)" fill="#58595b"/>
<use xlink:href="#font_0_1" transform="matrix(6,0,0,-6,12884901000,-12884901000)" fill="#58595b"/>
<use xlink:href="#font_0_91" transform="matrix(6,0,0,-6,85.242908,159.7074)" fill="#58595b"/>
<use xlink:href="#font_0_b0" transform="matrix(6,0,0,-6,88.5969,159.6294)" fill="#58595b"/>
<use xlink:href="#font_0_e1" transform="matrix(6,0,0,-6,89.838909,159.7074)" fill="#58595b"/>
<use xlink:href="#font_0_1" transform="matrix(6,0,0,-6,12884901000,-12884901000)" fill="#58595b"/>
<use xlink:href="#font_0_115" transform="matrix(6,0,0,-6,93.8649,159.6294)" fill="#58595b"/>
<use xlink:href="#font_0_113" transform="matrix(6,0,0,-6,97.1949,159.7074)" fill="#58595b"/>
<use xlink:href="#font_0_1" transform="matrix(6,0,0,-6,12884901000,-12884901000)" fill="#58595b"/>
<use xlink:href="#font_0_68" transform="matrix(6,0,0,-6,102.09689,159.7074)" fill="#58595b"/>
<use xlink:href="#font_0_ad" transform="matrix(6,0,0,-6,106.1103,159.6294)" fill="#58595b"/>
<use xlink:href="#font_0_dd" transform="matrix(6,0,0,-6,109.3203,159.6294)" fill="#58595b"/>
<use xlink:href="#font_0_73" transform="matrix(6,0,0,-6,19.3155,174.0294)" fill="#58595b"/>
<use xlink:href="#font_0_9c" transform="matrix(6,0,0,-6,22.891503,174.1074)" fill="#58595b"/>
<use xlink:href="#font_0_dd" transform="matrix(6,0,0,-6,26.143504,174.0294)" fill="#58595b"/>
<use xlink:href="#font_0_9c" transform="matrix(6,0,0,-6,28.015503,174.1074)" fill="#58595b"/>
<use xlink:href="#font_0_b0" transform="matrix(6,0,0,-6,31.261504,174.0294)" fill="#58595b"/>
<use xlink:href="#font_0_c7" transform="matrix(6,0,0,-6,32.689508,174.0294)" fill="#58595b"/>
<use xlink:href="#font_0_91" transform="matrix(6,0,0,-6,36.103506,174.1074)" fill="#58595b"/>
<use xlink:href="#font_0_85" transform="matrix(6,0,0,-6,39.379507,174.1074)" fill="#58595b"/>
<use xlink:href="#font_0_dd" transform="matrix(6,0,0,-6,42.505506,174.0294)" fill="#58595b"/>
<use xlink:href="#font_0_9c" transform="matrix(6,0,0,-6,44.376905,174.1074)" fill="#58595b"/>
<use xlink:href="#font_0_c7" transform="matrix(6,0,0,-6,47.634904,174.0294)" fill="#58595b"/>
<use xlink:href="#font_0_1" transform="matrix(6,0,0,-6,12884901000,-12884901000)" fill="#58595b"/>
<use xlink:href="#font_0_5b" transform="matrix(6,0,0,-6,52.134904,174.1074)" fill="#58595b"/>
<use xlink:href="#font_0_b0" transform="matrix(6,0,0,-6,55.494905,174.0294)" fill="#58595b"/>
<use xlink:href="#font_0_9c" transform="matrix(6,0,0,-6,56.808904,174.1074)" fill="#58595b"/>
<use xlink:href="#font_0_1" transform="matrix(6,0,0,-6,12884901000,-12884901000)" fill="#58595b"/>
<use xlink:href="#font_0_9c" transform="matrix(6,0,0,-6,61.2849,174.1074)" fill="#58595b"/>
<use xlink:href="#font_0_b0" transform="matrix(6,0,0,-6,64.5309,174.0294)" fill="#58595b"/>
<use xlink:href="#font_0_c7" transform="matrix(6,0,0,-6,65.9589,174.0294)" fill="#58595b"/>
<use xlink:href="#font_0_9c" transform="matrix(6,0,0,-6,69.1809,174.1074)" fill="#58595b"/>
<use xlink:href="#font_0_c7" transform="matrix(6,0,0,-6,72.438899,174.0294)" fill="#58595b"/>
<use xlink:href="#font_0_1" transform="matrix(6,0,0,-6,12884901000,-12884901000)" fill="#58595b"/>
<use xlink:href="#font_0_63" transform="matrix(6,0,0,-6,76.66229,174.0294)" fill="#58595b"/>
<use xlink:href="#font_0_9c" transform="matrix(6,0,0,-6,79.572299,174.1074)" fill="#58595b"/>
<use xlink:href="#font_0_dd" transform="matrix(6,0,0,-6,82.82429,174.0294)" fill="#58595b"/>
<use xlink:href="#font_0_c6" transform="matrix(6,0,0,-6,84.91829,174.0294)" fill="#58595b"/>
<use xlink:href="#font_0_b0" transform="matrix(6,0,0,-6,89.646289,174.0294)" fill="#58595b"/>
<use xlink:href="#font_0_c7" transform="matrix(6,0,0,-6,91.07429,174.0294)" fill="#58595b"/>
<use xlink:href="#font_0_1" transform="matrix(6,0,0,-6,12884901000,-12884901000)" fill="#58595b"/>
<use xlink:href="#font_0_c6" transform="matrix(6,0,0,-6,95.74229,174.0294)" fill="#58595b"/>
<use xlink:href="#font_0_b0" transform="matrix(6,0,0,-6,100.47029,174.0294)" fill="#58595b"/>
<use xlink:href="#font_0_e8" transform="matrix(6,0,0,-6,101.65229,174.0954)" fill="#58595b"/>
<use xlink:href="#font_0_1" transform="matrix(6,0,0,-6,12884901000,-12884901000)" fill="#58595b"/>
<use xlink:href="#font_0_ed" transform="matrix(6,0,0,-6,105.47429,174.1074)" fill="#58595b"/>
<use xlink:href="#font_0_c7" transform="matrix(6,0,0,-6,108.71429,174.0294)" fill="#58595b"/>
<use xlink:href="#font_0_e1" transform="matrix(6,0,0,-6,111.86429,174.1074)" fill="#58595b"/>
<use xlink:href="#font_0_159" transform="matrix(6,0,0,-6,114.660289,174.07141)" fill="#58595b"/>
<use xlink:href="#font_0_f9" transform="matrix(6,0,0,-6,19.357502,220.6554)" fill="#58595b"/>
<use xlink:href="#font_0_f9" transform="matrix(6,0,0,-6,24.001503,220.6554)" fill="#58595b"/>
<use xlink:href="#font_0_f9" transform="matrix(6,0,0,-6,28.645504,220.6554)" fill="#58595b"/>
<use xlink:href="#font_0_154" transform="matrix(6,0,0,-6,33.2235,220.6974)" fill="#58595b"/>
<use xlink:href="#font_0_ad" transform="matrix(6,0,0,-6,34.717504,220.6554)" fill="#58595b"/>
<use xlink:href="#font_0_98" transform="matrix(6,0,0,-6,37.8195,220.7334)" fill="#58595b"/>
<use xlink:href="#font_0_ad" transform="matrix(6,0,0,-6,41.551504,220.6554)" fill="#58595b"/>
<use xlink:href="#font_0_169" transform="matrix(6,0,0,-6,44.725503,218.8794)" fill="#58595b"/>
<use xlink:href="#font_0_f8" transform="matrix(6,0,0,-6,47.203504,220.6554)" fill="#58595b"/>
<use xlink:href="#font_0_ce" transform="matrix(6,0,0,-6,50.3589,220.7334)" fill="#58595b"/>
<use xlink:href="#font_0_91" transform="matrix(6,0,0,-6,53.892904,220.7334)" fill="#58595b"/>
<use xlink:href="#font_0_85" transform="matrix(6,0,0,-6,57.168905,220.7334)" fill="#58595b"/>
<use xlink:href="#font_0_154" transform="matrix(6,0,0,-6,60.2289,220.6974)" fill="#58595b"/>
<use xlink:href="#font_0_98" transform="matrix(6,0,0,-6,61.4529,220.7334)" fill="#58595b"/>
<use xlink:href="#font_0_9c" transform="matrix(6,0,0,-6,64.9809,220.7334)" fill="#58595b"/>
<path transform="matrix(1,0,0,-1,-6.6050989,-.16879273)" stroke-width="1.25" stroke-linecap="butt" stroke-miterlimit="10" stroke-linejoin="miter" fill="none" stroke="#ffffff" d="M 0 0 L -15 0 M 167.906 0 L 182.906 0 M 0 -240.945 L -15 -240.945 M 167.906 -240.945 L 182.906 -240.945 M 6 6 L 6 21 M 6 -246.945 L 6 -261.945 M 161.906 6 L 161.906 21 M 161.906 -246.945 L 161.906 -261.945 "/>
<path transform="matrix(1,0,0,-1,-6.6050989,-.16879273)" stroke-width=".25" stroke-linecap="butt" stroke-miterlimit="10" stroke-linejoin="miter" fill="none" stroke="#000000" d="M 0 0 L -15 0 M 167.906 0 L 182.906 0 M 0 -240.945 L -15 -240.945 M 167.906 -240.945 L 182.906 -240.945 M 6 6 L 6 21 M 6 -246.945 L 6 -261.945 M 161.906 6 L 161.906 21 M 161.906 -246.945 L 161.906 -261.945 "/>
<clipPath id="cp1">
<path transform="matrix(1,0,0,-1,-30.109,270.28)" d="M 0 0 L 214.913 0 L 214.913 299.953 L 0 299.953 Z "/>
</clipPath>
<g clip-path="url(#cp1)">
<path transform="matrix(1,0,0,-1,-12.108999,-8.672791)" stroke-width="1.25" stroke-linecap="butt" stroke-miterlimit="10" stroke-linejoin="miter" fill="none" stroke="#ffffff" d="M 0 0 L -18 0 M 178.913 0 L 196.913 0 M 0 -257.953 L -18 -257.953 M 178.913 -257.953 L 196.913 -257.953 M 3 3 L 3 21 M 3 -260.953 L 3 -278.953 M 175.913 3 L 175.913 21 M 175.913 -260.953 L 175.913 -278.953 "/>
<path transform="matrix(1,0,0,-1,-12.108999,-8.672791)" stroke-width=".25" stroke-linecap="butt" stroke-miterlimit="10" stroke-linejoin="miter" fill="none" stroke="#000000" d="M 0 0 L -18 0 M 178.913 0 L 196.913 0 M 0 -257.953 L -18 -257.953 M 178.913 -257.953 L 196.913 -257.953 M 3 3 L 3 21 M 3 -260.953 L 3 -278.953 M 175.913 3 L 175.913 21 M 175.913 -260.953 L 175.913 -278.953 "/>
</g>
</g>
</svg>
