<svg id="Ebene_1" data-name="Ebene 1" xmlns="http://www.w3.org/2000/svg"  width="303.307pt" height="193.89pt" viewBox="0 0 303.307 193.89"><defs><style>.cls-1{fill:#10508c;}.cls-2{isolation:isolate;}.cls-3{fill:#fff;}</style></defs><title>Zeichenfläche 1</title>
<g id="all">
    <g transform="scale(1.25822552864762)">
<path id="path14" class="cls-1" d="M0,155.91H240.94V0H0Z"/><g id="g24"><g id="text32" class="cls-2"><g class="cls-2"><path class="cls-3" d="M75.65,127.24a1.67,1.67,0,0,1-1.16.34,1.3,1.3,0,0,1-1.3-.64,1.5,1.5,0,0,1-.13-.69V123.1h.52v3a2,2,0,0,0,.08.64.85.85,0,0,0,.86.43,1,1,0,0,0,.78-.28,1,1,0,0,0,.17-.69V123.1H76v3.14C76,126.77,75.92,127,75.65,127.24Z"/></g><g class="cls-2"><path class="cls-3" d="M80.26,127.51h-2.2V123.1h.53v4h1.74Z"/></g><g class="cls-2"><path class="cls-3" d="M85.63,127.51l-.26-3.23c0-.28,0-.72,0-.74s-.1.42-.17.69l-.95,3.29h-.45l-.87-3.13c-.13-.43-.21-.76-.22-.84s0,.58-.05.84l-.24,3.14h-.51l.39-4.41H83l.8,2.88c.11.41.17.73.17.76s.06-.37.16-.71L85,123.1h.78l.38,4.41Z"/></g><g class="cls-2"><path class="cls-3" d="M90.51,126.14a.43.43,0,0,1-.42-.42.42.42,0,0,1,.42-.42.42.42,0,0,1,0,.85Z"/></g><g class="cls-2"><path class="cls-3" d="M97.07,127.32a1.7,1.7,0,0,1-1,.27,2.59,2.59,0,0,1-1.41-.4l.23-.41a1.93,1.93,0,0,0,1.18.38,1,1,0,0,0,.7-.19.75.75,0,0,0,.31-.63c0-.39-.26-.66-.79-.82l-.44-.14a1.67,1.67,0,0,1-.78-.39,1,1,0,0,1-.28-.72A1.28,1.28,0,0,1,96.23,123a2.31,2.31,0,0,1,1.33.42l-.23.38a1.78,1.78,0,0,0-1.07-.37c-.55,0-.88.28-.88.73s.21.55.73.72l.51.16a1.52,1.52,0,0,1,.78.44,1.22,1.22,0,0,1,.29.78A1.26,1.26,0,0,1,97.07,127.32Z"/></g><g class="cls-2"><path class="cls-3" d="M102.11,123.54h-1.2v4h-.51v-4H99.23v-.44h2.92Z"/></g><g class="cls-2"><path class="cls-3" d="M106.31,127.24a1.67,1.67,0,0,1-1.16.34,1.29,1.29,0,0,1-1.3-.64,1.5,1.5,0,0,1-.13-.69V123.1h.52v3a2,2,0,0,0,.08.64.85.85,0,0,0,.86.43,1,1,0,0,0,.78-.28,1,1,0,0,0,.17-.69V123.1h.52v3.14C106.65,126.77,106.58,127,106.31,127.24Z"/></g><g class="cls-2"><path class="cls-3" d="M111.19,123.54H110v4h-.51v-4H108.3v-.44h2.92Z"/></g><g class="cls-2"><path class="cls-3" d="M115.44,123.54h-1.2v4h-.51v-4h-1.18v-.44h2.92Z"/></g><g class="cls-2"><path class="cls-3" d="M118.61,127.58a1.8,1.8,0,0,1-1.36-.55,2.39,2.39,0,0,1-.55-1.71,2.34,2.34,0,0,1,.68-1.85,1.65,1.65,0,0,1,1.15-.42,1.79,1.79,0,0,1,1.21.44l-.24.33a1.58,1.58,0,0,0-1-.34,1.08,1.08,0,0,0-1.1.75,3.33,3.33,0,0,0-.17,1.12,2.43,2.43,0,0,0,.31,1.34,1.34,1.34,0,0,0,1.07.47,1.32,1.32,0,0,0,.7-.17v-1.34h-.89l-.1-.44h1.49v2.06A2.4,2.4,0,0,1,118.61,127.58Z"/></g><g class="cls-2"><path class="cls-3" d="M124.49,127.51l-.42-1.36h-1.65l-.42,1.36h-.53l1.47-4.41h.69l1.46,4.41Zm-1.23-3.95-.69,2.16h1.37Z"/></g><g class="cls-2"><path class="cls-3" d="M128.84,127.51a10.17,10.17,0,0,0-1.12-1.71.55.55,0,0,0-.49-.28v2h-.53V123.1h1a1.63,1.63,0,0,1,1.11.28,1.16,1.16,0,0,1,.44.93,1.12,1.12,0,0,1-1.17,1.21H128a2.62,2.62,0,0,1,.44.49c.19.25,1,1.5,1,1.5Zm-.55-3.88a1.43,1.43,0,0,0-.55-.09h-.51v1.65h.47a1.11,1.11,0,0,0,.8-.22.89.89,0,0,0,.23-.66A.73.73,0,0,0,128.29,123.63Z"/></g><g class="cls-2"><path class="cls-3" d="M133.69,123.54h-1.2v4H132v-4h-1.18v-.44h2.92Z"/></g><g class="cls-2"><path class="cls-3" d="M137.57,126.14a.43.43,0,0,1-.42-.42.42.42,0,0,1,.42-.42.42.42,0,0,1,0,.85Z"/></g><g class="cls-2"><path class="cls-3" d="M145.57,127.51l-.26-3.23c0-.28,0-.72,0-.74s-.1.42-.17.69l-.95,3.29h-.45l-.87-3.13c-.13-.43-.21-.76-.22-.84s0,.58-.05.84l-.24,3.14h-.51l.39-4.41H143l.8,2.88c.11.41.17.73.17.76s.06-.37.16-.71l.83-2.93h.78l.38,4.41Z"/></g><g class="cls-2"><path class="cls-3" d="M150.62,127.24a1.67,1.67,0,0,1-1.16.34,1.3,1.3,0,0,1-1.3-.64,1.5,1.5,0,0,1-.13-.69V123.1h.52v3a2,2,0,0,0,.08.64.85.85,0,0,0,.86.43,1,1,0,0,0,.78-.28,1,1,0,0,0,.17-.69V123.1H151v3.14C151,126.77,150.89,127,150.62,127.24Z"/></g><g class="cls-2"><path class="cls-3" d="M155.43,127.51l-1.41-2.7c-.28-.53-.5-1.06-.5-1.06s.05.63.06,1.2l0,2.56H153V123.1h.61l1.47,2.81a9.81,9.81,0,0,1,.41.93s-.05-.71-.06-1.34l0-2.4H156v4.41Z"/></g><g class="cls-2"><path class="cls-3" d="M158,127.51V123.1h.51v4.41Z"/></g><g class="cls-2"><path class="cls-3" d="M162.33,127.58A1.71,1.71,0,0,1,161,127a2.5,2.5,0,0,1-.53-1.68,2,2,0,0,1,1.85-2.28,1.81,1.81,0,0,1,1.11.36l-.28.34a1.32,1.32,0,0,0-.84-.28,1.12,1.12,0,0,0-1.09.76,2.86,2.86,0,0,0-.19,1.17,2.33,2.33,0,0,0,.14.93,1.24,1.24,0,0,0,1.18.82,1.38,1.38,0,0,0,.86-.28l.28.35A2.27,2.27,0,0,1,162.33,127.58Z"/></g><g class="cls-2"><path class="cls-3" d="M167.66,127.51v-2.13H165.8v2.13h-.51V123.1h.51v1.84h1.86V123.1h.53v4.41Z"/></g><g class="cls-2"><path class="cls-3" d="M49.58,136.51v-2.13H47.72v2.13h-.51V132.1h.51v1.84h1.86V132.1h.53v4.41Z"/></g><g class="cls-2"><path class="cls-3" d="M54.73,136.51l-.42-1.36H52.67l-.42,1.36h-.53l1.47-4.41h.69l1.46,4.41Zm-1.23-3.95-.69,2.16h1.37Z"/></g><g class="cls-2"><path class="cls-3" d="M60.61,136.51l-.26-3.23c0-.28,0-.72,0-.74s-.1.42-.17.69l-.95,3.29h-.45l-.87-3.13c-.13-.43-.21-.76-.22-.84s0,.58-.05.84l-.24,3.14h-.51l.39-4.41H58l.8,2.88c.11.41.17.73.17.76s.06-.37.16-.71L60,132.1h.78l.38,4.41Z"/></g><g class="cls-2"><path class="cls-3" d="M65.3,136.38a2.53,2.53,0,0,1-1.06.13H63.1V132.1h.64a4,4,0,0,1,1.31.1,1.08,1.08,0,0,1,.75,1,1,1,0,0,1-.79,1,1.24,1.24,0,0,1,.58.23,1.11,1.11,0,0,1,.4.9A1.13,1.13,0,0,1,65.3,136.38Zm-.58-3.8a1.9,1.9,0,0,0-.48,0h-.62V134h.77c.48,0,.64-.08.77-.38a.84.84,0,0,0,.07-.34A.68.68,0,0,0,64.72,132.58Zm.19,1.9a2.55,2.55,0,0,0-.51,0h-.78v1.65h.94c.65,0,.89-.3.89-.82A.75.75,0,0,0,64.9,134.48Z"/></g><g class="cls-2"><path class="cls-3" d="M70.44,136.25a1.67,1.67,0,0,1-1.16.34,1.3,1.3,0,0,1-1.3-.64,1.5,1.5,0,0,1-.13-.69V132.1h.52v3a2,2,0,0,0,.08.64.85.85,0,0,0,.86.43,1,1,0,0,0,.78-.28,1,1,0,0,0,.17-.69V132.1h.52v3.14C70.77,135.77,70.7,136,70.44,136.25Z"/></g><g class="cls-2"><path class="cls-3" d="M75,136.51a10.17,10.17,0,0,0-1.12-1.71.55.55,0,0,0-.49-.28v2h-.53V132.1h1a1.63,1.63,0,0,1,1.11.28,1.16,1.16,0,0,1,.44.93,1.12,1.12,0,0,1-1.17,1.21h-.06a2.62,2.62,0,0,1,.44.49c.19.25,1,1.5,1,1.5Zm-.55-3.88a1.43,1.43,0,0,0-.55-.09h-.51v1.65h.47a1.11,1.11,0,0,0,.8-.22.89.89,0,0,0,.23-.66A.73.73,0,0,0,74.44,132.63Z"/></g><g class="cls-2"><path class="cls-3" d="M79.06,136.58A1.8,1.8,0,0,1,77.7,136a2.39,2.39,0,0,1-.55-1.71,2.34,2.34,0,0,1,.68-1.85A1.65,1.65,0,0,1,79,132a1.79,1.79,0,0,1,1.21.44l-.24.33a1.57,1.57,0,0,0-1-.34,1.08,1.08,0,0,0-1.1.75,3.35,3.35,0,0,0-.17,1.12,2.43,2.43,0,0,0,.31,1.34,1.35,1.35,0,0,0,1.07.47,1.32,1.32,0,0,0,.7-.17v-1.34h-.89l-.1-.44H80.3v2.06A2.39,2.39,0,0,1,79.06,136.58Z"/></g><g class="cls-2"><path class="cls-3" d="M84.77,135.14a.43.43,0,0,1-.42-.42.42.42,0,0,1,.42-.42.42.42,0,0,1,0,.85Z"/></g><g class="cls-2"><path class="cls-3" d="M92.69,136.51H92l-.55-2.45c-.14-.65-.23-1.17-.23-1.24s-.1.61-.23,1.2l-.54,2.49h-.68l-1-4.41h.57l.56,2.58c.12.55.23,1.27.24,1.34s.14-.77.25-1.27l.58-2.64h.6l.61,2.74c.14.64.22,1.13.22,1.18s.12-.7.26-1.36l.55-2.56h.53Z"/></g><g class="cls-2"><path class="cls-3" d="M98,136.17a1.54,1.54,0,0,1-1.12.42,1.6,1.6,0,0,1-1.25-.56,2.62,2.62,0,0,1-.53-1.75c0-1.4.67-2.26,1.75-2.26a1.59,1.59,0,0,1,1.39.72,2.82,2.82,0,0,1,.4,1.63A2.21,2.21,0,0,1,98,136.17Zm-.16-3.12a1,1,0,0,0-1-.6,1.05,1.05,0,0,0-.94.51,2.55,2.55,0,0,0-.23,1.22,3.4,3.4,0,0,0,.28,1.54,1.15,1.15,0,0,0,.94.47,1,1,0,0,0,.82-.38,2,2,0,0,0,.32-1.36A3.34,3.34,0,0,0,97.86,133.05Z"/></g><g class="cls-2"><path class="cls-3" d="M102.79,136.51h-2.2V132.1h.53v4h1.74Z"/></g><g class="cls-2"><path class="cls-3" d="M106.74,132.54H105V134h1.41v.43H105v2.09h-.53V132.1h2.32Z"/></g><g class="cls-2"><path class="cls-3" d="M110.43,136.32a1.7,1.7,0,0,1-1,.27,2.59,2.59,0,0,1-1.41-.4l.23-.41a1.93,1.93,0,0,0,1.18.38,1,1,0,0,0,.7-.19.75.75,0,0,0,.31-.63c0-.39-.26-.66-.79-.82l-.44-.14a1.67,1.67,0,0,1-.78-.39,1,1,0,0,1-.28-.72,1.28,1.28,0,0,1,1.43-1.27,2.31,2.31,0,0,1,1.33.42l-.23.38a1.78,1.78,0,0,0-1.07-.37c-.55,0-.88.28-.88.73s.21.55.73.72l.51.16a1.52,1.52,0,0,1,.78.44,1.22,1.22,0,0,1,.29.78A1.26,1.26,0,0,1,110.43,136.32Z"/></g><g class="cls-2"><path class="cls-3" d="M115.15,136.38a2.53,2.53,0,0,1-1.06.13H113V132.1h.64a4,4,0,0,1,1.31.1,1.08,1.08,0,0,1,.75,1,1,1,0,0,1-.79,1,1.24,1.24,0,0,1,.58.23,1.11,1.11,0,0,1,.4.9A1.13,1.13,0,0,1,115.15,136.38Zm-.58-3.8a1.9,1.9,0,0,0-.48,0h-.62V134h.77c.48,0,.64-.08.77-.38a.84.84,0,0,0,.07-.34A.68.68,0,0,0,114.56,132.58Zm.19,1.9a2.55,2.55,0,0,0-.51,0h-.78v1.65h.94c.65,0,.89-.3.89-.82A.75.75,0,0,0,114.75,134.48Z"/></g><g class="cls-2"><path class="cls-3" d="M120.29,136.25a1.67,1.67,0,0,1-1.16.34,1.3,1.3,0,0,1-1.3-.64,1.5,1.5,0,0,1-.13-.69V132.1h.52v3a2,2,0,0,0,.08.64.85.85,0,0,0,.86.43,1,1,0,0,0,.78-.28,1,1,0,0,0,.17-.69V132.1h.52v3.14C120.62,135.77,120.55,136,120.29,136.25Z"/></g><g class="cls-2"><path class="cls-3" d="M124.84,136.51a10.17,10.17,0,0,0-1.12-1.71.55.55,0,0,0-.49-.28v2h-.53V132.1h1a1.63,1.63,0,0,1,1.11.28,1.16,1.16,0,0,1,.44.93,1.12,1.12,0,0,1-1.17,1.21H124a2.62,2.62,0,0,1,.44.49c.19.25,1,1.5,1,1.5Zm-.55-3.88a1.43,1.43,0,0,0-.55-.09h-.51v1.65h.47a1.11,1.11,0,0,0,.8-.22.89.89,0,0,0,.23-.66A.73.73,0,0,0,124.29,132.63Z"/></g><g class="cls-2"><path class="cls-3" d="M128.9,136.58a1.8,1.8,0,0,1-1.36-.55,2.39,2.39,0,0,1-.55-1.71,2.34,2.34,0,0,1,.68-1.85,1.65,1.65,0,0,1,1.15-.42,1.79,1.79,0,0,1,1.21.44l-.24.33a1.57,1.57,0,0,0-1-.34,1.08,1.08,0,0,0-1.1.75,3.35,3.35,0,0,0-.17,1.12,2.43,2.43,0,0,0,.31,1.34,1.35,1.35,0,0,0,1.07.47,1.32,1.32,0,0,0,.7-.17v-1.34h-.89l-.1-.44h1.48v2.06A2.39,2.39,0,0,1,128.9,136.58Z"/></g><g class="cls-2"><path class="cls-3" d="M134.62,135.14a.43.43,0,0,1-.42-.42.42.42,0,0,1,.42-.42.42.42,0,0,1,0,.85Z"/></g><g class="cls-2"><path class="cls-3" d="M141.39,134.41a1.46,1.46,0,0,1-1.07.35h-.77v1.75H139V132.1h1.22a1.62,1.62,0,0,1,1,.21,1.21,1.21,0,0,1,.57,1.05A1.3,1.3,0,0,1,141.39,134.41Zm-.44-1.65a1.2,1.2,0,0,0-.84-.22h-.56v1.78h.74a.79.79,0,0,0,.69-.24.89.89,0,0,0,.23-.62A.85.85,0,0,0,140.95,132.76Z"/></g><g class="cls-2"><path class="cls-3" d="M145.83,136.51l-.42-1.36h-1.65l-.42,1.36h-.53l1.47-4.41H145l1.46,4.41Zm-1.23-3.95-.69,2.16h1.37Z"/></g><g class="cls-2"><path class="cls-3" d="M150.17,136.51A10.17,10.17,0,0,0,149,134.8a.55.55,0,0,0-.49-.28v2H148V132.1h1a1.63,1.63,0,0,1,1.11.28,1.16,1.16,0,0,1,.44.93,1.12,1.12,0,0,1-1.17,1.21h-.06a2.62,2.62,0,0,1,.44.49c.19.25,1,1.5,1,1.5Zm-.55-3.88a1.43,1.43,0,0,0-.55-.09h-.51v1.65H149a1.11,1.11,0,0,0,.8-.22.89.89,0,0,0,.23-.66A.73.73,0,0,0,149.63,132.63Z"/></g><g class="cls-2"><path class="cls-3" d="M152.58,136.51V132.1h.51v4.41Z"/></g><g class="cls-2"><path class="cls-3" d="M157.33,136.32a1.7,1.7,0,0,1-1,.27,2.59,2.59,0,0,1-1.41-.4l.23-.41a1.93,1.93,0,0,0,1.18.38,1,1,0,0,0,.7-.19.75.75,0,0,0,.31-.63c0-.39-.26-.66-.79-.82l-.44-.14a1.67,1.67,0,0,1-.78-.39,1,1,0,0,1-.28-.72,1.28,1.28,0,0,1,1.43-1.27,2.31,2.31,0,0,1,1.33.42l-.23.38a1.78,1.78,0,0,0-1.07-.37c-.55,0-.88.28-.88.73s.21.55.73.72l.51.16a1.51,1.51,0,0,1,.78.44,1.22,1.22,0,0,1,.29.78A1.27,1.27,0,0,1,157.33,136.32Z"/></g><g class="cls-2"><path class="cls-3" d="M162.26,135.14a.43.43,0,0,1-.42-.42.42.42,0,0,1,.42-.42.42.42,0,0,1,0,.85Z"/></g><g class="cls-2"><path class="cls-3" d="M169,134.41a1.46,1.46,0,0,1-1.07.35h-.77v1.75h-.51V132.1h1.22a1.62,1.62,0,0,1,1,.21,1.21,1.21,0,0,1,.57,1.05A1.3,1.3,0,0,1,169,134.41Zm-.44-1.65a1.2,1.2,0,0,0-.84-.22h-.56v1.78h.74a.79.79,0,0,0,.69-.24.89.89,0,0,0,.22-.62A.85.85,0,0,0,168.58,132.76Z"/></g><g class="cls-2"><path class="cls-3" d="M173.28,136.51a10.17,10.17,0,0,0-1.12-1.71.55.55,0,0,0-.49-.28v2h-.53V132.1h1a1.63,1.63,0,0,1,1.11.28,1.16,1.16,0,0,1,.44.93,1.12,1.12,0,0,1-1.17,1.21h-.06a2.62,2.62,0,0,1,.44.49c.19.25,1,1.5,1,1.5Zm-.55-3.88a1.43,1.43,0,0,0-.55-.09h-.51v1.65h.47a1.11,1.11,0,0,0,.8-.22.89.89,0,0,0,.23-.66A.73.73,0,0,0,172.74,132.63Z"/></g><g class="cls-2"><path class="cls-3" d="M178.41,136.51l-.42-1.36h-1.65l-.42,1.36h-.53l1.47-4.41h.69l1.46,4.41Zm-1.23-3.95-.69,2.16h1.37Z"/></g><g class="cls-2"><path class="cls-3" d="M182.2,136.58a1.8,1.8,0,0,1-1.36-.55,2.39,2.39,0,0,1-.55-1.71,2.34,2.34,0,0,1,.68-1.85,1.65,1.65,0,0,1,1.15-.42,1.79,1.79,0,0,1,1.21.44l-.24.33a1.58,1.58,0,0,0-1-.34,1.08,1.08,0,0,0-1.1.75,3.33,3.33,0,0,0-.17,1.12,2.43,2.43,0,0,0,.31,1.34,1.34,1.34,0,0,0,1.07.47,1.32,1.32,0,0,0,.7-.17v-1.34h-.89l-.1-.44h1.49v2.06A2.4,2.4,0,0,1,182.2,136.58Z"/></g><g class="cls-2"><path class="cls-3" d="M188.06,136.25a1.67,1.67,0,0,1-1.16.34,1.3,1.3,0,0,1-1.3-.64,1.5,1.5,0,0,1-.13-.69V132.1H186v3a2,2,0,0,0,.08.64.85.85,0,0,0,.86.43,1,1,0,0,0,.78-.28,1,1,0,0,0,.17-.69V132.1h.52v3.14C188.39,135.77,188.32,136,188.06,136.25Z"/></g><g class="cls-2"><path class="cls-3" d="M190.47,136.51V132.1h2.41l-.07.44H191V134h1.51v.46H191v1.61h1.94v.46Z"/></g><g class="cls-2"><path class="cls-3" d="M69.74,145.32a1.71,1.71,0,0,1-1,.27,2.58,2.58,0,0,1-1.41-.4l.23-.41a1.92,1.92,0,0,0,1.18.38,1,1,0,0,0,.7-.19.75.75,0,0,0,.31-.63c0-.39-.26-.66-.79-.82l-.44-.14a1.67,1.67,0,0,1-.78-.39,1,1,0,0,1-.28-.72A1.28,1.28,0,0,1,68.9,141a2.32,2.32,0,0,1,1.33.42l-.23.38a1.78,1.78,0,0,0-1.07-.37c-.55,0-.88.28-.88.73s.21.55.73.72l.51.16a1.52,1.52,0,0,1,.78.44,1.23,1.23,0,0,1,.29.78A1.27,1.27,0,0,1,69.74,145.32Z"/></g><g class="cls-2"><path class="cls-3" d="M74.63,145.51v-2.13H72.77v2.13h-.51V141.1h.51v1.84h1.86V141.1h.53v4.41Z"/></g><g class="cls-2"><path class="cls-3" d="M79.78,145.51l-.42-1.36H77.71l-.42,1.36h-.53l1.47-4.41h.69l1.46,4.41Zm-1.23-3.95-.69,2.16h1.37Z"/></g><g class="cls-2"><path class="cls-3" d="M84.37,145.51,83,142.81c-.28-.53-.5-1.06-.5-1.06s.05.63.06,1.2l0,2.56H82V141.1h.61l1.47,2.81a9.71,9.71,0,0,1,.41.93s-.05-.71-.06-1.34l0-2.4h.52v4.41Z"/></g><g class="cls-2"><path class="cls-3" d="M88.69,145.58a1.8,1.8,0,0,1-1.36-.55,2.39,2.39,0,0,1-.55-1.71,2.34,2.34,0,0,1,.68-1.85,1.65,1.65,0,0,1,1.15-.42,1.79,1.79,0,0,1,1.21.44l-.24.33a1.57,1.57,0,0,0-1-.34,1.08,1.08,0,0,0-1.1.74,3.36,3.36,0,0,0-.17,1.12,2.43,2.43,0,0,0,.31,1.34,1.35,1.35,0,0,0,1.07.47,1.32,1.32,0,0,0,.7-.17v-1.34h-.89l-.1-.44h1.48v2.06A2.39,2.39,0,0,1,88.69,145.58Z"/></g><g class="cls-2"><path class="cls-3" d="M94.38,145.51v-2.13H92.52v2.13H92V141.1h.51v1.84h1.86V141.1h.53v4.41Z"/></g><g class="cls-2"><path class="cls-3" d="M99.53,145.51l-.42-1.36H97.47L97,145.51h-.53L98,141.1h.69l1.46,4.41Zm-1.23-3.95-.69,2.16H99Z"/></g><g class="cls-2"><path class="cls-3" d="M101.74,145.51V141.1h.51v4.41Z"/></g><g class="cls-2"><path class="cls-3" d="M106.79,144.14a.43.43,0,0,1-.42-.42.42.42,0,0,1,.42-.42.42.42,0,0,1,0,.85Z"/></g><g class="cls-2"><path class="cls-3" d="M113.68,145.51l-.42-1.36h-1.65l-.42,1.36h-.53l1.47-4.41h.69l1.46,4.41Zm-1.23-3.95-.69,2.16h1.37Z"/></g><g class="cls-2"><path class="cls-3" d="M118,141.55h-1.2v4h-.51v-4H115.1v-.44H118Z"/></g><g class="cls-2"><path class="cls-3" d="M121.82,145.51h-2.2V141.1h.53v4h1.74Z"/></g><g class="cls-2"><path class="cls-3" d="M126.22,145.51l-.42-1.36h-1.65l-.42,1.36h-.53l1.47-4.41h.69l1.46,4.41ZM125,141.56l-.69,2.16h1.37Z"/></g><g class="cls-2"><path class="cls-3" d="M130.81,145.51l-1.41-2.7c-.28-.53-.5-1.06-.5-1.06s.05.63.06,1.2l0,2.56h-.55V141.1H129l1.47,2.81a9.71,9.71,0,0,1,.41.93s-.05-.71-.06-1.34l0-2.4h.52v4.41Z"/></g><g class="cls-2"><path class="cls-3" d="M135.89,141.55h-1.2v4h-.51v-4H133v-.44h2.92Z"/></g><g class="cls-2"><path class="cls-3" d="M139.69,145.51l-.42-1.36h-1.65l-.42,1.36h-.53l1.47-4.41h.69l1.46,4.41Zm-1.23-3.95-.69,2.16h1.37Z"/></g><g class="cls-2"><path class="cls-3" d="M144.19,144.14a.43.43,0,0,1-.42-.42.42.42,0,0,1,.42-.42.42.42,0,0,1,0,.85Z"/></g><g class="cls-2"><path class="cls-3" d="M151,143.41a1.46,1.46,0,0,1-1.07.35h-.77v1.75h-.51V141.1h1.22a1.61,1.61,0,0,1,1,.21,1.21,1.21,0,0,1,.57,1.05A1.3,1.3,0,0,1,151,143.41Zm-.44-1.65a1.19,1.19,0,0,0-.84-.22h-.56v1.78h.74a.79.79,0,0,0,.69-.24.89.89,0,0,0,.23-.62A.84.84,0,0,0,150.52,141.76Z"/></g><g class="cls-2"><path class="cls-3" d="M155.65,145.25a1.67,1.67,0,0,1-1.16.34,1.3,1.3,0,0,1-1.3-.64,1.5,1.5,0,0,1-.13-.69V141.1h.52v3a2,2,0,0,0,.08.64.85.85,0,0,0,.86.43,1,1,0,0,0,.78-.28,1,1,0,0,0,.17-.69V141.1H156v3.14C156,144.77,155.92,145,155.65,145.25Z"/></g><g class="cls-2"><path class="cls-3" d="M158.08,145.51V141.1h2.41l-.07.44h-1.81V143h1.51v.46h-1.51v1.61h1.94v.46Z"/></g><g class="cls-2"><path class="cls-3" d="M164.44,145.38a2.55,2.55,0,0,1-1.06.13h-1.14V141.1h.64a4,4,0,0,1,1.31.1,1.08,1.08,0,0,1,.75,1,1,1,0,0,1-.79,1,1.24,1.24,0,0,1,.58.23,1.11,1.11,0,0,1,.4.9A1.13,1.13,0,0,1,164.44,145.38Zm-.58-3.8a1.9,1.9,0,0,0-.48,0h-.62V143h.77c.48,0,.64-.08.77-.38a.84.84,0,0,0,.07-.34A.68.68,0,0,0,163.86,141.58Zm.19,1.9a2.56,2.56,0,0,0-.51,0h-.78v1.65h.94c.65,0,.89-.3.89-.82A.75.75,0,0,0,164,143.48Z"/></g><g class="cls-2"><path class="cls-3" d="M169.23,145.51H167V141.1h.53v4h1.74Z"/></g><g class="cls-2"><path class="cls-3" d="M173.63,145.51l-.42-1.36h-1.65l-.42,1.36h-.53l1.47-4.41h.69l1.46,4.41Zm-1.23-3.95-.69,2.16h1.37Z"/></g></g></g><path id="path34" class="cls-3" d="M73.14,22.07h3.11V35H73.14Zm0-5.25h3.11V20H73.14Z"/><path id="path36" class="cls-3" d="M79.3,22.07h3.11v1.28h.05A4.5,4.5,0,0,1,86,21.77c3.06,0,4.43,1.56,4.43,4.38V35H87.31V27.1a2,2,0,0,0-2.14-2.32c-1.5,0-2.75,1-2.75,3.39V35H79.3"/><path id="path38" class="cls-3" d="M99,24.63c-2.35,0-3,2-3.06,3.41s.71,3.41,3.06,3.41,3-2,3.06-3.41-.72-3.41-3.06-3.41M105,34.69c0,3.67-2.78,4.56-6.7,4.56s-5.25-2.4-5.25-4h3.26c.23.89,1.1,1.6,2.65,1.6,2,0,2.93-1,2.93-2.59V32.89a5.15,5.15,0,0,1-3.67,1.42c-3.21,0-5.61-2.39-5.61-6.27s2.4-6.27,5.61-6.27a4.23,4.23,0,0,1,3.62,1.56h0V22.08H105"/><path id="path40" class="cls-3" d="M116.82,26.87a2.92,2.92,0,0,0-2.93-2.55,3.32,3.32,0,0,0-3.34,2.55Zm-6.27,2.39a3.28,3.28,0,0,0,3.34,3.16,4.18,4.18,0,0,0,3.72-1.84l2.63,1.53a7.09,7.09,0,0,1-6.35,3.16c-4.18,0-6.6-2.9-6.6-6.75s2.42-6.75,6.6-6.75,6.2,2.88,6.2,7.49"/><path id="path42" class="cls-3" d="M122.27,22.07h3.11v1.28h0a4.51,4.51,0,0,1,3.52-1.58c3.06,0,4.44,1.56,4.44,4.38V35h-3.11V27.1a2,2,0,0,0-2.14-2.32c-1.51,0-2.75,1-2.75,3.39V35h-3.11"/><path id="path44" class="cls-3" d="M136.44,22.07h3.1V35h-3.1Zm0-5.25h3.1V20h-3.1Z"/><path id="path46" class="cls-3" d="M151.12,26.69a2.85,2.85,0,0,0-2.72-2.07c-2.22,0-3.35,1.89-3.35,3.9s1,3.9,3.16,3.9c1.86,0,2.65-1.33,3.14-2.5l2.65,1.4a6,6,0,0,1-5.84,3.94c-4,0-6.37-2.9-6.37-6.75s2.42-6.76,6.6-6.76a5.45,5.45,0,0,1,5.45,3.67"/><path id="path48" class="cls-3" d="M164.14,26.15a3.38,3.38,0,0,0-3.24-1.83c-1.45,0-2.37.48-2.37,1.25,0,2.24,8.13.33,8.13,5.2,0,3.12-2.77,4.51-5.73,4.51s-5.09-1-6.24-2.34L157,31.12a4.3,4.3,0,0,0,3.72,1.61c1.48,0,2.5-.81,2.5-1.51,0-2.19-8-.38-8-5.27,0-2.91,2.53-4.18,5.71-4.18a6.6,6.6,0,0,1,5.33,2.35"/>
</g></g>
</svg>