<svg xmlns="http://www.w3.org/2000/svg" xmlns:xlink="http://www.w3.org/1999/xlink" width="303.307pt" height="193.89pt" viewBox="0 0 303.307 193.89" version="1.1">
<g id="all">
    <g transform="scale(1.25822552864762)">
<path style=" stroke:none;fill-rule:nonzero;fill:rgb(6.314087%,31.352234%,55.078125%);fill-opacity:1;" d="M 77.316406 19.445312 L 80.1875 19.445312 L 80.1875 22.363281 L 77.316406 22.363281 Z M 77.316406 24.289062 L 80.1875 24.289062 L 80.1875 36.195312 L 77.316406 36.195312 Z M 77.316406 24.289062 "/>
<path style=" stroke:none;fill-rule:nonzero;fill:rgb(6.314087%,31.352234%,55.078125%);fill-opacity:1;" d="M 83.007812 24.289062 L 85.878906 24.289062 L 85.878906 25.46875 L 85.925781 25.46875 C 86.773438 24.433594 88.019531 24.007812 89.171875 24.007812 C 91.996094 24.007812 93.265625 25.445312 93.265625 28.054688 L 93.265625 36.195312 L 90.394531 36.195312 L 90.394531 28.925781 C 90.394531 27.839844 89.902344 26.785156 88.417969 26.785156 C 87.03125 26.785156 85.878906 27.722656 85.878906 29.910156 L 85.878906 36.195312 L 83.007812 36.195312 Z M 83.007812 24.289062 "/>
<path style=" stroke:none;fill-rule:nonzero;fill:rgb(6.314087%,31.352234%,55.078125%);fill-opacity:1;" d="M 106.761719 35.933594 C 106.761719 39.324219 104.203125 40.144531 100.578125 40.144531 C 96.816406 40.144531 95.730469 37.929688 95.730469 36.449219 L 98.746094 36.449219 C 98.957031 37.273438 99.757812 37.929688 101.191406 37.929688 C 103.046875 37.929688 103.894531 36.992188 103.894531 35.535156 L 103.894531 34.269531 C 102.980469 35.25 101.542969 35.578125 100.507812 35.578125 C 97.542969 35.578125 95.332031 33.375 95.332031 29.796875 C 95.332031 26.21875 97.542969 24.007812 100.507812 24.007812 C 102.226562 24.007812 103.144531 24.597656 103.847656 25.445312 L 103.894531 25.445312 L 103.894531 24.289062 L 106.761719 24.289062 Z M 101.167969 26.644531 C 99 26.644531 98.367188 28.523438 98.34375 29.796875 C 98.367188 31.058594 99 32.949219 101.167969 32.949219 C 103.328125 32.949219 103.964844 31.058594 103.988281 29.796875 C 103.964844 28.523438 103.328125 26.644531 101.167969 26.644531 "/>
<path style=" stroke:none;fill-rule:nonzero;fill:rgb(6.314087%,31.352234%,55.078125%);fill-opacity:1;" d="M 111.84375 30.925781 C 111.890625 32.691406 113.375 33.84375 114.921875 33.84375 C 117.183594 33.84375 118.074219 32.546875 118.355469 32.148438 L 120.78125 33.554688 C 119.886719 34.925781 118.171875 36.472656 114.921875 36.472656 C 111.070312 36.472656 108.832031 33.792969 108.832031 30.242188 C 108.832031 26.691406 111.070312 24.007812 114.921875 24.007812 C 118.902344 24.007812 120.640625 26.664062 120.640625 30.925781 Z M 117.628906 28.714844 C 117.628906 28.078125 116.855469 26.363281 114.921875 26.363281 C 113.257812 26.363281 112.152344 27.441406 111.84375 28.714844 Z M 117.628906 28.714844 "/>
<path style=" stroke:none;fill-rule:nonzero;fill:rgb(6.314087%,31.352234%,55.078125%);fill-opacity:1;" d="M 122.660156 24.289062 L 125.53125 24.289062 L 125.53125 25.46875 L 125.574219 25.46875 C 126.429688 24.433594 127.671875 24.007812 128.820312 24.007812 C 131.644531 24.007812 132.917969 25.445312 132.917969 28.054688 L 132.917969 36.195312 L 130.046875 36.195312 L 130.046875 28.925781 C 130.046875 27.839844 129.558594 26.785156 128.074219 26.785156 C 126.683594 26.785156 125.53125 27.722656 125.53125 29.910156 L 125.53125 36.195312 L 122.660156 36.195312 Z M 122.660156 24.289062 "/>
<path style=" stroke:none;fill-rule:nonzero;fill:rgb(6.314087%,31.352234%,55.078125%);fill-opacity:1;" d="M 135.742188 19.445312 L 138.605469 19.445312 L 138.605469 22.363281 L 135.742188 22.363281 Z M 135.742188 24.289062 L 138.605469 24.289062 L 138.605469 36.195312 L 135.742188 36.195312 Z M 135.742188 24.289062 "/>
<path style=" stroke:none;fill-rule:nonzero;fill:rgb(6.314087%,31.352234%,55.078125%);fill-opacity:1;" d="M 149.285156 28.550781 C 148.914062 27.375 147.902344 26.644531 146.773438 26.644531 C 144.722656 26.644531 143.6875 28.386719 143.6875 30.242188 C 143.6875 32.101562 144.605469 33.84375 146.601562 33.84375 C 148.320312 33.84375 149.050781 32.617188 149.5 31.535156 L 151.949219 32.832031 C 151.144531 34.566406 149.777344 36.46875 146.5625 36.46875 C 142.910156 36.46875 140.679688 33.792969 140.679688 30.242188 C 140.679688 26.691406 142.910156 24.007812 146.773438 24.007812 C 149.660156 24.007812 151.074219 25.609375 151.800781 27.394531 Z M 149.285156 28.550781 "/>
<path style=" stroke:none;fill-rule:nonzero;fill:rgb(6.314087%,31.352234%,55.078125%);fill-opacity:1;" d="M 161.304688 28.054688 C 160.957031 27.277344 160.011719 26.363281 158.316406 26.363281 C 156.976562 26.335938 156.128906 26.808594 156.128906 27.511719 C 156.128906 29.582031 163.632812 27.820312 163.632812 32.308594 C 163.632812 35.183594 161.074219 36.46875 158.339844 36.46875 C 155.546875 36.46875 153.640625 35.515625 152.578125 34.308594 L 154.742188 32.636719 C 155.398438 33.609375 156.644531 34.121094 158.175781 34.121094 C 159.539062 34.121094 160.480469 33.375 160.480469 32.734375 C 160.480469 30.710938 153.117188 32.382812 153.117188 27.871094 C 153.117188 25.183594 155.449219 24.007812 158.386719 24.007812 C 161.234375 24.007812 162.742188 25.464844 163.304688 26.175781 Z M 161.304688 28.054688 "/>
</g>
</g>
</svg>
