<svg version="1.1" id="SVG" xmlns="http://www.w3.org/2000/svg" xmlns:xlink="http://www.w3.org/1999/xlink" x="0px" y="0px"
     width="193.89px" height="303.307px" viewBox="0 0 193.89 303.307" enable-background="new 0 0 193.89 303.307"
     xml:space="preserve">
	 <g transform="scale(1.235)">
            <g>
		<path fill="#D07327" d="M21.042,26.877c0.39,0.24,0.95,0.43,1.549,0.43c0.89,0,1.409-0.459,1.409-1.139c0-0.63-0.36-1-1.269-1.339
			c-1.1-0.38-1.779-0.959-1.779-1.899c0-1.049,0.87-1.829,2.179-1.829c0.68,0,1.189,0.16,1.479,0.32l-0.24,0.72
			c-0.21-0.13-0.66-0.32-1.27-0.32c-0.919,0-1.27,0.55-1.27,1.009c0,0.62,0.41,0.93,1.339,1.29c1.14,0.45,1.709,0.989,1.709,1.979
			c0,1.029-0.759,1.939-2.349,1.939c-0.649,0-1.359-0.2-1.719-0.44L21.042,26.877z"/>
		<path fill="#D07327" d="M26.552,25.678c0.02,1.179,0.77,1.669,1.649,1.669c0.63,0,1.02-0.11,1.339-0.25l0.16,0.629
			c-0.31,0.14-0.85,0.31-1.619,0.31c-1.479,0-2.378-0.99-2.378-2.439c0-1.459,0.87-2.608,2.279-2.608
			c1.579,0,1.989,1.389,1.989,2.279c0,0.18-0.01,0.31-0.03,0.41H26.552z M29.12,25.049c0.01-0.56-0.23-1.43-1.209-1.43
			c-0.899,0-1.279,0.82-1.349,1.43H29.12z"/>
		<path fill="#D07327" d="M31.062,24.609c0-0.57-0.01-1.06-0.04-1.509h0.77l0.04,0.95h0.03c0.22-0.65,0.759-1.06,1.349-1.06
			c0.09,0,0.16,0.01,0.24,0.02v0.83c-0.09-0.01-0.18-0.02-0.3-0.02c-0.62,0-1.06,0.47-1.179,1.119c-0.02,0.13-0.03,0.27-0.03,0.41
			v2.588h-0.879V24.609z"/>
		<path fill="#D07327" d="M34.671,23.1l0.95,2.708c0.16,0.45,0.29,0.85,0.39,1.25h0.03c0.11-0.4,0.25-0.8,0.41-1.25L37.39,23.1
			h0.919l-1.899,4.837h-0.84L33.732,23.1H34.671z"/>
		<path fill="#D07327" d="M39.561,22.28c-0.32,0-0.53-0.25-0.53-0.54c0-0.31,0.22-0.549,0.55-0.549c0.32,0,0.54,0.24,0.54,0.549
			c0,0.29-0.21,0.54-0.55,0.54H39.561z M39.141,27.937V23.1h0.879v4.837H39.141z"/>
		<path fill="#D07327" d="M44.93,27.757c-0.23,0.11-0.74,0.28-1.389,0.28c-1.459,0-2.409-0.99-2.409-2.469
			c0-1.489,1.02-2.579,2.599-2.579c0.52,0,0.979,0.13,1.219,0.26l-0.2,0.67c-0.21-0.11-0.54-0.23-1.02-0.23
			c-1.109,0-1.709,0.83-1.709,1.829c0,1.119,0.719,1.809,1.679,1.809c0.5,0,0.83-0.12,1.08-0.229L44.93,27.757z"/>
		<path fill="#D07327" d="M46.461,25.678c0.02,1.179,0.77,1.669,1.649,1.669c0.63,0,1.02-0.11,1.339-0.25l0.16,0.629
			c-0.31,0.14-0.85,0.31-1.619,0.31c-1.479,0-2.378-0.99-2.378-2.439c0-1.459,0.87-2.608,2.279-2.608
			c1.579,0,1.989,1.389,1.989,2.279c0,0.18-0.01,0.31-0.03,0.41H46.461z M49.03,25.049c0.01-0.56-0.23-1.43-1.209-1.43
			c-0.899,0-1.279,0.82-1.349,1.43H49.03z"/>
	</g>
	<g>
		<path fill="#2E5DAD" d="M50.562,27.427l2.189-2.848c0.22-0.27,0.41-0.5,0.64-0.76v-0.02h-2.628v-0.7h3.688v0.55l-2.169,2.818
			c-0.2,0.26-0.4,0.51-0.62,0.75v0.02h2.829v0.7h-3.928V27.427z"/>
		<path fill="#2E5DAD" d="M55.892,25.678c0.02,1.179,0.77,1.669,1.649,1.669c0.629,0,1.019-0.11,1.339-0.25l0.16,0.629
			c-0.311,0.14-0.85,0.31-1.62,0.31c-1.479,0-2.378-0.99-2.378-2.439c0-1.459,0.87-2.608,2.279-2.608
			c1.579,0,1.989,1.389,1.989,2.279c0,0.18-0.01,0.31-0.03,0.41H55.892z M58.46,25.049c0.01-0.56-0.229-1.43-1.209-1.43
			c-0.899,0-1.279,0.82-1.349,1.43H58.46z"/>
		<path fill="#2E5DAD" d="M60.821,22.28c-0.32,0-0.529-0.25-0.529-0.54c0-0.31,0.22-0.549,0.549-0.549c0.32,0,0.54,0.24,0.54,0.549
			c0,0.29-0.21,0.54-0.55,0.54H60.821z M60.401,27.937V23.1h0.88v4.837H60.401z"/>
		<path fill="#2E5DAD" d="M63.801,21.94V23.1h1.259v0.67h-1.259v2.598c0,0.6,0.17,0.939,0.659,0.939c0.24,0,0.38-0.02,0.51-0.06
			l0.04,0.669c-0.17,0.06-0.439,0.12-0.779,0.12c-0.41,0-0.739-0.14-0.949-0.37c-0.24-0.27-0.34-0.699-0.34-1.269V23.77h-0.75V23.1
			h0.75v-0.89L63.801,21.94z"/>
		<path fill="#2E5DAD" d="M66.552,25.678c0.02,1.179,0.77,1.669,1.648,1.669c0.63,0,1.02-0.11,1.34-0.25l0.16,0.629
			c-0.311,0.14-0.85,0.31-1.619,0.31c-1.479,0-2.379-0.99-2.379-2.439c0-1.459,0.869-2.608,2.278-2.608
			c1.579,0,1.989,1.389,1.989,2.279c0,0.18-0.01,0.31-0.03,0.41H66.552z M69.12,25.049c0.01-0.56-0.229-1.43-1.209-1.43
			c-0.899,0-1.279,0.82-1.35,1.43H69.12z"/>
		<path fill="#2E5DAD" d="M71.062,24.409c0-0.51-0.01-0.91-0.04-1.31h0.779l0.051,0.79h0.02c0.24-0.45,0.8-0.899,1.6-0.899
			c0.669,0,1.709,0.4,1.709,2.059v2.888H74.3v-2.789c0-0.779-0.29-1.439-1.119-1.439c-0.57,0-1.02,0.41-1.18,0.899
			c-0.04,0.11-0.06,0.27-0.06,0.41v2.918h-0.88V24.409z"/>
	</g>
	<g>
		<path fill="#5E5E5D" d="M27.089,52.402c-0.03-0.558-0.066-1.248-0.066-1.745h-0.012c-0.144,0.468-0.306,0.983-0.509,1.535
			l-0.714,1.961h-0.396l-0.66-1.925c-0.192-0.57-0.348-1.092-0.462-1.571h-0.012c-0.012,0.504-0.042,1.181-0.078,1.787l-0.108,1.733
			h-0.498l0.282-4.042h0.666l0.689,1.955c0.168,0.498,0.3,0.948,0.408,1.367h0.012c0.108-0.408,0.252-0.857,0.432-1.367l0.72-1.955
			h0.666l0.252,4.042h-0.516L27.089,52.402z"/>
		<path fill="#5E5E5D" d="M29.67,54.243c-0.78,0-1.391-0.576-1.391-1.493c0-0.972,0.642-1.541,1.439-1.541
			c0.833,0,1.397,0.605,1.397,1.487c0,1.079-0.75,1.547-1.439,1.547H29.67z M29.694,53.848c0.504,0,0.881-0.474,0.881-1.134
			c0-0.492-0.246-1.109-0.869-1.109c-0.618,0-0.888,0.576-0.888,1.127c0,0.636,0.36,1.116,0.87,1.116H29.694z"/>
	</g>
	<g>
		<path fill="#5E5E5D" d="M47.749,53.806c0.114,0.006,0.246,0,0.426-0.024c0.306-0.036,0.594-0.162,0.815-0.372
			c0.258-0.24,0.444-0.576,0.516-1.038h-0.018c-0.216,0.264-0.528,0.42-0.924,0.42c-0.702,0-1.151-0.528-1.151-1.199
			c0-0.732,0.54-1.379,1.337-1.379s1.289,0.642,1.289,1.643c0,0.857-0.288,1.457-0.671,1.829c-0.3,0.288-0.714,0.474-1.133,0.521
			c-0.192,0.024-0.366,0.036-0.486,0.03V53.806z M48.702,50.615c-0.444,0-0.762,0.396-0.762,0.947c0,0.486,0.294,0.828,0.75,0.828
			c0.354,0,0.63-0.174,0.773-0.408c0.024-0.048,0.042-0.108,0.042-0.192c0.006-0.671-0.246-1.175-0.797-1.175H48.702z"/>
		<path fill="#5E5E5D" d="M53.184,52.366v0.384h-1.481v-0.384H53.184z"/>
		<path fill="#5E5E5D" d="M56.052,50.771H56.04l-0.678,0.366l-0.102-0.401l0.852-0.456h0.45v3.898h-0.51V50.771z"/>
		<path fill="#5E5E5D" d="M57.984,54.177v-0.324l0.414-0.402c0.995-0.947,1.451-1.451,1.451-2.039c0-0.396-0.186-0.761-0.768-0.761
			c-0.354,0-0.647,0.18-0.827,0.33l-0.168-0.372c0.264-0.222,0.653-0.396,1.104-0.396c0.833,0,1.187,0.576,1.187,1.133
			c0,0.72-0.521,1.301-1.343,2.093l-0.306,0.288v0.012h1.745v0.438H57.984z"/>
		<path fill="#5E5E5D" d="M63.042,50.135v2.399c0,0.899,0.401,1.283,0.941,1.283c0.594,0,0.983-0.396,0.983-1.283v-2.399h0.527
			v2.363c0,1.241-0.653,1.745-1.528,1.745c-0.828,0-1.451-0.468-1.451-1.727v-2.381H63.042z"/>
		<path fill="#5E5E5D" d="M66.384,49.919h0.528v1.811h0.012c0.084-0.15,0.216-0.288,0.378-0.372c0.155-0.096,0.342-0.15,0.539-0.15
			c0.391,0,1.014,0.24,1.014,1.241v1.727h-0.527v-1.673c0-0.468-0.174-0.858-0.672-0.858c-0.342,0-0.605,0.24-0.708,0.528
			c-0.029,0.072-0.035,0.15-0.035,0.252v1.751h-0.528V49.919z"/>
		<path fill="#5E5E5D" d="M69.714,52.18c0-0.342-0.006-0.635-0.023-0.905h0.462l0.023,0.57h0.019
			c0.132-0.39,0.455-0.636,0.809-0.636c0.055,0,0.097,0.006,0.145,0.012v0.498c-0.054-0.006-0.108-0.012-0.18-0.012
			c-0.372,0-0.636,0.282-0.708,0.672c-0.012,0.078-0.018,0.162-0.018,0.246v1.553h-0.528V52.18z"/>
	</g>
	<g>
		<path fill="#5E5E5D" d="M23.677,61.529c0.324-0.048,0.702-0.084,1.115-0.084c0.75,0,1.284,0.174,1.637,0.504
			c0.366,0.33,0.576,0.797,0.576,1.451c0,0.66-0.21,1.199-0.582,1.571c-0.384,0.378-1.007,0.582-1.793,0.582
			c-0.378,0-0.684-0.012-0.954-0.048V61.529z M24.205,65.109c0.132,0.024,0.324,0.024,0.528,0.024
			c1.115,0.006,1.721-0.624,1.721-1.715c0.006-0.954-0.534-1.56-1.637-1.56c-0.27,0-0.474,0.024-0.612,0.054V65.109z"/>
		<path fill="#5E5E5D" d="M27.913,62.123c-0.192,0-0.318-0.15-0.318-0.324c0-0.186,0.132-0.33,0.33-0.33
			c0.192,0,0.324,0.144,0.324,0.33c0,0.174-0.126,0.324-0.33,0.324H27.913z M27.661,65.517v-2.902h0.527v2.902H27.661z"/>
	</g>
	<g>
		<path fill="#5E5E5D" d="M47.749,65.146c0.114,0.006,0.246,0,0.426-0.024c0.306-0.036,0.594-0.162,0.815-0.372
			c0.258-0.24,0.444-0.576,0.516-1.038h-0.018c-0.216,0.264-0.528,0.42-0.924,0.42c-0.702,0-1.151-0.528-1.151-1.199
			c0-0.732,0.54-1.379,1.337-1.379s1.289,0.642,1.289,1.643c0,0.857-0.288,1.457-0.671,1.829c-0.3,0.288-0.714,0.474-1.133,0.521
			c-0.192,0.024-0.366,0.036-0.486,0.03V65.146z M48.702,61.955c-0.444,0-0.762,0.396-0.762,0.947c0,0.486,0.294,0.828,0.75,0.828
			c0.354,0,0.63-0.174,0.773-0.408c0.024-0.048,0.042-0.108,0.042-0.192c0.006-0.671-0.246-1.175-0.797-1.175H48.702z"/>
		<path fill="#5E5E5D" d="M53.184,63.706v0.384h-1.481v-0.384H53.184z"/>
		<path fill="#5E5E5D" d="M56.052,62.111H56.04l-0.678,0.366l-0.102-0.401l0.852-0.456h0.45v3.898h-0.51V62.111z"/>
		<path fill="#5E5E5D" d="M57.984,65.517v-0.324l0.414-0.402c0.995-0.947,1.451-1.451,1.451-2.039c0-0.396-0.186-0.761-0.768-0.761
			c-0.354,0-0.647,0.18-0.827,0.33l-0.168-0.372c0.264-0.222,0.653-0.396,1.104-0.396c0.833,0,1.187,0.576,1.187,1.133
			c0,0.72-0.521,1.301-1.343,2.093l-0.306,0.288v0.012h1.745v0.438H57.984z"/>
		<path fill="#5E5E5D" d="M63.042,61.475v2.399c0,0.899,0.401,1.283,0.941,1.283c0.594,0,0.983-0.396,0.983-1.283v-2.399h0.527
			v2.363c0,1.241-0.653,1.745-1.528,1.745c-0.828,0-1.451-0.468-1.451-1.727v-2.381H63.042z"/>
		<path fill="#5E5E5D" d="M66.384,61.259h0.528v1.811h0.012c0.084-0.15,0.216-0.288,0.378-0.372c0.155-0.096,0.342-0.15,0.539-0.15
			c0.391,0,1.014,0.24,1.014,1.241v1.727h-0.527v-1.673c0-0.468-0.174-0.858-0.672-0.858c-0.342,0-0.605,0.24-0.708,0.528
			c-0.029,0.072-0.035,0.15-0.035,0.252v1.751h-0.528V61.259z"/>
		<path fill="#5E5E5D" d="M69.714,63.52c0-0.342-0.006-0.635-0.023-0.905h0.462l0.023,0.57h0.019
			c0.132-0.39,0.455-0.636,0.809-0.636c0.055,0,0.097,0.006,0.145,0.012v0.498c-0.054-0.006-0.108-0.012-0.18-0.012
			c-0.372,0-0.636,0.282-0.708,0.672c-0.012,0.078-0.018,0.162-0.018,0.246v1.553h-0.528V63.52z"/>
	</g>
	<g>
		<path fill="#5E5E5D" d="M23.677,72.869c0.324-0.048,0.702-0.084,1.115-0.084c0.75,0,1.284,0.174,1.637,0.504
			c0.366,0.33,0.576,0.797,0.576,1.451c0,0.66-0.21,1.199-0.582,1.571c-0.384,0.378-1.007,0.582-1.793,0.582
			c-0.378,0-0.684-0.012-0.954-0.048V72.869z M24.205,76.449c0.132,0.024,0.324,0.024,0.528,0.024
			c1.115,0.006,1.721-0.624,1.721-1.715c0.006-0.954-0.534-1.56-1.637-1.56c-0.27,0-0.474,0.024-0.612,0.054V76.449z"/>
		<path fill="#5E5E5D" d="M28.842,76.923c-0.78,0-1.391-0.576-1.391-1.493c0-0.972,0.642-1.541,1.439-1.541
			c0.833,0,1.397,0.605,1.397,1.487c0,1.079-0.75,1.547-1.439,1.547H28.842z M28.866,76.527c0.504,0,0.881-0.474,0.881-1.134
			c0-0.492-0.246-1.109-0.869-1.109c-0.618,0-0.888,0.576-0.888,1.127c0,0.636,0.36,1.116,0.87,1.116H28.866z"/>
	</g>
	<g>
		<path fill="#5E5E5D" d="M45.336,73.451h-0.012l-0.678,0.366l-0.102-0.401l0.852-0.456h0.45v3.898h-0.51V73.451z"/>
		<path fill="#5E5E5D" d="M49.596,73.403h-1.487l-0.15,1.001c0.09-0.012,0.174-0.024,0.318-0.024c0.306,0,0.6,0.066,0.839,0.21
			c0.306,0.168,0.558,0.51,0.558,1.001c0,0.761-0.605,1.331-1.451,1.331c-0.426,0-0.779-0.12-0.971-0.24l0.132-0.402
			c0.162,0.096,0.479,0.216,0.839,0.216c0.492,0,0.924-0.324,0.917-0.852c0-0.498-0.342-0.857-1.115-0.857
			c-0.228,0-0.402,0.018-0.546,0.042l0.252-1.871h1.865V73.403z"/>
		<path fill="#5E5E5D" d="M53.01,75.046v0.384h-1.481v-0.384H53.01z"/>
		<path fill="#5E5E5D" d="M55.877,73.451h-0.012l-0.678,0.366l-0.102-0.401l0.852-0.456h0.45v3.898h-0.51V73.451z"/>
		<path fill="#5E5E5D" d="M59.117,72.893c0.756,0,1.14,0.468,1.14,0.959c0,0.33-0.168,0.689-0.647,0.912v0.018
			c0.485,0.192,0.785,0.54,0.785,1.007c0,0.684-0.581,1.133-1.325,1.133c-0.815,0-1.307-0.479-1.307-1.049
			c0-0.492,0.294-0.846,0.768-1.049v-0.018c-0.438-0.204-0.624-0.54-0.624-0.875c0-0.618,0.521-1.038,1.205-1.038H59.117z
			 M59.082,76.539c0.474,0,0.779-0.294,0.779-0.696c0-0.467-0.33-0.701-0.857-0.851c-0.456,0.132-0.702,0.438-0.702,0.81
			c-0.018,0.39,0.282,0.737,0.773,0.737H59.082z M59.088,73.271c-0.438,0-0.678,0.288-0.678,0.624c-0.006,0.39,0.294,0.6,0.743,0.72
			c0.336-0.114,0.594-0.354,0.594-0.708c0-0.312-0.186-0.636-0.653-0.636H59.088z"/>
		<path fill="#5E5E5D" d="M62.868,72.815v2.399c0,0.899,0.401,1.283,0.941,1.283c0.594,0,0.983-0.396,0.983-1.283v-2.399h0.527
			v2.363c0,1.241-0.653,1.745-1.528,1.745c-0.828,0-1.451-0.468-1.451-1.727v-2.381H62.868z"/>
		<path fill="#5E5E5D" d="M66.21,72.599h0.528v1.811h0.012c0.084-0.15,0.216-0.288,0.378-0.372c0.155-0.096,0.342-0.15,0.539-0.15
			c0.391,0,1.014,0.24,1.014,1.241v1.727h-0.527v-1.673c0-0.468-0.174-0.858-0.672-0.858c-0.342,0-0.605,0.24-0.708,0.528
			c-0.029,0.072-0.035,0.15-0.035,0.252v1.751H66.21V72.599z"/>
		<path fill="#5E5E5D" d="M69.54,74.86c0-0.342-0.006-0.635-0.023-0.905h0.462l0.023,0.57h0.019c0.132-0.39,0.455-0.636,0.809-0.636
			c0.055,0,0.097,0.006,0.145,0.012v0.498c-0.054-0.006-0.108-0.012-0.18-0.012c-0.372,0-0.636,0.282-0.708,0.672
			c-0.012,0.078-0.018,0.162-0.018,0.246v1.553H69.54V74.86z"/>
	</g>
	<g>
		<path fill="#5E5E5D" d="M23.677,84.155h2.177v0.438h-1.649v1.343h1.523v0.432h-1.523v1.829h-0.528V84.155z"/>
		<path fill="#5E5E5D" d="M26.467,86.2c0-0.342-0.006-0.635-0.024-0.905h0.462l0.024,0.57h0.018c0.132-0.39,0.456-0.636,0.81-0.636
			c0.054,0,0.096,0.006,0.144,0.012v0.498c-0.054-0.006-0.108-0.012-0.18-0.012c-0.372,0-0.636,0.282-0.708,0.672
			c-0.012,0.078-0.018,0.162-0.018,0.246v1.553h-0.527V86.2z"/>
	</g>
	<g>
		<path fill="#5E5E5D" d="M47.749,87.826c0.114,0.006,0.246,0,0.426-0.024c0.306-0.036,0.594-0.162,0.815-0.372
			c0.258-0.24,0.444-0.576,0.516-1.038h-0.018c-0.216,0.264-0.528,0.42-0.924,0.42c-0.702,0-1.151-0.528-1.151-1.199
			c0-0.732,0.54-1.379,1.337-1.379s1.289,0.642,1.289,1.643c0,0.857-0.288,1.458-0.671,1.829c-0.3,0.288-0.714,0.474-1.133,0.521
			c-0.192,0.024-0.366,0.036-0.486,0.03V87.826z M48.702,84.635c-0.444,0-0.762,0.396-0.762,0.947c0,0.486,0.294,0.828,0.75,0.828
			c0.354,0,0.63-0.174,0.773-0.408c0.024-0.048,0.042-0.108,0.042-0.192c0.006-0.671-0.246-1.175-0.797-1.175H48.702z"/>
		<path fill="#5E5E5D" d="M53.184,86.386v0.384h-1.481v-0.384H53.184z"/>
		<path fill="#5E5E5D" d="M56.052,84.791H56.04l-0.678,0.366l-0.102-0.401l0.852-0.456h0.45v3.898h-0.51V84.791z"/>
		<path fill="#5E5E5D" d="M57.984,88.197v-0.324l0.414-0.402c0.995-0.947,1.451-1.451,1.451-2.039c0-0.396-0.186-0.761-0.768-0.761
			c-0.354,0-0.647,0.18-0.827,0.33l-0.168-0.372c0.264-0.222,0.653-0.396,1.104-0.396c0.833,0,1.187,0.576,1.187,1.133
			c0,0.72-0.521,1.301-1.343,2.093l-0.306,0.288v0.012h1.745v0.438H57.984z"/>
		<path fill="#5E5E5D" d="M63.042,84.155v2.399c0,0.899,0.401,1.283,0.941,1.283c0.594,0,0.983-0.396,0.983-1.283v-2.399h0.527
			v2.363c0,1.241-0.653,1.745-1.528,1.745c-0.828,0-1.451-0.468-1.451-1.727v-2.381H63.042z"/>
		<path fill="#5E5E5D" d="M66.384,83.939h0.528v1.811h0.012c0.084-0.15,0.216-0.288,0.378-0.372c0.155-0.096,0.342-0.15,0.539-0.15
			c0.391,0,1.014,0.24,1.014,1.241v1.727h-0.527v-1.673c0-0.468-0.174-0.858-0.672-0.858c-0.342,0-0.605,0.24-0.708,0.528
			c-0.029,0.072-0.035,0.15-0.035,0.252v1.751h-0.528V83.939z"/>
		<path fill="#5E5E5D" d="M69.714,86.2c0-0.342-0.006-0.635-0.023-0.905h0.462l0.023,0.57h0.019c0.132-0.39,0.455-0.636,0.809-0.636
			c0.055,0,0.097,0.006,0.145,0.012v0.498c-0.054-0.006-0.108-0.012-0.18-0.012c-0.372,0-0.636,0.282-0.708,0.672
			c-0.012,0.078-0.018,0.162-0.018,0.246v1.553h-0.528V86.2z"/>
	</g>
	<g>
		<path fill="#5E5E5D" d="M20.847,39.097c0.273,0.168,0.666,0.301,1.086,0.301c0.623,0,0.987-0.322,0.987-0.798
			c0-0.441-0.252-0.7-0.89-0.938c-0.77-0.266-1.247-0.672-1.247-1.331c0-0.735,0.609-1.282,1.527-1.282
			c0.477,0,0.833,0.112,1.037,0.224l-0.168,0.504c-0.147-0.091-0.462-0.224-0.89-0.224c-0.644,0-0.89,0.385-0.89,0.707
			c0,0.435,0.288,0.651,0.939,0.904c0.798,0.315,1.197,0.693,1.197,1.387c0,0.721-0.532,1.358-1.646,1.358
			c-0.456,0-0.953-0.14-1.205-0.308L20.847,39.097z"/>
		<path fill="#5E5E5D" d="M24.705,38.256c0.014,0.827,0.54,1.17,1.156,1.17c0.441,0,0.714-0.077,0.938-0.175l0.112,0.441
			c-0.217,0.098-0.596,0.217-1.135,0.217c-1.037,0-1.667-0.693-1.667-1.708c0-1.023,0.609-1.828,1.597-1.828
			c1.107,0,1.394,0.974,1.394,1.597c0,0.126-0.007,0.217-0.021,0.287H24.705z M26.505,37.815c0.007-0.393-0.161-1.002-0.848-1.002
			c-0.63,0-0.896,0.575-0.945,1.002H26.505z"/>
		<path fill="#5E5E5D" d="M27.861,37.507c0-0.399-0.007-0.743-0.028-1.058h0.539l0.028,0.665h0.021
			c0.154-0.455,0.532-0.742,0.945-0.742c0.063,0,0.112,0.007,0.168,0.014v0.581c-0.063-0.007-0.126-0.014-0.21-0.014
			c-0.434,0-0.742,0.33-0.827,0.785c-0.014,0.091-0.021,0.189-0.021,0.287v1.814h-0.616V37.507z"/>
		<path fill="#5E5E5D" d="M30.389,36.45l0.665,1.898c0.112,0.315,0.203,0.595,0.273,0.875h0.021c0.077-0.28,0.175-0.561,0.287-0.875
			l0.658-1.898h0.645l-1.331,3.39h-0.588l-1.289-3.39H30.389z"/>
		<path fill="#5E5E5D" d="M33.812,35.875c-0.224,0-0.372-0.175-0.372-0.378c0-0.217,0.154-0.385,0.385-0.385
			c0.224,0,0.378,0.168,0.378,0.385c0,0.203-0.147,0.378-0.385,0.378H33.812z M33.517,39.839v-3.39h0.616v3.39H33.517z"/>
		<path fill="#5E5E5D" d="M37.572,39.713c-0.161,0.077-0.519,0.196-0.974,0.196c-1.022,0-1.688-0.693-1.688-1.729
			c0-1.044,0.714-1.807,1.821-1.807c0.364,0,0.687,0.091,0.854,0.182l-0.14,0.469c-0.147-0.077-0.378-0.161-0.714-0.161
			c-0.777,0-1.197,0.581-1.197,1.282c0,0.784,0.504,1.268,1.176,1.268c0.351,0,0.582-0.084,0.757-0.161L37.572,39.713z"/>
		<path fill="#5E5E5D" d="M38.641,38.256c0.014,0.827,0.54,1.17,1.156,1.17c0.441,0,0.714-0.077,0.938-0.175l0.112,0.441
			c-0.217,0.098-0.596,0.217-1.135,0.217c-1.037,0-1.667-0.693-1.667-1.708c0-1.023,0.609-1.828,1.597-1.828
			c1.107,0,1.394,0.974,1.394,1.597c0,0.126-0.007,0.217-0.021,0.287H38.641z M40.441,37.815c0.007-0.393-0.161-1.002-0.848-1.002
			c-0.63,0-0.896,0.575-0.945,1.002H40.441z"/>
		<path fill="#5E5E5D" d="M41.714,39.209c0.189,0.112,0.511,0.238,0.819,0.238c0.441,0,0.651-0.217,0.651-0.504
			c0-0.294-0.175-0.448-0.623-0.616c-0.617-0.224-0.904-0.561-0.904-0.959c0-0.546,0.448-0.995,1.17-0.995
			c0.343,0,0.644,0.091,0.826,0.21l-0.147,0.441c-0.133-0.077-0.378-0.196-0.693-0.196c-0.364,0-0.561,0.21-0.561,0.462
			c0,0.28,0.196,0.406,0.638,0.581c0.581,0.217,0.889,0.512,0.889,1.016c0,0.603-0.469,1.022-1.26,1.022
			c-0.372,0-0.715-0.098-0.953-0.238L41.714,39.209z"/>
		<path fill="#5E5E5D" d="M45.313,35.637v0.813h0.882v0.469h-0.882v1.821c0,0.42,0.119,0.658,0.462,0.658
			c0.168,0,0.266-0.014,0.357-0.042l0.028,0.469c-0.119,0.042-0.308,0.084-0.546,0.084c-0.287,0-0.518-0.098-0.665-0.259
			c-0.168-0.189-0.238-0.49-0.238-0.89v-1.842h-0.525V36.45h0.525v-0.624L45.313,35.637z"/>
		<path fill="#5E5E5D" d="M47.237,38.256c0.014,0.827,0.54,1.17,1.156,1.17c0.441,0,0.714-0.077,0.938-0.175l0.112,0.441
			c-0.217,0.098-0.596,0.217-1.135,0.217c-1.037,0-1.667-0.693-1.667-1.708c0-1.023,0.609-1.828,1.597-1.828
			c1.107,0,1.394,0.974,1.394,1.597c0,0.126-0.007,0.217-0.021,0.287H47.237z M49.037,37.815c0.007-0.393-0.161-1.002-0.848-1.002
			c-0.63,0-0.896,0.575-0.945,1.002H49.037z"/>
		<path fill="#5E5E5D" d="M50.394,34.867h0.616v4.973h-0.616V34.867z"/>
		<path fill="#5E5E5D" d="M52.046,34.867h0.616v4.973h-0.616V34.867z"/>
		<path fill="#5E5E5D" d="M54.048,38.256c0.014,0.827,0.54,1.17,1.156,1.17c0.441,0,0.714-0.077,0.938-0.175l0.112,0.441
			c-0.217,0.098-0.596,0.217-1.135,0.217c-1.037,0-1.667-0.693-1.667-1.708c0-1.023,0.609-1.828,1.597-1.828
			c1.107,0,1.394,0.974,1.394,1.597c0,0.126-0.007,0.217-0.021,0.287H54.048z M55.848,37.815c0.007-0.393-0.161-1.002-0.848-1.002
			c-0.63,0-0.896,0.575-0.945,1.002H55.848z"/>
		<path fill="#5E5E5D" d="M62.31,39.629c-0.272,0.105-0.819,0.259-1.456,0.259c-0.715,0-1.303-0.182-1.766-0.623
			c-0.406-0.392-0.658-1.022-0.658-1.758c0-1.408,0.974-2.438,2.557-2.438c0.546,0,0.98,0.119,1.184,0.217l-0.154,0.497
			c-0.252-0.119-0.567-0.203-1.043-0.203c-1.149,0-1.898,0.714-1.898,1.898c0,1.198,0.715,1.905,1.821,1.905
			c0.398,0,0.672-0.056,0.813-0.126V37.85h-0.953v-0.49h1.555V39.629z"/>
		<path fill="#5E5E5D" d="M63.211,37.507c0-0.399-0.008-0.743-0.028-1.058h0.539l0.028,0.665h0.021
			c0.154-0.455,0.532-0.742,0.945-0.742c0.063,0,0.112,0.007,0.169,0.014v0.581c-0.063-0.007-0.126-0.014-0.211-0.014
			c-0.434,0-0.742,0.33-0.826,0.785c-0.014,0.091-0.021,0.189-0.021,0.287v1.814h-0.616V37.507z"/>
		<path fill="#5E5E5D" d="M66.732,39.917c-0.91,0-1.624-0.672-1.624-1.744c0-1.134,0.749-1.8,1.681-1.8
			c0.974,0,1.632,0.708,1.632,1.737c0,1.261-0.876,1.807-1.681,1.807H66.732z M66.761,39.454c0.589,0,1.029-0.553,1.029-1.324
			c0-0.574-0.287-1.295-1.016-1.295c-0.721,0-1.036,0.672-1.036,1.316c0,0.743,0.42,1.303,1.016,1.303H66.761z"/>
		<path fill="#5E5E5D" d="M69.196,39.839v-3.166c0-0.799,0.188-1.247,0.504-1.527c0.259-0.238,0.596-0.357,1.016-0.357
			c0.672,0,1.254,0.413,1.254,1.184c0,0.238-0.084,0.456-0.161,0.574c-0.315,0.133-0.505,0.33-0.505,0.567
			c0,0.238,0.141,0.385,0.357,0.609c0.28,0.28,0.567,0.574,0.567,1.079c0,0.658-0.477,1.114-1.254,1.114
			c-0.266,0-0.539-0.042-0.742-0.147l0.112-0.469c0.182,0.091,0.378,0.14,0.588,0.14c0.448,0,0.687-0.266,0.687-0.588
			c0-0.294-0.133-0.491-0.378-0.722c-0.294-0.28-0.547-0.546-0.547-0.932c0-0.364,0.218-0.665,0.624-0.861
			c0.042-0.084,0.063-0.189,0.063-0.301c0-0.483-0.301-0.763-0.729-0.763c-0.539,0-0.84,0.378-0.84,1.373v3.194H69.196z"/>
		<path fill="#5E5E5D" d="M73.648,38.004h0.014c0.084-0.119,0.196-0.266,0.294-0.385l1.002-1.169h0.735l-1.31,1.394l1.491,1.996
			h-0.749l-1.163-1.625l-0.314,0.35v1.275h-0.616v-4.973h0.616V38.004z"/>
		<path fill="#5E5E5D" d="M79.15,38.908c0,0.357,0.007,0.666,0.028,0.932h-0.547l-0.034-0.553h-0.015
			c-0.154,0.273-0.518,0.63-1.12,0.63c-0.532,0-1.17-0.301-1.17-1.485V36.45h0.616v1.87c0,0.645,0.203,1.086,0.757,1.086
			c0.413,0,0.7-0.287,0.813-0.567c0.035-0.084,0.056-0.196,0.056-0.315V36.45h0.616V38.908z"/>
		<path fill="#5E5E5D" d="M82.588,39.713c-0.161,0.077-0.519,0.196-0.974,0.196c-1.022,0-1.688-0.693-1.688-1.729
			c0-1.044,0.714-1.807,1.82-1.807c0.364,0,0.687,0.091,0.854,0.182l-0.14,0.469c-0.147-0.077-0.379-0.161-0.715-0.161
			c-0.777,0-1.197,0.581-1.197,1.282c0,0.784,0.504,1.268,1.177,1.268c0.35,0,0.581-0.084,0.756-0.161L82.588,39.713z"/>
		<path fill="#5E5E5D" d="M83.308,34.867h0.616v2.115h0.014c0.098-0.175,0.252-0.336,0.441-0.435
			c0.182-0.112,0.399-0.175,0.63-0.175c0.455,0,1.184,0.28,1.184,1.45v2.017h-0.616v-1.954c0-0.546-0.203-1.001-0.784-1.001
			c-0.399,0-0.707,0.28-0.826,0.616c-0.035,0.084-0.042,0.175-0.042,0.294v2.045h-0.616V34.867z"/>
		<path fill="#5E5E5D" d="M87.542,38.256c0.014,0.827,0.539,1.17,1.156,1.17c0.44,0,0.714-0.077,0.938-0.175l0.111,0.441
			c-0.217,0.098-0.595,0.217-1.135,0.217c-1.036,0-1.666-0.693-1.666-1.708c0-1.023,0.608-1.828,1.597-1.828
			c1.106,0,1.394,0.974,1.394,1.597c0,0.126-0.007,0.217-0.021,0.287H87.542z M89.342,37.815c0.007-0.393-0.161-1.002-0.847-1.002
			c-0.631,0-0.896,0.575-0.946,1.002H89.342z"/>
		<path fill="#5E5E5D" d="M90.7,37.367c0-0.357-0.008-0.638-0.028-0.917h0.546l0.035,0.553h0.014c0.169-0.315,0.561-0.63,1.121-0.63
			c0.469,0,1.197,0.28,1.197,1.443v2.024h-0.616v-1.954c0-0.546-0.203-1.008-0.784-1.008c-0.399,0-0.715,0.287-0.826,0.63
			c-0.028,0.077-0.042,0.189-0.042,0.287v2.045H90.7V37.367z"/>
	</g>
	<g>
		<path fill="#D07327" d="M24.53,127.208c0,0.419,0.02,0.829,0.07,1.159h-0.79l-0.08-0.609H23.7c-0.26,0.379-0.79,0.719-1.479,0.719
			c-0.979,0-1.479-0.689-1.479-1.389c0-1.17,1.04-1.809,2.909-1.799v-0.1c0-0.4-0.11-1.13-1.1-1.12c-0.459,0-0.929,0.13-1.269,0.36
			l-0.2-0.59c0.4-0.25,0.99-0.42,1.599-0.42c1.489,0,1.849,1.01,1.849,1.979V127.208z M23.67,125.898
			c-0.959-0.02-2.049,0.15-2.049,1.09c0,0.579,0.379,0.84,0.819,0.84c0.64,0,1.049-0.4,1.189-0.811c0.03-0.09,0.04-0.189,0.04-0.279
			V125.898z"/>
		<path fill="#D07327" d="M29.39,128.188c-0.23,0.109-0.74,0.279-1.389,0.279c-1.459,0-2.409-0.989-2.409-2.469
			c0-1.488,1.02-2.578,2.599-2.578c0.52,0,0.979,0.13,1.219,0.26l-0.2,0.67c-0.21-0.11-0.54-0.23-1.02-0.23
			c-1.109,0-1.709,0.83-1.709,1.83c0,1.119,0.719,1.809,1.679,1.809c0.5,0,0.83-0.12,1.08-0.23L29.39,128.188z"/>
		<path fill="#D07327" d="M30.421,121.271h0.879v3.018h0.02c0.14-0.25,0.36-0.479,0.63-0.619c0.26-0.16,0.57-0.25,0.899-0.25
			c0.65,0,1.689,0.4,1.689,2.068v2.879H33.66v-2.789c0-0.779-0.29-1.429-1.119-1.429c-0.57,0-1.01,0.399-1.18,0.88
			c-0.05,0.119-0.06,0.25-0.06,0.42v2.918h-0.879V121.271z"/>
		<path fill="#D07327" d="M37.031,122.371v1.158h1.259v0.67h-1.259v2.599c0,0.601,0.17,0.939,0.66,0.939c0.24,0,0.38-0.02,0.51-0.06
			l0.04,0.67c-0.17,0.06-0.44,0.119-0.78,0.119c-0.41,0-0.74-0.14-0.949-0.369c-0.24-0.27-0.34-0.699-0.34-1.27v-2.629h-0.75v-0.67
			h0.75v-0.889L37.031,122.371z"/>
	</g>
	<g>
		<path fill="#2E5DAD" d="M39.862,121.271h0.879v3.028h0.02c0.31-0.539,0.87-0.879,1.649-0.879c1.199,0,2.039,1,2.039,2.459
			c0,1.738-1.099,2.598-2.179,2.598c-0.7,0-1.249-0.27-1.619-0.909h-0.02l-0.05,0.8h-0.76c0.03-0.33,0.04-0.819,0.04-1.25V121.271z
			 M40.741,126.428c0,0.11,0.01,0.221,0.03,0.32c0.17,0.609,0.689,1.029,1.319,1.029c0.929,0,1.469-0.75,1.469-1.859
			c0-0.979-0.5-1.809-1.439-1.809c-0.6,0-1.159,0.42-1.329,1.08c-0.03,0.109-0.05,0.229-0.05,0.369V126.428z"/>
		<path fill="#2E5DAD" d="M45.972,122.711c-0.32,0-0.53-0.25-0.53-0.541c0-0.309,0.22-0.549,0.55-0.549c0.32,0,0.54,0.24,0.54,0.549
			c0,0.291-0.21,0.541-0.55,0.541H45.972z M45.552,128.367v-4.838h0.879v4.838H45.552z"/>
		<path fill="#2E5DAD" d="M47.772,127.468c0.27,0.159,0.729,0.34,1.169,0.34c0.63,0,0.93-0.31,0.93-0.72
			c0-0.42-0.25-0.64-0.89-0.879c-0.879-0.32-1.289-0.801-1.289-1.369c0-0.78,0.64-1.42,1.669-1.42c0.49,0,0.919,0.13,1.179,0.3
			l-0.209,0.63c-0.19-0.11-0.54-0.28-0.99-0.28c-0.52,0-0.799,0.3-0.799,0.659c0,0.4,0.28,0.58,0.909,0.83
			c0.83,0.311,1.27,0.729,1.27,1.449c0,0.859-0.67,1.459-1.799,1.459c-0.529,0-1.019-0.14-1.359-0.34L47.772,127.468z"/>
	</g>
	<g>
		<path fill="#D07327" d="M54.93,127.208c0,0.419,0.02,0.829,0.07,1.159h-0.79l-0.08-0.609H54.1c-0.26,0.379-0.79,0.719-1.479,0.719
			c-0.979,0-1.479-0.689-1.479-1.389c0-1.17,1.04-1.809,2.909-1.799v-0.1c0-0.4-0.11-1.13-1.1-1.12c-0.459,0-0.929,0.13-1.269,0.36
			l-0.2-0.59c0.4-0.25,0.99-0.42,1.599-0.42c1.489,0,1.849,1.01,1.849,1.979V127.208z M54.07,125.898
			c-0.959-0.02-2.049,0.15-2.049,1.09c0,0.579,0.379,0.84,0.819,0.84c0.64,0,1.049-0.4,1.189-0.811c0.03-0.09,0.04-0.189,0.04-0.279
			V125.898z"/>
		<path fill="#D07327" d="M59.789,128.188c-0.229,0.109-0.739,0.279-1.389,0.279c-1.459,0-2.409-0.989-2.409-2.469
			c0-1.488,1.02-2.578,2.598-2.578c0.521,0,0.979,0.13,1.22,0.26l-0.2,0.67c-0.21-0.11-0.539-0.23-1.02-0.23
			c-1.109,0-1.708,0.83-1.708,1.83c0,1.119,0.719,1.809,1.679,1.809c0.499,0,0.829-0.12,1.079-0.23L59.789,128.188z"/>
		<path fill="#D07327" d="M60.821,121.271h0.88v3.018h0.02c0.14-0.25,0.36-0.479,0.63-0.619c0.26-0.16,0.569-0.25,0.899-0.25
			c0.649,0,1.689,0.4,1.689,2.068v2.879h-0.88v-2.789c0-0.779-0.29-1.429-1.119-1.429c-0.57,0-1.01,0.399-1.18,0.88
			c-0.05,0.119-0.06,0.25-0.06,0.42v2.918h-0.88V121.271z"/>
		<path fill="#D07327" d="M67.431,122.371v1.158h1.259v0.67h-1.259v2.599c0,0.601,0.17,0.939,0.659,0.939
			c0.24,0,0.38-0.02,0.51-0.06l0.04,0.67c-0.17,0.06-0.439,0.119-0.779,0.119c-0.41,0-0.739-0.14-0.949-0.369
			c-0.24-0.27-0.34-0.699-0.34-1.27v-2.629h-0.75v-0.67h0.75v-0.889L67.431,122.371z"/>
	</g>
	<g>
		<path fill="#D07327" d="M20.842,208.107v-0.54l0.689-0.669c1.659-1.579,2.419-2.419,2.419-3.398c0-0.66-0.31-1.27-1.279-1.27
			c-0.59,0-1.08,0.3-1.379,0.55l-0.28-0.619c0.44-0.37,1.089-0.66,1.839-0.66c1.389,0,1.979,0.96,1.979,1.889
			c0,1.199-0.87,2.169-2.239,3.488l-0.51,0.479v0.021h2.909v0.729H20.842z"/>
		<path fill="#D07327" d="M28.69,208.107v-1.779h-3.019v-0.569l2.898-4.147h0.949v4.037h0.91v0.68h-0.91v1.779H28.69z
			 M28.69,205.648v-2.169c0-0.339,0.01-0.679,0.03-1.019h-0.03c-0.2,0.379-0.36,0.659-0.54,0.959l-1.589,2.209v0.02H28.69z"/>
		<path fill="#D07327" d="M33.42,205.089v0.64h-2.469v-0.64H33.42z"/>
		<path fill="#D07327" d="M34.581,207.048c0.39,0.24,0.95,0.43,1.549,0.43c0.89,0,1.409-0.46,1.409-1.139c0-0.63-0.36-1-1.269-1.34
			c-1.1-0.38-1.779-0.959-1.779-1.898c0-1.05,0.87-1.829,2.179-1.829c0.68,0,1.189,0.159,1.479,0.319l-0.24,0.72
			c-0.21-0.13-0.66-0.319-1.27-0.319c-0.919,0-1.269,0.549-1.269,1.009c0,0.62,0.41,0.93,1.339,1.289
			c1.14,0.45,1.709,0.99,1.709,1.979c0,1.029-0.759,1.938-2.349,1.938c-0.649,0-1.359-0.199-1.719-0.439L34.581,207.048z"/>
		<path fill="#D07327" d="M40.651,202.11v1.16h1.259v0.669h-1.259v2.599c0,0.6,0.17,0.939,0.66,0.939c0.24,0,0.38-0.02,0.51-0.06
			l0.04,0.67c-0.17,0.06-0.44,0.119-0.78,0.119c-0.41,0-0.74-0.14-0.949-0.369c-0.24-0.271-0.34-0.7-0.34-1.27v-2.629h-0.75v-0.669
			h0.75v-0.89L40.651,202.11z"/>
		<path fill="#D07327" d="M46.949,206.778c0,0.51,0.01,0.949,0.04,1.329h-0.78l-0.05-0.79h-0.02c-0.22,0.391-0.74,0.9-1.599,0.9
			c-0.76,0-1.669-0.43-1.669-2.119v-2.828h0.879v2.668c0,0.92,0.29,1.549,1.08,1.549c0.589,0,1-0.409,1.159-0.81
			c0.05-0.119,0.08-0.279,0.08-0.449v-2.958h0.879V206.778z"/>
		<path fill="#D07327" d="M48.411,204.579c0-0.51-0.01-0.909-0.04-1.309h0.78l0.05,0.789h0.02c0.24-0.449,0.8-0.899,1.599-0.899
			c0.67,0,1.709,0.399,1.709,2.059v2.889h-0.879v-2.788c0-0.78-0.29-1.439-1.119-1.439c-0.57,0-1.02,0.409-1.18,0.899
			c-0.04,0.11-0.06,0.27-0.06,0.41v2.918h-0.879V204.579z"/>
		<path fill="#D07327" d="M58.139,201.012v5.847c0,0.43,0.01,0.919,0.04,1.249h-0.79l-0.04-0.84h-0.02
			c-0.27,0.54-0.85,0.95-1.639,0.95c-1.169,0-2.079-0.99-2.079-2.459c-0.01-1.619,1-2.599,2.169-2.599
			c0.75,0,1.249,0.35,1.459,0.729h0.02v-2.878H58.139z M57.259,205.239c0-0.12-0.01-0.26-0.04-0.38c-0.13-0.55-0.61-1.01-1.269-1.01
			c-0.91,0-1.449,0.8-1.449,1.859c0,0.989,0.489,1.799,1.429,1.799c0.589,0,1.129-0.399,1.289-1.06c0.03-0.109,0.04-0.229,0.04-0.37
			V205.239z"/>
		<path fill="#D07327" d="M60.101,205.849c0.02,1.18,0.77,1.669,1.648,1.669c0.63,0,1.02-0.109,1.34-0.25l0.16,0.63
			c-0.311,0.14-0.85,0.31-1.619,0.31c-1.479,0-2.379-0.989-2.379-2.438c0-1.459,0.869-2.608,2.278-2.608
			c1.579,0,1.989,1.39,1.989,2.278c0,0.181-0.01,0.311-0.03,0.41H60.101z M62.669,205.219c0.01-0.56-0.229-1.429-1.209-1.429
			c-0.899,0-1.279,0.819-1.35,1.429H62.669z"/>
		<path fill="#D07327" d="M64.611,204.579c0-0.51-0.01-0.909-0.04-1.309h0.779l0.051,0.789h0.02c0.24-0.449,0.8-0.899,1.6-0.899
			c0.669,0,1.709,0.399,1.709,2.059v2.889h-0.88v-2.788c0-0.78-0.29-1.439-1.119-1.439c-0.57,0-1.02,0.409-1.18,0.899
			c-0.04,0.11-0.06,0.27-0.06,0.41v2.918h-0.88V204.579z"/>
	</g>
	<g>
		<path fill="#2E5DAD" d="M73.991,205.089v0.64h-2.469v-0.64H73.991z"/>
		<path fill="#2E5DAD" d="M75.263,201.471c0.38-0.09,0.989-0.149,1.589-0.149c0.869,0,1.43,0.149,1.839,0.489
			c0.35,0.26,0.57,0.66,0.57,1.189c0,0.66-0.44,1.229-1.14,1.479v0.03c0.64,0.149,1.389,0.68,1.389,1.679
			c0,0.58-0.229,1.02-0.579,1.35c-0.46,0.43-1.22,0.629-2.319,0.629c-0.6,0-1.059-0.04-1.349-0.079V201.471z M76.132,204.229h0.79
			c0.909,0,1.449-0.489,1.449-1.14c0-0.779-0.59-1.099-1.47-1.099c-0.399,0-0.63,0.029-0.77,0.06V204.229z M76.132,207.448
			c0.18,0.029,0.42,0.039,0.729,0.039c0.899,0,1.729-0.329,1.729-1.309c0-0.91-0.79-1.3-1.739-1.3h-0.72V207.448z"/>
		<path fill="#2E5DAD" d="M84.061,206.948c0,0.42,0.021,0.829,0.07,1.159h-0.79l-0.08-0.609h-0.029
			c-0.261,0.38-0.79,0.72-1.479,0.72c-0.979,0-1.479-0.69-1.479-1.39c0-1.169,1.04-1.809,2.908-1.799v-0.101
			c0-0.399-0.109-1.129-1.099-1.119c-0.46,0-0.93,0.13-1.27,0.36l-0.2-0.59c0.4-0.25,0.989-0.42,1.6-0.42
			c1.489,0,1.849,1.01,1.849,1.979V206.948z M83.201,205.639c-0.96-0.02-2.049,0.15-2.049,1.09c0,0.579,0.38,0.839,0.819,0.839
			c0.64,0,1.05-0.399,1.189-0.81c0.03-0.09,0.04-0.189,0.04-0.279V205.639z"/>
		<path fill="#2E5DAD" d="M85.472,204.579c0-0.51-0.01-0.909-0.04-1.309h0.779l0.051,0.789h0.02c0.24-0.449,0.8-0.899,1.6-0.899
			c0.669,0,1.709,0.399,1.709,2.059v2.889h-0.88v-2.788c0-0.78-0.29-1.439-1.119-1.439c-0.57,0-1.02,0.409-1.18,0.899
			c-0.04,0.11-0.06,0.27-0.06,0.41v2.918h-0.88V204.579z"/>
		<path fill="#2E5DAD" d="M91.901,205.489h0.02c0.12-0.17,0.28-0.38,0.42-0.55l1.43-1.669h1.049l-1.869,1.988l2.129,2.849H94.01
			l-1.659-2.318l-0.449,0.499v1.819h-0.88v-7.096h0.88V205.489z"/>
	</g>
	<g>
		<path fill="#5E5E5D" d="M21.501,138.241l-0.42,1.271h-0.54l1.373-4.042h0.63l1.379,4.042h-0.558l-0.432-1.271H21.501z
			 M22.827,137.834l-0.402-1.164c-0.084-0.264-0.144-0.504-0.204-0.737h-0.018c-0.054,0.233-0.12,0.485-0.198,0.731l-0.396,1.17
			H22.827z"/>
		<path fill="#5E5E5D" d="M26.81,138.715c0,0.307,0.006,0.57,0.024,0.798h-0.468l-0.03-0.474h-0.012
			c-0.132,0.234-0.444,0.539-0.959,0.539c-0.456,0-1.001-0.258-1.001-1.271v-1.696h0.527v1.601c0,0.553,0.174,0.93,0.648,0.93
			c0.354,0,0.6-0.246,0.695-0.485c0.03-0.072,0.048-0.168,0.048-0.271v-1.774h0.527V138.715z"/>
		<path fill="#5E5E5D" d="M29.757,139.404c-0.138,0.066-0.444,0.168-0.834,0.168c-0.875,0-1.445-0.594-1.445-1.48
			c0-0.895,0.611-1.547,1.559-1.547c0.312,0,0.587,0.077,0.731,0.155l-0.12,0.401c-0.125-0.065-0.324-0.138-0.611-0.138
			c-0.666,0-1.025,0.498-1.025,1.098c0,0.671,0.432,1.085,1.007,1.085c0.3,0,0.498-0.072,0.647-0.138L29.757,139.404z"/>
		<path fill="#5E5E5D" d="M30.376,135.255h0.527v1.812h0.012c0.084-0.15,0.216-0.288,0.378-0.372
			c0.156-0.097,0.342-0.149,0.54-0.149c0.39,0,1.013,0.239,1.013,1.24v1.728h-0.527v-1.673c0-0.468-0.174-0.857-0.672-0.857
			c-0.342,0-0.605,0.24-0.708,0.527c-0.03,0.072-0.036,0.15-0.036,0.252v1.751h-0.527V135.255z"/>
		<path fill="#5E5E5D" d="M37.022,138.816c0,0.252,0.012,0.498,0.042,0.696h-0.474l-0.048-0.366h-0.018
			c-0.156,0.229-0.474,0.432-0.888,0.432c-0.587,0-0.887-0.413-0.887-0.833c0-0.702,0.624-1.085,1.745-1.079v-0.061
			c0-0.24-0.066-0.678-0.66-0.672c-0.276,0-0.558,0.078-0.762,0.217l-0.12-0.354c0.24-0.15,0.594-0.252,0.959-0.252
			c0.894,0,1.109,0.605,1.109,1.187V138.816z M36.507,138.031c-0.576-0.012-1.229,0.09-1.229,0.654c0,0.348,0.228,0.504,0.492,0.504
			c0.384,0,0.629-0.24,0.713-0.486c0.018-0.054,0.024-0.113,0.024-0.168V138.031z"/>
		<path fill="#5E5E5D" d="M40.298,138.715c0,0.307,0.006,0.57,0.024,0.798h-0.468l-0.03-0.474h-0.012
			c-0.132,0.234-0.444,0.539-0.959,0.539c-0.456,0-1.001-0.258-1.001-1.271v-1.696h0.527v1.601c0,0.553,0.174,0.93,0.648,0.93
			c0.354,0,0.6-0.246,0.695-0.485c0.03-0.072,0.048-0.168,0.048-0.271v-1.774h0.527V138.715z"/>
		<path fill="#5E5E5D" d="M41.176,139.513v-2.71c0-0.684,0.162-1.068,0.432-1.308c0.222-0.204,0.51-0.306,0.87-0.306
			c0.576,0,1.073,0.354,1.073,1.014c0,0.203-0.072,0.389-0.138,0.491c-0.27,0.114-0.432,0.282-0.432,0.485
			c0,0.204,0.12,0.33,0.306,0.521c0.24,0.24,0.485,0.492,0.485,0.924c0,0.564-0.408,0.953-1.073,0.953
			c-0.228,0-0.462-0.035-0.636-0.125l0.096-0.402c0.156,0.078,0.324,0.12,0.503,0.12c0.384,0,0.588-0.228,0.588-0.504
			c0-0.251-0.114-0.419-0.324-0.618c-0.252-0.239-0.468-0.467-0.468-0.797c0-0.313,0.186-0.57,0.534-0.738
			c0.036-0.071,0.054-0.161,0.054-0.258c0-0.413-0.258-0.652-0.624-0.652c-0.462,0-0.72,0.323-0.72,1.175v2.734H41.176z"/>
		<path fill="#5E5E5D" d="M44.764,138.157c0.012,0.708,0.461,1.001,0.989,1.001c0.378,0,0.612-0.065,0.804-0.149l0.096,0.378
			c-0.186,0.084-0.51,0.186-0.971,0.186c-0.888,0-1.427-0.594-1.427-1.463c0-0.875,0.521-1.564,1.367-1.564
			c0.947,0,1.193,0.833,1.193,1.367c0,0.107-0.006,0.186-0.018,0.245H44.764z M46.305,137.779c0.006-0.336-0.138-0.857-0.726-0.857
			c-0.54,0-0.768,0.492-0.81,0.857H46.305z"/>
		<path fill="#5E5E5D" d="M47.47,137.516c0-0.342-0.006-0.635-0.024-0.905h0.462l0.024,0.569h0.018
			c0.132-0.39,0.456-0.635,0.81-0.635c0.054,0,0.096,0.006,0.144,0.012v0.498c-0.054-0.007-0.108-0.013-0.18-0.013
			c-0.372,0-0.636,0.282-0.708,0.672c-0.012,0.077-0.018,0.161-0.018,0.245v1.554H47.47V137.516z"/>
		<path fill="#5E5E5D" d="M49.432,135.255h0.527v1.812h0.012c0.084-0.15,0.216-0.288,0.378-0.372
			c0.156-0.097,0.342-0.149,0.54-0.149c0.39,0,1.013,0.239,1.013,1.24v1.728h-0.527v-1.673c0-0.468-0.174-0.857-0.672-0.857
			c-0.342,0-0.605,0.24-0.708,0.527c-0.03,0.072-0.036,0.15-0.036,0.252v1.751h-0.527V135.255z"/>
		<path fill="#5E5E5D" d="M54.806,138.816c0,0.252,0.012,0.498,0.042,0.696h-0.474l-0.048-0.366h-0.018
			c-0.156,0.229-0.474,0.432-0.888,0.432c-0.587,0-0.887-0.413-0.887-0.833c0-0.702,0.624-1.085,1.745-1.079v-0.061
			c0-0.24-0.066-0.678-0.66-0.672c-0.276,0-0.558,0.078-0.762,0.217l-0.12-0.354c0.24-0.15,0.594-0.252,0.959-0.252
			c0.894,0,1.109,0.605,1.109,1.187V138.816z M54.291,138.031c-0.576-0.012-1.229,0.09-1.229,0.654c0,0.348,0.228,0.504,0.492,0.504
			c0.384,0,0.629-0.24,0.713-0.486c0.018-0.054,0.024-0.113,0.024-0.168V138.031z"/>
		<path fill="#5E5E5D" d="M55.654,135.255h0.527v4.258h-0.527V135.255z"/>
		<path fill="#5E5E5D" d="M57.07,135.255h0.528v1.817h0.012c0.186-0.324,0.521-0.527,0.989-0.527c0.72,0,1.224,0.6,1.224,1.475
			c0,1.043-0.66,1.559-1.308,1.559c-0.42,0-0.749-0.161-0.971-0.545h-0.012l-0.03,0.479h-0.456c0.018-0.198,0.024-0.491,0.024-0.749
			V135.255z M57.598,138.35c0,0.066,0.006,0.132,0.018,0.191c0.102,0.366,0.414,0.617,0.792,0.617c0.558,0,0.881-0.449,0.881-1.115
			c0-0.587-0.3-1.085-0.863-1.085c-0.359,0-0.695,0.252-0.798,0.647c-0.018,0.066-0.029,0.139-0.029,0.223V138.35z"/>
		<path fill="#5E5E5D" d="M64.184,138.715c0,0.307,0.006,0.57,0.024,0.798H63.74l-0.03-0.474h-0.012
			c-0.132,0.234-0.444,0.539-0.96,0.539c-0.455,0-1.001-0.258-1.001-1.271v-1.696h0.527v1.601c0,0.553,0.174,0.93,0.647,0.93
			c0.354,0,0.6-0.246,0.696-0.485c0.029-0.072,0.048-0.168,0.048-0.271v-1.774h0.527V138.715z"/>
		<path fill="#5E5E5D" d="M65.061,137.396c0-0.307-0.006-0.547-0.023-0.786h0.468l0.029,0.474h0.013
			c0.144-0.27,0.479-0.539,0.959-0.539c0.402,0,1.025,0.239,1.025,1.234v1.733h-0.527v-1.673c0-0.468-0.174-0.863-0.672-0.863
			c-0.342,0-0.611,0.246-0.708,0.539c-0.023,0.066-0.035,0.162-0.035,0.246v1.751h-0.528V137.396z"/>
		<path fill="#5E5E5D" d="M68.319,138.973c0.161,0.096,0.438,0.204,0.701,0.204c0.378,0,0.558-0.186,0.558-0.432
			c0-0.252-0.149-0.384-0.533-0.528c-0.528-0.191-0.774-0.479-0.774-0.82c0-0.469,0.384-0.852,1.002-0.852
			c0.294,0,0.552,0.077,0.708,0.18l-0.126,0.377c-0.114-0.065-0.324-0.168-0.594-0.168c-0.313,0-0.48,0.181-0.48,0.396
			c0,0.24,0.168,0.348,0.546,0.498c0.498,0.186,0.762,0.438,0.762,0.869c0,0.516-0.401,0.875-1.079,0.875
			c-0.318,0-0.612-0.084-0.815-0.203L68.319,138.973z"/>
		<path fill="#5E5E5D" d="M71.066,138.157c0.013,0.708,0.462,1.001,0.989,1.001c0.378,0,0.612-0.065,0.804-0.149l0.097,0.378
			c-0.187,0.084-0.51,0.186-0.972,0.186c-0.888,0-1.428-0.594-1.428-1.463c0-0.875,0.522-1.564,1.367-1.564
			c0.948,0,1.193,0.833,1.193,1.367c0,0.107-0.006,0.186-0.018,0.245H71.066z M72.607,137.779c0.007-0.336-0.138-0.857-0.726-0.857
			c-0.539,0-0.768,0.492-0.81,0.857H72.607z"/>
		<path fill="#5E5E5D" d="M73.772,137.516c0-0.342-0.006-0.635-0.023-0.905h0.462l0.023,0.569h0.019
			c0.132-0.39,0.455-0.635,0.809-0.635c0.055,0,0.097,0.006,0.145,0.012v0.498c-0.054-0.007-0.108-0.013-0.18-0.013
			c-0.372,0-0.636,0.282-0.708,0.672c-0.012,0.077-0.018,0.161-0.018,0.245v1.554h-0.528V137.516z"/>
		<path fill="#5E5E5D" d="M75.908,138.157c0.013,0.708,0.462,1.001,0.989,1.001c0.378,0,0.612-0.065,0.804-0.149l0.097,0.378
			c-0.187,0.084-0.51,0.186-0.972,0.186c-0.888,0-1.428-0.594-1.428-1.463c0-0.875,0.522-1.564,1.367-1.564
			c0.948,0,1.193,0.833,1.193,1.367c0,0.107-0.006,0.186-0.018,0.245H75.908z M77.449,137.779c0.007-0.336-0.138-0.857-0.726-0.857
			c-0.539,0-0.768,0.492-0.81,0.857H77.449z"/>
		<path fill="#5E5E5D" d="M78.615,137.516c0-0.342-0.006-0.635-0.023-0.905h0.462l0.023,0.569h0.019
			c0.132-0.39,0.455-0.635,0.81-0.635c0.054,0,0.096,0.006,0.144,0.012v0.498c-0.054-0.007-0.108-0.013-0.18-0.013
			c-0.372,0-0.636,0.282-0.708,0.672c-0.012,0.077-0.018,0.161-0.018,0.245v1.554h-0.528V137.516z"/>
		<path fill="#5E5E5D" d="M81.801,138.877c0.234,0.145,0.569,0.258,0.93,0.258c0.533,0,0.846-0.275,0.846-0.684
			c0-0.378-0.216-0.6-0.762-0.803c-0.66-0.229-1.067-0.576-1.067-1.141c0-0.629,0.521-1.097,1.308-1.097
			c0.407,0,0.713,0.096,0.887,0.192l-0.144,0.432c-0.126-0.078-0.396-0.192-0.762-0.192c-0.552,0-0.762,0.329-0.762,0.605
			c0,0.372,0.246,0.558,0.804,0.774c0.684,0.27,1.025,0.593,1.025,1.187c0,0.618-0.456,1.163-1.409,1.163
			c-0.39,0-0.815-0.119-1.031-0.264L81.801,138.877z"/>
		<path fill="#5E5E5D" d="M85.106,138.157c0.013,0.708,0.462,1.001,0.99,1.001c0.377,0,0.611-0.065,0.803-0.149l0.097,0.378
			c-0.187,0.084-0.51,0.186-0.972,0.186c-0.888,0-1.428-0.594-1.428-1.463c0-0.875,0.522-1.564,1.367-1.564
			c0.948,0,1.193,0.833,1.193,1.367c0,0.107-0.006,0.186-0.018,0.245H85.106z M86.647,137.779c0.007-0.336-0.138-0.857-0.726-0.857
			c-0.539,0-0.768,0.492-0.81,0.857H86.647z"/>
		<path fill="#5E5E5D" d="M87.813,137.516c0-0.342-0.006-0.635-0.023-0.905h0.462l0.023,0.569h0.019
			c0.132-0.39,0.455-0.635,0.81-0.635c0.054,0,0.096,0.006,0.144,0.012v0.498c-0.054-0.007-0.108-0.013-0.18-0.013
			c-0.372,0-0.636,0.282-0.708,0.672c-0.012,0.077-0.018,0.161-0.018,0.245v1.554h-0.528V137.516z"/>
		<path fill="#5E5E5D" d="M89.979,136.61l0.569,1.625c0.097,0.271,0.174,0.51,0.234,0.749H90.8c0.066-0.239,0.15-0.479,0.246-0.749
			l0.563-1.625h0.552l-1.139,2.902h-0.504l-1.104-2.902H89.979z"/>
		<path fill="#5E5E5D" d="M92.912,136.119c-0.191,0-0.317-0.15-0.317-0.324c0-0.186,0.132-0.33,0.329-0.33
			c0.192,0,0.324,0.145,0.324,0.33c0,0.174-0.126,0.324-0.33,0.324H92.912z M92.66,139.513v-2.902h0.528v2.902H92.66z"/>
		<path fill="#5E5E5D" d="M96.134,139.404c-0.138,0.066-0.444,0.168-0.834,0.168c-0.875,0-1.445-0.594-1.445-1.48
			c0-0.895,0.612-1.547,1.56-1.547c0.312,0,0.588,0.077,0.731,0.155l-0.12,0.401c-0.126-0.065-0.323-0.138-0.611-0.138
			c-0.666,0-1.025,0.498-1.025,1.098c0,0.671,0.432,1.085,1.007,1.085c0.301,0,0.498-0.072,0.648-0.138L96.134,139.404z"/>
		<path fill="#5E5E5D" d="M97.053,138.157c0.013,0.708,0.462,1.001,0.989,1.001c0.378,0,0.612-0.065,0.804-0.149l0.097,0.378
			c-0.187,0.084-0.51,0.186-0.972,0.186c-0.888,0-1.428-0.594-1.428-1.463c0-0.875,0.522-1.564,1.367-1.564
			c0.948,0,1.193,0.833,1.193,1.367c0,0.107-0.006,0.186-0.018,0.245H97.053z M98.594,137.779c0.007-0.336-0.138-0.857-0.726-0.857
			c-0.539,0-0.768,0.492-0.81,0.857H98.594z"/>
		<path fill="#5E5E5D" d="M101.102,137.701v0.385H99.62v-0.385H101.102z"/>
	</g>
	<g>
	</g>
	<g>
		<path fill="#5E5E5D" d="M20.5,146.407l1.313-1.709c0.132-0.162,0.246-0.3,0.384-0.456v-0.012H20.62v-0.42h2.212v0.33l-1.301,1.69
			c-0.12,0.156-0.24,0.307-0.372,0.45v0.012h1.697v0.42H20.5V146.407z"/>
		<path fill="#5E5E5D" d="M23.698,145.357c0.012,0.708,0.461,1.002,0.989,1.002c0.378,0,0.612-0.066,0.804-0.15l0.096,0.378
			c-0.186,0.084-0.51,0.186-0.971,0.186c-0.888,0-1.427-0.594-1.427-1.463c0-0.875,0.521-1.565,1.367-1.565
			c0.947,0,1.193,0.834,1.193,1.367c0,0.108-0.006,0.187-0.018,0.246H23.698z M25.239,144.979c0.006-0.336-0.138-0.857-0.726-0.857
			c-0.54,0-0.768,0.492-0.81,0.857H25.239z"/>
		<path fill="#5E5E5D" d="M26.655,143.318c-0.192,0-0.318-0.149-0.318-0.323c0-0.187,0.132-0.33,0.33-0.33
			c0.192,0,0.324,0.144,0.324,0.33c0,0.174-0.126,0.323-0.33,0.323H26.655z M26.404,146.713v-2.902h0.527v2.902H26.404z"/>
		<path fill="#5E5E5D" d="M28.443,143.115v0.695h0.756v0.401h-0.756v1.56c0,0.359,0.102,0.563,0.396,0.563
			c0.144,0,0.228-0.012,0.306-0.036l0.024,0.402c-0.102,0.036-0.264,0.071-0.468,0.071c-0.246,0-0.443-0.084-0.569-0.222
			c-0.144-0.162-0.204-0.42-0.204-0.762v-1.577h-0.45v-0.401h0.45v-0.534L28.443,143.115z"/>
		<path fill="#5E5E5D" d="M30.094,145.357c0.012,0.708,0.461,1.002,0.989,1.002c0.378,0,0.612-0.066,0.804-0.15l0.096,0.378
			c-0.186,0.084-0.51,0.186-0.971,0.186c-0.888,0-1.427-0.594-1.427-1.463c0-0.875,0.521-1.565,1.367-1.565
			c0.947,0,1.193,0.834,1.193,1.367c0,0.108-0.006,0.187-0.018,0.246H30.094z M31.635,144.979c0.006-0.336-0.138-0.857-0.726-0.857
			c-0.54,0-0.768,0.492-0.81,0.857H31.635z"/>
		<path fill="#5E5E5D" d="M32.8,144.596c0-0.306-0.006-0.545-0.024-0.785h0.468l0.03,0.474h0.012c0.144-0.27,0.48-0.54,0.959-0.54
			c0.402,0,1.025,0.24,1.025,1.235v1.733h-0.527v-1.673c0-0.468-0.174-0.863-0.672-0.863c-0.342,0-0.612,0.245-0.708,0.539
			c-0.024,0.066-0.036,0.162-0.036,0.246v1.751H32.8V144.596z"/>
		<path fill="#5E5E5D" d="M37.402,142.455h0.527v1.817h0.012c0.186-0.324,0.521-0.528,0.989-0.528c0.72,0,1.224,0.6,1.224,1.476
			c0,1.043-0.66,1.56-1.308,1.56c-0.419,0-0.75-0.162-0.971-0.546h-0.012l-0.03,0.479h-0.456c0.018-0.198,0.024-0.492,0.024-0.75
			V142.455z M37.929,145.55c0,0.065,0.006,0.132,0.018,0.191c0.102,0.366,0.414,0.618,0.792,0.618c0.558,0,0.882-0.45,0.882-1.115
			c0-0.588-0.3-1.086-0.864-1.086c-0.36,0-0.696,0.252-0.797,0.647c-0.018,0.066-0.03,0.139-0.03,0.222V145.55z"/>
		<path fill="#5E5E5D" d="M41.116,145.357c0.012,0.708,0.461,1.002,0.989,1.002c0.378,0,0.612-0.066,0.804-0.15l0.096,0.378
			c-0.186,0.084-0.51,0.186-0.971,0.186c-0.888,0-1.427-0.594-1.427-1.463c0-0.875,0.521-1.565,1.367-1.565
			c0.947,0,1.193,0.834,1.193,1.367c0,0.108-0.006,0.187-0.018,0.246H41.116z M42.657,144.979c0.006-0.336-0.138-0.857-0.726-0.857
			c-0.54,0-0.768,0.492-0.81,0.857H42.657z"/>
		<path fill="#5E5E5D" d="M43.822,144.716c0-0.342-0.006-0.636-0.024-0.905h0.462l0.024,0.569h0.018
			c0.132-0.39,0.456-0.636,0.81-0.636c0.054,0,0.096,0.007,0.144,0.013v0.497c-0.054-0.006-0.108-0.012-0.18-0.012
			c-0.372,0-0.635,0.282-0.708,0.672c-0.012,0.078-0.018,0.162-0.018,0.246v1.553h-0.527V144.716z"/>
		<path fill="#5E5E5D" d="M47.708,146.018c0,0.252,0.012,0.497,0.042,0.695h-0.474l-0.048-0.366H47.21
			c-0.156,0.229-0.474,0.433-0.888,0.433c-0.587,0-0.887-0.414-0.887-0.834c0-0.701,0.624-1.085,1.745-1.079v-0.061
			c0-0.239-0.066-0.678-0.66-0.671c-0.276,0-0.558,0.077-0.762,0.216l-0.12-0.354c0.24-0.149,0.594-0.252,0.959-0.252
			c0.894,0,1.109,0.606,1.109,1.188V146.018z M47.192,145.231c-0.576-0.012-1.229,0.09-1.229,0.654c0,0.348,0.228,0.503,0.492,0.503
			c0.384,0,0.629-0.239,0.713-0.485c0.018-0.054,0.024-0.114,0.024-0.168V145.231z"/>
		<path fill="#5E5E5D" d="M49.191,143.115v0.695h0.756v0.401h-0.756v1.56c0,0.359,0.102,0.563,0.396,0.563
			c0.144,0,0.228-0.012,0.306-0.036l0.024,0.402c-0.102,0.036-0.264,0.071-0.468,0.071c-0.246,0-0.443-0.084-0.569-0.222
			c-0.144-0.162-0.204-0.42-0.204-0.762v-1.577h-0.45v-0.401h0.45v-0.534L49.191,143.115z"/>
		<path fill="#5E5E5D" d="M50.841,145.357c0.012,0.708,0.461,1.002,0.989,1.002c0.378,0,0.612-0.066,0.804-0.15l0.096,0.378
			c-0.186,0.084-0.51,0.186-0.971,0.186c-0.888,0-1.427-0.594-1.427-1.463c0-0.875,0.521-1.565,1.367-1.565
			c0.947,0,1.193,0.834,1.193,1.367c0,0.108-0.006,0.187-0.018,0.246H50.841z M52.382,144.979c0.006-0.336-0.138-0.857-0.726-0.857
			c-0.54,0-0.768,0.492-0.81,0.857H52.382z"/>
		<path fill="#5E5E5D" d="M53.547,144.596c0-0.306-0.006-0.545-0.024-0.785h0.468l0.03,0.474h0.012c0.144-0.27,0.48-0.54,0.959-0.54
			c0.402,0,1.025,0.24,1.025,1.235v1.733H55.49v-1.673c0-0.468-0.174-0.863-0.672-0.863c-0.342,0-0.612,0.245-0.708,0.539
			c-0.024,0.066-0.036,0.162-0.036,0.246v1.751h-0.527V144.596z"/>
		<path fill="#5E5E5D" d="M58.358,143.811l0.39,1.469c0.078,0.324,0.156,0.63,0.21,0.93h0.019c0.065-0.294,0.161-0.605,0.258-0.923
			l0.474-1.476h0.443l0.45,1.451c0.107,0.342,0.191,0.653,0.258,0.947h0.018c0.048-0.294,0.126-0.6,0.222-0.941l0.414-1.457h0.521
			l-0.936,2.902h-0.479l-0.443-1.385c-0.103-0.33-0.187-0.618-0.258-0.96h-0.013c-0.071,0.348-0.161,0.653-0.264,0.966l-0.468,1.379
			h-0.479l-0.875-2.902H58.358z"/>
		<path fill="#5E5E5D" d="M62.816,143.318c-0.191,0-0.317-0.149-0.317-0.323c0-0.187,0.132-0.33,0.329-0.33
			c0.192,0,0.324,0.144,0.324,0.33c0,0.174-0.126,0.323-0.33,0.323H62.816z M62.564,146.713v-2.902h0.528v2.902H62.564z"/>
		<path fill="#5E5E5D" d="M63.969,144.716c0-0.342-0.006-0.636-0.023-0.905h0.462l0.023,0.569h0.019
			c0.132-0.39,0.455-0.636,0.81-0.636c0.054,0,0.096,0.007,0.144,0.013v0.497c-0.054-0.006-0.108-0.012-0.18-0.012
			c-0.372,0-0.636,0.282-0.708,0.672c-0.012,0.078-0.018,0.162-0.018,0.246v1.553h-0.528V144.716z"/>
		<path fill="#5E5E5D" d="M67.155,146.077c0.234,0.144,0.57,0.258,0.93,0.258c0.533,0,0.846-0.275,0.846-0.684
			c0-0.378-0.216-0.6-0.762-0.804c-0.66-0.228-1.067-0.575-1.067-1.139c0-0.63,0.521-1.098,1.308-1.098
			c0.407,0,0.713,0.096,0.887,0.191l-0.144,0.432c-0.126-0.077-0.396-0.191-0.762-0.191c-0.552,0-0.762,0.33-0.762,0.605
			c0,0.372,0.246,0.558,0.804,0.773c0.684,0.271,1.025,0.594,1.025,1.188c0,0.618-0.456,1.163-1.409,1.163
			c-0.39,0-0.815-0.119-1.031-0.264L67.155,146.077z"/>
		<path fill="#5E5E5D" d="M70.413,143.318c-0.191,0-0.317-0.149-0.317-0.323c0-0.187,0.132-0.33,0.329-0.33
			c0.192,0,0.324,0.144,0.324,0.33c0,0.174-0.126,0.323-0.33,0.323H70.413z M70.161,146.713v-2.902h0.528v2.902H70.161z"/>
		<path fill="#5E5E5D" d="M71.864,145.357c0.013,0.708,0.462,1.002,0.99,1.002c0.377,0,0.611-0.066,0.803-0.15l0.097,0.378
			c-0.187,0.084-0.51,0.186-0.972,0.186c-0.888,0-1.428-0.594-1.428-1.463c0-0.875,0.522-1.565,1.367-1.565
			c0.948,0,1.193,0.834,1.193,1.367c0,0.108-0.006,0.187-0.018,0.246H71.864z M73.405,144.979c0.007-0.336-0.138-0.857-0.726-0.857
			c-0.539,0-0.768,0.492-0.81,0.857H73.405z"/>
		<path fill="#5E5E5D" d="M78.325,146.287c0,0.672-0.138,1.073-0.413,1.331c-0.288,0.258-0.696,0.348-1.062,0.348
			c-0.348,0-0.731-0.084-0.966-0.239l0.132-0.408c0.192,0.126,0.492,0.234,0.852,0.234c0.54,0,0.936-0.282,0.936-1.02v-0.318h-0.012
			c-0.156,0.271-0.474,0.486-0.924,0.486c-0.72,0-1.235-0.612-1.235-1.422c0-0.983,0.642-1.535,1.313-1.535
			c0.504,0,0.773,0.258,0.905,0.504h0.013l0.018-0.438h0.468c-0.018,0.204-0.024,0.443-0.024,0.792V146.287z M77.798,144.95
			c0-0.084-0.006-0.162-0.03-0.234c-0.096-0.312-0.348-0.563-0.737-0.563c-0.504,0-0.863,0.426-0.863,1.104
			c0,0.563,0.294,1.043,0.857,1.043c0.33,0,0.624-0.203,0.731-0.546c0.03-0.083,0.042-0.186,0.042-0.281V144.95z"/>
		<path fill="#5E5E5D" d="M79.496,145.357c0.013,0.708,0.462,1.002,0.989,1.002c0.378,0,0.612-0.066,0.804-0.15l0.097,0.378
			c-0.187,0.084-0.51,0.186-0.972,0.186c-0.888,0-1.428-0.594-1.428-1.463c0-0.875,0.522-1.565,1.367-1.565
			c0.948,0,1.193,0.834,1.193,1.367c0,0.108-0.006,0.187-0.018,0.246H79.496z M81.037,144.979c0.007-0.336-0.138-0.857-0.726-0.857
			c-0.539,0-0.768,0.492-0.81,0.857H81.037z"/>
		<path fill="#5E5E5D" d="M82.202,144.716c0-0.342-0.006-0.636-0.023-0.905h0.462l0.023,0.569h0.019
			c0.132-0.39,0.455-0.636,0.809-0.636c0.055,0,0.097,0.007,0.145,0.013v0.497c-0.054-0.006-0.108-0.012-0.18-0.012
			c-0.372,0-0.636,0.282-0.708,0.672c-0.012,0.078-0.018,0.162-0.018,0.246v1.553h-0.528V144.716z"/>
		<path fill="#5E5E5D" d="M84.164,144.596c0-0.306-0.006-0.545-0.023-0.785h0.468l0.029,0.474h0.013
			c0.144-0.27,0.479-0.54,0.959-0.54c0.402,0,1.025,0.24,1.025,1.235v1.733h-0.527v-1.673c0-0.468-0.174-0.863-0.672-0.863
			c-0.342,0-0.611,0.245-0.708,0.539c-0.023,0.066-0.035,0.162-0.035,0.246v1.751h-0.528V144.596z"/>
		<path fill="#5E5E5D" d="M87.794,145.357c0.013,0.708,0.462,1.002,0.99,1.002c0.377,0,0.611-0.066,0.803-0.15l0.097,0.378
			c-0.187,0.084-0.51,0.186-0.972,0.186c-0.888,0-1.428-0.594-1.428-1.463c0-0.875,0.522-1.565,1.367-1.565
			c0.948,0,1.193,0.834,1.193,1.367c0,0.108-0.006,0.187-0.018,0.246H87.794z M89.335,144.979c0.007-0.336-0.138-0.857-0.726-0.857
			c-0.539,0-0.768,0.492-0.81,0.857H89.335z"/>
		<path fill="#5E5E5D" d="M90.849,144.662c-0.204,0-0.349-0.162-0.349-0.372c0-0.222,0.15-0.378,0.354-0.378
			c0.216,0,0.354,0.156,0.354,0.378c0,0.21-0.138,0.372-0.354,0.372H90.849z M90.849,146.779c-0.204,0-0.349-0.162-0.349-0.372
			c0-0.222,0.15-0.378,0.354-0.378c0.216,0,0.354,0.156,0.354,0.378c0,0.21-0.138,0.372-0.354,0.372H90.849z"/>
	</g>
	<g>
		<path fill="#5E5E5D" d="M24.254,159.337c-0.03-0.558-0.066-1.247-0.066-1.745h-0.012c-0.144,0.468-0.306,0.984-0.509,1.535
			l-0.714,1.961h-0.396l-0.66-1.925c-0.192-0.569-0.348-1.091-0.462-1.571h-0.012c-0.012,0.504-0.042,1.182-0.078,1.787
			l-0.108,1.733H20.74l0.282-4.042h0.666l0.689,1.955c0.168,0.498,0.3,0.947,0.408,1.367h0.012c0.108-0.407,0.252-0.857,0.432-1.367
			l0.72-1.955h0.666l0.252,4.042H24.35L24.254,159.337z"/>
		<path fill="#5E5E5D" d="M26.835,161.179c-0.78,0-1.391-0.576-1.391-1.493c0-0.972,0.642-1.542,1.439-1.542
			c0.833,0,1.397,0.606,1.397,1.487c0,1.08-0.75,1.548-1.439,1.548H26.835z M26.859,160.782c0.504,0,0.881-0.474,0.881-1.133
			c0-0.492-0.246-1.109-0.869-1.109c-0.618,0-0.888,0.575-0.888,1.127c0,0.636,0.36,1.115,0.87,1.115H26.859z"/>
		<path fill="#5E5E5D" d="M28.948,158.995c0-0.306-0.006-0.545-0.024-0.785h0.468l0.03,0.474h0.012c0.144-0.27,0.48-0.54,0.959-0.54
			c0.402,0,1.025,0.24,1.025,1.235v1.733h-0.527v-1.673c0-0.468-0.174-0.863-0.672-0.863c-0.342,0-0.612,0.245-0.708,0.539
			c-0.024,0.066-0.036,0.162-0.036,0.246v1.751h-0.527V158.995z"/>
		<path fill="#5E5E5D" d="M32.913,157.515v0.695h0.756v0.401h-0.756v1.56c0,0.359,0.102,0.563,0.396,0.563
			c0.144,0,0.228-0.012,0.306-0.036l0.024,0.402c-0.102,0.036-0.264,0.071-0.468,0.071c-0.246,0-0.443-0.084-0.569-0.222
			c-0.144-0.162-0.204-0.42-0.204-0.762v-1.577h-0.45v-0.401h0.45v-0.534L32.913,157.515z"/>
		<path fill="#5E5E5D" d="M36.308,160.417c0,0.252,0.012,0.497,0.042,0.695h-0.474l-0.048-0.366h-0.018
			c-0.156,0.229-0.474,0.433-0.888,0.433c-0.587,0-0.887-0.414-0.887-0.834c0-0.701,0.624-1.085,1.745-1.079v-0.061
			c0-0.239-0.066-0.678-0.66-0.671c-0.276,0-0.558,0.077-0.762,0.216l-0.12-0.354c0.24-0.149,0.594-0.252,0.959-0.252
			c0.894,0,1.109,0.606,1.109,1.188V160.417z M35.792,159.631c-0.576-0.012-1.229,0.09-1.229,0.654c0,0.348,0.228,0.503,0.492,0.503
			c0.384,0,0.629-0.239,0.713-0.485c0.018-0.054,0.024-0.114,0.024-0.168V159.631z"/>
		<path fill="#5E5E5D" d="M39.638,160.687c0,0.672-0.138,1.073-0.414,1.331c-0.288,0.258-0.696,0.348-1.062,0.348
			c-0.348,0-0.732-0.084-0.966-0.239l0.132-0.408c0.192,0.126,0.492,0.234,0.852,0.234c0.54,0,0.935-0.282,0.935-1.02v-0.318h-0.012
			c-0.156,0.271-0.474,0.486-0.923,0.486c-0.72,0-1.235-0.612-1.235-1.422c0-0.983,0.642-1.535,1.313-1.535
			c0.504,0,0.774,0.258,0.906,0.504h0.012l0.018-0.438h0.468c-0.018,0.204-0.024,0.443-0.024,0.791V160.687z M39.11,159.35
			c0-0.084-0.006-0.162-0.03-0.234c-0.096-0.312-0.348-0.563-0.738-0.563c-0.503,0-0.863,0.426-0.863,1.104
			c0,0.563,0.294,1.043,0.857,1.043c0.33,0,0.624-0.203,0.731-0.545c0.03-0.084,0.042-0.187,0.042-0.282V159.35z"/>
		<path fill="#5E5E5D" d="M41.782,156.854h0.527v1.817h0.012c0.186-0.324,0.521-0.528,0.989-0.528c0.72,0,1.224,0.6,1.224,1.476
			c0,1.043-0.66,1.56-1.308,1.56c-0.419,0-0.75-0.162-0.971-0.546h-0.012l-0.03,0.479h-0.456c0.018-0.198,0.024-0.492,0.024-0.75
			V156.854z M42.309,159.949c0,0.065,0.006,0.132,0.018,0.191c0.102,0.366,0.414,0.618,0.792,0.618c0.558,0,0.882-0.45,0.882-1.115
			c0-0.588-0.3-1.086-0.864-1.086c-0.36,0-0.696,0.252-0.797,0.647c-0.018,0.066-0.03,0.139-0.03,0.222V159.949z"/>
		<path fill="#5E5E5D" d="M45.447,157.718c-0.192,0-0.318-0.149-0.318-0.323c0-0.187,0.132-0.33,0.33-0.33
			c0.192,0,0.324,0.144,0.324,0.33c0,0.174-0.126,0.323-0.33,0.323H45.447z M45.196,161.112v-2.902h0.527v2.902H45.196z"/>
		<path fill="#5E5E5D" d="M46.527,160.572c0.162,0.097,0.438,0.204,0.702,0.204c0.378,0,0.558-0.186,0.558-0.432
			c0-0.252-0.15-0.384-0.534-0.527c-0.528-0.192-0.773-0.48-0.773-0.822c0-0.468,0.384-0.852,1.001-0.852
			c0.294,0,0.552,0.078,0.708,0.181l-0.126,0.377c-0.114-0.065-0.324-0.167-0.594-0.167c-0.312,0-0.479,0.18-0.479,0.396
			c0,0.239,0.168,0.348,0.545,0.497c0.498,0.187,0.762,0.438,0.762,0.87c0,0.516-0.402,0.875-1.08,0.875
			c-0.317,0-0.611-0.084-0.815-0.203L46.527,160.572z"/>
		<path fill="#5E5E5D" d="M50.259,157.07h2.177v0.438h-1.649v1.344h1.523v0.432h-1.523v1.829h-0.528V157.07z"/>
		<path fill="#5E5E5D" d="M53.049,159.115c0-0.342-0.006-0.636-0.024-0.905h0.462l0.024,0.569h0.018
			c0.132-0.39,0.456-0.636,0.81-0.636c0.054,0,0.096,0.007,0.144,0.013v0.497c-0.054-0.006-0.108-0.012-0.18-0.012
			c-0.372,0-0.635,0.282-0.708,0.672c-0.012,0.078-0.018,0.162-0.018,0.246v1.553h-0.527V159.115z"/>
		<path fill="#5E5E5D" d="M55.186,159.757c0.012,0.708,0.461,1.002,0.989,1.002c0.378,0,0.612-0.066,0.804-0.15l0.096,0.378
			c-0.186,0.084-0.51,0.186-0.971,0.186c-0.888,0-1.427-0.594-1.427-1.463c0-0.875,0.521-1.565,1.367-1.565
			c0.947,0,1.193,0.834,1.193,1.367c0,0.108-0.006,0.187-0.018,0.246H55.186z M56.727,159.379c0.006-0.336-0.138-0.857-0.726-0.857
			c-0.54,0-0.768,0.492-0.81,0.857H56.727z"/>
		<path fill="#5E5E5D" d="M58.144,157.718c-0.192,0-0.318-0.149-0.318-0.323c0-0.187,0.132-0.33,0.33-0.33
			c0.191,0,0.324,0.144,0.324,0.33c0,0.174-0.126,0.323-0.33,0.323H58.144z M57.892,161.112v-2.902h0.527v2.902H57.892z"/>
		<path fill="#5E5E5D" d="M59.931,157.515v0.695h0.756v0.401h-0.756v1.56c0,0.359,0.103,0.563,0.396,0.563
			c0.145,0,0.229-0.012,0.307-0.036l0.023,0.402c-0.102,0.036-0.264,0.071-0.468,0.071c-0.246,0-0.443-0.084-0.569-0.222
			c-0.145-0.162-0.204-0.42-0.204-0.762v-1.577h-0.449v-0.401h0.449v-0.534L59.931,157.515z"/>
		<path fill="#5E5E5D" d="M63.326,160.417c0,0.252,0.013,0.497,0.042,0.695h-0.474l-0.048-0.366h-0.018
			c-0.156,0.229-0.475,0.433-0.888,0.433c-0.588,0-0.888-0.414-0.888-0.834c0-0.701,0.624-1.085,1.745-1.079v-0.061
			c0-0.239-0.066-0.678-0.66-0.671c-0.275,0-0.558,0.077-0.761,0.216l-0.12-0.354c0.239-0.149,0.594-0.252,0.959-0.252
			c0.894,0,1.109,0.606,1.109,1.188V160.417z M62.811,159.631c-0.575-0.012-1.229,0.09-1.229,0.654c0,0.348,0.229,0.503,0.492,0.503
			c0.384,0,0.63-0.239,0.714-0.485c0.018-0.054,0.023-0.114,0.023-0.168V159.631z"/>
		<path fill="#5E5E5D" d="M66.655,160.687c0,0.672-0.138,1.073-0.413,1.331c-0.288,0.258-0.696,0.348-1.062,0.348
			c-0.348,0-0.731-0.084-0.966-0.239l0.132-0.408c0.192,0.126,0.492,0.234,0.852,0.234c0.54,0,0.936-0.282,0.936-1.02v-0.318h-0.012
			c-0.156,0.271-0.474,0.486-0.924,0.486c-0.72,0-1.235-0.612-1.235-1.422c0-0.983,0.642-1.535,1.313-1.535
			c0.504,0,0.773,0.258,0.905,0.504h0.013l0.018-0.438h0.468c-0.018,0.204-0.024,0.443-0.024,0.791V160.687z M66.128,159.35
			c0-0.084-0.006-0.162-0.03-0.234c-0.096-0.312-0.348-0.563-0.737-0.563c-0.504,0-0.863,0.426-0.863,1.104
			c0,0.563,0.294,1.043,0.857,1.043c0.33,0,0.624-0.203,0.731-0.545c0.03-0.084,0.042-0.187,0.042-0.282V159.35z"/>
		<path fill="#5E5E5D" d="M69.003,158.21l0.569,1.625c0.097,0.27,0.174,0.51,0.234,0.75h0.018c0.066-0.24,0.15-0.48,0.246-0.75
			l0.563-1.625h0.552l-1.139,2.902h-0.504l-1.104-2.902H69.003z"/>
		<path fill="#5E5E5D" d="M72.746,161.179c-0.779,0-1.392-0.576-1.392-1.493c0-0.972,0.642-1.542,1.439-1.542
			c0.834,0,1.397,0.606,1.397,1.487c0,1.08-0.75,1.548-1.439,1.548H72.746z M72.771,160.782c0.503,0,0.881-0.474,0.881-1.133
			c0-0.492-0.246-1.109-0.869-1.109c-0.618,0-0.888,0.575-0.888,1.127c0,0.636,0.359,1.115,0.869,1.115H72.771z"/>
		<path fill="#5E5E5D" d="M74.858,158.995c0-0.306-0.006-0.545-0.023-0.785h0.468l0.029,0.474h0.013
			c0.144-0.27,0.479-0.54,0.959-0.54c0.402,0,1.025,0.24,1.025,1.235v1.733h-0.527v-1.673c0-0.468-0.174-0.863-0.672-0.863
			c-0.342,0-0.611,0.245-0.708,0.539c-0.023,0.066-0.035,0.162-0.035,0.246v1.751h-0.528V158.995z"/>
		<path fill="#5E5E5D" d="M80.601,157.148c0.756,0,1.14,0.468,1.14,0.96c0,0.329-0.168,0.689-0.647,0.911v0.018
			c0.485,0.192,0.785,0.54,0.785,1.008c0,0.684-0.582,1.134-1.325,1.134c-0.815,0-1.308-0.48-1.308-1.05
			c0-0.492,0.294-0.846,0.768-1.05v-0.018c-0.438-0.204-0.623-0.54-0.623-0.876c0-0.617,0.521-1.037,1.205-1.037H80.601z
			 M80.564,160.795c0.474,0,0.779-0.294,0.779-0.696c0-0.468-0.329-0.701-0.857-0.852c-0.455,0.132-0.701,0.438-0.701,0.81
			c-0.019,0.39,0.281,0.738,0.773,0.738H80.564z M80.57,157.526c-0.438,0-0.678,0.288-0.678,0.624
			c-0.006,0.39,0.294,0.6,0.744,0.719c0.336-0.113,0.594-0.354,0.594-0.707c0-0.312-0.187-0.636-0.654-0.636H80.57z"/>
		<path fill="#5E5E5D" d="M83.811,156.854h0.528v1.817h0.012c0.186-0.324,0.521-0.528,0.989-0.528c0.72,0,1.224,0.6,1.224,1.476
			c0,1.043-0.66,1.56-1.308,1.56c-0.42,0-0.749-0.162-0.972-0.546h-0.012l-0.03,0.479h-0.455c0.018-0.198,0.023-0.492,0.023-0.75
			V156.854z M84.339,159.949c0,0.065,0.006,0.132,0.018,0.191c0.102,0.366,0.414,0.618,0.792,0.618c0.558,0,0.881-0.45,0.881-1.115
			c0-0.588-0.3-1.086-0.863-1.086c-0.359,0-0.695,0.252-0.798,0.647c-0.018,0.066-0.029,0.139-0.029,0.222V159.949z"/>
		<path fill="#5E5E5D" d="M87.477,157.718c-0.191,0-0.317-0.149-0.317-0.323c0-0.187,0.132-0.33,0.329-0.33
			c0.192,0,0.324,0.144,0.324,0.33c0,0.174-0.126,0.323-0.33,0.323H87.477z M87.225,161.112v-2.902h0.528v2.902H87.225z"/>
		<path fill="#5E5E5D" d="M88.557,160.572c0.161,0.097,0.438,0.204,0.701,0.204c0.378,0,0.558-0.186,0.558-0.432
			c0-0.252-0.149-0.384-0.533-0.527c-0.528-0.192-0.774-0.48-0.774-0.822c0-0.468,0.384-0.852,1.002-0.852
			c0.294,0,0.552,0.078,0.708,0.181l-0.126,0.377c-0.114-0.065-0.324-0.167-0.594-0.167c-0.313,0-0.48,0.18-0.48,0.396
			c0,0.239,0.168,0.348,0.546,0.497c0.498,0.187,0.762,0.438,0.762,0.87c0,0.516-0.401,0.875-1.079,0.875
			c-0.318,0-0.612-0.084-0.815-0.203L88.557,160.572z"/>
		<path fill="#5E5E5D" d="M92.108,161.112v-0.324l0.414-0.401c0.995-0.947,1.451-1.451,1.451-2.039c0-0.396-0.186-0.762-0.768-0.762
			c-0.354,0-0.647,0.181-0.827,0.33l-0.168-0.372c0.264-0.222,0.653-0.396,1.104-0.396c0.833,0,1.187,0.576,1.187,1.134
			c0,0.719-0.521,1.301-1.343,2.093l-0.306,0.287v0.013h1.745v0.438H92.108z"/>
		<path fill="#5E5E5D" d="M96.428,161.179c-0.761,0-1.283-0.714-1.295-2.003c0-1.313,0.569-2.027,1.361-2.027
			c0.815,0,1.289,0.731,1.289,1.973c0,1.325-0.497,2.058-1.349,2.058H96.428z M96.458,160.771c0.534,0,0.792-0.63,0.792-1.625
			c0-0.96-0.24-1.589-0.792-1.589c-0.479,0-0.791,0.611-0.791,1.589c-0.013,1.014,0.3,1.625,0.785,1.625H96.458z"/>
		<path fill="#5E5E5D" d="M100.244,157.07v2.398c0,0.9,0.401,1.284,0.941,1.284c0.594,0,0.983-0.396,0.983-1.284v-2.398h0.527v2.363
			c0,1.241-0.653,1.745-1.528,1.745c-0.828,0-1.451-0.468-1.451-1.728v-2.381H100.244z"/>
		<path fill="#5E5E5D" d="M103.586,156.854h0.528v1.812h0.012c0.084-0.15,0.216-0.288,0.378-0.372
			c0.155-0.096,0.342-0.15,0.539-0.15c0.391,0,1.014,0.24,1.014,1.242v1.727h-0.527v-1.673c0-0.468-0.174-0.857-0.672-0.857
			c-0.342,0-0.605,0.239-0.708,0.527c-0.029,0.072-0.035,0.15-0.035,0.252v1.751h-0.528V156.854z"/>
		<path fill="#5E5E5D" d="M106.916,159.115c0-0.342-0.006-0.636-0.023-0.905h0.462l0.023,0.569h0.019
			c0.132-0.39,0.455-0.636,0.81-0.636c0.054,0,0.096,0.007,0.144,0.013v0.497c-0.054-0.006-0.108-0.012-0.18-0.012
			c-0.372,0-0.636,0.282-0.708,0.672c-0.012,0.078-0.018,0.162-0.018,0.246v1.553h-0.528V159.115z"/>
	</g>
	<g>
		<path fill="#5E5E5D" d="M21.735,175.513l-1.325-4.042h0.57l0.629,1.991c0.168,0.546,0.318,1.043,0.432,1.511h0.012
			c0.114-0.468,0.276-0.978,0.462-1.505l0.684-1.997h0.558l-1.445,4.042H21.735z"/>
		<path fill="#5E5E5D" d="M23.986,174.157c0.012,0.708,0.461,1.002,0.989,1.002c0.378,0,0.612-0.066,0.804-0.15l0.096,0.378
			c-0.186,0.084-0.51,0.186-0.971,0.186c-0.888,0-1.427-0.594-1.427-1.463c0-0.875,0.521-1.565,1.367-1.565
			c0.947,0,1.193,0.834,1.193,1.367c0,0.108-0.006,0.187-0.018,0.246H23.986z M25.527,173.779c0.006-0.336-0.138-0.857-0.726-0.857
			c-0.54,0-0.768,0.492-0.81,0.857H25.527z"/>
		<path fill="#5E5E5D" d="M26.692,173.516c0-0.342-0.006-0.636-0.024-0.905h0.462l0.024,0.569h0.018
			c0.132-0.39,0.456-0.636,0.81-0.636c0.054,0,0.096,0.007,0.144,0.013v0.497c-0.054-0.006-0.108-0.012-0.18-0.012
			c-0.372,0-0.635,0.282-0.708,0.672c-0.012,0.078-0.018,0.162-0.018,0.246v1.553h-0.527V173.516z"/>
		<path fill="#5E5E5D" d="M28.834,174.157c0.012,0.708,0.461,1.002,0.989,1.002c0.378,0,0.612-0.066,0.804-0.15l0.096,0.378
			c-0.186,0.084-0.51,0.186-0.971,0.186c-0.888,0-1.427-0.594-1.427-1.463c0-0.875,0.521-1.565,1.367-1.565
			c0.947,0,1.193,0.834,1.193,1.367c0,0.108-0.006,0.187-0.018,0.246H28.834z M30.375,173.779c0.006-0.336-0.138-0.857-0.726-0.857
			c-0.54,0-0.768,0.492-0.81,0.857H30.375z"/>
		<path fill="#5E5E5D" d="M31.792,172.118c-0.192,0-0.318-0.149-0.318-0.323c0-0.187,0.132-0.33,0.33-0.33
			c0.192,0,0.324,0.144,0.324,0.33c0,0.174-0.126,0.323-0.33,0.323H31.792z M31.54,175.513v-2.902h0.527v2.902H31.54z"/>
		<path fill="#5E5E5D" d="M32.944,173.396c0-0.306-0.006-0.545-0.024-0.785h0.468l0.03,0.474h0.012c0.144-0.27,0.48-0.54,0.959-0.54
			c0.402,0,1.025,0.24,1.025,1.235v1.733h-0.527v-1.673c0-0.468-0.174-0.863-0.672-0.863c-0.342,0-0.612,0.245-0.708,0.539
			c-0.024,0.066-0.036,0.162-0.036,0.246v1.751h-0.527V173.396z"/>
		<path fill="#5E5E5D" d="M36.274,171.255h0.527v1.817h0.012c0.186-0.324,0.521-0.528,0.989-0.528c0.72,0,1.224,0.6,1.224,1.476
			c0,1.043-0.66,1.56-1.308,1.56c-0.419,0-0.75-0.162-0.971-0.546h-0.012l-0.03,0.479H36.25c0.018-0.198,0.024-0.492,0.024-0.75
			V171.255z M36.801,174.35c0,0.065,0.006,0.132,0.018,0.191c0.102,0.366,0.414,0.618,0.792,0.618c0.558,0,0.882-0.45,0.882-1.115
			c0-0.588-0.3-1.086-0.864-1.086c-0.36,0-0.696,0.252-0.797,0.647c-0.018,0.066-0.03,0.139-0.03,0.222V174.35z"/>
		<path fill="#5E5E5D" d="M41.732,174.817c0,0.252,0.012,0.497,0.042,0.695h-0.474l-0.048-0.366h-0.018
			c-0.156,0.229-0.474,0.433-0.888,0.433c-0.587,0-0.887-0.414-0.887-0.834c0-0.701,0.624-1.085,1.745-1.079v-0.061
			c0-0.239-0.066-0.678-0.66-0.671c-0.276,0-0.558,0.077-0.762,0.216l-0.12-0.354c0.24-0.149,0.594-0.252,0.959-0.252
			c0.894,0,1.109,0.606,1.109,1.188V174.817z M41.217,174.031c-0.576-0.012-1.229,0.09-1.229,0.654c0,0.348,0.228,0.503,0.492,0.503
			c0.384,0,0.629-0.239,0.713-0.485c0.018-0.054,0.024-0.114,0.024-0.168V174.031z"/>
		<path fill="#5E5E5D" d="M42.58,173.516c0-0.342-0.006-0.636-0.024-0.905h0.462l0.024,0.569h0.018
			c0.132-0.39,0.456-0.636,0.81-0.636c0.054,0,0.096,0.007,0.144,0.013v0.497c-0.054-0.006-0.108-0.012-0.18-0.012
			c-0.372,0-0.635,0.282-0.708,0.672c-0.012,0.078-0.018,0.162-0.018,0.246v1.553H42.58V173.516z"/>
		<path fill="#5E5E5D" d="M44.722,174.157c0.012,0.708,0.461,1.002,0.989,1.002c0.378,0,0.612-0.066,0.804-0.15l0.096,0.378
			c-0.186,0.084-0.51,0.186-0.971,0.186c-0.888,0-1.427-0.594-1.427-1.463c0-0.875,0.521-1.565,1.367-1.565
			c0.947,0,1.193,0.834,1.193,1.367c0,0.108-0.006,0.187-0.018,0.246H44.722z M46.263,173.779c0.006-0.336-0.138-0.857-0.726-0.857
			c-0.54,0-0.768,0.492-0.81,0.857H46.263z"/>
		<path fill="#5E5E5D" d="M47.428,173.396c0-0.306-0.006-0.545-0.024-0.785h0.468l0.03,0.474h0.012c0.144-0.27,0.48-0.54,0.959-0.54
			c0.402,0,1.025,0.24,1.025,1.235v1.733h-0.527v-1.673c0-0.468-0.174-0.863-0.672-0.863c-0.342,0-0.612,0.245-0.708,0.539
			c-0.024,0.066-0.036,0.162-0.036,0.246v1.751h-0.527V173.396z"/>
		<path fill="#5E5E5D" d="M51.981,174.877c0.234,0.144,0.57,0.258,0.93,0.258c0.534,0,0.846-0.275,0.846-0.684
			c0-0.378-0.216-0.6-0.762-0.804c-0.66-0.228-1.067-0.575-1.067-1.139c0-0.63,0.521-1.098,1.307-1.098
			c0.408,0,0.714,0.096,0.888,0.191l-0.144,0.432c-0.126-0.077-0.396-0.191-0.762-0.191c-0.552,0-0.762,0.33-0.762,0.605
			c0,0.372,0.246,0.558,0.804,0.773c0.684,0.271,1.025,0.594,1.025,1.188c0,0.618-0.456,1.163-1.409,1.163
			c-0.39,0-0.815-0.119-1.031-0.264L51.981,174.877z"/>
		<path fill="#5E5E5D" d="M55.239,172.118c-0.192,0-0.318-0.149-0.318-0.323c0-0.187,0.132-0.33,0.33-0.33
			c0.192,0,0.324,0.144,0.324,0.33c0,0.174-0.126,0.323-0.33,0.323H55.239z M54.987,175.513v-2.902h0.527v2.902H54.987z"/>
		<path fill="#5E5E5D" d="M56.691,174.157c0.012,0.708,0.461,1.002,0.989,1.002c0.378,0,0.611-0.066,0.804-0.15l0.096,0.378
			c-0.186,0.084-0.51,0.186-0.972,0.186c-0.887,0-1.427-0.594-1.427-1.463c0-0.875,0.521-1.565,1.367-1.565
			c0.947,0,1.193,0.834,1.193,1.367c0,0.108-0.006,0.187-0.019,0.246H56.691z M58.232,173.779c0.006-0.336-0.138-0.857-0.726-0.857
			c-0.54,0-0.768,0.492-0.81,0.857H58.232z"/>
		<path fill="#5E5E5D" d="M60.969,174.157c0.013,0.708,0.462,1.002,0.989,1.002c0.378,0,0.612-0.066,0.804-0.15l0.097,0.378
			c-0.187,0.084-0.51,0.186-0.972,0.186c-0.888,0-1.428-0.594-1.428-1.463c0-0.875,0.522-1.565,1.367-1.565
			c0.948,0,1.193,0.834,1.193,1.367c0,0.108-0.006,0.187-0.018,0.246H60.969z M62.51,173.779c0.007-0.336-0.138-0.857-0.726-0.857
			c-0.539,0-0.768,0.492-0.81,0.857H62.51z"/>
		<path fill="#5E5E5D" d="M63.927,172.118c-0.191,0-0.317-0.149-0.317-0.323c0-0.187,0.132-0.33,0.329-0.33
			c0.192,0,0.324,0.144,0.324,0.33c0,0.174-0.126,0.323-0.33,0.323H63.927z M63.675,175.513v-2.902h0.528v2.902H63.675z"/>
		<path fill="#5E5E5D" d="M65.079,173.396c0-0.306-0.006-0.545-0.023-0.785h0.468l0.029,0.474h0.013
			c0.144-0.27,0.479-0.54,0.959-0.54c0.402,0,1.025,0.24,1.025,1.235v1.733h-0.527v-1.673c0-0.468-0.174-0.863-0.672-0.863
			c-0.342,0-0.611,0.245-0.708,0.539c-0.023,0.066-0.035,0.162-0.035,0.246v1.751h-0.528V173.396z"/>
		<path fill="#5E5E5D" d="M68.709,174.157c0.013,0.708,0.462,1.002,0.989,1.002c0.378,0,0.612-0.066,0.804-0.15l0.097,0.378
			c-0.187,0.084-0.51,0.186-0.972,0.186c-0.888,0-1.428-0.594-1.428-1.463c0-0.875,0.522-1.565,1.367-1.565
			c0.948,0,1.193,0.834,1.193,1.367c0,0.108-0.006,0.187-0.018,0.246H68.709z M70.25,173.779c0.007-0.336-0.138-0.857-0.726-0.857
			c-0.539,0-0.768,0.492-0.81,0.857H70.25z"/>
		<path fill="#5E5E5D" d="M71.415,173.396c0-0.306-0.006-0.545-0.023-0.785h0.468l0.029,0.474h0.013
			c0.144-0.27,0.479-0.54,0.959-0.54c0.402,0,1.025,0.24,1.025,1.235v1.733h-0.527v-1.673c0-0.468-0.174-0.863-0.672-0.863
			c-0.342,0-0.611,0.245-0.708,0.539c-0.023,0.066-0.035,0.162-0.035,0.246v1.751h-0.528V173.396z"/>
		<path fill="#5E5E5D" d="M76.803,171.915h-1.229v-0.444h2.992v0.444H77.33v3.598h-0.527V171.915z"/>
		<path fill="#5E5E5D" d="M78.423,174.157c0.013,0.708,0.462,1.002,0.99,1.002c0.377,0,0.611-0.066,0.803-0.15l0.097,0.378
			c-0.187,0.084-0.51,0.186-0.972,0.186c-0.888,0-1.428-0.594-1.428-1.463c0-0.875,0.522-1.565,1.367-1.565
			c0.948,0,1.193,0.834,1.193,1.367c0,0.108-0.006,0.187-0.018,0.246H78.423z M79.964,173.779c0.007-0.336-0.138-0.857-0.726-0.857
			c-0.539,0-0.768,0.492-0.81,0.857H79.964z"/>
		<path fill="#5E5E5D" d="M81.129,173.516c0-0.342-0.006-0.636-0.023-0.905h0.462l0.023,0.569h0.019
			c0.132-0.39,0.455-0.636,0.81-0.636c0.054,0,0.096,0.007,0.144,0.013v0.497c-0.054-0.006-0.108-0.012-0.18-0.012
			c-0.372,0-0.636,0.282-0.708,0.672c-0.012,0.078-0.018,0.162-0.018,0.246v1.553h-0.528V173.516z"/>
		<path fill="#5E5E5D" d="M83.091,173.396c0-0.306-0.012-0.545-0.023-0.785h0.462l0.023,0.468h0.019
			c0.161-0.276,0.432-0.534,0.917-0.534c0.39,0,0.689,0.24,0.815,0.582h0.012c0.091-0.168,0.21-0.288,0.33-0.378
			c0.174-0.132,0.36-0.204,0.636-0.204c0.39,0,0.96,0.252,0.96,1.26v1.709h-0.517v-1.644c0-0.563-0.209-0.893-0.629-0.893
			c-0.306,0-0.534,0.222-0.63,0.474c-0.024,0.077-0.042,0.174-0.042,0.264v1.799h-0.516v-1.745c0-0.462-0.204-0.791-0.605-0.791
			c-0.324,0-0.57,0.264-0.654,0.527c-0.029,0.078-0.042,0.168-0.042,0.258v1.751h-0.516V173.396z"/>
		<path fill="#5E5E5D" d="M88.347,172.118c-0.191,0-0.317-0.149-0.317-0.323c0-0.187,0.132-0.33,0.329-0.33
			c0.192,0,0.324,0.144,0.324,0.33c0,0.174-0.126,0.323-0.33,0.323H88.347z M88.095,175.513v-2.902h0.528v2.902H88.095z"/>
		<path fill="#5E5E5D" d="M89.498,173.396c0-0.306-0.006-0.545-0.023-0.785h0.468l0.029,0.474h0.013
			c0.144-0.27,0.479-0.54,0.959-0.54c0.402,0,1.025,0.24,1.025,1.235v1.733h-0.527v-1.673c0-0.468-0.174-0.863-0.672-0.863
			c-0.342,0-0.611,0.245-0.708,0.539c-0.023,0.066-0.035,0.162-0.035,0.246v1.751h-0.528V173.396z"/>
		<path fill="#5E5E5D" d="M94.101,173.396c0-0.306-0.012-0.545-0.023-0.785h0.462l0.023,0.468h0.019
			c0.161-0.276,0.432-0.534,0.917-0.534c0.39,0,0.689,0.24,0.815,0.582h0.012c0.091-0.168,0.21-0.288,0.33-0.378
			c0.174-0.132,0.36-0.204,0.636-0.204c0.39,0,0.96,0.252,0.96,1.26v1.709h-0.517v-1.644c0-0.563-0.209-0.893-0.629-0.893
			c-0.306,0-0.534,0.222-0.63,0.474c-0.024,0.077-0.042,0.174-0.042,0.264v1.799h-0.516v-1.745c0-0.462-0.204-0.791-0.605-0.791
			c-0.324,0-0.57,0.264-0.654,0.527c-0.029,0.078-0.042,0.168-0.042,0.258v1.751h-0.516V173.396z"/>
		<path fill="#5E5E5D" d="M99.356,172.118c-0.191,0-0.317-0.149-0.317-0.323c0-0.187,0.132-0.33,0.329-0.33
			c0.192,0,0.324,0.144,0.324,0.33c0,0.174-0.126,0.323-0.33,0.323H99.356z M99.104,175.513v-2.902h0.528v2.902H99.104z"/>
		<path fill="#5E5E5D" d="M101.145,171.915v0.695h0.756v0.401h-0.756v1.56c0,0.359,0.103,0.563,0.396,0.563
			c0.145,0,0.229-0.012,0.307-0.036l0.023,0.402c-0.102,0.036-0.264,0.071-0.468,0.071c-0.246,0-0.443-0.084-0.569-0.222
			c-0.145-0.162-0.204-0.42-0.204-0.762v-1.577h-0.449v-0.401h0.449v-0.534L101.145,171.915z"/>
		<path fill="#5E5E5D" d="M106.195,174.715c0,0.306,0.006,0.57,0.024,0.798h-0.468l-0.03-0.474h-0.012
			c-0.132,0.233-0.444,0.54-0.96,0.54c-0.455,0-1.001-0.258-1.001-1.271v-1.697h0.527v1.601c0,0.552,0.174,0.93,0.647,0.93
			c0.354,0,0.6-0.245,0.696-0.485c0.029-0.072,0.048-0.168,0.048-0.27v-1.775h0.527V174.715z"/>
		<path fill="#5E5E5D" d="M107.072,173.396c0-0.306-0.006-0.545-0.023-0.785h0.468l0.029,0.474h0.013
			c0.144-0.27,0.479-0.54,0.959-0.54c0.402,0,1.025,0.24,1.025,1.235v1.733h-0.527v-1.673c0-0.468-0.174-0.863-0.672-0.863
			c-0.342,0-0.611,0.245-0.708,0.539c-0.023,0.066-0.035,0.162-0.035,0.246v1.751h-0.528V173.396z"/>
		<path fill="#5E5E5D" d="M110.331,174.973c0.161,0.097,0.438,0.204,0.701,0.204c0.378,0,0.558-0.186,0.558-0.432
			c0-0.252-0.149-0.384-0.533-0.527c-0.528-0.192-0.774-0.48-0.774-0.822c0-0.468,0.384-0.852,1.002-0.852
			c0.294,0,0.552,0.078,0.708,0.181l-0.126,0.377c-0.114-0.065-0.324-0.167-0.594-0.167c-0.313,0-0.48,0.18-0.48,0.396
			c0,0.239,0.168,0.348,0.546,0.497c0.498,0.187,0.762,0.438,0.762,0.87c0,0.516-0.401,0.875-1.079,0.875
			c-0.318,0-0.612-0.084-0.815-0.203L110.331,174.973z"/>
		<path fill="#5E5E5D" d="M113.145,175.579c-0.204,0-0.348-0.162-0.348-0.372c0-0.216,0.149-0.372,0.354-0.372
			c0.216,0,0.354,0.156,0.354,0.372c0,0.21-0.138,0.372-0.354,0.372H113.145z M112.946,174.355l-0.084-2.885h0.576l-0.084,2.885
			H112.946z"/>
	</g>
	<g>
		<path fill="#5E5E5D" d="M21.04,215.696l0.39,1.469c0.078,0.324,0.156,0.63,0.21,0.93h0.018c0.066-0.294,0.162-0.605,0.258-0.923
			l0.474-1.476h0.443l0.45,1.451c0.108,0.342,0.192,0.653,0.258,0.947h0.018c0.048-0.294,0.125-0.6,0.222-0.941l0.414-1.457h0.522
			l-0.936,2.902H23.3l-0.443-1.385c-0.102-0.33-0.186-0.618-0.258-0.96h-0.012c-0.072,0.348-0.162,0.653-0.264,0.966l-0.468,1.379
			h-0.48l-0.875-2.902H21.04z"/>
		<path fill="#5E5E5D" d="M25.456,215.696l0.39,1.469c0.078,0.324,0.156,0.63,0.21,0.93h0.018c0.066-0.294,0.162-0.605,0.258-0.923
			l0.474-1.476h0.443l0.45,1.451c0.108,0.342,0.192,0.653,0.258,0.947h0.018c0.048-0.294,0.125-0.6,0.222-0.941l0.414-1.457h0.522
			l-0.936,2.902h-0.48l-0.443-1.385c-0.102-0.33-0.186-0.618-0.258-0.96h-0.012c-0.072,0.348-0.162,0.653-0.264,0.966l-0.468,1.379
			h-0.48l-0.875-2.902H25.456z"/>
		<path fill="#5E5E5D" d="M29.872,215.696l0.39,1.469c0.078,0.324,0.156,0.63,0.21,0.93h0.018c0.066-0.294,0.162-0.605,0.258-0.923
			l0.474-1.476h0.443l0.45,1.451c0.108,0.342,0.192,0.653,0.258,0.947h0.018c0.048-0.294,0.125-0.6,0.222-0.941l0.414-1.457h0.522
			l-0.936,2.902h-0.48l-0.443-1.385c-0.102-0.33-0.186-0.618-0.258-0.96h-0.012c-0.072,0.348-0.162,0.653-0.264,0.966l-0.468,1.379
			h-0.48l-0.875-2.902H29.872z"/>
		<path fill="#5E5E5D" d="M34.054,218.665c-0.204,0-0.348-0.162-0.348-0.378s0.15-0.378,0.359-0.378c0.21,0,0.354,0.155,0.354,0.378
			c0,0.216-0.144,0.378-0.36,0.378H34.054z"/>
		<path fill="#5E5E5D" d="M35.074,214.341h0.527v1.812h0.012c0.084-0.15,0.216-0.288,0.378-0.372c0.156-0.096,0.342-0.15,0.54-0.15
			c0.39,0,1.013,0.24,1.013,1.242v1.727h-0.527v-1.673c0-0.468-0.174-0.857-0.672-0.857c-0.342,0-0.605,0.239-0.708,0.527
			c-0.03,0.072-0.036,0.15-0.036,0.252v1.751h-0.527V214.341z"/>
		<path fill="#5E5E5D" d="M40.91,214.341v3.508c0,0.258,0.006,0.552,0.024,0.75H40.46l-0.024-0.504h-0.012
			c-0.162,0.324-0.51,0.57-0.983,0.57c-0.702,0-1.247-0.594-1.247-1.476c-0.006-0.972,0.6-1.56,1.301-1.56
			c0.45,0,0.75,0.21,0.875,0.438h0.012v-1.728H40.91z M40.382,216.878c0-0.072-0.006-0.156-0.024-0.229
			c-0.078-0.329-0.366-0.605-0.762-0.605c-0.545,0-0.869,0.479-0.869,1.115c0,0.594,0.294,1.08,0.857,1.08
			c0.354,0,0.678-0.24,0.773-0.636c0.018-0.066,0.024-0.139,0.024-0.223V216.878z"/>
		<path fill="#5E5E5D" d="M41.788,214.341h0.527v1.812h0.012c0.084-0.15,0.216-0.288,0.378-0.372c0.156-0.096,0.342-0.15,0.54-0.15
			c0.39,0,1.013,0.24,1.013,1.242v1.727H43.73v-1.673c0-0.468-0.174-0.857-0.672-0.857c-0.342,0-0.605,0.239-0.708,0.527
			c-0.03,0.072-0.036,0.15-0.036,0.252v1.751h-0.527V214.341z"/>
		<path fill="#5E5E5D" d="M46.461,216.788v0.384h-1.481v-0.384H46.461z"/>
		<path fill="#5E5E5D" d="M47.283,215.696l0.57,1.625c0.096,0.27,0.174,0.51,0.234,0.75h0.018c0.066-0.24,0.15-0.48,0.246-0.75
			l0.564-1.625h0.551l-1.139,2.902h-0.504l-1.103-2.902H47.283z"/>
		<path fill="#5E5E5D" d="M51.021,218.665c-0.78,0-1.391-0.576-1.391-1.493c0-0.972,0.642-1.542,1.439-1.542
			c0.833,0,1.397,0.606,1.397,1.487c0,1.08-0.75,1.548-1.439,1.548H51.021z M51.045,218.269c0.504,0,0.881-0.474,0.881-1.133
			c0-0.492-0.246-1.109-0.869-1.109c-0.618,0-0.888,0.575-0.888,1.127c0,0.636,0.36,1.115,0.87,1.115H51.045z"/>
		<path fill="#5E5E5D" d="M53.134,214.341h0.527v1.817h0.012c0.186-0.324,0.521-0.528,0.989-0.528c0.72,0,1.224,0.6,1.224,1.476
			c0,1.043-0.66,1.56-1.308,1.56c-0.419,0-0.75-0.162-0.971-0.546h-0.012l-0.03,0.479h-0.456c0.018-0.198,0.024-0.492,0.024-0.75
			V214.341z M53.661,217.436c0,0.065,0.006,0.132,0.018,0.191c0.102,0.366,0.414,0.618,0.792,0.618c0.558,0,0.882-0.45,0.882-1.115
			c0-0.588-0.3-1.086-0.864-1.086c-0.36,0-0.696,0.252-0.797,0.647c-0.018,0.066-0.03,0.139-0.03,0.222V217.436z"/>
		<path fill="#5E5E5D" d="M58.592,217.903c0,0.252,0.013,0.497,0.042,0.695H58.16l-0.048-0.366h-0.018
			c-0.156,0.229-0.475,0.433-0.888,0.433c-0.587,0-0.887-0.414-0.887-0.834c0-0.701,0.624-1.085,1.745-1.079v-0.061
			c0-0.239-0.066-0.678-0.66-0.671c-0.276,0-0.558,0.077-0.762,0.216l-0.12-0.354c0.24-0.149,0.594-0.252,0.959-0.252
			c0.894,0,1.109,0.606,1.109,1.188V217.903z M58.076,217.117c-0.576-0.012-1.229,0.09-1.229,0.654c0,0.348,0.228,0.503,0.492,0.503
			c0.384,0,0.63-0.239,0.714-0.485c0.018-0.054,0.023-0.114,0.023-0.168V217.117z"/>
		<path fill="#5E5E5D" d="M59.78,218.665c-0.203,0-0.348-0.162-0.348-0.378s0.15-0.378,0.36-0.378s0.354,0.155,0.354,0.378
			c0,0.216-0.144,0.378-0.359,0.378H59.78z"/>
		<path fill="#5E5E5D" d="M63.308,214.341v3.508c0,0.258,0.006,0.552,0.024,0.75h-0.474l-0.024-0.504h-0.012
			c-0.162,0.324-0.51,0.57-0.983,0.57c-0.702,0-1.248-0.594-1.248-1.476c-0.006-0.972,0.6-1.56,1.302-1.56
			c0.449,0,0.749,0.21,0.875,0.438h0.013v-1.728H63.308z M62.78,216.878c0-0.072-0.006-0.156-0.024-0.229
			c-0.078-0.329-0.365-0.605-0.762-0.605c-0.546,0-0.869,0.479-0.869,1.115c0,0.594,0.294,1.08,0.857,1.08
			c0.354,0,0.678-0.24,0.773-0.636c0.019-0.066,0.024-0.139,0.024-0.223V216.878z"/>
		<path fill="#5E5E5D" d="M64.484,217.243c0.013,0.708,0.462,1.002,0.989,1.002c0.378,0,0.612-0.066,0.804-0.15l0.097,0.378
			c-0.187,0.084-0.51,0.186-0.972,0.186c-0.888,0-1.428-0.594-1.428-1.463c0-0.875,0.522-1.565,1.367-1.565
			c0.948,0,1.193,0.834,1.193,1.367c0,0.108-0.006,0.187-0.018,0.246H64.484z M66.025,216.865c0.007-0.336-0.138-0.857-0.726-0.857
			c-0.539,0-0.768,0.492-0.81,0.857H66.025z"/>
	</g>
</g>
</svg>
