<svg version="1.1" id="Ebene_1" xmlns="http://www.w3.org/2000/svg" xmlns:xlink="http://www.w3.org/1999/xlink" x="0px" y="0px"
     width="310.296px" height="178.331px" viewBox="0 0 310.296 178.331" enable-background="new 0 0 310.296 178.331"
     xml:space="preserve">

<style type="text/css">
	.st0{clip-path:url(#SVGID_2_);fill:#005CA9;}
	.st1{clip-path:url(#SVGID_2_);fill:#FFFFFF;}
	.st2{clip-path:url(#SVGID_2_);fill:#3873B9;}
	.st3{clip-path:url(#SVGID_2_);fill:#79A3D3;}
	.st4{clip-path:url(#SVGID_2_);fill-rule:evenodd;clip-rule:evenodd;fill:#FFFFFF;}
	.st5{clip-path:url(#SVGID_2_);}
	.st6{clip-path:url(#SVGID_4_);fill-rule:evenodd;clip-rule:evenodd;fill:#FFFFFF;}
	.st7{clip-path:url(#SVGID_4_);fill:#FFFFFF;}
</style>
<g transform="scale(1.25822552864762)">
	<defs>
		<rect id="SVGID_1_" x="-8.5" y="-8.5" width="263.6" height="158.7"/>
	</defs>
	<clipPath id="SVGID_2_">
		<use xlink:href="#SVGID_1_"  style="overflow:visible;"/>
	</clipPath>
	<rect x="-10.3" y="-12.3" class="st0" width="267.2" height="52.4"/>
	<polygon class="st1" points="288.4,-2.1 212.8,40.1 -21.6,40.1 -21.6,47.6 212.9,47.6 294.9,0.3 294.9,-2.1 	"/>
	<polygon class="st2" points="114.3,45.7 118.8,45.7 125.3,42 120.8,42 	"/>
	<polygon class="st2" points="121,45.7 154,45.7 160.5,42 127.5,42 	"/>
	<polygon class="st3" points="156.3,45.7 173.3,45.7 179.8,42 162.8,42 	"/>
	<polygon class="st3" points="293.3,-0.6 289.1,-0.6 212.9,42 182.1,42 175.6,45.7 213,45.7 	"/>
	<polygon class="st3" points="78.9,45.7 112,45.7 118.5,42 85.4,42 	"/>
	<polygon class="st0" points="-21.6,45.4 -21.6,45.7 76.6,45.7 77.2,45.4 	"/>
	<polygon class="st0" points="-21.6,44.3 -21.6,44.6 78.6,44.6 79.2,44.3 	"/>
	<polygon class="st0" points="-19.7,43.1 -19.7,43.4 80.6,43.4 81.2,43.1 	"/>
	<polygon class="st0" points="-18.2,42 -18.2,42.3 82.6,42.3 83.2,42 	"/>
	<polygon class="st1" points="212.3,47.6 294.9,47.6 294.9,-0.1 	"/>
	<rect x="29" y="7.2" class="st1" width="4.7" height="3.3"/>
	<rect x="35.5" y="7.2" class="st1" width="4.7" height="3.3"/>
	<polygon class="st4" points="50.5,14.1 50.5,19.1 52.3,19.1 52.3,14.1 57,14.1 57,27.1 52.3,27.1 52.3,21.8 50.5,21.8 50.5,27.1
		45.7,27.1 45.7,14.1 	"/>
	<polygon class="st1" points="58.9,14.1 58.9,27.1 63.6,27.1 63.6,17.5 65.5,17.5 65.5,27.1 70.3,27.1 70.3,17.5 72.1,17.5
		72.1,27.1 76.8,27.1 76.8,14.1 	"/>
	<g class="st5">
		<defs>
			<rect id="SVGID_3_" x="11.3" y="7.2" width="65.5" height="26.3"/>
		</defs>
		<clipPath id="SVGID_4_">
			<use xlink:href="#SVGID_3_"  style="overflow:visible;"/>
		</clipPath>
		<path class="st6" d="M38.2,18c-0.9-1-2.2-1.6-3.7-1.6c-1.5,0-2.8,0.7-3.7,1.7l-4.2-2.6c1.8-2.4,4.6-4,7.9-4c3.3,0,6.1,1.6,7.9,4
			L38.2,18z"/>
		<path class="st6" d="M30,19.6c-0.2,0.5-0.3,1.1-0.3,1.7c0,2.4,1.7,4.4,4,4.8l0,4.9c-5-0.5-8.8-4.6-8.8-9.7c0-1.4,0.3-2.8,0.9-4.1
			L30,19.6z"/>
		<path class="st6" d="M39.2,19.6c0.2,0.5,0.3,1.1,0.3,1.7c0,2.4-1.7,4.4-4,4.8V31c5-0.5,8.8-4.6,8.8-9.7c0-1.5-0.3-2.8-0.9-4.1
			L39.2,19.6z"/>
		<path class="st6" d="M38.4,21.3c0,2.1-1.7,3.9-3.9,3.9c-2.1,0-3.9-1.7-3.9-3.9c0-2.1,1.7-3.9,3.9-3.9
			C36.7,17.4,38.4,19.1,38.4,21.3 M34.6,18.1c-1.7,0-3.1,1.4-3.1,3.1c0,1.7,1.4,3.1,3.1,3.1c1.7,0,3.1-1.4,3.1-3.1
			C37.7,19.5,36.3,18.1,34.6,18.1"/>
		<path class="st6" d="M22,21.9h1.6v-7.7H11.3v13h4.7v-5.2h0.7l3.1,5.2h5.8L22,21.9z M19.2,19.1h-3.2v-1.8l3.2,0V19.1z"/>
		<path class="st7" d="M13.8,38.8L13.8,38.8c-0.1,0.4-0.5,0.7-1,0.7c-0.9,0-1.3-0.7-1.3-2c0-1.3,0.4-2,1.3-2c0.5,0,0.8,0.3,0.9,0.7
			h0v-1.9h0.5v5.2h-0.4V38.8z M12.9,39.2c0.5,0,0.9-0.2,0.9-1.7c0-1.4-0.4-1.6-0.9-1.6c-0.5,0-0.9,0.2-0.9,1.6
			C12,39,12.4,39.2,12.9,39.2"/>
		<path class="st7" d="M15.6,35.6h0.5v0.6h0c0.2-0.4,0.5-0.7,1-0.7c0.1,0,0.1,0,0.2,0V36c-0.1,0-0.2,0-0.2,0c-0.5,0-1,0.3-1,1.1v2.4
			h-0.5V35.6z"/>
		<path class="st7" d="M18.3,34.3h0.5V35h-0.5V34.3z M18.3,35.6h0.5v3.9h-0.5V35.6z"/>
		<polygon class="st7" points="19.8,35.6 20.3,35.6 21.2,39 21.2,39 22,35.6 22.5,35.6 21.5,39.5 20.9,39.5 		"/>
		<path class="st7" d="M26.1,38.2c-0.1,0.8-0.5,1.4-1.3,1.4c-0.9,0-1.4-0.6-1.4-2c0-1.3,0.5-2,1.4-2c0.9,0,1.3,0.6,1.3,1.9v0.2h-2.2
			v0.2c0,1.1,0.4,1.5,0.9,1.5c0.5,0,0.8-0.3,0.9-1H26.1z M25.6,37.2c0-1-0.3-1.3-0.9-1.3c-0.6,0-0.8,0.3-0.9,1.3H25.6z"/>
		<path class="st7" d="M27.4,35.6h0.4v0.5h0c0.2-0.4,0.6-0.6,1-0.6c0.6,0,1,0.3,1,1v2.9h-0.5v-2.8c0-0.5-0.2-0.8-0.7-0.8
			c-0.5,0-0.9,0.4-0.9,1v2.6h-0.5V35.6z"/>
		<path class="st7" d="M33.6,34.3h0.5v1.9h0c0.1-0.4,0.4-0.7,0.9-0.7c0.9,0,1.3,0.7,1.3,2c0,1.3-0.4,2-1.3,2c-0.5,0-0.9-0.3-1-0.7h0
			v0.6h-0.4V34.3z M34.9,39.2c0.5,0,0.9-0.2,0.9-1.7c0-1.4-0.4-1.6-0.9-1.6c-0.5,0-0.9,0.2-0.9,1.6C34.1,39,34.5,39.2,34.9,39.2"/>
		<path class="st7" d="M37.2,35.6h0.5l0.9,3.3h0l0.8-3.3h0.5l-1.2,4.2c-0.2,0.8-0.5,1-1.1,1c-0.1,0-0.2,0-0.3,0v-0.4
			c0.1,0,0.2,0,0.3,0c0.3,0,0.5-0.1,0.6-0.5l0.1-0.4L37.2,35.6z"/>
		<path class="st7" d="M43.5,36h-0.6v-0.4h0.6v-1.1h0.5v1.1h0.7V36h-0.7v2.8c0,0.3,0.1,0.4,0.4,0.4c0.1,0,0.2,0,0.3,0v0.4
			c-0.1,0-0.2,0-0.3,0c-0.6,0-0.9-0.2-0.9-0.7V36z"/>
		<path class="st7" d="M48.2,38.2c-0.1,0.8-0.5,1.4-1.3,1.4c-0.9,0-1.4-0.6-1.4-2c0-1.3,0.5-2,1.4-2c0.9,0,1.3,0.6,1.3,1.9v0.2H46
			v0.2c0,1.1,0.4,1.5,0.9,1.5c0.5,0,0.8-0.3,0.9-1H48.2z M47.7,37.2c0-1-0.3-1.3-0.9-1.3c-0.6,0-0.8,0.3-0.9,1.3H47.7z"/>
		<path class="st7" d="M51.9,38.2c-0.1,0.8-0.5,1.4-1.3,1.4c-0.9,0-1.4-0.6-1.4-2c0-1.3,0.5-2,1.4-2c0.8,0,1.2,0.4,1.3,1.2h-0.5
			c-0.1-0.6-0.3-0.9-0.8-0.9c-0.5,0-0.9,0.3-0.9,1.7c0,1.5,0.4,1.6,0.9,1.6c0.5,0,0.8-0.3,0.8-1H51.9z"/>
		<path class="st7" d="M53.1,34.3h0.5v1.9h0c0.1-0.4,0.5-0.6,1-0.6c0.6,0,1,0.3,1,1v2.9h-0.5v-2.8c0-0.5-0.2-0.8-0.7-0.8
			c-0.5,0-0.9,0.4-0.9,1v2.6h-0.5V34.3z"/>
		<path class="st7" d="M57,35.6h0.4v0.5h0c0.2-0.4,0.6-0.6,1-0.6c0.6,0,1,0.3,1,1v2.9h-0.5v-2.8c0-0.5-0.2-0.8-0.7-0.8
			c-0.5,0-0.9,0.4-0.9,1v2.6H57V35.6z"/>
		<path class="st7" d="M62.1,35.5c0.9,0,1.4,0.7,1.4,2c0,1.3-0.5,2-1.4,2c-0.9,0-1.4-0.7-1.4-2C60.7,36.2,61.2,35.5,62.1,35.5
			 M62.1,39.2c0.5,0,0.9-0.4,0.9-1.7c0-1.2-0.4-1.6-0.9-1.6c-0.5,0-0.9,0.4-0.9,1.6C61.2,38.8,61.6,39.2,62.1,39.2"/>
		<rect x="64.8" y="34.3" class="st7" width="0.5" height="5.2"/>
		<path class="st7" d="M67.9,35.5c0.9,0,1.4,0.7,1.4,2c0,1.3-0.5,2-1.4,2c-0.9,0-1.4-0.7-1.4-2C66.5,36.2,67,35.5,67.9,35.5
			 M67.9,39.2c0.5,0,0.9-0.4,0.9-1.7c0-1.2-0.4-1.6-0.9-1.6c-0.5,0-0.9,0.4-0.9,1.6C67,38.8,67.4,39.2,67.9,39.2"/>
		<path class="st7" d="M72.6,35.6H73v3.6c0,1.1-0.4,1.6-1.3,1.6c-0.8,0-1.2-0.4-1.2-0.9h0.5c0,0.4,0.4,0.6,0.8,0.6
			c0.6,0,0.9-0.4,0.9-1.1v-0.6h0c-0.1,0.5-0.5,0.7-0.9,0.7c-0.6,0-1.3-0.4-1.3-1.9c0-1.3,0.4-2,1.3-2c0.4,0,0.8,0.2,0.9,0.7h0V35.6z
			 M71.7,39.1c0.5,0,0.9-0.4,0.9-1.6c0-1.2-0.3-1.6-0.9-1.6c-0.5,0-0.9,0.4-0.9,1.6C70.8,38.7,71.1,39.1,71.7,39.1"/>
		<path class="st7" d="M74,35.6h0.5l0.9,3.3h0l0.8-3.3h0.5l-1.2,4.2c-0.2,0.8-0.5,1-1.1,1c-0.1,0-0.2,0-0.3,0v-0.4
			c0.1,0,0.2,0,0.3,0c0.3,0,0.5-0.1,0.6-0.5l0.1-0.4L74,35.6z"/>
	</g>
	<polygon class="st1" points="288.5,-2.1 213.7,39.6 -21.6,39.6 -21.6,47.1 213.8,47.1 294.9,0.3 294.9,-2.1 	"/>
	<polygon class="st0" points="289.2,-0.7 213.8,41.5 -21.6,41.5 -21.6,45.2 213.9,45.2 293.3,-0.7 	"/>
	<polygon class="st1" points="213.2,47.1 294.9,47.1 294.9,-0.1 	"/>
</g>
</svg>

