<svg version="1.1" id="Ebene_1" xmlns="http://www.w3.org/2000/svg" xmlns:xlink="http://www.w3.org/1999/xlink" x="0px" y="0px"
	 width="310.296px" height="178.331px" viewBox="0 0 310.296 178.331" enable-background="new 0 0 310.296 178.331"
	 xml:space="preserve">
<g transform="scale(1.25822552864762)">
	<g>
		<defs>
			<rect id="SVGID_1_" x="-29.506" y="-29.505" width="305.622" height="200.74"/>
		</defs>
		<clipPath id="SVGID_2_">
			<use xlink:href="#SVGID_1_"  overflow="visible"/>
		</clipPath>
		<g clip-path="url(#SVGID_2_)">
			<defs>
				<rect id="SVGID_3_" x="-8.506" y="-8.505" width="263.622" height="158.74"/>
			</defs>
			<clipPath id="SVGID_4_">
				<use xlink:href="#SVGID_3_"  overflow="visible"/>
			</clipPath>
			<g clip-path="url(#SVGID_4_)">
				<defs>
					<rect id="SVGID_5_" x="-8.506" y="-8.505" width="263.622" height="158.74"/>
				</defs>
				<clipPath id="SVGID_6_">
					<use xlink:href="#SVGID_5_"  overflow="visible"/>
				</clipPath>
				<g clip-path="url(#SVGID_6_)">
					<defs>
						<rect id="SVGID_7_" x="-10.277" y="-11.126" width="267.165" height="53.362"/>
					</defs>
					<clipPath id="SVGID_8_">
						<use xlink:href="#SVGID_7_"  overflow="visible"/>
					</clipPath>

						<linearGradient id="SVGID_9_" gradientUnits="userSpaceOnUse" x1="0.1108" y1="0.7402" x2="1.1108" y2="0.7402" gradientTransform="matrix(-267.1653 0 0 267.1653 286.5 -182.25)">
						<stop  offset="0" style="stop-color:#293B89"/>
						<stop  offset="0.011" style="stop-color:#293B89"/>
						<stop  offset="0.1499" style="stop-color:#2D418E"/>
						<stop  offset="0.371" style="stop-color:#37529B"/>
						<stop  offset="0.6467" style="stop-color:#4A6FB2"/>
						<stop  offset="0.9635" style="stop-color:#6898D3"/>
						<stop  offset="1" style="stop-color:#6D9DD7"/>
					</linearGradient>
					<rect x="-10.277" y="-11.126" clip-path="url(#SVGID_8_)" fill="url(#SVGID_9_)" width="267.165" height="53.362"/>
				</g>
				<polygon clip-path="url(#SVGID_6_)" fill="#FFFFFF" points="217.142,42.204 -8.506,42.204 -8.506,49.745 217.2,49.745
					255.117,27.854 255.117,20.975 				"/>
				<polygon clip-path="url(#SVGID_6_)" fill="#5D77BD" points="118.497,47.856 123.012,47.856 129.53,44.094 125.016,44.094
					"/>
				<polygon clip-path="url(#SVGID_6_)" fill="#5D77BD" points="125.272,47.856 158.265,47.856 164.783,44.094 131.791,44.094
					"/>
				<polygon clip-path="url(#SVGID_6_)" fill="#93A8D5" points="160.525,47.856 177.567,47.856 184.085,44.094 167.043,44.094
					"/>
				<polygon clip-path="url(#SVGID_6_)" fill="#93A8D5" points="217.208,44.093 186.346,44.093 179.827,47.856 217.251,47.856
					255.116,25.994 255.116,22.901 				"/>
				<polygon clip-path="url(#SVGID_6_)" fill="#93A8D5" points="83.122,47.856 116.237,47.856 122.756,44.094 89.64,44.094 				"/>
				<polygon clip-path="url(#SVGID_6_)" fill="#2E5DAD" points="-8.506,47.556 -8.506,47.856 80.852,47.856 81.373,47.556 				"/>
				<polygon clip-path="url(#SVGID_6_)" fill="#2E5DAD" points="-8.506,46.402 -8.506,46.703 82.851,46.703 83.372,46.402 				"/>
				<polygon clip-path="url(#SVGID_6_)" fill="#2E5DAD" points="-8.506,45.248 -8.506,45.549 84.85,45.549 85.371,45.248 				"/>
				<polygon clip-path="url(#SVGID_6_)" fill="#2E5DAD" points="-8.506,44.093 -8.506,44.394 86.849,44.394 87.371,44.093 				"/>
				<polygon clip-path="url(#SVGID_6_)" fill="#FFFFFF" points="216.613,49.745 255.116,49.745 255.116,27.516 				"/>

					<rect x="28.974" y="4.36" clip-path="url(#SVGID_6_)" fill-rule="evenodd" clip-rule="evenodd" fill="#FFFFFF" width="4.666" height="3.326"/>

					<rect x="35.468" y="4.36" clip-path="url(#SVGID_6_)" fill-rule="evenodd" clip-rule="evenodd" fill="#FFFFFF" width="4.665" height="3.326"/>
				<polygon clip-path="url(#SVGID_6_)" fill-rule="evenodd" clip-rule="evenodd" fill="#FFFFFF" points="50.474,11.28
					50.474,16.291 52.333,16.283 52.333,11.28 57.046,11.28 57.046,24.236 52.333,24.236 52.333,18.931 50.474,18.939
					50.474,24.236 45.698,24.236 45.698,11.28 				"/>
				<polygon clip-path="url(#SVGID_6_)" fill-rule="evenodd" clip-rule="evenodd" fill="#FFFFFF" points="76.844,24.235
					72.122,24.235 72.122,14.706 70.262,14.706 70.262,24.235 65.534,24.235 65.534,14.706 63.642,14.706 63.642,24.235
					58.87,24.235 58.881,11.279 76.844,11.279 				"/>
				<g clip-path="url(#SVGID_6_)">
					<defs>
						<rect id="SVGID_10_" x="11.337" y="4.36" width="65.507" height="33.625"/>
					</defs>
					<clipPath id="SVGID_11_">
						<use xlink:href="#SVGID_10_"  overflow="visible"/>
					</clipPath>
					<path clip-path="url(#SVGID_11_)" fill-rule="evenodd" clip-rule="evenodd" fill="#FFFFFF" d="M38.248,15.148
						c-0.899-1.007-2.207-1.641-3.663-1.641c-1.492,0-2.828,0.665-3.729,1.716l-4.153-2.553c1.774-2.429,4.644-4.007,7.882-4.007
						c3.255,0,6.139,1.596,7.911,4.047L38.248,15.148z"/>
					<path clip-path="url(#SVGID_11_)" fill-rule="evenodd" clip-rule="evenodd" fill="#FFFFFF" d="M29.971,16.734
						c-0.192,0.525-0.296,1.092-0.296,1.683c0,2.396,1.717,4.392,3.988,4.823l0.001,4.888c-4.955-0.464-8.833-4.635-8.833-9.711
						c0-1.447,0.315-2.82,0.88-4.055L29.971,16.734z"/>
					<path clip-path="url(#SVGID_11_)" fill-rule="evenodd" clip-rule="evenodd" fill="#FFFFFF" d="M39.208,16.763
						c0.185,0.517,0.286,1.074,0.286,1.654c0,2.399-1.727,4.397-4.001,4.825v4.888c4.963-0.456,8.845-4.631,8.845-9.713
						c0-1.458-0.32-2.842-0.894-4.084L39.208,16.763z"/>
					<path clip-path="url(#SVGID_11_)" fill-rule="evenodd" clip-rule="evenodd" fill="#FFFFFF" d="M38.443,18.417
						c0,2.132-1.728,3.859-3.859,3.859s-3.859-1.727-3.859-3.859c0-2.131,1.728-3.858,3.859-3.858S38.443,16.286,38.443,18.417
						 M34.584,15.273c-1.737,0-3.144,1.408-3.144,3.144c0,1.737,1.407,3.145,3.144,3.145s3.144-1.408,3.144-3.145
						C37.729,16.681,36.321,15.273,34.584,15.273"/>
					<path clip-path="url(#SVGID_11_)" fill-rule="evenodd" clip-rule="evenodd" fill="#FFFFFF" d="M21.965,19.019h1.623V11.28
						H11.336v12.955h4.745v-5.216h0.665l3.097,5.216h5.8L21.965,19.019z M19.24,16.297h-3.158v-1.822l3.158-0.013V16.297z"/>
					<path clip-path="url(#SVGID_11_)" fill="#FFFFFF" d="M13.816,36.011H13.8c-0.122,0.443-0.51,0.726-0.99,0.726
						c-0.892,0-1.295-0.682-1.295-2.018c0-1.327,0.403-2.01,1.295-2.01c0.503,0,0.846,0.262,0.945,0.668h0.015v-1.909h0.457v5.182
						h-0.411V36.011z M12.886,36.374c0.465,0,0.884-0.225,0.884-1.655c0-1.422-0.419-1.647-0.884-1.647
						c-0.457,0-0.884,0.225-0.884,1.647C12.002,36.149,12.429,36.374,12.886,36.374"/>
					<path clip-path="url(#SVGID_11_)" fill="#FFFFFF" d="M15.606,32.796h0.457v0.602h0.015c0.176-0.428,0.549-0.689,1.021-0.689
						c0.054,0,0.107,0.007,0.16,0.022v0.435c-0.076-0.014-0.152-0.022-0.221-0.022c-0.502,0-0.975,0.349-0.975,1.096v2.409h-0.457
						V32.796z"/>
					<path clip-path="url(#SVGID_11_)" fill="#FFFFFF" d="M18.296,31.468h0.457v0.74h-0.457V31.468z M18.296,32.796h0.457v3.853
						h-0.457V32.796z"/>
					<polygon clip-path="url(#SVGID_11_)" fill="#FFFFFF" points="19.819,32.796 20.308,32.796 21.207,36.156 21.222,36.156
						22.044,32.796 22.531,32.796 21.465,36.649 20.947,36.649 					"/>
					<path clip-path="url(#SVGID_11_)" fill="#FFFFFF" d="M26.06,35.372c-0.069,0.82-0.541,1.365-1.303,1.365
						c-0.854,0-1.357-0.567-1.357-2.018c0-1.335,0.503-2.01,1.395-2.01c0.899,0,1.303,0.588,1.303,1.872v0.16h-2.21v0.181
						c0,1.111,0.412,1.452,0.861,1.452c0.48,0,0.777-0.327,0.853-1.002H26.06z M25.61,34.378c-0.015-0.958-0.297-1.306-0.861-1.306
						s-0.846,0.348-0.861,1.306H25.61z"/>
					<path clip-path="url(#SVGID_11_)" fill="#FFFFFF" d="M27.355,32.796h0.411v0.537h0.016c0.228-0.428,0.624-0.624,1.036-0.624
						c0.617,0,1.036,0.305,1.036,1.03v2.91h-0.457v-2.786c0-0.53-0.229-0.791-0.693-0.791c-0.534,0-0.892,0.392-0.892,0.987v2.59
						h-0.457V32.796z"/>
					<path clip-path="url(#SVGID_11_)" fill="#FFFFFF" d="M33.602,31.468h0.457v1.909h0.015c0.099-0.406,0.442-0.668,0.945-0.668
						c0.892,0,1.295,0.683,1.295,2.01c0,1.336-0.403,2.018-1.295,2.018c-0.48,0-0.868-0.283-0.99-0.726h-0.016v0.639h-0.411V31.468z
						 M34.943,36.374c0.457,0,0.884-0.225,0.884-1.655c0-1.422-0.427-1.647-0.884-1.647c-0.465,0-0.884,0.225-0.884,1.647
						C34.059,36.149,34.478,36.374,34.943,36.374"/>
					<path clip-path="url(#SVGID_11_)" fill="#FFFFFF" d="M37.183,32.796h0.488l0.906,3.338h0.016l0.815-3.338h0.487l-1.181,4.165
						c-0.213,0.755-0.457,0.966-1.074,0.966c-0.122,0-0.213-0.008-0.305-0.015v-0.363c0.099,0.007,0.198,0.015,0.298,0.015
						c0.281,0,0.472-0.109,0.601-0.516l0.115-0.363L37.183,32.796z"/>
					<path clip-path="url(#SVGID_11_)" fill="#FFFFFF" d="M43.469,33.159h-0.556v-0.363h0.556v-1.067h0.457v1.067h0.716v0.363
						h-0.716v2.765c0,0.304,0.137,0.406,0.435,0.406c0.091,0,0.182-0.014,0.281-0.043v0.362c-0.053,0.03-0.167,0.044-0.32,0.044
						c-0.617,0-0.853-0.16-0.853-0.675V33.159z"/>
					<path clip-path="url(#SVGID_11_)" fill="#FFFFFF" d="M48.17,35.372c-0.069,0.82-0.541,1.365-1.303,1.365
						c-0.854,0-1.357-0.567-1.357-2.018c0-1.335,0.503-2.01,1.395-2.01c0.899,0,1.302,0.588,1.302,1.872v0.16h-2.209v0.181
						c0,1.111,0.411,1.452,0.861,1.452c0.48,0,0.777-0.327,0.853-1.002H48.17z M47.72,34.378c-0.015-0.958-0.297-1.306-0.861-1.306
						c-0.564,0-0.846,0.348-0.861,1.306H47.72z"/>
					<path clip-path="url(#SVGID_11_)" fill="#FFFFFF" d="M51.896,35.373c-0.068,0.82-0.541,1.364-1.288,1.364
						c-0.853,0-1.356-0.566-1.356-2.017c0-1.335,0.503-2.01,1.394-2.01c0.762,0,1.204,0.443,1.25,1.233h-0.457
						c-0.054-0.602-0.305-0.87-0.793-0.87c-0.495,0-0.906,0.29-0.906,1.654c0,1.452,0.434,1.647,0.861,1.647
						c0.465,0,0.762-0.326,0.838-1.001H51.896z"/>
					<path clip-path="url(#SVGID_11_)" fill="#FFFFFF" d="M53.107,31.468h0.457v1.865h0.015c0.115-0.392,0.511-0.624,0.991-0.624
						c0.617,0,1.036,0.305,1.036,1.03v2.91h-0.457v-2.786c0-0.53-0.229-0.791-0.693-0.791c-0.534,0-0.892,0.392-0.892,0.987v2.59
						h-0.457V31.468z"/>
					<path clip-path="url(#SVGID_11_)" fill="#FFFFFF" d="M57.031,32.796h0.411v0.537h0.016c0.228-0.428,0.624-0.624,1.036-0.624
						c0.617,0,1.036,0.305,1.036,1.03v2.91h-0.457v-2.786c0-0.53-0.229-0.791-0.693-0.791c-0.534,0-0.892,0.392-0.892,0.987v2.59
						h-0.457V32.796z"/>
					<path clip-path="url(#SVGID_11_)" fill="#FFFFFF" d="M62.135,32.709c0.892,0,1.394,0.675,1.394,2.01
						c0,1.343-0.502,2.018-1.394,2.018c-0.891,0-1.394-0.675-1.394-2.018C60.741,33.384,61.244,32.709,62.135,32.709 M62.135,36.374
						c0.511,0,0.907-0.421,0.907-1.655c0-1.226-0.396-1.647-0.907-1.647c-0.51,0-0.906,0.421-0.906,1.647
						C61.229,35.953,61.625,36.374,62.135,36.374"/>
					<rect x="64.771" y="31.468" clip-path="url(#SVGID_11_)" fill="#FFFFFF" width="0.457" height="5.181"/>
					<path clip-path="url(#SVGID_11_)" fill="#FFFFFF" d="M67.865,32.709c0.892,0,1.394,0.675,1.394,2.01
						c0,1.343-0.502,2.018-1.394,2.018c-0.891,0-1.394-0.675-1.394-2.018C66.471,33.384,66.974,32.709,67.865,32.709 M67.865,36.374
						c0.511,0,0.907-0.421,0.907-1.655c0-1.226-0.396-1.647-0.907-1.647c-0.51,0-0.906,0.421-0.906,1.647
						C66.958,35.953,67.354,36.374,67.865,36.374"/>
					<path clip-path="url(#SVGID_11_)" fill="#FFFFFF" d="M72.558,32.796h0.411v3.577c0,1.067-0.411,1.611-1.325,1.611
						c-0.785,0-1.197-0.392-1.204-0.943h0.457c0,0.363,0.358,0.58,0.762,0.58c0.556,0,0.853-0.37,0.853-1.052V35.96h-0.015
						c-0.145,0.471-0.526,0.689-0.945,0.689c-0.625,0-1.25-0.392-1.25-1.93c0-1.328,0.404-2.01,1.296-2.01
						c0.442,0,0.8,0.246,0.945,0.682h0.015V32.796z M71.651,36.287c0.541,0,0.861-0.377,0.861-1.611c0-1.226-0.32-1.604-0.861-1.604
						s-0.861,0.378-0.861,1.604C70.79,35.91,71.11,36.287,71.651,36.287"/>
					<path clip-path="url(#SVGID_11_)" fill="#FFFFFF" d="M74.005,32.796h0.488l0.906,3.338h0.016l0.815-3.338h0.487l-1.181,4.165
						c-0.213,0.755-0.457,0.966-1.074,0.966c-0.122,0-0.213-0.008-0.305-0.015v-0.363c0.099,0.007,0.198,0.015,0.298,0.015
						c0.281,0,0.472-0.109,0.601-0.516l0.115-0.363L74.005,32.796z"/>
				</g>
			</g>
		</g>
		<path clip-path="url(#SVGID_2_)" fill="none" stroke="#FFFFFF" stroke-width="1.25" stroke-miterlimit="10" d="M246.612,147.73v15
			 M246.612-6.001v-15 M-0.002,147.73v15 M-0.002-6.001v-15 M252.612,141.73h15 M-6.002,141.73h-15 M252.612-0.001h15 M-6.002-0.001
			h-15"/>
		<path clip-path="url(#SVGID_2_)" fill="none" stroke="#000000" stroke-width="0.25" stroke-miterlimit="10" d="M246.612,147.73v15
			 M246.612-6.001v-15 M-0.002,147.73v15 M-0.002-6.001v-15 M252.612,141.73h15 M-6.002,141.73h-15 M252.612-0.001h15 M-6.002-0.001
			h-15"/>
		<g clip-path="url(#SVGID_2_)">
			<defs>
				<rect id="SVGID_12_" x="-29.506" y="-29.505" width="305.622" height="200.74"/>
			</defs>
			<clipPath id="SVGID_13_">
				<use xlink:href="#SVGID_12_"  overflow="visible"/>
			</clipPath>
			<path clip-path="url(#SVGID_13_)" fill="none" stroke="#FFFFFF" stroke-width="1.25" stroke-miterlimit="10" d="M255.116,153.235
				v18 M255.116-11.505v-18 M-8.506,153.235v18 M-8.506-11.505v-18 M258.116,150.235h18 M-11.506,150.235h-18 M258.116-8.505h18
				 M-11.506-8.505h-18"/>
			<path clip-path="url(#SVGID_13_)" fill="none" stroke="#000000" stroke-width="0.25" stroke-miterlimit="10" d="M255.116,153.235
				v18 M255.116-11.505v-18 M-8.506,153.235v18 M-8.506-11.505v-18 M258.116,150.235h18 M-11.506,150.235h-18 M258.116-8.505h18
				 M-11.506-8.505h-18"/>
		</g>
	</g>
</g>
</svg>
