<svg xmlns="http://www.w3.org/2000/svg" xmlns:xlink="http://www.w3.org/1999/xlink" version="1.1"  width="303.307pt" height="193.89pt" viewBox="0 0 303.307 193.89">
<g transform="scale(1.25822552864762)">
<defs>
<clipPath id="clip_0">
<path transform="matrix(1,0,0,-1,-20.9764,176.93)" d="M75.262 86.789H207.68302V116.786H75.262Z"/>
</clipPath>
<path id="font_1_91" d="M.20263672 .12158203 .21142578 .076171878 .22314453 .12402344 .35009767 .5283203H.39990235L.5253906 .1274414 .5390625 .071777347 .55029299 .123046878 .6586914 .5283203H.7192383L.5654297 0H.515625L.3798828 .4189453 .37353517 .4477539 .3671875 .41845704 .23388672 0H.18408203L.030761719 .5283203H.09082031L.20263672 .12158203Z"/>
<path id="font_1_18" d="M.07080078 .03515625C.07080078 .04654948 .07446289 .056233724 .08178711 .064208988 .08911133 .07218424 .09928385 .076171878 .11230469 .076171878 .12532552 .076171878 .13557942 .07218424 .1430664 .064208988 .15055339 .056233724 .15429688 .04654948 .15429688 .03515625 .15429688 .023763022 .15055339 .014404297 .1430664 .007080078 .13557942-.00024414063 .12532552-.00390625 .11230469-.00390625 .09928385-.00390625 .08911133-.00024414063 .08178711 .007080078 .07446289 .014404297 .07080078 .023763022 .07080078 .03515625Z"/>
<path id="font_1_69" d="M.40966798 0C.4038086 .016601563 .4000651 .041178388 .3984375 .07373047 .3779297 .04703776 .35180665 .026448569 .32006837 .011962891 .28833009-.0025227864 .25472007-.009765625 .21923828-.009765625 .16845703-.009765625 .12736003 .0044148766 .095947269 .03277588 .06453451 .061147054 .048828126 .09701029 .048828126 .1403656 .048828126 .19187927 .07023112 .23263042 .11303711 .26261903 .1558431 .2926178 .2154948 .3076172 .2919922 .3076172H.39794923V.36750794C.39794923 .40516664 .38631187 .43478904 .3630371 .45637513 .33976237 .4779714 .3058268 .48876954 .26123048 .48876954 .22054036 .48876954 .18684896 .47839866 .16015625 .45765687 .13346355 .43692527 .12011719 .41197715 .12011719 .3828125L.061523439 .38330079C.061523439 .42516075 .08105469 .46142069 .12011719 .4920807 .15917969 .52275088 .20719402 .53808596 .26416017 .53808596 .32307945 .53808596 .36954753 .52335616 .40356446 .49389649 .4375814 .46443687 .45507813 .42333985 .4560547 .37060548V.12060547C.4560547 .069498699 .46142579 .03125 .47216798 .005859375V0H.40966798M.22607422 .041992189C.26513673 .041992189 .30004884 .051452638 .33081056 .070373538 .36157228 .08929443 .3839518 .11457825 .39794923 .14622498V.2626953H.29345704C.2351888 .26204429 .18961589 .25135804 .15673828 .2306366 .12386068 .20992534 .107421878 .1814626 .107421878 .14524842 .107421878 .11556498 .1184082 .09093221 .14038086 .0713501 .16235352 .051778158 .19091797 .041992189 .22607422 .041992189Z"/>
<path id="font_1_80" d="M.14160156 0H.08300781V.75H.14160156V0Z"/>
<path id="font_1_89" d="M.41601563 .06689453C.38085938 .01578776 .32470704-.009765625 .2475586-.009765625 .19124349-.009765625 .1484375 .006591797 .119140628 .03930664 .08984375 .072021488 .07486979 .12044271 .07421875 .18457031V.5283203H.13232422V.19189453C.13232422 .091308597 .17301433 .041015626 .25439454 .041015626 .33902995 .041015626 .39257813 .07600912 .41503907 .1459961V.5283203H.4736328V0H.4169922L.41601563 .06689453Z"/>
<path id="font_1_71" d="M.27148438 .03955078C.31217448 .03955078 .3462728 .05102539 .3737793 .07397461 .4012858 .09692383 .41617839 .12662761 .41845704 .16308594H.47460938C.47298179 .13085938 .46289063 .10148112 .44433595 .07495117 .42578126 .048421224 .40112306 .027669272 .37036134 .0126953129 .3395996-.0022786458 .30664063-.009765625 .27148438-.009765625 .20214844-.009765625 .1472168 .014322917 .10668945 .0625 .06616211 .110677089 .045898439 .17545574 .045898439 .25683595V.27441407C.045898439 .3264974 .05501302 .3725586 .07324219 .41259767 .09147135 .45263673 .1175944 .4835612 .15161133 .5053711 .18562825 .52718099 .22542317 .53808596 .2709961 .53808596 .3289388 .53808596 .37670899 .5208333 .41430665 .48632813 .4519043 .4518229 .47200523 .40641276 .47460938 .35009767H.41845704C.41585288 .3914388 .4009603 .4248047 .3737793 .4501953 .3465983 .47558595 .31233726 .48828126 .2709961 .48828126 .21826172 .48828126 .17732747 .46923829 .14819336 .43115235 .11905924 .3930664 .10449219 .339681 .10449219 .2709961V.25390626C.10449219 .18652344 .11905924 .13395183 .14819336 .096191409 .17732747 .05843099 .21842449 .03955078 .27148438 .03955078Z"/>
<path id="font_1_17" d="M.2578125 .28955079H.023925782V.3388672H.2578125V.28955079Z"/>
<path id="font_1_83" d="M.043945314 .27197267C.043945314 .3227539 .053792318 .3684896 .07348633 .4091797 .093180339 .44986979 .12101237 .4815267 .15698242 .5041504 .19295247 .5267741 .23372396 .53808596 .27929688 .53808596 .34960938 .53808596 .40657554 .51342776 .4501953 .46411134 .4938151 .41479493 .515625 .34944663 .515625 .2680664V.25585938C.515625 .20475261 .505778 .15877278 .48608399 .11791992 .46638999 .077067058 .4386393 .045572919 .40283204 .0234375 .36702476 .0013020834 .32617188-.009765625 .28027345-.009765625 .21028646-.009765625 .15340169 .014892578 .10961914 .064208988 .065836589 .11352539 .043945314 .1788737 .043945314 .2602539V.27197267M.10253906 .25585938C.10253906 .19270833 .118896488 .14086914 .15161133 .1003418 .18432617 .059814454 .22721355 .03955078 .28027345 .03955078 .3330078 .03955078 .37573243 .059814454 .40844728 .1003418 .4411621 .14086914 .45751954 .19433594 .45751954 .2607422V.27197267C.45751954 .31233726 .45003257 .34928385 .4350586 .3828125 .42008464 .41634117 .39908854 .44230143 .3720703 .46069337 .3450521 .4790853 .3141276 .48828126 .27929688 .48828126 .22721355 .48828126 .18473308 .46785484 .15185547 .42700196 .11897787 .38614909 .10253906 .33268229 .10253906 .26660157V.25585938Z"/>
<path id="font_1_86" d="M.3203125 .47851563C.30794273 .48079429 .29475913 .4819336 .28076173 .4819336 .24430339 .4819336 .21346028 .47176109 .18823242 .45141603 .16300456 .43107096 .14501953 .40152995 .13427735 .36279298V0H.076171878V.5283203H.13330078L.13427735 .44433595C.16520183 .50683596 .21484375 .53808596 .28320313 .53808596 .29947917 .53808596 .31233726 .53597006 .32177735 .5317383L.3203125 .47851563Z"/>
<path id="font_1_72" d="M.052734376 .26904298C.052734376 .35107423 .07104492 .41642253 .107666019 .4650879 .14428711 .51375326 .19401042 .53808596 .25683595 .53808596 .328125 .53808596 .38248698 .5099284 .41992188 .45361329V.75H.47802735V0H.42333985L.42089845 .0703125C.38346354 .016927084 .32845054-.009765625 .25585938-.009765625 .19498699-.009765625 .14591472 .014729817 .10864258 .0637207 .071370448 .112711589 .052734376 .1788737 .052734376 .26220704V.26904298M.111816409 .25878907C.111816409 .19140625 .12532552 .13826497 .15234375 .099365238 .17936199 .060465497 .21744792 .041015626 .26660157 .041015626 .33854167 .041015626 .38964845 .072753909 .41992188 .13623047V.38427735C.38964845 .45296226 .3388672 .4873047 .26757813 .4873047 .21842449 .4873047 .18017578 .46801759 .15283203 .42944337 .12548828 .39086915 .111816409 .33398438 .111816409 .25878907Z"/>
<path id="font_1_81" d="M.12939453 .5283203 .13134766 .4423828C.1508789 .47428385 .17529297 .49820964 .20458985 .51416018 .23388672 .53011068 .2664388 .53808596 .3022461 .53808596 .38557945 .53808596 .43847657 .50390627 .4609375 .43554688 .47981773 .46842448 .5050456 .49373374 .5366211 .5114746 .5681966 .5292155 .60302737 .53808596 .6411133 .53808596 .75439456 .53808596 .8121745 .47623698 .8144531 .35253907V0H.7558594V.34814454C.7555339 .39534507 .7453613 .43033854 .7253418 .453125 .70532229 .47591148 .6726888 .4873047 .6274414 .4873047 .5854492 .48665367 .54996749 .47306315 .5209961 .4465332 .49202476 .42000328 .47591148 .3876953 .47265626 .34960938V0H.4140625V.35253907C.41373698 .39778648 .40307618 .43155924 .38208009 .45385743 .36108399 .4761556 .32877604 .4873047 .28515626 .4873047 .24837239 .4873047 .21679688 .47680665 .19042969 .45581056 .1640625 .43481446 .14453125 .40364585 .13183594 .3623047V0H.07324219V.5283203H.12939453Z"/>
<clipPath id="clip_2">
<path transform="matrix(1,0,0,-1,-20.9764,176.93)" d="M0 0H282.945V197.906H0Z"/>
</clipPath>
</defs>
<path transform="matrix(1,0,0,-1,-20.9764,176.93)" d="M18.165 18.165H264.779V179.73999H18.165Z" fill="#1c3444"/>
<g clip-path="url(#clip_0)">
<path transform="matrix(1,0,0,-1,119.349498,60.15869)" d="M0 0V-22.94C0-23.702 .618-24.317 1.376-24.317H6.22C6.983-24.317 7.598-23.702 7.598-22.94V0H15.38V-24.43C15.38-27.476 12.913-29.943 9.87-29.943H-2.273C-5.316-29.943-7.784-27.476-7.784-24.43V0ZM-18.074 .015V-22.94C-18.074-23.702-17.458-24.317-16.698-24.317H-9.177V-29.943H-20.346C-23.391-29.943-25.857-27.476-25.857-24.43V.015ZM-38.766-24.173H-53.303L-53.515-24.579C-54.609-26.66-55.468-28.379-56.23-29.935H-65.064C-64.713-29.178-62.977-25.41-60.516-20.719-55.415-10.991-46.634-.827-34.501-.002H-30.958L-30.987-29.937-38.689-29.93ZM-51.791-21.212H-38.765L-38.761-7.431C-44.866-9.139-48.581-14.916-51.791-21.212M46.543-21.003C49.75-14.709 53.466-8.93 59.57-7.222L59.566-21.003ZM40.75-29.943H41.978C42.737-28.388 43.706-26.45 44.801-24.37L45.012-23.963H59.55V-29.983H67.357V-.033L63.842-.02C51.708-.844 42.901-10.784 37.803-20.51 37.247-21.568 36.73-22.591 36.246-23.549 36.024-24.005 35.545-24.317 35.003-24.317H28.317C27.556-24.317 26.941-23.702 26.941-22.94V-7.459C26.941-6.697 27.556-6.083 28.317-6.083H32.405C33.164-6.083 33.781-6.697 33.781-7.459V-9.006H41.565V-5.624C41.565-2.581 39.097-.009 36.054-.009H24.668C21.625-.009 19.157-2.581 19.157-5.624V-24.43C19.157-27.476 21.625-29.943 24.668-29.943H35.567Z" fill="#ffffff" fill-rule="evenodd"/>
</g>
<use data-text="w" xlink:href="#font_1_91" transform="matrix(8,0,0,-8,81.6308,132.92209)" fill="#ffffff"/>
<use data-text="w" xlink:href="#font_1_91" transform="matrix(8,0,0,-8,87.662799,132.92209)" fill="#ffffff"/>
<use data-text="w" xlink:href="#font_1_91" transform="matrix(8,0,0,-8,93.69479,132.92209)" fill="#ffffff"/>
<use data-text="." xlink:href="#font_1_18" transform="matrix(8,0,0,-8,99.240398,132.92209)" fill="#ffffff"/>
<use data-text="a" xlink:href="#font_1_69" transform="matrix(8,0,0,-8,101.1524,132.92209)" fill="#ffffff"/>
<use data-text="l" xlink:href="#font_1_80" transform="matrix(8,0,0,-8,105.4404,132.92209)" fill="#ffffff"/>
<use data-text="u" xlink:href="#font_1_89" transform="matrix(8,0,0,-8,107.2324,132.92209)" fill="#ffffff"/>
<use data-text="c" xlink:href="#font_1_71" transform="matrix(8,0,0,-8,111.6244,132.92209)" fill="#ffffff"/>
<use data-text="a" xlink:href="#font_1_69" transform="matrix(8,0,0,-8,115.74439,132.92209)" fill="#ffffff"/>
<use data-text="-" xlink:href="#font_1_17" transform="matrix(8,0,0,-8,120.03239,132.92209)" fill="#ffffff"/>
<use data-text="w" xlink:href="#font_1_91" transform="matrix(8,0,0,-8,122.32038,132.92209)" fill="#ffffff"/>
<use data-text="o" xlink:href="#font_1_83" transform="matrix(8,0,0,-8,128.35239,132.92209)" fill="#ffffff"/>
<use data-text="r" xlink:href="#font_1_86" transform="matrix(8,0,0,-8,132.83238,132.92209)" fill="#ffffff"/>
<use data-text="l" xlink:href="#font_1_80" transform="matrix(8,0,0,-8,135.52039,132.92209)" fill="#ffffff"/>
<use data-text="d" xlink:href="#font_1_72" transform="matrix(8,0,0,-8,137.3124,132.92209)" fill="#ffffff"/>
<use data-text="." xlink:href="#font_1_18" transform="matrix(8,0,0,-8,141.76039,132.92209)" fill="#ffffff"/>
<use data-text="c" xlink:href="#font_1_71" transform="matrix(8,0,0,-8,143.6724,132.92209)" fill="#ffffff"/>
<use data-text="o" xlink:href="#font_1_83" transform="matrix(8,0,0,-8,147.79239,132.92209)" fill="#ffffff"/>
<use data-text="m" xlink:href="#font_1_81" transform="matrix(8,0,0,-8,152.27239,132.92209)" fill="#ffffff"/>
<path transform="matrix(1,0,0,-1,-20.9764,176.93)" d="M18.165 18.165H264.779V26.669H18.165Z" fill="#f99f2a"/>
<g clip-path="url(#clip_2)">
<path transform="matrix(1,0,0,-1,-5.9764006,.024490357)" stroke-width="1.25" stroke-linecap="butt" stroke-miterlimit="10" stroke-linejoin="miter" fill="none" stroke="#ffffff" d="M0 0H-15M252.945 0H267.945M0-155.906H-15M252.945-155.906H267.945M6 6V21M6-161.906V-176.906M246.945 6V21M246.945-161.906V-176.906"/>
<path transform="matrix(1,0,0,-1,-5.9764006,.024490357)" stroke-width=".25" stroke-linecap="butt" stroke-miterlimit="10" stroke-linejoin="miter" fill="none" stroke="#000000" d="M0 0H-15M252.945 0H267.945M0-155.906H-15M252.945-155.906H267.945M6 6V21M6-161.906V-176.906M246.945 6V21M246.945-161.906V-176.906"/>
</g>
</g>
</svg>
