<svg xmlns="http://www.w3.org/2000/svg" xmlns:xlink="http://www.w3.org/1999/xlink" width="303.307pt" height="193.89pt" viewBox="0 0 303.307 193.89" version="1.1">
<g id="all">
    <g transform="scale(1.25822552864762)">
        <defs>
<clipPath id="clip_0">
<path transform="matrix(1,0,0,-1,0,155.906)" d="M0 0H240.945V155.906H0Z"/>
</clipPath>
<clipPath id="clip_1">
<path transform="matrix(1,0,0,-1,0,155.906)" d="M0 0H240.945V155.906H0Z"/>
</clipPath>
<clipPath id="clip_2">
<path transform="matrix(1,0,0,-1,0,155.906)" d="M0 0H240.945V155.906H0Z"/>
</clipPath>
</defs>
<g clip-path="url(#clip_0)">
<path transform="matrix(1,0,0,-1,148.9465,27.761307)" d="M0 0C0 4.983-3.221 8.203-8.105 8.203H-14.794V-8.618H-8.276C-3.123-8.618 0-4.909 0 0M-3.757 0C-3.757-3.273-5.199-5.691-8.423-5.691H-11.159V5.276H-8.399C-5.101 5.276-3.757 2.76-3.757 0"/>
<path transform="matrix(1,0,0,-1,149.9395,36.379205)" d="M0 0H3.513V5.517C3.513 8.984 5.027 9.667 7.566 9.594V12.938C5.418 12.914 4.075 11.864 3.513 10.424 3.513 11.107 3.464 12.352 3.416 12.645H-.024C0 11.571 0 10.473 0 9.203Z"/>
</g>
<path transform="matrix(1,0,0,-1,0,155.906)" d="M161.998 136.348H158.485V133.22602H161.998Z"/>
<path transform="matrix(1,0,0,-1,162.6396,23.735)" d="M0 0 4.408-12.645H8.7L13.094 0H9.48L6.559-9.547 3.612 0Z"/>
<g clip-path="url(#clip_1)">
<path transform="matrix(1,0,0,-1,186.9758,29.739106)" d="M0 0C0 3.151-1.488 6.298-5.81 6.298-9.888 6.298-11.913 3.468-11.913-.512-11.913-3.835-10.107-6.933-5.932-6.933-1.976-6.933-.585-4.396-.146-2.857H-3.635C-3.977-3.615-4.393-4.201-5.859-4.201-7.593-4.201-8.4-2.662-8.4-1.073H-.049C0-.707 0-.439 0 0M-3.513 1.073H-8.326C-8.18 2.637-7.496 3.786-5.834 3.786-4.124 3.786-3.538 2.54-3.513 1.073"/>
<path transform="matrix(1,0,0,-1,188.0178,36.379205)" d="M0 0H3.513V7.032C3.513 9.279 4.344 10.109 5.834 10.109 7.398 10.109 7.863 9.083 7.863 7.643V0H11.351V8.033C11.351 11.207 9.717 12.938 7.178 12.938 4.955 12.938 3.928 11.816 3.513 11.036 3.489 11.426 3.44 12.304 3.367 12.645H-.024C0 11.694 0 10.524 0 9.45Z"/>
<path transform="matrix(1,0,0,-1,212.4042,36.379205)" d="M0 0V12.645H-1.951-3.513-6.959V16.064H-10.448V12.645H-12.401V10.011H-10.448V3.367C-10.448 1.146-9.643-.171-7.179-.171-6.471-.171-5.518-.171-4.835 .073V2.463C-5.079 2.439-5.421 2.439-5.616 2.439-6.666 2.439-6.959 2.805-6.959 3.758V10.011H-3.513V0Z"/>
</g>
<path transform="matrix(1,0,0,-1,0,155.906)" d="M212.404 136.348H208.891V133.22602H212.404Z"/>
<g clip-path="url(#clip_2)">
<path transform="matrix(1,0,0,-1,221.5107,32.303804)" d="M0 0C-.317-.953-.952-1.661-2.173-1.661-3.687-1.661-4.664-.44-4.664 2.272-4.664 4.714-3.76 6.107-2.149 6.107-.781 6.107-.195 5.398 .024 4.372H3.418C3.37 5.789 2.173 8.863-2.076 8.863-5.932 8.863-8.201 5.887-8.201 2.15-8.201-1.661-6.176-4.368-2.246-4.368 1.514-4.368 3.003-2.1 3.418 0Z"/>
<path transform="matrix(1,0,0,-1,162.0183,23.7314)" d="M0 0-3.554-2.049V-12.647H-2.746C-1.23-12.647 0-11.418 0-9.901Z"/>
<path transform="matrix(1,0,0,-1,110.904,33.301805)" d="M0 0-13.534-7.793-12.886-8.919C-12.068-10.339-10.582-11.134-9.053-11.134-8.305-11.134-7.547-10.943-6.853-10.543L5.709-3.31Z"/>
<path transform="matrix(1,0,0,-1,105.0977,16.016114)" d="M0 0C-2.438 0-4.415-1.975-4.418-4.413L-4.435-18.908 1.287-15.619 1.305-.002 .006 0Z"/>
<path transform="matrix(1,0,0,-1,110.0998,21.955109)" d="M0 0-.012-6.599 13.504-14.424 14.155-13.299C15.378-11.188 14.657-8.485 12.545-7.262Z"/>
</g>
</g>
</g>
</svg>