<svg xmlns="http://www.w3.org/2000/svg" xmlns:xlink="http://www.w3.org/1999/xlink" version="1.1"  width="303.307pt" height="193.89pt" viewBox="0 0 303.307 193.89">
<g transform="scale(1.25822552864762)">
    <defs>
<clipPath id="clip_0">
<path transform="matrix(1,0,0,-1,0,155.906)" d="M0 0H240.945V155.906H0Z"/>
</clipPath>
<clipPath id="clip_1">
<path transform="matrix(1,0,0,-1,0,155.906)" d="M54.262 53.669H186.68302V102.237H54.262Z"/>
</clipPath>
</defs>
<g clip-path="url(#clip_0)">
<path transform="matrix(1,0,0,-1,87.1011,130.62291)" d="M0 0H-.42L.653-3.698H1.001L1.935-.769 1.979-.564 2.023-.766 2.974-3.698H3.322L4.399 0H3.975L3.216-2.837 3.138-3.196 3.042-2.806 2.164 0H1.815L.926-2.83 .844-3.165 .783-2.847ZM5.277 0H4.857L5.93-3.698H6.279L7.212-.769 7.256-.564 7.301-.766 8.251-3.698H8.6L9.676 0H9.252L8.494-2.837 8.415-3.196 8.319-2.806 7.441 0H7.092L6.204-2.83 6.122-3.165 6.06-2.847ZM10.555 0H10.134L11.208-3.698H11.556L12.489-.769 12.534-.564 12.578-.766 13.528-3.698H13.877L14.954 0H14.53L13.771-2.837 13.692-3.196 13.597-2.806 12.718 0H12.37L11.481-2.83 11.399-3.165 11.337-2.847ZM15.345-3.649C15.396-3.7 15.467-3.726 15.559-3.726 15.65-3.726 15.721-3.7 15.774-3.649 15.826-3.597 15.853-3.532 15.853-3.452 15.853-3.372 15.826-3.305 15.774-3.249 15.721-3.193 15.65-3.165 15.559-3.165 15.467-3.165 15.396-3.193 15.345-3.249 15.294-3.305 15.268-3.372 15.268-3.452 15.268-3.532 15.294-3.597 15.345-3.649M19.749-3.698V-3.657C19.674-3.479 19.636-3.212 19.636-2.854V-1.104C19.629-.735 19.507-.447 19.269-.241 19.031-.035 18.705 .068 18.293 .068 17.894 .068 17.558-.039 17.285-.255 17.011-.47 16.875-.725 16.875-1.019L17.285-1.022C17.285-.817 17.378-.641 17.565-.496 17.752-.35 17.988-.277 18.272-.277 18.585-.277 18.822-.353 18.985-.504 19.148-.656 19.229-.864 19.229-1.128V-1.548H18.488C17.952-1.548 17.535-1.653 17.235-1.863 16.935-2.072 16.786-2.357 16.786-2.717 16.786-3.02 16.896-3.271 17.115-3.469 17.335-3.667 17.623-3.767 17.979-3.767 18.227-3.767 18.462-3.716 18.684-3.615 18.906-3.513 19.089-3.369 19.233-3.182 19.244-3.41 19.271-3.582 19.312-3.698ZM17.427-3.199C17.273-3.063 17.196-2.89 17.196-2.683 17.196-2.43 17.311-2.231 17.541-2.087 17.771-1.942 18.09-1.867 18.498-1.863H19.229V-2.676C19.132-2.897 18.975-3.074 18.76-3.206 18.544-3.338 18.3-3.404 18.026-3.404 17.78-3.404 17.58-3.336 17.427-3.199M21.185 1.552H20.775V-3.698H21.185ZM24.681-3.698H25.078V0H24.667V-2.676C24.51-3.166 24.135-3.411 23.543-3.411 22.973-3.411 22.688-3.059 22.688-2.355V0H22.282V-2.406C22.286-2.855 22.391-3.194 22.596-3.423 22.801-3.652 23.101-3.767 23.495-3.767 24.035-3.767 24.428-3.588 24.674-3.23ZM26.645-3.025C26.441-2.761 26.339-2.393 26.339-1.921V-1.801C26.339-1.321 26.441-.947 26.645-.68 26.849-.414 27.135-.28 27.504-.28 27.794-.28 28.034-.369 28.224-.547 28.414-.725 28.518-.958 28.537-1.248H28.93C28.911-.853 28.771-.535 28.508-.294 28.244-.052 27.91 .068 27.504 .068 27.185 .068 26.907-.008 26.669-.161 26.431-.313 26.248-.53 26.12-.81 25.992-1.09 25.929-1.413 25.929-1.777V-1.9C25.929-2.47 26.071-2.924 26.354-3.261 26.638-3.598 27.022-3.767 27.508-3.767 27.754-3.767 27.985-3.714 28.2-3.609 28.415-3.505 28.588-3.359 28.718-3.174 28.848-2.988 28.918-2.782 28.93-2.557H28.537C28.521-2.812 28.416-3.02 28.224-3.18 28.031-3.341 27.793-3.421 27.508-3.421 27.136-3.421 26.849-3.289 26.645-3.025M32.519-3.698V-3.657C32.443-3.479 32.406-3.212 32.406-2.854V-1.104C32.399-.735 32.276-.447 32.038-.241 31.8-.035 31.475 .068 31.062 .068 30.664 .068 30.328-.039 30.054-.255 29.781-.47 29.644-.725 29.644-1.019L30.054-1.022C30.054-.817 30.148-.641 30.334-.496 30.521-.35 30.757-.277 31.042-.277 31.354-.277 31.592-.353 31.755-.504 31.918-.656 31.999-.864 31.999-1.128V-1.548H31.257C30.722-1.548 30.304-1.653 30.005-1.863 29.705-2.072 29.555-2.357 29.555-2.717 29.555-3.02 29.665-3.271 29.885-3.469 30.105-3.667 30.393-3.767 30.748-3.767 30.996-3.767 31.232-3.716 31.454-3.615 31.676-3.513 31.859-3.369 32.002-3.182 32.014-3.41 32.04-3.582 32.081-3.698ZM30.196-3.199C30.042-3.063 29.965-2.89 29.965-2.683 29.965-2.43 30.08-2.231 30.311-2.087 30.541-1.942 30.86-1.867 31.268-1.863H31.999V-2.676C31.901-2.897 31.744-3.074 31.529-3.206 31.314-3.338 31.069-3.404 30.796-3.404 30.55-3.404 30.35-3.336 30.196-3.199M34.768-1.33H33.131V-1.6750001H34.768ZM35.602 0H35.181L36.254-3.698H36.603L37.536-.769 37.581-.564 37.625-.766 38.575-3.698H38.924L40 0H39.577L38.818-2.837 38.739-3.196 38.644-2.806 37.765 0H37.417L36.528-2.83 36.446-3.165 36.384-2.847ZM40.551-1.876C40.551-2.446 40.704-2.904 41.01-3.249 41.317-3.594 41.715-3.767 42.205-3.767 42.526-3.767 42.812-3.689 43.063-3.534 43.314-3.379 43.508-3.159 43.646-2.873 43.784-2.587 43.853-2.265 43.853-1.907V-1.822C43.853-1.252 43.7-.795 43.395-.449 43.089-.104 42.69 .068 42.198 .068 41.879 .068 41.594-.011 41.342-.169 41.09-.328 40.895-.549 40.758-.834 40.62-1.119 40.551-1.439 40.551-1.794ZM40.961-1.832C40.961-1.369 41.076-.995 41.306-.709 41.536-.423 41.834-.28 42.198-.28 42.442-.28 42.658-.345 42.848-.473 43.037-.602 43.184-.784 43.289-1.019 43.393-1.253 43.446-1.512 43.446-1.794V-1.873C43.446-2.338 43.331-2.712 43.102-2.996 42.873-3.28 42.574-3.421 42.205-3.421 41.834-3.421 41.533-3.28 41.304-2.996 41.075-2.712 40.961-2.349 40.961-1.907ZM46.416 .024C46.35 .054 46.26 .068 46.146 .068 45.667 .068 45.32-.15 45.104-.588L45.097 0H44.697V-3.698H45.104V-1.159C45.179-.888 45.305-.681 45.481-.538 45.658-.396 45.874-.325 46.129-.325 46.227-.325 46.319-.333 46.406-.349ZM47.51 1.552H47.1V-3.698H47.51ZM48.457-1.863C48.457-2.446 48.587-2.909 48.848-3.252 49.109-3.595 49.452-3.767 49.878-3.767 50.387-3.767 50.772-3.58 51.034-3.206L51.051-3.698H51.434V1.552H51.027V-.523C50.765-.129 50.384 .068 49.885 .068 49.445 .068 49.097-.102 48.841-.443 48.585-.783 48.457-1.241 48.457-1.815ZM49.157-.692C49.349-.422 49.616-.287 49.96-.287 50.459-.287 50.815-.528 51.027-1.008V-2.745C50.815-3.189 50.457-3.411 49.954-3.411 49.61-3.411 49.343-3.275 49.154-3.003 48.965-2.73 48.87-2.358 48.87-1.887 48.87-1.36 48.966-.962 49.157-.692M52.55-3.649C52.601-3.7 52.672-3.726 52.763-3.726 52.854-3.726 52.926-3.7 52.979-3.649 53.031-3.597 53.057-3.532 53.057-3.452 53.057-3.372 53.031-3.305 52.979-3.249 52.926-3.193 52.854-3.165 52.763-3.165 52.672-3.165 52.601-3.193 52.55-3.249 52.498-3.305 52.473-3.372 52.473-3.452 52.473-3.532 52.498-3.597 52.55-3.649M54.686-3.025C54.482-2.761 54.38-2.393 54.38-1.921V-1.801C54.38-1.321 54.482-.947 54.686-.68 54.89-.414 55.176-.28 55.545-.28 55.835-.28 56.075-.369 56.265-.547 56.455-.725 56.559-.958 56.578-1.248H56.971C56.952-.853 56.812-.535 56.549-.294 56.285-.052 55.951 .068 55.545 .068 55.226 .068 54.948-.008 54.71-.161 54.472-.313 54.289-.53 54.161-.81 54.033-1.09 53.97-1.413 53.97-1.777V-1.9C53.97-2.47 54.112-2.924 54.395-3.261 54.679-3.598 55.063-3.767 55.549-3.767 55.795-3.767 56.026-3.714 56.241-3.609 56.456-3.505 56.629-3.359 56.759-3.174 56.889-2.988 56.959-2.782 56.971-2.557H56.578C56.562-2.812 56.457-3.02 56.265-3.18 56.072-3.341 55.834-3.421 55.549-3.421 55.177-3.421 54.89-3.289 54.686-3.025M57.562-1.876C57.562-2.446 57.715-2.904 58.022-3.249 58.328-3.594 58.726-3.767 59.216-3.767 59.538-3.767 59.824-3.689 60.074-3.534 60.325-3.379 60.519-3.159 60.657-2.873 60.795-2.587 60.864-2.265 60.864-1.907V-1.822C60.864-1.252 60.711-.795 60.406-.449 60.1-.104 59.702 .068 59.209 .068 58.89 .068 58.605-.011 58.353-.169 58.101-.328 57.907-.549 57.769-.834 57.631-1.119 57.562-1.439 57.562-1.794ZM57.972-1.832C57.972-1.369 58.087-.995 58.317-.709 58.548-.423 58.845-.28 59.209-.28 59.453-.28 59.67-.345 59.859-.473 60.048-.602 60.195-.784 60.3-1.019 60.405-1.253 60.457-1.512 60.457-1.794V-1.873C60.457-2.338 60.343-2.712 60.114-2.996 59.885-3.28 59.585-3.421 59.216-3.421 58.845-3.421 58.545-3.28 58.316-2.996 58.087-2.712 57.972-2.349 57.972-1.907ZM61.688 0V-3.698H62.098V-1.162C62.187-.873 62.323-.655 62.508-.508 62.692-.361 62.913-.287 63.171-.287 63.476-.287 63.702-.365 63.849-.521 63.996-.677 64.071-.914 64.073-1.23V-3.698H64.483V-1.251C64.506-.984 64.619-.758 64.822-.573 65.025-.387 65.273-.292 65.567-.287 65.884-.287 66.112-.367 66.252-.526 66.392-.686 66.464-.931 66.466-1.261V-3.698H66.876V-1.23C66.86-.365 66.456 .068 65.663 .068 65.396 .068 65.152 .006 64.931-.118 64.71-.242 64.533-.419 64.401-.649 64.244-.171 63.874 .068 63.291 .068 63.04 .068 62.812 .012 62.607-.099 62.402-.211 62.231-.378 62.094-.602L62.081 0Z" fill="#1c3444"/>
</g>
<g clip-path="url(#clip_1)">
<path transform="matrix(1,0,0,-1,119.326,53.684305)" d="M0 0V-22.941C0-23.702 .618-24.317 1.376-24.317H6.22C6.983-24.317 7.597-23.702 7.597-22.941V0H15.38V-24.43C15.38-27.477 12.913-29.943 9.87-29.943H-2.273C-5.316-29.943-7.785-27.477-7.785-24.43V0ZM-18.074 .015V-22.941C-18.074-23.702-17.458-24.317-16.698-24.317H-9.178V-29.943H-20.346C-23.391-29.943-25.858-27.477-25.858-24.43V.015ZM-38.766-24.173H-53.303L-53.515-24.579C-54.61-26.66-55.469-28.379-56.23-29.935H-65.064C-64.714-29.178-62.978-25.41-60.516-20.719-55.415-10.991-46.634-.827-34.501-.002H-30.958L-30.987-29.937-38.689-29.93ZM-51.791-21.212H-38.765L-38.761-7.431C-44.866-9.139-48.581-14.916-51.791-21.212M46.543-21.003C49.75-14.709 53.466-8.93 59.571-7.222L59.566-21.003ZM40.75-29.943H41.978C42.737-28.388 43.706-26.45 44.8-24.37L45.012-23.963H59.55V-29.982H67.357V-.033L63.842-.02C51.708-.845 42.902-10.784 37.803-20.51 37.247-21.568 36.73-22.591 36.246-23.549 36.024-24.005 35.545-24.317 35.004-24.317H28.318C27.556-24.317 26.941-23.702 26.941-22.941V-7.459C26.941-6.698 27.556-6.083 28.318-6.083H32.405C33.164-6.083 33.781-6.698 33.781-7.459V-9.006H41.565V-5.624C41.565-2.581 39.096-.009 36.054-.009H24.668C21.624-.009 19.158-2.581 19.158-5.624V-24.43C19.158-27.477 21.624-29.943 24.668-29.943H35.567Z" fill="#1c3444" fill-rule="evenodd"/>
<path transform="matrix(1,0,0,-1,58.3481,98.01651)" d="M0 0H-3.133V2.329H.457V3.108H-4.087V-4.121H.507V-3.341H-3.133V-.78H0ZM10.241-4.121H11.219L8.453 3.108H7.619L4.859-4.121H5.842L6.522-2.229H9.551ZM8.036 1.932 9.268-1.45H6.81ZM19.539-1.472C19.787-1.666 19.911-1.94 19.911-2.294 19.911-2.648 19.777-2.928 19.509-3.133 19.24-3.339 18.855-3.441 18.352-3.441 17.812-3.441 17.381-3.314 17.059-3.061 16.735-2.808 16.574-2.463 16.574-2.026H15.616C15.616-2.446 15.733-2.822 15.966-3.153 16.199-3.484 16.531-3.745 16.961-3.935 17.391-4.125 17.855-4.22 18.352-4.22 19.116-4.22 19.727-4.044 20.184-3.692 20.641-3.339 20.869-2.87 20.869-2.284 20.869-1.917 20.787-1.597 20.623-1.326 20.459-1.054 20.208-.817 19.868-.613 19.529-.41 19.059-.223 18.458-.055 17.857 .115 17.432 .301 17.182 .505 16.932 .709 16.807 .959 16.807 1.254 16.807 1.622 16.939 1.909 17.202 2.117 17.466 2.324 17.832 2.428 18.302 2.428 18.809 2.428 19.201 2.303 19.479 2.052 19.757 1.801 19.896 1.456 19.896 1.018H20.854C20.854 1.418 20.747 1.787 20.534 2.125 20.32 2.463 20.019 2.727 19.631 2.919 19.241 3.112 18.799 3.207 18.302 3.207 17.574 3.207 16.982 3.021 16.527 2.649 16.072 2.277 15.844 1.805 15.844 1.236 15.844 .733 16.031 .31 16.403-.032 16.775-.375 17.37-.664 18.188-.898 18.84-1.087 19.29-1.279 19.539-1.472M30.042 0H26.909V2.329H30.499V3.108H25.956V-4.121H30.549V-3.341H26.909V-.78H30.042ZM41.954 3.108H40.862L43.355-1.425V-4.121H44.308V-1.425L46.8 3.108H45.718L43.832-.521ZM57.017-.283C57.017 .422 56.897 1.04 56.659 1.572 56.42 2.103 56.081 2.508 55.638 2.788 55.197 3.068 54.686 3.207 54.107 3.207 53.537 3.207 53.032 3.066 52.59 2.783 52.148 2.5 51.806 2.092 51.565 1.559 51.323 1.026 51.202 .412 51.202-.283V-.804C51.209-1.487 51.334-2.086 51.577-2.604 51.821-3.122 52.162-3.521 52.603-3.801 53.043-4.081 53.547-4.22 54.117-4.22 54.699-4.22 55.209-4.081 55.646-3.803 56.083-3.525 56.42-3.122 56.659-2.594 56.897-2.067 57.017-1.448 57.017-.74ZM56.068-.809C56.058-1.647 55.884-2.29 55.546-2.738 55.209-3.187 54.732-3.411 54.117-3.411 53.504-3.411 53.024-3.174 52.675-2.698 52.325-2.224 52.15-1.571 52.15-.74V-.209C52.16 .605 52.338 1.242 52.685 1.7 53.03 2.159 53.504 2.388 54.107 2.388 54.726 2.388 55.207 2.159 55.552 1.7 55.896 1.242 56.068 .584 56.068-.273ZM66.443 3.108V-1.792C66.443-2.316 66.3-2.721 66.013-3.009 65.727-3.297 65.314-3.441 64.774-3.441 64.242-3.441 63.832-3.296 63.543-3.006 63.255-2.717 63.112-2.311 63.112-1.788V3.108H62.168V-1.818C62.175-2.565 62.412-3.153 62.883-3.58 63.353-4.007 63.983-4.22 64.774-4.22L65.028-4.21C65.756-4.157 66.333-3.914 66.758-3.48 67.184-3.047 67.398-2.489 67.402-1.808V3.108ZM76.992-4.121H78.015V-4.062L76.317-.993C76.75-.828 77.089-.578 77.332-.243 77.575 .091 77.697 .483 77.697 .934 77.697 1.642 77.478 2.182 77.039 2.552 76.6 2.923 75.974 3.108 75.159 3.108H72.766V-4.121H73.725V-1.197H75.423ZM73.725 2.329H75.185C75.688 2.325 76.072 2.204 76.339 1.965 76.605 1.726 76.738 1.384 76.738 .936 76.738 .524 76.599 .196 76.319-.049 76.039-.294 75.663-.417 75.189-.417H73.725ZM89.34 3.108H88.387L90.135-4.121H91.004L92.548 1.147 92.663 1.698 92.777 1.147 94.266-4.121H95.135L96.888 3.108H95.929L94.807-1.837 94.654-2.81 94.455-1.936 93.06 3.108H92.255L90.825-1.936 90.622-2.796 90.483-1.842ZM107.372-.283C107.372 .422 107.253 1.04 107.014 1.572 106.776 2.103 106.436 2.508 105.994 2.788 105.552 3.068 105.041 3.207 104.463 3.207 103.893 3.207 103.387 3.066 102.946 2.783 102.503 2.5 102.162 2.092 101.92 1.559 101.678 1.026 101.558 .412 101.558-.283V-.804C101.564-1.487 101.689-2.086 101.933-2.604 102.176-3.122 102.518-3.521 102.958-3.801 103.398-4.081 103.903-4.22 104.472-4.22 105.054-4.22 105.564-4.081 106.001-3.803 106.438-3.525 106.776-3.122 107.014-2.594 107.253-2.067 107.372-1.448 107.372-.74ZM106.423-.809C106.413-1.647 106.239-2.29 105.902-2.738 105.564-3.187 105.088-3.411 104.472-3.411 103.86-3.411 103.379-3.174 103.03-2.698 102.68-2.224 102.506-1.571 102.506-.74V-.209C102.516 .605 102.694 1.242 103.04 1.7 103.385 2.159 103.86 2.388 104.463 2.388 105.081 2.388 105.563 2.159 105.907 1.7 106.251 1.242 106.423 .584 106.423-.273ZM116.888-4.121H117.911V-4.062L116.212-.993C116.646-.828 116.985-.578 117.228-.243 117.471 .091 117.593 .483 117.593 .934 117.593 1.642 117.373 2.182 116.935 2.552 116.496 2.923 115.87 3.108 115.056 3.108H112.663V-4.121H113.621V-1.197H115.319ZM113.621 2.329H115.08C115.583 2.325 115.968 2.204 116.235 1.965 116.501 1.726 116.634 1.384 116.634 .936 116.634 .524 116.495 .196 116.215-.049 115.935-.294 115.559-.417 115.086-.417H113.621ZM127.193-4.121H128.335L125.267-.084 128.111 3.108H126.96L123.748-.467V3.108H122.794V-4.121H123.748V-1.678L124.631-.76Z" fill="#1c3444"/>
</g>
</g>
</svg>
