<svg xmlns="http://www.w3.org/2000/svg" xmlns:xlink="http://www.w3.org/1999/xlink" version="1.1"  width="303.307pt" height="193.89pt" viewBox="0 0 303.307 193.89">
<g transform="scale(1.25822552864762)">
<defs>
<clipPath id="clip_2">
<path transform="matrix(1,0,0,-1,0,155.906)" d="M158.536 19.842H221.10199V34.015H158.536Z"/>
</clipPath>
</defs>
<g clip-path="url(#clip_2)">
<path transform="matrix(1,0,0,-1,189.2775,121.89731)" d="M0 0V-10.839C0-11.199 .292-11.489 .65-11.489H2.939C3.299-11.489 3.59-11.199 3.59-10.839V0H7.267V-11.543C7.267-12.982 6.101-14.148 4.663-14.148H-1.074C-2.512-14.148-3.678-12.982-3.678-11.543V0ZM-8.539 .007V-10.839C-8.539-11.199-8.248-11.489-7.889-11.489H-4.336V-14.148H-9.613C-11.052-14.148-12.217-12.982-12.217-11.543V.007ZM-18.316-11.421H-25.185L-25.285-11.613C-25.802-12.596-26.208-13.409-26.567-14.144H-30.741C-30.576-13.786-29.755-12.006-28.592-9.789-26.182-5.193-22.034-.391-16.301-.001H-14.627L-14.641-14.145-18.28-14.142ZM-24.47-10.022H-18.316L-18.314-3.511C-21.198-4.318-22.954-7.047-24.47-10.022M21.99-9.923C23.506-6.95 25.262-4.219 28.146-3.412L28.144-9.923ZM19.253-14.148H19.834C20.192-13.413 20.65-12.497 21.167-11.514L21.267-11.322H28.136V-14.166H31.825V-.016L30.164-.009C24.431-.399 20.27-5.095 17.861-9.69 17.599-10.191 17.354-10.674 17.126-11.127 17.021-11.342 16.794-11.489 16.538-11.489H13.379C13.02-11.489 12.729-11.199 12.729-10.839V-3.524C12.729-3.164 13.02-2.874 13.379-2.874H15.311C15.669-2.874 15.961-3.164 15.961-3.524V-4.255H19.639V-2.657C19.639-1.219 18.472-.004 17.035-.004H11.655C10.217-.004 9.052-1.219 9.052-2.657V-11.543C9.052-12.982 10.217-14.148 11.655-14.148H16.805Z" fill="#1c3444" fill-rule="evenodd"/>
</g>
</g>
</svg>
