<svg version="1.1" id="Ebene_1" xmlns="http://www.w3.org/2000/svg" xmlns:xlink="http://www.w3.org/1999/xlink" x="0px" y="0px"
    width="314.5px" height="203.5px" viewBox="0 0 314.5 203.5" enable-background="new 0 0 310.296 314.5 203.5"
    xml:space="preserve">
<g enable-background="new" transform="scale(1.3051)">
<path transform="matrix(1,0,0,-1,0,155.906)" d="M 0 0 L 240.945 0 L 240.945 155.905 L 0 155.905 Z " fill="#0061c8"/>
<g id="Layer-1" data-name="PlacedPDF">
<clipPath id="cp0">
<path transform="matrix(1,0,0,-1,0,155.906)" d="M 77.953 57.024 L 162.992 57.024 L 162.992 106.197 L 77.953 106.197 Z "/>
</clipPath>
<g clip-path="url(#cp0)">
<path transform="matrix(1,0,0,-1,120.5058,49.708604)" d="M 0 0 C -23.227 0 -42.553 -7.003 -42.553 -17.583 C -42.553 -28.164 -23.227 -35.166 0 -35.166 C 5.975 -35.166 11.685 -34.702 16.874 -33.833 C 16.416 -33.067 16.158 -32.213 16.158 -31.313 C 16.158 -28.009 19.607 -25.321 23.846 -25.321 C 27.408 -25.321 30.412 -27.22 31.28 -29.788 C 38.219 -26.75 42.486 -22.563 42.486 -17.583 C 42.486 -7.003 23.227 0 0 0 " fill="#001689"/>
<path transform="matrix(1,0,0,-1,150.9801,81.02131)" d="M 0 0 C 0 -2.724 -2.968 -4.933 -6.629 -4.933 C -10.29 -4.933 -13.257 -2.724 -13.257 0 C -13.257 2.724 -10.29 4.933 -6.629 4.933 C -2.968 4.933 0 2.724 0 0 " fill="#001689"/>
<path transform="matrix(1,0,0,-1,154.668,62.906908)" d="M 0 0 L 0 -7.663 C 0 -7.887 -.181 -8.068 -.405 -8.068 L -1.683 -8.068 C -2.138 -8.068 -2.559 -7.828 -2.792 -7.436 L -5.949 -2.106 C -5.993 -2.118 -5.989 -2.117 -6.033 -2.129 L -6.033 -7.663 C -6.033 -7.887 -6.214 -8.068 -6.438 -8.068 L -7.647 -8.068 C -7.871 -8.068 -8.052 -7.887 -8.052 -7.663 L -8.052 0 C -8.052 .224 -7.871 .405 -7.647 .405 L -6.354 .405 C -5.904 .405 -5.486 .17 -5.253 -.215 L -2.102 -5.402 C -2.058 -5.39 -2.062 -5.391 -2.019 -5.379 L -2.019 0 C -2.019 .224 -1.838 .405 -1.614 .405 L -.405 .405 C -.181 .405 0 .224 0 0 M -61.495 0 L -61.495 -7.663 C -61.495 -7.887 -61.677 -8.068 -61.9 -8.068 L -63.109 -8.068 C -63.333 -8.068 -63.514 -7.887 -63.514 -7.663 L -63.514 -4.739 L -66.372 -4.739 L -66.372 -7.663 C -66.372 -7.887 -66.553 -8.068 -66.777 -8.068 L -67.986 -8.068 C -68.21 -8.068 -68.391 -7.887 -68.391 -7.663 L -68.391 0 C -68.391 .224 -68.21 .405 -67.986 .405 L -66.777 .405 C -66.553 .405 -66.372 .224 -66.372 0 L -66.372 -3.057 L -63.514 -3.057 L -63.514 0 C -63.514 .224 -63.333 .405 -63.109 .405 L -61.9 .405 C -61.677 .405 -61.495 .224 -61.495 0 M -38.153 0 L -38.153 -.973 C -38.153 -1.197 -38.335 -1.378 -38.558 -1.378 L -40.127 -1.378 L -40.127 -7.663 C -40.127 -7.887 -40.309 -8.068 -40.532 -8.068 L -41.741 -8.068 C -41.965 -8.068 -42.146 -7.887 -42.146 -7.663 L -42.146 -1.378 L -43.716 -1.378 C -43.939 -1.378 -44.12 -1.197 -44.12 -.973 L -44.12 0 C -44.12 .224 -43.939 .405 -43.716 .405 L -38.558 .405 C -38.335 .405 -38.153 .224 -38.153 0 M -23.172 -4.753 L -22.229 -1.483 L -22.186 -1.483 L -21.243 -4.753 Z M -20.669 -.204 C -20.785 .159 -21.122 .405 -21.502 .405 L -22.913 .405 C -23.294 .405 -23.63 .159 -23.746 -.204 L -26.123 -7.673 C -26.185 -7.868 -26.039 -8.068 -25.834 -8.068 L -24.853 -8.068 C -24.424 -8.068 -24.047 -7.784 -23.928 -7.372 L -23.657 -6.435 L -20.757 -6.435 L -20.487 -7.372 C -20.369 -7.784 -19.991 -8.068 -19.562 -8.068 L -18.581 -8.068 C -18.376 -8.068 -18.23 -7.868 -18.293 -7.673 Z M -57.506 -4.753 L -56.562 -1.483 L -56.519 -1.483 L -55.576 -4.753 Z M -55.003 -.204 C -55.118 .159 -55.455 .405 -55.835 .405 L -57.246 .405 C -57.627 .405 -57.963 .159 -58.079 -.204 L -60.456 -7.673 C -60.518 -7.868 -60.372 -8.068 -60.167 -8.068 L -59.186 -8.068 C -58.757 -8.068 -58.38 -7.784 -58.261 -7.372 L -57.991 -6.435 L -55.091 -6.435 L -54.82 -7.372 C -54.702 -7.784 -54.324 -8.068 -53.895 -8.068 L -52.915 -8.068 C -52.709 -8.068 -52.563 -7.868 -52.626 -7.673 Z M -9.288 0 L -9.288 -7.663 C -9.288 -7.887 -9.469 -8.068 -9.693 -8.068 L -10.97 -8.068 C -11.426 -8.068 -11.847 -7.828 -12.079 -7.436 L -15.237 -2.106 C -15.281 -2.118 -15.277 -2.117 -15.321 -2.129 L -15.321 -7.663 C -15.321 -7.887 -15.502 -8.068 -15.726 -8.068 L -16.935 -8.068 C -17.158 -8.068 -17.339 -7.887 -17.339 -7.663 L -17.339 0 C -17.339 .224 -17.158 .405 -16.935 .405 L -15.642 .405 C -15.192 .405 -14.774 .17 -14.54 -.215 L -11.39 -5.402 C -11.346 -5.39 -11.35 -5.391 -11.306 -5.379 L -11.306 0 C -11.306 .224 -11.125 .405 -10.902 .405 L -9.693 .405 C -9.469 .405 -9.288 .224 -9.288 0 M -27.048 0 L -27.048 -7.663 C -27.048 -7.887 -27.23 -8.068 -27.453 -8.068 L -28.662 -8.068 C -28.886 -8.068 -29.067 -7.887 -29.067 -7.663 L -29.067 -2.071 C -29.14 -2.056 -29.125 -2.059 -29.198 -2.044 L -30.926 -6.102 C -31.059 -6.414 -31.365 -6.617 -31.704 -6.617 L -32.37 -6.617 C -32.709 -6.617 -33.016 -6.414 -33.149 -6.102 L -34.878 -2.043 C -34.95 -2.058 -34.935 -2.055 -35.008 -2.069 L -35.008 -7.663 C -35.008 -7.887 -35.189 -8.068 -35.413 -8.068 L -36.622 -8.068 C -36.845 -8.068 -37.027 -7.887 -37.027 -7.663 L -37.027 0 C -37.027 .224 -36.845 .405 -36.622 .405 L -34.971 .405 C -34.542 .405 -34.154 .146 -33.989 -.251 L -32.061 -5.022 L -32.014 -5.022 L -30.123 -.257 C -29.959 .143 -29.57 .405 -29.138 .405 L -27.453 .405 C -27.23 .405 -27.048 .224 -27.048 0 M -49.567 -1.291 L -47.779 -1.291 C -47.291 -1.291 -46.896 -1.686 -46.896 -2.174 C -46.896 -2.662 -47.291 -3.057 -47.779 -3.057 L -49.567 -3.057 Z M -46.687 -4.624 C -45.656 -4.286 -44.911 -3.317 -44.911 -2.174 C -44.911 -.75 -46.066 .405 -47.49 .405 L -51.178 .405 C -51.403 .405 -51.586 .222 -51.586 -.003 L -51.586 -7.66 C -51.586 -7.885 -51.403 -8.068 -51.178 -8.068 L -49.975 -8.068 C -49.75 -8.068 -49.567 -7.885 -49.567 -7.66 L -49.567 -4.753 L -48.663 -4.753 L -46.938 -7.515 C -46.724 -7.859 -46.347 -8.068 -45.942 -8.068 L -44.659 -8.068 C -44.491 -8.068 -44.392 -7.878 -44.489 -7.741 Z " fill="#ffffff"/>
<path transform="matrix(1,0,0,-1,147.5908,79.94291)" d="M 0 0 L -2.161 0 L -2.161 1.943 C -2.161 2.135 -2.317 2.291 -2.509 2.291 L -3.97 2.291 C -4.162 2.291 -4.318 2.135 -4.318 1.943 L -4.318 0 L -6.479 0 C -6.671 0 -6.827 -.156 -6.827 -.348 L -6.827 -1.809 C -6.827 -2.001 -6.671 -2.157 -6.479 -2.157 L -4.318 -2.157 L -4.318 -4.1 C -4.318 -4.292 -4.162 -4.448 -3.97 -4.448 L -2.509 -4.448 C -2.317 -4.448 -2.161 -4.292 -2.161 -4.1 L -2.161 -2.157 L 0 -2.157 C .192 -2.157 .348 -2.001 .348 -1.809 L .348 -.348 C .348 -.156 .192 0 0 0 " fill="#ffffff" fill-rule="evenodd"/>
<path transform="matrix(1,0,0,-1,86.2682,97.057209)" d="M 0 0 L 0 4.883 C 0 5.024 .052 5.075 .2 5.075 L .527 5.075 C .668 5.075 .719 5.024 .719 4.883 L .719 2.813 L 3.265 2.813 L 3.265 4.883 C 3.265 5.024 3.309 5.075 3.458 5.075 L 3.784 5.075 C 3.925 5.075 3.977 5.024 3.977 4.883 L 3.977 0 C 3.977 -.141 3.925 -.193 3.784 -.193 L 3.458 -.193 C 3.309 -.193 3.265 -.141 3.265 0 L 3.265 2.144 L .719 2.144 L .719 0 C .719 -.141 .668 -.193 .527 -.193 L .2 -.193 C .052 -.193 0 -.141 0 0 " fill="#ffffff"/>
<path transform="matrix(1,0,0,-1,93.6598,95.02391)" d="M 0 0 L 0 .215 C 0 .801 -.341 1.15 -1.017 1.15 C -1.685 1.15 -2.033 .801 -2.033 .215 L -2.033 0 Z M -2.694 -.794 L -2.694 .126 C -2.694 1.128 -2.107 1.714 -1.017 1.714 C .126 1.714 .66 1.054 .66 .178 L .66 -.252 C .66 -.408 .594 -.512 .393 -.512 L -2.033 -.512 L -2.033 -.868 C -2.033 -1.432 -1.685 -1.766 -1.039 -1.766 C -.505 -1.766 -.185 -1.558 0 -1.247 C .089 -1.128 .156 -1.106 .289 -1.18 L .49 -1.284 C .616 -1.351 .638 -1.447 .556 -1.573 C .289 -2.026 -.185 -2.338 -1.039 -2.338 C -2.196 -2.338 -2.694 -1.699 -2.694 -.794 " fill="#ffffff"/>
<path transform="matrix(1,0,0,-1,94.9814,97.07201)" d="M 0 0 L 0 5.135 C 0 5.269 .044 5.313 .178 5.313 L .49 5.313 C .616 5.313 .66 5.269 .66 5.135 L .66 0 C .66 -.133 .616 -.178 .49 -.178 L .178 -.178 C .044 -.178 0 -.133 0 0 " fill="#ffffff"/>
<path transform="matrix(1,0,0,-1,99.0258,95.82541)" d="M 0 0 L 0 1.002 C 0 1.595 -.334 1.914 -.979 1.914 C -1.313 1.914 -1.573 1.862 -1.774 1.796 C -1.87 1.759 -1.885 1.729 -1.885 1.64 L -1.885 -.735 C -1.714 -.801 -1.366 -.928 -.965 -.928 C -.297 -.928 0 -.616 0 0 M -2.545 -2.879 L -2.545 1.877 C -2.545 2.122 -2.493 2.204 -2.256 2.3 C -1.959 2.412 -1.529 2.516 -.891 2.516 C .17 2.516 .66 1.974 .66 1.024 L .66 -.022 C .66 -.987 .156 -1.536 -.92 -1.536 C -1.343 -1.536 -1.692 -1.402 -1.885 -1.328 L -1.885 -2.879 C -1.885 -3.013 -1.929 -3.057 -2.063 -3.057 L -2.367 -3.057 C -2.501 -3.057 -2.545 -3.013 -2.545 -2.879 " fill="#ffffff"/>
<path transform="matrix(1,0,0,-1,100.1989,96.44871)" d="M 0 0 C -.044 .119 -.015 .193 .111 .238 L .371 .326 C .482 .364 .542 .349 .601 .215 C .75 -.178 1.083 -.326 1.603 -.326 C 2.234 -.326 2.538 -.126 2.538 .245 C 2.538 .69 2.167 .772 1.544 .831 C .802 .905 .044 1.031 .044 1.989 C .044 2.679 .542 3.139 1.536 3.139 C 2.39 3.139 2.857 2.82 3.087 2.338 C 3.154 2.204 3.117 2.13 2.991 2.078 L 2.738 1.974 C 2.612 1.922 2.575 1.937 2.494 2.056 C 2.36 2.345 2.122 2.545 1.551 2.545 C .972 2.545 .698 2.36 .698 2.003 C .698 1.529 1.091 1.469 1.707 1.41 C 2.553 1.336 3.183 1.15 3.183 .275 C 3.183 -.43 2.657 -.913 1.618 -.913 C .779 -.913 .238 -.608 0 0 " fill="#ffffff"/>
<path transform="matrix(1,0,0,-1,103.8803,96.92361)" d="M 0 0 L 0 .059 C 0 .349 .089 .438 .379 .438 L .43 .438 C .72 .438 .809 .349 .809 .059 L .809 0 C .809 -.29 .72 -.379 .43 -.379 L .379 -.379 C .089 -.379 0 -.29 0 0 " fill="#ffffff"/>
<path transform="matrix(1,0,0,-1,106.9231,95.46181)" d="M 0 0 L 0 1.692 C 0 2.864 .727 3.592 2.07 3.592 C 3.183 3.592 3.799 3.146 4.067 2.33 C 4.118 2.189 4.081 2.13 3.948 2.078 L 3.636 1.974 C 3.495 1.937 3.443 1.952 3.391 2.092 C 3.206 2.649 2.82 2.924 2.07 2.924 C 1.187 2.924 .713 2.478 .713 1.699 L .713 -.007 C .713 -.779 1.195 -1.232 2.07 -1.232 C 2.834 -1.232 3.213 -.942 3.398 -.386 C 3.451 -.245 3.51 -.215 3.651 -.26 L 3.955 -.371 C 4.089 -.423 4.126 -.482 4.074 -.623 C 3.806 -1.439 3.206 -1.9 2.07 -1.9 C .734 -1.9 0 -1.172 0 0 " fill="#ffffff"/>
<path transform="matrix(1,0,0,-1,113.7953,96.715808)" d="M 0 0 C .097 .03 .119 .059 .119 .163 L .119 1.113 C -.03 1.128 -.438 1.165 -.809 1.165 C -1.506 1.165 -1.721 .957 -1.721 .542 C -1.721 .148 -1.566 -.096 -.824 -.096 C -.423 -.096 -.17 -.059 0 0 M -2.389 .534 C -2.389 1.402 -1.907 1.692 -.734 1.692 C -.364 1.692 -.015 1.647 .119 1.64 L .119 1.929 C .119 2.456 -.067 2.82 -.764 2.82 C -1.217 2.82 -1.514 2.664 -1.692 2.36 C -1.766 2.249 -1.803 2.226 -1.929 2.278 L -2.167 2.374 C -2.293 2.426 -2.33 2.493 -2.263 2.627 C -2.003 3.117 -1.514 3.406 -.749 3.406 C .445 3.406 .779 2.746 .779 1.907 L .779 -.03 C .779 -.289 .72 -.364 .512 -.453 C .238 -.571 -.185 -.646 -.764 -.646 C -2.063 -.646 -2.389 -.223 -2.389 .534 " fill="#ffffff"/>
<path transform="matrix(1,0,0,-1,115.3173,97.07201)" d="M 0 0 L 0 3.013 C 0 3.243 .052 3.332 .282 3.421 C .557 3.532 .987 3.651 1.64 3.651 L 1.877 3.651 C 2.011 3.651 2.056 3.606 2.056 3.473 L 2.056 3.228 C 2.056 3.094 2.011 3.05 1.877 3.05 L 1.625 3.05 C 1.262 3.05 .98 2.998 .764 2.924 C .668 2.887 .66 2.834 .66 2.775 L .66 0 C .66 -.133 .616 -.178 .482 -.178 L .178 -.178 C .044 -.178 0 -.133 0 0 " fill="#ffffff"/>
<path transform="matrix(1,0,0,-1,120.2078,95.02391)" d="M 0 0 L 0 .215 C 0 .801 -.341 1.15 -1.017 1.15 C -1.684 1.15 -2.033 .801 -2.033 .215 L -2.033 0 Z M -2.694 -.794 L -2.694 .126 C -2.694 1.128 -2.107 1.714 -1.017 1.714 C .126 1.714 .66 1.054 .66 .178 L .66 -.252 C .66 -.408 .594 -.512 .393 -.512 L -2.033 -.512 L -2.033 -.868 C -2.033 -1.432 -1.684 -1.766 -1.039 -1.766 C -.505 -1.766 -.185 -1.558 0 -1.247 C .089 -1.128 .156 -1.106 .29 -1.18 L .49 -1.284 C .616 -1.351 .638 -1.447 .556 -1.573 C .29 -2.026 -.185 -2.338 -1.039 -2.338 C -2.196 -2.338 -2.694 -1.699 -2.694 -.794 " fill="#ffffff"/>
<path transform="matrix(1,0,0,-1,121.3141,96.44871)" d="M 0 0 C -.044 .119 -.015 .193 .111 .238 L .371 .326 C .482 .364 .542 .349 .601 .215 C .75 -.178 1.083 -.326 1.603 -.326 C 2.233 -.326 2.538 -.126 2.538 .245 C 2.538 .69 2.167 .772 1.544 .831 C .802 .905 .044 1.031 .044 1.989 C .044 2.679 .542 3.139 1.536 3.139 C 2.389 3.139 2.857 2.82 3.087 2.338 C 3.154 2.204 3.117 2.13 2.991 2.078 L 2.738 1.974 C 2.612 1.922 2.575 1.937 2.494 2.056 C 2.36 2.345 2.122 2.545 1.551 2.545 C .972 2.545 .697 2.36 .697 2.003 C .697 1.529 1.091 1.469 1.707 1.41 C 2.553 1.336 3.183 1.15 3.183 .275 C 3.183 -.43 2.656 -.913 1.618 -.913 C .779 -.913 .238 -.608 0 0 " fill="#ffffff"/>
<path transform="matrix(1,0,0,-1,124.9955,96.92361)" d="M 0 0 L 0 .059 C 0 .349 .089 .438 .379 .438 L .43 .438 C .72 .438 .809 .349 .809 .059 L .809 0 C .809 -.29 .72 -.379 .43 -.379 L .379 -.379 C .089 -.379 0 -.29 0 0 " fill="#ffffff"/>
<path transform="matrix(1,0,0,-1,130.2941,94.67511)" d="M 0 0 C .645 0 1.031 .371 1.031 1.009 C 1.031 1.655 .645 2.026 0 2.026 L -1.388 2.026 L -1.388 0 Z M -2.107 -2.382 L -2.107 2.501 C -2.107 2.642 -2.056 2.694 -1.907 2.694 L .067 2.694 C 1.12 2.694 1.781 2.063 1.781 1.009 C 1.781 -.037 1.12 -.661 .067 -.661 L -1.388 -.661 L -1.388 -2.382 C -1.388 -2.523 -1.44 -2.575 -1.581 -2.575 L -1.907 -2.575 C -2.056 -2.575 -2.107 -2.523 -2.107 -2.382 " fill="#ffffff"/>
<path transform="matrix(1,0,0,-1,132.5878,97.07201)" d="M 0 0 L 0 3.013 C 0 3.243 .052 3.332 .282 3.421 C .557 3.532 .987 3.651 1.64 3.651 L 1.877 3.651 C 2.011 3.651 2.056 3.606 2.056 3.473 L 2.056 3.228 C 2.056 3.094 2.011 3.05 1.877 3.05 L 1.625 3.05 C 1.262 3.05 .98 2.998 .764 2.924 C .668 2.887 .66 2.834 .66 2.775 L .66 0 C .66 -.133 .616 -.178 .482 -.178 L .178 -.178 C .044 -.178 0 -.133 0 0 " fill="#ffffff"/>
<path transform="matrix(1,0,0,-1,137.471,95.944)" d="M 0 0 L 0 1.217 C 0 1.736 -.371 2.033 -1.009 2.033 C -1.625 2.033 -2.011 1.736 -2.011 1.217 L -2.011 0 C -2.011 -.512 -1.625 -.816 -1.009 -.816 C -.371 -.816 0 -.512 0 0 M -2.671 0 L -2.671 1.217 C -2.671 2.093 -2.055 2.634 -1.009 2.634 C .059 2.634 .661 2.093 .661 1.217 L .661 0 C .661 -.876 .059 -1.417 -1.009 -1.417 C -2.055 -1.417 -2.671 -.876 -2.671 0 " fill="#ffffff"/>
<path transform="matrix(1,0,0,-1,139.1787,95.677)" d="M 0 0 L 0 1.647 L -.616 1.647 C -.749 1.647 -.794 1.692 -.794 1.818 L -.794 2.078 C -.794 2.211 -.749 2.256 -.616 2.256 L 0 2.256 L 0 2.968 C 0 3.102 .044 3.146 .178 3.146 L .482 3.146 C .616 3.146 .66 3.102 .66 2.968 L .66 2.256 L 1.632 2.256 C 1.766 2.256 1.811 2.211 1.811 2.078 L 1.811 1.818 C 1.811 1.692 1.766 1.647 1.632 1.647 L .66 1.647 L .66 .022 C .66 -.794 .898 -.942 1.625 -.942 C 1.758 -.942 1.803 -.987 1.803 -1.128 L 1.803 -1.387 C 1.803 -1.521 1.758 -1.573 1.625 -1.573 C .423 -1.573 0 -1.239 0 0 " fill="#ffffff"/>
<path transform="matrix(1,0,0,-1,144.0098,95.02391)" d="M 0 0 L 0 .215 C 0 .801 -.341 1.15 -1.017 1.15 C -1.685 1.15 -2.033 .801 -2.033 .215 L -2.033 0 Z M -2.694 -.794 L -2.694 .126 C -2.694 1.128 -2.107 1.714 -1.017 1.714 C .126 1.714 .66 1.054 .66 .178 L .66 -.252 C .66 -.408 .594 -.512 .393 -.512 L -2.033 -.512 L -2.033 -.868 C -2.033 -1.432 -1.685 -1.766 -1.039 -1.766 C -.505 -1.766 -.185 -1.558 0 -1.247 C .089 -1.128 .156 -1.106 .29 -1.18 L .49 -1.284 C .616 -1.351 .638 -1.447 .556 -1.573 C .29 -2.026 -.185 -2.338 -1.039 -2.338 C -2.196 -2.338 -2.694 -1.699 -2.694 -.794 " fill="#ffffff"/>
<path transform="matrix(1,0,0,-1,145.1829,95.8699)" d="M 0 0 L 0 1.069 C 0 1.989 .534 2.56 1.655 2.56 C 2.553 2.56 3.035 2.152 3.221 1.566 C 3.265 1.425 3.228 1.358 3.102 1.313 L 2.849 1.232 C 2.708 1.18 2.649 1.217 2.597 1.351 C 2.456 1.759 2.182 1.974 1.633 1.974 C .98 1.974 .661 1.647 .661 1.098 L .661 -.022 C .661 -.579 .994 -.905 1.633 -.905 C 2.167 -.905 2.471 -.683 2.605 -.26 C 2.657 -.119 2.716 -.096 2.857 -.141 L 3.117 -.215 C 3.243 -.267 3.295 -.326 3.235 -.467 C 3.005 -1.128 2.501 -1.492 1.61 -1.492 C .519 -1.492 0 -.92 0 0 " fill="#ffffff"/>
<path transform="matrix(1,0,0,-1,149.406,95.677)" d="M 0 0 L 0 1.647 L -.616 1.647 C -.749 1.647 -.794 1.692 -.794 1.818 L -.794 2.078 C -.794 2.211 -.749 2.256 -.616 2.256 L 0 2.256 L 0 2.968 C 0 3.102 .044 3.146 .178 3.146 L .482 3.146 C .616 3.146 .66 3.102 .66 2.968 L .66 2.256 L 1.632 2.256 C 1.766 2.256 1.81 2.211 1.81 2.078 L 1.81 1.818 C 1.81 1.692 1.766 1.647 1.632 1.647 L .66 1.647 L .66 .022 C .66 -.794 .898 -.942 1.625 -.942 C 1.758 -.942 1.803 -.987 1.803 -1.128 L 1.803 -1.387 C 1.803 -1.521 1.758 -1.573 1.625 -1.573 C .423 -1.573 0 -1.239 0 0 " fill="#ffffff"/>
<path transform="matrix(1,0,0,-1,151.4914,96.44871)" d="M 0 0 C -.044 .119 -.015 .193 .111 .238 L .371 .326 C .482 .364 .542 .349 .601 .215 C .75 -.178 1.083 -.326 1.603 -.326 C 2.234 -.326 2.538 -.126 2.538 .245 C 2.538 .69 2.167 .772 1.544 .831 C .802 .905 .044 1.031 .044 1.989 C .044 2.679 .542 3.139 1.536 3.139 C 2.39 3.139 2.857 2.82 3.087 2.338 C 3.154 2.204 3.117 2.13 2.991 2.078 L 2.738 1.974 C 2.612 1.922 2.575 1.937 2.494 2.056 C 2.36 2.345 2.122 2.545 1.551 2.545 C .972 2.545 .698 2.36 .698 2.003 C .698 1.529 1.091 1.469 1.707 1.41 C 2.553 1.336 3.183 1.15 3.183 .275 C 3.183 -.43 2.657 -.913 1.618 -.913 C .779 -.913 .238 -.608 0 0 " fill="#ffffff"/>
<path transform="matrix(1,0,0,-1,155.1728,96.92361)" d="M 0 0 L 0 .059 C 0 .349 .089 .438 .379 .438 L .431 .438 C .72 .438 .809 .349 .809 .059 L .809 0 C .809 -.29 .72 -.379 .431 -.379 L .379 -.379 C .089 -.379 0 -.29 0 0 " fill="#ffffff"/>
</g>
</g>
</g>
</svg>
