<svg version="1.1" id="Ebene_1" xmlns="http://www.w3.org/2000/svg" xmlns:xlink="http://www.w3.org/1999/xlink" x="0px" y="0px"
    width="314.5px" height="203.5px" viewBox="0 0 314.5 203.5" enable-background="new 0 0 310.296 314.5 203.5"
    xml:space="preserve">
<g enable-background="new" transform="scale(1.3051)">
<clipPath id="cp0">
<path transform="matrix(1,0,0,-1,0,155.906)" d="M 0 0 L 240.945 0 L 240.945 155.905 L 0 155.905 Z "/>
</clipPath>
<g clip-path="url(#cp0)">
<path transform="matrix(1,0,0,-1,-1.5242,-430.75318)" d="M 0 0 C 0 -263.235 79.363 -481.513 199.275 -481.513 C 319.186 -481.513 398.55 -263.235 398.55 0 C 398.55 263.234 319.187 482.267 199.275 482.267 C 79.364 482.267 0 263.235 0 0 " fill="#0061c8"/>
<g id="Layer-1" data-name="PlacedGraphic">
</g>
</g>
<clipPath id="cp1">
<path transform="matrix(1,0,0,-1,0,155.906)" d="M 170.788 120.404 L 227.48099 120.404 L 227.48099 144.567 L 170.788 144.567 Z "/>
</clipPath>
<g clip-path="url(#cp1)">
<path transform="matrix(1,0,0,-1,199.156,11.3390049)" d="M 0 0 C -15.484 0 -28.369 -4.668 -28.369 -11.722 C -28.369 -18.776 -15.484 -23.444 0 -23.444 C 3.983 -23.444 7.79 -23.134 11.249 -22.556 C 10.944 -22.044 10.772 -21.475 10.772 -20.875 C 10.772 -18.673 13.071 -16.881 15.897 -16.881 C 18.272 -16.881 20.275 -18.147 20.853 -19.858 C 25.479 -17.833 28.324 -15.042 28.324 -11.722 C 28.324 -4.668 15.484 0 0 0 " fill="#001689"/>
<path transform="matrix(1,0,0,-1,219.4722,32.214204)" d="M 0 0 C 0 -1.816 -1.979 -3.288 -4.419 -3.288 C -6.86 -3.288 -8.838 -1.816 -8.838 0 C -8.838 1.816 -6.86 3.288 -4.419 3.288 C -1.979 3.288 0 1.816 0 0 " fill="#001689"/>
<path transform="matrix(1,0,0,-1,221.9308,20.137803)" d="M 0 0 L 0 -5.109 C 0 -5.258 -.121 -5.379 -.27 -5.379 L -1.122 -5.379 C -1.425 -5.379 -1.706 -5.218 -1.861 -4.958 L -3.966 -1.404 C -3.995 -1.412 -3.992 -1.411 -4.022 -1.42 L -4.022 -5.109 C -4.022 -5.258 -4.143 -5.379 -4.292 -5.379 L -5.098 -5.379 C -5.247 -5.379 -5.368 -5.258 -5.368 -5.109 L -5.368 0 C -5.368 .149 -5.247 .27 -5.098 .27 L -4.236 .27 C -3.936 .27 -3.657 .113 -3.502 -.143 L -1.401 -3.601 C -1.372 -3.593 -1.375 -3.594 -1.346 -3.586 L -1.346 0 C -1.346 .149 -1.225 .27 -1.076 .27 L -.27 .27 C -.121 .27 0 .149 0 0 M -40.997 0 L -40.997 -5.109 C -40.997 -5.258 -41.118 -5.379 -41.267 -5.379 L -42.073 -5.379 C -42.222 -5.379 -42.343 -5.258 -42.343 -5.109 L -42.343 -3.159 L -44.248 -3.159 L -44.248 -5.109 C -44.248 -5.258 -44.369 -5.379 -44.518 -5.379 L -45.324 -5.379 C -45.473 -5.379 -45.594 -5.258 -45.594 -5.109 L -45.594 0 C -45.594 .149 -45.473 .27 -45.324 .27 L -44.518 .27 C -44.369 .27 -44.248 .149 -44.248 0 L -44.248 -2.038 L -42.343 -2.038 L -42.343 0 C -42.343 .149 -42.222 .27 -42.073 .27 L -41.267 .27 C -41.118 .27 -40.997 .149 -40.997 0 M -25.436 0 L -25.436 -.649 C -25.436 -.798 -25.556 -.919 -25.705 -.919 L -26.752 -.919 L -26.752 -5.109 C -26.752 -5.258 -26.873 -5.379 -27.022 -5.379 L -27.827 -5.379 C -27.977 -5.379 -28.098 -5.258 -28.098 -5.109 L -28.098 -.919 L -29.144 -.919 C -29.293 -.919 -29.414 -.798 -29.414 -.649 L -29.414 0 C -29.414 .149 -29.293 .27 -29.144 .27 L -25.705 .27 C -25.556 .27 -25.436 .149 -25.436 0 M -15.448 -3.169 L -14.819 -.989 L -14.79 -.989 L -14.162 -3.169 Z M -13.78 -.136 C -13.856 .106 -14.081 .27 -14.335 .27 L -15.276 .27 C -15.529 .27 -15.753 .106 -15.83 -.136 L -17.415 -5.115 C -17.457 -5.245 -17.359 -5.379 -17.222 -5.379 L -16.569 -5.379 C -16.283 -5.379 -16.031 -5.189 -15.952 -4.915 L -15.772 -4.29 L -13.838 -4.29 L -13.658 -4.915 C -13.579 -5.189 -13.327 -5.379 -13.041 -5.379 L -12.388 -5.379 C -12.251 -5.379 -12.153 -5.245 -12.195 -5.115 Z M -38.337 -3.169 L -37.708 -.989 L -37.679 -.989 L -37.05 -3.169 Z M -36.668 -.136 C -36.745 .106 -36.97 .27 -37.223 .27 L -38.164 .27 C -38.418 .27 -38.642 .106 -38.719 -.136 L -40.304 -5.115 C -40.345 -5.245 -40.248 -5.379 -40.111 -5.379 L -39.457 -5.379 C -39.171 -5.379 -38.92 -5.189 -38.841 -4.915 L -38.66 -4.29 L -36.727 -4.29 L -36.547 -4.915 C -36.467 -5.189 -36.216 -5.379 -35.93 -5.379 L -35.276 -5.379 C -35.139 -5.379 -35.042 -5.245 -35.084 -5.115 Z M -6.192 0 L -6.192 -5.109 C -6.192 -5.258 -6.313 -5.379 -6.462 -5.379 L -7.314 -5.379 C -7.617 -5.379 -7.898 -5.218 -8.053 -4.958 L -10.158 -1.404 C -10.187 -1.412 -10.184 -1.411 -10.214 -1.42 L -10.214 -5.109 C -10.214 -5.258 -10.335 -5.379 -10.484 -5.379 L -11.29 -5.379 C -11.439 -5.379 -11.56 -5.258 -11.56 -5.109 L -11.56 0 C -11.56 .149 -11.439 .27 -11.29 .27 L -10.428 .27 C -10.128 .27 -9.849 .113 -9.694 -.143 L -7.593 -3.601 C -7.564 -3.593 -7.567 -3.594 -7.538 -3.586 L -7.538 0 C -7.538 .149 -7.417 .27 -7.268 .27 L -6.462 .27 C -6.313 .27 -6.192 .149 -6.192 0 M -18.032 0 L -18.032 -5.109 C -18.032 -5.258 -18.153 -5.379 -18.302 -5.379 L -19.108 -5.379 C -19.257 -5.379 -19.378 -5.258 -19.378 -5.109 L -19.378 -1.381 C -19.426 -1.371 -19.417 -1.373 -19.465 -1.363 L -20.617 -4.068 C -20.706 -4.276 -20.91 -4.411 -21.136 -4.411 L -21.58 -4.411 C -21.806 -4.411 -22.01 -4.276 -22.099 -4.068 L -23.252 -1.362 C -23.3 -1.372 -23.29 -1.37 -23.338 -1.38 L -23.338 -5.109 C -23.338 -5.258 -23.459 -5.379 -23.608 -5.379 L -24.414 -5.379 C -24.563 -5.379 -24.684 -5.258 -24.684 -5.109 L -24.684 0 C -24.684 .149 -24.563 .27 -24.414 .27 L -23.314 .27 C -23.028 .27 -22.769 .097 -22.659 -.167 L -21.374 -3.348 C -21.359 -3.348 -21.358 -3.348 -21.342 -3.348 L -20.082 -.171 C -19.973 .096 -19.713 .27 -19.425 .27 L -18.302 .27 C -18.153 .27 -18.032 .149 -18.032 0 M -33.045 -.861 L -31.852 -.861 C -31.527 -.861 -31.264 -1.124 -31.264 -1.449 C -31.264 -1.774 -31.527 -2.038 -31.852 -2.038 L -33.045 -2.038 Z M -31.124 -3.082 C -30.437 -2.857 -29.941 -2.212 -29.941 -1.449 C -29.941 -.5 -30.71 .27 -31.66 .27 L -34.118 .27 C -34.269 .27 -34.391 .148 -34.391 -.002 L -34.391 -5.106 C -34.391 -5.257 -34.269 -5.379 -34.118 -5.379 L -33.317 -5.379 C -33.167 -5.379 -33.045 -5.257 -33.045 -5.106 L -33.045 -3.169 L -32.442 -3.169 L -31.292 -5.01 C -31.149 -5.239 -30.898 -5.379 -30.628 -5.379 L -29.773 -5.379 C -29.66 -5.379 -29.595 -5.252 -29.659 -5.16 Z " fill="#ffffff"/>
<path transform="matrix(1,0,0,-1,217.2126,31.495209)" d="M 0 0 L -1.44 0 L -1.44 1.295 C -1.44 1.423 -1.544 1.527 -1.673 1.527 L -2.646 1.527 C -2.774 1.527 -2.878 1.423 -2.878 1.295 L -2.878 0 L -4.319 0 C -4.447 0 -4.551 -.104 -4.551 -.232 L -4.551 -1.206 C -4.551 -1.334 -4.447 -1.438 -4.319 -1.438 L -2.878 -1.438 L -2.878 -2.733 C -2.878 -2.861 -2.774 -2.965 -2.646 -2.965 L -1.673 -2.965 C -1.544 -2.965 -1.44 -2.861 -1.44 -2.733 L -1.44 -1.438 L 0 -1.438 C .128 -1.438 .232 -1.334 .232 -1.206 L .232 -.232 C .232 -.104 .128 0 0 0 " fill="#ffffff" fill-rule="evenodd"/>
</g>


</g>
</svg>
