<svg version="1.1" id="Ebene_1" xmlns="http://www.w3.org/2000/svg" xmlns:xlink="http://www.w3.org/1999/xlink" x="0px" y="0px"
	 width="310.296px" height="178.331px" viewBox="0 0 310.296 178.331" enable-background="new 0 0 310.296 178.331"
	 xml:space="preserve">
<g transform="translate(-14.0)">
	<g>
		<path d="M197.864,48.818h1.536l3.661,8.814l3.675-8.814h1.421v10.021h-0.99v-9.03h-0.029l-3.646,9.03h-0.848l-3.76-9.03h-0.029
			v9.03h-0.99V48.818z"/>
		<path d="M217.824,55.336c0,2.958-2.168,3.675-3.632,3.675c-1.463,0-3.632-0.718-3.632-3.675v-6.518h0.991v6.518
			c0,1.638,0.903,2.813,2.641,2.813s2.642-1.175,2.642-2.813v-6.518h0.99V55.336z"/>
		<path d="M219.94,57.562c0.588,0.373,1.278,0.587,2.209,0.587c1.236,0,2.255-0.631,2.255-2.052c0-1.965-4.594-2.211-4.594-4.837
			c0-1.607,1.408-2.612,3.173-2.612c0.487,0,1.277,0.071,1.967,0.331l-0.158,0.903c-0.445-0.244-1.149-0.373-1.823-0.373
			c-1.032,0-2.168,0.431-2.168,1.723c0,2.01,4.594,2.024,4.594,4.953c0,2.023-1.737,2.828-3.286,2.828
			c-0.978,0-1.737-0.201-2.269-0.432L219.94,57.562z"/>
		<path d="M229.259,49.681h-2.956v-0.863h6.904v0.863h-2.958v9.158h-0.99V49.681z"/>
		<path d="M234.575,48.818h4.909v0.863h-3.918v3.574h3.718v0.86h-3.718v3.861h4.09v0.862h-5.081V48.818z"/>
		<path d="M241.786,48.818h2.583c1.78,0,2.942,0.762,2.942,2.601c0,1.291-0.99,2.152-2.225,2.311v0.027
			c0.805,0.101,0.977,0.533,1.292,1.207l1.708,3.876h-1.09l-1.451-3.388c-0.573-1.292-1.005-1.336-1.951-1.336h-0.819v4.724h-0.989
			V48.818z M242.775,53.255h1.049c1.161,0,2.497-0.445,2.497-1.837c0-1.638-1.162-1.737-2.526-1.737h-1.02V53.255z"/>
		<path d="M249.67,48.818h2.741c3.072,0,5.784,1.034,5.784,5.012c0,3.975-2.712,5.009-5.784,5.009h-2.741V48.818z M251.679,57.26
			h1.12c1.68,0,3.303-1.25,3.303-3.43c0-2.184-1.623-3.433-3.303-3.433h-1.12V57.26z"/>
		<path d="M260.04,48.818h5.913v1.58h-3.903v2.469h3.573v1.58h-3.573v2.813h3.933v1.58h-5.942V48.818z"/>
		<path d="M273.408,50.656c-0.631-0.272-1.334-0.431-2.037-0.431c-0.689,0-1.58,0.301-1.58,1.392c0,1.737,4.393,1.005,4.393,4.365
			c0,2.196-1.735,3.028-3.76,3.028c-1.092,0-1.58-0.143-2.57-0.387l0.186-1.808c0.689,0.372,1.479,0.617,2.269,0.617
			c0.762,0,1.781-0.388,1.781-1.293c0-1.909-4.394-1.118-4.394-4.435c0-2.239,1.737-3.057,3.504-3.057
			c0.859,0,1.665,0.114,2.396,0.359L273.408,50.656z"/>
		<path d="M275.839,48.818h2.009v10.021h-2.009V48.818z"/>
		<path d="M287.827,50.757c-0.775-0.36-1.78-0.532-2.584-0.532c-2.34,0-3.632,1.579-3.632,3.632c0,2.039,1.264,3.575,3.401,3.575
			c0.546,0,0.977-0.058,1.321-0.144v-2.614h-2.125v-1.577h4.049v5.396c-1.063,0.287-2.167,0.517-3.245,0.517
			c-3.243,0-5.497-1.623-5.497-5.011c0-3.43,2.096-5.353,5.497-5.353c1.163,0,2.083,0.157,2.943,0.417L287.827,50.757z"/>
		<path d="M290.273,48.818h2.468l3.819,7.494h0.028v-7.494h1.924v10.021h-2.455l-3.832-7.495h-0.029v7.495h-1.923V48.818z"/>
		<path d="M275.839,44.324h2.009v2.009h-2.009V44.324z"/>
	</g>
	<g>
		<path d="M252.165,22.628l-1.685,0.702l4.304,10.326l1.685-0.704c2.528-1.053,4.186-3.949,2.816-7.232
			C257.918,22.436,254.692,21.575,252.165,22.628z"/>
		<path d="M234.739,27.104l11.035,10.967l0.001-15.569l0.69-0.287l1.448-0.604l2.678-1.117c2.815-1.174,5.67-1.677,8.036-0.546
			l-2.24-3.881h-16.398l-6.727,11.649L234.739,27.104z"/>
		<path d="M263.26,27.974c0.087,3.78-2.78,6.097-6.384,7.6l-2.677,1.116l-1.448,0.604l-0.042,0.019l-5.666-13.589l-0.042,0.019
			l0.179,15.874l-1.275,0.531L234.581,28.92l-0.043,0.017l5.664,13.587l-1.076,0.448l0.863,1.498h16.398l8.198-14.201L263.26,27.974
			z"/>
		<polygon points="232.693,28.707 231.791,30.269 237.378,39.949 		"/>
	</g>
</g>
</svg>
