<svg version="1.1" id="Ebene_1" xmlns="http://www.w3.org/2000/svg" xmlns:xlink="http://www.w3.org/1999/xlink" x="0px" y="0px"
	 width="310.296px" height="178.331px" viewBox="0 0 310.296 178.331" enable-background="new 0 0 310.296 178.331"
	 xml:space="preserve">
<g transform="translate(-5.0, -6)">
	<g>
		<path d="M65.438,109.27h2.739l6.525,15.715l6.55-15.715h2.534v17.865h-1.766v-16.098h-0.052l-6.5,16.098h-1.51l-6.703-16.098
			h-0.052v16.098h-1.767V109.27z"/>
		<path d="M101.021,120.889c0,5.273-3.864,6.553-6.475,6.553c-2.609,0-6.474-1.279-6.474-6.553V109.27h1.765v11.619
			c0,2.918,1.613,5.016,4.709,5.016c3.098,0,4.708-2.098,4.708-5.016V109.27h1.767V120.889z"/>
		<path d="M104.792,124.856c1.05,0.666,2.277,1.049,3.94,1.049c2.201,0,4.019-1.125,4.019-3.658c0-3.506-8.188-3.941-8.188-8.623
			c0-2.865,2.507-4.658,5.654-4.658c0.869,0,2.278,0.127,3.506,0.59l-0.282,1.611c-0.793-0.436-2.047-0.666-3.25-0.666
			c-1.842,0-3.864,0.768-3.864,3.07c0,3.584,8.189,3.607,8.189,8.83c0,3.605-3.098,5.041-5.859,5.041
			c-1.741,0-3.097-0.359-4.044-0.768L104.792,124.856z"/>
		<path d="M121.407,110.807h-5.271v-1.537h12.308v1.537h-5.272v16.328h-1.765V110.807z"/>
		<path d="M130.881,109.27h8.752v1.537h-6.985v6.371h6.628v1.537h-6.628v6.883h7.292v1.537h-9.059V109.27z"/>
		<path d="M143.736,109.27h4.604c3.176,0,5.247,1.359,5.247,4.635c0,2.303-1.766,3.84-3.968,4.119v0.053
			c1.435,0.178,1.741,0.947,2.305,2.148l3.045,6.91h-1.944l-2.586-6.039c-1.023-2.303-1.791-2.381-3.479-2.381H145.5v8.42h-1.765
			V109.27z M145.5,117.178h1.869c2.072,0,4.452-0.791,4.452-3.273c0-2.918-2.072-3.098-4.504-3.098H145.5V117.178z"/>
		<path d="M157.792,109.27h4.887c5.477,0,10.313,1.844,10.313,8.936c0,7.088-4.836,8.93-10.313,8.93h-4.887V109.27z
			 M161.375,124.319h1.996c2.992,0,5.886-2.227,5.886-6.113c0-3.893-2.894-6.117-5.886-6.117h-1.996V124.319z"/>
		<path d="M176.277,109.27h10.542v2.818h-6.959v4.4h6.37v2.814h-6.37v5.016h7.01v2.816h-10.593V109.27z"/>
		<path d="M200.109,112.547c-1.126-0.484-2.381-0.768-3.633-0.768c-1.229,0-2.815,0.537-2.815,2.482c0,3.096,7.83,1.791,7.83,7.781
			c0,3.914-3.096,5.398-6.703,5.398c-1.946,0-2.815-0.256-4.582-0.689l0.332-3.225c1.229,0.662,2.636,1.1,4.043,1.1
			c1.356,0,3.175-0.691,3.175-2.305c0-3.404-7.832-1.994-7.832-7.908c0-3.99,3.098-5.449,6.244-5.449
			c1.535,0,2.97,0.205,4.274,0.641L200.109,112.547z"/>
		<path d="M204.442,109.27h3.58v17.865h-3.58V109.27z"/>
		<path d="M225.812,112.727c-1.381-0.639-3.174-0.947-4.606-0.947c-4.171,0-6.474,2.814-6.474,6.475
			c0,3.635,2.251,6.373,6.065,6.373c0.972,0,1.739-0.102,2.354-0.258v-4.658h-3.789v-2.813h7.217v9.621
			c-1.895,0.514-3.863,0.922-5.782,0.922c-5.784,0-9.801-2.893-9.801-8.932c0-6.115,3.735-9.545,9.801-9.545
			c2.071,0,3.71,0.281,5.244,0.744L225.812,112.727z"/>
		<path d="M230.172,109.27h4.398l6.811,13.361h0.052V109.27h3.426v17.865h-4.375l-6.833-13.359h-0.052v13.359h-3.427V109.27z"/>
		<path d="M204.442,101.26h3.58v3.58h-3.58V101.26z"/>
	</g>
	<g>
		<path d="M162.24,62.583l-3.004,1.254l7.671,18.406l3.004-1.254c4.507-1.879,7.461-7.043,5.021-12.895
			C172.494,62.241,166.744,60.706,162.24,62.583z"/>
		<path d="M131.173,70.559l19.674,19.555l0.002-27.756l1.23-0.512l2.582-1.078l4.772-1.986c5.019-2.094,10.107-2.99,14.325-0.975
			l-3.994-6.918h-29.23l-11.993,20.768L131.173,70.559z"/>
		<path d="M182.018,72.112c0.154,6.738-4.957,10.869-11.379,13.547l-4.771,1.988l-2.583,1.078l-0.076,0.031l-10.098-24.223
			l-0.074,0.033l0.316,28.299l-2.274,0.947l-20.186-20.016l-0.076,0.031l10.096,24.223l-1.919,0.799l1.541,2.67h29.23l14.616-25.318
			L182.018,72.112z"/>
		<polygon points="127.527,73.418 125.918,76.202 135.879,93.458 		"/>
	</g>
</g>
</svg>
