<svg xmlns="http://www.w3.org/2000/svg" xmlns:xlink="http://www.w3.org/1999/xlink" width="303.307pt" height="193.89pt" viewBox="0 0 303.307 193.89" version="1.1">
<g transform="scale(1.25822552864762)">
<defs>
<clipPath id="clip_0">
<path transform="matrix(1,0,0,-1,-29.5087,185.404)" d="M21 21H278.953V193.913H21Z"/>
</clipPath>
<clipPath id="clip_1">
<path transform="matrix(1,0,0,-1,-29.5087,185.404)" d="M21 21H278.954V40.843004H21Z"/>
</clipPath>
<clipPath id="clip_2">
<path transform="matrix(1,0,0,-1,-29.5087,185.404)" d="M0 0H299.953V214.913H0Z"/>
</clipPath>
</defs>
<path transform="matrix(1,0,0,-1,-29.5087,185.404)" d="M29.504 29.504H270.449V185.41H29.504Z" fill="#ffffff"/>
<path transform="matrix(1,0,0,-1,210.9496,29.899903)" d="M0 0V-8.433H15.874V5.777Z" fill="#0e4f9f"/>
<g clip-path="url(#clip_0)">
<path transform="matrix(1,0,0,-1,218.8866,22.955109)" d="M0 0C6.575 0 11.906 5.33 11.906 11.905L0 7.572Z" fill="#0aafea"/>
</g>
<path transform="matrix(1,0,0,-1,-8.508999,144.56111)" d="M0 0V-19.843H26.556V-11.327 0Z" fill="#0aafea"/>
<path transform="matrix(1,0,0,-1,49.1707,144.56111)" d="M0 0-31.123-11.327V-19.843H88.071V-11.327 0Z" fill="#0e4f9f"/>
<path transform="matrix(1,0,0,-1,168.3651,144.56111)" d="M0 0-31.124-11.327V-19.843H81.079V0Z" fill="#0f2c5b"/>
<g clip-path="url(#clip_1)">
<path transform="matrix(1,0,0,-1,-101.1476,112.50751)" d="M0 0V-43.381L119.195 0Z" fill="#0f2c5b"/>
</g>
<path transform="matrix(1,0,0,-1,18.0473,144.56111)" d="M0 0V-11.327L31.123 0Z" fill="#0089d1"/>
<path transform="matrix(1,0,0,-1,137.2415,144.56111)" d="M0 0V-11.327L31.124 0Z" fill="#0aafea"/>
<path transform="matrix(1,0,0,-1,-6.004799,-.005493164)" stroke-width="1.25" stroke-linecap="butt" stroke-miterlimit="10" stroke-linejoin="miter" fill="none" stroke="#ffffff" d="M0 0H-15M252.945 0H267.945M0-155.906H-15M252.945-155.906H267.945M6 6V21M6-161.906V-176.906M246.945 6V21M246.945-161.906V-176.906"/>
<path transform="matrix(1,0,0,-1,-6.004799,-.005493164)" stroke-width=".25" stroke-linecap="butt" stroke-miterlimit="10" stroke-linejoin="miter" fill="none" stroke="#000000" d="M0 0H-15M252.945 0H267.945M0-155.906H-15M252.945-155.906H267.945M6 6V21M6-161.906V-176.906M246.945 6V21M246.945-161.906V-176.906"/>
<g clip-path="url(#clip_2)">
<path transform="matrix(1,0,0,-1,-11.508699,-8.509399)" stroke-width="1.25" stroke-linecap="butt" stroke-miterlimit="10" stroke-linejoin="miter" fill="none" stroke="#ffffff" d="M0 0H-18M263.953 0H281.953M0-172.913H-18M263.953-172.913H281.953M3 3V21M3-175.913V-193.913M260.953 3V21M260.953-175.913V-193.913"/>
<path transform="matrix(1,0,0,-1,-11.508699,-8.509399)" stroke-width=".25" stroke-linecap="butt" stroke-miterlimit="10" stroke-linejoin="miter" fill="none" stroke="#000000" d="M0 0H-18M263.953 0H281.953M0-172.913H-18M263.953-172.913H281.953M3 3V21M3-175.913V-193.913M260.953 3V21M260.953-175.913V-193.913"/>
</g>
</g>
</svg>
