<svg xmlns="http://www.w3.org/2000/svg" width="303.307pt" height="193.89pt" viewBox="0 0 303.307 193.89"><g transform="scale(1.25822552864762)"><defs><clipPath id="a"><path transform="matrix(1 0 0 -1 0 155.906)" d="M0 0h240.945v155.905H0z"/></clipPath><clipPath id="b"><path transform="matrix(1 0 0 -1 0 155.906)" d="M0 0h240.945v155.905H0z"/></clipPath><clipPath id="c"><path transform="matrix(1 0 0 -1 0 155.906)" d="M0 0h240.945v155.905H0z"/></clipPath><clipPath id="d"><path transform="matrix(1 0 0 -1 0 155.906)" d="M0 0h240.945v155.905H0z"/></clipPath><clipPath id="e"><path transform="matrix(1 0 0 -1 0 155.906)" d="M0 155.906h240.945V0H0z"/></clipPath><clipPath id="f"><path transform="matrix(1 0 0 -1 0 155.906)" d="M0 0h240.945v155.905H0z"/></clipPath></defs><g data-name="Ebene 1"><path d="M67.714 0 0 23.72V87.9h93.675V0z" fill="#0f2c5b"/><path d="M180.284 0 93.674 30.34v57.56h112.57V.002z" fill="#0f2c5b"/><path d="M206.245 30.339v57.56h34.7V18.185z" fill="#005aaa"/><path d="M0 0v23.72L67.714 0z" fill="#0e4f9f"/><path d="M93.675 0V30.34L180.284 0z" fill="#0089d1"/><path d="M206.245 0V30.34l34.7-12.155V0z" fill="#0aafea"/><path d="M0 120.713v35.193h93.675V87.9z" fill="#0e4f9f"/><path d="M93.675 127.331v28.575h112.569V87.9z" fill="#0f2c5b"/><path d="M206.245 127.331v28.575h34.7v-40.73z" fill="#0089d1"/><path d="M0 87.9v32.812L93.675 87.9z" fill="#0e4f9f"/><path d="m93.674 127.33 112.57-39.43H93.674z" fill="#0aafea"/><path d="M206.245 87.9v39.432l34.7-12.156V87.9z" fill="#0f2c5b"/><path d="M51.872 60.175H54.8V48.068h-2.928zM51.872 46.151H54.8v-2.874h-2.928z" fill="#fff"/><g clip-path="url(#a)" fill="#fff"><path d="M65.995 48.228c-.593-.314-1.308-.47-2.146-.47-.595 0-1.144.091-1.646.274-.504.183-.949.45-1.337.801a4.275 4.275 0 0 0-.735.882l-.055-1.648h-2.723v12.108h2.926v-6.907c.005-.697.13-1.273.374-1.727.247-.454.569-.783.968-.987.4-.205.84-.307 1.324-.307.431 0 .794.081 1.087.242.291.162.51.402.654.72.143.317.215.711.215 1.182v7.784h2.928v-8.403c0-.853-.157-1.579-.473-2.177a3.201 3.201 0 0 0-1.361-1.367M105.664 48.228c-.592-.314-1.307-.47-2.145-.47-.596 0-1.145.091-1.647.274-.503.183-.948.45-1.336.801-.28.253-.524.548-.736.882l-.056-1.648h-2.722v12.108h2.927v-6.907c.004-.697.129-1.273.374-1.727.246-.454.568-.783.967-.987a2.856 2.856 0 0 1 1.324-.307c.432 0 .794.081 1.087.242.292.162.51.402.654.72.144.317.216.711.216 1.182v7.784h2.928v-8.403c0-.853-.158-1.579-.474-2.177a3.201 3.201 0 0 0-1.361-1.367"/></g><path d="M110.052 46.151h2.927v-2.874h-2.927zM110.052 60.175h2.927V48.068h-2.927z" fill="#fff"/><g clip-path="url(#b)" fill="#fff"><path d="M92.321 48.529c-.835-.518-1.845-.777-3.03-.777-1.176 0-2.193.254-3.05.762-.857.509-1.514 1.239-1.972 2.192-.458.952-.687 2.083-.687 3.392 0 1.324.228 2.465.684 3.42.456.957 1.115 1.693 1.978 2.207.863.514 1.891.77 3.082.77.896 0 1.701-.144 2.414-.434a4.658 4.658 0 0 0 1.805-1.292c.491-.57.973-1.428 1.202-2.436h-2.81c-.06.317-.312.838-.594 1.16a2.196 2.196 0 0 1-.842.599c-.327.13-.699.195-1.116.195-.627 0-1.158-.137-1.593-.412-.434-.274-.765-.7-.993-1.276-.189-.48-.298-1.07-.33-1.765h8.403v-.748c0-1.286-.216-2.403-.649-3.354-.432-.95-1.066-1.685-1.902-2.203m-4.543 1.844c.421-.275.925-.412 1.513-.412.59 0 1.087.139 1.496.417.41.279.722.7.938 1.263.146.38.243.83.292 1.347h-5.52c.052-.521.154-.974.308-1.356.228-.565.552-.985.973-1.26M78.692 48.068l-.051 1.548a3.945 3.945 0 0 0-1.693-1.44 4.758 4.758 0 0 0-1.972-.4c-.974 0-1.837.239-2.59.719-.751.479-1.34 1.18-1.764 2.103-.424.923-.637 2.032-.637 3.325 0 1.305.205 2.435.614 3.389.409.955.99 1.688 1.747 2.2.756.513 1.65.769 2.682.769.729 0 1.389-.143 1.98-.427a3.95 3.95 0 0 0 1.477-1.212l.06-.087v1.45c0 .679-.09 1.235-.271 1.669a1.892 1.892 0 0 1-.903.979c-.42.218-.991.327-1.712.327-.463 0-.86-.051-1.19-.155a1.81 1.81 0 0 1-.817-.511c-.216-.238-.373-.557-.47-.958l-2.622.954c.146.479.358.894.638 1.243.434.54 1.015.942 1.74 1.2.728.26 1.597.389 2.61.389 1.259 0 2.324-.198 3.197-.596a4.252 4.252 0 0 0 1.998-1.823c.46-.818.69-1.844.69-3.08V48.069zm-.473 8.026c-.246.602-.587 1.056-1.023 1.36a2.56 2.56 0 0 1-1.508.46c-.572 0-1.061-.151-1.466-.453-.405-.302-.718-.752-.938-1.35-.22-.598-.33-1.335-.33-2.211 0-.865.112-1.581.336-2.148.224-.567.539-.986.946-1.26.408-.272.9-.408 1.482-.408.565 0 1.062.142 1.493.427.43.284.767.712 1.01 1.285.244.573.366 1.28.366 2.12 0 .85-.123 1.576-.368 2.178M122.863 57.163a2.05 2.05 0 0 1-.795.83c-.329.185-.727.277-1.195.277-.604 0-1.113-.152-1.525-.455-.413-.304-.725-.763-.935-1.377-.21-.613-.315-1.385-.315-2.316 0-.931.101-1.703.304-2.314.202-.612.512-1.068.93-1.368.415-.3.936-.45 1.558-.45.452 0 .842.083 1.168.249.328.165.594.417.795.756.152.253.268.559.35.92l2.618-.953a4.813 4.813 0 0 0-.568-1.173 4.355 4.355 0 0 0-1.797-1.531c-.744-.35-1.608-.523-2.589-.523-1.18 0-2.2.249-3.062.748-.86.498-1.522 1.23-1.984 2.194-.46.964-.692 2.13-.692 3.497s.23 2.525.687 3.474c.457.949 1.11 1.662 1.96 2.139.85.477 1.855.715 3.016.715 1.02 0 1.905-.182 2.655-.546a4.338 4.338 0 0 0 1.797-1.601c.366-.575.62-1.25.765-2.022h-2.839c-.078.32-.18.597-.307.83M135.773 53.68c-.586-.294-1.326-.537-2.218-.727l-1.35-.287a6.918 6.918 0 0 1-1.119-.35 1.59 1.59 0 0 1-.654-.488c-.15-.201-.225-.453-.225-.757 0-.292.077-.54.231-.74.154-.2.378-.352.672-.455.294-.103.655-.155 1.084-.155.471 0 .867.064 1.19.193.32.129.577.324.761.59.18.257.355.626.423 1.41l2.614-.951c-.153-.715-.408-1.202-.708-1.595-.416-.546-.979-.948-1.68-1.213-.7-.265-1.533-.397-2.495-.397-1.02 0-1.885.14-2.592.42-.705.28-1.242.69-1.606 1.228-.365.537-.547 1.184-.547 1.94 0 .662.141 1.228.424 1.697.282.47.7.854 1.253 1.154.553.3 1.245.53 2.075.69l1.396.292c.534.125.957.26 1.268.406.312.146.538.323.678.532.14.208.21.47.21.786 0 .319-.084.598-.25.835-.168.238-.426.422-.774.552-.35.13-.78.196-1.296.196-.52 0-.956-.071-1.303-.213a1.74 1.74 0 0 1-.815-.663c-.196-.3-.334-.71-.384-1.277h-2.749c.068 1.013.355 1.828.764 2.416.41.588.977 1.029 1.703 1.32.727.293 1.618.439 2.673.439 1.064 0 1.982-.148 2.756-.444.773-.296 1.37-.734 1.788-1.315.42-.58.628-1.285.628-2.115 0-.71-.158-1.305-.474-1.788-.315-.483-.766-.872-1.352-1.166"/></g><path d="M24.213 50.147v10.028H43.09V43.277z" fill="#fff"/><g clip-path="url(#c)"><path d="M33.651 41.889c7.818 0 14.157-6.338 14.157-14.157l-14.157 5.153z" fill="#0aafea"/><path d="M61.976 69.2c-.391-.238-.845-.358-1.363-.358-.521 0-.975.12-1.364.359a2.363 2.363 0 0 0-.902 1.04c-.213.454-.32 1.002-.32 1.644 0 .642.107 1.193.32 1.65.213.46.514.808.902 1.047.389.238.843.357 1.364.357.518 0 .972-.118 1.363-.354.39-.237.692-.584.905-1.043.214-.458.32-1.01.32-1.655 0-.643-.106-1.192-.32-1.646a2.35 2.35 0 0 0-.905-1.04m.009 3.896c-.128.327-.31.569-.545.728-.235.159-.51.239-.825.239-.316 0-.593-.081-.828-.243-.236-.162-.417-.405-.544-.73-.127-.325-.19-.727-.19-1.206 0-.477.063-.877.19-1.2.127-.323.308-.565.543-.727a1.43 1.43 0 0 1 .829-.242c.315 0 .59.08.825.242.235.162.417.405.545.728.128.324.192.724.192 1.2 0 .482-.064.885-.192 1.21M68.4 72.368c0 .21.003.436.01.675.002.116.006.239.01.367l-.187-.377a17.55 17.55 0 0 0-.343-.665l-1.92-3.41h-1.09v5.854h.96l-.003-3.07c-.002-.202-.004-.414-.008-.636-.005-.222-.01-.455-.017-.698V70.4l.018.036c.11.22.225.44.345.663l.354.65 1.725 3.062h1.1v-5.854h-.956zM80.712 72.816c0 .277-.045.507-.135.69a.898.898 0 0 1-.403.415 1.44 1.44 0 0 1-.665.139c-.26 0-.48-.047-.66-.14a.895.895 0 0 1-.403-.413 1.567 1.567 0 0 1-.135-.691v-3.858h-.995v3.844c0 .466.086.857.257 1.174.17.318.42.557.748.718.328.16.724.24 1.188.24.468 0 .865-.08 1.192-.24.327-.16.576-.4.749-.717.173-.317.259-.71.259-1.175v-3.844h-.997z" fill="#fff"/></g><path d="M84.702 68.957h-.995v5.854h3.54v-.886h-2.545zM87.32 69.843h1.696v4.968h1.005v-4.968h1.698v-.886h-4.4zM93.264 74.812h.995v-5.855h-.995z" fill="#fff"/><g clip-path="url(#d)" fill="#fff"><path d="M99.84 72.368c0 .21.003.436.009.675l.01.367-.186-.377a17.55 17.55 0 0 0-.343-.665l-1.92-3.41h-1.091v5.854h.96l-.002-3.07a78.097 78.097 0 0 0-.025-1.334V70.4c.006.012.01.024.017.036.11.22.226.44.346.663l.354.65 1.725 3.062h1.1v-5.854h-.956zM55.333 73.455c-.128.21-.29.364-.484.461a1.43 1.43 0 0 1-.652.147 1.39 1.39 0 0 1-.815-.238c-.228-.159-.404-.4-.528-.726-.124-.324-.186-.729-.186-1.214 0-.484.062-.887.185-1.21.123-.323.3-.563.526-.722.228-.158.5-.237.814-.237.224 0 .426.041.608.122.181.082.336.213.464.394.128.181.221.414.28.701l.931-.339c-.08-.317-.2-.592-.362-.825a2.019 2.019 0 0 0-.819-.697 2.587 2.587 0 0 0-1.104-.23c-.51 0-.958.117-1.342.351-.384.233-.68.58-.89 1.036-.21.457-.315 1.01-.315 1.656 0 .648.105 1.201.316 1.658.21.458.506.805.887 1.042.381.236.825.354 1.334.354.425 0 .808-.085 1.15-.256.342-.17.622-.427.84-.769.218-.34.351-.762.401-1.26h-.989c-.039.324-.122.591-.25.801M74.862 71.863a3.35 3.35 0 0 0-.923-.381l-.672-.185a2.646 2.646 0 0 1-.58-.232.756.756 0 0 1-.295-.282.79.79 0 0 1-.087-.383c0-.158.037-.293.112-.404a.705.705 0 0 1 .336-.256c.149-.06.333-.09.55-.09.259 0 .47.037.635.11a.769.769 0 0 1 .37.329c.082.145.13.328.145.55l.924-.336a1.894 1.894 0 0 0-.225-.637 1.522 1.522 0 0 0-.7-.612c-.307-.141-.693-.212-1.154-.212-.433 0-.798.068-1.095.203-.297.135-.52.323-.67.565a1.586 1.586 0 0 0-.223.848c0 .315.063.582.189.8.126.219.3.397.523.533.223.136.49.248.8.334l.667.179c.263.079.472.162.626.247a.888.888 0 0 1 .338.3.786.786 0 0 1 .107.42.806.806 0 0 1-.127.462.764.764 0 0 1-.378.285 1.752 1.752 0 0 1-.628.097c-.26 0-.483-.037-.67-.112a.9.9 0 0 1-.438-.372c-.107-.173-.166-.406-.176-.698h-.99c.02.456.12.832.303 1.128.182.297.438.516.768.659.329.143.729.215 1.199.215.462 0 .854-.071 1.176-.212.322-.141.563-.342.724-.602.16-.26.242-.566.242-.917 0-.301-.058-.562-.174-.783a1.48 1.48 0 0 0-.53-.558M105.166 72.474h1.405c-.022.325-.088.605-.206.834a1.35 1.35 0 0 1-.521.57c-.218.126-.47.19-.756.19a1.46 1.46 0 0 1-.85-.245c-.236-.162-.417-.405-.541-.729-.124-.324-.186-.726-.186-1.206 0-.484.063-.887.187-1.21.125-.324.306-.566.542-.726.236-.16.517-.24.842-.24.23 0 .44.041.627.125.186.083.342.212.469.385.127.173.214.394.26.663l.928-.338a2.298 2.298 0 0 0-.342-.785 2.013 2.013 0 0 0-.813-.687 2.672 2.672 0 0 0-1.142-.233c-.533 0-.993.118-1.381.354a2.283 2.283 0 0 0-.892 1.037c-.207.455-.31 1.004-.31 1.647 0 .644.103 1.196.31 1.656.207.46.497.808.87 1.046.374.238.808.357 1.303.357.374 0 .703-.076.987-.227.285-.15.518-.372.699-.665l.01-.02.106.784h.728v-3.143h-2.333z"/></g><g clip-path="url(#e)" stroke-miterlimit="10" fill="none"><path stroke-width="1.25" stroke="#fff" d="M-6 0h-15m267.945 0h15M-6 155.906h-15m267.945 0h15M0-6v-15m0 182.906v15M240.945-6v-15m0 182.906v15"/><path stroke-width=".25" stroke="#000" d="M-6 0h-15m267.945 0h15M-6 155.906h-15m267.945 0h15M0-6v-15m0 182.906v15M240.945-6v-15m0 182.906v15"/></g><g clip-path="url(#f)" stroke-miterlimit="10" fill="none"><path stroke-width="1.25" stroke="#fff" d="M-11.504-8.504h-18m281.953 0h18M-11.504 164.41h-18m281.953 0h18M-8.504-11.504v-18m0 196.914v18M249.449-11.504v-18m0 196.914v18"/><path stroke-width=".25" stroke="#000" d="M-11.504-8.504h-18m281.953 0h18M-11.504 164.41h-18m281.953 0h18M-8.504-11.504v-18m0 196.914v18M249.449-11.504v-18m0 196.914v18"/></g></g></g></svg>