<svg version="1.1" id="Ebene_1" xmlns="http://www.w3.org/2000/svg" xmlns:xlink="http://www.w3.org/1999/xlink"  width="303.307pt" height="193.89pt" viewBox="0 0 303.307 193.89">
<g transform="scale(1.25822552864762)">
<style type="text/css">
    .st0{clip-path:url(#SVGID_2_);}
    .st1{clip-path:url(#SVGID_4_);}
    .st2{clip-path:url(#SVGID_6_);}
    .st3{clip-path:url(#SVGID_8_);}
    .st4{fill:#2D3840;}
    .st5{fill:#46535A;}
    .st6{fill:#616A71;}
    .st7{fill:#7A8287;}
    .st8{fill:#FFFFFF;}
    .st9{fill:none;stroke:#FFFFFF;stroke-width:5.208;stroke-miterlimit:10;}
    .st10{fill:none;stroke:#000000;stroke-width:1.042;stroke-miterlimit:10;}
</style>
<g>
    <g>
        <g>
            <defs>
                <rect id="SVGID_1_" x="0" y="0" width="240.9" height="155.9"/>
            </defs>
            <clipPath id="SVGID_2_">
                <use xlink:href="#SVGID_1_"  style="overflow:visible;"/>
            </clipPath>
            <g class="st0">
                <g>
                    <defs>
                        <rect id="SVGID_3_" x="0" y="0" width="240.9" height="155.9"/>
                    </defs>
                    <clipPath id="SVGID_4_">
                        <use xlink:href="#SVGID_3_"  style="overflow:visible;"/>
                    </clipPath>
                    <g class="st1">
                        <g>
                            <g>
                                <defs>
                                    <rect id="SVGID_5_" x="-29.5" y="-29.5" width="299.9" height="214.9"/>
                                </defs>
                                <clipPath id="SVGID_6_">
                                    <use xlink:href="#SVGID_5_"  style="overflow:visible;"/>
                                </clipPath>
                                <g class="st2">
                                    <g>
                                        <defs>
                                            <rect id="SVGID_7_" x="0" y="0" width="240.9" height="155.9"/>
                                        </defs>
                                        <clipPath id="SVGID_8_">
                                            <use xlink:href="#SVGID_7_"  style="overflow:visible;"/>
                                        </clipPath>
                                        <g class="st3">
                                            <path class="st4" d="M-8.5,164.4h258V-8.5h-258V164.4z"/>
                                            <path class="st4" d="M92-8.5L-8.5,26.7v61.2H93.7V30.3V-8.5"/>
                                            <path class="st4" d="M204.6-8.5L93.7,30.3v57.6h112.6V30.3V-8.5"/>
                                            <path class="st5" d="M206.2,30.3v57.6h43.2V15.2L206.2,30.3z"/>
                                            <path class="st5" d="M-8.5-8.5v35.2L92-8.5"/>
                                            <path class="st6" d="M93.7-8.5v38.8L204.6-8.5"/>
                                            <path class="st7" d="M206.2-8.5v38.8l43.2-15.1V-8.5H206.2z"/>
                                            <path class="st5" d="M-8.5,123.7v40.7H93.7V87.9L-8.5,123.7z"/>
                                            <path class="st4" d="M93.7,127.3v37.1h112.6V87.9L93.7,127.3z"/>
                                            <path class="st6" d="M206.2,127.3v37.1h43.2v-52.2L206.2,127.3z"/>
                                            <path class="st5" d="M-8.5,87.9v35.8L93.7,87.9"/>
                                            <path class="st7" d="M93.7,127.3l112.6-39.4H93.7"/>
                                            <path class="st4" d="M206.2,87.9v39.4l43.2-15.1V87.9H206.2z"/>
                                            <path class="st8" d="M45,74.2h2.2v-9.1H45V74.2z"/>
                                            <path class="st8" d="M45,63.7h2.2v-2.2H45V63.7z"/>
                                            <path class="st8" d="M55.6,65.2c-0.4-0.2-1-0.4-1.6-0.4c-0.4,0-0.9,0.1-1.2,0.2c-0.4,0.1-0.7,0.3-1,0.6
                                                c-0.2,0.2-0.4,0.4-0.6,0.7l0-1.2h-2v9.1h2.2V69c0-0.5,0.1-1,0.3-1.3c0.2-0.3,0.4-0.6,0.7-0.7c0.3-0.2,0.6-0.2,1-0.2
                                                c0.3,0,0.6,0.1,0.8,0.2c0.2,0.1,0.4,0.3,0.5,0.5c0.1,0.2,0.2,0.5,0.2,0.9v5.9H57v-6.3c0-0.6-0.1-1.2-0.4-1.6
                                                C56.4,65.8,56.1,65.5,55.6,65.2"/>
                                            <path class="st8" d="M85.5,65.2c-0.4-0.2-1-0.4-1.6-0.4c-0.4,0-0.9,0.1-1.2,0.2c-0.4,0.1-0.7,0.3-1,0.6
                                                c-0.2,0.2-0.4,0.4-0.6,0.7l0-1.2h-2v9.1h2.2V69c0-0.5,0.1-1,0.3-1.3c0.2-0.3,0.4-0.6,0.7-0.7c0.3-0.2,0.6-0.2,1-0.2
                                                c0.3,0,0.6,0.1,0.8,0.2c0.2,0.1,0.4,0.3,0.5,0.5c0.1,0.2,0.2,0.5,0.2,0.9v5.9h2.2v-6.3c0-0.6-0.1-1.2-0.4-1.6
                                                C86.3,65.8,85.9,65.5,85.5,65.2"/>
                                            <path class="st8" d="M88.8,63.7H91v-2.2h-2.2V63.7z"/>
                                            <path class="st8" d="M88.8,74.2H91v-9.1h-2.2V74.2z"/>
                                            <path class="st8" d="M75.5,65.4c-0.6-0.4-1.4-0.6-2.3-0.6c-0.9,0-1.6,0.2-2.3,0.6c-0.6,0.4-1.1,0.9-1.5,1.6
                                                c-0.3,0.7-0.5,1.6-0.5,2.6c0,1,0.2,1.9,0.5,2.6c0.3,0.7,0.8,1.3,1.5,1.7c0.6,0.4,1.4,0.6,2.3,0.6c0.7,0,1.3-0.1,1.8-0.3
                                                c0.5-0.2,1-0.5,1.4-1c0.4-0.4,0.7-1.1,0.9-1.8h-2.1c0,0.2-0.2,0.6-0.4,0.9c-0.2,0.2-0.4,0.4-0.6,0.4
                                                c-0.2,0.1-0.5,0.1-0.8,0.1c-0.5,0-0.9-0.1-1.2-0.3c-0.3-0.2-0.6-0.5-0.7-1c-0.1-0.4-0.2-0.8-0.2-1.3h6.3v-0.3v-0.3
                                                c0-1-0.2-1.8-0.5-2.5C76.6,66.4,76.1,65.8,75.5,65.4 M72,66.8c0.3-0.2,0.7-0.3,1.1-0.3c0.4,0,0.8,0.1,1.1,0.3
                                                c0.3,0.2,0.5,0.5,0.7,0.9c0.1,0.3,0.2,0.6,0.2,1h-4.2c0-0.4,0.1-0.7,0.2-1C71.5,67.4,71.7,67,72,66.8"/>
                                            <path class="st8" d="M65.2,65.1l0,1.2c0-0.1-0.1-0.1-0.1-0.2c-0.3-0.4-0.7-0.7-1.1-0.9c-0.4-0.2-0.9-0.3-1.5-0.3
                                                c-0.7,0-1.4,0.2-1.9,0.5c-0.6,0.4-1,0.9-1.3,1.6c-0.3,0.7-0.5,1.5-0.5,2.5c0,1,0.2,1.8,0.5,2.6c0.3,0.7,0.7,1.3,1.3,1.7
                                                c0.6,0.4,1.2,0.6,2,0.6c0.5,0,1-0.1,1.5-0.3c0.4-0.2,0.8-0.5,1.1-0.9c0,0,0,0,0-0.1v1.1c0,0.5-0.1,0.9-0.2,1.3
                                                c-0.1,0.3-0.4,0.6-0.7,0.7c-0.3,0.2-0.7,0.2-1.3,0.2c-0.3,0-0.6,0-0.9-0.1c-0.2-0.1-0.5-0.2-0.6-0.4
                                                c-0.2-0.2-0.3-0.4-0.4-0.7l-2,0.7c0.1,0.4,0.3,0.7,0.5,0.9c0.3,0.4,0.8,0.7,1.3,0.9c0.5,0.2,1.2,0.3,2,0.3
                                                c0.9,0,1.7-0.2,2.4-0.4c0.7-0.3,1.2-0.8,1.5-1.4c0.3-0.6,0.5-1.4,0.5-2.3v-8.7H65.2z M64.8,71.1c-0.2,0.5-0.4,0.8-0.8,1
                                                c-0.3,0.2-0.7,0.3-1.1,0.3c-0.4,0-0.8-0.1-1.1-0.3c-0.3-0.2-0.5-0.6-0.7-1c-0.2-0.4-0.2-1-0.2-1.7c0-0.7,0.1-1.2,0.3-1.6
                                                c0.2-0.4,0.4-0.7,0.7-0.9c0.3-0.2,0.7-0.3,1.1-0.3c0.4,0,0.8,0.1,1.1,0.3c0.3,0.2,0.6,0.5,0.8,1c0.2,0.4,0.3,1,0.3,1.6
                                                C65.1,70.1,65,70.7,64.8,71.1"/>
                                            <path class="st8" d="M98.4,71.9c-0.2,0.3-0.4,0.5-0.6,0.6c-0.2,0.1-0.5,0.2-0.9,0.2c-0.5,0-0.8-0.1-1.1-0.3
                                                c-0.3-0.2-0.5-0.6-0.7-1c-0.2-0.5-0.2-1-0.2-1.7c0-0.7,0.1-1.3,0.2-1.7c0.2-0.5,0.4-0.8,0.7-1c0.3-0.2,0.7-0.3,1.2-0.3
                                                c0.3,0,0.6,0.1,0.9,0.2c0.2,0.1,0.4,0.3,0.6,0.6c0.1,0.2,0.2,0.4,0.3,0.7l2-0.7c-0.1-0.3-0.3-0.6-0.4-0.9
                                                c-0.3-0.5-0.8-0.9-1.4-1.2c-0.6-0.3-1.2-0.4-1.9-0.4c-0.9,0-1.7,0.2-2.3,0.6c-0.6,0.4-1.1,0.9-1.5,1.7
                                                c-0.3,0.7-0.5,1.6-0.5,2.6c0,1,0.2,1.9,0.5,2.6c0.3,0.7,0.8,1.2,1.5,1.6c0.6,0.4,1.4,0.5,2.3,0.5c0.8,0,1.4-0.1,2-0.4
                                                c0.6-0.3,1-0.7,1.4-1.2c0.3-0.4,0.5-0.9,0.6-1.5h-2.1C98.6,71.6,98.5,71.8,98.4,71.9"/>
                                            <path class="st8" d="M108.1,69.3c-0.4-0.2-1-0.4-1.7-0.5l-1-0.2c-0.3-0.1-0.6-0.2-0.8-0.3c-0.2-0.1-0.4-0.2-0.5-0.4
                                                c-0.1-0.2-0.2-0.3-0.2-0.6c0-0.2,0.1-0.4,0.2-0.6c0.1-0.2,0.3-0.3,0.5-0.3c0.2-0.1,0.5-0.1,0.8-0.1c0.4,0,0.7,0,0.9,0.1
                                                c0.2,0.1,0.4,0.2,0.6,0.4c0.1,0.2,0.3,0.5,0.3,1.1l2-0.7c-0.1-0.5-0.3-0.9-0.5-1.2c-0.3-0.4-0.7-0.7-1.3-0.9
                                                c-0.5-0.2-1.2-0.3-1.9-0.3c-0.8,0-1.4,0.1-1.9,0.3c-0.5,0.2-0.9,0.5-1.2,0.9c-0.3,0.4-0.4,0.9-0.4,1.5
                                                c0,0.5,0.1,0.9,0.3,1.3c0.2,0.4,0.5,0.6,0.9,0.9c0.4,0.2,0.9,0.4,1.6,0.5l1.1,0.2c0.4,0.1,0.7,0.2,1,0.3
                                                c0.2,0.1,0.4,0.2,0.5,0.4c0.1,0.2,0.2,0.4,0.2,0.6c0,0.2-0.1,0.4-0.2,0.6c-0.1,0.2-0.3,0.3-0.6,0.4
                                                c-0.3,0.1-0.6,0.1-1,0.1c-0.4,0-0.7-0.1-1-0.2c-0.3-0.1-0.5-0.3-0.6-0.5c-0.1-0.2-0.3-0.5-0.3-1h-2.1
                                                c0.1,0.8,0.3,1.4,0.6,1.8c0.3,0.4,0.7,0.8,1.3,1c0.5,0.2,1.2,0.3,2,0.3c0.8,0,1.5-0.1,2.1-0.3c0.6-0.2,1-0.6,1.3-1
                                                c0.3-0.4,0.5-1,0.5-1.6c0-0.5-0.1-1-0.4-1.3C108.9,69.8,108.6,69.5,108.1,69.3"/>
                                            <path class="st8" d="M24.2,66.7v7.5h14.2V61.5L24.2,66.7z"/>
                                            <path class="st8" d="M31.3,60.4c5.9,0,10.7-4.8,10.7-10.7l-10.7,3.9"/>
                                            <path class="st8" d="M127.5,70.2c0.4-0.2,0.7-0.5,0.9-0.9c0.2-0.4,0.3-0.9,0.3-1.5c0-0.6-0.1-1.1-0.3-1.5
                                                c-0.2-0.4-0.5-0.7-0.9-0.9c-0.4-0.2-0.9-0.3-1.5-0.3h-3v9.1h1.2v-3.6h1.4l2,3.6h1.4l-2.1-3.8
                                                C127.1,70.4,127.3,70.3,127.5,70.2 M124.2,66.2h1.8c0.3,0,0.6,0.1,0.9,0.2c0.2,0.1,0.4,0.3,0.5,0.6
                                                c0.1,0.2,0.2,0.5,0.2,0.9c0,0.4-0.1,0.7-0.2,0.9c-0.1,0.2-0.3,0.4-0.5,0.6c-0.2,0.1-0.5,0.2-0.8,0.2h-1.8"/>
                                            <path class="st8" d="M135.7,65.4c-0.5-0.3-1.1-0.5-1.9-0.5c-0.7,0-1.4,0.2-1.9,0.5c-0.5,0.3-0.9,0.9-1.2,1.6
                                                c-0.3,0.7-0.4,1.6-0.4,2.6c0,1.1,0.1,1.9,0.4,2.6c0.3,0.7,0.7,1.2,1.2,1.6c0.5,0.3,1.2,0.5,1.9,0.5
                                                c0.7,0,1.3-0.2,1.9-0.5c0.5-0.3,0.9-0.9,1.2-1.6c0.3-0.7,0.4-1.6,0.4-2.6c0-1.1-0.1-1.9-0.4-2.6
                                                C136.6,66.3,136.2,65.8,135.7,65.4 M135.8,71.7c-0.2,0.5-0.4,0.9-0.8,1.2c-0.3,0.2-0.7,0.4-1.2,0.4
                                                c-0.5,0-0.9-0.1-1.2-0.4c-0.3-0.3-0.6-0.6-0.8-1.2c-0.2-0.5-0.3-1.2-0.3-2.1c0-0.8,0.1-1.5,0.3-2.1
                                                c0.2-0.5,0.4-0.9,0.8-1.2c0.3-0.2,0.7-0.4,1.2-0.4c0.5,0,0.9,0.1,1.2,0.4c0.3,0.3,0.6,0.6,0.8,1.2
                                                c0.2,0.5,0.3,1.2,0.3,2.1C136.1,70.5,136,71.2,135.8,71.7"/>
                                            <path class="st8" d="M144,71.2c0,0.5-0.1,0.9-0.2,1.2c-0.1,0.3-0.3,0.5-0.6,0.7c-0.3,0.1-0.6,0.2-1,0.2s-0.7-0.1-1-0.2
                                                c-0.3-0.1-0.5-0.4-0.6-0.7c-0.1-0.3-0.2-0.7-0.2-1.2v-6.1h-1.2v6.1c0,0.7,0.1,1.3,0.4,1.8c0.2,0.5,0.6,0.8,1,1.1
                                                c0.4,0.2,1,0.3,1.6,0.3c0.6,0,1.2-0.1,1.6-0.3c0.4-0.2,0.8-0.6,1-1.1c0.2-0.5,0.4-1.1,0.4-1.8v-6.1H144"/>
                                            <path class="st8" d="M153.1,66.4c-0.2-0.4-0.5-0.7-0.9-1c-0.4-0.2-0.9-0.3-1.5-0.3h-3v9.1h1.2v-3.4h1.8
                                                c0.6,0,1.1-0.1,1.6-0.3c0.4-0.2,0.7-0.6,0.9-1s0.3-0.9,0.3-1.5C153.3,67.3,153.3,66.8,153.1,66.4 M151.9,68.9
                                                c-0.1,0.3-0.3,0.5-0.5,0.6c-0.2,0.1-0.5,0.2-0.9,0.2h-1.7v-3.5h1.7c0.4,0,0.6,0.1,0.9,0.2c0.2,0.1,0.4,0.3,0.5,0.6
                                                c0.1,0.3,0.2,0.6,0.2,1C152.1,68.3,152,68.6,151.9,68.9"/>
                                            <path class="st8" d="M117.4,70.5h2.1c0,0.6-0.1,1.1-0.3,1.5c-0.2,0.4-0.4,0.7-0.8,0.9c-0.3,0.2-0.7,0.3-1.1,0.3
                                                c-0.5,0-0.9-0.1-1.2-0.4c-0.3-0.3-0.6-0.6-0.8-1.2c-0.2-0.5-0.3-1.2-0.3-2.1c0-0.8,0.1-1.5,0.3-2.1
                                                c0.2-0.5,0.4-0.9,0.8-1.2c0.3-0.3,0.7-0.4,1.2-0.4c0.3,0,0.7,0.1,0.9,0.2c0.3,0.1,0.5,0.4,0.7,0.7
                                                c0.2,0.3,0.3,0.7,0.4,1.2l1.2-0.4c-0.1-0.5-0.3-1-0.5-1.4c-0.3-0.5-0.7-0.8-1.1-1.1c-0.5-0.2-1-0.4-1.6-0.4
                                                c-0.7,0-1.4,0.2-1.9,0.5c-0.5,0.3-0.9,0.9-1.2,1.6c-0.3,0.7-0.4,1.6-0.4,2.6c0,1.1,0.1,1.9,0.4,2.6
                                                c0.3,0.7,0.7,1.2,1.2,1.6c0.5,0.3,1.1,0.5,1.8,0.5c0.5,0,1-0.1,1.3-0.3c0.4-0.2,0.7-0.5,1-1c0,0,0-0.1,0.1-0.1l0.1,1.3
                                                h0.9v-4.8h-3.2"/>
                                            <path class="st9" d="M-6,0h-15 M246.9,0h15 M-6,155.9h-15 M246.9,155.9h15 M0-6v-15 M0,161.9v15 M240.9-6v-15
                                                 M240.9,161.9v15"/>
                                            <path class="st10" d="M-6,0h-15 M246.9,0h15 M-6,155.9h-15 M246.9,155.9h15 M0-6v-15 M0,161.9v15 M240.9-6v-15
                                                 M240.9,161.9v15"/>
                                            <path class="st9" d="M-11.5-8.5h-18 M252.4-8.5h18 M-11.5,164.4h-18 M252.4,164.4h18 M-8.5-11.5v-18 M-8.5,167.4v18
                                                 M249.4-11.5v-18 M249.4,167.4v18"/>
                                            <path class="st10" d="M-11.5-8.5h-18 M252.4-8.5h18 M-11.5,164.4h-18 M252.4,164.4h18 M-8.5-11.5v-18 M-8.5,167.4v18
                                                 M249.4-11.5v-18 M249.4,167.4v18"/>
                                        </g>
                                    </g>
                                </g>
                            </g>
                        </g>
                    </g>
                </g>
            </g>
        </g>
    </g>
</g>
</g>
</svg>
