<svg version="1.1" id="SVG" xmlns="http://www.w3.org/2000/svg" xmlns:xlink="http://www.w3.org/1999/xlink" x="0px" y="0px"
     width="193.89px" height="303.307px" viewBox="0 0 193.89 303.307" enable-background="new 0 0 193.89 303.307"
     xml:space="preserve">
	 <g transform="scale(1.235)">
            <g>
		<path fill="#D07327" d="M21.036,26.884c0.39,0.24,0.95,0.43,1.549,0.43c0.89,0,1.409-0.459,1.409-1.139c0-0.63-0.36-1-1.269-1.339
			c-1.1-0.38-1.779-0.959-1.779-1.899c0-1.049,0.871-1.829,2.179-1.829c0.68,0,1.189,0.16,1.479,0.32l-0.24,0.72
			c-0.21-0.13-0.66-0.32-1.27-0.32c-0.919,0-1.269,0.55-1.269,1.009c0,0.62,0.41,0.93,1.339,1.29c1.14,0.45,1.71,0.989,1.71,1.979
			c0,1.029-0.759,1.939-2.349,1.939c-0.649,0-1.359-0.2-1.719-0.44L21.036,26.884z"/>
		<path fill="#D07327" d="M26.546,25.685c0.021,1.179,0.77,1.669,1.649,1.669c0.629,0,1.02-0.11,1.339-0.25l0.16,0.629
			c-0.31,0.14-0.849,0.31-1.619,0.31c-1.479,0-2.378-0.99-2.378-2.439c0-1.459,0.87-2.608,2.279-2.608
			c1.579,0,1.989,1.389,1.989,2.279c0,0.18-0.009,0.31-0.03,0.41H26.546z M29.115,25.056c0.01-0.56-0.23-1.43-1.209-1.43
			c-0.899,0-1.279,0.82-1.349,1.43H29.115z"/>
		<path fill="#D07327" d="M31.056,24.616c0-0.57-0.01-1.06-0.04-1.509h0.77l0.04,0.95h0.03c0.22-0.65,0.758-1.06,1.349-1.06
			c0.089,0,0.16,0.01,0.24,0.02v0.83c-0.09-0.01-0.179-0.02-0.3-0.02c-0.62,0-1.06,0.47-1.179,1.119
			c-0.021,0.13-0.03,0.27-0.03,0.41v2.588h-0.879L31.056,24.616L31.056,24.616z"/>
		<path fill="#D07327" d="M34.666,23.106l0.95,2.708c0.16,0.45,0.289,0.85,0.39,1.25h0.03c0.11-0.4,0.25-0.8,0.41-1.25l0.939-2.708
			h0.919l-1.899,4.837h-0.84l-1.839-4.837H34.666z"/>
		<path fill="#D07327" d="M39.556,22.287c-0.319,0-0.53-0.25-0.53-0.54c0-0.31,0.22-0.549,0.55-0.549c0.319,0,0.54,0.24,0.54,0.549
			c0,0.29-0.21,0.54-0.55,0.54H39.556z M39.136,27.944v-4.837h0.879v4.837H39.136z"/>
		<path fill="#D07327" d="M44.924,27.764c-0.23,0.11-0.74,0.28-1.389,0.28c-1.459,0-2.409-0.99-2.409-2.469
			c0-1.489,1.02-2.579,2.599-2.579c0.52,0,0.979,0.13,1.219,0.26l-0.2,0.67c-0.209-0.11-0.54-0.23-1.018-0.23
			c-1.109,0-1.71,0.83-1.71,1.829c0,1.119,0.72,1.809,1.68,1.809c0.5,0,0.829-0.12,1.08-0.229L44.924,27.764z"/>
		<path fill="#D07327" d="M46.456,25.685c0.021,1.179,0.77,1.669,1.649,1.669c0.629,0,1.018-0.11,1.339-0.25l0.16,0.629
			c-0.311,0.14-0.849,0.31-1.619,0.31c-1.479,0-2.379-0.99-2.379-2.439c0-1.459,0.871-2.608,2.28-2.608
			c1.578,0,1.989,1.389,1.989,2.279c0,0.18-0.01,0.31-0.03,0.41H46.456z M49.024,25.056c0.01-0.56-0.23-1.43-1.209-1.43
			c-0.899,0-1.279,0.82-1.349,1.43H49.024z"/>
	</g>
	<g>
		<path fill="#2E5DAD" d="M50.556,27.434l2.19-2.848c0.22-0.27,0.409-0.5,0.64-0.76v-0.02h-2.629v-0.7h3.688v0.55l-2.167,2.818
			c-0.2,0.26-0.4,0.51-0.621,0.75v0.02h2.828v0.7h-3.928V27.434z"/>
		<path fill="#2E5DAD" d="M55.886,25.685c0.02,1.179,0.77,1.669,1.648,1.669c0.63,0,1.02-0.11,1.34-0.25l0.16,0.629
			c-0.311,0.14-0.85,0.31-1.619,0.31c-1.479,0-2.379-0.99-2.379-2.439c0-1.459,0.869-2.608,2.278-2.608
			c1.579,0,1.989,1.389,1.989,2.279c0,0.18-0.009,0.31-0.03,0.41H55.886z M58.454,25.056c0.009-0.56-0.229-1.43-1.209-1.43
			c-0.899,0-1.279,0.82-1.351,1.43H58.454z"/>
		<path fill="#2E5DAD" d="M60.815,22.287c-0.319,0-0.529-0.25-0.529-0.54c0-0.31,0.221-0.549,0.55-0.549
			c0.319,0,0.54,0.24,0.54,0.549c0,0.29-0.21,0.54-0.55,0.54H60.815z M60.396,27.944v-4.837h0.88v4.837H60.396z"/>
		<path fill="#2E5DAD" d="M63.795,21.947v1.159h1.259v0.67h-1.259v2.598c0,0.6,0.17,0.939,0.659,0.939c0.24,0,0.38-0.02,0.51-0.06
			l0.04,0.669c-0.17,0.06-0.439,0.12-0.779,0.12c-0.41,0-0.739-0.14-0.949-0.37c-0.24-0.27-0.34-0.699-0.34-1.269v-2.628h-0.75
			v-0.67h0.75v-0.89L63.795,21.947z"/>
		<path fill="#2E5DAD" d="M66.545,25.685c0.02,1.179,0.769,1.669,1.649,1.669c0.629,0,1.019-0.11,1.339-0.25l0.161,0.629
			c-0.311,0.14-0.85,0.31-1.619,0.31c-1.479,0-2.379-0.99-2.379-2.439c0-1.459,0.869-2.608,2.278-2.608
			c1.578,0,1.989,1.389,1.989,2.279c0,0.18-0.01,0.31-0.03,0.41H66.545z M69.113,25.056c0.01-0.56-0.229-1.43-1.209-1.43
			c-0.899,0-1.279,0.82-1.35,1.43H69.113z"/>
		<path fill="#2E5DAD" d="M71.055,24.416c0-0.51-0.009-0.91-0.04-1.31h0.779l0.051,0.79h0.021c0.24-0.45,0.799-0.899,1.6-0.899
			c0.669,0,1.709,0.4,1.709,2.059v2.888h-0.88v-2.789c0-0.779-0.289-1.439-1.119-1.439c-0.57,0-1.02,0.41-1.18,0.899
			c-0.04,0.11-0.06,0.27-0.06,0.41v2.918h-0.88V24.416z"/>
	</g>
	<g>
		<path fill="#5E5E5D" d="M27.083,52.409c-0.029-0.558-0.066-1.248-0.066-1.745h-0.012c-0.144,0.468-0.306,0.983-0.509,1.535
			l-0.714,1.961h-0.396l-0.659-1.925c-0.192-0.57-0.348-1.092-0.463-1.571h-0.012c-0.012,0.504-0.042,1.181-0.077,1.787
			l-0.108,1.733h-0.498l0.282-4.042h0.666l0.69,1.955c0.168,0.498,0.3,0.948,0.407,1.367h0.013c0.108-0.408,0.251-0.857,0.432-1.367
			l0.72-1.955h0.666l0.251,4.042h-0.516L27.083,52.409z"/>
		<path fill="#5E5E5D" d="M29.664,54.25c-0.78,0-1.392-0.576-1.392-1.493c0-0.972,0.642-1.541,1.439-1.541
			c0.833,0,1.397,0.605,1.397,1.487c0,1.079-0.75,1.547-1.439,1.547H29.664z M29.688,53.854c0.504,0,0.881-0.474,0.881-1.134
			c0-0.492-0.246-1.109-0.869-1.109c-0.618,0-0.888,0.576-0.888,1.127c0,0.636,0.36,1.116,0.87,1.116H29.688z"/>
	</g>
	<g>
		<path fill="#5E5E5D" d="M44.491,53.813c0.115,0.006,0.246,0,0.426-0.024c0.306-0.036,0.594-0.162,0.815-0.372
			c0.258-0.24,0.444-0.576,0.516-1.038H46.23c-0.217,0.264-0.528,0.42-0.924,0.42c-0.702,0-1.151-0.528-1.151-1.199
			c0-0.732,0.54-1.379,1.337-1.379c0.797,0,1.289,0.642,1.289,1.643c0,0.857-0.288,1.457-0.671,1.829
			c-0.3,0.288-0.714,0.474-1.133,0.521c-0.192,0.024-0.366,0.036-0.486,0.03V53.813z M45.444,50.622
			c-0.444,0-0.762,0.396-0.762,0.947c0,0.486,0.294,0.828,0.75,0.828c0.354,0,0.63-0.174,0.773-0.408
			c0.024-0.048,0.042-0.108,0.042-0.192c0.006-0.671-0.246-1.175-0.797-1.175H45.444z"/>
		<path fill="#5E5E5D" d="M49.926,52.373v0.384h-1.481v-0.384H49.926z"/>
		<path fill="#5E5E5D" d="M52.794,50.778h-0.013l-0.678,0.366l-0.102-0.401l0.852-0.456h0.448v3.898h-0.51v-3.407H52.794z"/>
		<path fill="#5E5E5D" d="M57.258,50.286v0.348l-1.697,3.55h-0.54l1.686-3.448v-0.012H54.8v-0.438H57.258z"/>
		<path fill="#5E5E5D" d="M59.784,50.142v2.399c0,0.899,0.402,1.283,0.942,1.283c0.594,0,0.983-0.396,0.983-1.283v-2.399h0.527
			v2.363c0,1.241-0.653,1.745-1.528,1.745c-0.828,0-1.451-0.468-1.451-1.727v-2.381H59.784z"/>
		<path fill="#5E5E5D" d="M63.126,49.926h0.528v1.811h0.012c0.084-0.15,0.216-0.288,0.378-0.372c0.155-0.096,0.342-0.15,0.538-0.15
			c0.391,0,1.015,0.24,1.015,1.241v1.727H65.07V52.51c0-0.468-0.174-0.858-0.671-0.858c-0.342,0-0.606,0.24-0.709,0.528
			c-0.029,0.072-0.035,0.15-0.035,0.252v1.751h-0.528L63.126,49.926L63.126,49.926z"/>
		<path fill="#5E5E5D" d="M66.456,52.187c0-0.342-0.006-0.635-0.023-0.905h0.462l0.023,0.57h0.019
			c0.132-0.39,0.455-0.636,0.81-0.636c0.055,0,0.096,0.006,0.145,0.012v0.498c-0.054-0.006-0.108-0.012-0.18-0.012
			c-0.372,0-0.636,0.282-0.708,0.672c-0.012,0.078-0.018,0.162-0.018,0.246v1.553h-0.528L66.456,52.187L66.456,52.187z"/>
	</g>
	<g>
		<path fill="#5E5E5D" d="M23.671,61.536c0.323-0.048,0.701-0.084,1.115-0.084c0.75,0,1.283,0.174,1.637,0.504
			c0.366,0.33,0.576,0.797,0.576,1.451c0,0.66-0.21,1.199-0.582,1.571c-0.384,0.378-1.007,0.582-1.793,0.582
			c-0.378,0-0.684-0.012-0.954-0.048v-3.976H23.671z M24.199,65.116c0.132,0.024,0.324,0.024,0.528,0.024
			c1.115,0.006,1.721-0.624,1.721-1.715c0.006-0.954-0.534-1.56-1.637-1.56c-0.27,0-0.474,0.024-0.612,0.054V65.116z"/>
		<path fill="#5E5E5D" d="M27.907,62.13c-0.192,0-0.319-0.15-0.319-0.324c0-0.186,0.132-0.33,0.331-0.33
			c0.192,0,0.323,0.144,0.323,0.33c0,0.174-0.126,0.324-0.33,0.324H27.907z M27.655,65.524v-2.902h0.527v2.902H27.655z"/>
	</g>
	<g>
		<path fill="#5E5E5D" d="M44.491,65.152c0.115,0.006,0.246,0,0.426-0.024c0.306-0.036,0.594-0.162,0.815-0.372
			c0.258-0.24,0.444-0.576,0.516-1.038H46.23c-0.217,0.264-0.528,0.42-0.924,0.42c-0.702,0-1.151-0.528-1.151-1.199
			c0-0.732,0.54-1.379,1.337-1.379c0.797,0,1.289,0.642,1.289,1.643c0,0.857-0.288,1.457-0.671,1.829
			c-0.3,0.288-0.714,0.474-1.133,0.521c-0.192,0.024-0.366,0.036-0.486,0.03V65.152z M45.444,61.962
			c-0.444,0-0.762,0.396-0.762,0.947c0,0.486,0.294,0.828,0.75,0.828c0.354,0,0.63-0.174,0.773-0.408
			c0.024-0.048,0.042-0.108,0.042-0.192c0.006-0.671-0.246-1.175-0.797-1.175H45.444z"/>
		<path fill="#5E5E5D" d="M49.926,63.713v0.384h-1.481v-0.384H49.926z"/>
		<path fill="#5E5E5D" d="M52.794,62.118h-0.013l-0.678,0.366l-0.102-0.401l0.852-0.456h0.448v3.898h-0.51v-3.407H52.794z"/>
		<path fill="#5E5E5D" d="M57.258,61.626v0.348l-1.697,3.55h-0.54l1.686-3.448v-0.012H54.8v-0.438H57.258z"/>
		<path fill="#5E5E5D" d="M59.784,61.482v2.399c0,0.899,0.402,1.283,0.942,1.283c0.594,0,0.983-0.396,0.983-1.283v-2.399h0.527
			v2.363c0,1.241-0.653,1.745-1.528,1.745c-0.828,0-1.451-0.468-1.451-1.727v-2.381H59.784L59.784,61.482z"/>
		<path fill="#5E5E5D" d="M63.126,61.266h0.528v1.811h0.012c0.084-0.15,0.216-0.288,0.378-0.372c0.155-0.096,0.342-0.15,0.538-0.15
			c0.391,0,1.015,0.24,1.015,1.241v1.727H65.07V63.85c0-0.468-0.174-0.858-0.671-0.858c-0.342,0-0.606,0.24-0.709,0.528
			c-0.029,0.072-0.035,0.15-0.035,0.252v1.751h-0.528L63.126,61.266L63.126,61.266z"/>
		<path fill="#5E5E5D" d="M66.456,63.527c0-0.342-0.006-0.635-0.023-0.905h0.462l0.023,0.57h0.019
			c0.132-0.39,0.455-0.636,0.81-0.636c0.055,0,0.096,0.006,0.145,0.012v0.498c-0.054-0.006-0.108-0.012-0.18-0.012
			c-0.372,0-0.636,0.282-0.708,0.672c-0.012,0.078-0.018,0.162-0.018,0.246v1.553h-0.528L66.456,63.527L66.456,63.527z"/>
	</g>
	<g>
		<path fill="#5E5E5D" d="M27.083,75.089c-0.029-0.558-0.066-1.248-0.066-1.745h-0.012c-0.144,0.468-0.306,0.983-0.509,1.535
			l-0.714,1.961h-0.396l-0.659-1.925c-0.192-0.57-0.348-1.092-0.463-1.571h-0.012c-0.012,0.504-0.042,1.181-0.077,1.787
			l-0.108,1.733h-0.498l0.282-4.042h0.666l0.69,1.955c0.168,0.498,0.3,0.948,0.407,1.367h0.013c0.108-0.408,0.251-0.857,0.432-1.367
			l0.72-1.955h0.666l0.251,4.042h-0.516L27.083,75.089z"/>
		<path fill="#5E5E5D" d="M28.734,73.47c-0.191,0-0.318-0.15-0.318-0.324c0-0.186,0.132-0.33,0.331-0.33
			c0.191,0,0.323,0.144,0.323,0.33c0,0.174-0.126,0.324-0.33,0.324H28.734z M28.483,76.864v-2.902h0.527v2.902H28.483z"/>
	</g>
	<g>
		<path fill="#5E5E5D" d="M44.491,76.492c0.115,0.006,0.246,0,0.426-0.024c0.306-0.036,0.594-0.162,0.815-0.372
			c0.258-0.24,0.444-0.576,0.516-1.038H46.23c-0.217,0.264-0.528,0.42-0.924,0.42c-0.702,0-1.151-0.528-1.151-1.199
			c0-0.732,0.54-1.379,1.337-1.379c0.797,0,1.289,0.642,1.289,1.643c0,0.857-0.288,1.457-0.671,1.829
			c-0.3,0.288-0.714,0.474-1.133,0.521c-0.192,0.024-0.366,0.036-0.486,0.03V76.492z M45.444,73.302
			c-0.444,0-0.762,0.396-0.762,0.947c0,0.486,0.294,0.828,0.75,0.828c0.354,0,0.63-0.174,0.773-0.408
			c0.024-0.048,0.042-0.108,0.042-0.192c0.006-0.671-0.246-1.175-0.797-1.175H45.444z"/>
		<path fill="#5E5E5D" d="M49.926,75.053v0.384h-1.481v-0.384H49.926z"/>
		<path fill="#5E5E5D" d="M52.794,73.458h-0.013l-0.678,0.366l-0.102-0.401l0.852-0.456h0.448v3.898h-0.51v-3.407H52.794z"/>
		<path fill="#5E5E5D" d="M57.258,72.966v0.348l-1.697,3.55h-0.54l1.686-3.448v-0.012H54.8v-0.438H57.258z"/>
		<path fill="#5E5E5D" d="M59.784,72.822v2.399c0,0.899,0.402,1.283,0.942,1.283c0.594,0,0.983-0.396,0.983-1.283v-2.399h0.527
			v2.363c0,1.241-0.653,1.745-1.528,1.745c-0.828,0-1.451-0.468-1.451-1.727v-2.381H59.784z"/>
		<path fill="#5E5E5D" d="M63.126,72.606h0.528v1.811h0.012c0.084-0.15,0.216-0.288,0.378-0.372c0.155-0.096,0.342-0.15,0.538-0.15
			c0.391,0,1.015,0.24,1.015,1.241v1.727H65.07V75.19c0-0.468-0.174-0.858-0.671-0.858c-0.342,0-0.606,0.24-0.709,0.528
			c-0.029,0.072-0.035,0.15-0.035,0.252v1.751h-0.528L63.126,72.606L63.126,72.606z"/>
		<path fill="#5E5E5D" d="M66.456,74.867c0-0.342-0.006-0.635-0.023-0.905h0.462l0.023,0.57h0.019
			c0.132-0.39,0.455-0.636,0.81-0.636c0.055,0,0.096,0.006,0.145,0.012v0.498c-0.054-0.006-0.108-0.012-0.18-0.012
			c-0.372,0-0.636,0.282-0.708,0.672c-0.012,0.078-0.018,0.162-0.018,0.246v1.553h-0.528L66.456,74.867L66.456,74.867z"/>
	</g>
	<g>
		<path fill="#5E5E5D" d="M23.671,84.216c0.323-0.048,0.701-0.084,1.115-0.084c0.75,0,1.283,0.174,1.637,0.504
			c0.366,0.33,0.576,0.797,0.576,1.451c0,0.66-0.21,1.199-0.582,1.571c-0.384,0.378-1.007,0.582-1.793,0.582
			c-0.378,0-0.684-0.012-0.954-0.048v-3.976H23.671z M24.199,87.796c0.132,0.024,0.324,0.024,0.528,0.024
			c1.115,0.006,1.721-0.624,1.721-1.715c0.006-0.954-0.534-1.56-1.637-1.56c-0.27,0-0.474,0.024-0.612,0.054V87.796z"/>
		<path fill="#5E5E5D" d="M28.836,88.27c-0.78,0-1.391-0.576-1.391-1.493c0-0.971,0.642-1.541,1.439-1.541
			c0.833,0,1.397,0.605,1.397,1.487c0,1.079-0.75,1.547-1.439,1.547H28.836L28.836,88.27z M28.86,87.875
			c0.504,0,0.881-0.474,0.881-1.134c0-0.492-0.246-1.109-0.869-1.109c-0.618,0-0.888,0.576-0.888,1.127
			c0,0.636,0.36,1.116,0.87,1.116H28.86L28.86,87.875z"/>
	</g>
	<g>
		<path fill="#5E5E5D" d="M44.491,87.833c0.115,0.006,0.246,0,0.426-0.024c0.306-0.036,0.594-0.162,0.815-0.372
			c0.258-0.24,0.444-0.576,0.516-1.038H46.23c-0.217,0.264-0.528,0.42-0.924,0.42c-0.702,0-1.151-0.528-1.151-1.199
			c0-0.732,0.54-1.379,1.337-1.379c0.797,0,1.289,0.642,1.289,1.643c0,0.857-0.288,1.458-0.671,1.829
			c-0.3,0.288-0.714,0.474-1.133,0.521c-0.192,0.024-0.366,0.036-0.486,0.03V87.833z M45.444,84.642
			c-0.444,0-0.762,0.396-0.762,0.947c0,0.486,0.294,0.828,0.75,0.828c0.354,0,0.63-0.174,0.773-0.408
			c0.024-0.048,0.042-0.108,0.042-0.192c0.006-0.671-0.246-1.175-0.797-1.175H45.444z"/>
		<path fill="#5E5E5D" d="M49.926,86.393v0.384h-1.481v-0.384H49.926z"/>
		<path fill="#5E5E5D" d="M52.794,84.798h-0.013l-0.678,0.366l-0.102-0.401l0.852-0.456h0.448v3.898h-0.51v-3.407H52.794z"/>
		<path fill="#5E5E5D" d="M56.034,84.24c0.756,0,1.14,0.468,1.14,0.959c0,0.33-0.168,0.689-0.647,0.912v0.018
			c0.485,0.192,0.784,0.54,0.784,1.007c0,0.684-0.582,1.133-1.324,1.133c-0.815,0-1.309-0.479-1.309-1.049
			c0-0.492,0.294-0.846,0.769-1.049v-0.018c-0.438-0.204-0.623-0.54-0.623-0.875c0-0.618,0.521-1.038,1.205-1.038H56.034z
			 M55.998,87.886c0.474,0,0.779-0.294,0.779-0.696c0-0.467-0.329-0.701-0.857-0.851c-0.455,0.132-0.701,0.438-0.701,0.809
			c-0.019,0.39,0.282,0.738,0.773,0.738H55.998z M56.004,84.618c-0.438,0-0.678,0.288-0.678,0.624c-0.006,0.39,0.294,0.6,0.744,0.72
			c0.336-0.114,0.594-0.354,0.594-0.708c0-0.312-0.187-0.636-0.654-0.636H56.004z"/>
		<path fill="#5E5E5D" d="M59.784,84.162v2.399c0,0.899,0.402,1.283,0.942,1.283c0.594,0,0.983-0.396,0.983-1.283v-2.399h0.527
			v2.363c0,1.241-0.653,1.745-1.528,1.745c-0.828,0-1.451-0.468-1.451-1.727v-2.381H59.784L59.784,84.162z"/>
		<path fill="#5E5E5D" d="M63.126,83.946h0.528v1.811h0.012c0.084-0.15,0.216-0.288,0.378-0.372c0.155-0.096,0.342-0.15,0.538-0.15
			c0.391,0,1.015,0.24,1.015,1.241v1.727H65.07V86.53c0-0.468-0.174-0.858-0.671-0.858c-0.342,0-0.606,0.24-0.709,0.528
			c-0.029,0.072-0.035,0.15-0.035,0.252v1.751h-0.528L63.126,83.946L63.126,83.946z"/>
		<path fill="#5E5E5D" d="M66.456,86.207c0-0.342-0.006-0.635-0.023-0.905h0.462l0.023,0.57h0.019
			c0.132-0.39,0.455-0.636,0.81-0.636c0.055,0,0.096,0.006,0.145,0.012v0.498c-0.054-0.006-0.108-0.012-0.18-0.012
			c-0.372,0-0.636,0.282-0.708,0.672c-0.012,0.078-0.018,0.162-0.018,0.246v1.553h-0.528L66.456,86.207L66.456,86.207z"/>
	</g>
	<g>
		<path fill="#5E5E5D" d="M23.671,95.502h2.177v0.438h-1.649v1.343h1.523v0.432h-1.523v1.829h-0.527V95.502z"/>
		<path fill="#5E5E5D" d="M26.461,97.547c0-0.342-0.006-0.635-0.024-0.905h0.462l0.024,0.57h0.018
			c0.132-0.39,0.456-0.636,0.81-0.636c0.055,0,0.096,0.006,0.144,0.012v0.498c-0.054-0.006-0.108-0.012-0.179-0.012
			c-0.372,0-0.637,0.282-0.709,0.672c-0.012,0.078-0.017,0.162-0.017,0.246v1.553h-0.527L26.461,97.547L26.461,97.547z"/>
	</g>
	<g>
		<path fill="#5E5E5D" d="M44.491,99.172c0.115,0.006,0.246,0,0.426-0.024c0.306-0.036,0.594-0.162,0.815-0.372
			c0.258-0.24,0.444-0.576,0.516-1.038H46.23c-0.217,0.264-0.528,0.42-0.924,0.42c-0.702,0-1.151-0.528-1.151-1.199
			c0-0.732,0.54-1.379,1.337-1.379c0.797,0,1.289,0.642,1.289,1.643c0,0.857-0.288,1.458-0.671,1.829
			c-0.3,0.288-0.714,0.474-1.133,0.521c-0.192,0.024-0.366,0.036-0.486,0.03V99.172z M45.444,95.982
			c-0.444,0-0.762,0.396-0.762,0.947c0,0.486,0.294,0.828,0.75,0.828c0.354,0,0.63-0.174,0.773-0.408
			c0.024-0.048,0.042-0.108,0.042-0.192c0.006-0.671-0.246-1.175-0.797-1.175H45.444z"/>
		<path fill="#5E5E5D" d="M49.926,97.733v0.384h-1.481v-0.384H49.926z"/>
		<path fill="#5E5E5D" d="M52.794,96.138h-0.013l-0.678,0.366l-0.102-0.401l0.852-0.456h0.448v3.898h-0.51v-3.407H52.794z"/>
		<path fill="#5E5E5D" d="M56.952,96.018c-0.108-0.006-0.246,0.006-0.396,0.03c-0.833,0.132-1.265,0.731-1.355,1.379h0.013
			c0.186-0.252,0.516-0.456,0.947-0.456c0.689,0,1.175,0.504,1.175,1.259c0,0.72-0.486,1.379-1.302,1.379
			c-0.827,0-1.373-0.647-1.373-1.661c0-0.768,0.27-1.373,0.659-1.757c0.324-0.318,0.756-0.516,1.247-0.576
			c0.157-0.024,0.289-0.03,0.385-0.03L56.952,96.018L56.952,96.018z M56.046,99.202c0.45,0,0.756-0.378,0.756-0.936
			c0-0.558-0.317-0.894-0.803-0.894c-0.317,0-0.618,0.192-0.762,0.48c-0.029,0.06-0.054,0.132-0.054,0.228
			c0.006,0.642,0.306,1.122,0.856,1.122H56.046L56.046,99.202z"/>
		<path fill="#5E5E5D" d="M59.784,95.502v2.399c0,0.899,0.402,1.283,0.942,1.283c0.594,0,0.983-0.396,0.983-1.283v-2.399h0.527
			v2.363c0,1.241-0.653,1.745-1.528,1.745c-0.828,0-1.451-0.468-1.451-1.727v-2.381H59.784z"/>
		<path fill="#5E5E5D" d="M63.126,95.286h0.528v1.811h0.012c0.084-0.15,0.216-0.288,0.378-0.372c0.155-0.096,0.342-0.15,0.538-0.15
			c0.391,0,1.015,0.24,1.015,1.241v1.727H65.07V97.87c0-0.468-0.174-0.858-0.671-0.858c-0.342,0-0.606,0.24-0.709,0.528
			c-0.029,0.072-0.035,0.15-0.035,0.252v1.751h-0.528L63.126,95.286L63.126,95.286z"/>
		<path fill="#5E5E5D" d="M66.456,97.547c0-0.342-0.006-0.635-0.023-0.905h0.462l0.023,0.57h0.019
			c0.132-0.39,0.455-0.636,0.81-0.636c0.055,0,0.096,0.006,0.145,0.012v0.498c-0.054-0.006-0.108-0.012-0.18-0.012
			c-0.372,0-0.636,0.282-0.708,0.672c-0.012,0.078-0.018,0.162-0.018,0.246v1.553h-0.528L66.456,97.547L66.456,97.547z"/>
	</g>
	<g>
		<path fill="#5E5E5D" d="M20.919,35.125h0.609v2.276h0.021c0.126-0.182,0.252-0.35,0.371-0.504l1.443-1.772h0.756l-1.709,2.003
			l1.842,2.717H23.53l-1.547-2.318l-0.455,0.519v1.8h-0.609L20.919,35.125L20.919,35.125z"/>
		<path fill="#5E5E5D" d="M27.388,38.915c0,0.357,0.007,0.666,0.028,0.932H26.87l-0.035-0.553h-0.014
			c-0.154,0.273-0.518,0.63-1.121,0.63c-0.531,0-1.169-0.301-1.169-1.485v-1.982h0.616v1.87c0,0.645,0.203,1.086,0.756,1.086
			c0.414,0,0.701-0.287,0.813-0.567c0.036-0.084,0.056-0.196,0.056-0.315v-2.073h0.616V38.915z"/>
		<path fill="#5E5E5D" d="M28.409,37.374c0-0.357-0.006-0.638-0.028-0.917h0.546l0.036,0.553h0.013
			c0.168-0.315,0.561-0.63,1.121-0.63c0.469,0,1.198,0.28,1.198,1.443v2.024h-0.617v-1.954c0-0.546-0.203-1.008-0.784-1.008
			c-0.399,0-0.714,0.287-0.826,0.63c-0.028,0.077-0.043,0.189-0.043,0.287v2.045h-0.616V37.374z"/>
		<path fill="#5E5E5D" d="M35.222,34.874v4.097c0,0.301,0.007,0.645,0.028,0.875h-0.554l-0.028-0.588h-0.014
			c-0.189,0.378-0.595,0.666-1.147,0.666c-0.82,0-1.457-0.693-1.457-1.723c-0.007-1.134,0.7-1.821,1.52-1.821
			c0.525,0,0.875,0.245,1.022,0.511h0.013v-2.017H35.222z M34.605,37.836c0-0.084-0.007-0.182-0.028-0.266
			c-0.091-0.385-0.427-0.707-0.89-0.707c-0.637,0-1.015,0.56-1.015,1.302c0,0.694,0.342,1.261,1,1.261
			c0.414,0,0.792-0.28,0.903-0.742c0.021-0.077,0.028-0.161,0.028-0.259L34.605,37.836L34.605,37.836z"/>
		<path fill="#5E5E5D" d="M36.592,38.263c0.014,0.827,0.54,1.17,1.156,1.17c0.441,0,0.714-0.077,0.938-0.175l0.112,0.441
			c-0.217,0.098-0.596,0.217-1.136,0.217c-1.037,0-1.667-0.693-1.667-1.708c0-1.023,0.609-1.828,1.597-1.828
			c1.107,0,1.394,0.974,1.394,1.597c0,0.126-0.007,0.217-0.021,0.287L36.592,38.263L36.592,38.263z M38.392,37.822
			c0.007-0.393-0.161-1.002-0.848-1.002c-0.63,0-0.896,0.575-0.945,1.002H38.392z"/>
		<path fill="#5E5E5D" d="M39.749,37.374c0-0.357-0.006-0.638-0.028-0.917h0.546l0.035,0.553h0.013
			c0.168-0.315,0.561-0.63,1.121-0.63c0.469,0,1.198,0.28,1.198,1.443v2.024h-0.617v-1.954c0-0.546-0.203-1.008-0.784-1.008
			c-0.399,0-0.714,0.287-0.826,0.63c-0.028,0.077-0.043,0.189-0.043,0.287v2.045h-0.616V37.374z"/>
		<path fill="#5E5E5D" d="M46.05,39.72c-0.161,0.077-0.519,0.196-0.974,0.196c-1.022,0-1.688-0.693-1.688-1.729
			c0-1.044,0.714-1.807,1.821-1.807c0.365,0,0.687,0.091,0.854,0.182l-0.14,0.469c-0.147-0.077-0.378-0.161-0.714-0.161
			c-0.777,0-1.196,0.581-1.196,1.282c0,0.784,0.504,1.268,1.176,1.268c0.351,0,0.582-0.084,0.757-0.161L46.05,39.72z"/>
		<path fill="#5E5E5D" d="M47.12,38.263c0.014,0.827,0.54,1.17,1.156,1.17c0.441,0,0.714-0.077,0.938-0.175l0.112,0.441
			c-0.218,0.098-0.596,0.217-1.135,0.217c-1.037,0-1.668-0.693-1.668-1.708c0-1.023,0.61-1.828,1.597-1.828
			c1.106,0,1.394,0.974,1.394,1.597c0,0.126-0.007,0.217-0.021,0.287L47.12,38.263L47.12,38.263z M48.92,37.822
			c0.007-0.393-0.161-1.002-0.848-1.002c-0.63,0-0.896,0.575-0.945,1.002H48.92z"/>
		<path fill="#5E5E5D" d="M50.277,37.374c0-0.357-0.009-0.638-0.028-0.917h0.546l0.035,0.553h0.014
			c0.168-0.315,0.561-0.63,1.12-0.63c0.469,0,1.197,0.28,1.197,1.443v2.024h-0.616v-1.954c0-0.546-0.203-1.008-0.784-1.008
			c-0.399,0-0.716,0.287-0.826,0.63c-0.028,0.077-0.042,0.189-0.042,0.287v2.045h-0.616L50.277,37.374L50.277,37.374z"/>
		<path fill="#5E5E5D" d="M54.904,35.644v0.813h0.882v0.469h-0.882v1.821c0,0.42,0.119,0.658,0.462,0.658
			c0.168,0,0.267-0.014,0.357-0.042l0.028,0.469c-0.119,0.042-0.309,0.084-0.547,0.084c-0.287,0-0.519-0.098-0.665-0.259
			c-0.168-0.189-0.238-0.49-0.238-0.89v-1.842h-0.524v-0.469h0.524v-0.624L54.904,35.644z"/>
		<path fill="#5E5E5D" d="M56.828,38.263c0.014,0.827,0.539,1.17,1.155,1.17c0.441,0,0.715-0.077,0.939-0.175l0.111,0.441
			c-0.217,0.098-0.595,0.217-1.136,0.217c-1.036,0-1.666-0.693-1.666-1.708c0-1.023,0.608-1.828,1.597-1.828
			c1.106,0,1.394,0.974,1.394,1.597c0,0.126-0.007,0.217-0.021,0.287L56.828,38.263L56.828,38.263z M58.628,37.822
			c0.006-0.393-0.161-1.002-0.848-1.002c-0.631,0-0.896,0.575-0.946,1.002H58.628z"/>
		<path fill="#5E5E5D" d="M59.986,37.514c0-0.399-0.008-0.743-0.028-1.058h0.538l0.028,0.665h0.021
			c0.154-0.455,0.532-0.742,0.945-0.742c0.063,0,0.112,0.007,0.169,0.014v0.581c-0.063-0.007-0.126-0.014-0.211-0.014
			c-0.434,0-0.742,0.33-0.826,0.785c-0.014,0.091-0.021,0.189-0.021,0.287v1.814h-0.616V37.514z"/>
	</g>
	<g>
		<path fill="#D07327" d="M24.524,131.957c0,0.419,0.021,0.829,0.07,1.158h-0.79l-0.08-0.609h-0.03c-0.26,0.38-0.79,0.72-1.479,0.72
			c-0.979,0-1.479-0.69-1.479-1.39c0-1.169,1.04-1.809,2.909-1.799v-0.1c0-0.4-0.11-1.128-1.1-1.118
			c-0.459,0-0.929,0.13-1.269,0.359l-0.2-0.59c0.4-0.251,0.99-0.421,1.599-0.421c1.489,0,1.849,1.011,1.849,1.979V131.957z
			 M23.665,130.646c-0.959-0.02-2.049,0.15-2.049,1.09c0,0.58,0.379,0.84,0.818,0.84c0.64,0,1.049-0.4,1.189-0.81
			c0.03-0.09,0.04-0.191,0.04-0.28L23.665,130.646L23.665,130.646z"/>
		<path fill="#D07327" d="M29.384,132.936c-0.229,0.11-0.739,0.281-1.389,0.281c-1.459,0-2.409-0.99-2.409-2.469
			c0-1.489,1.02-2.579,2.599-2.579c0.52,0,0.979,0.13,1.219,0.259l-0.2,0.671c-0.21-0.109-0.54-0.229-1.019-0.229
			c-1.109,0-1.709,0.829-1.709,1.829c0,1.119,0.719,1.808,1.679,1.808c0.501,0,0.83-0.119,1.08-0.229L29.384,132.936z"/>
		<path fill="#D07327" d="M30.416,126.02h0.879v3.019h0.02c0.14-0.251,0.361-0.479,0.63-0.62c0.26-0.161,0.57-0.251,0.899-0.251
			c0.65,0,1.689,0.4,1.689,2.069v2.878h-0.879v-2.788c0-0.779-0.289-1.429-1.119-1.429c-0.57,0-1.01,0.399-1.18,0.879
			c-0.05,0.119-0.06,0.25-0.06,0.419v2.919h-0.879V126.02z"/>
		<path fill="#D07327" d="M37.025,127.119v1.158h1.259v0.671h-1.259v2.598c0,0.601,0.17,0.939,0.659,0.939
			c0.24,0,0.38-0.02,0.51-0.061l0.04,0.67c-0.17,0.062-0.44,0.12-0.78,0.12c-0.41,0-0.739-0.14-0.949-0.37
			c-0.24-0.27-0.34-0.699-0.34-1.27v-2.628h-0.75v-0.67h0.75v-0.89L37.025,127.119z"/>
	</g>
	<g>
		<path fill="#2E5DAD" d="M39.856,126.02h0.879v3.028h0.021c0.31-0.539,0.87-0.879,1.649-0.879c1.199,0,2.039,0.999,2.039,2.458
			c0,1.739-1.099,2.599-2.179,2.599c-0.7,0-1.249-0.27-1.619-0.909h-0.021l-0.05,0.799h-0.76c0.03-0.329,0.04-0.818,0.04-1.249
			v-5.848H39.856z M40.735,131.176c0,0.111,0.01,0.221,0.03,0.319c0.17,0.61,0.69,1.03,1.319,1.03c0.929,0,1.469-0.75,1.469-1.858
			c0-0.979-0.5-1.811-1.439-1.811c-0.599,0-1.158,0.421-1.328,1.08c-0.03,0.109-0.051,0.231-0.051,0.369V131.176z"/>
		<path fill="#2E5DAD" d="M45.966,127.459c-0.32,0-0.531-0.251-0.531-0.54c0-0.31,0.221-0.55,0.55-0.55c0.32,0,0.54,0.24,0.54,0.55
			c0,0.289-0.21,0.54-0.55,0.54H45.966z M45.546,133.115v-4.838h0.879v4.838H45.546z"/>
		<path fill="#2E5DAD" d="M47.766,132.217c0.27,0.159,0.729,0.34,1.169,0.34c0.629,0,0.931-0.312,0.931-0.721
			c0-0.42-0.251-0.639-0.89-0.879c-0.879-0.319-1.289-0.799-1.289-1.369c0-0.779,0.64-1.419,1.669-1.419
			c0.489,0,0.919,0.13,1.179,0.3l-0.21,0.629c-0.189-0.109-0.539-0.28-0.989-0.28c-0.52,0-0.799,0.3-0.799,0.659
			c0,0.399,0.28,0.58,0.91,0.829c0.829,0.312,1.268,0.731,1.268,1.449c0,0.86-0.669,1.46-1.799,1.46
			c-0.529,0-1.018-0.141-1.358-0.34L47.766,132.217z"/>
	</g>
	<g>
		<path fill="#D07327" d="M54.924,131.957c0,0.419,0.021,0.829,0.07,1.158h-0.79l-0.08-0.609h-0.029
			c-0.261,0.38-0.79,0.72-1.479,0.72c-0.98,0-1.479-0.69-1.479-1.39c0-1.169,1.04-1.809,2.908-1.799v-0.1
			c0-0.4-0.109-1.128-1.099-1.118c-0.46,0-0.93,0.13-1.27,0.359l-0.2-0.59c0.4-0.251,0.989-0.421,1.6-0.421
			c1.489,0,1.85,1.011,1.85,1.979v1.811H54.924z M54.064,130.646c-0.96-0.02-2.05,0.15-2.05,1.09c0,0.58,0.38,0.84,0.819,0.84
			c0.64,0,1.05-0.4,1.189-0.81c0.03-0.09,0.04-0.191,0.04-0.28v-0.841H54.064z"/>
		<path fill="#D07327" d="M59.784,132.936c-0.229,0.11-0.739,0.281-1.389,0.281c-1.459,0-2.409-0.99-2.409-2.469
			c0-1.489,1.02-2.579,2.599-2.579c0.52,0,0.979,0.13,1.219,0.259l-0.199,0.671c-0.21-0.109-0.54-0.229-1.02-0.229
			c-1.109,0-1.709,0.829-1.709,1.829c0,1.119,0.72,1.808,1.679,1.808c0.501,0,0.83-0.119,1.079-0.229L59.784,132.936z"/>
		<path fill="#D07327" d="M60.815,126.02h0.88v3.019h0.021c0.14-0.251,0.36-0.479,0.629-0.62c0.26-0.161,0.569-0.251,0.899-0.251
			c0.649,0,1.689,0.4,1.689,2.069v2.878h-0.88v-2.788c0-0.779-0.29-1.429-1.119-1.429c-0.57,0-1.01,0.399-1.18,0.879
			c-0.05,0.119-0.06,0.25-0.06,0.419v2.919h-0.88L60.815,126.02L60.815,126.02z"/>
		<path fill="#D07327" d="M67.425,127.119v1.158h1.259v0.671h-1.259v2.598c0,0.601,0.17,0.939,0.659,0.939
			c0.24,0,0.38-0.02,0.51-0.061l0.04,0.67c-0.17,0.062-0.44,0.12-0.78,0.12c-0.41,0-0.739-0.14-0.949-0.37
			c-0.24-0.27-0.34-0.699-0.34-1.27v-2.628h-0.75v-0.67h0.75v-0.89L67.425,127.119z"/>
	</g>
	<g>
		<path fill="#D07327" d="M20.836,210.716v-0.54l0.69-0.669c1.659-1.579,2.419-2.419,2.419-3.399c0-0.659-0.31-1.27-1.279-1.27
			c-0.59,0-1.079,0.3-1.379,0.55l-0.28-0.618c0.44-0.37,1.089-0.661,1.839-0.661c1.389,0,1.979,0.961,1.979,1.89
			c0,1.199-0.871,2.168-2.239,3.487l-0.51,0.479v0.021h2.909v0.729H20.836L20.836,210.716z"/>
		<path fill="#D07327" d="M28.685,210.716v-1.779h-3.018v-0.569l2.897-4.147h0.95v4.037h0.909v0.68h-0.909v1.779L28.685,210.716
			L28.685,210.716z M28.685,208.257v-2.169c0-0.338,0.01-0.678,0.03-1.018h-0.03c-0.199,0.379-0.36,0.659-0.539,0.958l-1.589,2.209
			v0.02H28.685z"/>
		<path fill="#D07327" d="M33.415,207.697v0.64h-2.469v-0.64H33.415z"/>
		<path fill="#D07327" d="M34.576,209.656c0.391,0.24,0.95,0.43,1.549,0.43c0.89,0,1.409-0.46,1.409-1.139c0-0.63-0.36-1-1.269-1.34
			c-1.1-0.38-1.778-0.959-1.778-1.898c0-1.05,0.87-1.829,2.178-1.829c0.68,0,1.189,0.159,1.479,0.319l-0.24,0.72
			c-0.21-0.13-0.659-0.319-1.27-0.319c-0.919,0-1.27,0.549-1.27,1.009c0,0.62,0.41,0.93,1.339,1.289
			c1.14,0.451,1.71,0.99,1.71,1.979c0,1.029-0.759,1.938-2.349,1.938c-0.649,0-1.359-0.199-1.719-0.439L34.576,209.656z"/>
		<path fill="#D07327" d="M40.646,204.719v1.16h1.259v0.669h-1.259v2.598c0,0.601,0.17,0.939,0.659,0.939
			c0.24,0,0.38-0.02,0.51-0.06l0.04,0.671c-0.17,0.06-0.44,0.119-0.78,0.119c-0.41,0-0.74-0.14-0.95-0.368
			c-0.24-0.272-0.34-0.701-0.34-1.27v-2.63h-0.75v-0.669h0.75v-0.89L40.646,204.719z"/>
		<path fill="#D07327" d="M46.943,209.387c0,0.51,0.01,0.949,0.04,1.329h-0.78l-0.05-0.79h-0.02c-0.22,0.391-0.74,0.9-1.599,0.9
			c-0.76,0-1.669-0.43-1.669-2.119v-2.828h0.879v2.668c0,0.92,0.289,1.549,1.079,1.549c0.589,0,1-0.409,1.159-0.811
			c0.05-0.119,0.08-0.278,0.08-0.449v-2.957h0.879L46.943,209.387L46.943,209.387z"/>
		<path fill="#D07327" d="M48.406,207.188c0-0.51-0.009-0.909-0.04-1.309h0.78l0.05,0.789h0.021c0.239-0.449,0.799-0.9,1.599-0.9
			c0.67,0,1.709,0.4,1.709,2.059v2.889h-0.879v-2.788c0-0.78-0.29-1.439-1.12-1.439c-0.569,0-1.019,0.41-1.179,0.9
			c-0.04,0.109-0.061,0.27-0.061,0.41v2.918h-0.879v-3.529H48.406z"/>
		<path fill="#D07327" d="M58.134,203.62v5.848c0,0.429,0.009,0.919,0.04,1.249h-0.79l-0.039-0.841h-0.021
			c-0.27,0.541-0.849,0.95-1.638,0.95c-1.17,0-2.079-0.99-2.079-2.459c-0.01-1.619,0.999-2.598,2.169-2.598
			c0.749,0,1.249,0.35,1.459,0.729h0.02v-2.878L58.134,203.62L58.134,203.62z M57.254,207.848c0-0.12-0.01-0.26-0.039-0.38
			c-0.131-0.55-0.61-1.011-1.27-1.011c-0.91,0-1.449,0.8-1.449,1.859c0,0.989,0.489,1.799,1.429,1.799c0.59,0,1.13-0.399,1.29-1.06
			c0.028-0.109,0.039-0.229,0.039-0.37V207.848z"/>
		<path fill="#D07327" d="M60.096,208.457c0.02,1.18,0.77,1.669,1.649,1.669c0.629,0,1.019-0.109,1.34-0.251l0.16,0.631
			c-0.311,0.139-0.85,0.31-1.619,0.31c-1.479,0-2.379-0.99-2.379-2.439c0-1.459,0.869-2.608,2.278-2.608
			c1.579,0,1.989,1.39,1.989,2.278c0,0.181-0.009,0.311-0.03,0.41h-3.387V208.457z M62.664,207.828
			c0.009-0.561-0.229-1.43-1.209-1.43c-0.899,0-1.279,0.819-1.351,1.43H62.664z"/>
		<path fill="#D07327" d="M64.605,207.188c0-0.51-0.009-0.909-0.04-1.309h0.779l0.051,0.789h0.021c0.24-0.449,0.799-0.9,1.6-0.9
			c0.669,0,1.709,0.4,1.709,2.059v2.889h-0.88v-2.788c0-0.78-0.289-1.439-1.119-1.439c-0.569,0-1.02,0.41-1.18,0.9
			c-0.04,0.109-0.06,0.27-0.06,0.41v2.918h-0.88V207.188z"/>
	</g>
	<g>
		<path fill="#2E5DAD" d="M73.985,207.697v0.64h-2.469v-0.64H73.985z"/>
		<path fill="#2E5DAD" d="M75.257,204.079c0.38-0.09,0.989-0.149,1.589-0.149c0.869,0,1.43,0.149,1.838,0.489
			c0.35,0.259,0.57,0.659,0.57,1.188c0,0.66-0.44,1.23-1.139,1.479v0.03c0.64,0.149,1.389,0.68,1.389,1.679
			c0,0.58-0.229,1.019-0.579,1.35c-0.46,0.43-1.22,0.629-2.319,0.629c-0.6,0-1.059-0.04-1.349-0.079V204.079z M76.126,206.838h0.79
			c0.909,0,1.449-0.489,1.449-1.139c0-0.779-0.59-1.099-1.47-1.099c-0.399,0-0.63,0.029-0.77,0.06L76.126,206.838L76.126,206.838z
			 M76.126,210.057c0.18,0.028,0.42,0.039,0.729,0.039c0.899,0,1.729-0.329,1.729-1.309c0-0.911-0.79-1.3-1.74-1.3h-0.72
			L76.126,210.057L76.126,210.057z"/>
		<path fill="#2E5DAD" d="M84.055,209.557c0,0.42,0.021,0.829,0.07,1.159h-0.79l-0.08-0.61h-0.029
			c-0.261,0.381-0.79,0.721-1.479,0.721c-0.979,0-1.479-0.691-1.479-1.39c0-1.17,1.041-1.809,2.908-1.8v-0.101
			c0-0.399-0.109-1.128-1.099-1.118c-0.46,0-0.93,0.13-1.27,0.36l-0.2-0.591c0.4-0.25,0.989-0.419,1.6-0.419
			c1.489,0,1.849,1.01,1.849,1.978L84.055,209.557L84.055,209.557z M83.195,208.247c-0.96-0.02-2.049,0.15-2.049,1.09
			c0,0.579,0.38,0.839,0.818,0.839c0.64,0,1.05-0.399,1.189-0.81c0.03-0.09,0.04-0.19,0.04-0.279L83.195,208.247L83.195,208.247z"/>
		<path fill="#2E5DAD" d="M85.466,207.188c0-0.51-0.01-0.909-0.04-1.309h0.78l0.051,0.789h0.02c0.24-0.449,0.8-0.9,1.6-0.9
			c0.669,0,1.709,0.4,1.709,2.059v2.889h-0.88v-2.788c0-0.78-0.29-1.439-1.119-1.439c-0.57,0-1.02,0.41-1.18,0.9
			c-0.04,0.109-0.06,0.27-0.06,0.41v2.918h-0.88V207.188z"/>
		<path fill="#2E5DAD" d="M91.896,208.098h0.02c0.12-0.17,0.28-0.38,0.42-0.55l1.43-1.668h1.049l-1.869,1.988l2.129,2.849h-1.069
			l-1.659-2.318l-0.449,0.498v1.819h-0.88v-7.096h0.88v4.478H91.896z"/>
	</g>
	<g>
		<path fill="#5E5E5D" d="M21.496,142.99l-0.42,1.271h-0.54l1.373-4.043h0.63l1.379,4.043H23.36l-0.432-1.271H21.496z
			 M22.821,142.582l-0.402-1.163c-0.084-0.265-0.144-0.504-0.204-0.737h-0.018c-0.054,0.233-0.119,0.485-0.198,0.73l-0.396,1.17
			H22.821z"/>
		<path fill="#5E5E5D" d="M26.805,143.465c0,0.305,0.006,0.569,0.024,0.797h-0.468l-0.03-0.474h-0.012
			c-0.132,0.234-0.444,0.539-0.958,0.539c-0.456,0-1.001-0.258-1.001-1.27v-1.697h0.527v1.601c0,0.553,0.174,0.931,0.648,0.931
			c0.353,0,0.599-0.247,0.694-0.486c0.03-0.072,0.048-0.168,0.048-0.271v-1.774h0.527L26.805,143.465L26.805,143.465z"/>
		<path fill="#5E5E5D" d="M29.751,144.152c-0.138,0.066-0.444,0.168-0.834,0.168c-0.875,0-1.445-0.594-1.445-1.481
			c0-0.894,0.611-1.547,1.559-1.547c0.312,0,0.587,0.077,0.731,0.156l-0.119,0.401c-0.127-0.065-0.324-0.138-0.612-0.138
			c-0.667,0-1.026,0.498-1.026,1.098c0,0.671,0.433,1.085,1.007,1.085c0.3,0,0.498-0.071,0.647-0.138L29.751,144.152z"/>
		<path fill="#5E5E5D" d="M30.371,140.004h0.527v1.811h0.012c0.085-0.15,0.216-0.287,0.378-0.371c0.157-0.097,0.342-0.15,0.54-0.15
			c0.39,0,1.013,0.24,1.013,1.241v1.729h-0.527v-1.674c0-0.467-0.174-0.857-0.672-0.857c-0.342,0-0.605,0.24-0.708,0.527
			c-0.03,0.071-0.036,0.149-0.036,0.251v1.752h-0.527V140.004z"/>
		<path fill="#5E5E5D" d="M37.017,143.565c0,0.252,0.013,0.498,0.043,0.696h-0.474l-0.048-0.366H36.52
			c-0.156,0.228-0.474,0.432-0.888,0.432c-0.587,0-0.887-0.413-0.887-0.832c0-0.702,0.624-1.086,1.745-1.08v-0.06
			c0-0.24-0.066-0.678-0.66-0.672c-0.276,0-0.557,0.077-0.761,0.216l-0.12-0.354c0.24-0.149,0.594-0.252,0.959-0.252
			c0.894,0,1.109,0.606,1.109,1.188L37.017,143.565L37.017,143.565z M36.501,142.78c-0.576-0.013-1.229,0.09-1.229,0.653
			c0,0.348,0.228,0.504,0.492,0.504c0.384,0,0.629-0.24,0.713-0.486c0.017-0.055,0.024-0.113,0.024-0.168V142.78z"/>
		<path fill="#5E5E5D" d="M40.293,143.465c0,0.305,0.006,0.569,0.025,0.797H39.85l-0.03-0.474h-0.012
			c-0.132,0.234-0.444,0.539-0.959,0.539c-0.455,0-1.001-0.258-1.001-1.27v-1.697h0.527v1.601c0,0.553,0.174,0.931,0.648,0.931
			c0.354,0,0.6-0.247,0.695-0.486c0.03-0.072,0.048-0.168,0.048-0.271v-1.774h0.527V143.465z"/>
		<path fill="#5E5E5D" d="M41.17,144.262v-2.711c0-0.684,0.162-1.067,0.433-1.307c0.222-0.205,0.51-0.307,0.87-0.307
			c0.576,0,1.073,0.353,1.073,1.014c0,0.203-0.072,0.39-0.138,0.493c-0.27,0.112-0.432,0.281-0.432,0.485s0.12,0.329,0.306,0.521
			c0.24,0.239,0.485,0.49,0.485,0.923c0,0.564-0.407,0.954-1.072,0.954c-0.229,0-0.463-0.036-0.637-0.127l0.096-0.402
			c0.156,0.077,0.323,0.12,0.503,0.12c0.384,0,0.588-0.229,0.588-0.503c0-0.253-0.114-0.421-0.323-0.618
			c-0.252-0.239-0.468-0.468-0.468-0.799c0-0.312,0.186-0.569,0.534-0.737c0.036-0.07,0.054-0.161,0.054-0.258
			c0-0.413-0.258-0.653-0.624-0.653c-0.462,0-0.72,0.324-0.72,1.177v2.734L41.17,144.262L41.17,144.262z"/>
		<path fill="#5E5E5D" d="M44.758,142.906c0.012,0.707,0.461,1.001,0.989,1.001c0.378,0,0.612-0.065,0.804-0.149l0.096,0.377
			c-0.186,0.084-0.51,0.187-0.971,0.187c-0.888,0-1.427-0.594-1.427-1.464c0-0.875,0.521-1.564,1.367-1.564
			c0.947,0,1.193,0.834,1.193,1.367c0,0.107-0.006,0.186-0.018,0.246L44.758,142.906L44.758,142.906z M46.299,142.528
			c0.006-0.337-0.138-0.857-0.726-0.857c-0.54,0-0.769,0.491-0.811,0.857H46.299z"/>
		<path fill="#5E5E5D" d="M47.464,142.264c0-0.342-0.006-0.636-0.024-0.905h0.462l0.024,0.569h0.018
			c0.132-0.39,0.456-0.636,0.811-0.636c0.054,0,0.096,0.006,0.144,0.012v0.498c-0.055-0.006-0.108-0.012-0.18-0.012
			c-0.372,0-0.635,0.281-0.708,0.672c-0.013,0.077-0.018,0.161-0.018,0.244v1.554h-0.527L47.464,142.264L47.464,142.264z"/>
		<path fill="#5E5E5D" d="M49.426,140.004h0.528v1.811h0.012c0.084-0.15,0.216-0.287,0.378-0.371c0.155-0.097,0.342-0.15,0.539-0.15
			c0.391,0,1.014,0.24,1.014,1.241v1.729H51.37v-1.674c0-0.467-0.174-0.857-0.672-0.857c-0.342,0-0.605,0.24-0.708,0.527
			c-0.029,0.071-0.036,0.149-0.036,0.251v1.752h-0.527v-4.259H49.426z"/>
		<path fill="#5E5E5D" d="M54.801,143.565c0,0.252,0.013,0.498,0.042,0.696h-0.474l-0.047-0.366h-0.018
			c-0.156,0.228-0.475,0.432-0.888,0.432c-0.588,0-0.888-0.413-0.888-0.832c0-0.702,0.624-1.086,1.745-1.08v-0.06
			c0-0.24-0.066-0.678-0.66-0.672c-0.275,0-0.558,0.077-0.761,0.216l-0.12-0.354c0.239-0.149,0.594-0.252,0.959-0.252
			c0.894,0,1.109,0.606,1.109,1.188v1.085H54.801z M54.285,142.78c-0.575-0.013-1.229,0.09-1.229,0.653
			c0,0.348,0.229,0.504,0.492,0.504c0.384,0,0.63-0.24,0.714-0.486c0.018-0.055,0.023-0.113,0.023-0.168V142.78z"/>
		<path fill="#5E5E5D" d="M55.647,140.004h0.527v4.257h-0.527V140.004z"/>
		<path fill="#5E5E5D" d="M57.063,140.004h0.528v1.816h0.012c0.187-0.324,0.521-0.527,0.989-0.527c0.72,0,1.224,0.599,1.224,1.475
			c0,1.045-0.66,1.56-1.308,1.56c-0.42,0-0.749-0.162-0.972-0.546h-0.013l-0.03,0.479H57.04c0.018-0.198,0.023-0.492,0.023-0.75
			V140.004z M57.592,143.098c0,0.066,0.006,0.133,0.018,0.191c0.102,0.367,0.414,0.618,0.792,0.618c0.557,0,0.881-0.451,0.881-1.115
			c0-0.588-0.3-1.085-0.863-1.085c-0.359,0-0.695,0.251-0.799,0.647c-0.017,0.065-0.028,0.138-0.028,0.221v0.522H57.592z"/>
		<path fill="#5E5E5D" d="M64.179,143.465c0,0.305,0.006,0.569,0.024,0.797h-0.468l-0.03-0.474h-0.012
			c-0.132,0.234-0.444,0.539-0.96,0.539c-0.455,0-1.001-0.258-1.001-1.27v-1.697h0.527v1.601c0,0.553,0.175,0.931,0.648,0.931
			c0.353,0,0.599-0.247,0.696-0.486c0.029-0.072,0.048-0.168,0.048-0.271v-1.774h0.527v2.103H64.179z"/>
		<path fill="#5E5E5D" d="M65.056,142.145c0-0.307-0.006-0.546-0.023-0.785H65.5l0.029,0.473h0.013
			c0.144-0.27,0.479-0.538,0.959-0.538c0.402,0,1.025,0.24,1.025,1.235v1.732h-0.527v-1.673c0-0.467-0.174-0.863-0.672-0.863
			c-0.342,0-0.611,0.246-0.708,0.539c-0.023,0.066-0.036,0.161-0.036,0.246v1.751h-0.527V142.145z"/>
		<path fill="#5E5E5D" d="M68.314,143.722c0.161,0.096,0.438,0.204,0.701,0.204c0.378,0,0.558-0.187,0.558-0.433
			c0-0.252-0.149-0.385-0.533-0.527c-0.528-0.193-0.774-0.479-0.774-0.822c0-0.467,0.384-0.852,1.002-0.852
			c0.294,0,0.552,0.077,0.708,0.18l-0.127,0.378c-0.114-0.066-0.323-0.168-0.594-0.168c-0.313,0-0.48,0.18-0.48,0.396
			c0,0.24,0.168,0.348,0.546,0.498c0.497,0.186,0.761,0.438,0.761,0.868c0,0.516-0.401,0.876-1.079,0.876
			c-0.318,0-0.612-0.084-0.815-0.204L68.314,143.722z"/>
		<path fill="#5E5E5D" d="M71.062,142.906c0.013,0.707,0.462,1.001,0.99,1.001c0.377,0,0.611-0.065,0.803-0.149l0.096,0.377
			c-0.187,0.084-0.51,0.187-0.972,0.187c-0.888,0-1.428-0.594-1.428-1.464c0-0.875,0.522-1.564,1.367-1.564
			c0.948,0,1.193,0.834,1.193,1.367c0,0.107-0.006,0.186-0.018,0.246L71.062,142.906L71.062,142.906z M72.603,142.528
			c0.007-0.337-0.138-0.857-0.726-0.857c-0.539,0-0.768,0.491-0.811,0.857H72.603z"/>
		<path fill="#5E5E5D" d="M73.768,142.264c0-0.342-0.006-0.636-0.023-0.905h0.462l0.023,0.569h0.019
			c0.132-0.39,0.455-0.636,0.811-0.636c0.054,0,0.096,0.006,0.144,0.012v0.498c-0.054-0.006-0.108-0.012-0.18-0.012
			c-0.372,0-0.636,0.281-0.708,0.672c-0.012,0.077-0.018,0.161-0.018,0.244v1.554h-0.528L73.768,142.264L73.768,142.264z"/>
		<path fill="#5E5E5D" d="M75.903,142.906c0.013,0.707,0.462,1.001,0.99,1.001c0.377,0,0.611-0.065,0.803-0.149l0.096,0.377
			c-0.187,0.084-0.51,0.187-0.972,0.187c-0.888,0-1.428-0.594-1.428-1.464c0-0.875,0.522-1.564,1.367-1.564
			c0.948,0,1.193,0.834,1.193,1.367c0,0.107-0.006,0.186-0.018,0.246L75.903,142.906L75.903,142.906z M77.444,142.528
			c0.007-0.337-0.138-0.857-0.726-0.857c-0.539,0-0.768,0.491-0.81,0.857H77.444z"/>
		<path fill="#5E5E5D" d="M78.609,142.264c0-0.342-0.006-0.636-0.023-0.905h0.463l0.023,0.569h0.019
			c0.132-0.39,0.455-0.636,0.81-0.636c0.054,0,0.096,0.006,0.144,0.012v0.498c-0.054-0.006-0.108-0.012-0.18-0.012
			c-0.372,0-0.636,0.281-0.708,0.672c-0.012,0.077-0.018,0.161-0.018,0.244v1.554H78.61v-1.997H78.609z"/>
		<path fill="#5E5E5D" d="M81.796,143.625c0.234,0.145,0.57,0.258,0.93,0.258c0.533,0,0.846-0.274,0.846-0.684
			c0-0.376-0.216-0.599-0.762-0.803c-0.66-0.229-1.067-0.576-1.067-1.139c0-0.63,0.521-1.097,1.308-1.097
			c0.407,0,0.713,0.096,0.887,0.191l-0.145,0.433c-0.126-0.078-0.395-0.191-0.761-0.191c-0.552,0-0.762,0.329-0.762,0.605
			c0,0.371,0.246,0.557,0.804,0.773c0.684,0.27,1.025,0.595,1.025,1.188c0,0.618-0.455,1.163-1.409,1.163
			c-0.39,0-0.814-0.12-1.031-0.266L81.796,143.625z"/>
		<path fill="#5E5E5D" d="M85.102,142.906c0.013,0.707,0.462,1.001,0.988,1.001c0.378,0,0.612-0.065,0.804-0.149l0.097,0.377
			c-0.187,0.084-0.51,0.187-0.972,0.187c-0.888,0-1.428-0.594-1.428-1.464c0-0.875,0.522-1.564,1.366-1.564
			c0.948,0,1.193,0.834,1.193,1.367c0,0.107-0.006,0.186-0.018,0.246L85.102,142.906L85.102,142.906z M86.643,142.528
			c0.007-0.337-0.138-0.857-0.726-0.857c-0.538,0-0.768,0.491-0.81,0.857H86.643z"/>
		<path fill="#5E5E5D" d="M87.808,142.264c0-0.342-0.006-0.636-0.023-0.905h0.462l0.023,0.569h0.019
			c0.132-0.39,0.455-0.636,0.809-0.636c0.055,0,0.097,0.006,0.145,0.012v0.498c-0.055-0.006-0.108-0.012-0.18-0.012
			c-0.372,0-0.636,0.281-0.709,0.672c-0.012,0.077-0.017,0.161-0.017,0.244v1.554h-0.528L87.808,142.264L87.808,142.264z"/>
		<path fill="#5E5E5D" d="M89.974,141.359l0.569,1.625c0.096,0.27,0.174,0.51,0.233,0.75h0.018c0.066-0.24,0.15-0.479,0.246-0.75
			l0.563-1.625h0.552l-1.139,2.902h-0.504l-1.105-2.902H89.974z"/>
		<path fill="#5E5E5D" d="M92.907,140.867c-0.191,0-0.317-0.149-0.317-0.323c0-0.187,0.132-0.331,0.329-0.331
			c0.192,0,0.324,0.146,0.324,0.331c0,0.174-0.126,0.323-0.33,0.323H92.907z M92.655,144.262v-2.902h0.528v2.902H92.655z"/>
		<path fill="#5E5E5D" d="M96.129,144.152c-0.138,0.066-0.444,0.168-0.834,0.168c-0.875,0-1.445-0.594-1.445-1.481
			c0-0.894,0.612-1.547,1.56-1.547c0.312,0,0.588,0.077,0.731,0.156l-0.12,0.401c-0.126-0.065-0.323-0.138-0.61-0.138
			c-0.667,0-1.026,0.498-1.026,1.098c0,0.671,0.433,1.085,1.007,1.085c0.3,0,0.498-0.071,0.648-0.138L96.129,144.152z"/>
		<path fill="#5E5E5D" d="M97.047,142.906c0.013,0.707,0.462,1.001,0.988,1.001c0.379,0,0.612-0.065,0.804-0.149l0.097,0.377
			c-0.187,0.084-0.51,0.187-0.972,0.187c-0.888,0-1.428-0.594-1.428-1.464c0-0.875,0.522-1.564,1.367-1.564
			c0.947,0,1.192,0.834,1.192,1.367c0,0.107-0.006,0.186-0.017,0.246L97.047,142.906L97.047,142.906z M98.588,142.528
			c0.006-0.337-0.138-0.857-0.727-0.857c-0.538,0-0.768,0.491-0.81,0.857H98.588z"/>
		<path fill="#5E5E5D" d="M101.097,142.45v0.383h-1.481v-0.383H101.097z"/>
	</g>
	<g>
		<path fill="#5E5E5D" d="M20.495,151.155l1.313-1.71c0.131-0.161,0.246-0.3,0.384-0.455v-0.013h-1.577v-0.419h2.212v0.33
			l-1.301,1.691c-0.12,0.155-0.24,0.305-0.372,0.449v0.012h1.698v0.421h-2.357L20.495,151.155L20.495,151.155z"/>
		<path fill="#5E5E5D" d="M23.692,150.105c0.012,0.708,0.461,1.002,0.989,1.002c0.378,0,0.612-0.066,0.804-0.15l0.096,0.379
			c-0.186,0.084-0.51,0.185-0.971,0.185c-0.888,0-1.427-0.593-1.427-1.463c0-0.876,0.521-1.565,1.367-1.565
			c0.947,0,1.193,0.834,1.193,1.367c0,0.108-0.006,0.187-0.018,0.246L23.692,150.105L23.692,150.105z M25.233,149.729
			c0.006-0.335-0.138-0.858-0.726-0.858c-0.54,0-0.768,0.493-0.811,0.858H25.233z"/>
		<path fill="#5E5E5D" d="M26.65,148.066c-0.192,0-0.318-0.149-0.318-0.323c0-0.187,0.132-0.329,0.33-0.329
			c0.192,0,0.324,0.144,0.324,0.329c0,0.175-0.127,0.323-0.331,0.323H26.65z M26.398,151.46v-2.902h0.527v2.902H26.398z"/>
		<path fill="#5E5E5D" d="M28.438,147.863v0.696h0.756v0.402h-0.756v1.559c0,0.359,0.102,0.563,0.396,0.563
			c0.144,0,0.228-0.013,0.306-0.036l0.024,0.402c-0.102,0.036-0.264,0.071-0.468,0.071c-0.246,0-0.443-0.084-0.569-0.222
			c-0.144-0.162-0.204-0.42-0.204-0.761v-1.577h-0.45v-0.402h0.45v-0.533L28.438,147.863z"/>
		<path fill="#5E5E5D" d="M30.088,150.105c0.012,0.708,0.461,1.002,0.988,1.002c0.378,0,0.612-0.066,0.804-0.15l0.096,0.379
			c-0.187,0.084-0.51,0.185-0.971,0.185c-0.888,0-1.427-0.593-1.427-1.463c0-0.876,0.521-1.565,1.367-1.565
			c0.947,0,1.193,0.834,1.193,1.367c0,0.108-0.006,0.187-0.018,0.246L30.088,150.105L30.088,150.105z M31.629,149.729
			c0.006-0.335-0.138-0.858-0.727-0.858c-0.539,0-0.768,0.493-0.81,0.858H31.629z"/>
		<path fill="#5E5E5D" d="M32.794,149.344c0-0.307-0.006-0.546-0.024-0.786h0.467l0.03,0.474h0.012c0.145-0.27,0.48-0.54,0.959-0.54
			c0.402,0,1.026,0.24,1.026,1.236v1.732h-0.527v-1.672c0-0.468-0.174-0.864-0.672-0.864c-0.342,0-0.612,0.247-0.708,0.54
			c-0.025,0.066-0.036,0.162-0.036,0.246v1.751h-0.527V149.344z"/>
		<path fill="#5E5E5D" d="M37.396,147.203h0.527v1.817h0.012c0.187-0.324,0.521-0.528,0.989-0.528c0.72,0,1.224,0.599,1.224,1.476
			c0,1.044-0.66,1.561-1.308,1.561c-0.419,0-0.75-0.163-0.971-0.546h-0.012l-0.03,0.478h-0.456c0.018-0.198,0.024-0.492,0.024-0.75
			v-3.508H37.396z M37.924,150.297c0,0.066,0.006,0.134,0.018,0.193c0.102,0.365,0.414,0.618,0.792,0.618
			c0.557,0,0.882-0.45,0.882-1.115c0-0.588-0.3-1.086-0.863-1.086c-0.361,0-0.697,0.251-0.797,0.648
			c-0.018,0.065-0.03,0.137-0.03,0.221v0.522H37.924z"/>
		<path fill="#5E5E5D" d="M41.11,150.105c0.012,0.708,0.461,1.002,0.988,1.002c0.378,0,0.612-0.066,0.804-0.15l0.096,0.379
			c-0.187,0.084-0.51,0.185-0.971,0.185c-0.888,0-1.427-0.593-1.427-1.463c0-0.876,0.521-1.565,1.367-1.565
			c0.947,0,1.192,0.834,1.192,1.367c0,0.108-0.006,0.187-0.017,0.246L41.11,150.105L41.11,150.105z M42.651,149.729
			c0.006-0.335-0.138-0.858-0.726-0.858c-0.54,0-0.768,0.493-0.81,0.858H42.651z"/>
		<path fill="#5E5E5D" d="M43.816,149.464c0-0.342-0.006-0.636-0.025-0.905h0.463l0.024,0.571h0.018
			c0.132-0.391,0.455-0.637,0.81-0.637c0.054,0,0.096,0.006,0.144,0.012v0.498c-0.054-0.006-0.108-0.012-0.179-0.012
			c-0.372,0-0.637,0.281-0.708,0.672c-0.012,0.077-0.018,0.161-0.018,0.245v1.553h-0.527L43.816,149.464L43.816,149.464z"/>
		<path fill="#5E5E5D" d="M47.703,150.766c0,0.251,0.013,0.497,0.042,0.694h-0.474l-0.048-0.365h-0.017
			c-0.157,0.229-0.474,0.433-0.888,0.433c-0.588,0-0.887-0.414-0.887-0.835c0-0.701,0.624-1.085,1.745-1.079v-0.059
			c0-0.24-0.066-0.678-0.66-0.672c-0.276,0-0.558,0.078-0.762,0.215l-0.119-0.354c0.24-0.149,0.594-0.251,0.958-0.251
			c0.894,0,1.109,0.605,1.109,1.188v1.086H47.703z M47.187,149.98c-0.576-0.013-1.229,0.09-1.229,0.652
			c0,0.35,0.228,0.505,0.492,0.505c0.384,0,0.629-0.239,0.712-0.486c0.018-0.054,0.025-0.114,0.025-0.168V149.98z"/>
		<path fill="#5E5E5D" d="M49.186,147.863v0.696h0.756v0.402h-0.756v1.559c0,0.359,0.103,0.563,0.396,0.563
			c0.145,0,0.229-0.013,0.307-0.036l0.023,0.402c-0.102,0.036-0.264,0.071-0.468,0.071c-0.246,0-0.443-0.084-0.569-0.222
			c-0.145-0.162-0.204-0.42-0.204-0.761v-1.577h-0.451v-0.402h0.451v-0.533L49.186,147.863z"/>
		<path fill="#5E5E5D" d="M50.836,150.105c0.013,0.708,0.463,1.002,0.989,1.002c0.378,0,0.612-0.066,0.804-0.15l0.097,0.379
			c-0.187,0.084-0.51,0.185-0.973,0.185c-0.888,0-1.427-0.593-1.427-1.463c0-0.876,0.522-1.565,1.366-1.565
			c0.948,0,1.193,0.834,1.193,1.367c0,0.108-0.006,0.187-0.018,0.246L50.836,150.105L50.836,150.105z M52.377,149.729
			c0.007-0.335-0.138-0.858-0.726-0.858c-0.538,0-0.768,0.493-0.81,0.858H52.377z"/>
		<path fill="#5E5E5D" d="M53.542,149.344c0-0.307-0.006-0.546-0.023-0.786h0.467l0.029,0.474h0.013
			c0.145-0.27,0.479-0.54,0.959-0.54c0.402,0,1.026,0.24,1.026,1.236v1.732h-0.527v-1.672c0-0.468-0.174-0.864-0.672-0.864
			c-0.342,0-0.61,0.247-0.708,0.54c-0.023,0.066-0.035,0.162-0.035,0.246v1.751h-0.528L53.542,149.344L53.542,149.344z"/>
		<path fill="#5E5E5D" d="M58.354,148.558l0.39,1.469c0.078,0.324,0.157,0.63,0.21,0.93h0.019c0.065-0.293,0.161-0.604,0.258-0.924
			l0.474-1.476h0.443l0.45,1.452c0.107,0.342,0.191,0.653,0.258,0.947h0.018c0.048-0.293,0.126-0.6,0.222-0.941l0.414-1.457h0.521
			l-0.936,2.902h-0.478l-0.444-1.385c-0.103-0.33-0.187-0.618-0.258-0.96H59.9c-0.071,0.348-0.161,0.653-0.264,0.965l-0.468,1.379
			h-0.478l-0.875-2.902H58.354z"/>
		<path fill="#5E5E5D" d="M62.812,148.066c-0.191,0-0.317-0.149-0.317-0.323c0-0.187,0.132-0.329,0.329-0.329
			c0.192,0,0.324,0.144,0.324,0.329c0,0.175-0.127,0.323-0.331,0.323H62.812z M62.56,151.46v-2.902h0.528v2.902H62.56z"/>
		<path fill="#5E5E5D" d="M63.964,149.464c0-0.342-0.006-0.636-0.023-0.905h0.462l0.023,0.571h0.019
			c0.132-0.391,0.455-0.637,0.809-0.637c0.055,0,0.097,0.006,0.145,0.012v0.498c-0.054-0.006-0.108-0.012-0.179-0.012
			c-0.372,0-0.637,0.281-0.709,0.672c-0.012,0.077-0.017,0.161-0.017,0.245v1.553h-0.528L63.964,149.464L63.964,149.464z"/>
		<path fill="#5E5E5D" d="M67.149,150.825c0.233,0.144,0.569,0.258,0.93,0.258c0.533,0,0.846-0.275,0.846-0.683
			c0-0.378-0.217-0.6-0.762-0.804c-0.66-0.229-1.067-0.575-1.067-1.139c0-0.629,0.52-1.098,1.308-1.098
			c0.406,0,0.712,0.096,0.886,0.191l-0.144,0.432c-0.126-0.078-0.395-0.191-0.761-0.191c-0.552,0-0.762,0.331-0.762,0.605
			c0,0.372,0.246,0.558,0.804,0.773c0.684,0.27,1.025,0.594,1.025,1.188c0,0.618-0.456,1.163-1.409,1.163
			c-0.39,0-0.815-0.119-1.031-0.264L67.149,150.825z"/>
		<path fill="#5E5E5D" d="M70.407,148.066c-0.191,0-0.317-0.149-0.317-0.323c0-0.187,0.132-0.329,0.329-0.329
			c0.192,0,0.324,0.144,0.324,0.329c0,0.175-0.127,0.323-0.331,0.323H70.407z M70.155,151.46v-2.902h0.528v2.902H70.155z"/>
		<path fill="#5E5E5D" d="M71.859,150.105c0.013,0.708,0.462,1.002,0.989,1.002c0.378,0,0.612-0.066,0.804-0.15l0.096,0.379
			c-0.187,0.084-0.51,0.185-0.972,0.185c-0.888,0-1.428-0.593-1.428-1.463c0-0.876,0.522-1.565,1.367-1.565
			c0.948,0,1.193,0.834,1.193,1.367c0,0.108-0.006,0.187-0.018,0.246L71.859,150.105L71.859,150.105z M73.4,149.729
			c0.007-0.335-0.138-0.858-0.726-0.858c-0.539,0-0.769,0.493-0.811,0.858H73.4z"/>
		<path fill="#5E5E5D" d="M78.319,151.035c0,0.672-0.138,1.073-0.414,1.331c-0.288,0.259-0.696,0.348-1.062,0.348
			c-0.348,0-0.731-0.084-0.965-0.239l0.132-0.408c0.191,0.126,0.492,0.234,0.852,0.234c0.54,0,0.936-0.282,0.936-1.02v-0.318h-0.012
			c-0.157,0.271-0.474,0.486-0.924,0.486c-0.72,0-1.235-0.611-1.235-1.423c0-0.981,0.642-1.535,1.313-1.535
			c0.504,0,0.773,0.258,0.905,0.505h0.013l0.017-0.438h0.468c-0.018,0.202-0.024,0.443-0.024,0.791L78.319,151.035L78.319,151.035z
			 M77.792,149.697c0-0.084-0.006-0.161-0.03-0.233c-0.096-0.312-0.348-0.563-0.737-0.563c-0.504,0-0.863,0.426-0.863,1.105
			c0,0.563,0.294,1.042,0.857,1.042c0.33,0,0.624-0.202,0.731-0.545c0.03-0.084,0.042-0.187,0.042-0.282V149.697z"/>
		<path fill="#5E5E5D" d="M79.491,150.105c0.013,0.708,0.462,1.002,0.99,1.002c0.377,0,0.61-0.066,0.803-0.15l0.097,0.379
			c-0.187,0.084-0.51,0.185-0.972,0.185c-0.888,0-1.428-0.593-1.428-1.463c0-0.876,0.522-1.565,1.367-1.565
			c0.947,0,1.192,0.834,1.192,1.367c0,0.108-0.006,0.187-0.018,0.246L79.491,150.105L79.491,150.105z M81.032,149.729
			c0.006-0.335-0.138-0.858-0.727-0.858c-0.538,0-0.768,0.493-0.81,0.858H81.032z"/>
		<path fill="#5E5E5D" d="M82.197,149.464c0-0.342-0.006-0.636-0.023-0.905h0.462l0.023,0.571h0.019
			c0.132-0.391,0.455-0.637,0.811-0.637c0.054,0,0.096,0.006,0.144,0.012v0.498c-0.055-0.006-0.108-0.012-0.18-0.012
			c-0.372,0-0.636,0.281-0.708,0.672c-0.013,0.077-0.018,0.161-0.018,0.245v1.553h-0.528L82.197,149.464L82.197,149.464z"/>
		<path fill="#5E5E5D" d="M84.159,149.344c0-0.307-0.006-0.546-0.023-0.786h0.468l0.029,0.474h0.013
			c0.144-0.27,0.479-0.54,0.959-0.54c0.402,0,1.025,0.24,1.025,1.236v1.732h-0.527v-1.672c0-0.468-0.175-0.864-0.672-0.864
			c-0.342,0-0.611,0.247-0.709,0.54c-0.023,0.066-0.035,0.162-0.035,0.246v1.751H84.16L84.159,149.344L84.159,149.344z"/>
		<path fill="#5E5E5D" d="M87.789,150.105c0.013,0.708,0.462,1.002,0.988,1.002c0.378,0,0.612-0.066,0.804-0.15l0.097,0.379
			c-0.187,0.084-0.51,0.185-0.972,0.185c-0.888,0-1.428-0.593-1.428-1.463c0-0.876,0.522-1.565,1.367-1.565
			c0.947,0,1.192,0.834,1.192,1.367c0,0.108-0.006,0.187-0.018,0.246L87.789,150.105L87.789,150.105z M89.33,149.729
			c0.006-0.335-0.138-0.858-0.727-0.858c-0.538,0-0.768,0.493-0.81,0.858H89.33z"/>
		<path fill="#5E5E5D" d="M90.844,149.41c-0.204,0-0.349-0.162-0.349-0.372c0-0.221,0.15-0.378,0.354-0.378
			c0.216,0,0.353,0.157,0.353,0.378c0,0.21-0.138,0.372-0.353,0.372H90.844z M90.844,151.527c-0.204,0-0.349-0.162-0.349-0.372
			c0-0.222,0.15-0.378,0.354-0.378c0.216,0,0.353,0.156,0.353,0.378c0,0.21-0.138,0.372-0.353,0.372H90.844z"/>
	</g>
	<g>
		<path fill="#5E5E5D" d="M24.249,164.085c-0.03-0.557-0.066-1.246-0.066-1.744H24.17c-0.145,0.468-0.306,0.984-0.509,1.535
			l-0.714,1.961h-0.396l-0.66-1.925c-0.191-0.569-0.348-1.09-0.462-1.57h-0.012c-0.012,0.505-0.042,1.182-0.078,1.787l-0.108,1.733
			h-0.498l0.282-4.042h0.666l0.689,1.955c0.168,0.498,0.3,0.947,0.408,1.367h0.012c0.108-0.407,0.252-0.857,0.433-1.367l0.72-1.955
			h0.667l0.251,4.042h-0.516L24.249,164.085z"/>
		<path fill="#5E5E5D" d="M26.83,165.928c-0.78,0-1.392-0.576-1.392-1.493c0-0.972,0.642-1.542,1.439-1.542
			c0.833,0,1.397,0.606,1.397,1.487c0,1.08-0.75,1.548-1.439,1.548H26.83z M26.854,165.531c0.504,0,0.881-0.474,0.881-1.132
			c0-0.493-0.246-1.109-0.869-1.109c-0.618,0-0.888,0.575-0.888,1.127c0,0.636,0.36,1.115,0.87,1.115H26.854L26.854,165.531z"/>
		<path fill="#5E5E5D" d="M28.942,163.744c0-0.306-0.006-0.545-0.024-0.784h0.468l0.03,0.474h0.012c0.144-0.27,0.48-0.54,0.959-0.54
			c0.402,0,1.025,0.24,1.025,1.235v1.733h-0.527v-1.673c0-0.468-0.174-0.863-0.672-0.863c-0.342,0-0.612,0.245-0.709,0.539
			c-0.024,0.066-0.036,0.162-0.036,0.246v1.751h-0.527V163.744z"/>
		<path fill="#5E5E5D" d="M32.908,162.264v0.696h0.756v0.4h-0.756v1.561c0,0.359,0.102,0.563,0.396,0.563
			c0.144,0,0.228-0.013,0.306-0.036l0.024,0.402c-0.102,0.036-0.264,0.071-0.468,0.071c-0.246,0-0.443-0.084-0.569-0.221
			c-0.144-0.163-0.204-0.421-0.204-0.762v-1.577h-0.45v-0.402h0.45v-0.534L32.908,162.264z"/>
		<path fill="#5E5E5D" d="M36.303,165.166c0,0.252,0.013,0.497,0.043,0.696h-0.474l-0.048-0.367h-0.017
			c-0.157,0.229-0.474,0.433-0.888,0.433c-0.588,0-0.887-0.414-0.887-0.833c0-0.701,0.624-1.085,1.745-1.079v-0.061
			c0-0.239-0.066-0.678-0.66-0.671c-0.276,0-0.558,0.077-0.762,0.216l-0.119-0.354c0.24-0.149,0.594-0.251,0.958-0.251
			c0.894,0,1.109,0.606,1.109,1.188v1.085H36.303z M35.787,164.38c-0.576-0.011-1.229,0.09-1.229,0.655
			c0,0.348,0.228,0.503,0.492,0.503c0.384,0,0.629-0.239,0.713-0.486c0.017-0.054,0.024-0.114,0.024-0.168V164.38z"/>
		<path fill="#5E5E5D" d="M39.633,165.436c0,0.672-0.138,1.073-0.414,1.331c-0.288,0.259-0.696,0.349-1.062,0.349
			c-0.348,0-0.732-0.085-0.965-0.24l0.132-0.408c0.191,0.126,0.492,0.234,0.852,0.234c0.54,0,0.936-0.282,0.936-1.02v-0.318H39.1
			c-0.157,0.271-0.474,0.486-0.924,0.486c-0.72,0-1.234-0.612-1.234-1.423c0-0.983,0.641-1.535,1.313-1.535
			c0.504,0,0.774,0.258,0.906,0.504h0.012l0.018-0.438h0.468c-0.018,0.204-0.025,0.443-0.025,0.791v1.686H39.633z M39.105,164.099
			c0-0.084-0.006-0.162-0.03-0.234c-0.096-0.312-0.348-0.563-0.738-0.563c-0.503,0-0.863,0.426-0.863,1.105
			c0,0.563,0.293,1.042,0.857,1.042c0.33,0,0.624-0.202,0.731-0.545c0.03-0.084,0.042-0.187,0.042-0.282L39.105,164.099
			L39.105,164.099z"/>
		<path fill="#5E5E5D" d="M41.776,161.604h0.527v1.817h0.012c0.187-0.324,0.521-0.528,0.989-0.528c0.72,0,1.224,0.6,1.224,1.476
			c0,1.044-0.66,1.561-1.308,1.561c-0.419,0-0.75-0.163-0.971-0.546h-0.012l-0.03,0.478h-0.456c0.018-0.198,0.025-0.492,0.025-0.75
			L41.776,161.604L41.776,161.604z M42.304,164.697c0,0.066,0.006,0.133,0.017,0.191c0.102,0.366,0.414,0.618,0.792,0.618
			c0.558,0,0.882-0.451,0.882-1.115c0-0.588-0.3-1.086-0.863-1.086c-0.361,0-0.696,0.252-0.797,0.647
			c-0.018,0.066-0.03,0.139-0.03,0.222L42.304,164.697L42.304,164.697z"/>
		<path fill="#5E5E5D" d="M45.442,162.467c-0.192,0-0.318-0.149-0.318-0.323c0-0.187,0.132-0.33,0.33-0.33
			c0.192,0,0.324,0.144,0.324,0.33c0,0.174-0.126,0.323-0.33,0.323H45.442z M45.19,165.861v-2.902h0.527v2.902H45.19z"/>
		<path fill="#5E5E5D" d="M46.522,165.321c0.162,0.097,0.438,0.204,0.702,0.204c0.378,0,0.557-0.185,0.557-0.432
			c0-0.251-0.149-0.384-0.534-0.527c-0.528-0.192-0.773-0.481-0.773-0.822c0-0.468,0.384-0.852,1.001-0.852
			c0.294,0,0.552,0.079,0.708,0.182l-0.127,0.376c-0.114-0.065-0.323-0.167-0.594-0.167c-0.312,0-0.479,0.18-0.479,0.396
			c0,0.239,0.168,0.348,0.546,0.497c0.497,0.187,0.761,0.438,0.761,0.87c0,0.517-0.402,0.876-1.079,0.876
			c-0.318,0-0.612-0.085-0.816-0.204L46.522,165.321z"/>
		<path fill="#5E5E5D" d="M50.254,161.819h2.178v0.438h-1.649v1.344h1.523v0.432h-1.523v1.828h-0.527v-4.042H50.254z"/>
		<path fill="#5E5E5D" d="M53.044,163.864c0-0.342-0.006-0.636-0.023-0.905h0.462l0.023,0.569h0.019
			c0.132-0.39,0.455-0.636,0.809-0.636c0.055,0,0.097,0.007,0.145,0.013v0.497c-0.055-0.006-0.108-0.013-0.18-0.013
			c-0.372,0-0.636,0.282-0.708,0.672c-0.013,0.078-0.018,0.162-0.018,0.247v1.553h-0.528L53.044,163.864L53.044,163.864z"/>
		<path fill="#5E5E5D" d="M55.18,164.506c0.013,0.708,0.462,1.002,0.989,1.002c0.378,0,0.612-0.066,0.804-0.149l0.096,0.378
			c-0.187,0.084-0.51,0.185-0.972,0.185c-0.888,0-1.428-0.593-1.428-1.463c0-0.875,0.522-1.564,1.367-1.564
			c0.948,0,1.193,0.833,1.193,1.366c0,0.108-0.006,0.187-0.018,0.246L55.18,164.506L55.18,164.506z M56.721,164.128
			c0.007-0.336-0.138-0.857-0.726-0.857c-0.539,0-0.768,0.492-0.811,0.857H56.721z"/>
		<path fill="#5E5E5D" d="M58.138,162.467c-0.191,0-0.317-0.149-0.317-0.323c0-0.187,0.132-0.33,0.329-0.33
			c0.192,0,0.324,0.144,0.324,0.33c0,0.174-0.127,0.323-0.331,0.323H58.138z M57.886,165.861v-2.902h0.528v2.902H57.886z"/>
		<path fill="#5E5E5D" d="M59.926,162.264v0.696h0.756v0.4h-0.756v1.561c0,0.359,0.103,0.563,0.396,0.563
			c0.145,0,0.229-0.013,0.307-0.036l0.023,0.402c-0.102,0.036-0.264,0.071-0.468,0.071c-0.246,0-0.443-0.084-0.569-0.221
			c-0.145-0.163-0.204-0.421-0.204-0.762v-1.577h-0.449v-0.402h0.449v-0.534L59.926,162.264z"/>
		<path fill="#5E5E5D" d="M63.32,165.166c0,0.252,0.013,0.497,0.042,0.696h-0.474l-0.048-0.367h-0.018
			c-0.156,0.229-0.474,0.433-0.888,0.433c-0.588,0-0.888-0.414-0.888-0.833c0-0.701,0.625-1.085,1.745-1.079v-0.061
			c0-0.239-0.066-0.678-0.659-0.671c-0.275,0-0.558,0.077-0.761,0.216l-0.12-0.354c0.24-0.149,0.595-0.251,0.959-0.251
			c0.894,0,1.109,0.606,1.109,1.188v1.085H63.32z M62.805,164.38c-0.575-0.011-1.229,0.09-1.229,0.655
			c0,0.348,0.229,0.503,0.492,0.503c0.384,0,0.63-0.239,0.714-0.486c0.018-0.054,0.023-0.114,0.023-0.168V164.38z"/>
		<path fill="#5E5E5D" d="M66.65,165.436c0,0.672-0.138,1.073-0.414,1.331c-0.288,0.259-0.696,0.349-1.062,0.349
			c-0.348,0-0.731-0.085-0.965-0.24l0.131-0.408c0.192,0.126,0.493,0.234,0.852,0.234c0.54,0,0.936-0.282,0.936-1.02v-0.318h-0.013
			c-0.156,0.271-0.474,0.486-0.924,0.486c-0.72,0-1.235-0.612-1.235-1.423c0-0.983,0.642-1.535,1.313-1.535
			c0.504,0,0.773,0.258,0.905,0.504h0.013l0.018-0.438h0.468c-0.018,0.204-0.024,0.443-0.024,0.791L66.65,165.436L66.65,165.436z
			 M66.123,164.099c0-0.084-0.006-0.162-0.03-0.234c-0.096-0.312-0.348-0.563-0.737-0.563c-0.504,0-0.863,0.426-0.863,1.105
			c0,0.563,0.293,1.042,0.856,1.042c0.331,0,0.625-0.202,0.731-0.545c0.03-0.084,0.042-0.187,0.042-0.282V164.099z"/>
		<path fill="#5E5E5D" d="M68.997,162.959l0.569,1.624c0.097,0.27,0.174,0.511,0.234,0.75h0.018c0.066-0.24,0.15-0.48,0.246-0.75
			l0.563-1.624h0.552l-1.139,2.902h-0.504l-1.104-2.902H68.997z"/>
		<path fill="#5E5E5D" d="M72.741,165.928c-0.779,0-1.392-0.576-1.392-1.493c0-0.972,0.642-1.542,1.439-1.542
			c0.834,0,1.397,0.606,1.397,1.487c0,1.08-0.75,1.548-1.439,1.548H72.741z M72.766,165.531c0.503,0,0.881-0.474,0.881-1.132
			c0-0.493-0.246-1.109-0.869-1.109c-0.618,0-0.888,0.575-0.888,1.127c0,0.636,0.359,1.115,0.869,1.115H72.766L72.766,165.531z"/>
		<path fill="#5E5E5D" d="M74.854,163.744c0-0.306-0.006-0.545-0.023-0.784h0.467l0.029,0.474h0.013
			c0.145-0.27,0.479-0.54,0.959-0.54c0.402,0,1.026,0.24,1.026,1.235v1.733h-0.527v-1.673c0-0.468-0.174-0.863-0.672-0.863
			c-0.342,0-0.61,0.245-0.708,0.539c-0.023,0.066-0.035,0.162-0.035,0.246v1.751h-0.528L74.854,163.744L74.854,163.744z"/>
		<path fill="#5E5E5D" d="M80.595,161.897c0.756,0,1.14,0.468,1.14,0.96c0,0.329-0.168,0.69-0.648,0.911v0.019
			c0.486,0.191,0.785,0.539,0.785,1.007c0,0.684-0.582,1.134-1.325,1.134c-0.814,0-1.308-0.48-1.308-1.05
			c0-0.492,0.294-0.846,0.769-1.05v-0.017c-0.438-0.204-0.623-0.54-0.623-0.876c0-0.617,0.521-1.037,1.205-1.037H80.595
			L80.595,161.897z M80.559,165.544c0.474,0,0.78-0.293,0.78-0.696c0-0.468-0.33-0.701-0.857-0.852
			c-0.455,0.132-0.701,0.438-0.701,0.81c-0.019,0.39,0.282,0.738,0.773,0.738H80.559z M80.564,162.275
			c-0.438,0-0.678,0.288-0.678,0.625c-0.006,0.39,0.294,0.599,0.744,0.719c0.336-0.113,0.594-0.354,0.594-0.707
			c0-0.312-0.187-0.637-0.654-0.637H80.564z"/>
		<path fill="#5E5E5D" d="M83.805,161.604h0.528v1.817h0.012c0.187-0.324,0.521-0.528,0.989-0.528c0.72,0,1.224,0.6,1.224,1.476
			c0,1.044-0.66,1.561-1.308,1.561c-0.42,0-0.749-0.163-0.972-0.546h-0.013l-0.03,0.478h-0.455c0.018-0.198,0.023-0.492,0.023-0.75
			L83.805,161.604L83.805,161.604z M84.333,164.697c0,0.066,0.006,0.133,0.018,0.191c0.102,0.366,0.414,0.618,0.792,0.618
			c0.558,0,0.882-0.451,0.882-1.115c0-0.588-0.3-1.086-0.863-1.086c-0.359,0-0.695,0.252-0.798,0.647
			c-0.018,0.066-0.029,0.139-0.029,0.222L84.333,164.697L84.333,164.697z"/>
		<path fill="#5E5E5D" d="M87.471,162.467c-0.191,0-0.317-0.149-0.317-0.323c0-0.187,0.132-0.33,0.329-0.33
			c0.192,0,0.323,0.144,0.323,0.33c0,0.174-0.126,0.323-0.33,0.323H87.471z M87.219,165.861v-2.902h0.528v2.902H87.219z"/>
		<path fill="#5E5E5D" d="M88.552,165.321c0.161,0.097,0.438,0.204,0.701,0.204c0.378,0,0.558-0.185,0.558-0.432
			c0-0.251-0.149-0.384-0.533-0.527c-0.528-0.192-0.774-0.481-0.774-0.822c0-0.468,0.384-0.852,1.002-0.852
			c0.294,0,0.552,0.079,0.708,0.182l-0.126,0.376c-0.114-0.065-0.324-0.167-0.594-0.167c-0.313,0-0.48,0.18-0.48,0.396
			c0,0.239,0.168,0.348,0.546,0.497c0.498,0.187,0.762,0.438,0.762,0.87c0,0.517-0.401,0.876-1.079,0.876
			c-0.319,0-0.612-0.085-0.815-0.204L88.552,165.321z"/>
		<path fill="#5E5E5D" d="M92.103,165.861v-0.324l0.414-0.402c0.995-0.947,1.451-1.45,1.451-2.039c0-0.396-0.186-0.762-0.768-0.762
			c-0.354,0-0.648,0.181-0.827,0.331l-0.168-0.372c0.264-0.222,0.653-0.396,1.105-0.396c0.833,0,1.187,0.576,1.187,1.134
			c0,0.72-0.521,1.302-1.343,2.094l-0.306,0.286v0.013h1.745v0.438L92.103,165.861L92.103,165.861z"/>
		<path fill="#5E5E5D" d="M96.422,165.928c-0.761,0-1.283-0.714-1.294-2.003c0-1.313,0.569-2.027,1.361-2.027
			c0.815,0,1.289,0.731,1.289,1.973c0,1.324-0.497,2.058-1.349,2.058h-0.006V165.928z M96.452,165.52
			c0.535,0,0.792-0.629,0.792-1.625c0-0.96-0.24-1.589-0.792-1.589c-0.478,0-0.791,0.61-0.791,1.589
			c-0.013,1.015,0.3,1.625,0.785,1.625H96.452z"/>
		<path fill="#5E5E5D" d="M100.238,161.819v2.398c0,0.9,0.401,1.284,0.941,1.284c0.594,0,0.983-0.395,0.983-1.284v-2.398h0.527
			v2.363c0,1.241-0.653,1.745-1.528,1.745c-0.828,0-1.45-0.468-1.45-1.728v-2.382h0.527V161.819z"/>
		<path fill="#5E5E5D" d="M103.58,161.604h0.527v1.812h0.013c0.084-0.15,0.216-0.289,0.378-0.372
			c0.155-0.096,0.342-0.149,0.538-0.149c0.391,0,1.015,0.24,1.015,1.241v1.727h-0.527v-1.673c0-0.468-0.174-0.857-0.672-0.857
			c-0.342,0-0.605,0.239-0.708,0.527c-0.029,0.072-0.035,0.149-0.035,0.252v1.751h-0.528L103.58,161.604L103.58,161.604z"/>
		<path fill="#5E5E5D" d="M106.91,163.864c0-0.342-0.006-0.636-0.023-0.905h0.462l0.023,0.569h0.019
			c0.132-0.39,0.455-0.636,0.811-0.636c0.054,0,0.096,0.007,0.144,0.013v0.497c-0.055-0.006-0.108-0.013-0.18-0.013
			c-0.372,0-0.636,0.282-0.708,0.672c-0.013,0.078-0.018,0.162-0.018,0.247v1.553h-0.528L106.91,163.864L106.91,163.864z"/>
	</g>
	<g>
		<path fill="#5E5E5D" d="M21.73,180.261l-1.325-4.042h0.57l0.629,1.991c0.168,0.546,0.318,1.044,0.432,1.512h0.012
			c0.114-0.468,0.276-0.979,0.462-1.506l0.684-1.997h0.558l-1.445,4.042H21.73L21.73,180.261z"/>
		<path fill="#5E5E5D" d="M23.98,178.905c0.012,0.708,0.461,1.001,0.989,1.001c0.378,0,0.612-0.066,0.804-0.149l0.096,0.378
			c-0.186,0.084-0.51,0.186-0.971,0.186c-0.888,0-1.426-0.594-1.426-1.463c0-0.875,0.52-1.565,1.366-1.565
			c0.947,0,1.193,0.834,1.193,1.367c0,0.108-0.006,0.187-0.018,0.245H23.98L23.98,178.905z M25.521,178.527
			c0.006-0.337-0.138-0.857-0.726-0.857c-0.54,0-0.768,0.492-0.81,0.857H25.521z"/>
		<path fill="#5E5E5D" d="M26.687,178.264c0-0.342-0.006-0.637-0.025-0.905h0.463l0.024,0.569h0.018
			c0.132-0.391,0.455-0.636,0.81-0.636c0.054,0,0.096,0.006,0.144,0.013v0.497c-0.054-0.006-0.108-0.011-0.179-0.011
			c-0.372,0-0.637,0.282-0.709,0.671c-0.012,0.078-0.018,0.162-0.018,0.246v1.553h-0.527L26.687,178.264L26.687,178.264z"/>
		<path fill="#5E5E5D" d="M28.829,178.905c0.012,0.708,0.461,1.001,0.988,1.001c0.378,0,0.612-0.066,0.804-0.149l0.096,0.378
			c-0.186,0.084-0.51,0.186-0.971,0.186c-0.888,0-1.426-0.594-1.426-1.463c0-0.875,0.521-1.565,1.367-1.565
			c0.947,0,1.192,0.834,1.192,1.367c0,0.108-0.006,0.187-0.017,0.245H28.829L28.829,178.905z M30.37,178.527
			c0.006-0.337-0.138-0.857-0.726-0.857c-0.54,0-0.768,0.492-0.81,0.857H30.37z"/>
		<path fill="#5E5E5D" d="M31.786,176.866c-0.192,0-0.318-0.149-0.318-0.323c0-0.187,0.132-0.33,0.33-0.33
			c0.192,0,0.324,0.144,0.324,0.33c0,0.174-0.126,0.323-0.33,0.323H31.786z M31.535,180.261v-2.902h0.527v2.902H31.535z"/>
		<path fill="#5E5E5D" d="M32.938,178.144c0-0.306-0.006-0.545-0.024-0.785h0.467l0.03,0.474h0.013c0.144-0.27,0.48-0.54,0.958-0.54
			c0.402,0,1.026,0.24,1.026,1.234v1.733h-0.527v-1.673c0-0.468-0.174-0.863-0.672-0.863c-0.342,0-0.612,0.245-0.708,0.539
			c-0.024,0.066-0.036,0.162-0.036,0.246v1.751h-0.527V178.144z"/>
		<path fill="#5E5E5D" d="M36.269,176.003h0.527v1.817h0.012c0.186-0.324,0.521-0.528,0.989-0.528c0.72,0,1.224,0.599,1.224,1.476
			c0,1.043-0.66,1.56-1.308,1.56c-0.419,0-0.75-0.162-0.971-0.546H36.73l-0.029,0.479h-0.456c0.018-0.198,0.024-0.492,0.024-0.75
			L36.269,176.003L36.269,176.003z M36.796,179.098c0,0.065,0.006,0.131,0.018,0.191c0.102,0.366,0.414,0.618,0.792,0.618
			c0.558,0,0.882-0.449,0.882-1.115c0-0.588-0.3-1.086-0.864-1.086c-0.36,0-0.696,0.252-0.797,0.648
			c-0.018,0.066-0.03,0.138-0.03,0.221L36.796,179.098L36.796,179.098z"/>
		<path fill="#5E5E5D" d="M41.727,179.565c0,0.252,0.012,0.497,0.042,0.695h-0.474l-0.048-0.366h-0.018
			c-0.156,0.229-0.474,0.433-0.888,0.433c-0.587,0-0.887-0.414-0.887-0.834c0-0.701,0.624-1.085,1.745-1.079v-0.06
			c0-0.24-0.066-0.678-0.66-0.671c-0.276,0-0.557,0.077-0.761,0.216l-0.12-0.354c0.24-0.149,0.594-0.251,0.959-0.251
			c0.894,0,1.109,0.606,1.109,1.188v1.085H41.727z M41.211,178.779c-0.576-0.012-1.229,0.09-1.229,0.654
			c0,0.349,0.228,0.504,0.492,0.504c0.384,0,0.629-0.24,0.713-0.486c0.018-0.054,0.024-0.114,0.024-0.168V178.779z"/>
		<path fill="#5E5E5D" d="M42.574,178.264c0-0.342-0.006-0.637-0.024-0.905h0.462l0.024,0.569h0.018
			c0.132-0.391,0.456-0.636,0.81-0.636c0.055,0,0.096,0.006,0.145,0.013v0.497c-0.055-0.006-0.108-0.011-0.18-0.011
			c-0.372,0-0.636,0.282-0.708,0.671c-0.013,0.078-0.018,0.162-0.018,0.246v1.553h-0.527L42.574,178.264L42.574,178.264z"/>
		<path fill="#5E5E5D" d="M44.716,178.905c0.012,0.708,0.461,1.001,0.989,1.001c0.378,0,0.612-0.066,0.803-0.149l0.096,0.378
			c-0.186,0.084-0.51,0.186-0.971,0.186c-0.888,0-1.427-0.594-1.427-1.463c0-0.875,0.521-1.565,1.367-1.565
			c0.947,0,1.193,0.834,1.193,1.367c0,0.108-0.006,0.187-0.018,0.245H44.716L44.716,178.905z M46.257,178.527
			c0.006-0.337-0.138-0.857-0.726-0.857c-0.54,0-0.769,0.492-0.811,0.857H46.257z"/>
		<path fill="#5E5E5D" d="M47.422,178.144c0-0.306-0.006-0.545-0.024-0.785h0.468l0.029,0.474h0.013
			c0.144-0.27,0.48-0.54,0.958-0.54c0.402,0,1.026,0.24,1.026,1.234v1.733h-0.527v-1.673c0-0.468-0.174-0.863-0.672-0.863
			c-0.342,0-0.612,0.245-0.708,0.539c-0.024,0.066-0.036,0.162-0.036,0.246v1.751h-0.527V178.144z"/>
		<path fill="#5E5E5D" d="M51.976,179.625c0.234,0.144,0.57,0.258,0.93,0.258c0.533,0,0.846-0.275,0.846-0.684
			c0-0.378-0.216-0.6-0.761-0.804c-0.66-0.228-1.067-0.574-1.067-1.139c0-0.629,0.521-1.098,1.308-1.098
			c0.407,0,0.713,0.096,0.887,0.191l-0.144,0.433c-0.126-0.077-0.396-0.191-0.762-0.191c-0.552,0-0.761,0.33-0.761,0.605
			c0,0.372,0.246,0.557,0.803,0.773c0.684,0.271,1.026,0.595,1.026,1.188c0,0.618-0.456,1.163-1.409,1.163
			c-0.39,0-0.815-0.119-1.031-0.264L51.976,179.625z"/>
		<path fill="#5E5E5D" d="M55.233,176.866c-0.191,0-0.317-0.149-0.317-0.323c0-0.187,0.132-0.33,0.329-0.33
			c0.192,0,0.324,0.144,0.324,0.33c0,0.174-0.126,0.323-0.33,0.323H55.233z M54.981,180.261v-2.902h0.528v2.902H54.981z"/>
		<path fill="#5E5E5D" d="M56.686,178.905c0.013,0.708,0.462,1.001,0.988,1.001c0.378,0,0.612-0.066,0.804-0.149l0.097,0.378
			c-0.187,0.084-0.51,0.186-0.972,0.186c-0.888,0-1.428-0.594-1.428-1.463c0-0.875,0.522-1.565,1.366-1.565
			c0.948,0,1.193,0.834,1.193,1.367c0,0.108-0.006,0.187-0.018,0.245H56.686L56.686,178.905z M58.227,178.527
			c0.007-0.337-0.138-0.857-0.726-0.857c-0.538,0-0.768,0.492-0.81,0.857H58.227z"/>
		<path fill="#5E5E5D" d="M60.963,178.905c0.013,0.708,0.463,1.001,0.989,1.001c0.378,0,0.612-0.066,0.804-0.149l0.097,0.378
			c-0.187,0.084-0.51,0.186-0.973,0.186c-0.888,0-1.427-0.594-1.427-1.463c0-0.875,0.522-1.565,1.366-1.565
			c0.948,0,1.193,0.834,1.193,1.367c0,0.108-0.006,0.187-0.018,0.245H60.963L60.963,178.905z M62.504,178.527
			c0.007-0.337-0.138-0.857-0.726-0.857c-0.538,0-0.768,0.492-0.81,0.857H62.504z"/>
		<path fill="#5E5E5D" d="M63.922,176.866c-0.191,0-0.317-0.149-0.317-0.323c0-0.187,0.132-0.33,0.329-0.33
			c0.192,0,0.323,0.144,0.323,0.33c0,0.174-0.126,0.323-0.33,0.323H63.922z M63.67,180.261v-2.902h0.528v2.902H63.67z"/>
		<path fill="#5E5E5D" d="M65.073,178.144c0-0.306-0.006-0.545-0.023-0.785h0.468l0.029,0.474h0.013
			c0.144-0.27,0.479-0.54,0.959-0.54c0.402,0,1.025,0.24,1.025,1.234v1.733h-0.527v-1.673c0-0.468-0.174-0.863-0.672-0.863
			c-0.342,0-0.611,0.245-0.708,0.539c-0.023,0.066-0.035,0.162-0.035,0.246v1.751h-0.528L65.073,178.144L65.073,178.144z"/>
		<path fill="#5E5E5D" d="M68.703,178.905c0.013,0.708,0.462,1.001,0.989,1.001c0.378,0,0.611-0.066,0.803-0.149l0.097,0.378
			c-0.187,0.084-0.51,0.186-0.972,0.186c-0.888,0-1.428-0.594-1.428-1.463c0-0.875,0.522-1.565,1.367-1.565
			c0.947,0,1.192,0.834,1.192,1.367c0,0.108-0.006,0.187-0.017,0.245H68.703L68.703,178.905z M70.244,178.527
			c0.006-0.337-0.138-0.857-0.727-0.857c-0.538,0-0.768,0.492-0.81,0.857H70.244z"/>
		<path fill="#5E5E5D" d="M71.409,178.144c0-0.306-0.006-0.545-0.023-0.785h0.468l0.028,0.474h0.013
			c0.144-0.27,0.479-0.54,0.959-0.54c0.402,0,1.025,0.24,1.025,1.234v1.733h-0.527v-1.673c0-0.468-0.174-0.863-0.671-0.863
			c-0.342,0-0.611,0.245-0.709,0.539c-0.023,0.066-0.035,0.162-0.035,0.246v1.751H71.41L71.409,178.144L71.409,178.144z"/>
		<path fill="#5E5E5D" d="M76.798,176.663h-1.229v-0.444h2.992v0.444h-1.235v3.598h-0.527L76.798,176.663L76.798,176.663z"/>
		<path fill="#5E5E5D" d="M78.417,178.905c0.013,0.708,0.462,1.001,0.99,1.001c0.376,0,0.61-0.066,0.803-0.149l0.097,0.378
			c-0.187,0.084-0.51,0.186-0.973,0.186c-0.888,0-1.427-0.594-1.427-1.463c0-0.875,0.522-1.565,1.366-1.565
			c0.948,0,1.193,0.834,1.193,1.367c0,0.108-0.006,0.187-0.018,0.245H78.417L78.417,178.905z M79.958,178.527
			c0.007-0.337-0.138-0.857-0.726-0.857c-0.538,0-0.768,0.492-0.81,0.857H79.958z"/>
		<path fill="#5E5E5D" d="M81.123,178.264c0-0.342-0.006-0.637-0.023-0.905h0.462l0.023,0.569h0.019
			c0.132-0.391,0.455-0.636,0.81-0.636c0.055,0,0.096,0.006,0.144,0.013v0.497c-0.054-0.006-0.108-0.011-0.179-0.011
			c-0.372,0-0.637,0.282-0.709,0.671c-0.012,0.078-0.017,0.162-0.017,0.246v1.553h-0.528L81.123,178.264L81.123,178.264z"/>
		<path fill="#5E5E5D" d="M83.085,178.144c0-0.306-0.012-0.545-0.023-0.785h0.462l0.023,0.468h0.019
			c0.161-0.276,0.432-0.534,0.917-0.534c0.39,0,0.689,0.24,0.815,0.582h0.012c0.091-0.168,0.21-0.289,0.33-0.378
			c0.174-0.132,0.36-0.204,0.636-0.204c0.391,0,0.96,0.252,0.96,1.26v1.71h-0.516v-1.645c0-0.563-0.21-0.893-0.629-0.893
			c-0.306,0-0.534,0.222-0.63,0.474c-0.024,0.077-0.042,0.174-0.042,0.264v1.8h-0.516v-1.745c0-0.463-0.204-0.792-0.605-0.792
			c-0.324,0-0.57,0.264-0.654,0.527c-0.029,0.078-0.043,0.168-0.043,0.258v1.751h-0.516V178.144z"/>
		<path fill="#5E5E5D" d="M88.341,176.866c-0.191,0-0.317-0.149-0.317-0.323c0-0.187,0.132-0.33,0.329-0.33
			c0.192,0,0.324,0.144,0.324,0.33c0,0.174-0.127,0.323-0.331,0.323H88.341z M88.089,180.261v-2.902h0.528v2.902H88.089z"/>
		<path fill="#5E5E5D" d="M89.493,178.144c0-0.306-0.006-0.545-0.023-0.785h0.467l0.029,0.474h0.013
			c0.144-0.27,0.478-0.54,0.958-0.54c0.402,0,1.026,0.24,1.026,1.234v1.733h-0.527v-1.673c0-0.468-0.174-0.863-0.672-0.863
			c-0.342,0-0.61,0.245-0.708,0.539c-0.023,0.066-0.035,0.162-0.035,0.246v1.751h-0.528L89.493,178.144L89.493,178.144z"/>
		<path fill="#5E5E5D" d="M94.095,178.144c0-0.306-0.013-0.545-0.024-0.785h0.463l0.023,0.468h0.019
			c0.161-0.276,0.432-0.534,0.917-0.534c0.39,0,0.689,0.24,0.814,0.582h0.012c0.091-0.168,0.21-0.289,0.331-0.378
			c0.174-0.132,0.36-0.204,0.636-0.204c0.39,0,0.96,0.252,0.96,1.26v1.71h-0.517v-1.645c0-0.563-0.209-0.893-0.629-0.893
			c-0.306,0-0.535,0.222-0.63,0.474c-0.024,0.077-0.042,0.174-0.042,0.264v1.8h-0.516v-1.745c0-0.463-0.204-0.792-0.605-0.792
			c-0.323,0-0.57,0.264-0.654,0.527c-0.028,0.078-0.042,0.168-0.042,0.258v1.751h-0.516V178.144z"/>
		<path fill="#5E5E5D" d="M99.351,176.866c-0.191,0-0.316-0.149-0.316-0.323c0-0.187,0.132-0.33,0.329-0.33
			c0.191,0,0.323,0.144,0.323,0.33c0,0.174-0.126,0.323-0.33,0.323H99.351z M99.099,180.261v-2.902h0.528v2.902H99.099z"/>
		<path fill="#5E5E5D" d="M101.139,176.663v0.695h0.756v0.401h-0.756v1.56c0,0.359,0.103,0.563,0.395,0.563
			c0.146,0,0.229-0.012,0.308-0.036l0.023,0.402c-0.102,0.036-0.264,0.071-0.468,0.071c-0.246,0-0.443-0.084-0.569-0.222
			c-0.145-0.162-0.204-0.42-0.204-0.762v-1.577h-0.448v-0.401h0.448v-0.535L101.139,176.663z"/>
		<path fill="#5E5E5D" d="M106.189,179.463c0,0.306,0.006,0.57,0.024,0.798h-0.467l-0.03-0.474h-0.013
			c-0.131,0.233-0.444,0.54-0.96,0.54c-0.455,0-1-0.259-1-1.272v-1.697h0.527v1.601c0,0.552,0.174,0.93,0.647,0.93
			c0.354,0,0.6-0.245,0.696-0.485c0.029-0.073,0.048-0.168,0.048-0.27v-1.774h0.527v2.103H106.189z"/>
		<path fill="#5E5E5D" d="M107.066,178.144c0-0.306-0.006-0.545-0.023-0.785h0.468l0.029,0.474h0.013
			c0.144-0.27,0.479-0.54,0.959-0.54c0.402,0,1.025,0.24,1.025,1.234v1.733h-0.527v-1.673c0-0.468-0.174-0.863-0.672-0.863
			c-0.342,0-0.611,0.245-0.709,0.539c-0.023,0.066-0.035,0.162-0.035,0.246v1.751h-0.528L107.066,178.144L107.066,178.144z"/>
		<path fill="#5E5E5D" d="M110.325,179.721c0.161,0.096,0.438,0.204,0.701,0.204c0.378,0,0.558-0.187,0.558-0.433
			c0-0.252-0.149-0.383-0.533-0.527c-0.528-0.191-0.774-0.479-0.774-0.822c0-0.468,0.384-0.852,1.002-0.852
			c0.294,0,0.552,0.077,0.708,0.18l-0.126,0.377c-0.114-0.065-0.324-0.167-0.594-0.167c-0.313,0-0.48,0.18-0.48,0.396
			c0,0.239,0.168,0.348,0.546,0.497c0.498,0.187,0.762,0.437,0.762,0.87c0,0.516-0.401,0.875-1.079,0.875
			c-0.318,0-0.611-0.084-0.814-0.202L110.325,179.721z"/>
		<path fill="#5E5E5D" d="M113.139,180.327c-0.204,0-0.348-0.162-0.348-0.372c0-0.217,0.149-0.372,0.354-0.372
			c0.216,0,0.354,0.156,0.354,0.372c0,0.21-0.138,0.372-0.354,0.372H113.139z M112.94,179.104l-0.085-2.885h0.576l-0.084,2.885
			H112.94z"/>
	</g>
</g>
<g>
	<rect x="25.732" y="269.37" fill="none" width="126.982" height="8.362"/>
	<path fill="#5E5E5D" d="M26.929,272.674c0.052,0.163,0.096,0.312,0.133,0.444c0.037,0.133,0.082,0.281,0.133,0.444
		c0.028,0.094,0.053,0.176,0.074,0.245c0.021,0.07,0.045,0.149,0.073,0.238c0.033-0.121,0.062-0.232,0.087-0.332
		c0.026-0.101,0.057-0.212,0.095-0.333c0.033-0.121,0.062-0.228,0.087-0.318c0.026-0.091,0.057-0.195,0.095-0.312l0.546-1.701h0.763
		l0.518,1.659c0.038,0.126,0.074,0.245,0.109,0.357c0.035,0.111,0.067,0.223,0.098,0.332s0.063,0.221,0.098,0.332
		c0.035,0.112,0.071,0.231,0.108,0.357c0.056-0.22,0.107-0.419,0.154-0.599c0.046-0.18,0.103-0.379,0.168-0.599l0.546-1.841h0.679
		l-1.19,3.619h-0.756l-0.504-1.512c-0.023-0.094-0.047-0.177-0.07-0.249c-0.023-0.072-0.049-0.155-0.077-0.248
		c-0.056-0.187-0.105-0.354-0.147-0.504s-0.089-0.32-0.14-0.512c-0.038,0.126-0.073,0.245-0.108,0.357s-0.069,0.223-0.102,0.332
		c-0.033,0.11-0.066,0.221-0.102,0.333s-0.073,0.23-0.115,0.357l-0.511,1.645h-0.749l-1.169-3.619h0.707L26.929,272.674z"/>
	<path fill="#5E5E5D" d="M32.76,272.674c0.052,0.163,0.096,0.312,0.133,0.444c0.037,0.133,0.082,0.281,0.133,0.444
		c0.028,0.094,0.053,0.176,0.074,0.245c0.021,0.07,0.045,0.149,0.073,0.238c0.033-0.121,0.062-0.232,0.087-0.332
		c0.026-0.101,0.057-0.212,0.095-0.333c0.033-0.121,0.062-0.228,0.087-0.318c0.026-0.091,0.057-0.195,0.095-0.312l0.546-1.701h0.763
		l0.518,1.659c0.038,0.126,0.074,0.245,0.109,0.357c0.035,0.111,0.067,0.223,0.098,0.332s0.063,0.221,0.098,0.332
		c0.035,0.112,0.071,0.231,0.108,0.357c0.056-0.22,0.107-0.419,0.154-0.599c0.046-0.18,0.103-0.379,0.168-0.599l0.546-1.841h0.679
		l-1.19,3.619h-0.756l-0.504-1.512c-0.023-0.094-0.047-0.177-0.07-0.249c-0.023-0.072-0.049-0.155-0.077-0.248
		c-0.056-0.187-0.105-0.354-0.147-0.504s-0.089-0.32-0.14-0.512c-0.038,0.126-0.073,0.245-0.108,0.357s-0.069,0.223-0.102,0.332
		c-0.033,0.11-0.066,0.221-0.102,0.333s-0.073,0.23-0.115,0.357l-0.511,1.645h-0.749l-1.169-3.619h0.707L32.76,272.674z"/>
	<path fill="#5E5E5D" d="M38.591,272.674c0.052,0.163,0.096,0.312,0.133,0.444c0.037,0.133,0.082,0.281,0.133,0.444
		c0.028,0.094,0.053,0.176,0.074,0.245c0.021,0.07,0.045,0.149,0.073,0.238c0.033-0.121,0.062-0.232,0.087-0.332
		c0.026-0.101,0.057-0.212,0.095-0.333c0.033-0.121,0.062-0.228,0.087-0.318c0.026-0.091,0.057-0.195,0.095-0.312l0.546-1.701h0.763
		l0.518,1.659c0.038,0.126,0.074,0.245,0.109,0.357c0.035,0.111,0.067,0.223,0.098,0.332s0.063,0.221,0.098,0.332
		c0.035,0.112,0.071,0.231,0.108,0.357c0.056-0.22,0.107-0.419,0.154-0.599c0.046-0.18,0.103-0.379,0.168-0.599l0.546-1.841h0.679
		l-1.19,3.619h-0.756l-0.504-1.512c-0.023-0.094-0.047-0.177-0.07-0.249c-0.023-0.072-0.049-0.155-0.077-0.248
		c-0.056-0.187-0.105-0.354-0.147-0.504s-0.089-0.32-0.14-0.512c-0.038,0.126-0.073,0.245-0.108,0.357s-0.069,0.223-0.102,0.332
		c-0.033,0.11-0.066,0.221-0.102,0.333s-0.073,0.23-0.115,0.357l-0.511,1.645h-0.749l-1.169-3.619h0.707L38.591,272.674z"/>
	<path fill="#5E5E5D" d="M43.968,273.899v0.77H43.19v-0.77H43.968z"/>
	<path fill="#5E5E5D" d="M45.262,271.568c0.061-0.084,0.11-0.147,0.147-0.189s0.08-0.079,0.126-0.112
		c0.117-0.093,0.246-0.162,0.389-0.206c0.142-0.044,0.271-0.066,0.388-0.066c0.178-0.01,0.334,0.014,0.469,0.069
		c0.135,0.057,0.235,0.11,0.301,0.161c0.028,0.023,0.053,0.045,0.074,0.063s0.043,0.04,0.066,0.063
		c0.056,0.065,0.103,0.138,0.14,0.218c0.037,0.079,0.058,0.121,0.063,0.126c0.056-0.084,0.099-0.147,0.129-0.189
		s0.064-0.081,0.102-0.119c0.093-0.098,0.191-0.175,0.294-0.23c0.103-0.057,0.2-0.096,0.291-0.119s0.17-0.037,0.238-0.042
		c0.068-0.005,0.116-0.007,0.144-0.007c0.159,0,0.298,0.021,0.417,0.063c0.119,0.042,0.221,0.097,0.305,0.165
		c0.084,0.067,0.153,0.144,0.207,0.228s0.094,0.168,0.123,0.252c0.051,0.135,0.081,0.265,0.087,0.388
		c0.007,0.124,0.013,0.205,0.018,0.242v2.345H49.14v-2.042c0-0.229-0.015-0.416-0.045-0.561c-0.03-0.146-0.099-0.267-0.207-0.365
		c-0.084-0.075-0.169-0.119-0.255-0.133c-0.086-0.015-0.139-0.021-0.158-0.021c-0.121,0-0.24,0.028-0.357,0.084
		c-0.117,0.057-0.222,0.147-0.315,0.273c-0.103,0.136-0.167,0.281-0.192,0.436c-0.026,0.154-0.043,0.299-0.053,0.435v1.895h-0.672
		v-2.224c-0.009-0.164-0.032-0.317-0.066-0.46c-0.035-0.143-0.12-0.258-0.255-0.348c-0.065-0.042-0.128-0.067-0.189-0.076
		c-0.061-0.01-0.103-0.015-0.126-0.015c-0.149,0-0.277,0.033-0.385,0.099s-0.187,0.124-0.238,0.175
		c-0.065,0.065-0.113,0.131-0.144,0.196c-0.031,0.066-0.05,0.11-0.06,0.134c-0.028,0.075-0.051,0.164-0.07,0.267
		c-0.019,0.103-0.033,0.236-0.042,0.399c-0.004,0.075-0.007,0.143-0.007,0.204c0,0.056,0,0.124,0,0.203v1.445h-0.686v-3.619h0.623
		L45.262,271.568z"/>
	<path fill="#5E5E5D" d="M51.255,271.05v1.99c0,0.057,0.002,0.123,0.007,0.199c0.004,0.077,0.013,0.154,0.024,0.23
		c0.012,0.077,0.029,0.154,0.053,0.23c0.023,0.077,0.058,0.144,0.105,0.199c0.019,0.023,0.041,0.046,0.066,0.066
		c0.025,0.021,0.039,0.034,0.039,0.038c0.098,0.079,0.196,0.126,0.294,0.141c0.098,0.014,0.159,0.021,0.182,0.021
		c0.098,0,0.202-0.019,0.312-0.056c0.109-0.037,0.211-0.096,0.304-0.175c0.098-0.084,0.174-0.175,0.228-0.272
		s0.095-0.199,0.123-0.304s0.045-0.208,0.053-0.311c0.007-0.103,0.013-0.198,0.017-0.287v-1.711h0.665v3.619h-0.602l-0.021-0.553
		c-0.046,0.056-0.084,0.101-0.112,0.133s-0.059,0.063-0.091,0.091c-0.112,0.107-0.251,0.198-0.417,0.273
		c-0.166,0.074-0.382,0.111-0.647,0.111c-0.164,0-0.3-0.018-0.41-0.052c-0.11-0.035-0.202-0.071-0.276-0.109
		c-0.023-0.019-0.064-0.047-0.123-0.087c-0.059-0.04-0.12-0.1-0.186-0.179c-0.033-0.042-0.057-0.08-0.074-0.115
		c-0.016-0.035-0.029-0.06-0.038-0.073c-0.065-0.136-0.105-0.277-0.119-0.424c-0.014-0.147-0.023-0.288-0.028-0.424v-2.212H51.255z"
		/>
	<path fill="#5E5E5D" d="M56.414,271.687c-0.191-0.064-0.343-0.11-0.455-0.136c-0.112-0.026-0.215-0.039-0.308-0.039
		c-0.103,0-0.189,0.012-0.259,0.035c-0.07,0.023-0.124,0.052-0.161,0.084c-0.01,0.01-0.023,0.023-0.042,0.042
		c-0.019,0.019-0.038,0.04-0.056,0.063c-0.009,0.019-0.023,0.049-0.042,0.091s-0.028,0.089-0.028,0.14
		c0.004,0.037,0.011,0.069,0.021,0.095c0.009,0.025,0.019,0.048,0.028,0.066c0.028,0.052,0.065,0.1,0.112,0.144
		c0.047,0.044,0.119,0.095,0.217,0.15c0.014,0.01,0.028,0.018,0.042,0.024s0.03,0.016,0.049,0.024
		c0.107,0.057,0.202,0.104,0.284,0.144c0.082,0.04,0.154,0.077,0.217,0.112s0.12,0.071,0.171,0.108
		c0.052,0.037,0.103,0.082,0.154,0.133c0.056,0.061,0.112,0.148,0.168,0.263s0.084,0.246,0.084,0.396
		c0,0.205-0.062,0.399-0.186,0.581s-0.302,0.319-0.536,0.413c-0.112,0.047-0.223,0.073-0.333,0.08
		c-0.109,0.007-0.181,0.013-0.213,0.018c-0.248,0.005-0.452-0.019-0.612-0.07c-0.161-0.051-0.295-0.1-0.403-0.146l0.049-0.602
		c0.028,0.014,0.072,0.036,0.133,0.066s0.131,0.061,0.21,0.091c0.08,0.03,0.165,0.056,0.255,0.077
		c0.091,0.021,0.186,0.029,0.284,0.024c0.21-0.005,0.364-0.059,0.462-0.161c0.098-0.103,0.147-0.21,0.147-0.322
		c0-0.116-0.035-0.215-0.105-0.294c-0.037-0.037-0.077-0.068-0.119-0.095c-0.042-0.025-0.084-0.05-0.126-0.073
		c-0.098-0.051-0.193-0.102-0.284-0.15s-0.183-0.102-0.276-0.157c-0.075-0.047-0.146-0.094-0.214-0.141
		c-0.067-0.046-0.127-0.103-0.178-0.168c-0.135-0.168-0.208-0.359-0.217-0.574c-0.009-0.177,0.038-0.353,0.14-0.528
		c0.103-0.175,0.259-0.309,0.469-0.402c0.056-0.023,0.132-0.047,0.228-0.07c0.095-0.022,0.211-0.037,0.346-0.042
		c0.168-0.004,0.324,0.008,0.469,0.035c0.145,0.028,0.298,0.065,0.462,0.112L56.414,271.687z"/>
	<path fill="#5E5E5D" d="M57.59,271.05v-0.826l0.658-0.217v1.043h0.952v0.504h-0.952v1.99c0.009,0.074,0.022,0.149,0.038,0.227
		c0.017,0.077,0.057,0.15,0.123,0.22c0.042,0.052,0.096,0.093,0.161,0.126c0.065,0.032,0.151,0.049,0.259,0.049
		c0.098,0,0.179-0.01,0.242-0.029c0.063-0.019,0.118-0.035,0.165-0.048v0.56c-0.056,0.015-0.128,0.031-0.217,0.05
		c-0.089,0.019-0.196,0.027-0.322,0.027c-0.117-0.004-0.231-0.019-0.343-0.042c-0.145-0.023-0.266-0.067-0.364-0.133
		c-0.075-0.047-0.139-0.105-0.192-0.179c-0.054-0.072-0.097-0.15-0.129-0.234c-0.033-0.088-0.053-0.18-0.06-0.272
		c-0.007-0.094-0.013-0.187-0.018-0.28v-2.03h-0.819v-0.504H57.59z"/>
	<path fill="#5E5E5D" d="M60.242,273.038c0.009,0.037,0.021,0.104,0.035,0.199c0.014,0.096,0.049,0.197,0.105,0.305
		c0.037,0.074,0.087,0.149,0.15,0.224c0.063,0.075,0.139,0.143,0.228,0.203c0.088,0.061,0.191,0.111,0.308,0.15
		c0.116,0.04,0.249,0.063,0.398,0.066c0.177,0.01,0.336-0.009,0.479-0.056c0.143-0.047,0.244-0.081,0.304-0.104
		c0.061-0.028,0.113-0.056,0.157-0.081c0.044-0.025,0.095-0.055,0.15-0.087v0.63c-0.121,0.051-0.266,0.103-0.433,0.153
		c-0.168,0.052-0.385,0.077-0.65,0.077c-0.023,0-0.078-0.001-0.164-0.003c-0.086-0.003-0.189-0.016-0.308-0.039
		c-0.119-0.023-0.246-0.061-0.381-0.112c-0.135-0.051-0.263-0.123-0.384-0.217c-0.122-0.093-0.216-0.188-0.284-0.283
		c-0.067-0.096-0.111-0.162-0.129-0.199c-0.056-0.094-0.11-0.221-0.161-0.382s-0.082-0.358-0.091-0.592
		c-0.005-0.214,0.016-0.41,0.063-0.588c0.047-0.177,0.11-0.336,0.189-0.476c0.08-0.141,0.17-0.261,0.273-0.36
		c0.103-0.101,0.21-0.184,0.322-0.249c0.079-0.051,0.147-0.086,0.203-0.104c0.056-0.019,0.103-0.033,0.14-0.042
		c0.047-0.015,0.117-0.03,0.21-0.05c0.093-0.019,0.203-0.027,0.329-0.027c0.285,0,0.522,0.051,0.714,0.153
		c0.191,0.104,0.341,0.218,0.448,0.344c0.075,0.093,0.135,0.193,0.182,0.301c0.046,0.107,0.084,0.216,0.112,0.325
		c0.028,0.11,0.048,0.219,0.06,0.326s0.02,0.205,0.024,0.294c0.004,0.056,0.007,0.107,0.007,0.153c0,0.042,0.002,0.092,0.007,0.147
		H60.242z M62.168,272.527c-0.014-0.122-0.035-0.242-0.063-0.361c-0.028-0.118-0.088-0.238-0.181-0.36
		c-0.056-0.079-0.137-0.151-0.244-0.217s-0.249-0.096-0.426-0.091c-0.204,0.005-0.388,0.067-0.551,0.188
		c-0.163,0.122-0.288,0.297-0.376,0.525c-0.023,0.065-0.04,0.12-0.049,0.164c-0.009,0.045-0.021,0.095-0.035,0.151H62.168z"/>
	<path fill="#5E5E5D" d="M64.078,271.652c0.038-0.065,0.071-0.122,0.102-0.168c0.03-0.047,0.057-0.082,0.081-0.105
		c0.135-0.154,0.282-0.254,0.441-0.301s0.306-0.07,0.441-0.07c0.084,0,0.168,0.005,0.252,0.014c0.084,0.01,0.135,0.015,0.154,0.015
		v0.637c-0.093-0.028-0.169-0.049-0.228-0.063c-0.059-0.015-0.134-0.021-0.228-0.021c-0.042,0-0.117,0.008-0.224,0.024
		s-0.222,0.076-0.343,0.179c-0.093,0.079-0.166,0.164-0.217,0.256c-0.051,0.091-0.09,0.186-0.115,0.283
		c-0.026,0.098-0.043,0.196-0.053,0.294s-0.016,0.188-0.021,0.272v1.771h-0.686v-0.987c0-0.256,0.001-0.491,0.004-0.703
		c0.002-0.212,0.003-0.449,0.003-0.711c0-0.111-0.001-0.217-0.003-0.314c-0.002-0.099-0.005-0.195-0.007-0.291
		s-0.006-0.193-0.01-0.294c-0.005-0.1-0.009-0.206-0.014-0.318h0.637L64.078,271.652z"/>
	<path fill="#5E5E5D" d="M67.494,272.576v0.518h-1.806v-0.518H67.494z"/>
	<path fill="#5E5E5D" d="M69.406,274.046l1.015-2.996h0.651l-1.295,3.619h-0.777l-1.295-3.619h0.7L69.406,274.046z"/>
	<path fill="#5E5E5D" d="M71.099,272.87c0.005-0.183,0.026-0.36,0.063-0.536c0.038-0.175,0.103-0.339,0.196-0.493
		c0.065-0.107,0.148-0.212,0.249-0.314c0.1-0.103,0.218-0.194,0.354-0.273c0.135-0.079,0.289-0.144,0.462-0.192
		c0.172-0.049,0.364-0.073,0.574-0.073c0.196,0,0.362,0.02,0.497,0.06c0.135,0.039,0.243,0.078,0.322,0.115
		c0.112,0.056,0.224,0.133,0.336,0.23c0.112,0.099,0.213,0.215,0.305,0.351c0.091,0.135,0.166,0.291,0.224,0.469
		c0.059,0.178,0.09,0.378,0.095,0.602c0.004,0.233-0.033,0.482-0.112,0.746c-0.079,0.264-0.226,0.5-0.441,0.71
		c-0.079,0.075-0.162,0.14-0.249,0.193s-0.171,0.099-0.255,0.136c-0.08,0.038-0.183,0.07-0.312,0.099
		c-0.128,0.027-0.288,0.042-0.479,0.042c-0.252,0-0.456-0.024-0.612-0.074c-0.157-0.049-0.289-0.105-0.396-0.171
		c-0.075-0.042-0.154-0.099-0.238-0.168c-0.079-0.075-0.155-0.159-0.228-0.252c-0.072-0.094-0.134-0.198-0.186-0.315
		c-0.051-0.116-0.092-0.248-0.122-0.396C71.115,273.217,71.099,273.052,71.099,272.87z M71.806,272.813
		c-0.004,0.122,0.002,0.241,0.021,0.357c0.019,0.117,0.054,0.231,0.105,0.343c0.056,0.126,0.117,0.228,0.182,0.305
		s0.124,0.135,0.175,0.172c0.051,0.037,0.088,0.063,0.112,0.077c0.023,0.014,0.046,0.025,0.07,0.034
		c0.098,0.047,0.191,0.075,0.28,0.084c0.088,0.01,0.147,0.015,0.175,0.015c0.122,0,0.225-0.016,0.312-0.046s0.155-0.057,0.207-0.08
		c0.126-0.07,0.23-0.155,0.312-0.256s0.146-0.207,0.192-0.322c0.047-0.114,0.08-0.229,0.098-0.346
		c0.019-0.117,0.028-0.225,0.028-0.322c0-0.145-0.013-0.273-0.039-0.385c-0.025-0.112-0.05-0.194-0.073-0.245
		c-0.033-0.075-0.074-0.152-0.123-0.231s-0.112-0.152-0.189-0.221c-0.077-0.067-0.169-0.123-0.276-0.168
		c-0.107-0.044-0.233-0.066-0.378-0.066c-0.177,0-0.325,0.028-0.444,0.084c-0.119,0.057-0.216,0.114-0.291,0.175
		c-0.112,0.094-0.213,0.228-0.304,0.403C71.866,272.349,71.816,272.562,71.806,272.813z"/>
	<path fill="#5E5E5D" d="M76.049,269.37v2.268c0.009-0.019,0.039-0.061,0.087-0.126c0.049-0.065,0.106-0.128,0.171-0.188
		c0.089-0.08,0.218-0.155,0.389-0.228s0.37-0.108,0.599-0.108c0.172,0,0.321,0.019,0.444,0.056s0.218,0.074,0.284,0.112
		c0.107,0.061,0.217,0.146,0.329,0.259c0.112,0.112,0.212,0.272,0.301,0.482c0.046,0.107,0.083,0.217,0.108,0.326
		c0.026,0.109,0.044,0.21,0.056,0.301s0.019,0.172,0.021,0.241c0.002,0.07,0.003,0.119,0.003,0.147c0,0.21-0.027,0.427-0.081,0.65
		c-0.054,0.225-0.169,0.437-0.346,0.638c-0.061,0.069-0.128,0.135-0.203,0.195c-0.075,0.062-0.159,0.116-0.252,0.165
		c-0.094,0.049-0.201,0.087-0.322,0.115c-0.121,0.028-0.256,0.045-0.406,0.049c-0.023,0-0.069-0.001-0.137-0.003
		c-0.067-0.003-0.147-0.012-0.238-0.028s-0.188-0.047-0.291-0.091s-0.203-0.108-0.301-0.192c-0.056-0.047-0.106-0.096-0.15-0.147
		c-0.044-0.051-0.087-0.104-0.129-0.161v0.567h-0.602v-5.299H76.049z M76.055,272.765c-0.004,0.023-0.007,0.047-0.007,0.07
		c0,0.019,0,0.04,0,0.063c0,0.22,0.03,0.4,0.091,0.543c0.061,0.143,0.131,0.26,0.21,0.354c0.098,0.107,0.191,0.184,0.28,0.228
		c0.088,0.044,0.154,0.073,0.196,0.088c0.065,0.023,0.127,0.038,0.186,0.045c0.059,0.007,0.099,0.011,0.123,0.011
		c0.135,0,0.252-0.024,0.35-0.073c0.098-0.05,0.172-0.095,0.224-0.137c0.088-0.075,0.163-0.16,0.224-0.256
		c0.061-0.096,0.109-0.194,0.144-0.297c0.035-0.103,0.06-0.204,0.074-0.305s0.021-0.19,0.021-0.27
		c-0.009-0.233-0.056-0.45-0.14-0.651c-0.037-0.093-0.086-0.18-0.147-0.259s-0.133-0.149-0.217-0.21
		c-0.08-0.056-0.168-0.098-0.266-0.126s-0.196-0.04-0.294-0.035c-0.038,0-0.103,0.01-0.196,0.028s-0.193,0.061-0.301,0.126
		c-0.135,0.084-0.239,0.183-0.312,0.297c-0.072,0.115-0.127,0.226-0.165,0.333c-0.038,0.107-0.06,0.202-0.066,0.283
		C76.059,272.696,76.055,272.746,76.055,272.765z"/>
	<path fill="#5E5E5D" d="M79.612,271.288c0.047-0.023,0.087-0.045,0.123-0.063s0.074-0.039,0.116-0.063
		c0.098-0.047,0.197-0.082,0.297-0.105c0.1-0.023,0.193-0.04,0.28-0.052s0.161-0.019,0.224-0.021
		c0.063-0.002,0.108-0.004,0.137-0.004c0.294,0,0.544,0.051,0.752,0.151c0.208,0.1,0.36,0.229,0.458,0.388
		c0.051,0.075,0.088,0.158,0.112,0.249s0.049,0.216,0.077,0.374v2.527h-0.574v-0.574c-0.07,0.08-0.134,0.148-0.192,0.207
		c-0.059,0.058-0.127,0.117-0.207,0.178c-0.093,0.065-0.213,0.124-0.36,0.176c-0.147,0.051-0.328,0.072-0.542,0.063
		c-0.145-0.009-0.284-0.032-0.417-0.07c-0.133-0.037-0.253-0.098-0.36-0.182c-0.094-0.079-0.17-0.174-0.231-0.283
		c-0.061-0.109-0.103-0.228-0.126-0.354c-0.014-0.07-0.021-0.138-0.021-0.203c0-0.145,0.022-0.271,0.067-0.378
		c0.044-0.107,0.099-0.199,0.164-0.276s0.139-0.142,0.221-0.192c0.082-0.052,0.158-0.094,0.228-0.126
		c0.187-0.089,0.384-0.143,0.591-0.161s0.405-0.028,0.592-0.028c0.093,0,0.184,0.001,0.273,0.004
		c0.088,0.002,0.177,0.006,0.266,0.01c-0.005-0.074-0.011-0.153-0.018-0.237c-0.007-0.084-0.024-0.164-0.053-0.238
		c-0.046-0.121-0.139-0.233-0.276-0.336s-0.321-0.154-0.549-0.154c-0.117,0-0.23,0.015-0.34,0.042
		c-0.109,0.028-0.211,0.061-0.304,0.099c-0.094,0.037-0.175,0.075-0.245,0.115s-0.124,0.068-0.161,0.087V271.288z M81.572,272.94
		c-0.168-0.015-0.336-0.021-0.504-0.021c-0.117,0-0.215,0.005-0.294,0.014c-0.08,0.01-0.145,0.019-0.196,0.028
		c-0.084,0.019-0.169,0.046-0.256,0.08c-0.086,0.035-0.163,0.08-0.231,0.134c-0.067,0.054-0.124,0.118-0.168,0.195
		s-0.066,0.167-0.066,0.27c0,0.107,0.023,0.198,0.07,0.273c0.047,0.074,0.105,0.134,0.175,0.179c0.07,0.044,0.147,0.076,0.231,0.098
		c0.084,0.021,0.166,0.031,0.245,0.031c0.135,0,0.271-0.027,0.406-0.084c0.135-0.056,0.257-0.156,0.364-0.301
		c0.056-0.07,0.095-0.133,0.119-0.189c0.023-0.056,0.04-0.095,0.049-0.118c0.019-0.057,0.032-0.122,0.042-0.196
		c0.009-0.074,0.014-0.173,0.014-0.294V272.94z"/>
	<path fill="#5E5E5D" d="M83.77,273.899v0.77h-0.777v-0.77H83.77z"/>
	<path fill="#5E5E5D" d="M87.046,269.37h0.672c-0.004,0.438-0.009,0.876-0.014,1.313c-0.005,0.437-0.007,0.876-0.007,1.319
		c0,0.178,0,0.343,0,0.497c0,0.149,0.001,0.3,0.004,0.451c0.002,0.152,0.004,0.305,0.007,0.459c0.002,0.153,0.006,0.317,0.01,0.49
		c0.005,0.145,0.008,0.272,0.011,0.385c0.002,0.111,0.008,0.24,0.018,0.385h-0.63l-0.028-0.553
		c-0.056,0.074-0.099,0.131-0.129,0.168s-0.064,0.069-0.102,0.098c-0.098,0.094-0.201,0.165-0.308,0.214s-0.209,0.085-0.304,0.108
		c-0.096,0.023-0.179,0.037-0.249,0.042c-0.07,0.005-0.117,0.007-0.14,0.007c-0.219,0-0.412-0.031-0.578-0.095
		c-0.166-0.063-0.309-0.142-0.43-0.237c-0.122-0.096-0.221-0.203-0.298-0.322c-0.077-0.119-0.139-0.234-0.186-0.347
		c-0.051-0.131-0.087-0.264-0.108-0.399c-0.021-0.135-0.034-0.266-0.039-0.392c0-0.028,0-0.094,0-0.196
		c0-0.107,0.015-0.231,0.046-0.374c0.03-0.143,0.08-0.294,0.15-0.455c0.07-0.161,0.175-0.313,0.315-0.459
		c0.117-0.121,0.238-0.216,0.364-0.283s0.244-0.116,0.354-0.146c0.11-0.03,0.207-0.05,0.291-0.057s0.143-0.011,0.175-0.011
		c0.224,0,0.411,0.035,0.56,0.105c0.149,0.07,0.271,0.145,0.364,0.224c0.037,0.038,0.069,0.069,0.095,0.095
		c0.025,0.025,0.064,0.071,0.115,0.137V269.37z M84.918,272.853c-0.009,0.126-0.002,0.253,0.021,0.379s0.063,0.248,0.119,0.365
		c0.098,0.206,0.229,0.356,0.396,0.452c0.166,0.097,0.337,0.145,0.514,0.145c0.224,0,0.427-0.068,0.609-0.204
		c0.182-0.136,0.317-0.332,0.406-0.59c0.038-0.111,0.06-0.216,0.066-0.312c0.007-0.097,0.011-0.16,0.011-0.193
		c0.004-0.131-0.003-0.244-0.024-0.341c-0.021-0.096-0.039-0.169-0.053-0.221c-0.084-0.253-0.216-0.445-0.396-0.579
		c-0.18-0.133-0.377-0.2-0.591-0.2c-0.047,0-0.112,0.008-0.196,0.021s-0.174,0.046-0.27,0.095s-0.19,0.123-0.283,0.221
		c-0.094,0.099-0.17,0.231-0.231,0.4c-0.047,0.131-0.075,0.246-0.084,0.344C84.922,272.733,84.918,272.806,84.918,272.853z"/>
	<path fill="#5E5E5D" d="M88.964,273.038c0.009,0.037,0.021,0.104,0.035,0.199c0.014,0.096,0.049,0.197,0.105,0.305
		c0.037,0.074,0.087,0.149,0.15,0.224c0.063,0.075,0.139,0.143,0.228,0.203c0.088,0.061,0.191,0.111,0.308,0.15
		c0.116,0.04,0.249,0.063,0.398,0.066c0.177,0.01,0.336-0.009,0.479-0.056c0.143-0.047,0.244-0.081,0.304-0.104
		c0.061-0.028,0.113-0.056,0.157-0.081c0.044-0.025,0.095-0.055,0.15-0.087v0.63c-0.121,0.051-0.266,0.103-0.433,0.153
		c-0.168,0.052-0.385,0.077-0.65,0.077c-0.023,0-0.078-0.001-0.164-0.003c-0.086-0.003-0.189-0.016-0.308-0.039
		c-0.119-0.023-0.246-0.061-0.381-0.112c-0.135-0.051-0.263-0.123-0.384-0.217c-0.122-0.093-0.216-0.188-0.284-0.283
		c-0.067-0.096-0.111-0.162-0.129-0.199c-0.056-0.094-0.11-0.221-0.161-0.382s-0.082-0.358-0.091-0.592
		c-0.005-0.214,0.016-0.41,0.063-0.588c0.047-0.177,0.11-0.336,0.189-0.476c0.08-0.141,0.17-0.261,0.273-0.36
		c0.103-0.101,0.21-0.184,0.322-0.249c0.079-0.051,0.147-0.086,0.203-0.104c0.056-0.019,0.103-0.033,0.14-0.042
		c0.047-0.015,0.117-0.03,0.21-0.05c0.093-0.019,0.203-0.027,0.329-0.027c0.285,0,0.522,0.051,0.714,0.153
		c0.191,0.104,0.341,0.218,0.448,0.344c0.075,0.093,0.135,0.193,0.182,0.301c0.046,0.107,0.084,0.216,0.112,0.325
		c0.028,0.11,0.048,0.219,0.06,0.326s0.02,0.205,0.024,0.294c0.004,0.056,0.007,0.107,0.007,0.153c0,0.042,0.002,0.092,0.007,0.147
		H88.964z M90.889,272.527c-0.014-0.122-0.035-0.242-0.063-0.361c-0.028-0.118-0.088-0.238-0.181-0.36
		c-0.056-0.079-0.137-0.151-0.244-0.217s-0.249-0.096-0.426-0.091c-0.204,0.005-0.388,0.067-0.551,0.188
		c-0.163,0.122-0.288,0.297-0.376,0.525c-0.023,0.065-0.04,0.12-0.049,0.164c-0.009,0.045-0.021,0.095-0.035,0.151H90.889z"/>
</g>
</svg>
