<svg version="1.1" id="SVG" xmlns="http://www.w3.org/2000/svg" xmlns:xlink="http://www.w3.org/1999/xlink" x="0px" y="0px"
     width="193.89px" height="303.307px" viewBox="0 0 193.89 303.307" enable-background="new 0 0 193.89 303.307"
     xml:space="preserve">
    <g id="all">
    <g>
	<g transform="translate(-6,0)">
		<rect x="28.097" y="17.829" fill="#0066B3" width="36.688" height="18.605"/>
		<rect x="28.097" y="36.436" fill="#FFFFFF" width="36.69" height="1.845"/>
		<rect x="28.097" y="38.28" fill="#F36F21" width="36.688" height="4.078"/>
		<path fill-rule="evenodd" fill="#FFFFFF" d="M34.374,23.635l1.119,4.493h3.946l3.533,14.852h7.185l2.416-14.082
			c0.008-1.19,1.452-1.178,1.4,0.07c-0.039,0.95-0.234,2.414,0.309,2.691c1.131,0.576,2.709,0.42,3.356-2.582
			s1.178-5.442,1.178-5.442s-5.83,0-6.42,0c-0.589,0-2.649,0-3.828,4.493c-1.178,4.492-2.062,8.582-2.062,8.582l-3.122-13.075
			H34.374"/>
		<path fill="#0066B3" d="M103.985,17.115v4.44c0.074-0.128,0.139-0.227,0.195-0.296c0.053-0.069,0.104-0.131,0.15-0.187
			c0.175-0.184,0.419-0.355,0.731-0.517s0.699-0.247,1.158-0.255c0.129,0,0.318,0.016,0.566,0.048
			c0.246,0.032,0.51,0.117,0.785,0.255s0.541,0.348,0.793,0.628s0.459,0.669,0.613,1.165c0.047,0.157,0.096,0.357,0.146,0.607
			c0.051,0.248,0.076,0.556,0.076,0.924c0.008,0.781-0.105,1.438-0.338,1.972c-0.234,0.533-0.523,0.947-0.863,1.241
			c-0.057,0.047-0.133,0.105-0.234,0.18s-0.225,0.143-0.373,0.207c-0.256,0.119-0.51,0.191-0.758,0.214s-0.404,0.034-0.469,0.034
			c-0.479,0-0.879-0.073-1.201-0.221c-0.322-0.146-0.575-0.336-0.759-0.565c-0.072-0.101-0.135-0.198-0.188-0.29
			c-0.049-0.092-0.084-0.146-0.102-0.166v1.118h-1.779V17.115H103.985 M105.724,21.818c-0.184,0-0.373,0.037-0.566,0.11
			c-0.248,0.102-0.447,0.24-0.6,0.414c-0.151,0.176-0.271,0.364-0.353,0.572c-0.082,0.207-0.139,0.413-0.166,0.62
			s-0.041,0.394-0.041,0.559c0,0.212,0.018,0.421,0.057,0.628c0.037,0.207,0.104,0.416,0.207,0.628
			c0.047,0.083,0.092,0.165,0.145,0.248c0.052,0.083,0.112,0.16,0.187,0.233c0.109,0.119,0.223,0.212,0.338,0.275
			c0.115,0.064,0.221,0.111,0.316,0.139c0.098,0.027,0.182,0.041,0.256,0.041c0.082,0,0.137,0,0.166,0
			c0.055,0,0.166-0.014,0.338-0.041c0.17-0.027,0.346-0.119,0.531-0.275c0.146-0.129,0.27-0.279,0.365-0.449
			c0.096-0.168,0.172-0.344,0.227-0.523c0.057-0.179,0.092-0.354,0.111-0.523c0.018-0.17,0.025-0.324,0.025-0.463
			c0-0.221-0.02-0.445-0.061-0.676c-0.041-0.229-0.111-0.45-0.213-0.66c-0.047-0.104-0.096-0.193-0.152-0.271
			c-0.055-0.077-0.107-0.14-0.152-0.186c-0.092-0.083-0.217-0.17-0.379-0.263C106.15,21.864,105.955,21.818,105.724,21.818z
			 M100.565,21.971c-0.285-0.083-0.545-0.152-0.779-0.207c-0.234-0.056-0.49-0.078-0.766-0.069c-0.387,0-0.699,0.066-0.936,0.201
			c-0.24,0.133-0.361,0.323-0.361,0.571c0,0.056,0.016,0.118,0.043,0.186c0.027,0.069,0.068,0.126,0.125,0.173
			c0.1,0.082,0.229,0.154,0.385,0.213c0.156,0.061,0.35,0.127,0.58,0.201c0.238,0.073,0.436,0.137,0.592,0.193
			c0.156,0.055,0.285,0.105,0.387,0.15c0.293,0.139,0.521,0.302,0.682,0.49c0.162,0.188,0.279,0.377,0.354,0.566
			c0.072,0.188,0.115,0.357,0.131,0.51c0.014,0.152,0.02,0.254,0.02,0.311c0,0.211-0.029,0.432-0.09,0.661
			c-0.059,0.229-0.172,0.45-0.338,0.662c-0.109,0.138-0.225,0.257-0.344,0.358c-0.121,0.102-0.234,0.182-0.346,0.242
			c-0.109,0.059-0.209,0.107-0.297,0.145c-0.086,0.037-0.148,0.06-0.186,0.069c-0.285,0.101-0.563,0.155-0.834,0.165
			c-0.273,0.01-0.449,0.014-0.531,0.014c-0.201,0-0.389-0.006-0.559-0.021c-0.17-0.014-0.336-0.034-0.496-0.062
			s-0.326-0.063-0.496-0.104c-0.172-0.041-0.357-0.086-0.561-0.131l0.098-1.574c0.164,0.074,0.402,0.171,0.711,0.29
			c0.307,0.12,0.674,0.18,1.096,0.18c0.387,0,0.695-0.069,0.93-0.207c0.236-0.138,0.352-0.326,0.352-0.565
			c0-0.118-0.029-0.221-0.088-0.304c-0.061-0.081-0.137-0.152-0.229-0.212c-0.092-0.061-0.188-0.111-0.289-0.152
			c-0.1-0.041-0.193-0.076-0.275-0.104c-0.186-0.064-0.361-0.127-0.531-0.186c-0.17-0.061-0.336-0.125-0.496-0.194
			c-0.162-0.068-0.313-0.149-0.455-0.241s-0.279-0.211-0.406-0.359c-0.129-0.137-0.246-0.311-0.346-0.517
			c-0.102-0.207-0.152-0.466-0.152-0.78c0-0.237,0.043-0.479,0.131-0.723c0.088-0.243,0.25-0.484,0.49-0.725
			c0.213-0.202,0.443-0.355,0.697-0.461c0.252-0.106,0.494-0.182,0.725-0.229c0.229-0.046,0.424-0.071,0.584-0.076
			c0.16-0.004,0.26-0.006,0.297-0.006c0.34,0,0.658,0.027,0.951,0.082c0.295,0.055,0.613,0.119,0.953,0.193L100.565,21.971z
			 M91.063,23.349c0.119-0.174,0.229-0.328,0.324-0.462c0.098-0.134,0.209-0.278,0.338-0.435l1.627-2.027h2.164l-2.688,3.186
			l3.033,4.042h-2.316L91.96,25.46c-0.184-0.248-0.34-0.476-0.469-0.684c-0.129-0.207-0.271-0.443-0.428-0.71v3.586h-1.861V17.115
			h1.861V23.349z M85.713,17.115h1.876v10.536h-1.876V17.115z M80.776,20.287c0.283,0,0.566,0.025,0.847,0.076
			s0.55,0.131,0.808,0.241c0.387,0.166,0.701,0.368,0.945,0.607c0.243,0.238,0.438,0.479,0.586,0.717
			c0.146,0.24,0.255,0.463,0.322,0.67c0.07,0.207,0.113,0.355,0.132,0.447c0.056,0.229,0.087,0.435,0.097,0.613
			c0.009,0.18,0.014,0.307,0.014,0.38c0,0.497-0.066,0.94-0.2,1.331s-0.308,0.73-0.522,1.02c-0.217,0.29-0.461,0.529-0.732,0.718
			s-0.545,0.333-0.82,0.435c-0.322,0.119-0.625,0.188-0.91,0.207s-0.478,0.027-0.58,0.027c-0.229,0-0.456-0.016-0.682-0.048
			s-0.448-0.085-0.669-0.159c-0.276-0.092-0.558-0.234-0.843-0.428c-0.285-0.192-0.541-0.434-0.771-0.725
			c-0.229-0.289-0.416-0.634-0.559-1.033s-0.214-0.857-0.214-1.373c0.009-0.652,0.119-1.203,0.331-1.654
			c0.212-0.45,0.455-0.809,0.731-1.076c0.164-0.156,0.309-0.271,0.434-0.344c0.124-0.074,0.213-0.129,0.269-0.166
			c0.184-0.102,0.444-0.207,0.779-0.318C79.904,20.343,80.306,20.287,80.776,20.287z M80.79,21.667c-0.185,0-0.373,0.037-0.566,0.11
			c-0.119,0.046-0.225,0.099-0.317,0.159c-0.092,0.06-0.155,0.107-0.192,0.145c-0.203,0.175-0.373,0.421-0.511,0.736
			c-0.138,0.317-0.207,0.711-0.207,1.18c0,0.414,0.058,0.777,0.173,1.09c0.114,0.313,0.236,0.548,0.365,0.703
			c0.109,0.129,0.214,0.228,0.311,0.297c0.097,0.068,0.168,0.112,0.214,0.131c0.156,0.082,0.306,0.131,0.448,0.145
			s0.236,0.021,0.283,0.021c0.266,0,0.49-0.047,0.674-0.139c0.185-0.092,0.327-0.188,0.428-0.289
			c0.212-0.193,0.375-0.453,0.49-0.779s0.168-0.738,0.158-1.234c-0.008-0.275-0.048-0.58-0.117-0.91
			c-0.068-0.332-0.236-0.631-0.504-0.896c-0.128-0.129-0.279-0.238-0.455-0.33C81.291,21.713,81.064,21.667,80.79,21.667z
			 M72.307,23.239c0.082,0.257,0.156,0.484,0.22,0.682c0.065,0.198,0.134,0.422,0.208,0.67c0.072,0.238,0.137,0.457,0.192,0.654
			s0.12,0.416,0.193,0.655c0.073-0.239,0.143-0.462,0.207-0.669c0.063-0.206,0.126-0.41,0.186-0.613
			c0.06-0.202,0.122-0.407,0.187-0.613c0.064-0.207,0.134-0.43,0.207-0.67l1.737-5.42h1.932l-3.324,9.737h-2.4l-3.364-9.737h2.082
			L72.307,23.239z"/>
		<path fill="#0066B3" d="M128.135,23.349c0.119-0.174,0.229-0.328,0.324-0.462c0.098-0.134,0.209-0.278,0.338-0.435l1.627-2.027
			h2.166L129.9,23.61l3.035,4.042h-2.318l-1.584-2.192c-0.186-0.248-0.342-0.476-0.471-0.684c-0.129-0.207-0.271-0.443-0.428-0.71
			v3.586h-1.861V17.115h1.861V23.349z M122.826,27.652v-3.489c-0.01-0.433-0.029-0.775-0.055-1.028
			c-0.029-0.253-0.094-0.48-0.193-0.683c-0.066-0.118-0.139-0.219-0.223-0.295c-0.082-0.078-0.188-0.15-0.316-0.214
			c-0.045-0.019-0.117-0.042-0.215-0.069c-0.094-0.027-0.207-0.041-0.338-0.041c-0.063-0.01-0.184,0.002-0.363,0.033
			c-0.18,0.033-0.371,0.127-0.572,0.283c-0.166,0.129-0.297,0.271-0.395,0.427c-0.096,0.157-0.166,0.327-0.213,0.511
			s-0.078,0.375-0.096,0.572c-0.02,0.197-0.029,0.402-0.029,0.614v3.379h-1.889v-5.489c0-0.321-0.004-0.611-0.014-0.868
			c-0.01-0.258-0.023-0.548-0.041-0.87h1.807v1.118c0.082-0.11,0.174-0.221,0.275-0.331c0.139-0.156,0.275-0.275,0.414-0.359
			c0.139-0.082,0.23-0.138,0.275-0.165c0.275-0.156,0.535-0.258,0.773-0.304c0.238-0.045,0.49-0.068,0.756-0.068
			c0.352,0,0.639,0.036,0.863,0.109c0.225,0.074,0.412,0.157,0.559,0.249c0.074,0.046,0.164,0.112,0.27,0.2s0.223,0.223,0.352,0.406
			c0.109,0.147,0.195,0.309,0.256,0.483c0.059,0.175,0.102,0.368,0.131,0.579c0.027,0.212,0.045,0.449,0.053,0.717
			c0.01,0.266,0.021,0.565,0.029,0.896v3.696H122.826z M114.744,27.652v-1.062c-0.055,0.101-0.141,0.223-0.256,0.365
			c-0.113,0.143-0.291,0.287-0.531,0.434c-0.266,0.157-0.535,0.261-0.807,0.311c-0.271,0.051-0.539,0.076-0.807,0.076
			c-0.496,0-0.902-0.073-1.221-0.221c-0.316-0.146-0.566-0.333-0.752-0.559c-0.184-0.226-0.307-0.467-0.373-0.725
			c-0.063-0.257-0.096-0.496-0.096-0.717c0.01-0.386,0.08-0.705,0.215-0.958c0.133-0.253,0.291-0.458,0.477-0.614
			c0.293-0.266,0.689-0.465,1.186-0.593c0.496-0.129,1.102-0.198,1.818-0.208h0.084c0.184,0,0.348,0.003,0.49,0.008
			c0.143,0.004,0.307,0.016,0.49,0.034c-0.02-0.165-0.037-0.343-0.057-0.53c-0.018-0.188-0.086-0.365-0.207-0.531
			c-0.109-0.156-0.256-0.279-0.441-0.372c-0.184-0.093-0.432-0.147-0.744-0.165h-0.18c-0.348,0.009-0.645,0.05-0.889,0.123
			c-0.244,0.074-0.439,0.143-0.586,0.207c-0.074,0.037-0.17,0.086-0.289,0.146c-0.121,0.06-0.268,0.159-0.441,0.296l-0.057-1.627
			c0.146-0.056,0.303-0.111,0.463-0.166s0.338-0.105,0.531-0.152c0.193-0.045,0.412-0.084,0.654-0.117
			c0.244-0.031,0.518-0.048,0.82-0.048c0.176,0,0.363,0.005,0.566,0.015c0.201,0.008,0.402,0.039,0.6,0.09
			c0.197,0.05,0.396,0.121,0.594,0.213s0.385,0.212,0.559,0.359c0.092,0.082,0.197,0.197,0.322,0.344
			c0.125,0.147,0.225,0.336,0.297,0.566c0.092,0.239,0.145,0.523,0.16,0.854c0.012,0.332,0.02,0.617,0.02,0.855v1.711
			c0,0.434,0.004,0.824,0.014,1.18c0.008,0.354,0.023,0.746,0.041,1.179H114.744z M114.703,24.384
			c-0.119-0.01-0.236-0.016-0.352-0.021s-0.238-0.007-0.367-0.007c-0.496,0-0.924,0.048-1.281,0.145
			c-0.359,0.097-0.615,0.283-0.771,0.559c-0.074,0.139-0.111,0.295-0.111,0.469c0,0.102,0.02,0.209,0.055,0.324
			c0.037,0.115,0.1,0.223,0.186,0.323c0.088,0.103,0.205,0.185,0.346,0.249c0.145,0.064,0.324,0.097,0.545,0.097
			c0.109,0,0.25-0.021,0.42-0.063s0.344-0.12,0.518-0.235c0.174-0.113,0.334-0.275,0.477-0.482c0.143-0.206,0.24-0.475,0.297-0.805
			c0.018-0.102,0.029-0.217,0.033-0.346S114.703,24.394,114.703,24.384z"/>
		<path fill="#F36F21" d="M129.203,47.707c-0.238-0.081-0.428-0.138-0.568-0.171c-0.139-0.031-0.266-0.047-0.383-0.047
			c-0.127,0-0.236,0.014-0.322,0.043c-0.088,0.029-0.154,0.063-0.201,0.104c-0.012,0.013-0.029,0.029-0.053,0.054
			c-0.021,0.022-0.047,0.049-0.068,0.077c-0.014,0.023-0.029,0.062-0.053,0.113c-0.023,0.053-0.035,0.11-0.035,0.175
			c0.006,0.047,0.016,0.086,0.025,0.117c0.012,0.033,0.023,0.061,0.035,0.083c0.035,0.063,0.082,0.124,0.139,0.179
			c0.061,0.055,0.15,0.118,0.271,0.188c0.018,0.011,0.035,0.022,0.053,0.03s0.037,0.019,0.061,0.03
			c0.135,0.07,0.252,0.13,0.354,0.179s0.191,0.097,0.27,0.14c0.078,0.044,0.15,0.089,0.215,0.136
			c0.064,0.046,0.129,0.102,0.191,0.165c0.07,0.076,0.141,0.185,0.209,0.327c0.07,0.143,0.105,0.307,0.105,0.493
			c0,0.256-0.076,0.497-0.23,0.724s-0.377,0.398-0.668,0.516c-0.139,0.058-0.277,0.09-0.414,0.1
			c-0.137,0.009-0.225,0.016-0.266,0.021c-0.309,0.006-0.564-0.022-0.764-0.086c-0.201-0.064-0.367-0.125-0.502-0.185l0.061-0.75
			c0.035,0.019,0.09,0.045,0.166,0.083s0.164,0.076,0.262,0.113c0.1,0.037,0.205,0.07,0.318,0.097s0.23,0.036,0.354,0.03
			c0.262-0.006,0.453-0.073,0.576-0.201c0.121-0.127,0.184-0.262,0.184-0.401c0-0.145-0.045-0.267-0.133-0.366
			c-0.045-0.047-0.096-0.086-0.146-0.117c-0.053-0.032-0.105-0.063-0.158-0.092c-0.121-0.063-0.24-0.127-0.352-0.188
			c-0.115-0.061-0.23-0.126-0.346-0.196c-0.094-0.059-0.182-0.116-0.266-0.175s-0.16-0.128-0.223-0.209
			c-0.168-0.21-0.26-0.448-0.271-0.715c-0.01-0.221,0.047-0.441,0.176-0.659c0.127-0.218,0.322-0.385,0.584-0.501
			c0.07-0.029,0.164-0.059,0.283-0.088s0.264-0.046,0.432-0.053c0.211-0.006,0.404,0.01,0.586,0.045
			c0.18,0.033,0.371,0.08,0.574,0.139L129.203,47.707 M122.886,49.39c0.014,0.047,0.027,0.131,0.045,0.249
			c0.018,0.119,0.061,0.246,0.131,0.38c0.047,0.092,0.109,0.186,0.188,0.278c0.078,0.094,0.172,0.178,0.283,0.254
			c0.109,0.075,0.238,0.138,0.385,0.187c0.145,0.051,0.309,0.078,0.496,0.084c0.221,0.012,0.42-0.013,0.598-0.07
			c0.178-0.059,0.305-0.102,0.379-0.131c0.076-0.035,0.143-0.068,0.197-0.1c0.055-0.033,0.117-0.068,0.188-0.109v0.785
			c-0.152,0.063-0.332,0.127-0.541,0.191s-0.48,0.096-0.813,0.096c-0.029,0-0.096-0.002-0.205-0.004
			c-0.105-0.002-0.234-0.019-0.383-0.048c-0.148-0.03-0.307-0.075-0.475-0.14c-0.17-0.064-0.328-0.154-0.48-0.271
			c-0.152-0.115-0.27-0.232-0.354-0.353c-0.084-0.119-0.139-0.202-0.16-0.248c-0.07-0.117-0.139-0.274-0.201-0.476
			c-0.064-0.201-0.102-0.446-0.113-0.737c-0.006-0.267,0.02-0.511,0.078-0.733c0.059-0.22,0.137-0.418,0.236-0.593
			c0.098-0.174,0.211-0.324,0.34-0.449c0.127-0.125,0.262-0.228,0.4-0.31c0.1-0.063,0.184-0.107,0.254-0.131
			c0.068-0.023,0.127-0.041,0.174-0.053c0.059-0.017,0.145-0.037,0.262-0.061s0.252-0.035,0.41-0.035
			c0.354,0,0.652,0.064,0.889,0.191c0.238,0.129,0.426,0.271,0.559,0.429c0.094,0.116,0.17,0.241,0.227,0.375
			c0.059,0.134,0.105,0.269,0.141,0.405s0.059,0.271,0.074,0.406c0.014,0.133,0.025,0.256,0.029,0.365
			c0.006,0.07,0.01,0.135,0.01,0.192c0,0.053,0.002,0.114,0.008,0.183H122.886z M125.295,48.754
			c-0.018-0.151-0.043-0.302-0.078-0.45s-0.109-0.298-0.227-0.449c-0.07-0.099-0.172-0.188-0.307-0.27
			c-0.133-0.082-0.311-0.119-0.531-0.114c-0.256,0.007-0.484,0.085-0.689,0.236c-0.203,0.151-0.361,0.368-0.471,0.653
			c-0.029,0.082-0.049,0.15-0.061,0.205s-0.025,0.118-0.045,0.188H125.295z M118.054,44.819v2.826
			c0.012-0.022,0.049-0.076,0.109-0.156c0.061-0.082,0.133-0.16,0.215-0.236c0.109-0.1,0.271-0.193,0.482-0.283
			c0.213-0.09,0.461-0.135,0.746-0.135c0.215,0,0.4,0.023,0.555,0.068c0.154,0.047,0.271,0.094,0.354,0.141
			c0.133,0.076,0.27,0.184,0.41,0.322c0.139,0.14,0.264,0.341,0.375,0.603c0.059,0.134,0.104,0.269,0.135,0.405
			s0.055,0.262,0.068,0.375c0.016,0.113,0.025,0.214,0.027,0.301c0.004,0.088,0.004,0.148,0.004,0.184
			c0,0.262-0.033,0.531-0.1,0.812c-0.066,0.278-0.211,0.543-0.432,0.793c-0.076,0.088-0.16,0.169-0.254,0.245
			c-0.092,0.074-0.197,0.145-0.313,0.205c-0.117,0.061-0.25,0.109-0.402,0.144c-0.15,0.034-0.32,0.056-0.506,0.062
			c-0.029,0-0.086-0.002-0.17-0.006c-0.084-0.002-0.184-0.014-0.297-0.035c-0.113-0.02-0.234-0.057-0.361-0.112
			c-0.129-0.056-0.254-0.136-0.375-0.24c-0.07-0.058-0.133-0.118-0.188-0.183c-0.057-0.064-0.109-0.131-0.162-0.201v0.707h-0.75
			v-6.604H118.054z M118.064,49.05c-0.006,0.029-0.01,0.059-0.01,0.088c0,0.023,0,0.049,0,0.078c0,0.273,0.037,0.499,0.113,0.676
			c0.076,0.178,0.164,0.324,0.262,0.441c0.123,0.133,0.238,0.229,0.35,0.283c0.109,0.055,0.191,0.092,0.244,0.108
			c0.082,0.029,0.158,0.048,0.23,0.058c0.074,0.008,0.125,0.013,0.154,0.013c0.168,0,0.313-0.031,0.436-0.093
			c0.121-0.061,0.215-0.117,0.279-0.17c0.111-0.092,0.203-0.198,0.279-0.317c0.074-0.119,0.135-0.243,0.178-0.371
			c0.045-0.128,0.074-0.254,0.092-0.379s0.027-0.237,0.027-0.336c-0.012-0.291-0.07-0.562-0.176-0.812
			c-0.047-0.117-0.107-0.224-0.184-0.322c-0.074-0.1-0.164-0.187-0.27-0.262c-0.1-0.07-0.209-0.123-0.332-0.158
			c-0.121-0.034-0.244-0.049-0.365-0.043c-0.047,0-0.129,0.012-0.244,0.035c-0.117,0.023-0.242,0.075-0.375,0.156
			c-0.17,0.105-0.299,0.229-0.389,0.371s-0.158,0.281-0.205,0.414c-0.047,0.134-0.074,0.252-0.082,0.354
			C118.068,48.964,118.064,49.026,118.064,49.05z M108.217,47.559c0.074-0.104,0.135-0.183,0.184-0.235
			c0.045-0.053,0.098-0.1,0.156-0.14c0.145-0.116,0.307-0.202,0.484-0.258c0.176-0.056,0.338-0.083,0.484-0.083
			c0.221-0.011,0.416,0.018,0.584,0.087c0.168,0.07,0.293,0.138,0.375,0.201c0.035,0.028,0.064,0.056,0.092,0.079
			c0.025,0.023,0.053,0.049,0.082,0.078c0.07,0.082,0.129,0.172,0.174,0.271c0.047,0.099,0.074,0.151,0.08,0.157
			c0.07-0.105,0.123-0.184,0.16-0.236c0.039-0.052,0.08-0.102,0.127-0.147c0.117-0.122,0.238-0.218,0.367-0.288
			c0.127-0.07,0.248-0.119,0.361-0.148s0.211-0.047,0.297-0.053c0.084-0.006,0.145-0.008,0.18-0.008
			c0.195,0,0.369,0.025,0.518,0.078s0.275,0.121,0.379,0.205c0.105,0.084,0.191,0.179,0.258,0.283s0.117,0.209,0.152,0.314
			c0.064,0.168,0.102,0.33,0.109,0.484c0.01,0.154,0.016,0.254,0.021,0.301v2.922h-0.793v-2.539c0-0.284-0.02-0.518-0.057-0.697
			c-0.037-0.181-0.123-0.332-0.258-0.453c-0.105-0.094-0.211-0.148-0.318-0.166s-0.172-0.026-0.197-0.026
			c-0.15,0-0.299,0.034-0.443,0.104c-0.146,0.07-0.277,0.184-0.393,0.34c-0.129,0.17-0.209,0.35-0.24,0.541
			c-0.031,0.192-0.055,0.373-0.064,0.541v2.355h-0.838v-2.766c-0.012-0.203-0.039-0.394-0.084-0.571
			c-0.043-0.177-0.148-0.321-0.318-0.433c-0.08-0.051-0.16-0.084-0.236-0.095c-0.074-0.012-0.127-0.018-0.154-0.018
			c-0.188,0-0.348,0.041-0.48,0.122c-0.135,0.082-0.232,0.154-0.297,0.218c-0.082,0.082-0.141,0.163-0.18,0.245
			c-0.037,0.081-0.063,0.136-0.074,0.165c-0.035,0.093-0.064,0.204-0.086,0.332c-0.023,0.128-0.041,0.293-0.053,0.497
			c-0.006,0.093-0.01,0.177-0.01,0.253c0,0.069,0,0.153,0,0.253v1.797h-0.854v-4.51h0.775L108.217,47.559z M103.235,47.21
			c0.057-0.029,0.107-0.057,0.15-0.079c0.045-0.022,0.094-0.049,0.145-0.078c0.123-0.058,0.246-0.103,0.371-0.131
			c0.125-0.029,0.24-0.052,0.35-0.065c0.107-0.015,0.202-0.023,0.28-0.027c0.078-0.002,0.135-0.004,0.17-0.004
			c0.367,0,0.678,0.063,0.938,0.188s0.449,0.286,0.57,0.484c0.064,0.093,0.111,0.196,0.141,0.309
			c0.029,0.114,0.061,0.269,0.096,0.468v3.148h-0.715v-0.715c-0.088,0.098-0.168,0.184-0.24,0.257s-0.158,0.147-0.256,0.222
			c-0.117,0.082-0.268,0.154-0.451,0.219c-0.184,0.063-0.409,0.09-0.677,0.078c-0.18-0.012-0.354-0.041-0.52-0.086
			c-0.166-0.048-0.314-0.123-0.449-0.228c-0.115-0.099-0.211-0.218-0.287-0.354c-0.076-0.136-0.129-0.283-0.156-0.439
			c-0.018-0.087-0.027-0.172-0.027-0.253c0-0.181,0.029-0.337,0.084-0.472c0.055-0.134,0.123-0.248,0.205-0.344
			c0.08-0.097,0.172-0.176,0.275-0.24c0.1-0.063,0.195-0.117,0.281-0.156c0.234-0.111,0.479-0.178,0.738-0.201
			c0.259-0.023,0.505-0.035,0.737-0.035c0.117,0,0.23,0.002,0.34,0.004c0.111,0.003,0.221,0.008,0.332,0.014
			c-0.006-0.093-0.012-0.191-0.021-0.297c-0.01-0.104-0.029-0.203-0.064-0.297c-0.059-0.15-0.174-0.29-0.346-0.418
			s-0.4-0.191-0.686-0.191c-0.146,0-0.286,0.017-0.423,0.052c-0.137,0.034-0.264,0.075-0.379,0.122
			c-0.117,0.047-0.219,0.095-0.305,0.144c-0.09,0.05-0.156,0.086-0.201,0.109V47.21z M105.677,49.268
			c-0.209-0.017-0.418-0.026-0.629-0.026c-0.145,0-0.266,0.007-0.365,0.019c-0.1,0.011-0.18,0.022-0.245,0.035
			c-0.105,0.022-0.211,0.056-0.318,0.101c-0.107,0.043-0.203,0.098-0.289,0.164c-0.084,0.067-0.154,0.149-0.209,0.245
			c-0.055,0.097-0.082,0.208-0.082,0.336c0,0.134,0.029,0.247,0.088,0.341c0.059,0.092,0.129,0.166,0.217,0.221
			c0.088,0.056,0.184,0.097,0.287,0.123c0.105,0.025,0.207,0.039,0.307,0.039c0.169,0,0.339-0.035,0.507-0.104
			s0.32-0.194,0.453-0.375c0.07-0.088,0.119-0.166,0.148-0.235c0.029-0.07,0.049-0.119,0.063-0.148
			c0.021-0.07,0.039-0.151,0.051-0.244s0.018-0.215,0.018-0.367V49.268z M102.126,47.707c-0.238-0.081-0.426-0.138-0.566-0.171
			c-0.139-0.031-0.268-0.047-0.385-0.047c-0.127,0-0.234,0.014-0.32,0.043c-0.09,0.029-0.154,0.063-0.201,0.104
			c-0.012,0.013-0.029,0.029-0.053,0.054c-0.023,0.022-0.047,0.049-0.07,0.077c-0.012,0.023-0.029,0.062-0.051,0.113
			c-0.025,0.053-0.035,0.11-0.035,0.175c0.006,0.047,0.014,0.086,0.025,0.117c0.012,0.033,0.023,0.061,0.035,0.083
			c0.035,0.063,0.08,0.124,0.139,0.179s0.148,0.118,0.271,0.188c0.016,0.011,0.035,0.022,0.051,0.03
			c0.02,0.008,0.039,0.019,0.063,0.03c0.133,0.07,0.252,0.13,0.352,0.179c0.104,0.049,0.193,0.097,0.271,0.14
			c0.078,0.044,0.15,0.089,0.213,0.136c0.064,0.046,0.129,0.102,0.191,0.165c0.07,0.076,0.141,0.185,0.211,0.327
			s0.104,0.307,0.104,0.493c0,0.256-0.076,0.497-0.23,0.724s-0.377,0.398-0.668,0.516c-0.139,0.058-0.277,0.09-0.414,0.1
			c-0.137,0.009-0.225,0.016-0.266,0.021c-0.309,0.006-0.563-0.022-0.764-0.086c-0.199-0.064-0.367-0.125-0.5-0.185l0.061-0.75
			c0.035,0.019,0.09,0.045,0.166,0.083c0.074,0.038,0.162,0.076,0.26,0.113c0.1,0.037,0.205,0.07,0.32,0.097
			c0.113,0.026,0.23,0.036,0.354,0.03c0.262-0.006,0.453-0.073,0.574-0.201c0.123-0.127,0.184-0.262,0.184-0.401
			c0-0.145-0.043-0.267-0.131-0.366c-0.047-0.047-0.096-0.086-0.148-0.117c-0.053-0.032-0.104-0.063-0.156-0.092
			c-0.123-0.063-0.24-0.127-0.354-0.188s-0.229-0.126-0.344-0.196c-0.094-0.059-0.184-0.116-0.268-0.175s-0.158-0.128-0.221-0.209
			c-0.17-0.21-0.26-0.448-0.271-0.715c-0.012-0.221,0.047-0.441,0.174-0.659c0.129-0.218,0.322-0.385,0.586-0.501
			c0.068-0.029,0.162-0.059,0.281-0.088s0.266-0.046,0.434-0.053c0.209-0.006,0.402,0.01,0.584,0.045
			c0.18,0.033,0.373,0.08,0.576,0.139L102.126,47.707z M95.663,47.559c0.07-0.081,0.123-0.14,0.158-0.175s0.074-0.075,0.121-0.122
			c0.129-0.11,0.293-0.208,0.492-0.292c0.201-0.085,0.455-0.127,0.764-0.127c0.256,0,0.463,0.032,0.619,0.096
			c0.156,0.064,0.295,0.146,0.41,0.245c0.191,0.169,0.322,0.354,0.393,0.558s0.117,0.396,0.139,0.576
			c0.006,0.047,0.012,0.088,0.014,0.127c0.004,0.037,0.006,0.082,0.006,0.135c0.004,0.07,0.008,0.134,0.008,0.191
			c0,0.059,0.002,0.125,0.008,0.201v2.451h-0.82v-2.504c0-0.116-0.002-0.232-0.008-0.348c-0.006-0.117-0.033-0.233-0.078-0.35
			c-0.018-0.058-0.047-0.127-0.088-0.205s-0.096-0.152-0.166-0.223c-0.068-0.07-0.158-0.129-0.266-0.18
			c-0.107-0.049-0.234-0.073-0.379-0.073c-0.035,0-0.094,0.005-0.174,0.013c-0.082,0.01-0.174,0.035-0.271,0.079
			c-0.098,0.043-0.203,0.106-0.309,0.192c-0.109,0.084-0.205,0.199-0.293,0.344c-0.1,0.169-0.16,0.352-0.184,0.55
			c-0.023,0.197-0.037,0.384-0.043,0.558v2.146h-0.838v-4.51h0.785V47.559z M93.02,44.95h0.898v0.89H93.02V44.95z M93.073,46.913
			h0.82v4.51h-0.82V46.913z M89.094,49.39c0.012,0.047,0.027,0.131,0.044,0.249c0.017,0.119,0.062,0.246,0.132,0.38
			c0.045,0.092,0.107,0.186,0.186,0.278c0.08,0.094,0.174,0.178,0.285,0.254c0.109,0.075,0.238,0.138,0.383,0.187
			c0.146,0.051,0.313,0.078,0.498,0.084c0.221,0.012,0.42-0.013,0.596-0.07c0.18-0.059,0.305-0.102,0.381-0.131
			c0.074-0.035,0.141-0.068,0.195-0.1c0.055-0.033,0.119-0.068,0.189-0.109v0.785c-0.152,0.063-0.332,0.127-0.541,0.191
			s-0.48,0.096-0.813,0.096c-0.029,0-0.098-0.002-0.205-0.004s-0.234-0.019-0.383-0.048c-0.15-0.03-0.307-0.075-0.477-0.14
			c-0.168-0.064-0.328-0.154-0.479-0.271c-0.152-0.115-0.27-0.232-0.354-0.353c-0.085-0.119-0.139-0.202-0.162-0.248
			c-0.07-0.117-0.137-0.274-0.201-0.476c-0.063-0.201-0.101-0.446-0.113-0.737c-0.006-0.267,0.021-0.511,0.078-0.733
			c0.06-0.22,0.138-0.418,0.236-0.593c0.1-0.174,0.213-0.324,0.34-0.449c0.129-0.125,0.262-0.228,0.402-0.31
			c0.098-0.063,0.184-0.107,0.252-0.131c0.07-0.023,0.129-0.041,0.176-0.053c0.057-0.017,0.145-0.037,0.262-0.061
			c0.115-0.023,0.252-0.035,0.408-0.035c0.355,0,0.652,0.064,0.891,0.191c0.238,0.129,0.424,0.271,0.559,0.429
			c0.094,0.116,0.168,0.241,0.227,0.375s0.105,0.269,0.139,0.405c0.035,0.137,0.061,0.271,0.074,0.406
			c0.016,0.133,0.025,0.256,0.031,0.365c0.006,0.07,0.008,0.135,0.008,0.192c0,0.053,0.004,0.114,0.01,0.183H89.094z M91.503,48.754
			c-0.018-0.151-0.045-0.302-0.08-0.45s-0.109-0.298-0.225-0.449c-0.07-0.099-0.172-0.188-0.307-0.27
			c-0.133-0.082-0.311-0.119-0.531-0.114c-0.256,0.007-0.486,0.085-0.689,0.236s-0.359,0.368-0.471,0.653
			c-0.029,0.082-0.05,0.15-0.062,0.205c-0.013,0.055-0.026,0.118-0.044,0.188H91.503z M81.872,47.559
			c0.076-0.104,0.138-0.183,0.184-0.235c0.047-0.053,0.1-0.1,0.156-0.14c0.146-0.116,0.308-0.202,0.484-0.258
			c0.178-0.056,0.34-0.083,0.485-0.083c0.22-0.011,0.415,0.018,0.584,0.087c0.168,0.07,0.293,0.138,0.375,0.201
			c0.035,0.028,0.065,0.056,0.092,0.079s0.054,0.049,0.082,0.078c0.07,0.082,0.128,0.172,0.175,0.271s0.073,0.151,0.078,0.157
			c0.07-0.105,0.124-0.184,0.162-0.236c0.037-0.052,0.08-0.102,0.126-0.147c0.116-0.122,0.239-0.218,0.367-0.288
			c0.127-0.07,0.248-0.119,0.36-0.148c0.115-0.029,0.213-0.047,0.297-0.053s0.145-0.008,0.18-0.008c0.197,0,0.371,0.025,0.52,0.078
			c0.147,0.053,0.274,0.121,0.379,0.205s0.19,0.179,0.258,0.283c0.066,0.104,0.117,0.209,0.152,0.314
			c0.063,0.168,0.101,0.33,0.108,0.484c0.009,0.154,0.017,0.254,0.022,0.301v2.922h-0.795v-2.539c0-0.284-0.018-0.518-0.056-0.697
			c-0.038-0.181-0.124-0.332-0.258-0.453c-0.104-0.094-0.21-0.148-0.317-0.166c-0.109-0.018-0.174-0.026-0.197-0.026
			c-0.15,0-0.299,0.034-0.444,0.104s-0.276,0.184-0.394,0.34c-0.127,0.17-0.207,0.35-0.238,0.541
			c-0.033,0.192-0.055,0.373-0.066,0.541v2.355h-0.837v-2.766c-0.012-0.203-0.04-0.394-0.083-0.571
			c-0.044-0.177-0.15-0.321-0.318-0.433c-0.082-0.051-0.16-0.084-0.235-0.095c-0.076-0.012-0.128-0.018-0.157-0.018
			c-0.186,0-0.346,0.041-0.48,0.122c-0.133,0.082-0.231,0.154-0.295,0.218c-0.082,0.082-0.143,0.163-0.18,0.245
			c-0.038,0.081-0.063,0.136-0.074,0.165c-0.035,0.093-0.063,0.204-0.088,0.332c-0.023,0.128-0.039,0.293-0.052,0.497
			c-0.006,0.093-0.009,0.177-0.009,0.253c0,0.069,0,0.153,0,0.253v1.797h-0.854v-4.51h0.775L81.872,47.559z M77.101,49.39
			c0.011,0.047,0.026,0.131,0.043,0.249c0.019,0.119,0.062,0.246,0.131,0.38c0.048,0.092,0.109,0.186,0.188,0.278
			c0.078,0.094,0.173,0.178,0.283,0.254c0.11,0.075,0.238,0.138,0.383,0.187c0.146,0.051,0.312,0.078,0.498,0.084
			c0.221,0.012,0.42-0.013,0.598-0.07c0.177-0.059,0.305-0.102,0.379-0.131c0.076-0.035,0.141-0.068,0.196-0.1
			c0.055-0.033,0.118-0.068,0.188-0.109v0.785c-0.152,0.063-0.332,0.127-0.541,0.191s-0.48,0.096-0.812,0.096
			c-0.029,0-0.099-0.002-0.205-0.004c-0.108-0.002-0.235-0.019-0.384-0.048c-0.148-0.03-0.307-0.075-0.475-0.14
			c-0.17-0.064-0.33-0.154-0.48-0.271c-0.151-0.115-0.27-0.232-0.354-0.353c-0.084-0.119-0.139-0.202-0.162-0.248
			c-0.068-0.117-0.136-0.274-0.199-0.476c-0.064-0.201-0.103-0.446-0.114-0.737c-0.007-0.267,0.021-0.511,0.079-0.733
			c0.058-0.22,0.137-0.418,0.234-0.593c0.1-0.174,0.213-0.324,0.34-0.449c0.129-0.125,0.263-0.228,0.402-0.31
			c0.1-0.063,0.184-0.107,0.254-0.131c0.069-0.023,0.127-0.041,0.174-0.053c0.058-0.017,0.146-0.037,0.262-0.061
			c0.115-0.023,0.253-0.035,0.41-0.035c0.354,0,0.65,0.064,0.89,0.191c0.237,0.129,0.424,0.271,0.558,0.429
			c0.094,0.116,0.168,0.241,0.227,0.375s0.105,0.269,0.14,0.405c0.035,0.137,0.06,0.271,0.074,0.406
			c0.015,0.133,0.024,0.256,0.03,0.365c0.007,0.07,0.01,0.135,0.01,0.192c0,0.053,0.002,0.114,0.008,0.183H77.101z M79.509,48.754
			c-0.018-0.151-0.043-0.302-0.078-0.45s-0.111-0.298-0.227-0.449c-0.07-0.099-0.172-0.188-0.306-0.27
			c-0.134-0.082-0.312-0.119-0.532-0.114c-0.256,0.007-0.486,0.085-0.688,0.236c-0.204,0.151-0.361,0.368-0.472,0.653
			c-0.029,0.082-0.049,0.15-0.062,0.205c-0.011,0.055-0.026,0.118-0.043,0.188H79.509z M75.296,46.329
			c-0.035-0.018-0.088-0.045-0.157-0.079c-0.07-0.035-0.151-0.072-0.244-0.113c-0.263-0.099-0.502-0.159-0.72-0.183
			c-0.219-0.024-0.368-0.035-0.449-0.035c-0.221,0-0.428,0.021-0.619,0.064c-0.191,0.045-0.367,0.104-0.527,0.18
			s-0.303,0.16-0.428,0.253s-0.232,0.187-0.318,0.278c-0.059,0.064-0.109,0.127-0.153,0.188c-0.043,0.062-0.071,0.101-0.082,0.117
			c-0.019,0.028-0.045,0.082-0.083,0.157c-0.038,0.076-0.074,0.156-0.109,0.244c-0.076,0.187-0.119,0.357-0.131,0.515
			s-0.018,0.268-0.018,0.332c0,0.231,0.031,0.474,0.092,0.724s0.158,0.491,0.292,0.725c0.093,0.15,0.185,0.272,0.274,0.365
			c0.09,0.094,0.168,0.163,0.231,0.209c0.07,0.059,0.144,0.108,0.224,0.149c0.078,0.04,0.15,0.075,0.217,0.104
			c0.066,0.028,0.123,0.051,0.17,0.065s0.078,0.024,0.097,0.03c0.215,0.07,0.405,0.111,0.571,0.127
			c0.166,0.014,0.289,0.021,0.371,0.021c0.197,0,0.355-0.015,0.475-0.044c0.119-0.028,0.229-0.058,0.327-0.087v-1.797H73.29v-0.715
			h2.172v3.105c-0.309,0.08-0.603,0.147-0.881,0.2c-0.279,0.052-0.574,0.078-0.881,0.078c-0.455,0-0.828-0.041-1.121-0.122
			c-0.295-0.081-0.539-0.18-0.737-0.297c-0.082-0.046-0.195-0.122-0.341-0.227s-0.299-0.25-0.463-0.437
			c-0.186-0.209-0.351-0.481-0.496-0.815s-0.219-0.754-0.219-1.26c0-0.488,0.068-0.898,0.205-1.23
			c0.137-0.331,0.284-0.6,0.441-0.803c0.122-0.145,0.247-0.271,0.375-0.375s0.25-0.191,0.365-0.262
			c0.117-0.07,0.221-0.125,0.311-0.166c0.09-0.039,0.158-0.068,0.205-0.087c0.238-0.087,0.484-0.147,0.736-0.183
			c0.254-0.035,0.5-0.053,0.738-0.053c0.389,0,0.721,0.035,0.998,0.104c0.276,0.069,0.495,0.128,0.658,0.175L75.296,46.329z"/>
		<path fill="#F36F21" d="M142.295,49.704h-0.75l-0.123-4.439h1.004L142.295,49.704 M141.467,50.489h0.934v0.934h-0.934V50.489z
			 M138.746,47.663c0.045-0.081,0.088-0.151,0.125-0.209c0.039-0.059,0.072-0.102,0.102-0.131c0.168-0.192,0.352-0.317,0.549-0.375
			c0.197-0.059,0.381-0.088,0.551-0.088c0.104,0,0.209,0.006,0.313,0.018c0.105,0.012,0.168,0.018,0.193,0.018v0.795
			c-0.117-0.037-0.211-0.063-0.285-0.08c-0.072-0.018-0.166-0.025-0.283-0.025c-0.053,0-0.145,0.01-0.279,0.029
			c-0.133,0.021-0.275,0.096-0.428,0.224c-0.115,0.099-0.205,0.205-0.27,0.317c-0.064,0.115-0.111,0.231-0.145,0.354
			c-0.031,0.122-0.053,0.245-0.064,0.367s-0.021,0.234-0.027,0.34v2.207h-0.846v-1.23c0-0.319,0.002-0.611,0.004-0.877
			c0.004-0.264,0.006-0.559,0.006-0.885c0-0.14-0.002-0.271-0.006-0.393c-0.002-0.122-0.006-0.242-0.008-0.362
			c-0.002-0.119-0.008-0.241-0.014-0.366s-0.012-0.257-0.018-0.396h0.785L138.746,47.663z M133.974,49.39
			c0.012,0.047,0.025,0.131,0.043,0.249c0.018,0.119,0.061,0.246,0.131,0.38c0.047,0.092,0.109,0.186,0.188,0.278
			c0.078,0.094,0.172,0.178,0.283,0.254c0.111,0.075,0.238,0.138,0.385,0.187c0.145,0.051,0.311,0.078,0.496,0.084
			c0.221,0.012,0.42-0.013,0.598-0.07c0.178-0.059,0.305-0.102,0.379-0.131c0.076-0.035,0.143-0.068,0.197-0.1
			c0.055-0.033,0.117-0.068,0.188-0.109v0.785c-0.15,0.063-0.332,0.127-0.541,0.191s-0.48,0.096-0.811,0.096
			c-0.029,0-0.098-0.002-0.205-0.004s-0.236-0.019-0.385-0.048c-0.148-0.03-0.307-0.075-0.475-0.14s-0.328-0.154-0.48-0.271
			c-0.15-0.115-0.268-0.232-0.352-0.353c-0.086-0.119-0.141-0.202-0.162-0.248c-0.07-0.117-0.137-0.274-0.201-0.476
			s-0.102-0.446-0.113-0.737c-0.006-0.267,0.02-0.511,0.078-0.733c0.059-0.22,0.137-0.418,0.236-0.593
			c0.098-0.174,0.211-0.324,0.34-0.449c0.127-0.125,0.262-0.228,0.402-0.31c0.098-0.063,0.182-0.107,0.252-0.131
			c0.068-0.023,0.129-0.041,0.174-0.053c0.059-0.017,0.145-0.037,0.262-0.061s0.252-0.035,0.41-0.035
			c0.355,0,0.652,0.064,0.889,0.191c0.24,0.129,0.426,0.271,0.559,0.429c0.094,0.116,0.17,0.241,0.227,0.375
			c0.061,0.134,0.105,0.269,0.141,0.405s0.061,0.271,0.074,0.406c0.016,0.133,0.025,0.256,0.031,0.365
			c0.006,0.07,0.008,0.135,0.008,0.192c0,0.053,0.002,0.114,0.008,0.183H133.974z M136.381,48.754
			c-0.018-0.151-0.043-0.302-0.078-0.45s-0.109-0.298-0.227-0.449c-0.07-0.099-0.172-0.188-0.305-0.27
			c-0.135-0.082-0.313-0.119-0.533-0.114c-0.256,0.007-0.484,0.085-0.689,0.236c-0.203,0.151-0.359,0.368-0.471,0.653
			c-0.029,0.082-0.049,0.15-0.061,0.205s-0.025,0.118-0.043,0.188H136.381z M132.472,47.707c-0.236-0.081-0.426-0.138-0.566-0.171
			c-0.139-0.031-0.268-0.047-0.383-0.047c-0.127,0-0.236,0.014-0.322,0.043c-0.088,0.029-0.154,0.063-0.201,0.104
			c-0.012,0.013-0.029,0.029-0.053,0.054c-0.023,0.022-0.047,0.049-0.07,0.077c-0.012,0.023-0.029,0.062-0.051,0.113
			c-0.025,0.053-0.035,0.11-0.035,0.175c0.006,0.047,0.014,0.086,0.025,0.117c0.012,0.033,0.023,0.061,0.035,0.083
			c0.035,0.063,0.08,0.124,0.139,0.179s0.148,0.118,0.271,0.188c0.018,0.011,0.035,0.022,0.053,0.03s0.037,0.019,0.061,0.03
			c0.133,0.07,0.252,0.13,0.352,0.179c0.104,0.049,0.193,0.097,0.271,0.14c0.078,0.044,0.15,0.089,0.215,0.136
			c0.064,0.046,0.127,0.102,0.191,0.165c0.068,0.076,0.139,0.185,0.209,0.327s0.104,0.307,0.104,0.493
			c0,0.256-0.076,0.497-0.23,0.724s-0.375,0.398-0.666,0.516c-0.141,0.058-0.279,0.09-0.414,0.1
			c-0.139,0.009-0.227,0.016-0.268,0.021c-0.309,0.006-0.563-0.022-0.764-0.086c-0.199-0.064-0.367-0.125-0.5-0.185l0.061-0.75
			c0.035,0.019,0.09,0.045,0.166,0.083c0.074,0.038,0.162,0.076,0.262,0.113c0.098,0.037,0.205,0.07,0.318,0.097
			s0.23,0.036,0.354,0.03c0.262-0.006,0.453-0.073,0.576-0.201c0.121-0.127,0.182-0.262,0.182-0.401
			c0-0.145-0.043-0.267-0.131-0.366c-0.047-0.047-0.096-0.086-0.148-0.117c-0.051-0.032-0.104-0.063-0.156-0.092
			c-0.121-0.063-0.24-0.127-0.354-0.188s-0.229-0.126-0.344-0.196c-0.094-0.059-0.184-0.116-0.268-0.175s-0.158-0.128-0.221-0.209
			c-0.17-0.21-0.26-0.448-0.271-0.715c-0.012-0.221,0.047-0.441,0.176-0.659c0.127-0.218,0.322-0.385,0.584-0.501
			c0.07-0.029,0.164-0.059,0.283-0.088s0.264-0.046,0.432-0.053c0.209-0.006,0.404,0.01,0.584,0.045
			c0.18,0.033,0.373,0.08,0.576,0.139L132.472,47.707z"/>
	</g>
	<g transform="translate(-5.0)">
		<rect x="68.171" y="31.099" fill="none" width="111.622" height="11.516"/>
		<path fill="#0066B3" d="M72.019,31.852l0.858,2.509c0.095,0.303,0.184,0.572,0.267,0.806c0.082,0.234,0.171,0.502,0.266,0.806
			c0.069,0.234,0.13,0.444,0.182,0.631c0.052,0.186,0.113,0.401,0.182,0.643c0.043,0.147,0.082,0.278,0.117,0.39
			c0.034,0.113,0.073,0.243,0.117,0.39c0.043,0.173,0.083,0.327,0.117,0.461s0.073,0.288,0.117,0.461
			c0.035-0.104,0.063-0.199,0.084-0.286c0.022-0.086,0.05-0.186,0.085-0.299c0.069-0.225,0.132-0.429,0.188-0.611
			c0.056-0.182,0.119-0.386,0.188-0.611c0.052-0.173,0.097-0.329,0.136-0.468s0.084-0.294,0.137-0.468l1.43-4.355h2.977v9.178
			h-1.846l0.091-8.047c-0.043,0.13-0.076,0.247-0.098,0.351s-0.054,0.221-0.097,0.351c-0.043,0.147-0.084,0.278-0.124,0.39
			c-0.039,0.113-0.081,0.243-0.124,0.39l-2.223,6.565h-1.742l-1.976-6.058c-0.052-0.182-0.1-0.346-0.143-0.494
			c-0.043-0.147-0.096-0.312-0.156-0.494c-0.043-0.165-0.089-0.312-0.136-0.442c-0.048-0.13-0.098-0.277-0.149-0.442v7.93h-1.729
			v-9.178H72.019z"/>
		<path fill="#0066B3" d="M83.498,34.218v3.432c0,0.19,0.004,0.379,0.013,0.565c0.008,0.187,0.034,0.364,0.078,0.533
			c0.043,0.169,0.111,0.325,0.202,0.468c0.091,0.143,0.219,0.258,0.383,0.344c0.139,0.078,0.269,0.124,0.391,0.137
			c0.121,0.013,0.203,0.02,0.247,0.02c0.251,0,0.463-0.043,0.637-0.13c0.173-0.086,0.308-0.182,0.403-0.286
			c0.095-0.112,0.166-0.223,0.214-0.332s0.08-0.175,0.098-0.202c0.087-0.225,0.141-0.442,0.162-0.65s0.033-0.424,0.033-0.65v-3.25
			h1.755v4.511c0.017,0.424,0.03,0.808,0.039,1.15c0.008,0.342,0.021,0.726,0.039,1.15H86.54l-0.052-1.066
			c-0.052,0.086-0.113,0.178-0.183,0.273s-0.19,0.212-0.363,0.351c-0.174,0.139-0.399,0.267-0.677,0.383
			c-0.277,0.117-0.624,0.176-1.039,0.176c-0.46,0.008-0.839-0.059-1.138-0.202c-0.299-0.143-0.539-0.314-0.721-0.514
			c-0.156-0.173-0.277-0.366-0.364-0.578c-0.086-0.212-0.149-0.427-0.188-0.644s-0.063-0.431-0.071-0.644
			c-0.009-0.212-0.013-0.405-0.013-0.579v-3.77H83.498z"/>
		<path fill="#0066B3" d="M94.352,35.674c-0.269-0.078-0.514-0.143-0.734-0.195c-0.221-0.052-0.462-0.074-0.722-0.065
			c-0.364,0-0.659,0.063-0.884,0.188c-0.226,0.126-0.338,0.306-0.338,0.54c0,0.052,0.013,0.111,0.039,0.176
			c0.025,0.065,0.064,0.119,0.116,0.163c0.096,0.078,0.217,0.145,0.364,0.201c0.147,0.057,0.329,0.119,0.546,0.188
			c0.226,0.07,0.412,0.13,0.56,0.182c0.146,0.052,0.269,0.1,0.363,0.143c0.277,0.13,0.492,0.284,0.644,0.461
			c0.152,0.178,0.263,0.355,0.332,0.533s0.11,0.338,0.123,0.481c0.014,0.143,0.02,0.24,0.02,0.292c0,0.199-0.028,0.407-0.084,0.624
			c-0.057,0.217-0.163,0.425-0.318,0.624c-0.104,0.13-0.213,0.243-0.325,0.338c-0.113,0.095-0.222,0.171-0.325,0.228
			c-0.104,0.056-0.197,0.102-0.279,0.136c-0.083,0.035-0.142,0.057-0.176,0.065c-0.269,0.095-0.531,0.147-0.786,0.156
			c-0.256,0.008-0.423,0.013-0.501,0.013c-0.19,0-0.366-0.007-0.526-0.02c-0.16-0.013-0.316-0.033-0.468-0.059
			c-0.152-0.026-0.308-0.059-0.468-0.098c-0.161-0.039-0.336-0.08-0.527-0.124l0.092-1.482c0.155,0.069,0.379,0.161,0.669,0.273
			c0.29,0.113,0.635,0.169,1.033,0.169c0.364,0,0.657-0.065,0.878-0.195S93,39.306,93,39.08c0-0.112-0.027-0.208-0.084-0.286
			c-0.057-0.078-0.128-0.145-0.215-0.202c-0.086-0.056-0.178-0.104-0.272-0.143c-0.096-0.039-0.183-0.071-0.26-0.098
			c-0.174-0.061-0.341-0.119-0.501-0.175c-0.16-0.056-0.316-0.117-0.468-0.182c-0.152-0.065-0.295-0.141-0.43-0.228
			c-0.134-0.086-0.262-0.199-0.383-0.338c-0.122-0.13-0.229-0.292-0.325-0.487c-0.096-0.195-0.143-0.44-0.143-0.735
			c0-0.225,0.041-0.453,0.123-0.682s0.236-0.457,0.462-0.683c0.199-0.19,0.418-0.336,0.656-0.436s0.466-0.171,0.683-0.214
			c0.216-0.043,0.4-0.067,0.552-0.072c0.152-0.004,0.245-0.006,0.28-0.006c0.32,0,0.619,0.026,0.896,0.078
			c0.277,0.052,0.576,0.113,0.897,0.182L94.352,35.674z"/>
		<path fill="#0066B3" d="M98.811,34.218h1.599v1.326h-1.599v2.99c0.017,0.33,0.098,0.6,0.24,0.813s0.409,0.318,0.8,0.318
			c0.146,0,0.274-0.013,0.383-0.039c0.108-0.026,0.188-0.048,0.241-0.065l0.039,1.391c-0.278,0.07-0.501,0.117-0.67,0.143
			s-0.323,0.039-0.462,0.039c-0.381,0-0.704-0.048-0.968-0.143c-0.265-0.095-0.475-0.212-0.631-0.351
			c-0.174-0.147-0.314-0.338-0.423-0.572s-0.184-0.533-0.228-0.897c-0.017-0.173-0.025-0.325-0.025-0.455c0-0.139,0-0.243,0-0.312
			v-2.86h-1.313v-1.326h1.313v-1.365l1.703-0.546V34.218z"/>
		<path fill="#0066B3" d="M103.44,38.235c0.008,0.018,0.03,0.102,0.064,0.253c0.035,0.152,0.096,0.292,0.183,0.422
			c0.112,0.191,0.244,0.345,0.396,0.461c0.151,0.117,0.307,0.208,0.468,0.273c0.16,0.065,0.322,0.11,0.487,0.136
			c0.164,0.026,0.32,0.039,0.468,0.039c0.26,0,0.526-0.03,0.8-0.091c0.272-0.061,0.539-0.156,0.8-0.286
			c0.104-0.043,0.21-0.1,0.318-0.169s0.175-0.113,0.201-0.13l0.026,1.521c-0.261,0.112-0.574,0.225-0.942,0.338
			c-0.369,0.112-0.839,0.169-1.411,0.169c-0.052,0-0.13,0-0.233,0c-0.104,0-0.224-0.006-0.357-0.02
			c-0.135-0.013-0.284-0.037-0.449-0.072c-0.164-0.035-0.329-0.082-0.494-0.143c-0.269-0.104-0.526-0.245-0.773-0.423
			c-0.247-0.177-0.464-0.398-0.649-0.663c-0.187-0.265-0.336-0.574-0.449-0.93c-0.112-0.355-0.169-0.763-0.169-1.222
			c0-0.424,0.039-0.784,0.117-1.079c0.078-0.294,0.156-0.528,0.234-0.702c0.043-0.078,0.086-0.16,0.13-0.247
			c0.043-0.086,0.069-0.139,0.078-0.156c0.043-0.061,0.084-0.119,0.123-0.175c0.039-0.056,0.085-0.11,0.137-0.163
			c0.251-0.303,0.576-0.563,0.975-0.78c0.399-0.217,0.901-0.325,1.509-0.325c0.555,0,1.024,0.096,1.41,0.286
			c0.386,0.191,0.702,0.444,0.949,0.76c0.247,0.317,0.427,0.685,0.539,1.105c0.112,0.421,0.169,0.86,0.169,1.32
			c0,0.122,0,0.238,0,0.351c0,0.104-0.004,0.216-0.013,0.338H103.44z M106.469,37c-0.018-0.191-0.043-0.379-0.078-0.566
			c-0.034-0.186-0.121-0.37-0.26-0.552c-0.104-0.139-0.212-0.245-0.325-0.318c-0.112-0.074-0.221-0.128-0.324-0.163
			c-0.104-0.035-0.197-0.056-0.28-0.065c-0.082-0.009-0.141-0.013-0.175-0.013c-0.026,0-0.087,0.004-0.183,0.013
			c-0.095,0.009-0.206,0.032-0.331,0.071c-0.126,0.039-0.256,0.104-0.391,0.195c-0.134,0.091-0.258,0.219-0.37,0.384
			c-0.139,0.226-0.223,0.434-0.253,0.624c-0.031,0.19-0.051,0.321-0.059,0.39H106.469z"/>
		<path fill="#0066B3" d="M113.905,35.83c-0.053-0.017-0.122-0.037-0.208-0.058c-0.087-0.022-0.195-0.033-0.325-0.033
			c-0.053,0-0.146,0.006-0.279,0.02c-0.135,0.013-0.284,0.054-0.449,0.124c-0.164,0.069-0.325,0.18-0.48,0.332
			c-0.156,0.152-0.277,0.366-0.364,0.644c-0.044,0.104-0.074,0.212-0.091,0.325c-0.018,0.113-0.035,0.273-0.052,0.481
			c-0.009,0.13-0.014,0.247-0.014,0.351s0,0.221,0,0.351v2.665h-1.768v-5.044c0-0.329-0.003-0.624-0.007-0.884
			c-0.004-0.26-0.015-0.554-0.032-0.884h1.664v1.638c0.043-0.173,0.082-0.306,0.117-0.396c0.034-0.091,0.073-0.18,0.116-0.267
			c0.199-0.373,0.453-0.644,0.761-0.813s0.617-0.253,0.93-0.253c0.078,0,0.158,0.004,0.24,0.013
			c0.082,0.009,0.163,0.022,0.241,0.039V35.83z"/>
		<path fill="#0066B3" d="M119.429,35.674c-0.269-0.078-0.514-0.143-0.734-0.195c-0.221-0.052-0.462-0.074-0.722-0.065
			c-0.364,0-0.659,0.063-0.884,0.188c-0.226,0.126-0.338,0.306-0.338,0.54c0,0.052,0.013,0.111,0.039,0.176
			c0.025,0.065,0.064,0.119,0.116,0.163c0.096,0.078,0.217,0.145,0.364,0.201c0.147,0.057,0.329,0.119,0.546,0.188
			c0.226,0.07,0.412,0.13,0.56,0.182c0.146,0.052,0.269,0.1,0.363,0.143c0.277,0.13,0.492,0.284,0.644,0.461
			c0.152,0.178,0.263,0.355,0.332,0.533s0.11,0.338,0.123,0.481c0.014,0.143,0.02,0.24,0.02,0.292c0,0.199-0.028,0.407-0.084,0.624
			c-0.057,0.217-0.163,0.425-0.318,0.624c-0.104,0.13-0.213,0.243-0.325,0.338c-0.113,0.095-0.222,0.171-0.325,0.228
			c-0.104,0.056-0.197,0.102-0.279,0.136c-0.083,0.035-0.142,0.057-0.176,0.065c-0.269,0.095-0.531,0.147-0.786,0.156
			c-0.256,0.008-0.423,0.013-0.501,0.013c-0.19,0-0.366-0.007-0.526-0.02c-0.16-0.013-0.316-0.033-0.468-0.059
			c-0.152-0.026-0.308-0.059-0.468-0.098c-0.161-0.039-0.336-0.08-0.527-0.124l0.092-1.482c0.155,0.069,0.379,0.161,0.669,0.273
			c0.29,0.113,0.635,0.169,1.033,0.169c0.364,0,0.657-0.065,0.878-0.195s0.331-0.308,0.331-0.533c0-0.112-0.027-0.208-0.084-0.286
			c-0.057-0.078-0.128-0.145-0.215-0.202c-0.086-0.056-0.178-0.104-0.272-0.143c-0.096-0.039-0.183-0.071-0.26-0.098
			c-0.174-0.061-0.341-0.119-0.501-0.175c-0.16-0.056-0.316-0.117-0.468-0.182c-0.152-0.065-0.295-0.141-0.43-0.228
			c-0.134-0.086-0.262-0.199-0.383-0.338c-0.122-0.13-0.229-0.292-0.325-0.487c-0.096-0.195-0.143-0.44-0.143-0.735
			c0-0.225,0.041-0.453,0.123-0.682s0.236-0.457,0.462-0.683c0.199-0.19,0.418-0.336,0.656-0.436s0.466-0.171,0.683-0.214
			c0.216-0.043,0.4-0.067,0.552-0.072c0.152-0.004,0.245-0.006,0.28-0.006c0.32,0,0.619,0.026,0.896,0.078
			c0.277,0.052,0.576,0.113,0.897,0.182L119.429,35.674z"/>
		<path fill="#0066B3" d="M123.888,34.218h1.599v1.326h-1.599v2.99c0.017,0.33,0.098,0.6,0.24,0.813s0.409,0.318,0.8,0.318
			c0.146,0,0.274-0.013,0.383-0.039c0.108-0.026,0.188-0.048,0.241-0.065l0.039,1.391c-0.278,0.07-0.501,0.117-0.67,0.143
			s-0.323,0.039-0.462,0.039c-0.381,0-0.704-0.048-0.968-0.143c-0.265-0.095-0.475-0.212-0.631-0.351
			c-0.174-0.147-0.314-0.338-0.423-0.572s-0.184-0.533-0.228-0.897c-0.017-0.173-0.025-0.325-0.025-0.455c0-0.139,0-0.243,0-0.312
			v-2.86h-1.313v-1.326h1.313v-1.365l1.703-0.546V34.218z"/>
		<path fill="#0066B3" d="M131.518,41.03v-1.001c-0.052,0.095-0.132,0.21-0.24,0.344c-0.108,0.135-0.275,0.271-0.501,0.41
			c-0.251,0.147-0.505,0.245-0.76,0.292c-0.256,0.048-0.51,0.072-0.761,0.072c-0.468,0-0.852-0.07-1.15-0.208
			c-0.299-0.139-0.535-0.314-0.709-0.527c-0.173-0.212-0.29-0.439-0.351-0.682s-0.091-0.468-0.091-0.676
			c0.008-0.364,0.075-0.665,0.201-0.903c0.125-0.238,0.275-0.431,0.448-0.579c0.277-0.251,0.65-0.438,1.118-0.559
			c0.468-0.121,1.04-0.186,1.716-0.195h0.078c0.174,0,0.327,0.002,0.462,0.006c0.134,0.004,0.288,0.015,0.461,0.033
			c-0.018-0.156-0.034-0.323-0.052-0.5s-0.082-0.345-0.194-0.5c-0.104-0.147-0.242-0.265-0.416-0.351
			c-0.173-0.086-0.406-0.139-0.7-0.156h-0.169c-0.329,0.009-0.607,0.048-0.837,0.117s-0.413,0.134-0.552,0.195
			c-0.069,0.035-0.16,0.081-0.272,0.137s-0.251,0.149-0.415,0.279l-0.052-1.534c0.139-0.052,0.283-0.104,0.435-0.156
			c0.151-0.052,0.318-0.1,0.5-0.143c0.182-0.043,0.388-0.08,0.617-0.11c0.229-0.03,0.486-0.045,0.772-0.045
			c0.164,0,0.342,0.004,0.532,0.013c0.19,0.009,0.379,0.037,0.564,0.084c0.187,0.048,0.372,0.115,0.559,0.202
			c0.186,0.087,0.361,0.2,0.525,0.338c0.087,0.078,0.188,0.187,0.306,0.325s0.21,0.316,0.279,0.533
			c0.086,0.225,0.136,0.494,0.149,0.806c0.013,0.312,0.02,0.581,0.02,0.806v1.612c0,0.408,0.004,0.778,0.013,1.112
			s0.021,0.704,0.039,1.111H131.518z M131.479,37.949c-0.112-0.008-0.222-0.015-0.33-0.02c-0.107-0.004-0.222-0.006-0.343-0.006
			c-0.466,0-0.866,0.045-1.203,0.136c-0.336,0.091-0.578,0.267-0.725,0.527c-0.068,0.13-0.104,0.277-0.104,0.442
			c0,0.095,0.018,0.197,0.052,0.306c0.035,0.108,0.093,0.21,0.175,0.305c0.082,0.096,0.189,0.173,0.323,0.234
			c0.134,0.061,0.305,0.091,0.512,0.091c0.104,0,0.234-0.02,0.395-0.059c0.159-0.039,0.32-0.112,0.484-0.221
			c0.164-0.108,0.313-0.26,0.446-0.455c0.134-0.195,0.227-0.449,0.278-0.761c0.018-0.095,0.028-0.204,0.033-0.325
			C131.477,38.023,131.479,37.958,131.479,37.949z"/>
		<path fill="#0066B3" d="M141.568,31.098v9.932h-1.677v-1.326c-0.044,0.104-0.083,0.204-0.117,0.299
			c-0.035,0.095-0.096,0.195-0.182,0.299c-0.174,0.226-0.419,0.422-0.735,0.591c-0.316,0.169-0.708,0.254-1.176,0.254
			c-0.087,0-0.238-0.011-0.455-0.033s-0.451-0.093-0.702-0.214c-0.494-0.234-0.897-0.62-1.209-1.157
			c-0.313-0.537-0.468-1.235-0.468-2.093c0-0.65,0.084-1.194,0.253-1.632c0.169-0.438,0.379-0.795,0.631-1.072
			c0.251-0.26,0.487-0.44,0.708-0.54c0.222-0.1,0.38-0.163,0.475-0.188c0.183-0.052,0.349-0.082,0.501-0.091
			c0.151-0.009,0.262-0.013,0.331-0.013c0.304,0,0.618,0.054,0.942,0.163c0.325,0.108,0.613,0.336,0.865,0.683
			c0.052,0.078,0.098,0.154,0.136,0.228c0.039,0.074,0.094,0.184,0.163,0.331v-4.42H141.568z M138.188,35.557
			c-0.199,0-0.377,0.031-0.533,0.091c-0.147,0.061-0.267,0.132-0.357,0.214s-0.158,0.158-0.201,0.228
			c-0.122,0.156-0.222,0.36-0.299,0.611c-0.078,0.251-0.113,0.559-0.104,0.923c0,0.026,0,0.091,0,0.195
			c0,0.095,0.009,0.208,0.026,0.338c0.017,0.13,0.045,0.269,0.084,0.416s0.098,0.291,0.176,0.429
			c0.026,0.043,0.064,0.104,0.117,0.182c0.052,0.078,0.134,0.165,0.247,0.26c0.146,0.122,0.294,0.206,0.441,0.253
			c0.147,0.048,0.295,0.071,0.442,0.071c0.052,0,0.147-0.008,0.286-0.026c0.139-0.017,0.281-0.073,0.429-0.169
			c0.147-0.086,0.284-0.206,0.409-0.357c0.126-0.151,0.232-0.371,0.318-0.657c0.069-0.199,0.108-0.381,0.117-0.546
			c0.009-0.165,0.014-0.277,0.014-0.338c0-0.13-0.012-0.275-0.033-0.436c-0.021-0.16-0.059-0.323-0.11-0.487
			s-0.126-0.323-0.221-0.475c-0.096-0.151-0.217-0.288-0.364-0.41c-0.078-0.069-0.195-0.138-0.351-0.208
			C138.565,35.592,138.387,35.557,138.188,35.557z"/>
		<path fill="#0066B3" d="M146.08,34.218h1.599v1.326h-1.599v2.99c0.017,0.33,0.098,0.6,0.24,0.813s0.409,0.318,0.8,0.318
			c0.146,0,0.274-0.013,0.383-0.039c0.108-0.026,0.188-0.048,0.241-0.065l0.039,1.391c-0.278,0.07-0.501,0.117-0.67,0.143
			s-0.323,0.039-0.462,0.039c-0.381,0-0.704-0.048-0.968-0.143c-0.265-0.095-0.475-0.212-0.631-0.351
			c-0.174-0.147-0.314-0.338-0.423-0.572s-0.184-0.533-0.228-0.897c-0.017-0.173-0.025-0.325-0.025-0.455c0-0.139,0-0.243,0-0.312
			v-2.86h-1.313v-1.326h1.313v-1.365l1.703-0.546V34.218z"/>
		<path fill="#0066B3" d="M154.946,38.235c0.008,0.018,0.03,0.102,0.064,0.253c0.035,0.152,0.096,0.292,0.183,0.422
			c0.112,0.191,0.244,0.345,0.396,0.461c0.151,0.117,0.307,0.208,0.468,0.273c0.16,0.065,0.322,0.11,0.487,0.136
			c0.164,0.026,0.32,0.039,0.468,0.039c0.26,0,0.526-0.03,0.8-0.091c0.272-0.061,0.539-0.156,0.8-0.286
			c0.104-0.043,0.21-0.1,0.318-0.169s0.175-0.113,0.201-0.13l0.026,1.521c-0.261,0.112-0.574,0.225-0.942,0.338
			c-0.369,0.112-0.839,0.169-1.411,0.169c-0.052,0-0.13,0-0.233,0c-0.104,0-0.224-0.006-0.357-0.02
			c-0.135-0.013-0.284-0.037-0.449-0.072c-0.164-0.035-0.329-0.082-0.494-0.143c-0.269-0.104-0.526-0.245-0.773-0.423
			c-0.247-0.177-0.464-0.398-0.649-0.663c-0.187-0.265-0.336-0.574-0.449-0.93c-0.112-0.355-0.169-0.763-0.169-1.222
			c0-0.424,0.039-0.784,0.117-1.079c0.078-0.294,0.156-0.528,0.234-0.702c0.043-0.078,0.086-0.16,0.13-0.247
			c0.043-0.086,0.069-0.139,0.078-0.156c0.043-0.061,0.084-0.119,0.123-0.175c0.039-0.056,0.085-0.11,0.137-0.163
			c0.251-0.303,0.576-0.563,0.975-0.78c0.399-0.217,0.901-0.325,1.509-0.325c0.555,0,1.024,0.096,1.41,0.286
			c0.386,0.191,0.702,0.444,0.949,0.76c0.247,0.317,0.427,0.685,0.539,1.105c0.112,0.421,0.169,0.86,0.169,1.32
			c0,0.122,0,0.238,0,0.351c0,0.104-0.004,0.216-0.013,0.338H154.946z M157.974,37c-0.018-0.191-0.043-0.379-0.078-0.566
			c-0.034-0.186-0.121-0.37-0.26-0.552c-0.104-0.139-0.212-0.245-0.325-0.318c-0.112-0.074-0.221-0.128-0.324-0.163
			c-0.104-0.035-0.197-0.056-0.28-0.065c-0.082-0.009-0.141-0.013-0.175-0.013c-0.026,0-0.087,0.004-0.183,0.013
			c-0.095,0.009-0.206,0.032-0.331,0.071c-0.126,0.039-0.256,0.104-0.391,0.195c-0.134,0.091-0.258,0.219-0.37,0.384
			c-0.139,0.226-0.223,0.434-0.253,0.624c-0.031,0.19-0.051,0.321-0.059,0.39H157.974z"/>
		<path fill="#0066B3" d="M168.634,33.724c-0.252-0.121-0.563-0.24-0.937-0.357c-0.372-0.117-0.845-0.175-1.417-0.175
			c-0.052,0-0.139,0-0.26,0s-0.265,0.013-0.429,0.039c-0.165,0.026-0.345,0.067-0.54,0.124c-0.194,0.056-0.383,0.136-0.565,0.24
			c-0.018,0.009-0.075,0.043-0.175,0.104s-0.193,0.126-0.28,0.195c-0.303,0.26-0.55,0.598-0.74,1.014
			c-0.191,0.416-0.282,0.936-0.273,1.56c0,0.087,0.009,0.245,0.026,0.475c0.017,0.229,0.073,0.483,0.169,0.76
			c0.112,0.33,0.258,0.607,0.436,0.832c0.178,0.226,0.361,0.41,0.552,0.553c0.191,0.143,0.375,0.251,0.553,0.325
			c0.178,0.074,0.323,0.124,0.436,0.149c0.208,0.061,0.407,0.096,0.599,0.104c0.19,0.009,0.315,0.013,0.377,0.013
			c0.277,0,0.511-0.021,0.701-0.065c0.191-0.043,0.347-0.082,0.469-0.117v-2.262h-1.924v-1.443h3.64v4.849
			c-0.234,0.087-0.416,0.147-0.546,0.182s-0.252,0.065-0.364,0.091c-0.19,0.043-0.483,0.096-0.878,0.156
			c-0.394,0.061-0.847,0.091-1.358,0.091c-0.918,0-1.679-0.134-2.281-0.403s-1.085-0.598-1.449-0.988
			c-0.286-0.312-0.544-0.739-0.773-1.28s-0.35-1.207-0.357-1.996c0-0.294,0.021-0.602,0.064-0.923
			c0.044-0.321,0.121-0.639,0.234-0.956c0.112-0.316,0.271-0.626,0.475-0.93c0.203-0.303,0.461-0.585,0.773-0.845
			c0.277-0.243,0.58-0.44,0.91-0.592c0.329-0.151,0.637-0.266,0.923-0.344c0.199-0.052,0.396-0.091,0.591-0.117
			c0.195-0.026,0.375-0.045,0.54-0.058c0.164-0.013,0.31-0.022,0.436-0.026c0.125-0.004,0.219-0.006,0.279-0.006
			c0.313,0,0.59,0.013,0.832,0.039s0.462,0.056,0.656,0.091c0.195,0.035,0.373,0.076,0.533,0.124
			c0.16,0.048,0.318,0.093,0.475,0.137L168.634,33.724z"/>
	</g>
</g>
</svg>
