<svg xmlns="http://www.w3.org/2000/svg" xmlns:xlink="http://www.w3.org/1999/xlink" version="1.1" width="193.89px" height="303.307px" viewBox="0 0 155.89531 240.9353">
<defs>
<path id="font_0_91" d="M.08000183 .13800049C.10133362 .11732992 .12783306 .100992839 .15950012 .08898926 .19116719 .07699585 .226003 .070999149 .26400758 .070999149 .30800376 .070999149 .34150187 .08066305 .36450196 .099990848 .38750205 .11932882 .39900209 .14566548 .39900209 .17900086 .39900209 .20433045 .3916677 .22499593 .3769989 .24099732 .3623301 .2569987 .34033204 .2706655 .31100465 .28199769L.19200135 .32699586C.1466624 .34432984 .112325038 .36699424 .08898926 .394989 .06566366 .422994 .054000856 .45899455 .054000856 .5029907 .054000856 .5363261 .062332155 .5666606 .07899475 .59399417 .09566752 .6213277 .12016805 .6429952 .15249634 .6589966 .1848348 .674998 .2240041 .68299868 .27000428 .68299868 .31333924 .68299868 .35350547 .67682906 .39050294 .66448977 .4275004 .65216067 .45933024 .6346639 .48599244 .6119995L.44500733 .54100039C.42233277 .55966696 .39549256 .5743306 .3644867 .58499148 .333491 .5956624 .30199687 .6009979 .27000428 .6009979 .22866313 .6009979 .1974945 .59266158 .17649842 .57598879 .15550232 .5593262 .14500427 .5369975 .14500427 .5090027 .14500427 .48433433 .15200298 .46433006 .16600037 .44898988 .17999776 .43365989 .20299785 .41999818 .23500061 .40800477L.3480072 .3639984C.39733378 .34533183 .4334971 .32166545 .4564972 .29299928 .47949729 .2643331 .4909973 .22766622 .4909973 .18299866 .4909973 .1230011 .47066245 .07533264 .42999269 .039993287 .3893331 .004664103 .33500163-.013000488 .2669983-.013000488 .21766155-.013000488 .17282613-.006169637 .13249207 .0074920656 .092168178 .02116394 .058670045 .040334066 .03199768 .06500244L.08000183 .13800049Z"/>
<path id="font_0_156" d="M.4850006 .24787903C.4850006 .23321025 .48433433 .22187297 .4830017 .21386719H.12800598C.12933858 .17124431 .14316814 .13577779 .16949463 .10746765 .1958313 .07915751 .23399861 .06500244 .28399659 .06500244 .31333415 .06500244 .34100343 .07032776 .3670044 .08097839 .39300538 .0916392 .41500346 .105295818 .43299867 .12194824L.4750061 .05996704C.45233155 .03797404 .42432658 .020314536 .3909912 .0069885256 .35766603-.006337484 .32167054-.013000488 .28300477-.013000488 .20500183-.013000488 .14516704 .009999593 .103500369 .055999757 .0618337 .101999919 .041000368 .16366577 .041000368 .24099732 .041000368 .28900147 .05033366 .33216859 .069000247 .37049867 .08766683 .40882875 .11399841 .4388275 .147995 .460495 .18200176 .48216249 .22133892 .49299623 .26600648 .49299623 .31000266 .49299623 .34866844 .48265586 .38200379 .4619751 .41533915 .44130454 .44083659 .41246034 .4584961 .3754425 .47616578 .33842469 .4850006 .29590354 .4850006 .24787903M.2649994 .41900636C.22366841 .41900636 .19150289 .40566 .16850281 .3789673 .14550273 .35227458 .13200379 .31957499 .12800598 .28086854H.40100099C.39700318 .3229116 .3833364 .3564453 .3600006 .38146974 .33666484 .40649415 .30499778 .41900636 .2649994 .41900636Z"/>
<path id="font_0_221" d="M.28799439 .49299623C.30333457 .49299623 .31833396 .4913279 .33299256 .48799134L.32600404 .40499879C.31133525 .40899659 .29666648 .41099549 .28199769 .41099549 .2480011 .41099549 .22000122 .39915977 .19799805 .37548829 .17599488 .351827 .16499329 .32099406 .16499329 .2829895V0H.07899475V.2809906L.059005739 .47999574H.13800049L.1459961 .3899994H.147995C.15666199 .42066957 .17349243 .4455007 .19848633 .4644928 .2234904 .4834951 .25332643 .49299623 .28799439 .49299623Z"/>
<path id="font_0_248" d="M.25500489 .08900452 .40400697 .47999574H.4940033L.30400086 0H.20399475L.013000488 .47999574H.10800171L.25100709 .08900452H.25500489Z"/>
<path id="font_0_176" d="M.117996219 .5751953C.10133362 .5751953 .08716837 .58102926 .07550049 .59269717 .0638326 .60436508 .057998659 .6185303 .057998659 .6351929 .057998659 .65186569 .06366476 .6658681 .07499695 .6772003 .08632914 .68853256 .10066223 .6941986 .117996219 .6941986 .1353302 .6941986 .14966329 .68853256 .16099549 .6772003 .17232768 .6658681 .17799378 .65186569 .17799378 .6351929 .17799378 .6185303 .17232768 .60436508 .16099549 .59269717 .14966329 .58102926 .1353302 .5751953 .117996219 .5751953M.16099549 0H.07499695V.47999574H.16099549V0Z"/>
<path id="font_0_146" d="M.4149933 .3639984C.3816681 .39866639 .34033714 .41600038 .29100038 .41600038 .23899842 .41600038 .19899495 .3996633 .17098999 .36698915 .1429952 .33432517 .1289978 .29232789 .1289978 .24099732 .1289978 .18899536 .1426646 .14682515 .16999817 .114486698 .19733174 .08215841 .2363332 .06599426 .28700257 .06599426 .34366355 .06599426 .3876648 .08366394 .41900636 .119003299L.46499635 .056991579C.42166139 .0103302 .36166383-.013000488 .28500367-.013000488 .23500569-.013000488 .19167073-.002166748 .15499878 .019500733 .118337 .041168214 .09016927 .07133484 .070495609 .11000061 .05083211 .14866638 .041000368 .19233196 .041000368 .24099732 .041000368 .2896627 .051167806 .33299256 .071502689 .37098695 .09183756 .4089915 .12067159 .4388275 .15800476 .460495 .19533794 .48216249 .2386678 .49299623 .28799439 .49299623 .35866294 .49299623 .41600038 .46966554 .4600067 .42300416L.4149933 .3639984Z"/>
<path id="font_0_261" d="M.035003663 0V.070999149L.28300477 .3999939V.40299989H.04699707V.47999574H.39500428V.41099549L.15100098 .08200073V.07899475H.40299989V0H.035003663Z"/>
<path id="font_0_232" d="M.34700013 .40299989H.18600464V.14700318C.18600464 .121673587 .19233704 .102005008 .20500183 .08799744 .21766663 .07400004 .2363332 .06700134 .2610016 .06700134 .28233338 .06700134 .30366517 .07233175 .32499696 .08299255L.34700013 .011001587C.31766258-.0036671956 .2853292-.011001587 .25-.011001587 .20332845-.011001587 .16666158 .001663208 .13999939 .026992798 .1133372 .05233256 .1000061 .08833313 .1000061 .1349945V.40299989H.018997193V.47999574H.1000061V.6179962H.18600464V.47999574H.34700013V.40299989Z"/>
<path id="font_0_199" d="M.30799867 .49299623C.3620046 .49299623 .40533958 .47599284 .43800355 .44198609 .4706675 .4079895 .4869995 .36365763 .4869995 .30899049V0H.40100099V.30099488C.40100099 .33433024 .3899994 .36149598 .36799623 .38249208 .3460032 .40349833 .31767274 .41400147 .28300477 .41400147 .24966939 .41400147 .22183228 .40316773 .19949341 .38150025 .17716472 .35983277 .16600037 .33299766 .16600037 .30099488V0H.08000183V.2809906L.05999756 .47999574H.13699341L.14500427 .39900209H.14700318C.16100057 .42967225 .18183391 .45300294 .20950318 .46899415 .23717244 .4849955 .27000428 .49299623 .30799867 .49299623Z"/>
<path id="font_0_128" d="M.033996583 0V.07499695L.3860016 .58399966V.58799746H.04800415V.66999819H.49899293V.59799197L.15299988 .08799744V.083999637H.5050049V0H.033996583Z"/>
<path id="font_0_249" d="M.56500247 .09599304 .66400149 .47999574H.753006L.6150055 0H.5180054L.38900758 .3909912H.3860016L.2579956 0H.15899658L.020004273 .47999574H.11199951L.21000672 .09599304H.21299744L.33599855 .47999574H.44200135L.56199648 .09599304H.56500247Z"/>
<path id="font_0_168" d="M.44200135 .47999574H.5180054L.49899293 .27799989V.013000488C.49899293-.05299886 .47815959-.10483297 .43649293-.14250183 .39482627-.1801707 .33766175-.19900513 .2649994-.19900513 .17699687-.19900513 .108662929-.17103069 .05999756-.11508179L.10899353-.052139284C.12966411-.07608541 .15233357-.09371439 .17700196-.105026248 .20167034-.1163381 .2306722-.12199402 .26400758-.12199402 .31066896-.12199402 .34716288-.10985311 .37348939-.08557129 .39982606-.06128947 .41299439-.025197348 .41299439 .022705079V.10571289H.41099549C.39699809 .07837931 .37599693 .056711835 .34799195 .04071045 .31999717 .024709067 .28966777 .016708374 .25700379 .016708374 .2156728 .016708374 .17883809 .026713053 .14649964 .046722413 .11417135 .06674194 .08883667 .09476217 .070495609 .13078308 .052164716 .166804 .042999269 .2078247 .042999269 .2538452 .042999269 .3012085 .05233256 .3429006 .070999149 .3789215 .08966573 .4149424 .11549886 .44295756 .14849854 .46296693 .18149822 .48298646 .21899922 .49299623 .2610016 .49299623 .29966737 .49299623 .3338318 .48416139 .36349488 .4664917 .39316813 .44883219 .41566978 .42300416 .43099977 .38900758H.43299867L.44200135 .47999574M.27400209 .095703128C.31600444 .095703128 .3496704 .11021423 .375 .13923645 .4003296 .16826885 .41299439 .20714315 .41299439 .25585938 .41299439 .30523683 .40049235 .34443666 .37548829 .37345887 .35049439 .40249125 .31666566 .41700746 .27400209 .41700746 .23066712 .41700746 .19599915 .4023234 .16999817 .37295533 .14399719 .3435974 .1309967 .30456544 .1309967 .25585938 .1309967 .20714315 .14399719 .16826885 .16999817 .13923645 .19599915 .11021423 .23066712 .095703128 .27400209 .095703128Z"/>
<path id="font_0_225" d="M.069000247 .11300659C.109670009 .080332439 .15800476 .06399536 .21400452 .06399536 .2426707 .06399536 .2646688 .06966146 .27999879 .08099365 .29532878 .092325847 .30299378 .10799154 .30299378 .12799073 .30299378 .14399211 .29816184 .15716045 .28849793 .16749573 .27883403 .17783101 .26400248 .18699646 .2440033 .19499207L.16200257 .22599793C.12399801 .24132793 .095830287 .25916038 .07749939 .27949525 .0591685 .2998301 .05000305 .32632957 .05000305 .35899354 .05000305 .3976593 .06433614 .42965699 .09300232 .45498658 .121668498 .48032633 .16100057 .49299623 .21099854 .49299623 .24767049 .49299623 .2811686 .48782859 .31149293 .4774933 .3418274 .467158 .36732994 .45299278 .3880005 .43499757L.3540039 .3710022C.33599855 .3849996 .3144938 .3963318 .28948976 .40499879 .26449586 .41366578 .23833211 .41799928 .21099854 .41799928 .18633016 .41799928 .16782634 .41283164 .15548706 .40249635 .14315796 .39216105 .13699341 .3789927 .13699341 .36299134 .13699341 .34700013 .14149475 .33467103 .15049744 .32600404 .15950012 .31733705 .17566936 .30867005 .19900513 .30000306L.2769928 .2689972C.31700135 .2536672 .3460032 .23549907 .3639984 .2144928 .38200379 .1934967 .39100648 .16566468 .39100648 .1309967 .39100648 .08700053 .3750051 .052001954 .34300233 .026000977 .31099955 0 .26800028-.013000488 .21400452-.013000488 .17599996-.013000488 .14116414-.0076700847 .10949707 .0029907227 .077829997 .013661702 .050999959 .027994791 .029006958 .04598999L.069000247 .11300659Z"/>
<path id="font_0_192" d="M.07299805 .69799807H.15899658V.15299988C.15899658 .1256663 .16549683 .104497279 .17849732 .0894928 .1914978 .0744985 .21033223 .06700134 .23500061 .06700134 .2536672 .06700134 .26999919 .070002239 .28399659 .07600403L.29400636 .0030059815C.27200318-.0063323976 .2469991-.011001587 .21899414-.011001587 .17432659-.011001587 .13882447 .0024973553 .11248779 .02949524 .08616129 .056493123 .07299805 .09365845 .07299805 .14099121V.69799807Z"/>
<path id="font_0_1" d="M0 0Z"/>
<path id="font_0_65" d="M.68800356 .66999819 .7250061 0H.6349945L.61099246 .53100588H.6080017L.43699647 .08299255H.35299684L.18499756 .5299988H.18099976L.15699768 0H.06599426L.104003909 .66999819H.21899414L.39500428 .20399475H.397995L.576004 .66999819H.68800356Z"/>
<path id="font_0_133" d="M.45100404 0H.375L.3659973 .09500122H.3630066C.3496704 .060333253 .32850138 .033665975 .2994995 .01499939 .27049766-.0036671956 .23499553-.013000488 .19299317-.013000488 .14833577-.013000488 .11250305-.00017293294 .085494998 .025482178 .058497114 .05114746 .04499817 .084981288 .04499817 .12698365 .04499817 .17363484 .061828615 .2101237 .0954895 .2364502 .12916057 .26278688 .17566426 .2759552 .23500061 .2759552 .27166239 .2759552 .30865989 .2709554 .34599305 .2609558V.30197145C.34599305 .33664958 .33632408 .3644918 .31698609 .38549806 .2976583 .4065043 .27199809 .41700746 .2400055 .41700746 .21133931 .41700746 .18750508 .41100566 .16850281 .39900209 .14950054 .3869985 .1333313 .3683268 .11999512 .34298707L.054992677 .37998963C.07099406 .4166616 .0951589 .44466148 .12748719 .46398927 .15982564 .48332725 .19832866 .49299623 .24299622 .49299623 .30233256 .49299623 .34883119 .47599284 .38249208 .44198609 .41616313 .4079895 .43299867 .36132813 .43299867 .30200196V.20500183L.45100404 0M.21299744 .06100464C.23699443 .06100464 .25916038 .06700134 .27949525 .07899475 .2998301 .09099833 .31599427 .107162479 .32798768 .12748719 .33999125 .14781189 .34599305 .16997274 .34599305 .19396973 .32933045 .19930013 .31299845 .20329793 .29699708 .20596314 .2809957 .20862834 .2619985 .20996094 .2400055 .20996094 .20466614 .20996094 .17732747 .2034607 .1579895 .1904602 .1386617 .1774699 .1289978 .15897624 .1289978 .13497925 .1289978 .08566284 .15699768 .06100464 .21299744 .06100464Z"/>
<path id="font_0_173" d="M.30599977 .49299623C.3580017 .49299623 .40016685 .47599284 .43249513 .44198609 .4648336 .4079895 .4810028 .36399333 .4810028 .30999757V0H.39500428V.30099488C.39500428 .33433024 .38417054 .36149598 .36250306 .38249208 .34083558 .40349833 .31266786 .41400147 .27799989 .41400147 .2446645 .41400147 .2168274 .40316773 .19448853 .38150025 .17215984 .35983277 .16099549 .33299766 .16099549 .30099488V0H.07499695V.69799807H.16099549V.41900636H.16400147C.17466228 .43900553 .1924947 .45633445 .21749878 .47099305 .24250286 .48566184 .27200318 .49299623 .30599977 .49299623Z"/>
<path id="font_0_145" d="M.32000733 .49299623C.36333213 .49299623 .40099589 .48233033 .43299867 .46099855 .46500144 .43966676 .48950196 .41033427 .50650027 .3730011 .52349856 .33566795 .5319977 .29333497 .5319977 .2460022 .5319977 .19533284 .5223287 .15049744 .5029907 .11149597 .48366294 .07249451 .45550028 .041992189 .4185028 .019989014 .38150535-.0020039876 .33700563-.013000488 .28500367-.013000488 .20633953-.013000488 .13567098 .009333293 .07299805 .054000856V.69799807H.15899658V.41099549H.16200257C.17733257 .43433128 .1978302 .453832 .22349549 .46949769 .24916077 .48516337 .2813314 .49299623 .32000733 .49299623M.28500367 .06599426C.33833824 .06599426 .37816874 .08215841 .40449525 .114486698 .4308319 .14682515 .44400025 .19032796 .44400025 .24499512 .44400025 .29633586 .4314982 .33783976 .40649415 .36950685 .38150025 .40117393 .3456675 .41700746 .29899598 .41700746 .27366639 .41700746 .2503357 .4108378 .2290039 .39849855 .20767212 .38616944 .19066875 .369339 .17799378 .3480072 .16532898 .32667542 .15899658 .30300904 .15899658 .27700807V.101989749C.17633057 .08932495 .1948293 .08015951 .2144928 .07449341 .23416646 .06882731 .25767008 .06599426 .28500367 .06599426Z"/>
<path id="font_0_277" d="M.30400086 .31199647C.33799745 .34466044 .36282859 .37332664 .37849427 .397995 .39415995 .42266337 .4019928 .45066325 .4019928 .48199464 .4019928 .51866659 .3909912 .54733279 .36898805 .56799319 .34699504 .58866378 .31700135 .598999 .27900697 .598999 .2383372 .598999 .20516968 .58599856 .1795044 .55999758 .15383911 .5339966 .13633728 .5026652 .1269989 .46600343L.04699707 .49699403C.060333253 .55032858 .08766683 .59466049 .1289978 .6299896 .17032878 .665329 .22166443 .68299868 .28300477 .68299868 .32300315 .68299868 .35899864 .67516586 .3909912 .6595001 .422994 .6438344 .4481608 .6213328 .4664917 .59199526 .48483277 .56266787 .4940033 .52800497 .4940033 .4880066 .4940033 .44666545 .4850006 .40982566 .46699525 .37748719 .44900004 .3451589 .42133586 .31133018 .3840027 .27600099L.19000244 .087005618V.083999637H.503006V0H.054992677V.069000247L.30400086 .31199647Z"/>
<path id="font_0_279" d="M.44400025 .2599945H.53700259V.17799378H.44400025V0H.3540039V.17799378H.037994386V.24099732L.12399292 .66999819H.21200562L.13200379 .2599945H.3540039V.54200747H.44400025V.2599945Z"/>
<path id="font_0_361" d="M.39900209 .29600526H.052993776V.38200379H.39900209V.29600526Z"/>
<path id="font_0_237" d="M.4880066 0H.41099549L.40299989 .08099365H.40100099C.38700358 .05033366 .36650086 .02700297 .3394928 .011001587 .3124949-.0049997966 .28032939-.013000488 .24299622-.013000488 .19099427-.013000488 .14882405 .0039978029 .116485599 .037994386 .08415731 .07200114 .067993167 .1160024 .067993167 .16999817V.47999574H.15400696V.17799378C.15400696 .14532979 .164505 .11849467 .1855011 .0974884 .20649719 .07649231 .23399861 .06599426 .26800538 .06599426 .30066935 .06599426 .32783509 .076660159 .34950257 .09799194 .37117005 .11932373 .38200379 .14599101 .38200379 .17799378V.47999574H.46800233V.19999695L.4880066 0Z"/>
<path id="font_0_152" d="M.5279999 0H.45199586L.44299317 .09599304H.44000245C.42600505 .06199646 .4041697 .03532918 .37449647 .015991211 .34483338-.0033365887 .30800376-.013000488 .26400758-.013000488 .2180074-.013000488 .1781718-.0025024415 .14450073 .018493653 .11082967 .03949992 .0851593 .06866964 .067489627 .10600281 .04983012 .14333599 .041000368 .18633525 .041000368 .23500061 .041000368 .28366599 .050664266 .32766215 .069992069 .36698915 .08933004 .4063263 .116999309 .4371592 .15299988 .45948792 .18900045 .48182679 .23066712 .49299623 .27799989 .49299623 .3373362 .49299623 .385671 .47733055 .42300416 .44599916V.69799807H.5090027V.21000672L.5279999 0M.28300477 .06599426C.32233177 .06599426 .35549418 .0791626 .38249208 .10549927 .40950013 .13183594 .42300416 .16500347 .42300416 .20500183V.355011C.40833537 .37433879 .3893331 .38950096 .3659973 .40049745 .34266154 .41150413 .31566368 .41700746 .28500367 .41700746 .23500569 .41700746 .19650269 .4001719 .16949463 .36650086 .14249675 .33283998 .1289978 .28967286 .1289978 .23699951 .1289978 .18566895 .1423289 .14433289 .16899109 .11299133 .19566345 .08165995 .23366802 .06599426 .28300477 .06599426Z"/>
<path id="font_0_14" d="M.43299867 .3468628C.4710032 .3328654 .50000509 .31237284 .5200043 .28538514 .5400035 .25839744 .55000308 .22690837 .55000308 .19091797 .55000308 .15559896 .5411682 .1234436 .52349856 .094451908 .50582888 .065470378 .47966004 .04248047 .44499208 .025482178 .41033427 .00849406 .368337 0 .31900025 0H.083999637V.66999819H.32299806C.3670044 .66999819 .40467326 .66232809 .43600465 .6469879 .46733604 .63164779 .49083457 .6109721 .50650027 .58496096 .52216598 .55894979 .5299988 .5296071 .5299988 .49693299 .5299988 .46490989 .5216624 .43555705 .5049896 .4088745 .48832704 .38220216 .46433006 .3615316 .43299867 .3468628M.17500305 .5890045V.38085938H.32000733C.3613383 .38085938 .39216615 .3906962 .41249085 .41036988 .4328257 .4300537 .44299317 .45457459 .44299317 .4839325 .44299317 .514623 .4328257 .5398051 .41249085 .55947878 .39216615 .5791626 .3613383 .5890045 .32000733 .5890045H.17500305M.31599427 .08299255C.3639984 .08299255 .3996633 .093317668 .4229889 .113967899 .44632469 .1346283 .45799256 .1609497 .45799256 .19293213 .45799256 .22491455 .44632469 .2513987 .4229889 .27238465 .3996633 .29337058 .3639984 .30386354 .31599427 .30386354H.17500305V.08299255H.31599427Z"/>
<path id="font_0_190" d="M.3860016 0 .23800659 .20700073 .16099549 .14700318V0H.07499695V.69799807H.16099549V.23899842C.22699483 .2916616 .2749939 .33215843 .30499269 .3604889 .33500163 .38882957 .35450236 .41083274 .36349488 .4264984 .37249757 .4421641 .3783315 .45999656 .3809967 .47999574H.47000123C.46733604 .45466615 .46200053 .4325002 .45399476 .41349793 .44599916 .39449565 .43099977 .3726603 .40899659 .34799195 .38700358 .32333375 .35333763 .29166667 .30799867 .25299073L.49499513 0H.3860016Z"/>
<path id="font_0_2" d="M.6040039 .000015258789H.5059967L.44999696 .16601563H.16499329L.10800171 0H.013000488L.2559967 .66999819H.36099244L.6040039 .000015258789M.30499269 .57299807 .19299317 .24801636H.42199708L.31100465 .57299807H.30499269Z"/>
<path id="font_0_231" d="M.07499695 .4830017C.07499695 .55100509 .09449768 .6056722 .13349915 .6470032 .17250061 .68833419 .22866822 .70899966 .30200196 .70899966 .34333293 .70899966 .37916566 .70099899 .40950013 .68499758 .4398346 .66899618 .46316529 .6469981 .4794922 .6190033 .49582926 .5910085 .5039978 .5590108 .5039978 .52301028 .5039978 .4796753 .49416606 .44250489 .47450257 .41149903 .45483909 .38050334 .43066917 .35767619 .4019928 .34301759V.3400116C.44399516 .33468119 .48033143 .31717936 .5110016 .2875061 .54167178 .25784303 .55700686 .2183431 .55700686 .16900635 .55700686 .11300659 .5388387 .06866964 .50250247 .035995485 .46616618 .0033315023 .41899619-.013000488 .36099244-.013000488 .31500245-.013000488 .27633668-.0049997966 .24499512 .011001587L.2669983 .087005618C.28033448 .07899984 .2938334 .07332865 .30749513 .069992069 .321167 .06666565 .33666993 .06500244 .3540039 .06500244 .3893331 .06500244 .41749574 .07450358 .43849183 .09350586 .45949809 .11250814 .47000123 .13834127 .47000123 .17100525 .47000123 .20700582 .45466615 .23583985 .42399598 .25750733 .39333598 .2791748 .3523356 .29034425 .30099488 .29101563V.36001588C.33766685 .37134806 .36650086 .3911794 .38749696 .4195099 .4085032 .44784037 .41900636 .4806722 .41900636 .5180054 .41900636 .5506694 .40867106 .5778351 .3880005 .59950259 .36732994 .62117007 .33799745 .6320038 .30000306 .6320038 .2526703 .6320038 .21766663 .61783346 .19499207 .5894928 .17232768 .5611623 .16099549 .5219981 .16099549 .47200013V0H.07499695V.4830017Z"/>
<path id="font_0_342" d="M.125 .3631134C.1070048 .3631134 .09200541 .3691101 .08000183 .38110353 .06800842 .3931071 .06201172 .40777589 .06201172 .42510987 .06201172 .44311524 .06800842 .45828248 .08000183 .47061158 .09200541 .48295085 .1070048 .48912049 .125 .48912049 .14300537 .48912049 .1581726 .48295085 .17050171 .47061158 .18284099 .45828248 .18901062 .44311524 .18901062 .42510987 .18901062 .40777589 .18284099 .3931071 .17050171 .38110353 .1581726 .3691101 .14300537 .3631134 .125 .3631134M.125-.007003784C.1070048-.007003784 .09200541-.0010070801 .08000183 .010986328 .06800842 .022989909 .06201172 .03765869 .06201172 .054992677 .06201172 .07299805 .06800842 .08816528 .08000183 .100494388 .09200541 .11283366 .1070048 .119003299 .125 .119003299 .14300537 .119003299 .1581726 .11283366 .17050171 .100494388 .18284099 .08816528 .18901062 .07299805 .18901062 .054992677 .18901062 .03765869 .18284099 .022989909 .17050171 .010986328 .1581726-.0010070801 .14300537-.007003784 .125-.007003784Z"/>
<path id="font_0_206" d="M.041000368 .24099732C.041000368 .2896627 .050664266 .33299256 .069992069 .37098695 .08933004 .4089915 .116999309 .4388275 .15299988 .460495 .18900045 .48216249 .23100281 .49299623 .27900697 .49299623 .32700096 .49299623 .36883036 .48216249 .40449525 .460495 .44016014 .4388275 .46766154 .4089915 .4869995 .37098695 .50633749 .33299256 .51600649 .2896627 .51600649 .24099732 .51600649 .19299317 .5061696 .1496582 .48649598 .11099243 .4668325 .07232666 .4391683 .041992189 .40350343 .019989014 .36783854-.0020039876 .32633973-.013000488 .27900697-.013000488 .23100281-.013000488 .18900045-.002166748 .15299988 .019500733 .116999309 .041168214 .08933004 .07133484 .069992069 .11000061 .050664266 .14866638 .041000368 .19233196 .041000368 .24099732M.42799378 .24099732C.42799378 .29232789 .41516114 .33432517 .38949586 .36698915 .36383058 .3996633 .32700096 .41600038 .27900697 .41600038 .23100281 .41600038 .19400025 .39983116 .16799927 .36749269 .14199829 .3351644 .1289978 .29299928 .1289978 .24099732 .1289978 .18899536 .14199829 .14682515 .16799927 .114486698 .19400025 .08215841 .23100281 .06599426 .27900697 .06599426 .32700096 .06599426 .36383058 .082326259 .38949586 .114990238 .41516114 .14766439 .42799378 .18966675 .42799378 .24099732Z"/>
<path id="font_0_35" d="M.5119934 .66999819V.58799746H.17500305V.3580017H.5039978V.27900697H.17500305V0H.083999637V.66999819H.5119934Z"/>
<path id="font_0_283" d="M.3939972 .34481813C.43599955 .3308207 .46799723 .30949403 .48999024 .280838 .5119934 .25219218 .522995 .21821594 .522995 .1789093 .522995 .14225769 .5126597 .10927328 .49198915 .079956058 .47132875 .050638837 .44266258 .027816773 .4059906 .011489868 .36932884-.004837036 .32733155-.013000488 .27999879-.013000488 .23199463-.013000488 .18966167-.004837036 .15299988 .011489868 .1163381 .027816773 .08783976 .05047099 .06750488 .079452518 .047170003 .108434047 .037002565 .14158122 .037002565 .17889405 .037002565 .21753948 .047668458 .2511851 .069000247 .27983094 .09033203 .30848695 .12199911 .32981364 .16400147 .34381105V.34681703C.1293335 .3614858 .10283407 .38199363 .084503177 .40834046 .06617228 .43469749 .057006837 .46521507 .057006837 .4998932 .057006837 .53525289 .066340129 .56677249 .085006717 .5944519 .1036733 .62213137 .13000489 .643809 .16400147 .65948489 .19799805 .6751607 .23666382 .68299868 .27999879 .68299868 .32399497 .68299868 .36299134 .6751607 .39698792 .65948489 .43099467 .643809 .45716349 .62213137 .47549439 .5944519 .49383546 .56677249 .503006 .535258 .503006 .49990846 .503006 .46454875 .49350486 .43352763 .47450257 .4068451 .45550028 .38017274 .42866517 .36016337 .3939972 .34681703V.34481813M.27999879 .6009979C.2386678 .6009979 .20583599 .59132388 .1815033 .5719757 .15717061 .55262759 .14500427 .5269368 .14500427 .49490357 .14500427 .46087647 .15717061 .4336853 .1815033 .41333009 .20583599 .39298503 .2386678 .3828125 .27999879 .3828125 .32200114 .3828125 .35500083 .39298503 .3789978 .41333009 .40299479 .4336853 .4149933 .46087647 .4149933 .49490357 .4149933 .5275981 .40299479 .55345156 .3789978 .572464 .35500083 .59148666 .32200114 .6009979 .27999879 .6009979M.27999879 .070007327C.32733155 .070007327 .3646647 .08066305 .3919983 .10197449 .41933189 .123296108 .43299867 .15194194 .43299867 .18791199 .43299867 .22321065 .41933189 .25151573 .3919983 .27282716 .3646647 .29414878 .32733155 .30480958 .27999879 .30480958 .23266602 .30480958 .19533284 .29414878 .16799927 .27282716 .1406657 .25151573 .1269989 .22321065 .1269989 .18791199 .1269989 .15194194 .1406657 .123296108 .16799927 .10197449 .19533284 .08066305 .23266602 .070007327 .27999879 .070007327Z"/>
<path id="font_0_275" d="M.042007448 .33599855C.042007448 .44133506 .061172487 .5255025 .09950256 .588501 .13783264 .65149948 .19799805 .68299868 .27999879 .68299868 .36333213 .68299868 .42383323 .6516622 .46150209 .58898928 .49917094 .5263265 .5180054 .44166056 .5180054 .33499146 .5180054 .22833252 .49900309 .14366658 .46099855 .08099365 .42300416 .018330893 .3626709-.013000488 .27999879-.013000488 .19666545-.013000488 .13616435 .018330893 .09849548 .08099365 .060836793 .14366658 .042007448 .22866822 .042007448 .33599855M.42700196 .33599855C.42700196 .4146627 .4164988 .47815959 .39549256 .52648928 .37449647 .5748291 .33599855 .598999 .27999879 .598999 .22399903 .598999 .18566387 .5748291 .16499329 .52648928 .14433289 .47815959 .13400269 .41399638 .13400269 .33399964 .13400269 .2546743 .14433289 .19117737 .16499329 .14350891 .18566387 .095840457 .22399903 .072006229 .27999879 .072006229 .33599855 .072006229 .37449647 .09617106 .39549256 .14450073 .4164988 .19284058 .42700196 .2566732 .42700196 .33599855Z"/>
<path id="font_0_104" d="M.6029968 .2619934C.6029968 .20732625 .59233096 .1593272 .57099917 .117996219 .54966738 .076665248 .51916506 .044499715 .4794922 .021499634 .4398295-.0015004476 .3933309-.013000488 .33999635-.013000488 .28666178-.013000488 .24016316-.0015004476 .20050049 .021499634 .16083782 .044499715 .1303355 .076665248 .10899353 .117996219 .08766174 .1593272 .07699585 .20732625 .07699585 .2619934V.66999819H.16799927V.26200868C.16799927 .20467632 .18383281 .15867615 .21549988 .12400818 .24716695 .08934021 .28866578 .072006229 .33999635 .072006229 .39266969 .072006229 .43450419 .08934021 .46549989 .12400818 .49649558 .15867615 .5119934 .20467632 .5119934 .26200868V.66999819H.6029968V.2619934Z"/>
<path id="font_0_115" d="M.31199647 .09700012 .5099945 .66999819H.6069946L.3630066 0H.2559967L.013000488 .66999819H.11300659L.30700685 .09700012H.31199647Z"/>
<path id="font_0_99" d="M.54299929 .66999819V.58799746H.32499696V0H.23500061V.58799746H.01600647V.66999819H.54299929Z"/>
<path id="font_0_198" d="M.56900027 .49299623C.6150004 .49299623 .65183 .47766114 .67948916 .44699098 .7071584 .41633097 .72099307 .37600199 .72099307 .32600404V0H.6349945V.31700135C.6349945 .3463389 .62615969 .36983744 .60849 .38749696 .5908305 .40516664 .56733199 .41400147 .5379944 .41400147 .5106608 .41400147 .48799134 .40483604 .46998597 .38650514 .45199076 .36817423 .44299317 .34500633 .44299317 .31700135V0H.35699464V.31700135C.35699464 .3463389 .3481598 .36983744 .3304901 .38749696 .3128306 .40516664 .28966777 .41400147 .2610016 .41400147 .23366802 .41400147 .21083069 .40499879 .19248963 .3869934 .17415874 .3689982 .16499329 .3456675 .16499329 .31700135V0H.07899475V.29328919L.05999756 .48046876H.13600159L.14399719 .4074707H.14500427C.15766907 .43547569 .17599996 .45673118 .19999695 .47123719 .22399394 .4857432 .25332643 .49299623 .28799439 .49299623 .31799317 .49299623 .34466044 .4853312 .36799623 .47000123 .391332 .45467124 .40866599 .43367005 .41999818 .40699769H.42300416C.43499757 .43500266 .4538269 .45633445 .4794922 .47099305 .50516769 .48566184 .53500369 .49299623 .56900027 .49299623Z"/>
<path id="font_0_345" d="M.16700745 .19599915H.087005618L.08099365 .66999819H.17300415L.16700745 .19599915M.1269989-.007003784C.1090037-.007003784 .09400431-.0010070801 .08200073 .010986328 .069997157 .022989909 .06399536 .03765869 .06399536 .054992677 .06399536 .07299805 .069997157 .08816528 .08200073 .100494388 .09400431 .11283366 .1090037 .119003299 .1269989 .119003299 .14500427 .119003299 .16017151 .11283366 .17250061 .100494388 .18482971 .08816528 .19099427 .07299805 .19099427 .054992677 .19099427 .03765869 .18482971 .022989909 .17250061 .010986328 .16017151-.0010070801 .14500427-.007003784 .1269989-.007003784Z"/>
<path id="font_0_340" d="M.11099243-.007003784C.09299723-.007003784 .07799784-.0010070801 .06599426 .010986328 .054000856 .022989909 .04800415 .03765869 .04800415 .054992677 .04800415 .07299805 .054000856 .08816528 .06599426 .100494388 .07799784 .11283366 .09299723 .119003299 .11099243 .119003299 .1289978 .119003299 .14416504 .11283366 .15649414 .100494388 .16883342 .08816528 .17500305 .07299805 .17500305 .054992677 .17500305 .03765869 .16883342 .022989909 .15649414 .010986328 .14416504-.0010070801 .1289978-.007003784 .11099243-.007003784Z"/>
<path id="font_0_284" d="M.26800538 .68299868C.31599937 .68299868 .35899354 .67099508 .39698792 .6469879 .43499247 .6229909 .4648285 .58732607 .48649598 .5399933 .50816348 .49266053 .5189972 .43532817 .5189972 .36799623 .5189972 .24866231 .49082948 .15532939 .43449403 .08799744 .37816874 .020665488 .29733787-.013000488 .19200135-.013000488 .1386668-.013000488 .09433492-.0063323976 .059005739 .007003784L.07600403 .09300232C.094670619 .08566793 .11283366 .080332439 .13049317 .07699585 .14816284 .07366943 .16866558 .072006229 .19200135 .072006229 .2626699 .072006229 .3188375 .0933431 .36050416 .13601685 .4021708 .17870076 .42466737 .23804729 .42799378 .3140564 .40600077 .2947286 .37983705 .27972923 .34950257 .26905824 .3191681 .25839744 .28633628 .25306703 .25100709 .25306703 .20767212 .25306703 .1695048 .26189677 .13650513 .27955628 .103505458 .29722596 .07783508 .32188926 .05949402 .35354615 .041163129 .38521324 .03199768 .42170716 .03199768 .46302796 .03199768 .5063629 .041997274 .544693 .06199646 .5780182 .08199564 .6113434 .10999552 .63717147 .1459961 .6555023 .18199666 .6738332 .22266643 .68299868 .26800538 .68299868M.125 .46302796C.125 .42303977 .13783264 .39104716 .16349793 .36705018 .18916321 .3430532 .22233074 .3310547 .2630005 .3310547 .29633586 .3310547 .32616679 .33621726 .3524933 .34654237 .37882997 .35687766 .4039968 .37271119 .42799378 .39404298 .42599998 .46069337 .41083274 .5115153 .38249208 .5465088 .3541616 .58150228 .31466676 .598999 .26400758 .598999 .22266643 .598999 .18916321 .5868327 .16349793 .5625 .13783264 .5381775 .125 .50502017 .125 .46302796Z"/>
<path id="font_0_276" d="M.36099244 .6699219V.083999637H.5249939V0H.07400513V.083999637H.27000428V.5689392L.09199524 .50294497 .06300354 .5779419 .29200746 .6699219H.36099244Z"/>
<path id="font_0_282" d="M.037002565 .66999819H.5149994V.5950012L.20300293 0H.1000061L.41400147 .58799746H.037002565V.66999819Z"/>
<path id="font_0_278" d="M.30400086 .38085938C.34266664 .38085938 .37749736 .37319438 .40849305 .35786439 .4394989 .3425344 .46383158 .32054139 .4814911 .29188539 .49916078 .26322938 .5079956 .22990926 .5079956 .19192505 .5079956 .14994304 .49749757 .113454189 .47650147 .082458499 .45550538 .05147298 .42600505 .027816773 .3880005 .011489868 .34999595-.004837036 .30633036-.013000488 .25700379-.013000488 .21033223-.013000488 .16682942-.004002889 .12649536 .01399231 .08616129 .031987508 .054662069 .055648805 .03199768 .0849762L.085998538 .154953C.1333313 .09965515 .19099935 .072006229 .2590027 .072006229 .30566407 .072006229 .3434957 .08266703 .37249757 .10398865 .40149943 .12531026 .41600038 .15362549 .41600038 .18893433 .41600038 .22557576 .40299989 .25405375 .3769989 .2743683 .35099793 .294693 .31533305 .30485536 .27000428 .30485536 .2480011 .30485536 .22616577 .30252076 .20449829 .29785157 .18283081 .29319255 .16399639 .28719584 .147995 .27986146L.117004398 .35586549 .3580017 .58799746H.07600403V.66999819H.4810028V.59399417L.2480011 .37586976C.2646637 .37919618 .2833303 .38085938 .30400086 .38085938Z"/>
<clipPath id="clip_1">
<path transform="matrix(1,0,0,-1,-29.5087,270.444)" d="M0 0H214.913V299.953H0Z"/>
</clipPath>
</defs>
<use data-text="S" xlink:href="#font_0_91" transform="matrix(10,0,0,-10,19.837801,27.637696)" fill="#f36f21"/>
<use data-text="e" xlink:href="#font_0_156" transform="matrix(10,0,0,-10,25.177805,27.637696)" fill="#f36f21"/>
<use data-text="r" xlink:href="#font_0_221" transform="matrix(10,0,0,-10,30.417807,27.637696)" fill="#f36f21"/>
<use data-text="v" xlink:href="#font_0_248" transform="matrix(10,0,0,-10,33.907808,27.637696)" fill="#f36f21"/>
<use data-text="i" xlink:href="#font_0_176" transform="matrix(10,0,0,-10,38.977807,27.637696)" fill="#f36f21"/>
<use data-text="c" xlink:href="#font_0_146" transform="matrix(10,0,0,-10,41.337808,27.637696)" fill="#f36f21"/>
<use data-text="e" xlink:href="#font_0_156" transform="matrix(10,0,0,-10,46.13781,27.637696)" fill="#f36f21"/>
<use data-text="z" xlink:href="#font_0_261" transform="matrix(10,0,0,-10,51.367807,27.637696)" fill="#0066b3"/>
<use data-text="e" xlink:href="#font_0_156" transform="matrix(10,0,0,-10,55.697809,27.637696)" fill="#0066b3"/>
<use data-text="i" xlink:href="#font_0_176" transform="matrix(10,0,0,-10,60.937807,27.637696)" fill="#0066b3"/>
<use data-text="t" xlink:href="#font_0_232" transform="matrix(10,0,0,-10,63.297807,27.637696)" fill="#0066b3"/>
<use data-text="e" xlink:href="#font_0_156" transform="matrix(10,0,0,-10,66.87781,27.637696)" fill="#0066b3"/>
<use data-text="n" xlink:href="#font_0_199" transform="matrix(10,0,0,-10,72.117809,27.637696)" fill="#0066b3"/>
<use data-text="Z" xlink:href="#font_0_128" transform="matrix(7,0,0,-7,19.837801,39.4709)" fill="#58595b"/>
<use data-text="w" xlink:href="#font_0_249" transform="matrix(7,0,0,-7,23.4568,39.4709)" fill="#58595b"/>
<use data-text="e" xlink:href="#font_0_156" transform="matrix(7,0,0,-7,28.8468,39.4709)" fill="#58595b"/>
<use data-text="i" xlink:href="#font_0_176" transform="matrix(7,0,0,-7,32.5148,39.4709)" fill="#58595b"/>
<use data-text="g" xlink:href="#font_0_168" transform="matrix(7,0,0,-7,34.1668,39.4709)" fill="#58595b"/>
<use data-text="s" xlink:href="#font_0_225" transform="matrix(7,0,0,-7,38.2128,39.4709)" fill="#58595b"/>
<use data-text="t" xlink:href="#font_0_232" transform="matrix(7,0,0,-7,41.229799,39.4709)" fill="#58595b"/>
<use data-text="e" xlink:href="#font_0_156" transform="matrix(7,0,0,-7,43.735795,39.4709)" fill="#58595b"/>
<use data-text="l" xlink:href="#font_0_192" transform="matrix(7,0,0,-7,47.403795,39.4709)" fill="#58595b"/>
<use data-text="l" xlink:href="#font_0_192" transform="matrix(7,0,0,-7,49.482797,39.4709)" fill="#58595b"/>
<use data-text="e" xlink:href="#font_0_156" transform="matrix(7,0,0,-7,51.498796,39.4709)" fill="#58595b"/>
<use data-text=" " xlink:href="#font_0_1" transform="matrix(7,0,0,-7,55.166795,39.4709)" fill="#58595b"/>
<use data-text="M" xlink:href="#font_0_65" transform="matrix(7,0,0,-7,56.720796,39.4709)" fill="#58595b"/>
<use data-text="e" xlink:href="#font_0_156" transform="matrix(7,0,0,-7,62.22209,39.4709)" fill="#58595b"/>
<use data-text="r" xlink:href="#font_0_221" transform="matrix(7,0,0,-7,65.89009,39.4709)" fill="#58595b"/>
<use data-text="g" xlink:href="#font_0_168" transform="matrix(7,0,0,-7,68.207088,39.4709)" fill="#58595b"/>
<use data-text="e" xlink:href="#font_0_156" transform="matrix(7,0,0,-7,72.25308,39.4709)" fill="#58595b"/>
<use data-text="l" xlink:href="#font_0_192" transform="matrix(7,0,0,-7,75.92108,39.4709)" fill="#58595b"/>
<use data-text="s" xlink:href="#font_0_225" transform="matrix(7,0,0,-7,78.02808,39.4709)" fill="#58595b"/>
<use data-text="t" xlink:href="#font_0_232" transform="matrix(7,0,0,-7,81.04508,39.4709)" fill="#58595b"/>
<use data-text="e" xlink:href="#font_0_156" transform="matrix(7,0,0,-7,83.55109,39.4709)" fill="#58595b"/>
<use data-text="t" xlink:href="#font_0_232" transform="matrix(7,0,0,-7,87.191089,39.4709)" fill="#58595b"/>
<use data-text="t" xlink:href="#font_0_232" transform="matrix(7,0,0,-7,89.75308,39.4709)" fill="#58595b"/>
<use data-text="e" xlink:href="#font_0_156" transform="matrix(7,0,0,-7,92.25908,39.4709)" fill="#58595b"/>
<use data-text="n" xlink:href="#font_0_199" transform="matrix(7,0,0,-7,95.92708,39.4709)" fill="#58595b"/>
<use data-text="a" xlink:href="#font_0_133" transform="matrix(10,0,0,-10,19.837801,121.4709)" fill="#f36f21"/>
<use data-text="c" xlink:href="#font_0_146" transform="matrix(10,0,0,-10,24.9078,121.4709)" fill="#f36f21"/>
<use data-text="h" xlink:href="#font_0_173" transform="matrix(10,0,0,-10,29.7978,121.4709)" fill="#f36f21"/>
<use data-text="t" xlink:href="#font_0_232" transform="matrix(10,0,0,-10,35.257799,121.4709)" fill="#f36f21"/>
<use data-text="b" xlink:href="#font_0_145" transform="matrix(10,0,0,-10,38.9178,121.4709)" fill="#0066b3"/>
<use data-text="i" xlink:href="#font_0_176" transform="matrix(10,0,0,-10,44.6578,121.4709)" fill="#0066b3"/>
<use data-text="s" xlink:href="#font_0_225" transform="matrix(10,0,0,-10,47.0178,121.4709)" fill="#0066b3"/>
<use data-text="a" xlink:href="#font_0_133" transform="matrix(10,0,0,-10,51.327798,121.4709)" fill="#f36f21"/>
<use data-text="c" xlink:href="#font_0_146" transform="matrix(10,0,0,-10,56.397798,121.4709)" fill="#f36f21"/>
<use data-text="h" xlink:href="#font_0_173" transform="matrix(10,0,0,-10,61.287797,121.4709)" fill="#f36f21"/>
<use data-text="t" xlink:href="#font_0_232" transform="matrix(10,0,0,-10,66.747798,121.4709)" fill="#f36f21"/>
<use data-text="2" xlink:href="#font_0_277" transform="matrix(10,0,0,-10,19.837801,210.4109)" fill="#f36f21"/>
<use data-text="4" xlink:href="#font_0_279" transform="matrix(10,0,0,-10,25.4378,210.4109)" fill="#f36f21"/>
<use data-text="-" xlink:href="#font_0_361" transform="matrix(10,0,0,-10,31.037798,210.4109)" fill="#f36f21"/>
<use data-text="S" xlink:href="#font_0_91" transform="matrix(10,0,0,-10,35.427804,210.4109)" fill="#f36f21"/>
<use data-text="t" xlink:href="#font_0_232" transform="matrix(10,0,0,-10,40.647806,210.4109)" fill="#f36f21"/>
<use data-text="u" xlink:href="#font_0_237" transform="matrix(10,0,0,-10,44.307809,210.4109)" fill="#f36f21"/>
<use data-text="n" xlink:href="#font_0_199" transform="matrix(10,0,0,-10,49.78781,210.4109)" fill="#f36f21"/>
<use data-text="d" xlink:href="#font_0_152" transform="matrix(10,0,0,-10,55.34781,210.4109)" fill="#f36f21"/>
<use data-text="e" xlink:href="#font_0_156" transform="matrix(10,0,0,-10,61.227807,210.4109)" fill="#f36f21"/>
<use data-text="n" xlink:href="#font_0_199" transform="matrix(10,0,0,-10,66.467807,210.4109)" fill="#f36f21"/>
<use data-text="-" xlink:href="#font_0_361" transform="matrix(10,0,0,-10,72.0278,210.4109)" fill="#0066b3"/>
<use data-text="B" xlink:href="#font_0_14" transform="matrix(10,0,0,-10,76.5578,210.4109)" fill="#0066b3"/>
<use data-text="a" xlink:href="#font_0_133" transform="matrix(10,0,0,-10,82.5068,210.4109)" fill="#0066b3"/>
<use data-text="n" xlink:href="#font_0_199" transform="matrix(10,0,0,-10,87.5768,210.4109)" fill="#0066b3"/>
<use data-text="k" xlink:href="#font_0_190" transform="matrix(10,0,0,-10,93.136798,210.4109)" fill="#0066b3"/>
<use data-text="A" xlink:href="#font_0_2" transform="matrix(6,0,0,-6,19.837801,132.5241)" fill="#58595b"/>
<use data-text="u" xlink:href="#font_0_237" transform="matrix(6,0,0,-6,23.4918,132.5241)" fill="#58595b"/>
<use data-text="c" xlink:href="#font_0_146" transform="matrix(6,0,0,-6,26.779799,132.5241)" fill="#58595b"/>
<use data-text="h" xlink:href="#font_0_173" transform="matrix(6,0,0,-6,29.713797,132.5241)" fill="#58595b"/>
<use data-text=" " xlink:href="#font_0_1" transform="matrix(6,0,0,-6,33.0198,132.5241)" fill="#58595b"/>
<use data-text="a" xlink:href="#font_0_133" transform="matrix(6,0,0,-6,34.3518,132.5241)" fill="#58595b"/>
<use data-text="u" xlink:href="#font_0_237" transform="matrix(6,0,0,-6,37.3938,132.5241)" fill="#58595b"/>
<use data-text="&#x00df;" xlink:href="#font_0_231" transform="matrix(6,0,0,-6,40.6818,132.5241)" fill="#58595b"/>
<use data-text="e" xlink:href="#font_0_156" transform="matrix(6,0,0,-6,44.2518,132.5241)" fill="#58595b"/>
<use data-text="r" xlink:href="#font_0_221" transform="matrix(6,0,0,-6,47.395799,132.5241)" fill="#58595b"/>
<use data-text="h" xlink:href="#font_0_173" transform="matrix(6,0,0,-6,49.483797,132.5241)" fill="#58595b"/>
<use data-text="a" xlink:href="#font_0_133" transform="matrix(6,0,0,-6,52.789796,132.5241)" fill="#58595b"/>
<use data-text="l" xlink:href="#font_0_192" transform="matrix(6,0,0,-6,55.831796,132.5241)" fill="#58595b"/>
<use data-text="b" xlink:href="#font_0_145" transform="matrix(6,0,0,-6,57.637796,132.5241)" fill="#58595b"/>
<use data-text=" " xlink:href="#font_0_1" transform="matrix(6,0,0,-6,61.081796,132.5241)" fill="#58595b"/>
<use data-text="u" xlink:href="#font_0_237" transform="matrix(6,0,0,-6,62.413797,132.5241)" fill="#58595b"/>
<use data-text="n" xlink:href="#font_0_199" transform="matrix(6,0,0,-6,65.7018,132.5241)" fill="#58595b"/>
<use data-text="s" xlink:href="#font_0_225" transform="matrix(6,0,0,-6,69.037799,132.5241)" fill="#58595b"/>
<use data-text="e" xlink:href="#font_0_156" transform="matrix(6,0,0,-6,71.623798,132.5241)" fill="#58595b"/>
<use data-text="r" xlink:href="#font_0_221" transform="matrix(6,0,0,-6,74.76779,132.5241)" fill="#58595b"/>
<use data-text="e" xlink:href="#font_0_156" transform="matrix(6,0,0,-6,76.74659,132.5241)" fill="#58595b"/>
<use data-text="r" xlink:href="#font_0_221" transform="matrix(6,0,0,-6,79.89059,132.5241)" fill="#58595b"/>
<use data-text=" " xlink:href="#font_0_1" transform="matrix(6,0,0,-6,81.83459,132.5241)" fill="#58595b"/>
<use data-text="S" xlink:href="#font_0_91" transform="matrix(6,0,0,-6,83.16659,132.5241)" fill="#58595b"/>
<use data-text="e" xlink:href="#font_0_156" transform="matrix(6,0,0,-6,86.37059,132.5241)" fill="#58595b"/>
<use data-text="r" xlink:href="#font_0_221" transform="matrix(6,0,0,-6,89.51459,132.5241)" fill="#58595b"/>
<use data-text="v" xlink:href="#font_0_248" transform="matrix(6,0,0,-6,91.60858,132.5241)" fill="#58595b"/>
<use data-text="i" xlink:href="#font_0_176" transform="matrix(6,0,0,-6,94.65058,132.5241)" fill="#58595b"/>
<use data-text="c" xlink:href="#font_0_146" transform="matrix(6,0,0,-6,96.06658,132.5241)" fill="#58595b"/>
<use data-text="e" xlink:href="#font_0_156" transform="matrix(6,0,0,-6,98.94658,132.5241)" fill="#58595b"/>
<use data-text="-" xlink:href="#font_0_361" transform="matrix(6,0,0,-6,102.090579,132.5241)" fill="#58595b"/>
<use data-text=" " xlink:href="#font_0_1" transform="matrix(6,0,0,-6,104.80858,132.5241)" fill="#58595b"/>
<use data-text="z" xlink:href="#font_0_261" transform="matrix(6,0,0,-6,19.837801,139.72409)" fill="#58595b"/>
<use data-text="e" xlink:href="#font_0_156" transform="matrix(6,0,0,-6,22.4358,139.72409)" fill="#58595b"/>
<use data-text="i" xlink:href="#font_0_176" transform="matrix(6,0,0,-6,25.579802,139.72409)" fill="#58595b"/>
<use data-text="t" xlink:href="#font_0_232" transform="matrix(6,0,0,-6,26.995802,139.72409)" fill="#58595b"/>
<use data-text="e" xlink:href="#font_0_156" transform="matrix(6,0,0,-6,29.1438,139.72409)" fill="#58595b"/>
<use data-text="n" xlink:href="#font_0_199" transform="matrix(6,0,0,-6,32.287805,139.72409)" fill="#58595b"/>
<use data-text=" " xlink:href="#font_0_1" transform="matrix(6,0,0,-6,35.623804,139.72409)" fill="#58595b"/>
<use data-text="b" xlink:href="#font_0_145" transform="matrix(6,0,0,-6,36.955804,139.72409)" fill="#58595b"/>
<use data-text="e" xlink:href="#font_0_156" transform="matrix(6,0,0,-6,40.399805,139.72409)" fill="#58595b"/>
<use data-text="r" xlink:href="#font_0_221" transform="matrix(6,0,0,-6,43.5438,139.72409)" fill="#58595b"/>
<use data-text="a" xlink:href="#font_0_133" transform="matrix(6,0,0,-6,45.529199,139.72409)" fill="#58595b"/>
<use data-text="t" xlink:href="#font_0_232" transform="matrix(6,0,0,-6,48.535196,139.72409)" fill="#58595b"/>
<use data-text="e" xlink:href="#font_0_156" transform="matrix(6,0,0,-6,50.683198,139.72409)" fill="#58595b"/>
<use data-text="n" xlink:href="#font_0_199" transform="matrix(6,0,0,-6,53.827196,139.72409)" fill="#58595b"/>
<use data-text=" " xlink:href="#font_0_1" transform="matrix(6,0,0,-6,57.163194,139.72409)" fill="#58595b"/>
<use data-text="w" xlink:href="#font_0_249" transform="matrix(6,0,0,-6,58.411195,139.72409)" fill="#58595b"/>
<use data-text="i" xlink:href="#font_0_176" transform="matrix(6,0,0,-6,63.05519,139.72409)" fill="#58595b"/>
<use data-text="r" xlink:href="#font_0_221" transform="matrix(6,0,0,-6,64.47119,139.72409)" fill="#58595b"/>
<use data-text=" " xlink:href="#font_0_1" transform="matrix(6,0,0,-6,66.41519,139.72409)" fill="#58595b"/>
<use data-text="S" xlink:href="#font_0_91" transform="matrix(6,0,0,-6,67.74719,139.72409)" fill="#58595b"/>
<use data-text="i" xlink:href="#font_0_176" transform="matrix(6,0,0,-6,70.951198,139.72409)" fill="#58595b"/>
<use data-text="e" xlink:href="#font_0_156" transform="matrix(6,0,0,-6,72.367198,139.72409)" fill="#58595b"/>
<use data-text=" " xlink:href="#font_0_1" transform="matrix(6,0,0,-6,75.51119,139.72409)" fill="#58595b"/>
<use data-text="g" xlink:href="#font_0_168" transform="matrix(6,0,0,-6,76.84319,139.72409)" fill="#58595b"/>
<use data-text="e" xlink:href="#font_0_156" transform="matrix(6,0,0,-6,80.311199,139.72409)" fill="#58595b"/>
<use data-text="r" xlink:href="#font_0_221" transform="matrix(6,0,0,-6,83.45519,139.72409)" fill="#58595b"/>
<use data-text="n" xlink:href="#font_0_199" transform="matrix(6,0,0,-6,85.54319,139.72409)" fill="#58595b"/>
<use data-text="e" xlink:href="#font_0_156" transform="matrix(6,0,0,-6,88.87919,139.72409)" fill="#58595b"/>
<use data-text=":" xlink:href="#font_0_342" transform="matrix(6,0,0,-6,92.023189,139.72409)" fill="#58595b"/>
<use data-text="M" xlink:href="#font_0_65" transform="matrix(6,0,0,-6,19.837801,154.12409)" fill="#58595b"/>
<use data-text="o" xlink:href="#font_0_206" transform="matrix(6,0,0,-6,24.5538,154.12409)" fill="#58595b"/>
<use data-text="n" xlink:href="#font_0_199" transform="matrix(6,0,0,-6,27.8958,154.12409)" fill="#58595b"/>
<use data-text="t" xlink:href="#font_0_232" transform="matrix(6,0,0,-6,31.201804,154.12409)" fill="#58595b"/>
<use data-text="a" xlink:href="#font_0_133" transform="matrix(6,0,0,-6,33.397806,154.12409)" fill="#58595b"/>
<use data-text="g" xlink:href="#font_0_168" transform="matrix(6,0,0,-6,36.439805,154.12409)" fill="#58595b"/>
<use data-text=" " xlink:href="#font_0_1" transform="matrix(6,0,0,-6,39.907808,154.12409)" fill="#58595b"/>
<use data-text="b" xlink:href="#font_0_145" transform="matrix(6,0,0,-6,41.239809,154.12409)" fill="#58595b"/>
<use data-text="i" xlink:href="#font_0_176" transform="matrix(6,0,0,-6,44.683809,154.12409)" fill="#58595b"/>
<use data-text="s" xlink:href="#font_0_225" transform="matrix(6,0,0,-6,46.099809,154.12409)" fill="#58595b"/>
<use data-text=" " xlink:href="#font_0_1" transform="matrix(6,0,0,-6,48.685808,154.12409)" fill="#58595b"/>
<use data-text="F" xlink:href="#font_0_35" transform="matrix(6,0,0,-6,50.017808,154.12409)" fill="#58595b"/>
<use data-text="r" xlink:href="#font_0_221" transform="matrix(6,0,0,-6,53.24521,154.12409)" fill="#58595b"/>
<use data-text="e" xlink:href="#font_0_156" transform="matrix(6,0,0,-6,55.225206,154.12409)" fill="#58595b"/>
<use data-text="i" xlink:href="#font_0_176" transform="matrix(6,0,0,-6,58.3692,154.12409)" fill="#58595b"/>
<use data-text="t" xlink:href="#font_0_232" transform="matrix(6,0,0,-6,59.785203,154.12409)" fill="#58595b"/>
<use data-text="a" xlink:href="#font_0_133" transform="matrix(6,0,0,-6,61.9812,154.12409)" fill="#58595b"/>
<use data-text="g" xlink:href="#font_0_168" transform="matrix(6,0,0,-6,65.0232,154.12409)" fill="#58595b"/>
<use data-text=" " xlink:href="#font_0_1" transform="matrix(6,0,0,-6,68.4912,154.12409)" fill="#58595b"/>
<use data-text="v" xlink:href="#font_0_248" transform="matrix(6,0,0,-6,69.7152,154.12409)" fill="#58595b"/>
<use data-text="o" xlink:href="#font_0_206" transform="matrix(6,0,0,-6,72.7032,154.12409)" fill="#58595b"/>
<use data-text="n" xlink:href="#font_0_199" transform="matrix(6,0,0,-6,76.045207,154.12409)" fill="#58595b"/>
<use data-text=" " xlink:href="#font_0_1" transform="matrix(6,0,0,-6,79.3812,154.12409)" fill="#58595b"/>
<use data-text="8" xlink:href="#font_0_283" transform="matrix(6,0,0,-6,80.7132,154.12409)" fill="#58595b"/>
<use data-text=" " xlink:href="#font_0_1" transform="matrix(6,0,0,-6,84.073207,154.12409)" fill="#58595b"/>
<use data-text="b" xlink:href="#font_0_145" transform="matrix(6,0,0,-6,85.405208,154.12409)" fill="#58595b"/>
<use data-text="i" xlink:href="#font_0_176" transform="matrix(6,0,0,-6,88.849208,154.12409)" fill="#58595b"/>
<use data-text="s" xlink:href="#font_0_225" transform="matrix(6,0,0,-6,90.265209,154.12409)" fill="#58595b"/>
<use data-text=" " xlink:href="#font_0_1" transform="matrix(6,0,0,-6,92.851207,154.12409)" fill="#58595b"/>
<use data-text="2" xlink:href="#font_0_277" transform="matrix(6,0,0,-6,94.183208,154.12409)" fill="#58595b"/>
<use data-text="0" xlink:href="#font_0_275" transform="matrix(6,0,0,-6,97.543209,154.12409)" fill="#58595b"/>
<use data-text=" " xlink:href="#font_0_1" transform="matrix(6,0,0,-6,100.9032,154.12409)" fill="#58595b"/>
<use data-text="U" xlink:href="#font_0_104" transform="matrix(6,0,0,-6,102.2352,154.12409)" fill="#58595b"/>
<use data-text="h" xlink:href="#font_0_173" transform="matrix(6,0,0,-6,106.260608,154.12409)" fill="#58595b"/>
<use data-text="r" xlink:href="#font_0_221" transform="matrix(6,0,0,-6,109.566608,154.12409)" fill="#58595b"/>
<use data-text="V" xlink:href="#font_0_115" transform="matrix(6,0,0,-6,19.837801,168.5241)" fill="#58595b"/>
<use data-text="e" xlink:href="#font_0_156" transform="matrix(6,0,0,-6,23.245802,168.5241)" fill="#58595b"/>
<use data-text="r" xlink:href="#font_0_221" transform="matrix(6,0,0,-6,26.389803,168.5241)" fill="#58595b"/>
<use data-text="e" xlink:href="#font_0_156" transform="matrix(6,0,0,-6,28.369803,168.5241)" fill="#58595b"/>
<use data-text="i" xlink:href="#font_0_176" transform="matrix(6,0,0,-6,31.513804,168.5241)" fill="#58595b"/>
<use data-text="n" xlink:href="#font_0_199" transform="matrix(6,0,0,-6,32.929803,168.5241)" fill="#58595b"/>
<use data-text="b" xlink:href="#font_0_145" transform="matrix(6,0,0,-6,36.26581,168.5241)" fill="#58595b"/>
<use data-text="a" xlink:href="#font_0_133" transform="matrix(6,0,0,-6,39.70981,168.5241)" fill="#58595b"/>
<use data-text="r" xlink:href="#font_0_221" transform="matrix(6,0,0,-6,42.75181,168.5241)" fill="#58595b"/>
<use data-text="e" xlink:href="#font_0_156" transform="matrix(6,0,0,-6,44.73121,168.5241)" fill="#58595b"/>
<use data-text="n" xlink:href="#font_0_199" transform="matrix(6,0,0,-6,47.875207,168.5241)" fill="#58595b"/>
<use data-text=" " xlink:href="#font_0_1" transform="matrix(6,0,0,-6,51.211206,168.5241)" fill="#58595b"/>
<use data-text="S" xlink:href="#font_0_91" transform="matrix(6,0,0,-6,52.543207,168.5241)" fill="#58595b"/>
<use data-text="i" xlink:href="#font_0_176" transform="matrix(6,0,0,-6,55.747209,168.5241)" fill="#58595b"/>
<use data-text="e" xlink:href="#font_0_156" transform="matrix(6,0,0,-6,57.163209,168.5241)" fill="#58595b"/>
<use data-text=" " xlink:href="#font_0_1" transform="matrix(6,0,0,-6,60.307207,168.5241)" fill="#58595b"/>
<use data-text="e" xlink:href="#font_0_156" transform="matrix(6,0,0,-6,61.639207,168.5241)" fill="#58595b"/>
<use data-text="i" xlink:href="#font_0_176" transform="matrix(6,0,0,-6,64.7832,168.5241)" fill="#58595b"/>
<use data-text="n" xlink:href="#font_0_199" transform="matrix(6,0,0,-6,66.1992,168.5241)" fill="#58595b"/>
<use data-text="e" xlink:href="#font_0_156" transform="matrix(6,0,0,-6,69.5352,168.5241)" fill="#58595b"/>
<use data-text="n" xlink:href="#font_0_199" transform="matrix(6,0,0,-6,72.6792,168.5241)" fill="#58595b"/>
<use data-text=" " xlink:href="#font_0_1" transform="matrix(6,0,0,-6,76.0152,168.5241)" fill="#58595b"/>
<use data-text="T" xlink:href="#font_0_99" transform="matrix(6,0,0,-6,77.166599,168.5241)" fill="#58595b"/>
<use data-text="e" xlink:href="#font_0_156" transform="matrix(6,0,0,-6,79.9266,168.5241)" fill="#58595b"/>
<use data-text="r" xlink:href="#font_0_221" transform="matrix(6,0,0,-6,83.070598,168.5241)" fill="#58595b"/>
<use data-text="m" xlink:href="#font_0_198" transform="matrix(6,0,0,-6,85.15859,168.5241)" fill="#58595b"/>
<use data-text="i" xlink:href="#font_0_176" transform="matrix(6,0,0,-6,89.89859,168.5241)" fill="#58595b"/>
<use data-text="n" xlink:href="#font_0_199" transform="matrix(6,0,0,-6,91.31459,168.5241)" fill="#58595b"/>
<use data-text=" " xlink:href="#font_0_1" transform="matrix(6,0,0,-6,94.65059,168.5241)" fill="#58595b"/>
<use data-text="m" xlink:href="#font_0_198" transform="matrix(6,0,0,-6,95.98259,168.5241)" fill="#58595b"/>
<use data-text="i" xlink:href="#font_0_176" transform="matrix(6,0,0,-6,100.722599,168.5241)" fill="#58595b"/>
<use data-text="t" xlink:href="#font_0_232" transform="matrix(6,0,0,-6,102.138599,168.5241)" fill="#58595b"/>
<use data-text=" " xlink:href="#font_0_1" transform="matrix(6,0,0,-6,104.334598,168.5241)" fill="#58595b"/>
<use data-text="u" xlink:href="#font_0_237" transform="matrix(6,0,0,-6,105.666599,168.5241)" fill="#58595b"/>
<use data-text="n" xlink:href="#font_0_199" transform="matrix(6,0,0,-6,108.95459,168.5241)" fill="#58595b"/>
<use data-text="s" xlink:href="#font_0_225" transform="matrix(6,0,0,-6,112.29059,168.5241)" fill="#58595b"/>
<use data-text="!" xlink:href="#font_0_345" transform="matrix(6,0,0,-6,114.87659,168.5241)" fill="#58595b"/>
<use data-text="w" xlink:href="#font_0_249" transform="matrix(6,0,0,-6,19.837801,220.81409)" fill="#58595b"/>
<use data-text="w" xlink:href="#font_0_249" transform="matrix(6,0,0,-6,24.481802,220.81409)" fill="#58595b"/>
<use data-text="w" xlink:href="#font_0_249" transform="matrix(6,0,0,-6,29.125803,220.81409)" fill="#58595b"/>
<use data-text="." xlink:href="#font_0_340" transform="matrix(6,0,0,-6,33.535806,220.81409)" fill="#58595b"/>
<use data-text="h" xlink:href="#font_0_173" transform="matrix(6,0,0,-6,34.867807,220.81409)" fill="#58595b"/>
<use data-text="d" xlink:href="#font_0_152" transform="matrix(6,0,0,-6,38.173807,220.81409)" fill="#58595b"/>
<use data-text="h" xlink:href="#font_0_173" transform="matrix(6,0,0,-6,41.701807,220.81409)" fill="#58595b"/>
<use data-text="-" xlink:href="#font_0_361" transform="matrix(6,0,0,-6,45.007806,220.81409)" fill="#58595b"/>
<use data-text="v" xlink:href="#font_0_248" transform="matrix(6,0,0,-6,47.725809,220.81409)" fill="#58595b"/>
<use data-text="o" xlink:href="#font_0_206" transform="matrix(6,0,0,-6,50.713205,220.81409)" fill="#58595b"/>
<use data-text="b" xlink:href="#font_0_145" transform="matrix(6,0,0,-6,54.055208,220.81409)" fill="#58595b"/>
<use data-text="a" xlink:href="#font_0_133" transform="matrix(6,0,0,-6,57.499208,220.81409)" fill="#58595b"/>
<use data-text="." xlink:href="#font_0_340" transform="matrix(6,0,0,-6,60.541208,220.81409)" fill="#58595b"/>
<use data-text="d" xlink:href="#font_0_152" transform="matrix(6,0,0,-6,61.807207,220.81409)" fill="#58595b"/>
<use data-text="e" xlink:href="#font_0_156" transform="matrix(6,0,0,-6,65.335208,220.81409)" fill="#58595b"/>
<use data-text="M" xlink:href="#font_0_65" transform="matrix(6,0,0,-6,22.669802,53.78009)" fill="#58595b"/>
<use data-text="o" xlink:href="#font_0_206" transform="matrix(6,0,0,-6,27.385802,53.78009)" fill="#58595b"/>
<use data-text="9" xlink:href="#font_0_284" transform="matrix(6,0,0,-6,43.3638,53.78009)" fill="#58595b"/>
<use data-text=" " xlink:href="#font_0_1" transform="matrix(6,0,0,-6,46.7238,53.78009)" fill="#58595b"/>
<use data-text="-" xlink:href="#font_0_361" transform="matrix(6,0,0,-6,48.0558,53.78009)" fill="#58595b"/>
<use data-text=" " xlink:href="#font_0_1" transform="matrix(6,0,0,-6,50.773805,53.78009)" fill="#58595b"/>
<use data-text="1" xlink:href="#font_0_276" transform="matrix(6,0,0,-6,52.105806,53.78009)" fill="#58595b"/>
<use data-text="2" xlink:href="#font_0_277" transform="matrix(6,0,0,-6,55.465806,53.78009)" fill="#58595b"/>
<use data-text=" " xlink:href="#font_0_1" transform="matrix(6,0,0,-6,58.825807,53.78009)" fill="#58595b"/>
<use data-text="U" xlink:href="#font_0_104" transform="matrix(6,0,0,-6,60.157808,53.78009)" fill="#58595b"/>
<use data-text="h" xlink:href="#font_0_173" transform="matrix(6,0,0,-6,64.183208,53.78009)" fill="#58595b"/>
<use data-text="r" xlink:href="#font_0_221" transform="matrix(6,0,0,-6,67.489208,53.78009)" fill="#58595b"/>
<use data-text="u" xlink:href="#font_0_237" transform="matrix(6,0,0,-6,82.483798,53.78009)" fill="#58595b"/>
<use data-text="n" xlink:href="#font_0_199" transform="matrix(6,0,0,-6,85.7718,53.78009)" fill="#58595b"/>
<use data-text="d" xlink:href="#font_0_152" transform="matrix(6,0,0,-6,89.107799,53.78009)" fill="#58595b"/>
<use data-text="1" xlink:href="#font_0_276" transform="matrix(6,0,0,-6,101.4738,53.78009)" fill="#58595b"/>
<use data-text="4" xlink:href="#font_0_279" transform="matrix(6,0,0,-6,104.8338,53.78009)" fill="#58595b"/>
<use data-text=" " xlink:href="#font_0_1" transform="matrix(6,0,0,-6,108.1938,53.78009)" fill="#58595b"/>
<use data-text="-" xlink:href="#font_0_361" transform="matrix(6,0,0,-6,109.5258,53.78009)" fill="#58595b"/>
<use data-text=" " xlink:href="#font_0_1" transform="matrix(6,0,0,-6,112.243808,53.78009)" fill="#58595b"/>
<use data-text="1" xlink:href="#font_0_276" transform="matrix(6,0,0,-6,113.575809,53.78009)" fill="#58595b"/>
<use data-text="7" xlink:href="#font_0_282" transform="matrix(6,0,0,-6,116.93581,53.78009)" fill="#58595b"/>
<use data-text=" " xlink:href="#font_0_1" transform="matrix(6,0,0,-6,120.29581,53.78009)" fill="#58595b"/>
<use data-text="U" xlink:href="#font_0_104" transform="matrix(6,0,0,-6,121.62781,53.78009)" fill="#58595b"/>
<use data-text="h" xlink:href="#font_0_173" transform="matrix(6,0,0,-6,125.65321,53.78009)" fill="#58595b"/>
<use data-text="r" xlink:href="#font_0_221" transform="matrix(6,0,0,-6,128.95922,53.78009)" fill="#58595b"/>
<use data-text="M" xlink:href="#font_0_65" transform="matrix(6,0,0,-6,22.669798,65.12009)" fill="#58595b"/>
<use data-text="i" xlink:href="#font_0_176" transform="matrix(6,0,0,-6,27.4158,65.12009)" fill="#58595b"/>
<use data-text="9" xlink:href="#font_0_284" transform="matrix(6,0,0,-6,43.3638,65.12009)" fill="#58595b"/>
<use data-text=" " xlink:href="#font_0_1" transform="matrix(6,0,0,-6,46.7238,65.12009)" fill="#58595b"/>
<use data-text="-" xlink:href="#font_0_361" transform="matrix(6,0,0,-6,48.0558,65.12009)" fill="#58595b"/>
<use data-text=" " xlink:href="#font_0_1" transform="matrix(6,0,0,-6,50.773805,65.12009)" fill="#58595b"/>
<use data-text="1" xlink:href="#font_0_276" transform="matrix(6,0,0,-6,52.105806,65.12009)" fill="#58595b"/>
<use data-text="4" xlink:href="#font_0_279" transform="matrix(6,0,0,-6,55.465806,65.12009)" fill="#58595b"/>
<use data-text=":" xlink:href="#font_0_342" transform="matrix(6,0,0,-6,58.825807,65.12009)" fill="#58595b"/>
<use data-text="3" xlink:href="#font_0_278" transform="matrix(6,0,0,-6,60.325807,65.12009)" fill="#58595b"/>
<use data-text="0" xlink:href="#font_0_275" transform="matrix(6,0,0,-6,63.685808,65.12009)" fill="#58595b"/>
<use data-text=" " xlink:href="#font_0_1" transform="matrix(6,0,0,-6,67.04581,65.12009)" fill="#58595b"/>
<use data-text="U" xlink:href="#font_0_104" transform="matrix(6,0,0,-6,68.37781,65.12009)" fill="#58595b"/>
<use data-text="h" xlink:href="#font_0_173" transform="matrix(6,0,0,-6,72.403209,65.12009)" fill="#58595b"/>
<use data-text="r" xlink:href="#font_0_221" transform="matrix(6,0,0,-6,75.709209,65.12009)" fill="#58595b"/>
<use data-text="F" xlink:href="#font_0_35" transform="matrix(6,0,0,-6,22.669798,76.46008)" fill="#58595b"/>
<use data-text="r" xlink:href="#font_0_221" transform="matrix(6,0,0,-6,25.897799,76.46008)" fill="#58595b"/>
<use data-text="9" xlink:href="#font_0_284" transform="matrix(6,0,0,-6,43.3638,76.46008)" fill="#58595b"/>
<use data-text=" " xlink:href="#font_0_1" transform="matrix(6,0,0,-6,46.7238,76.46008)" fill="#58595b"/>
<use data-text="-" xlink:href="#font_0_361" transform="matrix(6,0,0,-6,48.0558,76.46008)" fill="#58595b"/>
<use data-text=" " xlink:href="#font_0_1" transform="matrix(6,0,0,-6,50.773805,76.46008)" fill="#58595b"/>
<use data-text="1" xlink:href="#font_0_276" transform="matrix(6,0,0,-6,52.105806,76.46008)" fill="#58595b"/>
<use data-text="2" xlink:href="#font_0_277" transform="matrix(6,0,0,-6,55.465806,76.46008)" fill="#58595b"/>
<use data-text=" " xlink:href="#font_0_1" transform="matrix(6,0,0,-6,58.825807,76.46008)" fill="#58595b"/>
<use data-text="U" xlink:href="#font_0_104" transform="matrix(6,0,0,-6,60.157808,76.46008)" fill="#58595b"/>
<use data-text="h" xlink:href="#font_0_173" transform="matrix(6,0,0,-6,64.183208,76.46008)" fill="#58595b"/>
<use data-text="r" xlink:href="#font_0_221" transform="matrix(6,0,0,-6,67.489208,76.46008)" fill="#58595b"/>
<path transform="matrix(1,0,0,-1,-6.004799,-.0047912599)" stroke-width="1.25" stroke-linecap="butt" stroke-miterlimit="10" stroke-linejoin="miter" fill="none" stroke="#ffffff" d="M0 0H-15M167.906 0H182.906M0-240.945H-15M167.906-240.945H182.906M6 6V21M6-246.945V-261.945M161.906 6V21M161.906-246.945V-261.945"/>
<path transform="matrix(1,0,0,-1,-6.004799,-.0047912599)" stroke-width=".25" stroke-linecap="butt" stroke-miterlimit="10" stroke-linejoin="miter" fill="none" stroke="#000000" d="M0 0H-15M167.906 0H182.906M0-240.945H-15M167.906-240.945H182.906M6 6V21M6-246.945V-261.945M161.906 6V21M161.906-246.945V-261.945"/>
<g clip-path="url(#clip_1)">
<path transform="matrix(1,0,0,-1,-11.508699,-8.508789)" stroke-width="1.25" stroke-linecap="butt" stroke-miterlimit="10" stroke-linejoin="miter" fill="none" stroke="#ffffff" d="M0 0H-18M178.913 0H196.913M0-257.953H-18M178.913-257.953H196.913M3 3V21M3-260.953V-278.953M175.913 3V21M175.913-260.953V-278.953"/>
<path transform="matrix(1,0,0,-1,-11.508699,-8.508789)" stroke-width=".25" stroke-linecap="butt" stroke-miterlimit="10" stroke-linejoin="miter" fill="none" stroke="#000000" d="M0 0H-18M178.913 0H196.913M0-257.953H-18M178.913-257.953H196.913M3 3V21M3-260.953V-278.953M175.913 3V21M175.913-260.953V-278.953"/>
</g>
</svg>
