<svg xmlns="http://www.w3.org/2000/svg" xmlns:xlink="http://www.w3.org/1999/xlink" version="1.1" width="193.89px" height="303.307px"  viewBox="0 0 155.95 240.99">

<defs>
<clipPath id="clip_0">
<path transform="matrix(1,0,0,-1,-29.4803,270.4703)" d="M29.48 29.48H185.43V270.47H29.48Z"/>
</clipPath>
<clipPath id="clip_1">
<path transform="matrix(.24,0,0,-.24,-29.4803,270.4703)" d="M122.836 122.836H772.637V1126.9761H122.836Z"/>
</clipPath>
<path id="font_2_65" d="M.70899966 .66999819 .7489929 0H.6119995L.59199526 .46200563H.5890045L.45500184 .083999637H.34300233L.21000672 .46099855H.20700073L.18600464 0H.050994874L.09100342 .66999819H.2590027L.39900209 .2669983H.40400697L.54600527 .66999819H.70899966Z"/>
<path id="font_2_156" d="M.4900055 .24908448C.4900055 .23242188 .48866783 .21642559 .48599244 .20109558H.15899658C.16233318 .1703949 .17449951 .1457011 .1954956 .12701416 .21650188 .1083374 .2450053 .09899902 .28100587 .09899902 .33500163 .09899902 .38233439 .11634827 .42300416 .15104676L.4810028 .0630188C.4583384 .039683027 .4295044 .0211792 .39450074 .007507324 .35949708-.006164551 .32099916-.013000488 .27900697-.013000488 .20033264-.013000488 .139328 .009999593 .09599304 .055999757 .052668256 .101999919 .03100586 .16499837 .03100586 .24499512 .03100586 .29433189 .04100545 .33833314 .06100464 .3769989 .08100382 .41566468 .10883585 .4458313 .14450073 .46749879 .1801656 .48916627 .22099813 .5 .2669983 .5 .31166587 .5 .35083009 .4896698 .38449098 .4690094 .41816203 .448349 .444163 .4190216 .4624939 .38102723 .48083497 .343043 .4900055 .2990621 .4900055 .24908448M.26600648 .39300538C.2353363 .39300538 .21083069 .3835093 .19248963 .3645172 .17415874 .34553529 .16299439 .3200582 .15899658 .28808595H.36799623C.3646698 .32139079 .35417176 .34720359 .33650209 .3655243 .3188324 .383845 .29533387 .39300538 .26600648 .39300538Z"/>
<path id="font_2_176" d="M.12399292 .5566406C.10132853 .5566406 .08233134 .5638072 .06700134 .57814028 .051671346 .5924733 .044006349 .6109721 .044006349 .6336365 .044006349 .65563967 .051671346 .67397567 .06700134 .6886444 .08233134 .7033132 .10132853 .7106476 .12399292 .7106476 .14732869 .7106476 .16649373 .703481 .18148804 .68914797 .19649251 .6748149 .20399475 .65631106 .20399475 .6336365 .20399475 .6109721 .19649251 .5924733 .18148804 .57814028 .16649373 .5638072 .14732869 .5566406 .12399292 .5566406M.18899536 0H.059005739V.4869995H.18899536V0Z"/>
<path id="font_2_199" d="M.32699586 .5C.37833659 .5 .41967265 .48266603 .45100404 .44799806 .48233543 .41333009 .4980011 .36732994 .4980011 .30999757V0H.36799623V.29400636C.36799623 .31933595 .35982768 .34033204 .3434906 .35699464 .3271637 .3736674 .30599977 .38200379 .27999879 .38200379 .2553304 .38200379 .23482768 .3736674 .2184906 .35699464 .2021637 .34033204 .19400025 .31933595 .19400025 .29400636V0H.06399536V.272995L.042999269 .4869995H.16000366L.16700745 .41099549H.16999817C.18333435 .43966166 .20350139 .46165977 .23049927 .47698976 .25749717 .49232994 .2896627 .5 .32699586 .5Z"/>
<path id="font_2_1" d="M0 0Z"/>
<path id="font_2_57" d="M.6399994 0H.47000123L.272995 .27900697 .20599365 .20300293V0H.069000247V.66999819H.20599365V.38000489L.45199586 .6699219H.6199951L.36999513 .37295533 .6399994 0Z"/>
<path id="font_2_206" d="M.02999878 .24499512C.02999878 .29433189 .040166219 .33833314 .0605011 .3769989 .080835979 .41566468 .109670009 .4458313 .14700318 .46749879 .18433635 .48916627 .22733562 .5 .27600099 .5 .32466636 .5 .36783348 .48916627 .40550233 .46749879 .44317118 .4458313 .47216798 .41566468 .49249269 .3769989 .5128276 .33833314 .522995 .29433189 .522995 .24499512 .522995 .19566854 .5126597 .15133667 .49198915 .11199951 .47132875 .07266235 .44233195 .041992189 .40499879 .019989014 .36766563-.0020039876 .32466636-.013000488 .27600099-.013000488 .22733562-.013000488 .18433635-.0020039876 .14700318 .019989014 .109670009 .041992189 .080835979 .07249451 .0605011 .11149597 .040166219 .15049744 .02999878 .19499715 .02999878 .24499512M.38900758 .2440033C.38900758 .28666688 .37917076 .32099916 .35949708 .34700013 .3398336 .3730011 .31200157 .3860016 .27600099 .3860016 .2406718 .3860016 .21317037 .3730011 .1934967 .34700013 .1738332 .32099916 .16400147 .28666688 .16400147 .2440033 .16400147 .20133972 .1738332 .16733806 .1934967 .14199829 .21317037 .1166687 .2406718 .104003909 .27600099 .104003909 .31200157 .104003909 .3398336 .1166687 .35949708 .14199829 .37917076 .16733806 .38900758 .20133972 .38900758 .2440033Z"/>
<path id="font_2_232" d="M.36999513 .018997193C.33733116-.0010019938 .29900108-.011001587 .25500489-.011001587 .20300293-.011001587 .16233318 .0034993489 .1329956 .03250122 .10366821 .061503095 .08900452 .102005008 .08900452 .15400696V.3730011H.01600647V.4869995H.08900452V.6179962H.21899414V.4869995H.3639984V.3730011H.21899414V.17100525C.21899414 .14967346 .22432964 .13350423 .23500061 .12249756 .24567159 .11150106 .26133729 .10600281 .28199769 .10600281 .30000306 .10600281 .31800334 .111333217 .33599855 .12199402L.36999513 .018997193Z"/>
<path id="font_2_133" d="M.46400453 0H.34899903L.34100343 .07899475H.33799745C.32666526 .05032857 .30733238 .027826945 .27999879 .011489868 .2526652-.004837036 .22066753-.013000488 .18400574-.013000488 .13800557-.013000488 .10100301 .00017293294 .07299805 .026519776 .045003255 .05287679 .03100586 .08740743 .03100586 .1301117 .03100586 .17747498 .047836305 .21466573 .08149719 .24168396 .11516825 .26871238 .16166687 .28222657 .22099304 .28222657 .2543284 .28222657 .28599549 .27789308 .31599427 .26922608V.30317689C.31599427 .3304596 .30882774 .35191856 .29449464 .3675537 .28016154 .38318888 .2603302 .39100648 .23500061 .39100648 .19033306 .39100648 .15833538 .37005107 .13900757 .32814027L.041000368 .3791046C.05700175 .41773988 .082336429 .44754539 .117004398 .46852113 .15167237 .48950706 .19333904 .5 .2420044 .5 .30599977 .5 .3559977 .48266603 .3919983 .44799806 .42799888 .41333009 .44599916 .36499534 .44599916 .30299378V.20599365L.46400453 0M.21499634 .085998538C.24433391 .085998538 .26849876 .09535217 .28749085 .11405945 .30649314 .13276673 .31599427 .15681966 .31599427 .18621826 .2899933 .19356282 .2626597 .1972351 .23399353 .1972351 .20866394 .1972351 .1888326 .19222515 .17449951 .1822052 .16016643 .17218526 .15299988 .15815227 .15299988 .1401062 .15299988 .1227417 .15833028 .10938009 .16899109 .10002136 .17966207 .09067281 .19499715 .085998538 .21499634 .085998538Z"/>
<path id="font_2_190" d="M.3650055 0 .2400055 .18899536 .18899536 .14900208V0H.059005739V.69799807H.18899536V.28399659C.23966472 .32599894 .2769979 .35899864 .30099488 .3829956 .32500205 .40700279 .34083558 .42617289 .34849549 .44050599 .35616557 .45483909 .3606669 .4703369 .3619995 .4869995H.4960022C.4946696 .46300254 .4903361 .44167076 .4830017 .42300416 .47566734 .40433757 .46149699 .38200379 .44049073 .3560028 .41949464 .33000184 .3873291 .29733277 .34399415 .2579956L.5249939 0H.3650055Z"/>
<path id="font_2_152" d="M.5359955 0H.41999818L.41200257 .08200073H.40899659C.3963318 .051330568 .37650047 .027826945 .34950257 .011489868 .32250468-.004837036 .28933717-.013000488 .25-.013000488 .20533245-.013000488 .16649883-.002670288 .13349915 .017990113 .10049947 .038660688 .075164798 .067830409 .057495119 .10549927 .039835615 .14316814 .03100586 .18700154 .03100586 .23699951 .03100586 .28766886 .04100545 .33283488 .06100464 .37249757 .08100382 .4121704 .109166469 .44333903 .14549256 .46600343 .18182881 .48866783 .22366333 .5 .2709961 .5 .31433106 .5 .35266624 .49066673 .3860016 .47200013V.69799807H.51600649V.21800232L.5359955 0M.28100587 .102996829C.31033326 .102996829 .3351644 .11233012 .35549928 .1309967 .37583415 .14966329 .3860016 .17332967 .3860016 .20199585V.352005C.3620046 .37600199 .32933555 .3880005 .28799439 .3880005 .24932862 .3880005 .21916199 .3746643 .1974945 .34799195 .17582703 .32132975 .16499329 .28633119 .16499329 .24299622 .16499329 .20033264 .17516072 .16633098 .1954956 .14099121 .21583049 .11566162 .24433391 .102996829 .28100587 .102996829Z"/>
<path id="font_3_55" d="M.19900513-.013000488C.11300659-.013000488 .048670453 .020665488 .005996704 .08799744L.06500244 .147995C.07967123 .124669399 .097335819 .1063385 .117996219 .09300232 .1386668 .07966614 .16566976 .07299805 .19900513 .07299805 .23966472 .07299805 .2726593 .08583069 .2979889 .11149597 .32332865 .13716126 .33599855 .17499288 .33599855 .22499085V.66999819H.42599488V.21600342C.42599488 .14333089 .40549217 .086995448 .3644867 .04699707 .32349143 .0069986979 .2683309-.013000488 .19900513-.013000488Z"/>
<path id="font_3_156" d="M.4850006 .24787903C.4850006 .23321025 .48433433 .22187297 .4830017 .21386719H.12800598C.12933858 .17124431 .14316814 .13577779 .16949463 .10746765 .1958313 .07915751 .23399861 .06500244 .28399659 .06500244 .31333415 .06500244 .34100343 .07032776 .3670044 .08097839 .39300538 .0916392 .41500346 .105295818 .43299867 .12194824L.4750061 .05996704C.45233155 .03797404 .42432658 .020314536 .3909912 .0069885256 .35766603-.006337484 .32167054-.013000488 .28300477-.013000488 .20500183-.013000488 .14516704 .009999593 .103500369 .055999757 .0618337 .101999919 .041000368 .16366577 .041000368 .24099732 .041000368 .28900147 .05033366 .33216859 .069000247 .37049867 .08766683 .40882875 .11399841 .4388275 .147995 .460495 .18200176 .48216249 .22133892 .49299623 .26600648 .49299623 .31000266 .49299623 .34866844 .48265586 .38200379 .4619751 .41533915 .44130454 .44083659 .41246034 .4584961 .3754425 .47616578 .33842469 .4850006 .29590354 .4850006 .24787903M.2649994 .41900636C.22366841 .41900636 .19150289 .40566 .16850281 .3789673 .14550273 .35227458 .13200379 .31957499 .12800598 .28086854H.40100099C.39700318 .3229116 .3833364 .3564453 .3600006 .38146974 .33666484 .40649415 .30499778 .41900636 .2649994 .41900636Z"/>
<path id="font_3_232" d="M.34700013 .40299989H.18600464V.14700318C.18600464 .121673587 .19233704 .102005008 .20500183 .08799744 .21766663 .07400004 .2363332 .06700134 .2610016 .06700134 .28233338 .06700134 .30366517 .07233175 .32499696 .08299255L.34700013 .011001587C.31766258-.0036671956 .2853292-.011001587 .25-.011001587 .20332845-.011001587 .16666158 .001663208 .13999939 .026992798 .1133372 .05233256 .1000061 .08833313 .1000061 .1349945V.40299989H.018997193V.47999574H.1000061V.6179962H.18600464V.47999574H.34700013V.40299989Z"/>
<path id="font_3_261" d="M.035003663 0V.070999149L.28300477 .3999939V.40299989H.04699707V.47999574H.39500428V.41099549L.15100098 .08200073V.07899475H.40299989V0H.035003663Z"/>
<path id="font_3_1" d="M0 0Z"/>
<path id="font_3_225" d="M.069000247 .11300659C.109670009 .080332439 .15800476 .06399536 .21400452 .06399536 .2426707 .06399536 .2646688 .06966146 .27999879 .08099365 .29532878 .092325847 .30299378 .10799154 .30299378 .12799073 .30299378 .14399211 .29816184 .15716045 .28849793 .16749573 .27883403 .17783101 .26400248 .18699646 .2440033 .19499207L.16200257 .22599793C.12399801 .24132793 .095830287 .25916038 .07749939 .27949525 .0591685 .2998301 .05000305 .32632957 .05000305 .35899354 .05000305 .3976593 .06433614 .42965699 .09300232 .45498658 .121668498 .48032633 .16100057 .49299623 .21099854 .49299623 .24767049 .49299623 .2811686 .48782859 .31149293 .4774933 .3418274 .467158 .36732994 .45299278 .3880005 .43499757L.3540039 .3710022C.33599855 .3849996 .3144938 .3963318 .28948976 .40499879 .26449586 .41366578 .23833211 .41799928 .21099854 .41799928 .18633016 .41799928 .16782634 .41283164 .15548706 .40249635 .14315796 .39216105 .13699341 .3789927 .13699341 .36299134 .13699341 .34700013 .14149475 .33467103 .15049744 .32600404 .15950012 .31733705 .17566936 .30867005 .19900513 .30000306L.2769928 .2689972C.31700135 .2536672 .3460032 .23549907 .3639984 .2144928 .38200379 .1934967 .39100648 .16566468 .39100648 .1309967 .39100648 .08700053 .3750051 .052001954 .34300233 .026000977 .31099955 0 .26800028-.013000488 .21400452-.013000488 .17599996-.013000488 .14116414-.0076700847 .10949707 .0029907227 .077829997 .013661702 .050999959 .027994791 .029006958 .04598999L.069000247 .11300659Z"/>
<path id="font_3_146" d="M.4149933 .3639984C.3816681 .39866639 .34033714 .41600038 .29100038 .41600038 .23899842 .41600038 .19899495 .3996633 .17098999 .36698915 .1429952 .33432517 .1289978 .29232789 .1289978 .24099732 .1289978 .18899536 .1426646 .14682515 .16999817 .114486698 .19733174 .08215841 .2363332 .06599426 .28700257 .06599426 .34366355 .06599426 .3876648 .08366394 .41900636 .119003299L.46499635 .056991579C.42166139 .0103302 .36166383-.013000488 .28500367-.013000488 .23500569-.013000488 .19167073-.002166748 .15499878 .019500733 .118337 .041168214 .09016927 .07133484 .070495609 .11000061 .05083211 .14866638 .041000368 .19233196 .041000368 .24099732 .041000368 .2896627 .051167806 .33299256 .071502689 .37098695 .09183756 .4089915 .12067159 .4388275 .15800476 .460495 .19533794 .48216249 .2386678 .49299623 .28799439 .49299623 .35866294 .49299623 .41600038 .46966554 .4600067 .42300416L.4149933 .3639984Z"/>
<path id="font_3_133" d="M.45100404 0H.375L.3659973 .09500122H.3630066C.3496704 .060333253 .32850138 .033665975 .2994995 .01499939 .27049766-.0036671956 .23499553-.013000488 .19299317-.013000488 .14833577-.013000488 .11250305-.00017293294 .085494998 .025482178 .058497114 .05114746 .04499817 .084981288 .04499817 .12698365 .04499817 .17363484 .061828615 .2101237 .0954895 .2364502 .12916057 .26278688 .17566426 .2759552 .23500061 .2759552 .27166239 .2759552 .30865989 .2709554 .34599305 .2609558V.30197145C.34599305 .33664958 .33632408 .3644918 .31698609 .38549806 .2976583 .4065043 .27199809 .41700746 .2400055 .41700746 .21133931 .41700746 .18750508 .41100566 .16850281 .39900209 .14950054 .3869985 .1333313 .3683268 .11999512 .34298707L.054992677 .37998963C.07099406 .4166616 .0951589 .44466148 .12748719 .46398927 .15982564 .48332725 .19832866 .49299623 .24299622 .49299623 .30233256 .49299623 .34883119 .47599284 .38249208 .44198609 .41616313 .4079895 .43299867 .36132813 .43299867 .30200196V.20500183L.45100404 0M.21299744 .06100464C.23699443 .06100464 .25916038 .06700134 .27949525 .07899475 .2998301 .09099833 .31599427 .107162479 .32798768 .12748719 .33999125 .14781189 .34599305 .16997274 .34599305 .19396973 .32933045 .19930013 .31299845 .20329793 .29699708 .20596314 .2809957 .20862834 .2619985 .20996094 .2400055 .20996094 .20466614 .20996094 .17732747 .2034607 .1579895 .1904602 .1386617 .1774699 .1289978 .15897624 .1289978 .13497925 .1289978 .08566284 .15699768 .06100464 .21299744 .06100464Z"/>
<path id="font_3_199" d="M.30799867 .49299623C.3620046 .49299623 .40533958 .47599284 .43800355 .44198609 .4706675 .4079895 .4869995 .36365763 .4869995 .30899049V0H.40100099V.30099488C.40100099 .33433024 .3899994 .36149598 .36799623 .38249208 .3460032 .40349833 .31767274 .41400147 .28300477 .41400147 .24966939 .41400147 .22183228 .40316773 .19949341 .38150025 .17716472 .35983277 .16600037 .33299766 .16600037 .30099488V0H.08000183V.2809906L.05999756 .47999574H.13699341L.14500427 .39900209H.14700318C.16100057 .42967225 .18183391 .45300294 .20950318 .46899415 .23717244 .4849955 .27000428 .49299623 .30799867 .49299623Z"/>
<path id="font_3_237" d="M.4880066 0H.41099549L.40299989 .08099365H.40100099C.38700358 .05033366 .36650086 .02700297 .3394928 .011001587 .3124949-.0049997966 .28032939-.013000488 .24299622-.013000488 .19099427-.013000488 .14882405 .0039978029 .116485599 .037994386 .08415731 .07200114 .067993167 .1160024 .067993167 .16999817V.47999574H.15400696V.17799378C.15400696 .14532979 .164505 .11849467 .1855011 .0974884 .20649719 .07649231 .23399861 .06599426 .26800538 .06599426 .30066935 .06599426 .32783509 .076660159 .34950257 .09799194 .37117005 .11932373 .38200379 .14599101 .38200379 .17799378V.47999574H.46800233V.19999695L.4880066 0Z"/>
<path id="font_3_152" d="M.5279999 0H.45199586L.44299317 .09599304H.44000245C.42600505 .06199646 .4041697 .03532918 .37449647 .015991211 .34483338-.0033365887 .30800376-.013000488 .26400758-.013000488 .2180074-.013000488 .1781718-.0025024415 .14450073 .018493653 .11082967 .03949992 .0851593 .06866964 .067489627 .10600281 .04983012 .14333599 .041000368 .18633525 .041000368 .23500061 .041000368 .28366599 .050664266 .32766215 .069992069 .36698915 .08933004 .4063263 .116999309 .4371592 .15299988 .45948792 .18900045 .48182679 .23066712 .49299623 .27799989 .49299623 .3373362 .49299623 .385671 .47733055 .42300416 .44599916V.69799807H.5090027V.21000672L.5279999 0M.28300477 .06599426C.32233177 .06599426 .35549418 .0791626 .38249208 .10549927 .40950013 .13183594 .42300416 .16500347 .42300416 .20500183V.355011C.40833537 .37433879 .3893331 .38950096 .3659973 .40049745 .34266154 .41150413 .31566368 .41700746 .28500367 .41700746 .23500569 .41700746 .19650269 .4001719 .16949463 .36650086 .14249675 .33283998 .1289978 .28967286 .1289978 .23699951 .1289978 .18566895 .1423289 .14433289 .16899109 .11299133 .19566345 .08165995 .23366802 .06599426 .28300477 .06599426Z"/>
<path id="font_3_57" d="M.6130066 0H.4980011L.2599945 .31300355 .17500305 .22099304V0H.083999637V.66999819H.17500305V.33900453L.4790039 .6699219H.5910034L.32400514 .3739624 .6130066 0Z"/>
<path id="font_3_206" d="M.041000368 .24099732C.041000368 .2896627 .050664266 .33299256 .069992069 .37098695 .08933004 .4089915 .116999309 .4388275 .15299988 .460495 .18900045 .48216249 .23100281 .49299623 .27900697 .49299623 .32700096 .49299623 .36883036 .48216249 .40449525 .460495 .44016014 .4388275 .46766154 .4089915 .4869995 .37098695 .50633749 .33299256 .51600649 .2896627 .51600649 .24099732 .51600649 .19299317 .5061696 .1496582 .48649598 .11099243 .4668325 .07232666 .4391683 .041992189 .40350343 .019989014 .36783854-.0020039876 .32633973-.013000488 .27900697-.013000488 .23100281-.013000488 .18900045-.002166748 .15299988 .019500733 .116999309 .041168214 .08933004 .07133484 .069992069 .11000061 .050664266 .14866638 .041000368 .19233196 .041000368 .24099732M.42799378 .24099732C.42799378 .29232789 .41516114 .33432517 .38949586 .36698915 .36383058 .3996633 .32700096 .41600038 .27900697 .41600038 .23100281 .41600038 .19400025 .39983116 .16799927 .36749269 .14199829 .3351644 .1289978 .29299928 .1289978 .24099732 .1289978 .18899536 .14199829 .14682515 .16799927 .114486698 .19400025 .08215841 .23100281 .06599426 .27900697 .06599426 .32700096 .06599426 .36383058 .082326259 .38949586 .114990238 .41516114 .14766439 .42799378 .18966675 .42799378 .24099732Z"/>
<path id="font_3_190" d="M.3860016 0 .23800659 .20700073 .16099549 .14700318V0H.07499695V.69799807H.16099549V.23899842C.22699483 .2916616 .2749939 .33215843 .30499269 .3604889 .33500163 .38882957 .35450236 .41083274 .36349488 .4264984 .37249757 .4421641 .3783315 .45999656 .3809967 .47999574H.47000123C.46733604 .45466615 .46200053 .4325002 .45399476 .41349793 .44599916 .39449565 .43099977 .3726603 .40899659 .34799195 .38700358 .32333375 .35333763 .29166667 .30799867 .25299073L.49499513 0H.3860016Z"/>
<path id="font_3_218" d="M.32000733 .49299623C.3653361 .49299623 .40450035 .48249308 .4375 .46148683 .47049967 .44049073 .4956665 .41132609 .5130005 .37399293 .5303345 .33665977 .53900149 .2936605 .53900149 .24499512 .53900149 .19632976 .5295003 .15232849 .51049807 .11299133 .49149577 .073664348 .46433006 .04283142 .42900086 .020492554 .39367167-.001836141 .3526713-.013000488 .30599977-.013000488 .24932862-.013000488 .20232646 .0019989014 .16499329 .03199768V-.18600464H.07899475V.269989L.05999756 .47999574H.13600159L.14500427 .3840027H.147995C.16200257 .41799928 .1835022 .44466148 .2124939 .46398927 .24149578 .48332725 .2773336 .49299623 .32000733 .49299623M.30000306 .06500244C.34799705 .06500244 .38516236 .081832889 .41149903 .115493778 .4378357 .14916484 .45100404 .19166565 .45100404 .24299622 .45100404 .29499818 .43800355 .33683268 .41200257 .36849977 .3860016 .40016685 .34933473 .41600038 .30200196 .41600038 .26333619 .41600038 .23083496 .40283204 .20449829 .37649537 .17816162 .35016886 .16499329 .31667076 .16499329 .27600099V.1269989C.17900086 .107671108 .19750469 .09250387 .22050476 .08149719 .24350484 .070500697 .27000428 .06500244 .30000306 .06500244Z"/>
<path id="font_3_176" d="M.117996219 .5751953C.10133362 .5751953 .08716837 .58102926 .07550049 .59269717 .0638326 .60436508 .057998659 .6185303 .057998659 .6351929 .057998659 .65186569 .06366476 .6658681 .07499695 .6772003 .08632914 .68853256 .10066223 .6941986 .117996219 .6941986 .1353302 .6941986 .14966329 .68853256 .16099549 .6772003 .17232768 .6658681 .17799378 .65186569 .17799378 .6351929 .17799378 .6185303 .17232768 .60436508 .16099549 .59269717 .14966329 .58102926 .1353302 .5751953 .117996219 .5751953M.16099549 0H.07499695V.47999574H.16099549V0Z"/>
<path id="font_3_173" d="M.30599977 .49299623C.3580017 .49299623 .40016685 .47599284 .43249513 .44198609 .4648336 .4079895 .4810028 .36399333 .4810028 .30999757V0H.39500428V.30099488C.39500428 .33433024 .38417054 .36149598 .36250306 .38249208 .34083558 .40349833 .31266786 .41400147 .27799989 .41400147 .2446645 .41400147 .2168274 .40316773 .19448853 .38150025 .17215984 .35983277 .16099549 .33299766 .16099549 .30099488V0H.07499695V.69799807H.16099549V.41900636H.16400147C.17466228 .43900553 .1924947 .45633445 .21749878 .47099305 .24250286 .48566184 .27200318 .49299623 .30599977 .49299623Z"/>
<path id="font_3_221" d="M.28799439 .49299623C.30333457 .49299623 .31833396 .4913279 .33299256 .48799134L.32600404 .40499879C.31133525 .40899659 .29666648 .41099549 .28199769 .41099549 .2480011 .41099549 .22000122 .39915977 .19799805 .37548829 .17599488 .351827 .16499329 .32099406 .16499329 .2829895V0H.07899475V.2809906L.059005739 .47999574H.13800049L.1459961 .3899994H.147995C.15666199 .42066957 .17349243 .4455007 .19848633 .4644928 .2234904 .4834951 .25332643 .49299623 .28799439 .49299623Z"/>
<path id="font_3_345" d="M.16700745 .19599915H.087005618L.08099365 .66999819H.17300415L.16700745 .19599915M.1269989-.007003784C.1090037-.007003784 .09400431-.0010070801 .08200073 .010986328 .069997157 .022989909 .06399536 .03765869 .06399536 .054992677 .06399536 .07299805 .069997157 .08816528 .08200073 .100494388 .09400431 .11283366 .1090037 .119003299 .1269989 .119003299 .14500427 .119003299 .16017151 .11283366 .17250061 .100494388 .18482971 .08816528 .19099427 .07299805 .19099427 .054992677 .19099427 .03765869 .18482971 .022989909 .17250061 .010986328 .16017151-.0010070801 .14500427-.007003784 .1269989-.007003784Z"/>
<clipPath id="clip_4">
<path transform="matrix(.24,0,0,-.24,-29.4803,270.4703)" d="M330.676 205.098 398.621 196.75 414.273 324.203 346.324 332.547Z"/>
</clipPath>
<clipPath id="clip_5">
<path transform="matrix(.24,0,0,-.24,-29.4803,270.4703)" d="M122.836 122.836H772.637V1126.9761H122.836Z"/>
</clipPath>
</defs>
<g>
<g>
<g clip-path="url(#clip_0)">
<g clip-path="url(#clip_1)">
<use data-text="M" xlink:href="#font_2_65" transform="matrix(10.000008,0,0,-10.000008,19.865933,27.664139)" fill="#58595b"/>
<use data-text="e" xlink:href="#font_2_156" transform="matrix(10.000008,0,0,-10.000008,27.785939,27.664139)" fill="#58595b"/>
<use data-text="i" xlink:href="#font_2_176" transform="matrix(10.000008,0,0,-10.000008,32.985944,27.664139)" fill="#58595b"/>
<use data-text="n" xlink:href="#font_2_199" transform="matrix(10.000008,0,0,-10.000008,35.465944,27.664139)" fill="#58595b"/>
<use data-text="e" xlink:href="#font_2_156" transform="matrix(10.000008,0,0,-10.000008,40.985956,27.664139)" fill="#58595b"/>
<use data-text=" " xlink:href="#font_2_1" transform="matrix(10.000008,0,0,-10.000008,46.18595,27.664139)" fill="#58595b"/>
<use data-text="K" xlink:href="#font_2_57" transform="matrix(10.000008,0,0,-10.000008,48.265954,27.664139)" fill="#58595b"/>
<use data-text="o" xlink:href="#font_2_206" transform="matrix(10.000008,0,0,-10.000008,54.18596,27.664139)" fill="#58595b"/>
<use data-text="n" xlink:href="#font_2_199" transform="matrix(10.000008,0,0,-10.000008,59.715959,27.664139)" fill="#58595b"/>
<use data-text="t" xlink:href="#font_2_232" transform="matrix(10.000008,0,0,-10.000008,65.21472,27.664139)" fill="#58595b"/>
<use data-text="a" xlink:href="#font_2_133" transform="matrix(10.000008,0,0,-10.000008,69.06472,27.664139)" fill="#58595b"/>
<use data-text="k" xlink:href="#font_2_190" transform="matrix(10.000008,0,0,-10.000008,74.11473,27.664139)" fill="#58595b"/>
<use data-text="t" xlink:href="#font_2_232" transform="matrix(10.000008,0,0,-10.000008,79.344738,27.664139)" fill="#58595b"/>
<use data-text="d" xlink:href="#font_2_152" transform="matrix(10.000008,0,0,-10.000008,83.105068,27.664139)" fill="#58595b"/>
<use data-text="a" xlink:href="#font_2_133" transform="matrix(10.000008,0,0,-10.000008,88.895069,27.664139)" fill="#58595b"/>
<use data-text="t" xlink:href="#font_2_232" transform="matrix(10.000008,0,0,-10.000008,93.89476,27.664139)" fill="#58595b"/>
<use data-text="e" xlink:href="#font_2_156" transform="matrix(10.000008,0,0,-10.000008,97.65507,27.664139)" fill="#58595b"/>
<use data-text="n" xlink:href="#font_2_199" transform="matrix(10.000008,0,0,-10.000008,102.85507,27.664139)" fill="#58595b"/>
<use data-text="J" xlink:href="#font_3_55" transform="matrix(6.0000045,0,0,-6.0000045,72.21877,202.41806)" fill="#58595b"/>
<use data-text="e" xlink:href="#font_3_156" transform="matrix(6.0000045,0,0,-6.0000045,75.1944,202.41806)" fill="#58595b"/>
<use data-text="t" xlink:href="#font_3_232" transform="matrix(6.0000045,0,0,-6.0000045,78.31439,202.41806)" fill="#58595b"/>
<use data-text="z" xlink:href="#font_3_261" transform="matrix(6.0000045,0,0,-6.0000045,80.51039,202.41806)" fill="#58595b"/>
<use data-text="t" xlink:href="#font_3_232" transform="matrix(6.0000045,0,0,-6.0000045,83.1564,202.41806)" fill="#58595b"/>
<use data-text=" " xlink:href="#font_3_1" transform="matrix(6.0000045,0,0,-6.0000045,85.3524,202.41806)" fill="#58595b"/>
<use data-text="s" xlink:href="#font_3_225" transform="matrix(6.0000045,0,0,-6.0000045,86.6844,202.41806)" fill="#58595b"/>
<use data-text="c" xlink:href="#font_3_146" transform="matrix(6.0000045,0,0,-6.0000045,89.2704,202.41806)" fill="#58595b"/>
<use data-text="a" xlink:href="#font_3_133" transform="matrix(6.0000045,0,0,-6.0000045,92.2044,202.41806)" fill="#58595b"/>
<use data-text="n" xlink:href="#font_3_199" transform="matrix(6.0000045,0,0,-6.0000045,95.24641,202.41806)" fill="#58595b"/>
<use data-text="n" xlink:href="#font_3_199" transform="matrix(6.0000045,0,0,-6.0000045,98.58241,202.41806)" fill="#58595b"/>
<use data-text="e" xlink:href="#font_3_156" transform="matrix(6.0000045,0,0,-6.0000045,101.91841,202.41806)" fill="#58595b"/>
<use data-text="n" xlink:href="#font_3_199" transform="matrix(6.0000045,0,0,-6.0000045,105.06241,202.41806)" fill="#58595b"/>
<use data-text=" " xlink:href="#font_3_1" transform="matrix(6.0000045,0,0,-6.0000045,108.39841,202.41806)" fill="#58595b"/>
<use data-text="u" xlink:href="#font_3_237" transform="matrix(6.0000045,0,0,-6.0000045,109.73042,202.41806)" fill="#58595b"/>
<use data-text="n" xlink:href="#font_3_199" transform="matrix(6.0000045,0,0,-6.0000045,113.01842,202.41806)" fill="#58595b"/>
<use data-text="d" xlink:href="#font_3_152" transform="matrix(6.0000045,0,0,-6.0000045,116.354419,202.41806)" fill="#58595b"/>
<use data-text=" " xlink:href="#font_3_1" transform="matrix(6.0000045,0,0,-6.0000045,119.882419,202.41806)" fill="#58595b"/>
<use data-text="K" xlink:href="#font_3_57" transform="matrix(6.0000045,0,0,-6.0000045,72.21877,209.61808)" fill="#58595b"/>
<use data-text="o" xlink:href="#font_3_206" transform="matrix(6.0000045,0,0,-6.0000045,75.69878,209.61808)" fill="#58595b"/>
<use data-text="n" xlink:href="#font_3_199" transform="matrix(6.0000045,0,0,-6.0000045,79.04078,209.61808)" fill="#58595b"/>
<use data-text="t" xlink:href="#font_3_232" transform="matrix(6.0000045,0,0,-6.0000045,82.346599,209.61808)" fill="#58595b"/>
<use data-text="a" xlink:href="#font_3_133" transform="matrix(6.0000045,0,0,-6.0000045,84.5426,209.61808)" fill="#58595b"/>
<use data-text="k" xlink:href="#font_3_190" transform="matrix(6.0000045,0,0,-6.0000045,87.5846,209.61808)" fill="#58595b"/>
<use data-text="t" xlink:href="#font_3_232" transform="matrix(6.0000045,0,0,-6.0000045,90.6146,209.61808)" fill="#58595b"/>
<use data-text="d" xlink:href="#font_3_152" transform="matrix(6.0000045,0,0,-6.0000045,92.76879,209.61808)" fill="#58595b"/>
<use data-text="a" xlink:href="#font_3_133" transform="matrix(6.0000045,0,0,-6.0000045,96.2968,209.61808)" fill="#58595b"/>
<use data-text="t" xlink:href="#font_3_232" transform="matrix(6.0000045,0,0,-6.0000045,99.30318,209.61808)" fill="#58595b"/>
<use data-text="e" xlink:href="#font_3_156" transform="matrix(6.0000045,0,0,-6.0000045,101.45099,209.61808)" fill="#58595b"/>
<use data-text="n" xlink:href="#font_3_199" transform="matrix(6.0000045,0,0,-6.0000045,104.594989,209.61808)" fill="#58595b"/>
<use data-text=" " xlink:href="#font_3_1" transform="matrix(6.0000045,0,0,-6.0000045,107.930988,209.61808)" fill="#58595b"/>
<use data-text="s" xlink:href="#font_3_225" transform="matrix(6.0000045,0,0,-6.0000045,109.13098,209.61808)" fill="#58595b"/>
<use data-text="p" xlink:href="#font_3_218" transform="matrix(6.0000045,0,0,-6.0000045,111.716999,209.61808)" fill="#58595b"/>
<use data-text="e" xlink:href="#font_3_156" transform="matrix(6.0000045,0,0,-6.0000045,115.19699,209.61808)" fill="#58595b"/>
<use data-text="i" xlink:href="#font_3_176" transform="matrix(6.0000045,0,0,-6.0000045,118.34099,209.61808)" fill="#58595b"/>
<use data-text="c" xlink:href="#font_3_146" transform="matrix(6.0000045,0,0,-6.0000045,119.75699,209.61808)" fill="#58595b"/>
<use data-text="h" xlink:href="#font_3_173" transform="matrix(6.0000045,0,0,-6.0000045,122.690998,209.61808)" fill="#58595b"/>
<use data-text="e" xlink:href="#font_3_156" transform="matrix(6.0000045,0,0,-6.0000045,125.996997,209.61808)" fill="#58595b"/>
<use data-text="r" xlink:href="#font_3_221" transform="matrix(6.0000045,0,0,-6.0000045,129.14099,209.61808)" fill="#58595b"/>
<use data-text="n" xlink:href="#font_3_199" transform="matrix(6.0000045,0,0,-6.0000045,131.229,209.61808)" fill="#58595b"/>
<use data-text="!" xlink:href="#font_3_345" transform="matrix(6.0000045,0,0,-6.0000045,134.565,209.61808)" fill="#58595b"/>
</g>
<g clip-path="url(#clip_4)">
<path transform="matrix(.24,0,0,-.24,-29.4803,270.4703)" d="M382.879 322.223C382.816 321.715 382.555 321.277 382.18 320.984 381.805 320.691 381.324 320.543 380.813 320.605L371.895 321.699C370.871 321.824 370.152 322.75 370.277 323.766 370.34 324.277 370.602 324.715 370.977 325.004 371.348 325.297 371.836 325.445 372.344 325.383L381.266 324.289C382.281 324.164 383.004 323.238 382.879 322.223" fill="#4f5252"/>
<path transform="matrix(.24,0,0,-.24,-29.4803,270.4703)" d="M390.02 266.02C390.016 266.031 390.004 266.047 389.996 266.059 389.949 266.152 389.875 266.234 389.797 266.297L389.625 264.93 389.809 265.082C389.93 265.176 390.016 265.305 390.059 265.445 390.063 265.465 390.066 265.48 390.074 265.496 390.074 265.5 390.074 265.504 390.074 265.504 390.078 265.52 390.078 265.531 390.082 265.543 390.109 265.695 390.094 265.867 390.02 266.02M389.797 266.297 389.625 264.93 389.809 265.082C389.93 265.176 390.016 265.305 390.059 265.445 390.063 265.465 390.066 265.48 390.074 265.496 390.074 265.5 390.074 265.504 390.074 265.504 390.078 265.52 390.078 265.531 390.082 265.543 390.105 265.703 390.086 265.871 390.02 266.02 390.016 266.031 390.004 266.047 389.996 266.059 389.949 266.152 389.875 266.234 389.797 266.297M391.797 325.676 362.66 329.254C359.02 329.703 355.703 327.113 355.254 323.473L345.965 247.793C345.516 244.152 348.105 240.836 351.746 240.391L380.887 236.809C383.895 236.441 386.676 238.145 387.805 240.797 387.848 240.891 387.879 240.98 387.918 241.07 388.098 241.555 388.223 242.063 388.289 242.598L388.305 242.727C388.219 242.711 388.129 242.691 388.039 242.676 387.98 242.668 387.918 242.656 387.855 242.648 387.707 242.621 387.551 242.598 387.402 242.582L386.938 242.52 386.867 242.508C386.77 241.922 386.566 241.363 386.285 240.855 386.234 240.758 386.18 240.668 386.121 240.578 385.805 240.086 385.406 239.641 384.926 239.27 383.824 238.406 382.449 238.023 381.055 238.191L351.918 241.773C350.527 241.941 349.285 242.645 348.418 243.75 347.555 244.855 347.176 246.23 347.348 247.621L356.641 323.301C356.809 324.691 357.512 325.934 358.617 326.797 359.723 327.664 361.098 328.043 362.488 327.871L391.625 324.293C393.02 324.121 394.262 323.422 395.125 322.316 395.988 321.211 396.367 319.836 396.199 318.441L391.496 280.145C391.91 280.461 392.297 280.766 392.551 280.961L392.566 280.973 392.656 281.043C392.75 281.121 392.953 281.285 393.047 281.367L397.582 318.273C398.027 321.914 395.438 325.23 391.797 325.676M390.02 266.02C390.016 266.031 390.004 266.047 389.996 266.059 389.949 266.152 389.875 266.234 389.797 266.297L389.625 264.93 389.809 265.082C389.93 265.176 390.016 265.305 390.059 265.445 390.063 265.465 390.066 265.48 390.074 265.496 390.074 265.5 390.074 265.504 390.074 265.504 390.078 265.52 390.078 265.531 390.082 265.543 390.109 265.695 390.094 265.867 390.02 266.02" fill="#4f5252"/>
<path transform="matrix(.24,0,0,-.24,-29.4803,270.4703)" d="M343.426 231.07C343.375 230.926 343.367 230.781 343.395 230.641 343.348 230.023 343.285 229.449 343.211 228.902L339.926 205.672 341.473 205.484 344.758 228.68C344.848 229.324 344.918 229.98 344.965 230.695V230.703L344.969 230.742C345.145 233.301 344.98 235.859 344.469 238.355L341.059 255.207 340.938 255.805C340.418 258.352 340.07 260.031 340.535 262.516 341.02 265.086 341.918 269.871 341.313 275.891 341.156 277.387 341.699 278.98 342.129 280.48L342.133 280.492C343.441 284.23 344.934 287.57 345.242 291.367 346.34 294.422 350.242 293.359 351.297 290.828 351.617 290.102 351.891 289.355 352.121 288.602L352.523 291.871C350.598 295.484 345.117 296.086 343.723 291.742 343.426 288.059 341.941 284.637 340.637 280.953L340.633 280.941C340.156 279.277 339.578 277.594 339.754 275.73 340.34 269.934 339.465 265.289 339 262.793 338.48 260.02 338.887 258.023 339.406 255.488L342.941 238.047C343.402 235.762 343.566 233.41 343.426 231.07" fill="#4f5252"/>
<path transform="matrix(.24,0,0,-.24,-29.4803,270.4703)" d="M402.59 251.145C401.75 249.699 400.555 248.48 399.059 247.719L394.598 245.41 394.59 245.402C394.582 245.402 394.574 245.395 394.57 245.395L392.797 244.387C391.316 243.543 389.707 242.98 388.043 242.68 387.98 242.668 387.918 242.656 387.855 242.645 387.531 242.59 387.199 242.543 386.867 242.508L386.07 242.402C384.512 242.18 382.918 243.008 382.199 244.41L381.789 245.195C381.266 246.191 381.609 247.441 382.566 248.039L382.965 248.285C383.625 248.699 383.328 249.727 382.551 249.727 381.254 249.723 380.109 250.363 379.418 251.473L378.891 252.309C377.797 254.059 378.258 256.367 379.941 257.563L385.293 261.367C385.309 261.375 385.32 261.387 385.332 261.402L389.629 264.93 389.809 265.078C389.934 265.176 390.016 265.305 390.059 265.445 390.063 265.465 390.066 265.48 390.07 265.496 390.074 265.5 390.074 265.504 390.074 265.504 390.078 265.516 390.078 265.531 390.078 265.543 390.109 265.699 390.09 265.871 390.016 266.016 390.012 266.035 390.004 266.047 389.996 266.059 389.984 266.082 389.973 266.109 389.953 266.129 389.891 266.223 389.809 266.301 389.703 266.359 389.512 266.469 389.277 266.496 389.066 266.422 388.445 266.219 387.816 266.156 387.191 266.23 386.066 266.371 385.02 266.965 384.328 267.859L383.738 268.621C382.379 270.367 382.645 272.844 384.344 274.262L384.547 274.434 386.59 276.137 389.801 278.824C390.188 279.129 390.875 279.66 391.496 280.141 391.91 280.465 392.297 280.762 392.551 280.957L392.566 280.973 392.66 281.043C392.754 281.121 392.953 281.285 393.051 281.367L397.449 285.012C397.496 285.051 397.559 285.07 397.617 285.07 398.395 285.047 399.152 284.754 399.742 284.238L400.543 283.543C401.344 282.848 401.859 281.887 401.996 280.832L402.074 280.246C402.23 279.074 401.875 277.883 401.102 276.984L395.59 271.609C395.078 271.172 395.34 270.316 396.004 270.242 396.16 270.223 396.313 270.25 396.453 270.32 397.613 270.906 398.91 271.188 400.18 271.07 401.277 270.938 402.238 270.277 402.758 269.305 403.355 268.184 403.922 267.371 403.684 266.035L403.531 265.172C403.379 264.355 402.938 263.625 402.285 263.109L396.719 258.746C396.172 258.324 396.418 257.438 397.105 257.359 397.223 257.344 397.34 257.355 397.453 257.391 397.816 257.516 398.176 257.621 398.516 257.695L399.332 257.887C400.293 258.109 401.32 257.813 402.016 257.125L402.473 256.68C402.988 256.18 403.281 255.48 403.285 254.762V253.555C403.285 252.703 403.043 251.871 402.59 251.145M404.848 253.555V254.762C404.844 255.902 404.375 257.004 403.566 257.801L403.113 258.242C402.492 258.852 401.68 259.277 400.824 259.441 400.609 259.48 400.543 259.758 400.715 259.891L403.25 261.879C404.203 262.629 404.852 263.699 405.063 264.895L405.223 265.754C405.418 266.844 405.238 267.98 404.719 268.953L404.137 270.043C403.316 271.594 401.684 272.609 399.926 272.66 399.906 272.66 399.887 272.66 399.867 272.66 399.637 272.672 399.543 272.953 399.715 273.105L402.289 275.965C403.52 277.402 403.887 279.203 403.547 281.039 403.359 282.469 402.656 283.777 401.57 284.723L400.766 285.418C400.395 285.742 399.984 286.004 399.535 286.203 399.387 286.27 399.34 286.457 399.434 286.594 400.625 288.219 407.289 295.035 407.625 295.375L407.629 295.383C410.113 298.535 407.402 302.598 403.781 302.988 402.004 303.203 400.176 302.594 398.883 301.355 398.25 300.758 396.383 298.98 395.059 297.719 394.516 297.203 394.066 296.777 393.824 296.547 393.785 296.504 393.754 296.449 393.75 296.391L393.547 294.746C393.516 294.508 393.805 294.367 393.977 294.531L394.758 295.277 399.957 300.227C401.828 302.043 405.055 301.859 406.531 299.645 407.203 298.668 407.172 297.363 406.457 296.418L393.324 283.625C392.984 283.348 392.305 282.789 391.766 282.352 391.547 282.172 391.348 282.008 391.207 281.895L386.855 278.34 385.77 277.449 383.441 275.547 383.344 275.465C383.055 275.223 382.797 274.957 382.566 274.68 380.938 272.676 380.859 269.781 382.504 267.664L383.098 266.895C383.906 265.855 385.066 265.109 386.359 264.797 386.563 264.746 386.625 264.484 386.465 264.352L384.371 262.629C384.359 262.621 379.051 258.848 379.035 258.84L379.008 258.82C376.695 257.207 376.039 253.848 377.566 251.484L378.094 250.641C378.676 249.707 379.492 249 380.457 248.582 380.605 248.52 380.664 248.348 380.574 248.215 379.855 247.078 379.789 245.652 380.406 244.473L380.813 243.684C381.824 241.707 384.074 240.543 386.277 240.852L386.289 240.855C386.539 240.887 387.695 241.039 387.918 241.074 389.91 241.375 391.809 242.035 393.566 243.031L395.324 244.027 397.156 244.977C397.266 245.031 397.406 245 397.477 244.902 397.578 244.789 397.617 244.637 397.504 244.512 391.5 238.066 381.441 227.277 379.484 225.309 377.867 223.684 375.852 221.66 375.441 219.289L375.438 219.281C375.367 218.734 375.234 217.73 375.16 217.16 375.152 217.098 375.141 217.016 375.129 216.953 375.125 216.914 375.117 216.871 375.113 216.824 374.727 213.875 373.488 204.535 373.188 201.59L374.742 201.402C375.113 205.063 376.41 214.684 376.645 216.488 376.68 216.75 376.84 217.949 376.871 218.199 376.891 218.328 376.969 218.906 376.984 219.043 377.32 220.922 379.133 222.742 380.594 224.203 383.242 226.859 401.977 247.387 402.191 247.625L402.203 247.637 402.27 247.723C402.285 247.734 402.293 247.746 402.301 247.758L403.91 250.313C404.52 251.289 404.848 252.41 404.848 253.555M386.855 278.34 386.59 276.137 389.801 278.824C390.188 279.129 390.875 279.66 391.496 280.141L391.766 282.352C391.547 282.172 391.348 282.008 391.207 281.895ZM390.059 265.445C390.012 265.305 389.93 265.176 389.809 265.078 389.934 265.176 390.016 265.305 390.059 265.445" fill="#4f5252"/>
<path transform="matrix(.24,0,0,-.24,-29.4803,270.4703)" d="M367.953 297.676 361.766 298.434 362.527 304.621 368.711 303.863ZM360.43 297.395 368.996 296.34 370.047 304.906 361.48 305.961" fill="#4f5252"/>
<path transform="matrix(.24,0,0,-.24,-29.4803,270.4703)" d="M367.324 302.781 363.609 303.238 363.152 299.516 366.867 299.063Z" fill="#4f5252"/>
<path transform="matrix(.24,0,0,-.24,-29.4803,270.4703)" d="M385.207 295.559 379.02 296.316 379.785 302.504 385.965 301.746ZM377.688 295.273 386.254 294.219 387.305 302.785 378.738 303.84" fill="#4f5252"/>
<path transform="matrix(.24,0,0,-.24,-29.4803,270.4703)" d="M384.582 300.66 380.863 301.117 380.406 297.398 384.125 296.945Z" fill="#4f5252"/>
<path transform="matrix(.24,0,0,-.24,-29.4803,270.4703)" d="M365.848 280.527 359.664 281.289 360.422 287.477 366.605 286.715ZM358.324 280.246 366.891 279.191 367.941 287.758 359.375 288.813" fill="#4f5252"/>
<path transform="matrix(.24,0,0,-.24,-29.4803,270.4703)" d="M361.047 282.371 364.762 281.914 365.223 285.633 361.504 286.09Z" fill="#4f5252"/>
<path transform="matrix(.24,0,0,-.24,-29.4803,270.4703)" d="M385.949 293.02 383.523 293.316 383.371 292.086 385.797 291.789Z" fill="#4f5252"/>
<path transform="matrix(.24,0,0,-.24,-29.4803,270.4703)" d="M374.598 291.91 374.297 289.449 375.508 289.305 375.66 290.531 378.141 290.227 377.988 288.996 375.508 289.305 375.355 288.07 377.836 287.766 379.051 287.617 379.504 291.305 377.055 291.609 377.199 292.785 378.438 292.633 378.586 293.863 377.352 294.016V294.023L376.137 294.168 375.84 291.754" fill="#4f5252"/>
<path transform="matrix(.24,0,0,-.24,-29.4803,270.4703)" d="M363.84 294.445 363.992 295.676 361.535 295.977 361.387 294.746 361.242 293.551 359.977 293.703 359.824 292.473 361.07 292.32 360.922 291.109 359.711 291.254 359.563 290.02 360.773 289.875 360.926 291.102 362.137 290.957 361.988 289.723 363.199 289.574 363.348 290.809 364.555 290.66 364.852 293.102 362.453 293.402 362.598 294.598" fill="#4f5252"/>
<path transform="matrix(.24,0,0,-.24,-29.4803,270.4703)" d="M369.324 288.813 370.535 288.664 370.688 289.891 369.473 290.039Z" fill="#4f5252"/>
<path transform="matrix(.24,0,0,-.24,-29.4803,270.4703)" d="M368.609 293.859 368.758 295.086 365.102 295.539 364.949 294.309 367.395 294.008 367.25 292.813 368.465 292.664 368.609 293.859" fill="#4f5252"/>
<path transform="matrix(.24,0,0,-.24,-29.4803,270.4703)" d="M385.645 290.559 384.434 290.707 383.98 287.012 385.191 286.867Z" fill="#4f5252"/>
<path transform="matrix(.24,0,0,-.24,-29.4803,270.4703)" d="M369.988 294.922 370.664 294.84V294.836L372.465 294.617 372.324 293.473 373.539 293.324 373.383 292.059 374.598 291.906 374.891 294.316 374.934 294.313V294.316L376.137 294.168 376.746 299.098 375.535 299.25 375.68 300.461 376.891 300.313 377.195 302.777 375.984 302.93 376.133 304.156 374.922 304.309 374.316 299.379 375.527 299.227 375.074 295.523 373.828 295.68 373.98 296.91 372.766 297.063 372.617 295.828 371.352 295.98 371.5 297.215 372.766 297.063 372.918 298.27 371.648 298.43 371.805 299.707 370.59 299.852" fill="#4f5252"/>
<path transform="matrix(.24,0,0,-.24,-29.4803,270.4703)" d="M364.555 290.66 364.402 289.426 365.613 289.27 365.766 290.508Z" fill="#4f5252"/>
<path transform="matrix(.24,0,0,-.24,-29.4803,270.4703)" d="M373.676 304.461 373.336 304.504 372.41 304.613 371.203 304.766 371.055 303.551 372.258 303.402 372.102 302.133 373.371 301.973" fill="#4f5252"/>
<path transform="matrix(.24,0,0,-.24,-29.4803,270.4703)" d="M373.223 300.762 371.953 300.918 371.805 299.703 373.07 299.551Z" fill="#4f5252"/>
<path transform="matrix(.24,0,0,-.24,-29.4803,270.4703)" d="M372.102 302.129 370.836 302.285 370.688 301.07 371.953 300.918Z" fill="#4f5252"/>
<path transform="matrix(.24,0,0,-.24,-29.4803,270.4703)" d="M380.344 287.461 381.555 287.309 381.707 288.543 380.492 288.691Z" fill="#4f5252"/>
<path transform="matrix(.24,0,0,-.24,-29.4803,270.4703)" d="M382.918 288.395 383.375 292.086 382.16 292.234 382.301 293.406 381.094 293.555 380.641 289.863 381.852 289.715 381.707 288.543" fill="#4f5252"/>
<path transform="matrix(.24,0,0,-.24,-29.4803,270.4703)" d="M359.008 302.66C359.277 302.629 359.516 302.816 359.547 303.082L360.117 307.707 364.738 307.141C365.004 307.105 365.246 307.293 365.281 307.559 365.309 307.824 365.121 308.066 364.859 308.098L359.754 308.723C359.488 308.758 359.246 308.57 359.215 308.301L358.59 303.199C358.555 302.938 358.742 302.695 359.008 302.66" fill="#4f5252"/>
<path transform="matrix(.24,0,0,-.24,-29.4803,270.4703)" d="M389.648 305.055 384.547 305.68C384.281 305.711 384.039 305.523 384.008 305.258 383.973 304.996 384.16 304.754 384.43 304.719L389.055 304.152 388.484 299.527C388.453 299.266 388.641 299.023 388.902 298.992 389.172 298.957 389.41 299.145 389.445 299.41L390.07 304.516C390.102 304.777 389.914 305.02 389.648 305.055" fill="#4f5252"/>
<path transform="matrix(.24,0,0,-.24,-29.4803,270.4703)" d="M361.195 278.277 356.57 278.844 357.137 283.469C357.172 283.734 356.984 283.973 356.723 284.004 356.453 284.039 356.215 283.852 356.18 283.586L355.555 278.48C355.52 278.219 355.707 277.977 355.977 277.941L361.078 277.316C361.344 277.285 361.582 277.473 361.617 277.738 361.652 278 361.465 278.242 361.195 278.277" fill="#4f5252"/>
<path transform="matrix(.24,0,0,-.24,-29.4803,270.4703)" d="M387.035 279.797 386.586 276.137 384.547 274.434 380.766 274.902C380.5 274.934 380.313 275.172 380.344 275.438 380.375 275.699 380.617 275.891 380.887 275.859L385.504 275.293 386.078 279.914C386.105 280.18 386.348 280.367 386.613 280.336 386.879 280.305 387.066 280.063 387.035 279.797" fill="#4f5252"/>
<path transform="matrix(.24,0,0,-.24,-29.4803,270.4703)" d="M377.934 277.801 380.34 277.504 380.496 278.734 378.082 279.031Z" fill="#4f5252"/>
<path transform="matrix(.24,0,0,-.24,-29.4803,270.4703)" d="M378.324 281.516 378.473 282.746 377.258 282.895V282.891H377.262L377.109 281.664" fill="#4f5252"/>
<path transform="matrix(.24,0,0,-.24,-29.4803,270.4703)" d="M384.891 284.398 385.188 286.852 382.793 287.145 382.645 285.914 383.828 285.77 383.676 284.547" fill="#4f5252"/>
<path transform="matrix(.24,0,0,-.24,-29.4803,270.4703)" d="M371.82 288.508 370.605 288.656 370.305 286.215 371.52 286.07ZM375.145 285.664 373.949 285.809 374.094 286.992 375.289 286.848ZM376.652 287.91H376.66L374.156 288.219 374.145 288.223 374.293 289.453 373.082 289.602 373.23 290.828 370.836 291.121 370.988 292.352 368.461 292.66 368.309 291.43 370.836 291.121 370.684 289.891 371.898 289.742 371.746 288.516 372.961 288.367V288.363L373.031 288.355 372.73 285.918 371.52 286.07 371.359 284.781 370.148 284.93 370.305 286.215 369.094 286.363 368.344 280.238 369.555 280.094 369.855 282.543 371.059 282.395 370.91 281.16 372.121 281.016 372.273 282.242 371.07 282.395 371.223 283.648 372.426 283.504 372.273 282.242 373.484 282.098 373.641 283.352 372.434 283.496 372.586 284.73 373.797 284.582 373.648 283.348 374.859 283.199 374.707 281.945 376.016 281.785 376.168 283.039 377.27 282.902 377.418 284.137 376.207 284.285ZM384.465 280.723 384.613 281.953 383.371 282.105 383.531 283.387 382.32 283.535 382.16 282.23 380.961 282.379 381.117 283.68 382.32 283.535 382.469 284.766 378.785 285.215 378.926 286.395 377.715 286.539 377.418 284.137 379.91 283.832 379.602 281.344 380.816 281.195 380.664 279.965 381.859 279.816 381.566 277.391 384.02 277.09 384.316 279.516 383.074 279.664 383.223 280.879" fill="#4f5252"/>
<path transform="matrix(.24,0,0,-.24,-29.4803,270.4703)" d="M374.547 280.715 374.699 281.945 373.484 282.094 373.188 279.629 370.664 279.941 370.512 278.715 374.238 278.254 374.391 279.484 378.082 279.031 378.234 280.258" fill="#4f5252"/>
<path transform="matrix(.24,0,0,-.24,-29.4803,270.4703)" d="M379.598 281.344 378.387 281.496 378.234 280.262 379.449 280.113Z" fill="#4f5252"/>
<path transform="matrix(.24,0,0,-.24,-29.4803,270.4703)" d="M368.031 288.973 368.18 290.195 366.969 290.348 366.816 289.121V289.117L368.031 288.969" fill="#4f5252"/>
</g>
<g clip-path="url(#clip_5)">
<path transform="matrix(.24,0,0,-.24,-29.4803,270.4703)" stroke-width="5.20833" stroke-linecap="butt" stroke-miterlimit="10" stroke-linejoin="miter" fill="none" stroke="#ffffff" d="M97.9336 1126.87H35.4336M797.543 1126.87H860.043M97.9336 122.934H35.4336M797.543 122.934H860.043M122.934 1151.87V1214.37M122.934 97.9336V35.4336M772.543 1151.87V1214.37M772.543 97.9336V35.4336"/>
<path transform="matrix(.24,0,0,-.24,-29.4803,270.4703)" stroke-width="1.04167" stroke-linecap="butt" stroke-miterlimit="10" stroke-linejoin="miter" fill="none" stroke="#000000" d="M97.9336 1126.87H35.4336M797.543 1126.87H860.043M97.9336 122.934H35.4336M797.543 122.934H860.043M122.934 1151.87V1214.37M122.934 97.9336V35.4336M772.543 1151.87V1214.37M772.543 97.9336V35.4336"/>
<path transform="matrix(.24,0,0,-.24,-29.4803,270.4703)" stroke-width="5.20833" stroke-linecap="butt" stroke-miterlimit="10" stroke-linejoin="miter" fill="none" stroke="#ffffff" d="M75 1162.3H0M820.473 1162.3H895.473M75 87.5H0M820.473 87.5H895.473M87.5 1174.8V1249.8M87.5 75V0M807.973 1174.8V1249.8M807.973 75V0"/>
</g>
</g>
</g>
</g>
</svg>
