<svg xmlns="http://www.w3.org/2000/svg" xmlns:xlink="http://www.w3.org/1999/xlink" version="1.1" width="303.307pt" height="193.89pt" viewBox="0 0 303.307 193.89">
<g transform="scale(1.25822552864762)">
<defs>
<clipPath id="clip_1">
<path transform="matrix(1,0,0,-1,-21,185.906)" d="M20.9586 29.9586H261.986V185.947H20.9586Z"/>
</clipPath>
<clipPath id="clip_2">
<path transform="matrix(1,0,0,-1,-21,185.906)" d="M112.616 143.038H171.064V170.315H112.616Z"/>
</clipPath>
<clipPath id="clip_3">
<path transform="matrix(1,0,0,-1,-21,185.906)" d="M112.616 143.038H171.064V170.315H112.616Z"/>
</clipPath>
<clipPath id="clip_4">
<path transform="matrix(1,0,0,-1,-21,185.906)" d="M112.616 143.038H171.064V170.315H112.616Z"/>
</clipPath>
<clipPath id="clip_5">
<path transform="matrix(1,0,0,-1,-21,185.906)" d="M21 30H261.945V185.906H21Z"/>
</clipPath>
<clipPath id="clip_6">
<path transform="matrix(1,0,0,-1,-21,185.906)" d="M0 0H282.945V224.406H0Z"/>
</clipPath>
<clipPath id="clip_7">
<path transform="matrix(1,0,0,-1,-21,185.906)" d="M0 0H282.945V224.406H0Z"/>
</clipPath>
<clipPath id="clip_8">
<path transform="matrix(1,0,0,-1,-21,185.906)" d="M0 0H282.945V224.406H0Z"/>
</clipPath>
<clipPath id="clip_9">
<path transform="matrix(1,0,0,-1,-21,185.906)" d="M0 0H282.945V224.406H0Z"/>
</clipPath>
<clipPath id="clip_10">
<path transform="matrix(1,0,0,-1,-21,185.906)" d="M0 0H282.945V224.406H0Z"/>
</clipPath>
<clipPath id="clip_11">
<path transform="matrix(1,0,0,-1,-21,185.906)" d="M0 0H282.945V224.406H0Z"/>
</clipPath>
<clipPath id="clip_12">
<path transform="matrix(1,0,0,-1,-21,185.906)" d="M0 0H282.945V224.406H0Z"/>
</clipPath>
<clipPath id="clip_13">
<path transform="matrix(1,0,0,-1,-21,185.906)" d="M0 0H282.945V224.406H0Z"/>
</clipPath>
<clipPath id="clip_14">
<path transform="matrix(1,0,0,-1,-21,185.906)" d="M0 0H282.945V224.406H0Z"/>
</clipPath>
<clipPath id="clip_15">
<path transform="matrix(1,0,0,-1,-21,185.906)" d="M0 0H282.945V224.406H0Z"/>
</clipPath>
<clipPath id="clip_16">
<path transform="matrix(1,0,0,-1,-21,185.906)" d="M0 0H282.945V224.406H0Z"/>
</clipPath>
<clipPath id="clip_17">
<path transform="matrix(1,0,0,-1,-21,185.906)" d="M0 0H282.945V224.406H0Z"/>
</clipPath>
<clipPath id="clip_18">
<path transform="matrix(1,0,0,-1,-21,185.906)" d="M0 0H282.945V224.406H0Z"/>
</clipPath>
<clipPath id="clip_19">
<path transform="matrix(1,0,0,-1,-21,185.906)" d="M0 0H282.945V224.406H0Z"/>
</clipPath>
<clipPath id="clip_20">
<path transform="matrix(1,0,0,-1,-21,185.906)" d="M0 0H282.945V224.406H0Z"/>
</clipPath>
<clipPath id="clip_21">
<path transform="matrix(1,0,0,-1,-21,185.906)" d="M0 0H282.945V224.406H0Z"/>
</clipPath>
<clipPath id="clip_22">
<path transform="matrix(1,0,0,-1,-21,185.906)" d="M0 0H282.945V224.406H0Z"/>
</clipPath>
<clipPath id="clip_23">
<path transform="matrix(1,0,0,-1,-21,185.906)" d="M0 0H282.945V224.406H0Z"/>
</clipPath>
<clipPath id="clip_24">
<path transform="matrix(1,0,0,-1,-21,185.906)" d="M0 0H282.945V224.406H0Z"/>
</clipPath>
<clipPath id="clip_25">
<path transform="matrix(1,0,0,-1,-21,185.906)" d="M0 0H282.945V224.406H0Z"/>
</clipPath>
<clipPath id="clip_26">
<path transform="matrix(1,0,0,-1,-21,185.906)" d="M0 0H282.945V224.406H0Z"/>
</clipPath>
<path id="font_27_55" d="M.59814456 .71777346V.63183596H.3564453V0H.2578125V.63183596H.016113282V.71777346H.59814456Z"/>
<path id="font_27_72" d="M.28222657 .53515627C.31933595 .53515627 .355306 .52644857 .39013673 .5090332 .42496745 .49161784 .4514974 .4690806 .46972657 .4414215 .4873047 .41505433 .49902345 .3842977 .5048828 .3491516 .5100911 .32506309 .5126953 .28647868 .5126953 .23339844H.12939453C.13102214 .18033855 .14355469 .13777669 .16699219 .10571289 .19042969 .073649089 .22672527 .057617189 .2758789 .057617189 .32177735 .057617189 .35839845 .07261658 .3857422 .10261536 .4013672 .12003072 .4124349 .14018758 .4189453 .16308594H.5053711C.50309249 .14398194 .49552409 .122690837 .48266603 .09921265 .46980796 .07574463 .45540367 .05656433 .43945313 .041671754 .4127604 .01576233 .37972007-.0017242432 .34033204-.010787964 .3191732-.01596578 .2952474-.018554688 .2685547-.018554688 .20345052-.018554688 .14827474 .0051472985 .103027347 .05255127 .05777995 .09995524 .03515625 .16634114 .03515625 .25170899 .03515625 .33576457 .057942708 .40401713 .103515628 .45646668 .14908855 .5089264 .20865886 .53515627 .28222657 .53515627M.42236329 .30371095C.41878257 .34191896 .41048179 .37245179 .39746095 .39530946 .3733724 .4377594 .33317057 .45898438 .27685548 .45898438 .23649089 .45898438 .20263672 .44437156 .17529297 .41514588 .14794922 .3859202 .13346355 .34877525 .13183594 .30371095H.42236329M.27392579 .5361328V.5361328Z"/>
<path id="font_27_86" d="M.11669922 .1640625C.11930338 .13463338 .12662761 .11207072 .13867188 .09637451 .1608073 .06793213 .19921875 .053710939 .25390626 .053710939 .28645835 .053710939 .31510417 .060806276 .33984376 .07499695 .36458335 .08919779 .37695313 .11115011 .37695313 .14085388 .37695313 .16337586 .36702476 .18051148 .34716798 .19226074 .33447267 .19944255 .30940757 .20775859 .27197267 .21720886L.20214844 .2348175C.15755208 .24590557 .12467448 .25829569 .103515628 .27198792 .06575521 .29579164 .046875 .32873027 .046875 .37080384 .046875 .42036439 .064697269 .46046958 .1003418 .49111939 .13598633 .52177938 .18391927 .5371094 .24414063 .5371094 .32291667 .5371094 .37972007 .5139974 .41455079 .46777345 .4363607 .43847657 .4469401 .40690104 .44628907 .37304688H.36328126C.36165367 .39269004 .35465495 .41055808 .34228517 .426651 .32210288 .44950868 .28710938 .4609375 .23730469 .4609375 .20410156 .4609375 .17895508 .45461528 .16186524 .44197084 .14477539 .42933656 .13623047 .41264854 .13623047 .39190675 .13623047 .36922203 .14746094 .35107423 .16992188 .33746339 .1829427 .32936607 .20214844 .32221986 .22753906 .31602479L.28564454 .3018341C.34879557 .28650413 .39111329 .27166749 .41259767 .25732423 .44677735 .23482259 .4638672 .19944255 .4638672 .15118408 .4638672 .10455322 .44620768 .06428019 .41088868 .03036499 .37556968-.0035502117 .32177735-.020507813 .24951172-.020507813 .17171224-.020507813 .116617839-.002802531 .084228519 .032608034 .05183919 .06801859 .034505208 .111836757 .032226564 .1640625H.11669922M.24658203 .5361328V.5361328Z"/>
<path id="font_27_87" d="M.08203125 .6689453H.17089844V.5234375H.25439454V.45117188H.17089844V.11029053C.17089844 .09209188 .17708333 .07990519 .18945313 .07373047 .19628906 .07014974 .2076823 .068359378 .22363281 .068359378 .22786458 .068359378 .23242188 .06846619 .23730469 .06867981 .2421875 .0689036 .24788411 .06944784 .25439454 .0703125V0C.24430339-.0031026204 .23380535-.005340576 .22290039-.006713867 .21199544-.008097331 .20019531-.0087890629 .1875-.0087890629 .14648438-.0087890629 .118652347 .0017191569 .104003909 .022735596 .08935547 .043752035 .08203125 .07104492 .08203125 .10461426V.45117188H.011230469V.5234375H.08203125V.6689453Z"/>
<path id="font_27_3" d=""/>
<path id="font_27_58" d="M.123535159 .71777346 .25878907 .1343689 .42089845 .71777346H.5263672L.68847659 .13233948 .82373049 .71777346H.9301758L.7416992 0H.63964846L.4741211 .59513857 .3076172 0H.2055664L.018066407 .71777346H.123535159Z"/>
<path id="font_27_68" d="M.13183594 .13891602C.13183594 .11344401 .14111328 .09336344 .15966797 .07867432 .17822266 .06398519 .20019531 .056640626 .22558594 .056640626 .2565104 .056640626 .28645835 .06386312 .3154297 .078308109 .3642578 .102274578 .38867188 .14127605 .38867188 .1953125V.26611329C.3779297 .25913493 .36409507 .25332133 .34716798 .24867249 .33024089 .24402364 .3136393 .24075318 .29736329 .23886109L.24414063 .23222351C.21223958 .22812398 .1883138 .22150167 .17236328 .21235657 .14534505 .1970164 .13183594 .17253621 .13183594 .13891602M.34472657 .31689454C.36490885 .3194987 .37841798 .32796226 .3852539 .34228517 .38916017 .35012818 .39111329 .36140443 .39111329 .3761139 .39111329 .40618388 .38045249 .42799888 .35913087 .44155885 .33780924 .455129 .30729167 .46191407 .26757813 .46191407 .22167969 .46191407 .18912761 .44948326 .16992188 .42462159 .15917969 .4108785 .15218099 .39043174 .14892578 .36328126H.06689453C.06852213 .42791749 .08943685 .47288514 .12963867 .4981842 .1698405 .5234833 .21647136 .5361328 .26953126 .5361328 .3310547 .5361328 .38102214 .52441409 .4194336 .50097659 .45751954 .47753907 .4765625 .4410502 .4765625 .39151V.08985901C.4765625 .08073425 .47843424 .073404949 .48217774 .067871097 .48592124 .06233724 .4938151 .059570314 .5058594 .059570314 .5097656 .059570314 .51416018 .059814454 .51904299 .060302736 .5239258 .060791017 .5291341 .061523439 .53466799 .0625V-.0029296876C.5209961-.0068359377 .5105794-.009277344 .50341799-.010253906 .4962565-.011230469 .48649089-.01171875 .4741211-.01171875 .44384767-.01171875 .421875-.0009104411 .40820313 .020706177 .40104167 .032170614 .3959961 .048380536 .3930664 .06933594 .37516276 .045633954 .34944663 .025060019 .31591798 .0076141359 .2823893-.009831746 .2454427-.018554688 .20507813-.018554688 .15657552-.018554688 .11694336-.0037790936 .08618164 .025772095 .055419923 .055323285 .040039064 .092300418 .040039064 .13670349 .040039064 .18535869 .05517578 .22307332 .08544922 .24984741 .115722659 .2766215 .1554362 .29311119 .20458985 .2993164L.34472657 .31689454M.27197267 .5361328V.5361328Z"/>
<path id="font_27_75" d="M.064453128 .71875H.15234375V.45214845C.17317708 .4786682 .19189453 .4973297 .2084961 .50813296 .2368164 .5267995 .2721354 .5361328 .31445313 .5361328 .39029948 .5361328 .44173179 .50957748 .46875 .45646668 .48339845 .42747499 .49072267 .38723756 .49072267 .3357544V0H.40039063V.32958985C.40039063 .3680013 .3955078 .39615885 .3857422 .4140625 .36979167 .44270835 .33984376 .45703126 .29589845 .45703126 .2594401 .45703126 .22639974 .4444987 .19677735 .4194336 .16715496 .3943685 .15234375 .34700523 .15234375 .27734376V0H.064453128V.71875Z"/>
<path id="font_27_79" d="M.06689453 .71777346H.15478516V0H.06689453V.71777346Z"/>
<path id="font_27_17" d="M.08544922 .10644531H.1875V0H.08544922V.10644531Z"/>
<path id="font_27_76" d="M.064453128 .5205078H.1538086V0H.064453128V.5205078M.064453128 .71777346H.1538086V.61816409H.064453128V.71777346Z"/>
<path id="font_27_81" d="M.064453128 .5234375H.14794922V.44921876C.1726888 .47981773 .19889324 .50179037 .2265625 .5151367 .25423179 .5284831 .2849935 .53515627 .31884767 .53515627 .3930664 .53515627 .44319663 .5092519 .46923829 .45744325 .4835612 .42910258 .49072267 .38853965 .49072267 .3357544V0H.4013672V.3299408C.4013672 .36188255 .39664714 .38762919 .38720704 .4071808 .37158204 .4397634 .34326173 .4560547 .3022461 .4560547 .28141276 .4560547 .2643229 .4539388 .25097657 .44970704 .22688802 .4425354 .20572917 .42819724 .1875 .4066925 .17285156 .38941957 .16333008 .37157694 .15893555 .35316468 .15454102 .3347524 .15234375 .30844117 .15234375 .27423097V0H.064453128V.5234375M.2709961 .5361328V.5361328Z"/>
<path id="font_27_71" d="M.12011719 .2553711C.12011719 .19923909 .1319987 .15224712 .15576172 .11439514 .17952474 .076543178 .21761067 .057617189 .27001954 .057617189 .31070964 .057617189 .3441569 .075154628 .37036134 .11022949 .39656578 .14531453 .40966798 .19565328 .40966798 .26124574 .40966798 .32748924 .39615885 .37651573 .36914063 .4083252 .3421224 .44014488 .3087565 .4560547 .26904298 .4560547 .22477214 .4560547 .18888347 .4390869 .16137696 .40515138 .13387044 .37121583 .12011719 .32128907 .12011719 .2553711M.2524414 .53222659C.29248048 .53222659 .32600913 .52381899 .35302735 .5070038 .36865235 .4972992 .38639323 .48031617 .40625 .4560547V.71875H.49072267V0H.4116211V.07229614C.39111329 .04023234 .36686198 .017074585 .3388672 .002822876 .3108724-.011428833 .2788086-.018554688 .24267578-.018554688 .18440755-.018554688 .13395183 .0059407555 .091308597 .05493164 .048665365 .10392252 .02734375 .16910808 .02734375 .25048829 .02734375 .32666017 .04679362 .39265953 .08569336 .44848634 .1245931 .5043132 .18017578 .53222659 .2524414 .53222659Z"/>
<path id="font_27_22" d="M.25976563-.01953125C.17708333-.01953125 .11710612 .0032196046 .079833988 .048721315 .042561849 .09423319 .023925782 .14960735 .023925782 .21484375H.115722659C.119628909 .16945394 .12809246 .13646953 .14111328 .1158905 .16389974 .07899475 .20507813 .060546876 .26464845 .060546876 .3108724 .060546876 .34798179 .072916667 .37597657 .09765625 .40397135 .122395839 .41796876 .15429688 .41796876 .19335938 .41796876 .24153646 .40323893 .27522788 .3737793 .2944336 .34431968 .3136393 .3033854 .3232422 .25097657 .3232422 .24511719 .3232422 .23917644 .3231608 .2331543 .32299806 .22713216 .3228353 .22102864 .32259117 .21484375 .32226563V.40039063C.22395833 .3992208 .23160808 .3984375 .23779297 .39804078 .24397786 .3976542 .25065104 .39746095 .2578125 .39746095 .2906901 .39746095 .31770835 .40267945 .3388672 .41311646 .37597657 .43138633 .39453126 .4640096 .39453126 .5109863 .39453126 .54589846 .38216148 .57281497 .35742188 .59173586 .33268229 .61065676 .3038737 .6201172 .2709961 .6201172 .21240235 .6201172 .171875 .60058596 .14941406 .56152346 .13704427 .54003909 .13004558 .5094401 .12841797 .46972657H.041503908C.041503908 .5218099 .051920576 .56608077 .072753909 .60253909 .108561199 .66764327 .17154949 .7001953 .26171876 .7001953 .3330078 .7001953 .3881836 .6843007 .4272461 .6525116 .4663086 .6207326 .48583985 .5746867 .48583985 .5143738 .48583985 .471344 .47428385 .4364624 .45117188 .409729 .43684898 .39309693 .41829429 .38005577 .3955078 .37060548 .43229167 .3605143 .4610189 .34106446 .48168946 .31225587 .50236007 .28344728 .5126953 .24820964 .5126953 .20654297 .5126953 .1398112 .49072267 .08544922 .44677735 .04345703 .40283204 .0014648438 .34049479-.01953125 .25976563-.01953125Z"/>
<path id="font_27_19" d="M.2705078 .7001953C.3610026 .7001953 .42643229 .66284689 .46679688 .58815 .49804688 .53042098 .5136719 .45131938 .5136719 .35084535 .5136719 .25559999 .49951173 .17682903 .4711914 .11453247 .43017579 .025156657 .3631185-.01953125 .27001954-.01953125 .18603516-.01953125 .123535159 .017003378 .08251953 .09007263 .048339845 .1510671 .03125 .23293559 .03125 .3356781 .03125 .41526795 .041503908 .48360697 .06201172 .5406952 .10042318 .6470286 .16992188 .7001953 .2705078 .7001953M.26953126 .060546876C.31510417 .060546876 .35139976 .08074442 .37841798 .12113953 .4054362 .1615448 .4189453 .23680623 .4189453 .34692384 .4189453 .42642213 .4091797 .4918264 .38964845 .5431366 .3701172 .594457 .332194 .6201172 .2758789 .6201172 .2241211 .6201172 .1862793 .59576418 .16235352 .5470581 .13842774 .49835206 .12646485 .42659507 .12646485 .3317871 .12646485 .26042686 .13411458 .2030843 .14941406 .15975952 .17285156 .09361776 .21289063 .060546876 .26953126 .060546876Z"/>
<path id="font_27_27" d="M.27197267 .40625C.31070964 .40625 .34098307 .41704814 .36279298 .4386444 .38460288 .4602407 .3955078 .48598228 .3955078 .51586917 .3955078 .5418498 .38509117 .5657196 .3642578 .58747866 .34342448 .6092377 .3116862 .6201172 .26904298 .6201172 .22672527 .6201172 .1961263 .6092377 .1772461 .58747866 .15836589 .5657196 .14892578 .54022219 .14892578 .5109863 .14892578 .4781901 .16113281 .452535 .18554688 .434021 .20996094 .415507 .23876953 .40625 .27197267 .40625M.27734376 .060546876C.31803385 .060546876 .35180665 .071492519 .3786621 .09338379 .40551759 .11527506 .4189453 .1479543 .4189453 .19142151 .4189453 .23650615 .4051107 .27072145 .3774414 .29406739 .34977214 .3174235 .31429038 .32910157 .2709961 .32910157 .2290039 .32910157 .19474285 .31717936 .16821289 .29333497 .14168294 .26950074 .12841797 .23650106 .12841797 .19433594 .12841797 .15800984 .14054363 .12662761 .16479492 .10018921 .18904622 .07376099 .2265625 .060546876 .27734376 .060546876M.15234375 .37234498C.12792969 .3827413 .10888672 .39491783 .095214847 .4088745 .069498699 .43485514 .056640626 .46863304 .056640626 .51020815 .056640626 .5621694 .075520839 .6068217 .11328125 .64416506 .15104167 .68151858 .20458985 .7001953 .27392579 .7001953 .34098307 .7001953 .3935547 .6825765 .43164063 .64733889 .46972657 .61210128 .48876954 .5709381 .48876954 .5238495 .48876954 .48033143 .4777018 .44509379 .4555664 .4181366 .44319663 .4028778 .42399089 .38793946 .39794923 .37332154 .42692057 .3599955 .44970704 .34472148 .4663086 .3274994 .49723307 .29500834 .5126953 .25276695 .5126953 .20077515 .5126953 .1393636 .49202476 .08729044 .4506836 .044555665 .40934245 .0018310547 .35091148-.01953125 .27539063-.01953125 .20735677-.01953125 .14982097-.0010935465 .1027832 .03578186 .05574544 .07266744 .032226564 .12620545 .032226564 .19639588 .032226564 .23765564 .042317708 .27331544 .0625 .30337525 .08268229 .33343507 .11263021 .35642497 .15234375 .37234498Z"/>
<path id="font_27_20" d="M.095703128 .4951172V.5625C.15917969 .5686849 .20345052 .5790202 .22851563 .59350588 .25358073 .6079915 .2722982 .6422526 .28466798 .69628909H.3540039V0H.2602539V.4951172H.095703128Z"/>
<path id="font_27_21" d="M.03125 0C.034505208 .060221357 .04695638 .11263021 .068603519 .15722656 .09025065 .20182292 .13248699 .24235027 .1953125 .2788086L.2890625 .3330078C.3310547 .35742188 .3605143 .3782908 .3774414 .39561463 .40413413 .4227346 .41748048 .45377604 .41748048 .488739 .41748048 .52959188 .40527345 .562027 .38085938 .5860443 .3564453 .61006167 .32389323 .6220703 .28320313 .6220703 .22298177 .6220703 .18131511 .5991516 .15820313 .5533142 .14583333 .52875778 .13899739 .4947103 .13769531 .45117188H.048339845C.049316408 .5121663 .060546876 .5619049 .08203125 .6003876 .12011719 .66822817 .18733724 .70214846 .2836914 .70214846 .36376954 .70214846 .4222819 .68047079 .45922853 .6371155 .49617515 .5937703 .51464846 .5455373 .51464846 .49241639 .51464846 .4363556 .49495445 .388443 .4555664 .3486786 .43277995 .3255361 .3919271 .29752604 .3330078 .26464845L.26611329 .22753906C.23421224 .20996094 .20914714 .19319661 .19091797 .1772461 .15836589 .14892578 .13785808 .11751302 .12939453 .08300781H.51123049V0H.03125Z"/>
<path id="font_27_24" d="M.123535159 .17871094C.12939453 .12837728 .15266927 .093566898 .19335938 .074279788 .2141927 .06447347 .23828125 .059570314 .265625 .059570314 .31770835 .059570314 .35628257 .07622274 .38134767 .10952759 .40641276 .14283245 .4189453 .17973328 .4189453 .2202301 .4189453 .26921083 .40405274 .30708824 .37426759 .3338623 .34448243 .36063639 .3087565 .37402345 .26708985 .37402345 .2368164 .37402345 .21085613 .3681183 .18920899 .35630799 .16756185 .34449769 .14908855 .3279419 .13378906 .30664063L.057617189 .31152345 .110839847 .6875H.4741211V.60253909H.17675781L.14697266 .40960694C.1632487 .4221293 .17871094 .43152366 .19335938 .43778993 .21940105 .44866435 .24951172 .45410157 .2836914 .45410157 .347819 .45410157 .402181 .4333445 .44677735 .39183045 .4913737 .35031639 .5136719 .2976888 .5136719 .23394776 .5136719 .16759236 .49324546 .109079997 .45239259 .058410646 .4115397 .007751465 .34635417-.017578125 .25683595-.017578125 .1998698-.017578125 .14949544-.0015055338 .10571289 .030639649 .06193034 .06278483 .037434896 .11214193 .032226564 .17871094H.123535159Z"/>
<path id="font_27_29" d="M.110839847 .51660159H.21289063V.41015626H.110839847V.51660159M.110839847 .10644531H.21289063V0H.110839847V.10644531Z"/>
</defs>
<g clip-path="url(#clip_1)">
<path transform="matrix(1,0,0,-1,17.4197,144.8737)" d="M0 0H.018C.056 .07 .095 .144 .126 .221V.225C.175 .34 .214 .463 .239 .59 .26 .688 .27 .79 .274 .891H-.319C-.33 .59-.421 .295-.586 0H-.004ZM-.105-.19H-.702C-.884-.453-1.127-.712-1.432-.969-1.383-.962-1.337-.955-1.288-.944-1.162-.919-1.035-.881-.919-.828-.8-.776-.688-.716-.583-.646-.477-.576-.383-.495-.295-.407-.225-.337-.165-.267-.105-.186ZM-1.941-.969C-2.246-.712-2.492-.453-2.671-.19H-3.267C-3.211-.267-3.148-.34-3.078-.407-2.99-.495-2.892-.576-2.79-.646-2.685-.716-2.572-.776-2.453-.828H-2.45C-2.334-.877-2.211-.916-2.085-.941-2.039-.951-1.99-.958-1.941-.965ZM-3.39 0H-2.79C-2.958 .291-3.046 .59-3.057 .891H-3.653C-3.65 .79-3.636 .688-3.618 .59-3.594 .463-3.555 .337-3.502 .221-3.471 .144-3.432 .07-3.394 .004ZM-3.653 1.081H-3.057C-3.036 1.376-2.937 1.674-2.762 1.972H-3.39C-3.429 1.902-3.467 1.828-3.499 1.755V1.751C-3.548 1.635-3.587 1.513-3.611 1.386-3.632 1.288-3.643 1.186-3.646 1.084ZM-3.267 2.158H-2.639C-2.46 2.418-2.221 2.678-1.927 2.937-1.979 2.93-2.032 2.923-2.081 2.913-2.207 2.888-2.334 2.85-2.45 2.797-2.569 2.744-2.681 2.685-2.786 2.614-2.892 2.544-2.986 2.464-3.074 2.376-3.144 2.306-3.204 2.235-3.264 2.155ZM-1.446 2.937C-1.151 2.678-.912 2.414-.733 2.158H-.105C-.161 2.235-.225 2.309-.295 2.376-.383 2.464-.481 2.544-.583 2.614-.688 2.685-.8 2.744-.919 2.797H-.923C-1.039 2.846-1.162 2.885-1.288 2.909-1.341 2.92-1.39 2.927-1.442 2.934ZM.018 1.969H-.614C-.439 1.67-.34 1.372-.319 1.077H.277C.274 1.179 .26 1.281 .242 1.379 .218 1.506 .179 1.632 .126 1.748 .095 1.825 .056 1.895 .018 1.965ZM-2.12 3.099C-1.979 3.127-1.835 3.141-1.688 3.141-1.541 3.141-1.397 3.127-1.256 3.099-1.119 3.071-.983 3.029-.853 2.976H-.849C-.719 2.92-.597 2.853-.481 2.776-.365 2.699-.26 2.611-.161 2.513-.063 2.414 .025 2.309 .102 2.193 .179 2.078 .246 1.955 .302 1.825 .358 1.692 .4 1.558 .428 1.418 .456 1.277 .47 1.134 .47 .986 .47 .839 .456 .695 .428 .554 .4 .418 .358 .281 .305 .151V.147C.249 .018 .182-.105 .105-.221 .028-.337-.06-.442-.158-.54-.256-.639-.361-.726-.477-.804-.593-.881-.716-.948-.846-1.004-.979-1.06-1.112-1.102-1.253-1.13-1.393-1.158-1.537-1.172-1.684-1.172-1.832-1.172-1.976-1.158-2.116-1.13-2.253-1.102-2.39-1.06-2.52-1.007H-2.523C-2.653-.951-2.776-.884-2.892-.807-3.008-.73-3.113-.642-3.211-.544-3.309-.446-3.397-.34-3.474-.225-3.551-.109-3.618 .014-3.674 .144-3.73 .277-3.773 .411-3.801 .551-3.829 .691-3.843 .835-3.843 .983-3.843 1.13-3.829 1.274-3.801 1.414-3.773 1.551-3.73 1.688-3.678 1.818V1.821C-3.622 1.951-3.555 2.074-3.478 2.19-3.401 2.306-3.313 2.411-3.215 2.509-3.116 2.607-3.011 2.695-2.895 2.772-2.779 2.85-2.657 2.916-2.527 2.972-2.393 3.029-2.26 3.071-2.12 3.099M-1.593 2.815V2.158H-.969C-1.134 2.376-1.341 2.593-1.593 2.815M-1.593 1.969V1.077H-.509C-.533 1.369-.642 1.667-.835 1.969ZM-1.593 .891V0H-.804C-.618 .295-.516 .593-.505 .891ZM-1.593-.19V-.856C-1.327-.635-1.105-.414-.937-.19ZM-1.783-.853V-.186H-2.439C-2.271-.411-2.049-.632-1.783-.853M-1.783 0V.891H-2.871C-2.86 .593-2.758 .295-2.572 0ZM-1.783 1.081V1.972H-2.541C-2.734 1.67-2.843 1.376-2.867 1.081ZM-1.783 2.158V2.815C-2.035 2.593-2.242 2.376-2.407 2.158Z" fill="#005aaa"/>
<path transform="matrix(1,0,0,-1,171.4961,96.24831)" stroke-width=".4" stroke-linecap="butt" stroke-miterlimit="4" stroke-linejoin="miter" fill="none" stroke="#005aaa" d="M0 0H-157.374"/>
<path transform="matrix(1,0,0,-1,15.759602,116.573108)" d="M0 0C.304 .193 .579 .43 .816 .69 1.332 1.26 1.685 1.95 1.825 2.631 1.965 3.302 1.897 3.959 1.593 4.47 1.506 4.615 1.395 4.75 1.265 4.871 .893 5.214 .463 5.373 .034 5.378-.42 5.378-.879 5.214-1.284 4.89-1.458 4.75-1.598 4.591-1.709 4.417-1.994 3.968-2.081 3.413-1.984 2.834-1.888 2.245-1.608 1.627-1.163 1.067-.854 .676-.463 .314 .005 .01ZM-.068 4.615C.27 4.615 .584 4.475 .806 4.253 1.028 4.031 1.168 3.722 1.168 3.379 1.168 3.037 1.028 2.728 .806 2.505 .584 2.283 .275 2.143-.068 2.143-.41 2.143-.719 2.283-.941 2.505-1.163 2.728-1.303 3.037-1.303 3.379-1.303 3.722-1.163 4.031-.941 4.253-.719 4.475-.41 4.615-.068 4.615M.628 4.079C.449 4.258 .203 4.369-.068 4.369-.338 4.369-.584 4.258-.763 4.079-.941 3.901-1.052 3.654-1.052 3.384-1.052 3.114-.941 2.868-.763 2.689-.584 2.51-.338 2.399-.068 2.399 .203 2.399 .449 2.51 .628 2.689 .806 2.868 .917 3.114 .917 3.384 .917 3.654 .806 3.901 .628 4.079M1.014 .507C.743 .212 .43-.053 .077-.27 .034-.304-.024-.309-.072-.275-.594 .058-1.033 .454-1.376 .888-1.854 1.487-2.153 2.148-2.254 2.781-2.361 3.428-2.259 4.045-1.941 4.552-1.815 4.75-1.651 4.934-1.453 5.088-.999 5.45-.483 5.639 .034 5.639 .531 5.639 1.019 5.45 1.443 5.064 1.593 4.929 1.719 4.774 1.82 4.605 2.168 4.036 2.24 3.312 2.09 2.578 1.941 1.854 1.569 1.115 1.019 .512Z" fill="#005aaa"/>
<path transform="matrix(1,0,0,-1,16.835,138.7012)" stroke-width=".255" stroke-linecap="round" stroke-miterlimit="4" stroke-linejoin="miter" fill="none" stroke="#005aaa" d="M0 0C-.454-.333-3.068-.569-2.972 1.848-2.859 4.71 1.327 4.471 .935 1.857 .733 .506-.312 .794-.25 1.573-.22 1.961-.227 2.778-.227 2.778-.227 2.778-1.612 3.336-1.843 1.919-1.984 1.049-1.333 .854-.964 .921-.619 .983-.448 1.222-.421 1.361-.392 1.503-.283 2.693-.283 2.693"/>
<path transform="matrix(1,0,0,-1,14.552502,125.63611)" stroke-width=".22" stroke-linecap="butt" stroke-miterlimit="4" stroke-linejoin="miter" fill="none" stroke="#005aaa" d="M0 0C-.337 0-.609-.273-.609-.609V-5.695C-.609-6.032-.337-6.305 0-6.305H2.362C2.699-6.305 2.971-6.032 2.971-5.695V-.609C2.971-.273 2.699 0 2.362 0H0Z"/>
<path transform="matrix(1,0,0,-1,13.98,126.48201)" stroke-width=".184" stroke-linecap="butt" stroke-miterlimit="4" stroke-linejoin="miter" fill="none" stroke="#005aaa" d="M0 0H3.625"/>
<path transform="matrix(1,0,0,-1,13.98,130.8757)" stroke-width=".184" stroke-linecap="butt" stroke-miterlimit="4" stroke-linejoin="miter" fill="none" stroke="#005aaa" d="M0 0H3.625"/>
<path transform="matrix(1,0,0,-1,15.3508,131.39691)" stroke-width=".184" stroke-linecap="round" stroke-miterlimit="4" stroke-linejoin="miter" fill="none" stroke="#005aaa" d="M0 0H.765"/>
<path transform="matrix(1,0,0,-1,15.733501,126.15001)" d="M0 0C.067 0 .121 .054 .121 .121 .121 .188 .067 .242 0 .242-.067 .242-.121 .188-.121 .121-.121 .054-.067 0 0 0" fill="#005aaa"/>
<path transform="matrix(1,0,0,-1,15.257,126.15001)" d="M0 0C.067 0 .121 .054 .121 .121 .121 .188 .067 .242 0 .242-.067 .242-.121 .188-.121 .121-.121 .054-.067 0 0 0" fill="#005aaa"/>
<path transform="matrix(1,0,0,-1,16.2099,126.15001)" d="M0 0C.067 0 .121 .054 .121 .121 .121 .188 .067 .242 0 .242-.067 .242-.121 .188-.121 .121-.121 .054-.067 0 0 0" fill="#005aaa"/>
<path transform="matrix(1,0,0,-1,-21,185.906)" stroke-width=".2" stroke-linecap="butt" stroke-miterlimit="4" stroke-linejoin="miter" fill="none" stroke="#231f20" d="M21.1 30.1H261.845V185.806H21.1Z"/>
<path transform="matrix(1,0,0,-1,91.9131,28.720108)" d="M0 0 28.534-14.008 57.847 0 28.534 12.99Z" fill="#ffffff"/>
<g clip-path="url(#clip_2)">
<path transform="matrix(1,0,0,-1,91.9128,28.720307)" stroke-width=".254" stroke-linecap="square" stroke-miterlimit="3.864" stroke-linejoin="miter" fill="none" stroke="#005aaa" d="M0 0 28.534 12.99 57.847 0 28.534-14.007 0 0Z"/>
</g>
<g clip-path="url(#clip_3)">
<path transform="matrix(1,0,0,-1,135.3746,23.533005)" d="M0 0 .002 2.47 3.519 3.927C3.53 3.861 4.482 2.515 4.482 2.515V-1.943L12.408-5.187 4.348-9.112 4.345-10.006 7.081-11.039V-14.377L6.054-15.157 .002-12.07 0-11.008-14.928-18.074-31.274-10.165V-12.787L-34.675-14.685-35.804-14.121-35.798-8.007-41.311-5.187-35.798-2.727-35.804 3.948-34.675 4.428-31.341 2.829-30.266-.252-14.928 6.705Z" fill="#005aaa"/>
<path transform="matrix(1,0,0,-1,105.7864,27.278107)" d="M0 0 2.77 4.09 5.062 3.638V-6.801L2.354-7.383C2.354-7.383 2.386-2.193 2.361-2.227L.235-7.269-2.078-1.723V-8.728L-5.08-10.363V7.672L-2.078 6.238Z" fill="#ffffff"/>
<path transform="matrix(1,0,0,-1,138.737,33.83281)" d="M0 0 2.599-1.053V-4.257L-2.868-1.523V12.479L0 13.655Z" fill="#ffffff"/>
<path transform="matrix(1,0,0,-1,134.3255,34.929109)" d="M0 0-3.006 .585-3.143 1.792C-3.613 1.901-4.231 1.929-4.71 2.063L-4.927 .921C-6.074 1.074-6.515 1.13-7.685 1.253L-5.416 11.22C-3.959 11.496-2.223 11.913-2.223 11.913Z" fill="#ffffff"/>
<path transform="matrix(1,0,0,-1,117.97749,24.283905)" d="M0 0 2.272-8.956C1.4-8.944 .059-8.95-.55-9.028L-.94-7.175-2.876-7.34-3.313-9.24C-4.014-9.335-4.991-9.404-6.251-9.641L-3.498 .226C-2.11 .042-1.716 .065 0 0" fill="#ffffff"/>
<path transform="matrix(1,0,0,-1,127.23219,27.462708)" d="M0 0C-.051-1.169-.209-3.927-3.919-3.927L-3.927-5.929-6.329-5.75-6.335 3.24-4.058 3.313C-1.397 3.359 .083 1.925 0 0" fill="#ffffff"/>
<path transform="matrix(1,0,0,-1,131.0071,30.366013)" d="M0 0-1.148 .103-.609 3.875Z" fill="#005aaa"/>
<path transform="matrix(1,0,0,-1,116.7892,29.544602)" d="M0 0-1.503-.085-.71 3.317Z" fill="#005aaa"/>
<path transform="matrix(1,0,0,-1,125.10159,27.588105)" d="M0 0C-.091-2.075-1.929-1.784-1.929-1.784L-1.948 1.444C-1.003 1.42-.052 1.266 0 0" fill="#005aaa"/>
</g>
<g clip-path="url(#clip_4)">
<path transform="matrix(1,0,0,-1,125.10159,27.588105)" stroke-width=".167" stroke-linecap="butt" stroke-miterlimit="3.864" stroke-linejoin="miter" fill="none" stroke="#ffffff" d="M0 0C-.091-2.075-1.929-1.784-1.929-1.784L-1.948 1.444C-1.003 1.42-.052 1.266 0 0Z"/>
<path transform="matrix(1,0,0,-1,139.214,24.134202)" stroke-width=".254" stroke-linecap="square" stroke-miterlimit="3.864" stroke-linejoin="miter" fill="none" stroke="#005aaa" d="M0 0 10.545-4.586 .114-9.606M-3.485-11.316-18.767-18.593-35.293-10.617M-34.397 1.212-18.767 8.404-3.737 1.571"/>
</g>
</g>
<g clip-path="url(#clip_5)">
</g>
<g clip-path="url(#clip_6)">
<path transform="matrix(1,0,0,-1,-6,.00050354006)" stroke-width="1.25" stroke-linecap="butt" stroke-miterlimit="10" stroke-linejoin="miter" fill="none" stroke="#ffffff" d="M0 0H-15M252.945 0H267.945M0-155.906H-15M252.945-155.906H267.945M6 6V21M6-161.906V-176.906M246.945 6V21M246.945-161.906V-176.906"/>
<path transform="matrix(1,0,0,-1,-6,.00050354006)" stroke-width=".25" stroke-linecap="butt" stroke-miterlimit="10" stroke-linejoin="miter" fill="none" stroke="#000000" d="M0 0H-15M252.945 0H267.945M0-155.906H-15M252.945-155.906H267.945M6 6V21M6-161.906V-176.906M246.945 6V21M246.945-161.906V-176.906"/>
<path transform="matrix(1,0,0,-1,-3,.00050354006)" stroke-width="1.25" stroke-linecap="butt" stroke-miterlimit="10" stroke-linejoin="miter" fill="none" stroke="#ffffff" d="M0 0H-18M246.945 0H264.945M0-155.906H-18M246.945-155.906H264.945M3 3V21M3-158.906V-176.906M243.945 3V21M243.945-158.906V-176.906"/>
<path transform="matrix(1,0,0,-1,-3,.00050354006)" stroke-width=".25" stroke-linecap="butt" stroke-miterlimit="10" stroke-linejoin="miter" fill="none" stroke="#000000" d="M0 0H-18M246.945 0H264.945M0-155.906H-18M246.945-155.906H264.945M3 3V21M3-158.906V-176.906M243.945 3V21M243.945-158.906V-176.906"/>
<path transform="matrix(1,0,0,-1,125.4724,-13.499496)" stroke-width="1.25" stroke-linecap="butt" stroke-miterlimit="10" stroke-linejoin="miter" fill="none" stroke="#ffffff" d="M0 0C0-2.761-2.239-5-5-5-7.761-5-10-2.761-10 0-10 2.761-7.761 5-5 5-2.239 5 0 2.761 0 0Z"/>
<path transform="matrix(1,0,0,-1,114.4724,-13.499496)" stroke-width="1.25" stroke-linecap="butt" stroke-miterlimit="10" stroke-linejoin="miter" fill="none" stroke="#ffffff" d="M0 0H12"/>
<path transform="matrix(1,0,0,-1,120.4724,-19.499497)" stroke-width="1.25" stroke-linecap="butt" stroke-miterlimit="10" stroke-linejoin="miter" fill="none" stroke="#ffffff" d="M0 0V-12"/>
<path transform="matrix(1,0,0,-1,123.4724,-13.499496)" stroke-width="1.25" stroke-linecap="butt" stroke-miterlimit="10" stroke-linejoin="miter" fill="none" stroke="#ffffff" d="M0 0C0-1.657-1.343-3-3-3-4.657-3-6-1.657-6 0-6 1.657-4.657 3-3 3-1.343 3 0 1.657 0 0Z"/>
<path transform="matrix(1,0,0,-1,125.4724,-13.499496)" stroke-width=".25" stroke-linecap="butt" stroke-miterlimit="10" stroke-linejoin="miter" fill="none" stroke="#000000" d="M0 0C0-2.761-2.239-5-5-5-7.761-5-10-2.761-10 0-10 2.761-7.761 5-5 5-2.239 5 0 2.761 0 0Z"/>
<path transform="matrix(1,0,0,-1,114.4724,-13.499496)" stroke-width=".25" stroke-linecap="butt" stroke-miterlimit="10" stroke-linejoin="miter" fill="none" stroke="#000000" d="M0 0H12"/>
<path transform="matrix(1,0,0,-1,120.4724,-19.499497)" stroke-width=".25" stroke-linecap="butt" stroke-miterlimit="10" stroke-linejoin="miter" fill="none" stroke="#000000" d="M0 0V-12"/>
<path transform="matrix(1,0,0,-1,123.4724,-13.499496)" d="M0 0C0-1.657-1.343-3-3-3-4.657-3-6-1.657-6 0-6 1.657-4.657 3-3 3-1.343 3 0 1.657 0 0"/>
<path transform="matrix(1,0,0,-1,117.4724,-13.499496)" stroke-width=".25" stroke-linecap="butt" stroke-miterlimit="10" stroke-linejoin="miter" fill="none" stroke="#ffffff" d="M0 0H6"/>
<path transform="matrix(1,0,0,-1,120.4724,-16.499497)" stroke-width=".25" stroke-linecap="butt" stroke-miterlimit="10" stroke-linejoin="miter" fill="none" stroke="#ffffff" d="M0 0V-6"/>
<path transform="matrix(1,0,0,-1,125.4724,169.406)" stroke-width="1.25" stroke-linecap="butt" stroke-miterlimit="10" stroke-linejoin="miter" fill="none" stroke="#ffffff" d="M0 0C0-2.761-2.239-5-5-5-7.761-5-10-2.761-10 0-10 2.761-7.761 5-5 5-2.239 5 0 2.761 0 0Z"/>
<path transform="matrix(1,0,0,-1,114.4724,169.406)" stroke-width="1.25" stroke-linecap="butt" stroke-miterlimit="10" stroke-linejoin="miter" fill="none" stroke="#ffffff" d="M0 0H12"/>
<path transform="matrix(1,0,0,-1,120.4724,163.406)" stroke-width="1.25" stroke-linecap="butt" stroke-miterlimit="10" stroke-linejoin="miter" fill="none" stroke="#ffffff" d="M0 0V-12"/>
<path transform="matrix(1,0,0,-1,123.4724,169.406)" stroke-width="1.25" stroke-linecap="butt" stroke-miterlimit="10" stroke-linejoin="miter" fill="none" stroke="#ffffff" d="M0 0C0-1.657-1.343-3-3-3-4.657-3-6-1.657-6 0-6 1.657-4.657 3-3 3-1.343 3 0 1.657 0 0Z"/>
<path transform="matrix(1,0,0,-1,125.4724,169.406)" stroke-width=".25" stroke-linecap="butt" stroke-miterlimit="10" stroke-linejoin="miter" fill="none" stroke="#000000" d="M0 0C0-2.761-2.239-5-5-5-7.761-5-10-2.761-10 0-10 2.761-7.761 5-5 5-2.239 5 0 2.761 0 0Z"/>
<path transform="matrix(1,0,0,-1,114.4724,169.406)" stroke-width=".25" stroke-linecap="butt" stroke-miterlimit="10" stroke-linejoin="miter" fill="none" stroke="#000000" d="M0 0H12"/>
<path transform="matrix(1,0,0,-1,120.4724,163.406)" stroke-width=".25" stroke-linecap="butt" stroke-miterlimit="10" stroke-linejoin="miter" fill="none" stroke="#000000" d="M0 0V-12"/>
<path transform="matrix(1,0,0,-1,123.4724,169.406)" d="M0 0C0-1.657-1.343-3-3-3-4.657-3-6-1.657-6 0-6 1.657-4.657 3-3 3-1.343 3 0 1.657 0 0"/>
<path transform="matrix(1,0,0,-1,117.4724,169.406)" stroke-width=".25" stroke-linecap="butt" stroke-miterlimit="10" stroke-linejoin="miter" fill="none" stroke="#ffffff" d="M0 0H6"/>
<path transform="matrix(1,0,0,-1,120.4724,166.406)" stroke-width=".25" stroke-linecap="butt" stroke-miterlimit="10" stroke-linejoin="miter" fill="none" stroke="#ffffff" d="M0 0V-6"/>
<path transform="matrix(1,0,0,-1,-8.5,77.95321)" stroke-width="1.25" stroke-linecap="butt" stroke-miterlimit="10" stroke-linejoin="miter" fill="none" stroke="#ffffff" d="M0 0C0-2.761-2.239-5-5-5-7.761-5-10-2.761-10 0-10 2.761-7.761 5-5 5-2.239 5 0 2.761 0 0Z"/>
<path transform="matrix(1,0,0,-1,-19.5,77.95321)" stroke-width="1.25" stroke-linecap="butt" stroke-miterlimit="10" stroke-linejoin="miter" fill="none" stroke="#ffffff" d="M0 0H12"/>
<path transform="matrix(1,0,0,-1,-13.5,71.95321)" stroke-width="1.25" stroke-linecap="butt" stroke-miterlimit="10" stroke-linejoin="miter" fill="none" stroke="#ffffff" d="M0 0V-12"/>
<path transform="matrix(1,0,0,-1,-10.5,77.95321)" stroke-width="1.25" stroke-linecap="butt" stroke-miterlimit="10" stroke-linejoin="miter" fill="none" stroke="#ffffff" d="M0 0C0-1.657-1.343-3-3-3-4.657-3-6-1.657-6 0-6 1.657-4.657 3-3 3-1.343 3 0 1.657 0 0Z"/>
<path transform="matrix(1,0,0,-1,-8.5,77.95321)" stroke-width=".25" stroke-linecap="butt" stroke-miterlimit="10" stroke-linejoin="miter" fill="none" stroke="#000000" d="M0 0C0-2.761-2.239-5-5-5-7.761-5-10-2.761-10 0-10 2.761-7.761 5-5 5-2.239 5 0 2.761 0 0Z"/>
<path transform="matrix(1,0,0,-1,-19.5,77.95321)" stroke-width=".25" stroke-linecap="butt" stroke-miterlimit="10" stroke-linejoin="miter" fill="none" stroke="#000000" d="M0 0H12"/>
<path transform="matrix(1,0,0,-1,-13.5,71.95321)" stroke-width=".25" stroke-linecap="butt" stroke-miterlimit="10" stroke-linejoin="miter" fill="none" stroke="#000000" d="M0 0V-12"/>
<path transform="matrix(1,0,0,-1,-10.5,77.95321)" d="M0 0C0-1.657-1.343-3-3-3-4.657-3-6-1.657-6 0-6 1.657-4.657 3-3 3-1.343 3 0 1.657 0 0"/>
<path transform="matrix(1,0,0,-1,-16.5,77.95321)" stroke-width=".25" stroke-linecap="butt" stroke-miterlimit="10" stroke-linejoin="miter" fill="none" stroke="#ffffff" d="M0 0H6"/>
<path transform="matrix(1,0,0,-1,-13.5,74.95321)" stroke-width=".25" stroke-linecap="butt" stroke-miterlimit="10" stroke-linejoin="miter" fill="none" stroke="#ffffff" d="M0 0V-6"/>
<path transform="matrix(1,0,0,-1,259.4449,77.95321)" stroke-width="1.25" stroke-linecap="butt" stroke-miterlimit="10" stroke-linejoin="miter" fill="none" stroke="#ffffff" d="M0 0C0-2.761-2.239-5-5-5-7.761-5-10-2.761-10 0-10 2.761-7.761 5-5 5-2.239 5 0 2.761 0 0Z"/>
<path transform="matrix(1,0,0,-1,248.44489,77.95321)" stroke-width="1.25" stroke-linecap="butt" stroke-miterlimit="10" stroke-linejoin="miter" fill="none" stroke="#ffffff" d="M0 0H12"/>
<path transform="matrix(1,0,0,-1,254.44489,71.95321)" stroke-width="1.25" stroke-linecap="butt" stroke-miterlimit="10" stroke-linejoin="miter" fill="none" stroke="#ffffff" d="M0 0V-12"/>
<path transform="matrix(1,0,0,-1,257.4449,77.95321)" stroke-width="1.25" stroke-linecap="butt" stroke-miterlimit="10" stroke-linejoin="miter" fill="none" stroke="#ffffff" d="M0 0C0-1.657-1.343-3-3-3-4.657-3-6-1.657-6 0-6 1.657-4.657 3-3 3-1.343 3 0 1.657 0 0Z"/>
<path transform="matrix(1,0,0,-1,259.4449,77.95321)" stroke-width=".25" stroke-linecap="butt" stroke-miterlimit="10" stroke-linejoin="miter" fill="none" stroke="#000000" d="M0 0C0-2.761-2.239-5-5-5-7.761-5-10-2.761-10 0-10 2.761-7.761 5-5 5-2.239 5 0 2.761 0 0Z"/>
<path transform="matrix(1,0,0,-1,248.44489,77.95321)" stroke-width=".25" stroke-linecap="butt" stroke-miterlimit="10" stroke-linejoin="miter" fill="none" stroke="#000000" d="M0 0H12"/>
<path transform="matrix(1,0,0,-1,254.44489,71.95321)" stroke-width=".25" stroke-linecap="butt" stroke-miterlimit="10" stroke-linejoin="miter" fill="none" stroke="#000000" d="M0 0V-12"/>
<path transform="matrix(1,0,0,-1,257.4449,77.95321)" d="M0 0C0-1.657-1.343-3-3-3-4.657-3-6-1.657-6 0-6 1.657-4.657 3-3 3-1.343 3 0 1.657 0 0"/>
<path transform="matrix(1,0,0,-1,251.44489,77.95321)" stroke-width=".25" stroke-linecap="butt" stroke-miterlimit="10" stroke-linejoin="miter" fill="none" stroke="#ffffff" d="M0 0H6"/>
<path transform="matrix(1,0,0,-1,254.44489,74.95321)" stroke-width=".25" stroke-linecap="butt" stroke-miterlimit="10" stroke-linejoin="miter" fill="none" stroke="#ffffff" d="M0 0V-6"/>
<path transform="matrix(1,0,0,-1,-36.0276,-37.999498)" stroke-width="1" stroke-linecap="butt" stroke-miterlimit="10" stroke-linejoin="miter" fill="none" stroke="#595959" d="M0 0H14V-14H0Z"/>
</g>
<path transform="matrix(1,0,0,-1,-21,185.906)" d="M0 209.905H12.973V223.905H0Z" fill="#191919"/>
<g clip-path="url(#clip_7)">
<path transform="matrix(1,0,0,-1,-22.0276,-37.999498)" stroke-width="1" stroke-linecap="butt" stroke-miterlimit="10" stroke-linejoin="miter" fill="none" stroke="#595959" d="M0 0H14V-14H0Z"/>
</g>
<path transform="matrix(1,0,0,-1,-21,185.906)" d="M12.972 223.906H26.972V209.906H12.972Z" fill="#333333"/>
<g clip-path="url(#clip_8)">
<path transform="matrix(1,0,0,-1,-8.0276,-37.999498)" stroke-width="1" stroke-linecap="butt" stroke-miterlimit="10" stroke-linejoin="miter" fill="none" stroke="#595959" d="M0 0H14V-14H0Z"/>
</g>
<path transform="matrix(1,0,0,-1,-21,185.906)" d="M26.972 223.906H40.972V209.906H26.972Z" fill="#4c4d4c"/>
<g clip-path="url(#clip_9)">
<path transform="matrix(1,0,0,-1,5.9724009,-37.999498)" stroke-width="1" stroke-linecap="butt" stroke-miterlimit="10" stroke-linejoin="miter" fill="none" stroke="#595959" d="M0 0H14V-14H0Z"/>
</g>
<path transform="matrix(1,0,0,-1,-21,185.906)" d="M40.972 223.906H54.972V209.906H40.972Z" fill="#666666"/>
<g clip-path="url(#clip_10)">
<path transform="matrix(1,0,0,-1,19.9724,-37.999498)" stroke-width="1" stroke-linecap="butt" stroke-miterlimit="10" stroke-linejoin="miter" fill="none" stroke="#595959" d="M0 0H14V-14H0Z"/>
</g>
<path transform="matrix(1,0,0,-1,-21,185.906)" d="M54.972 223.906H68.972V209.906H54.972Z" fill="#7f807f"/>
<g clip-path="url(#clip_11)">
<path transform="matrix(1,0,0,-1,33.9724,-37.999498)" stroke-width="1" stroke-linecap="butt" stroke-miterlimit="10" stroke-linejoin="miter" fill="none" stroke="#595959" d="M0 0H14V-14H0Z"/>
</g>
<path transform="matrix(1,0,0,-1,-21,185.906)" d="M68.972 223.906H82.972V209.906H68.972Z" fill="#999999"/>
<g clip-path="url(#clip_12)">
<path transform="matrix(1,0,0,-1,47.972398,-37.999498)" stroke-width="1" stroke-linecap="butt" stroke-miterlimit="10" stroke-linejoin="miter" fill="none" stroke="#595959" d="M0 0H14V-14H0Z"/>
</g>
<path transform="matrix(1,0,0,-1,-21,185.906)" d="M82.972 223.906H96.972V209.906H82.972Z" fill="#b2b3b2"/>
<g clip-path="url(#clip_13)">
<path transform="matrix(1,0,0,-1,61.972398,-37.999498)" stroke-width="1" stroke-linecap="butt" stroke-miterlimit="10" stroke-linejoin="miter" fill="none" stroke="#595959" d="M0 0H14V-14H0Z"/>
</g>
<path transform="matrix(1,0,0,-1,-21,185.906)" d="M96.972 223.906H110.972V209.906H96.972Z" fill="#cccccc"/>
<g clip-path="url(#clip_14)">
<path transform="matrix(1,0,0,-1,75.9724,-37.999498)" stroke-width="1" stroke-linecap="butt" stroke-miterlimit="10" stroke-linejoin="miter" fill="none" stroke="#595959" d="M0 0H14V-14H0Z"/>
</g>
<path transform="matrix(1,0,0,-1,-21,185.906)" d="M110.972 223.906H124.972V209.906H110.972Z" fill="#e5e6e5"/>
<g clip-path="url(#clip_15)">
<path transform="matrix(1,0,0,-1,89.9724,-37.999498)" stroke-width="1" stroke-linecap="butt" stroke-miterlimit="10" stroke-linejoin="miter" fill="none" stroke="#595959" d="M0 0H14V-14H0Z"/>
</g>
<path transform="matrix(1,0,0,-1,-21,185.906)" d="M124.972 223.906H138.972V209.906H124.972Z" fill="#ffffff"/>
<g clip-path="url(#clip_16)">
<path transform="matrix(1,0,0,-1,103.9724,-37.999498)" stroke-width="1" stroke-linecap="butt" stroke-miterlimit="10" stroke-linejoin="miter" fill="none" stroke="#595959" d="M0 0H14V-14H0Z"/>
</g>
<path transform="matrix(1,0,0,-1,-21,185.906)" d="M143.972 223.906H157.972V209.906H143.972Z" fill="#fff200"/>
<g clip-path="url(#clip_17)">
<path transform="matrix(1,0,0,-1,122.9724,-37.999498)" stroke-width="1" stroke-linecap="butt" stroke-miterlimit="10" stroke-linejoin="miter" fill="none" stroke="#595959" d="M0 0H14V-14H0Z"/>
</g>
<path transform="matrix(1,0,0,-1,-21,185.906)" d="M157.972 223.906H171.972V209.906H157.972Z" fill="#ec008c"/>
<g clip-path="url(#clip_18)">
<path transform="matrix(1,0,0,-1,136.9724,-37.999498)" stroke-width="1" stroke-linecap="butt" stroke-miterlimit="10" stroke-linejoin="miter" fill="none" stroke="#595959" d="M0 0H14V-14H0Z"/>
</g>
<path transform="matrix(1,0,0,-1,-21,185.906)" d="M171.972 223.906H185.972V209.906H171.972Z" fill="#00aeef"/>
<g clip-path="url(#clip_19)">
<path transform="matrix(1,0,0,-1,150.9724,-37.999498)" stroke-width="1" stroke-linecap="butt" stroke-miterlimit="10" stroke-linejoin="miter" fill="none" stroke="#595959" d="M0 0H14V-14H0Z"/>
</g>
<path transform="matrix(1,0,0,-1,-21,185.906)" d="M185.972 223.906H199.972V209.906H185.972Z" fill="#2e3092"/>
<g clip-path="url(#clip_20)">
<path transform="matrix(1,0,0,-1,164.9724,-37.999498)" stroke-width="1" stroke-linecap="butt" stroke-miterlimit="10" stroke-linejoin="miter" fill="none" stroke="#595959" d="M0 0H14V-14H0Z"/>
</g>
<path transform="matrix(1,0,0,-1,-21,185.906)" d="M199.972 223.906H213.972V209.906H199.972Z" fill="#00a650"/>
<g clip-path="url(#clip_21)">
<path transform="matrix(1,0,0,-1,178.9724,-37.999498)" stroke-width="1" stroke-linecap="butt" stroke-miterlimit="10" stroke-linejoin="miter" fill="none" stroke="#595959" d="M0 0H14V-14H0Z"/>
</g>
<path transform="matrix(1,0,0,-1,-21,185.906)" d="M213.972 223.906H227.972V209.906H213.972Z" fill="#ed1c24"/>
<g clip-path="url(#clip_22)">
<path transform="matrix(1,0,0,-1,192.9724,-37.999498)" stroke-width="1" stroke-linecap="butt" stroke-miterlimit="10" stroke-linejoin="miter" fill="none" stroke="#595959" d="M0 0H14V-14H0Z"/>
</g>
<path transform="matrix(1,0,0,-1,-21,185.906)" d="M227.972 223.906H241.972V209.906H227.972Z" fill="#231f20"/>
<g clip-path="url(#clip_23)">
<path transform="matrix(1,0,0,-1,206.9724,-37.999498)" stroke-width="1" stroke-linecap="butt" stroke-miterlimit="10" stroke-linejoin="miter" fill="none" stroke="#595959" d="M0 0H14V-14H0Z"/>
</g>
<path transform="matrix(1,0,0,-1,-21,185.906)" d="M241.972 223.906H255.972V209.906H241.972Z" fill="#fff799"/>
<g clip-path="url(#clip_24)">
<path transform="matrix(1,0,0,-1,220.9724,-37.999498)" stroke-width="1" stroke-linecap="butt" stroke-miterlimit="10" stroke-linejoin="miter" fill="none" stroke="#595959" d="M0 0H14V-14H0Z"/>
</g>
<path transform="matrix(1,0,0,-1,-21,185.906)" d="M255.972 223.906H269.972V209.906H255.972Z" fill="#f49ac1"/>
<g clip-path="url(#clip_25)">
<path transform="matrix(1,0,0,-1,234.9724,-37.999498)" stroke-width="1" stroke-linecap="butt" stroke-miterlimit="10" stroke-linejoin="miter" fill="none" stroke="#595959" d="M0 0H14V-14H0Z"/>
</g>
<path transform="matrix(1,0,0,-1,-21,185.906)" d="M269.972 209.905H282.94499V223.905H269.972Z" fill="#6dcff6"/>
<g clip-path="url(#clip_26)">
<path transform="matrix(1,0,0,-1,248.97241,-37.999498)" stroke-width="1" stroke-linecap="butt" stroke-miterlimit="10" stroke-linejoin="miter" fill="none" stroke="#595959" d="M0 0H14V-14H0Z"/>
<path transform="matrix(1,0,0,-1,-21,185.906)" d="M283.972 223.906H297.972V209.906H283.972Z" fill="#939598"/>
<path transform="matrix(1,0,0,-1,262.9724,-37.999498)" stroke-width="1" stroke-linecap="butt" stroke-miterlimit="10" stroke-linejoin="miter" fill="none" stroke="#595959" d="M0 0H14V-14H0Z"/>
<use data-text="T" xlink:href="#font_27_55" stroke-width=".06666667" stroke-linecap="butt" stroke-miterlimit="10" stroke-linejoin="miter" transform="matrix(6,0,0,-6,-21,182.906)" fill="none" stroke="#ffffff"/>
<use data-text="e" xlink:href="#font_27_72" stroke-width=".06666667" stroke-linecap="butt" stroke-miterlimit="10" stroke-linejoin="miter" transform="matrix(6,0,0,-6,-17.334,182.906)" fill="none" stroke="#ffffff"/>
<use data-text="s" xlink:href="#font_27_86" stroke-width=".06666667" stroke-linecap="butt" stroke-miterlimit="10" stroke-linejoin="miter" transform="matrix(6,0,0,-6,-13.997999,182.906)" fill="none" stroke="#ffffff"/>
<use data-text="t" xlink:href="#font_27_87" stroke-width=".06666667" stroke-linecap="butt" stroke-miterlimit="10" stroke-linejoin="miter" transform="matrix(6,0,0,-6,-10.997999,182.906)" fill="none" stroke="#ffffff"/>
<use data-text=" " xlink:href="#font_27_3" stroke-width=".06666667" stroke-linecap="butt" stroke-miterlimit="10" stroke-linejoin="miter" transform="matrix(6,0,0,-6,-9.329999,182.906)" fill="none" stroke="#ffffff"/>
<use data-text="W" xlink:href="#font_27_58" stroke-width=".06666667" stroke-linecap="butt" stroke-miterlimit="10" stroke-linejoin="miter" transform="matrix(6,0,0,-6,-7.6619989,182.906)" fill="none" stroke="#ffffff"/>
<use data-text="a" xlink:href="#font_27_68" stroke-width=".06666667" stroke-linecap="butt" stroke-miterlimit="10" stroke-linejoin="miter" transform="matrix(6,0,0,-6,-1.9979973,182.906)" fill="none" stroke="#ffffff"/>
<use data-text="h" xlink:href="#font_27_75" stroke-width=".06666667" stroke-linecap="butt" stroke-miterlimit="10" stroke-linejoin="miter" transform="matrix(6,0,0,-6,1.3380032,182.906)" fill="none" stroke="#ffffff"/>
<use data-text="l" xlink:href="#font_27_79" stroke-width=".06666667" stroke-linecap="butt" stroke-miterlimit="10" stroke-linejoin="miter" transform="matrix(6,0,0,-6,4.6740038,182.906)" fill="none" stroke="#ffffff"/>
<use data-text="." xlink:href="#font_27_17" stroke-width=".06666667" stroke-linecap="butt" stroke-miterlimit="10" stroke-linejoin="miter" transform="matrix(6,0,0,-6,6.0060045,182.906)" fill="none" stroke="#ffffff"/>
<use data-text="i" xlink:href="#font_27_76" stroke-width=".06666667" stroke-linecap="butt" stroke-miterlimit="10" stroke-linejoin="miter" transform="matrix(6,0,0,-6,7.6740038,182.906)" fill="none" stroke="#ffffff"/>
<use data-text="n" xlink:href="#font_27_81" stroke-width=".06666667" stroke-linecap="butt" stroke-miterlimit="10" stroke-linejoin="miter" transform="matrix(6,0,0,-6,9.006004,182.906)" fill="none" stroke="#ffffff"/>
<use data-text="d" xlink:href="#font_27_71" stroke-width=".06666667" stroke-linecap="butt" stroke-miterlimit="10" stroke-linejoin="miter" transform="matrix(6,0,0,-6,12.342003,182.906)" fill="none" stroke="#ffffff"/>
<use data-text="d" xlink:href="#font_27_71" stroke-width=".06666667" stroke-linecap="butt" stroke-miterlimit="10" stroke-linejoin="miter" transform="matrix(6,0,0,-6,15.678001,182.906)" fill="none" stroke="#ffffff"/>
<use data-text=" " xlink:href="#font_27_3" stroke-width=".06666667" stroke-linecap="butt" stroke-miterlimit="10" stroke-linejoin="miter" transform="matrix(6,0,0,-6,19.014,182.906)" fill="none" stroke="#ffffff"/>
<use data-text=" " xlink:href="#font_27_3" stroke-width=".06666667" stroke-linecap="butt" stroke-miterlimit="10" stroke-linejoin="miter" transform="matrix(6,0,0,-6,20.682,182.906)" fill="none" stroke="#ffffff"/>
<use data-text=" " xlink:href="#font_27_3" stroke-width=".06666667" stroke-linecap="butt" stroke-miterlimit="10" stroke-linejoin="miter" transform="matrix(6,0,0,-6,22.349999,182.906)" fill="none" stroke="#ffffff"/>
<use data-text="3" xlink:href="#font_27_22" stroke-width=".06666667" stroke-linecap="butt" stroke-miterlimit="10" stroke-linejoin="miter" transform="matrix(6,0,0,-6,24.017998,182.906)" fill="none" stroke="#ffffff"/>
<use data-text="T" xlink:href="#font_27_55" transform="matrix(6,0,0,-6,-21,182.906)"/>
<use data-text="e" xlink:href="#font_27_72" transform="matrix(6,0,0,-6,-17.334,182.906)"/>
<use data-text="s" xlink:href="#font_27_86" transform="matrix(6,0,0,-6,-13.997999,182.906)"/>
<use data-text="t" xlink:href="#font_27_87" transform="matrix(6,0,0,-6,-10.997999,182.906)"/>
<use data-text=" " xlink:href="#font_27_3" transform="matrix(6,0,0,-6,-9.329999,182.906)"/>
<use data-text="W" xlink:href="#font_27_58" transform="matrix(6,0,0,-6,-7.6619989,182.906)"/>
<use data-text="a" xlink:href="#font_27_68" transform="matrix(6,0,0,-6,-1.9979973,182.906)"/>
<use data-text="h" xlink:href="#font_27_75" transform="matrix(6,0,0,-6,1.3380032,182.906)"/>
<use data-text="l" xlink:href="#font_27_79" transform="matrix(6,0,0,-6,4.6740038,182.906)"/>
<use data-text="." xlink:href="#font_27_17" transform="matrix(6,0,0,-6,6.0060045,182.906)"/>
<use data-text="i" xlink:href="#font_27_76" transform="matrix(6,0,0,-6,7.6740038,182.906)"/>
<use data-text="n" xlink:href="#font_27_81" transform="matrix(6,0,0,-6,9.006004,182.906)"/>
<use data-text="d" xlink:href="#font_27_71" transform="matrix(6,0,0,-6,12.342003,182.906)"/>
<use data-text="d" xlink:href="#font_27_71" transform="matrix(6,0,0,-6,15.678001,182.906)"/>
<use data-text=" " xlink:href="#font_27_3" transform="matrix(6,0,0,-6,19.014,182.906)"/>
<use data-text=" " xlink:href="#font_27_3" transform="matrix(6,0,0,-6,20.682,182.906)"/>
<use data-text=" " xlink:href="#font_27_3" transform="matrix(6,0,0,-6,22.349999,182.906)"/>
<use data-text="3" xlink:href="#font_27_22" transform="matrix(6,0,0,-6,24.017998,182.906)"/>
<use data-text="0" xlink:href="#font_27_19" stroke-width=".06666667" stroke-linecap="butt" stroke-miterlimit="10" stroke-linejoin="miter" transform="matrix(6,0,0,-6,213.94202,182.906)" fill="none" stroke="#ffffff"/>
<use data-text="8" xlink:href="#font_27_27" stroke-width=".06666667" stroke-linecap="butt" stroke-miterlimit="10" stroke-linejoin="miter" transform="matrix(6,0,0,-6,217.27802,182.906)" fill="none" stroke="#ffffff"/>
<use data-text="." xlink:href="#font_27_17" stroke-width=".06666667" stroke-linecap="butt" stroke-miterlimit="10" stroke-linejoin="miter" transform="matrix(6,0,0,-6,220.61402,182.906)" fill="none" stroke="#ffffff"/>
<use data-text="1" xlink:href="#font_27_20" stroke-width=".06666667" stroke-linecap="butt" stroke-miterlimit="10" stroke-linejoin="miter" transform="matrix(6,0,0,-6,222.28202,182.906)" fill="none" stroke="#ffffff"/>
<use data-text="2" xlink:href="#font_27_21" stroke-width=".06666667" stroke-linecap="butt" stroke-miterlimit="10" stroke-linejoin="miter" transform="matrix(6,0,0,-6,225.61801,182.906)" fill="none" stroke="#ffffff"/>
<use data-text="." xlink:href="#font_27_17" stroke-width=".06666667" stroke-linecap="butt" stroke-miterlimit="10" stroke-linejoin="miter" transform="matrix(6,0,0,-6,228.95401,182.906)" fill="none" stroke="#ffffff"/>
<use data-text="2" xlink:href="#font_27_21" stroke-width=".06666667" stroke-linecap="butt" stroke-miterlimit="10" stroke-linejoin="miter" transform="matrix(6,0,0,-6,230.62201,182.906)" fill="none" stroke="#ffffff"/>
<use data-text="5" xlink:href="#font_27_24" stroke-width=".06666667" stroke-linecap="butt" stroke-miterlimit="10" stroke-linejoin="miter" transform="matrix(6,0,0,-6,233.95801,182.906)" fill="none" stroke="#ffffff"/>
<use data-text=" " xlink:href="#font_27_3" stroke-width=".06666667" stroke-linecap="butt" stroke-miterlimit="10" stroke-linejoin="miter" transform="matrix(6,0,0,-6,237.294,182.906)" fill="none" stroke="#ffffff"/>
<use data-text=" " xlink:href="#font_27_3" stroke-width=".06666667" stroke-linecap="butt" stroke-miterlimit="10" stroke-linejoin="miter" transform="matrix(6,0,0,-6,238.962,182.906)" fill="none" stroke="#ffffff"/>
<use data-text=" " xlink:href="#font_27_3" stroke-width=".06666667" stroke-linecap="butt" stroke-miterlimit="10" stroke-linejoin="miter" transform="matrix(6,0,0,-6,240.63,182.906)" fill="none" stroke="#ffffff"/>
<use data-text="1" xlink:href="#font_27_20" stroke-width=".06666667" stroke-linecap="butt" stroke-miterlimit="10" stroke-linejoin="miter" transform="matrix(6,0,0,-6,242.298,182.906)" fill="none" stroke="#ffffff"/>
<use data-text="3" xlink:href="#font_27_22" stroke-width=".06666667" stroke-linecap="butt" stroke-miterlimit="10" stroke-linejoin="miter" transform="matrix(6,0,0,-6,245.634,182.906)" fill="none" stroke="#ffffff"/>
<use data-text=":" xlink:href="#font_27_29" stroke-width=".06666667" stroke-linecap="butt" stroke-miterlimit="10" stroke-linejoin="miter" transform="matrix(6,0,0,-6,248.97,182.906)" fill="none" stroke="#ffffff"/>
<use data-text="1" xlink:href="#font_27_20" stroke-width=".06666667" stroke-linecap="butt" stroke-miterlimit="10" stroke-linejoin="miter" transform="matrix(6,0,0,-6,250.638,182.906)" fill="none" stroke="#ffffff"/>
<use data-text="0" xlink:href="#font_27_19" stroke-width=".06666667" stroke-linecap="butt" stroke-miterlimit="10" stroke-linejoin="miter" transform="matrix(6,0,0,-6,253.974,182.906)" fill="none" stroke="#ffffff"/>
<use data-text="0" xlink:href="#font_27_19" transform="matrix(6,0,0,-6,213.94202,182.906)"/>
<use data-text="8" xlink:href="#font_27_27" transform="matrix(6,0,0,-6,217.27802,182.906)"/>
<use data-text="." xlink:href="#font_27_17" transform="matrix(6,0,0,-6,220.61402,182.906)"/>
<use data-text="1" xlink:href="#font_27_20" transform="matrix(6,0,0,-6,222.28202,182.906)"/>
<use data-text="2" xlink:href="#font_27_21" transform="matrix(6,0,0,-6,225.61801,182.906)"/>
<use data-text="." xlink:href="#font_27_17" transform="matrix(6,0,0,-6,228.95401,182.906)"/>
<use data-text="2" xlink:href="#font_27_21" transform="matrix(6,0,0,-6,230.62201,182.906)"/>
<use data-text="5" xlink:href="#font_27_24" transform="matrix(6,0,0,-6,233.95801,182.906)"/>
<use data-text=" " xlink:href="#font_27_3" transform="matrix(6,0,0,-6,237.294,182.906)"/>
<use data-text=" " xlink:href="#font_27_3" transform="matrix(6,0,0,-6,238.962,182.906)"/>
<use data-text=" " xlink:href="#font_27_3" transform="matrix(6,0,0,-6,240.63,182.906)"/>
<use data-text="1" xlink:href="#font_27_20" transform="matrix(6,0,0,-6,242.298,182.906)"/>
<use data-text="3" xlink:href="#font_27_22" transform="matrix(6,0,0,-6,245.634,182.906)"/>
<use data-text=":" xlink:href="#font_27_29" transform="matrix(6,0,0,-6,248.97,182.906)"/>
<use data-text="1" xlink:href="#font_27_20" transform="matrix(6,0,0,-6,250.638,182.906)"/>
<use data-text="0" xlink:href="#font_27_19" transform="matrix(6,0,0,-6,253.974,182.906)"/>
</g>
</g>
</svg>
