<svg version="1.1" id="SVG" xmlns="http://www.w3.org/2000/svg" xmlns:xlink="http://www.w3.org/1999/xlink" x="0px" y="0px"
     width="193.89px" height="303.307px" viewBox="0 0 193.89 303.307" enable-background="new 0 0 193.89 303.307"
     xml:space="preserve">
    <g id="all">
    <g>
	<g transform="translate(-12,0)">
	<rect x="24.702" y="17.63" fill="#0066B3" width="44.907" height="22.772" />
	<rect x="24.702" y="40.403" fill="#FFFFFF" width="44.91" height="2.259" />
	<rect x="24.702" y="42.661" fill="#F27021" width="44.907" height="4.992" />
	<defs>
		<rect id="SVGID_1_" width="193.89" height="303.307"/>
	</defs>
	<clipPath id="SVGID_2_">
		<use xlink:href="#SVGID_1_"  overflow="visible"/>
	</clipPath>
	<path clip-path="url(#SVGID_2_)" fill="#FFFFFF" d="M32.385,24.735l1.368,5.499h4.831l4.325,18.179h8.794l2.957-17.238
		c0.01-1.456,1.778-1.44,1.714,0.088c-0.048,1.162-0.288,2.954,0.377,3.293c1.385,0.705,3.316,0.514,4.109-3.16
		c0.793-3.674,1.442-6.661,1.442-6.661h-7.858c-0.721,0-3.244,0-4.686,5.499c-1.442,5.499-2.524,10.504-2.524,10.504l-3.821-16.003
		H32.385z"/>
	<path clip-path="url(#SVGID_2_)" fill="#0066B3" d="M78.505,23.584h3.993v-4.14h2.1v10.364h-2.1V25.36h-3.993v4.448H76.39V19.444
		h2.115V23.584z M91.308,25.258c-0.019-0.216-0.049-0.429-0.088-0.639c-0.04-0.211-0.139-0.419-0.294-0.625
		c-0.117-0.156-0.24-0.276-0.367-0.36c-0.127-0.083-0.25-0.142-0.367-0.182c-0.118-0.04-0.223-0.064-0.316-0.075
		c-0.093-0.009-0.159-0.013-0.199-0.013c-0.029,0-0.097,0.004-0.205,0.013c-0.108,0.011-0.233,0.037-0.374,0.082
		c-0.142,0.045-0.289,0.117-0.441,0.22c-0.151,0.102-0.29,0.247-0.418,0.433c-0.156,0.254-0.252,0.489-0.286,0.705
		c-0.034,0.215-0.056,0.362-0.066,0.441H91.308z M87.887,26.653c0.01,0.019,0.034,0.114,0.073,0.285
		c0.04,0.172,0.108,0.331,0.205,0.478c0.128,0.215,0.277,0.389,0.448,0.521c0.171,0.132,0.347,0.235,0.528,0.308
		c0.181,0.074,0.366,0.125,0.551,0.155c0.186,0.029,0.363,0.044,0.529,0.044c0.294,0,0.595-0.034,0.903-0.103
		c0.309-0.069,0.609-0.176,0.902-0.323c0.118-0.049,0.238-0.113,0.361-0.191c0.122-0.078,0.197-0.127,0.227-0.147l0.03,1.718
		c-0.294,0.127-0.649,0.255-1.065,0.381c-0.415,0.127-0.946,0.191-1.593,0.191h-0.264c-0.118,0-0.253-0.007-0.404-0.022
		c-0.152-0.015-0.321-0.042-0.507-0.081s-0.372-0.093-0.557-0.16c-0.303-0.119-0.595-0.276-0.874-0.477
		c-0.279-0.201-0.524-0.451-0.734-0.75c-0.211-0.298-0.379-0.648-0.507-1.05c-0.127-0.401-0.191-0.862-0.191-1.379
		c0-0.48,0.044-0.887,0.132-1.22c0.089-0.332,0.176-0.597,0.265-0.793c0.049-0.087,0.098-0.181,0.146-0.279
		c0.049-0.098,0.079-0.156,0.089-0.175c0.049-0.069,0.095-0.134,0.139-0.199c0.044-0.063,0.096-0.124,0.154-0.184
		c0.285-0.341,0.652-0.635,1.102-0.88c0.449-0.245,1.017-0.367,1.702-0.367c0.627,0,1.159,0.108,1.593,0.323
		c0.436,0.216,0.793,0.502,1.072,0.86c0.28,0.357,0.483,0.772,0.61,1.247c0.127,0.474,0.191,0.972,0.191,1.49v0.397
		c0,0.116-0.005,0.245-0.015,0.382H87.887z M94.347,22.116h1.997v7.694h-1.997V22.116z M94.347,18.856h1.997v1.85h-1.997V18.856z
		 M101.365,23.628c-0.227,0-0.425,0.033-0.603,0.102c-0.166,0.069-0.301,0.149-0.403,0.243c-0.103,0.092-0.179,0.178-0.228,0.257
		c-0.137,0.176-0.25,0.406-0.338,0.69c-0.088,0.284-0.127,0.632-0.117,1.043v0.22c0,0.108,0.01,0.235,0.029,0.381
		c0.021,0.147,0.051,0.303,0.095,0.47c0.044,0.166,0.11,0.328,0.199,0.485c0.029,0.049,0.074,0.117,0.132,0.205
		c0.06,0.088,0.152,0.186,0.279,0.294c0.166,0.137,0.333,0.232,0.499,0.286c0.165,0.054,0.333,0.081,0.499,0.081
		c0.06,0,0.166-0.01,0.323-0.029c0.155-0.02,0.317-0.084,0.484-0.191c0.166-0.098,0.32-0.233,0.463-0.404
		c0.142-0.171,0.262-0.419,0.359-0.742c0.078-0.225,0.122-0.431,0.132-0.617c0.009-0.186,0.016-0.312,0.016-0.381
		c0-0.147-0.014-0.31-0.037-0.491c-0.025-0.182-0.065-0.366-0.125-0.552c-0.06-0.185-0.142-0.364-0.25-0.535
		c-0.108-0.172-0.244-0.326-0.411-0.463c-0.088-0.078-0.22-0.157-0.396-0.235S101.589,23.628,101.365,23.628 M105.182,18.592v11.216
		h-1.893v-1.496c-0.049,0.117-0.093,0.229-0.133,0.337c-0.039,0.108-0.107,0.221-0.205,0.338c-0.196,0.255-0.472,0.478-0.83,0.668
		c-0.357,0.191-0.801,0.286-1.328,0.286c-0.098,0-0.27-0.011-0.514-0.037c-0.245-0.024-0.509-0.104-0.793-0.241
		c-0.56-0.265-1.015-0.701-1.367-1.307c-0.35-0.607-0.527-1.396-0.527-2.364c0-0.734,0.096-1.349,0.285-1.843
		c0.191-0.495,0.429-0.899,0.713-1.211c0.284-0.293,0.55-0.497,0.8-0.609c0.25-0.113,0.43-0.184,0.537-0.213
		c0.205-0.059,0.394-0.093,0.565-0.103c0.171-0.01,0.297-0.015,0.374-0.015c0.342,0,0.697,0.062,1.063,0.183
		c0.367,0.123,0.693,0.38,0.978,0.772c0.058,0.088,0.11,0.173,0.154,0.257c0.044,0.082,0.104,0.207,0.184,0.374v-4.992H105.182z
		 M111.805,25.258c-0.021-0.216-0.05-0.429-0.089-0.639c-0.039-0.211-0.137-0.419-0.294-0.625c-0.117-0.156-0.24-0.276-0.367-0.36
		c-0.128-0.083-0.25-0.142-0.366-0.182c-0.118-0.04-0.224-0.064-0.317-0.075c-0.092-0.009-0.158-0.013-0.196-0.013
		c-0.03,0-0.098,0.004-0.205,0.013c-0.108,0.011-0.232,0.037-0.376,0.082c-0.142,0.045-0.288,0.117-0.439,0.22
		c-0.151,0.102-0.291,0.247-0.419,0.433c-0.157,0.254-0.252,0.489-0.286,0.705c-0.034,0.215-0.056,0.362-0.067,0.441H111.805z
		 M108.382,26.653c0.012,0.019,0.035,0.114,0.074,0.285c0.04,0.172,0.108,0.331,0.206,0.478c0.127,0.215,0.276,0.389,0.448,0.521
		c0.171,0.132,0.348,0.235,0.528,0.308c0.182,0.074,0.363,0.125,0.55,0.155c0.187,0.029,0.362,0.044,0.528,0.044
		c0.294,0,0.596-0.034,0.903-0.103c0.309-0.069,0.61-0.176,0.904-0.323c0.116-0.049,0.236-0.113,0.359-0.191
		c0.122-0.078,0.198-0.127,0.227-0.147l0.03,1.718c-0.294,0.127-0.648,0.255-1.064,0.381c-0.416,0.127-0.948,0.191-1.592,0.191
		h-0.268c-0.117,0-0.25-0.007-0.4-0.022c-0.152-0.015-0.322-0.042-0.507-0.081c-0.188-0.039-0.373-0.093-0.56-0.16
		c-0.303-0.119-0.595-0.276-0.873-0.477c-0.28-0.201-0.524-0.451-0.733-0.75c-0.213-0.298-0.381-0.648-0.508-1.05
		c-0.127-0.401-0.19-0.862-0.19-1.379c0-0.48,0.044-0.887,0.132-1.22c0.089-0.332,0.177-0.597,0.265-0.793
		c0.047-0.087,0.097-0.181,0.146-0.279s0.079-0.156,0.089-0.175c0.049-0.069,0.095-0.134,0.14-0.199
		c0.043-0.063,0.095-0.124,0.155-0.184c0.282-0.341,0.649-0.635,1.1-0.88s1.019-0.367,1.704-0.367c0.625,0,1.156,0.108,1.593,0.323
		c0.435,0.216,0.793,0.502,1.072,0.86c0.278,0.357,0.481,0.772,0.609,1.247c0.127,0.474,0.189,0.972,0.189,1.49v0.397
		c0,0.116-0.006,0.245-0.014,0.382H108.382z M120.07,29.808v-3.713c-0.009-0.46-0.03-0.825-0.06-1.094
		c-0.028-0.27-0.096-0.512-0.206-0.728c-0.066-0.127-0.145-0.232-0.232-0.315c-0.089-0.083-0.201-0.159-0.339-0.228
		c-0.049-0.02-0.124-0.044-0.228-0.073c-0.103-0.029-0.223-0.044-0.359-0.044c-0.069-0.01-0.198,0.002-0.39,0.036
		c-0.19,0.034-0.395,0.135-0.609,0.302c-0.177,0.136-0.315,0.288-0.418,0.455c-0.104,0.166-0.18,0.347-0.228,0.543
		c-0.051,0.196-0.084,0.399-0.104,0.61c-0.02,0.21-0.028,0.428-0.028,0.652v3.597h-2.013v-5.843c0-0.343-0.004-0.65-0.015-0.924
		c-0.01-0.274-0.023-0.583-0.044-0.925h1.924v1.19c0.09-0.118,0.188-0.237,0.293-0.353c0.147-0.167,0.294-0.294,0.44-0.382
		c0.147-0.088,0.245-0.147,0.294-0.176c0.294-0.167,0.568-0.274,0.822-0.324c0.255-0.048,0.524-0.073,0.808-0.073
		c0.372,0,0.678,0.039,0.917,0.118c0.24,0.078,0.439,0.166,0.596,0.264c0.077,0.049,0.174,0.12,0.285,0.213
		c0.114,0.093,0.238,0.238,0.375,0.434c0.118,0.156,0.208,0.327,0.272,0.514c0.062,0.184,0.11,0.39,0.14,0.615
		c0.028,0.226,0.049,0.48,0.059,0.764c0.01,0.284,0.019,0.602,0.028,0.954v3.934H120.07z M125.68,18.592v4.684
		c0.059-0.088,0.123-0.181,0.197-0.279c0.073-0.098,0.192-0.215,0.36-0.352c0.205-0.167,0.411-0.294,0.617-0.382
		c0.205-0.089,0.395-0.152,0.571-0.192c0.177-0.038,0.33-0.06,0.463-0.066c0.133-0.005,0.228-0.007,0.287-0.007
		c0.37,0,0.69,0.044,0.959,0.132c0.271,0.089,0.479,0.181,0.626,0.279c0.265,0.167,0.47,0.365,0.616,0.596
		c0.147,0.23,0.257,0.495,0.33,0.799c0.074,0.303,0.121,0.639,0.14,1.005c0.02,0.368,0.03,0.777,0.03,1.227v3.772h-1.981v-3.904
		c-0.012-0.255-0.029-0.544-0.052-0.867c-0.026-0.323-0.112-0.607-0.257-0.852c-0.03-0.058-0.075-0.125-0.133-0.198
		c-0.059-0.074-0.157-0.149-0.294-0.228c-0.136-0.078-0.271-0.125-0.404-0.139c-0.132-0.015-0.218-0.022-0.257-0.022
		c-0.362,0-0.659,0.073-0.888,0.22c-0.231,0.147-0.404,0.314-0.521,0.5c-0.107,0.156-0.188,0.328-0.243,0.513
		c-0.054,0.187-0.091,0.375-0.108,0.566c-0.021,0.191-0.032,0.379-0.038,0.566c-0.004,0.186-0.006,0.357-0.006,0.513v3.332h-1.997
		V18.592H125.68z M137.498,25.258c-0.019-0.216-0.049-0.429-0.087-0.639c-0.04-0.211-0.138-0.419-0.295-0.625
		c-0.117-0.156-0.24-0.276-0.367-0.36c-0.128-0.083-0.249-0.142-0.368-0.182c-0.117-0.04-0.222-0.064-0.314-0.075
		c-0.094-0.009-0.159-0.013-0.199-0.013c-0.028,0-0.098,0.004-0.205,0.013c-0.108,0.011-0.232,0.037-0.373,0.082
		c-0.144,0.045-0.291,0.117-0.441,0.22c-0.151,0.102-0.291,0.247-0.419,0.433c-0.155,0.254-0.252,0.489-0.284,0.705
		c-0.035,0.215-0.059,0.362-0.067,0.441H137.498z M134.077,26.653c0.009,0.019,0.034,0.114,0.074,0.285
		c0.038,0.172,0.106,0.331,0.205,0.478c0.127,0.215,0.274,0.389,0.445,0.521c0.175,0.132,0.35,0.235,0.53,0.308
		c0.18,0.074,0.364,0.125,0.551,0.155c0.186,0.029,0.362,0.044,0.528,0.044c0.294,0,0.595-0.034,0.904-0.103
		c0.308-0.069,0.607-0.176,0.9-0.323c0.118-0.049,0.238-0.113,0.36-0.191c0.123-0.078,0.198-0.127,0.228-0.147l0.03,1.718
		c-0.294,0.127-0.648,0.255-1.063,0.381c-0.416,0.127-0.948,0.191-1.595,0.191h-0.264c-0.118,0-0.253-0.007-0.404-0.022
		s-0.32-0.042-0.507-0.081c-0.186-0.039-0.372-0.093-0.557-0.16c-0.304-0.119-0.595-0.276-0.874-0.477
		c-0.279-0.201-0.524-0.451-0.734-0.75c-0.21-0.298-0.38-0.648-0.507-1.05c-0.128-0.401-0.191-0.862-0.191-1.379
		c0-0.48,0.045-0.887,0.134-1.22c0.088-0.332,0.175-0.597,0.264-0.793c0.049-0.087,0.098-0.181,0.146-0.279
		c0.05-0.098,0.078-0.156,0.089-0.175c0.049-0.069,0.096-0.134,0.139-0.199c0.044-0.063,0.096-0.124,0.154-0.184
		c0.284-0.341,0.651-0.635,1.102-0.88c0.451-0.245,1.017-0.367,1.702-0.367c0.628,0,1.159,0.108,1.594,0.323
		c0.437,0.216,0.793,0.502,1.072,0.86c0.278,0.357,0.481,0.772,0.609,1.247c0.127,0.474,0.19,0.972,0.19,1.49v0.397
		c0,0.116-0.005,0.245-0.015,0.382H134.077z M140.537,22.116h1.996v7.694h-1.996V22.116z M140.537,18.856h1.996v1.85h-1.996V18.856z
		 M155.659,29.808h-1.98V25.86c0-0.48-0.021-0.882-0.061-1.205c-0.039-0.323-0.181-0.582-0.425-0.778
		c-0.156-0.107-0.307-0.171-0.448-0.191c-0.141-0.019-0.232-0.029-0.271-0.029c-0.205,0-0.377,0.034-0.514,0.102
		c-0.138,0.069-0.245,0.138-0.323,0.206c-0.167,0.147-0.296,0.323-0.39,0.529c-0.093,0.205-0.161,0.416-0.205,0.632
		c-0.043,0.215-0.071,0.428-0.081,0.638c-0.009,0.211-0.014,0.394-0.014,0.551c-0.01,0.098-0.016,0.186-0.016,0.264v0.279v2.95
		h-1.981v-4.374c0-0.108-0.002-0.233-0.007-0.375c-0.005-0.141-0.023-0.284-0.053-0.425c-0.028-0.143-0.075-0.279-0.139-0.412
		c-0.063-0.132-0.159-0.252-0.287-0.36c-0.137-0.117-0.275-0.184-0.419-0.205c-0.142-0.02-0.23-0.029-0.271-0.029
		c-0.06,0-0.172,0.017-0.337,0.051c-0.166,0.034-0.337,0.12-0.515,0.257c-0.283,0.225-0.475,0.511-0.572,0.859
		c-0.099,0.348-0.147,0.8-0.147,1.359v3.654h-1.996v-6.254c-0.009-0.264-0.017-0.503-0.022-0.719
		c-0.007-0.215-0.014-0.455-0.021-0.719h1.908v1.174c0.118-0.166,0.214-0.29,0.287-0.374c0.073-0.083,0.148-0.159,0.228-0.228
		c0.195-0.176,0.396-0.311,0.601-0.404c0.207-0.092,0.398-0.161,0.581-0.205c0.18-0.044,0.337-0.071,0.47-0.081
		c0.132-0.01,0.222-0.014,0.271-0.014c0.157,0,0.318,0.014,0.485,0.043c0.166,0.03,0.335,0.082,0.507,0.154
		c0.171,0.074,0.335,0.172,0.491,0.294c0.157,0.123,0.304,0.282,0.439,0.478c0.061,0.098,0.104,0.179,0.134,0.241
		c0.029,0.065,0.068,0.145,0.117,0.243c0.09-0.147,0.165-0.262,0.233-0.345c0.07-0.083,0.133-0.154,0.192-0.214
		c0.205-0.233,0.426-0.41,0.66-0.527c0.235-0.118,0.453-0.204,0.653-0.257c0.201-0.054,0.377-0.083,0.529-0.089
		c0.152-0.005,0.252-0.007,0.301-0.007c0.06,0,0.167,0.005,0.324,0.015c0.156,0.01,0.334,0.051,0.534,0.125
		c0.201,0.073,0.407,0.193,0.617,0.36c0.21,0.166,0.398,0.401,0.564,0.703c0.177,0.343,0.282,0.676,0.316,0.999
		c0.035,0.323,0.051,0.651,0.051,0.984V29.808z M162.281,25.258c-0.02-0.216-0.049-0.429-0.087-0.639
		c-0.039-0.211-0.138-0.419-0.294-0.625c-0.117-0.156-0.24-0.276-0.367-0.36c-0.128-0.083-0.25-0.142-0.368-0.182
		c-0.117-0.04-0.222-0.064-0.316-0.075c-0.093-0.009-0.158-0.013-0.197-0.013c-0.029,0-0.099,0.004-0.204,0.013
		c-0.109,0.011-0.232,0.037-0.375,0.082c-0.144,0.045-0.289,0.117-0.441,0.22c-0.151,0.102-0.29,0.247-0.418,0.433
		c-0.157,0.254-0.252,0.489-0.286,0.705c-0.033,0.215-0.057,0.362-0.066,0.441H162.281z M158.86,26.653
		c0.01,0.019,0.035,0.114,0.074,0.285c0.038,0.172,0.107,0.331,0.205,0.478c0.128,0.215,0.276,0.389,0.447,0.521
		c0.172,0.132,0.349,0.235,0.53,0.308c0.179,0.074,0.363,0.125,0.549,0.155c0.187,0.029,0.363,0.044,0.529,0.044
		c0.294,0,0.595-0.034,0.902-0.103c0.31-0.069,0.61-0.176,0.903-0.323c0.117-0.049,0.237-0.113,0.36-0.191
		c0.122-0.078,0.196-0.127,0.227-0.147l0.028,1.718c-0.291,0.127-0.646,0.255-1.062,0.381c-0.417,0.127-0.947,0.191-1.595,0.191
		h-0.264c-0.117,0-0.251-0.007-0.404-0.022c-0.152-0.015-0.32-0.042-0.506-0.081s-0.371-0.093-0.558-0.16
		c-0.304-0.119-0.595-0.276-0.873-0.477c-0.279-0.201-0.524-0.451-0.734-0.75c-0.211-0.298-0.38-0.648-0.506-1.05
		c-0.128-0.401-0.191-0.862-0.191-1.379c0-0.48,0.044-0.887,0.131-1.22c0.09-0.332,0.177-0.597,0.265-0.793
		c0.049-0.087,0.098-0.181,0.146-0.279s0.078-0.156,0.089-0.175c0.05-0.069,0.095-0.134,0.14-0.199
		c0.044-0.063,0.095-0.124,0.153-0.184c0.284-0.341,0.651-0.635,1.103-0.88c0.45-0.245,1.018-0.367,1.702-0.367
		c0.627,0,1.158,0.108,1.594,0.323c0.436,0.216,0.793,0.502,1.073,0.86c0.277,0.357,0.479,0.772,0.607,1.247
		c0.127,0.474,0.19,0.972,0.19,1.49v0.397c0,0.116-0.005,0.245-0.014,0.382H158.86z M169.872,23.936
		c-0.059-0.02-0.138-0.042-0.235-0.066c-0.096-0.025-0.22-0.037-0.366-0.037c-0.059,0-0.163,0.007-0.315,0.022
		c-0.152,0.015-0.321,0.061-0.507,0.139c-0.186,0.079-0.367,0.203-0.543,0.375c-0.177,0.171-0.314,0.413-0.412,0.727
		c-0.048,0.117-0.083,0.24-0.104,0.367c-0.019,0.127-0.037,0.309-0.058,0.543c-0.01,0.148-0.015,0.28-0.015,0.396v0.396v3.01h-1.996
		v-5.696c0-0.372-0.002-0.704-0.007-0.999c-0.005-0.293-0.019-0.625-0.037-0.997h1.879v1.849c0.049-0.195,0.093-0.345,0.131-0.448
		c0.04-0.103,0.084-0.202,0.133-0.3c0.226-0.421,0.512-0.727,0.859-0.918c0.348-0.19,0.698-0.286,1.05-0.286
		c0.088,0,0.178,0.005,0.271,0.014c0.095,0.01,0.184,0.025,0.272,0.044V23.936z M79.429,42.905c0.088,0.275,0.167,0.517,0.235,0.728
		c0.068,0.21,0.142,0.447,0.22,0.712c0.079,0.255,0.147,0.487,0.206,0.697c0.059,0.21,0.127,0.442,0.205,0.697
		c0.079-0.255,0.152-0.492,0.221-0.713c0.069-0.218,0.134-0.437,0.198-0.652c0.064-0.215,0.13-0.433,0.199-0.653
		c0.068-0.221,0.141-0.458,0.22-0.713l1.85-5.77h2.055L81.5,47.604h-2.556l-3.581-10.366h2.217L79.429,42.905z M88.46,41.232
		c-0.196,0-0.397,0.039-0.602,0.117c-0.128,0.05-0.24,0.106-0.338,0.17c-0.098,0.063-0.167,0.114-0.206,0.154
		c-0.215,0.186-0.397,0.447-0.544,0.785c-0.146,0.337-0.22,0.756-0.22,1.255c0,0.441,0.061,0.827,0.184,1.16
		c0.122,0.332,0.252,0.583,0.389,0.749c0.118,0.136,0.228,0.242,0.331,0.315c0.102,0.074,0.178,0.12,0.227,0.139
		c0.167,0.089,0.326,0.14,0.478,0.155c0.152,0.014,0.252,0.022,0.301,0.022c0.283,0,0.522-0.049,0.718-0.147
		c0.196-0.098,0.348-0.201,0.456-0.308c0.225-0.205,0.399-0.481,0.521-0.829c0.123-0.348,0.179-0.786,0.169-1.314
		c-0.01-0.294-0.051-0.618-0.125-0.97c-0.073-0.352-0.252-0.671-0.536-0.954c-0.137-0.136-0.299-0.254-0.485-0.352
		C88.994,41.281,88.752,41.232,88.46,41.232 M88.445,39.763c0.303,0,0.604,0.027,0.902,0.081c0.299,0.054,0.585,0.14,0.859,0.257
		c0.412,0.176,0.747,0.392,1.007,0.647c0.259,0.254,0.467,0.508,0.624,0.763c0.155,0.254,0.272,0.492,0.344,0.712
		c0.073,0.221,0.12,0.379,0.139,0.477c0.059,0.245,0.094,0.462,0.103,0.654c0.01,0.19,0.015,0.325,0.015,0.403
		c0,0.529-0.071,1.002-0.213,1.417c-0.142,0.416-0.328,0.778-0.557,1.087c-0.23,0.308-0.49,0.562-0.778,0.763
		c-0.289,0.201-0.581,0.355-0.874,0.463c-0.343,0.127-0.666,0.201-0.97,0.22c-0.303,0.02-0.508,0.03-0.617,0.03
		c-0.243,0-0.486-0.018-0.726-0.052c-0.239-0.034-0.477-0.091-0.712-0.169c-0.294-0.098-0.592-0.25-0.896-0.455
		c-0.304-0.206-0.577-0.463-0.821-0.771c-0.245-0.309-0.443-0.676-0.595-1.1c-0.152-0.427-0.228-0.914-0.228-1.462
		c0.01-0.696,0.127-1.282,0.353-1.763c0.225-0.479,0.484-0.86,0.778-1.144c0.175-0.167,0.33-0.289,0.462-0.367
		c0.132-0.079,0.227-0.137,0.286-0.177c0.196-0.107,0.473-0.22,0.83-0.337C87.518,39.822,87.945,39.763,88.445,39.763
		 M93.701,36.386h1.997v11.217h-1.997V36.386z M99.397,43.023c0.128-0.186,0.242-0.35,0.346-0.492
		c0.102-0.142,0.222-0.296,0.359-0.463l1.731-2.158h2.305l-2.862,3.392l3.229,4.302h-2.466l-1.688-2.334
		c-0.196-0.265-0.362-0.507-0.499-0.727c-0.138-0.22-0.288-0.472-0.456-0.756v3.817h-1.981V36.386h1.981V43.023z M109.514,41.555
		c-0.303-0.088-0.581-0.161-0.831-0.22c-0.248-0.059-0.521-0.083-0.814-0.073c-0.411,0-0.743,0.07-0.997,0.212
		c-0.254,0.143-0.383,0.346-0.383,0.61c0,0.059,0.017,0.125,0.045,0.197c0.03,0.075,0.074,0.135,0.133,0.184
		c0.107,0.088,0.245,0.164,0.41,0.227c0.166,0.064,0.372,0.135,0.617,0.213c0.254,0.079,0.465,0.147,0.631,0.206
		c0.167,0.058,0.303,0.113,0.411,0.161c0.313,0.147,0.556,0.321,0.728,0.522c0.171,0.201,0.295,0.402,0.374,0.602
		c0.076,0.201,0.123,0.382,0.141,0.544c0.014,0.161,0.02,0.27,0.02,0.33c0,0.224-0.03,0.46-0.095,0.704
		c-0.063,0.245-0.183,0.48-0.359,0.705c-0.117,0.147-0.239,0.274-0.367,0.382c-0.127,0.107-0.25,0.193-0.366,0.257
		c-0.117,0.064-0.224,0.115-0.315,0.154c-0.094,0.039-0.161,0.064-0.199,0.073c-0.304,0.108-0.6,0.167-0.889,0.177
		c-0.288,0.009-0.478,0.015-0.564,0.015c-0.216,0-0.414-0.008-0.595-0.022c-0.181-0.015-0.357-0.037-0.529-0.067
		c-0.171-0.029-0.348-0.066-0.527-0.11c-0.183-0.044-0.38-0.091-0.597-0.14l0.104-1.674c0.177,0.079,0.429,0.181,0.757,0.309
		c0.327,0.127,0.717,0.19,1.168,0.19c0.41,0,0.74-0.073,0.989-0.22c0.25-0.147,0.376-0.347,0.376-0.602
		c0-0.126-0.033-0.235-0.097-0.323c-0.062-0.087-0.145-0.163-0.242-0.227c-0.099-0.063-0.2-0.117-0.309-0.161
		c-0.105-0.044-0.206-0.081-0.294-0.11c-0.196-0.069-0.383-0.135-0.563-0.199c-0.182-0.063-0.358-0.132-0.529-0.205
		c-0.172-0.074-0.333-0.159-0.485-0.257c-0.151-0.098-0.295-0.225-0.433-0.382c-0.137-0.147-0.259-0.331-0.366-0.551
		c-0.107-0.22-0.163-0.496-0.163-0.83c0-0.253,0.046-0.51,0.141-0.769c0.093-0.26,0.266-0.517,0.521-0.772
		c0.227-0.215,0.473-0.38,0.742-0.492c0.269-0.112,0.526-0.194,0.771-0.242c0.245-0.049,0.452-0.076,0.623-0.081
		c0.172-0.005,0.277-0.007,0.315-0.007c0.364,0,0.701,0.029,1.014,0.088c0.313,0.059,0.652,0.127,1.015,0.206L109.514,41.555z
		 M115.004,41.394c-0.196,0-0.395,0.039-0.602,0.117c-0.265,0.108-0.478,0.254-0.639,0.441c-0.161,0.186-0.286,0.388-0.374,0.608
		c-0.089,0.22-0.147,0.441-0.177,0.661c-0.027,0.22-0.045,0.419-0.045,0.595c0,0.225,0.021,0.448,0.061,0.668
		c0.04,0.221,0.111,0.443,0.221,0.668c0.049,0.089,0.099,0.177,0.153,0.265c0.054,0.088,0.119,0.17,0.198,0.248
		c0.117,0.127,0.236,0.226,0.359,0.294c0.122,0.069,0.235,0.117,0.337,0.147c0.103,0.03,0.194,0.044,0.273,0.044h0.176
		c0.058,0,0.179-0.014,0.359-0.044c0.182-0.03,0.369-0.127,0.565-0.294c0.156-0.137,0.287-0.296,0.388-0.477
		c0.104-0.18,0.184-0.366,0.243-0.557c0.061-0.191,0.1-0.377,0.117-0.558c0.019-0.181,0.03-0.345,0.03-0.492
		c0-0.235-0.023-0.475-0.067-0.72c-0.044-0.244-0.118-0.48-0.227-0.703c-0.05-0.11-0.103-0.205-0.16-0.288
		c-0.061-0.082-0.115-0.149-0.163-0.197c-0.096-0.089-0.232-0.182-0.402-0.279C115.457,41.443,115.249,41.394,115.004,41.394
		 M113.154,36.386v4.729c0.08-0.138,0.146-0.243,0.207-0.316c0.057-0.073,0.11-0.14,0.16-0.198c0.186-0.196,0.445-0.38,0.777-0.551
		c0.334-0.172,0.745-0.262,1.235-0.272c0.136,0,0.337,0.017,0.601,0.052c0.265,0.034,0.543,0.124,0.837,0.271
		s0.575,0.37,0.845,0.668c0.27,0.299,0.486,0.713,0.653,1.24c0.05,0.168,0.101,0.382,0.154,0.646
		c0.054,0.265,0.081,0.593,0.081,0.985c0.01,0.832-0.11,1.531-0.36,2.099s-0.556,1.009-0.918,1.322
		c-0.058,0.049-0.142,0.113-0.25,0.191c-0.106,0.078-0.239,0.151-0.396,0.22c-0.273,0.127-0.543,0.203-0.808,0.228
		c-0.264,0.024-0.431,0.037-0.499,0.037c-0.509,0-0.936-0.079-1.278-0.236c-0.342-0.156-0.612-0.357-0.807-0.602
		c-0.077-0.108-0.145-0.211-0.198-0.308c-0.054-0.098-0.092-0.157-0.109-0.176v1.189h-1.895V36.386H113.154z"/>
	<path clip-path="url(#SVGID_2_)" fill="#0066B3" d="M124.563,44.124c-0.128-0.009-0.252-0.017-0.375-0.022
		c-0.122-0.005-0.252-0.007-0.39-0.007c-0.528,0-0.984,0.051-1.365,0.154s-0.655,0.301-0.821,0.595
		c-0.079,0.147-0.117,0.313-0.117,0.498c0,0.109,0.02,0.223,0.059,0.345c0.037,0.123,0.104,0.238,0.198,0.346
		c0.093,0.107,0.216,0.195,0.365,0.264c0.153,0.068,0.347,0.103,0.58,0.103c0.117,0,0.267-0.022,0.449-0.066
		c0.18-0.044,0.364-0.127,0.551-0.25c0.185-0.123,0.354-0.294,0.506-0.514c0.152-0.221,0.257-0.506,0.316-0.858
		c0.019-0.108,0.031-0.23,0.037-0.367C124.562,44.207,124.563,44.134,124.563,44.124 M124.607,47.604v-1.131
		c-0.06,0.108-0.149,0.237-0.272,0.389c-0.122,0.152-0.311,0.306-0.565,0.463c-0.283,0.166-0.57,0.277-0.859,0.33
		c-0.288,0.054-0.575,0.082-0.857,0.082c-0.529,0-0.962-0.079-1.301-0.236c-0.338-0.157-0.604-0.355-0.8-0.595
		c-0.197-0.239-0.328-0.496-0.396-0.771c-0.069-0.274-0.104-0.528-0.104-0.762c0.01-0.411,0.085-0.752,0.228-1.021
		c0.142-0.269,0.311-0.487,0.507-0.654c0.312-0.284,0.733-0.494,1.263-0.632c0.529-0.136,1.174-0.21,1.938-0.219h0.087
		c0.195,0,0.371,0.002,0.522,0.007c0.152,0.005,0.325,0.017,0.521,0.037c-0.021-0.177-0.04-0.365-0.06-0.566
		c-0.02-0.199-0.093-0.388-0.221-0.564c-0.117-0.167-0.274-0.299-0.47-0.397c-0.196-0.098-0.46-0.156-0.792-0.176h-0.191
		c-0.371,0.01-0.688,0.054-0.947,0.132c-0.259,0.078-0.467,0.152-0.624,0.221c-0.077,0.038-0.18,0.09-0.308,0.154
		c-0.127,0.063-0.285,0.168-0.47,0.314l-0.06-1.732c0.157-0.058,0.321-0.118,0.492-0.176c0.172-0.059,0.359-0.113,0.565-0.162
		c0.206-0.048,0.438-0.09,0.697-0.124s0.551-0.052,0.873-0.052c0.187,0,0.388,0.005,0.603,0.015c0.215,0.01,0.428,0.041,0.64,0.095
		c0.21,0.054,0.42,0.13,0.631,0.228c0.209,0.098,0.409,0.225,0.596,0.382c0.097,0.088,0.212,0.21,0.343,0.367
		c0.133,0.157,0.238,0.358,0.317,0.602c0.097,0.255,0.153,0.557,0.168,0.91c0.015,0.352,0.021,0.656,0.021,0.91v1.822
		c0,0.46,0.005,0.877,0.015,1.254c0.011,0.377,0.024,0.796,0.043,1.256H124.607z M133.21,47.604v-3.715
		c-0.01-0.46-0.028-0.825-0.059-1.094c-0.028-0.269-0.098-0.512-0.205-0.727c-0.068-0.126-0.147-0.233-0.236-0.315
		c-0.087-0.083-0.198-0.159-0.337-0.227c-0.049-0.02-0.125-0.044-0.228-0.074c-0.103-0.029-0.223-0.044-0.36-0.044
		c-0.066-0.01-0.197,0.003-0.387,0.037c-0.191,0.034-0.396,0.134-0.61,0.301c-0.177,0.136-0.314,0.289-0.418,0.454
		c-0.103,0.167-0.179,0.348-0.228,0.544c-0.049,0.195-0.084,0.398-0.104,0.609c-0.019,0.211-0.028,0.428-0.028,0.654v3.597h-2.013
		v-5.843c0-0.343-0.004-0.651-0.014-0.926c-0.009-0.274-0.025-0.582-0.044-0.925h1.923v1.189c0.087-0.117,0.185-0.234,0.293-0.352
		c0.147-0.166,0.294-0.294,0.441-0.382c0.146-0.088,0.244-0.146,0.294-0.176c0.294-0.166,0.567-0.274,0.821-0.323
		c0.256-0.049,0.523-0.073,0.808-0.073c0.372,0,0.678,0.039,0.918,0.117c0.239,0.078,0.438,0.166,0.594,0.264
		c0.079,0.049,0.175,0.12,0.287,0.213c0.113,0.093,0.238,0.238,0.374,0.433c0.118,0.157,0.207,0.329,0.272,0.515
		c0.062,0.186,0.109,0.392,0.14,0.617c0.027,0.225,0.049,0.478,0.058,0.762c0.01,0.284,0.021,0.602,0.03,0.955v3.935H133.21z
		 M138.863,43.023c0.128-0.187,0.242-0.35,0.345-0.493c0.104-0.141,0.223-0.295,0.36-0.462l1.732-2.158h2.306l-2.863,3.392
		l3.23,4.302h-2.469l-1.687-2.334c-0.196-0.265-0.362-0.507-0.5-0.727c-0.137-0.22-0.289-0.472-0.455-0.756v3.817h-1.982V36.386
		h1.982V43.023z M153.398,43.052c-0.019-0.216-0.048-0.428-0.089-0.639c-0.037-0.21-0.136-0.418-0.291-0.624
		c-0.119-0.156-0.241-0.275-0.369-0.359c-0.126-0.083-0.248-0.144-0.367-0.183c-0.117-0.039-0.222-0.064-0.315-0.074
		c-0.093-0.01-0.158-0.014-0.198-0.014c-0.028,0-0.099,0.004-0.205,0.014c-0.108,0.01-0.232,0.037-0.374,0.081
		c-0.144,0.044-0.29,0.117-0.441,0.22c-0.15,0.103-0.291,0.248-0.418,0.434c-0.156,0.253-0.252,0.489-0.286,0.704
		c-0.033,0.215-0.057,0.362-0.065,0.44H153.398z M149.979,44.448c0.009,0.019,0.035,0.114,0.073,0.286
		c0.038,0.171,0.106,0.33,0.203,0.476c0.128,0.215,0.277,0.391,0.448,0.521c0.173,0.132,0.349,0.235,0.53,0.309
		c0.18,0.073,0.364,0.125,0.55,0.154c0.187,0.029,0.363,0.044,0.529,0.044c0.294,0,0.594-0.034,0.903-0.103
		c0.309-0.068,0.607-0.176,0.901-0.323c0.119-0.049,0.238-0.112,0.36-0.191c0.123-0.077,0.198-0.127,0.228-0.147l0.029,1.719
		c-0.293,0.127-0.648,0.254-1.065,0.382c-0.415,0.127-0.945,0.191-1.592,0.191h-0.264c-0.117,0-0.253-0.008-0.404-0.022
		c-0.152-0.015-0.321-0.042-0.507-0.081s-0.372-0.093-0.558-0.162c-0.304-0.117-0.594-0.276-0.873-0.477
		c-0.278-0.201-0.523-0.451-0.734-0.749c-0.21-0.299-0.38-0.649-0.507-1.049c-0.128-0.402-0.191-0.862-0.191-1.381
		c0-0.48,0.044-0.886,0.133-1.219c0.088-0.333,0.176-0.596,0.265-0.793c0.049-0.087,0.098-0.18,0.146-0.278
		c0.049-0.098,0.078-0.157,0.087-0.176c0.05-0.068,0.097-0.135,0.141-0.199c0.044-0.063,0.096-0.124,0.153-0.183
		c0.285-0.343,0.652-0.637,1.103-0.881c0.45-0.245,1.018-0.368,1.702-0.368c0.627,0,1.159,0.108,1.593,0.324
		c0.437,0.215,0.793,0.502,1.072,0.859c0.278,0.357,0.482,0.773,0.608,1.249c0.128,0.473,0.192,0.97,0.192,1.489v0.397
		c0,0.117-0.005,0.244-0.015,0.382H149.979z M164.63,39.352c-0.282-0.137-0.636-0.272-1.057-0.404
		c-0.42-0.132-0.954-0.197-1.6-0.197h-0.294c-0.138,0-0.299,0.015-0.484,0.044c-0.188,0.028-0.39,0.075-0.61,0.139
		c-0.22,0.063-0.433,0.153-0.637,0.272c-0.021,0.009-0.086,0.048-0.198,0.117c-0.113,0.068-0.219,0.141-0.316,0.22
		c-0.343,0.294-0.622,0.676-0.837,1.145c-0.216,0.471-0.318,1.058-0.309,1.762c0,0.098,0.009,0.276,0.029,0.536
		c0.02,0.259,0.083,0.546,0.19,0.859c0.128,0.373,0.291,0.686,0.492,0.94c0.201,0.255,0.409,0.462,0.624,0.624
		c0.215,0.161,0.423,0.283,0.623,0.367c0.202,0.083,0.365,0.139,0.492,0.168c0.236,0.069,0.46,0.108,0.676,0.118
		c0.216,0.01,0.357,0.014,0.426,0.014c0.313,0,0.578-0.024,0.794-0.073c0.215-0.049,0.392-0.093,0.527-0.132v-2.555h-2.173v-1.629
		h4.112v5.476c-0.266,0.098-0.472,0.167-0.618,0.206c-0.146,0.039-0.283,0.074-0.411,0.103c-0.215,0.049-0.545,0.107-0.99,0.176
		s-0.957,0.103-1.535,0.103c-1.036,0-1.895-0.152-2.576-0.455c-0.681-0.304-1.227-0.676-1.638-1.117
		c-0.322-0.352-0.614-0.834-0.873-1.445c-0.259-0.612-0.394-1.364-0.403-2.255c0-0.333,0.024-0.679,0.073-1.041
		c0.05-0.363,0.137-0.723,0.265-1.08c0.127-0.358,0.306-0.708,0.536-1.05c0.229-0.343,0.521-0.66,0.872-0.953
		c0.314-0.275,0.656-0.498,1.029-0.669c0.371-0.171,0.72-0.301,1.042-0.389c0.224-0.059,0.447-0.103,0.667-0.132
		c0.221-0.03,0.423-0.052,0.609-0.067c0.187-0.014,0.351-0.024,0.493-0.029c0.142-0.005,0.247-0.007,0.314-0.007
		c0.354,0,0.666,0.015,0.94,0.044c0.273,0.029,0.521,0.063,0.741,0.103c0.22,0.039,0.421,0.085,0.603,0.139
		c0.18,0.054,0.359,0.105,0.535,0.154L164.63,39.352z"/>
	<path clip-path="url(#SVGID_2_)" fill="#F27021" d="M82.472,52.512c-0.043-0.022-0.106-0.053-0.192-0.096s-0.185-0.088-0.298-0.138
		c-0.321-0.122-0.615-0.196-0.882-0.225c-0.267-0.029-0.451-0.043-0.55-0.043c-0.27,0-0.522,0.027-0.757,0.08
		c-0.235,0.054-0.451,0.126-0.647,0.219c-0.195,0.093-0.369,0.196-0.522,0.31c-0.153,0.114-0.284,0.227-0.39,0.341
		c-0.071,0.079-0.134,0.156-0.188,0.23c-0.053,0.075-0.087,0.123-0.1,0.144c-0.022,0.035-0.055,0.1-0.102,0.192
		c-0.047,0.093-0.09,0.192-0.133,0.299c-0.093,0.228-0.146,0.438-0.16,0.63c-0.015,0.192-0.021,0.328-0.021,0.406
		c0,0.284,0.036,0.58,0.111,0.886c0.075,0.306,0.195,0.601,0.357,0.886c0.114,0.185,0.227,0.335,0.337,0.449
		c0.11,0.113,0.205,0.199,0.283,0.255c0.085,0.071,0.176,0.132,0.273,0.183c0.095,0.049,0.185,0.092,0.267,0.127
		c0.08,0.036,0.15,0.063,0.208,0.081c0.056,0.017,0.095,0.029,0.117,0.037c0.263,0.085,0.496,0.136,0.699,0.155
		c0.203,0.017,0.354,0.027,0.454,0.027c0.242,0,0.436-0.019,0.582-0.054c0.145-0.036,0.279-0.071,0.4-0.106v-2.2h-1.601v-0.875
		h2.658v3.8c-0.377,0.1-0.736,0.181-1.078,0.247c-0.341,0.063-0.701,0.095-1.078,0.095c-0.556,0-1.014-0.05-1.373-0.149
		c-0.359-0.1-0.659-0.221-0.902-0.364c-0.1-0.056-0.238-0.149-0.415-0.276c-0.179-0.129-0.368-0.308-0.568-0.535
		c-0.227-0.256-0.429-0.589-0.607-0.998c-0.178-0.41-0.268-0.924-0.268-1.544c0-0.597,0.083-1.099,0.251-1.505
		c0.168-0.405,0.348-0.733,0.54-0.982c0.149-0.177,0.302-0.332,0.459-0.459c0.157-0.128,0.306-0.235,0.448-0.32
		c0.142-0.086,0.269-0.153,0.38-0.203c0.11-0.05,0.193-0.085,0.25-0.107c0.292-0.106,0.593-0.181,0.903-0.224
		c0.309-0.043,0.61-0.064,0.902-0.064c0.476,0,0.884,0.043,1.222,0.127c0.338,0.086,0.606,0.158,0.806,0.215L82.472,52.512z
		 M87.629,55.48c-0.021-0.186-0.053-0.368-0.096-0.55c-0.042-0.181-0.135-0.365-0.278-0.55c-0.085-0.121-0.21-0.231-0.373-0.33
		c-0.164-0.101-0.382-0.146-0.651-0.14c-0.313,0.008-0.595,0.104-0.843,0.289c-0.25,0.185-0.442,0.452-0.578,0.8
		c-0.035,0.1-0.06,0.184-0.074,0.251c-0.014,0.068-0.033,0.145-0.054,0.23H87.629z M84.682,56.259
		c0.014,0.058,0.033,0.159,0.054,0.305c0.021,0.145,0.074,0.301,0.16,0.465c0.057,0.112,0.133,0.226,0.23,0.34
		c0.096,0.115,0.211,0.218,0.346,0.311c0.136,0.092,0.293,0.169,0.47,0.229c0.178,0.061,0.381,0.094,0.609,0.101
		c0.27,0.015,0.514-0.014,0.731-0.085c0.217-0.071,0.373-0.124,0.465-0.16c0.092-0.043,0.172-0.083,0.239-0.123
		c0.068-0.039,0.145-0.083,0.23-0.133v0.96c-0.184,0.079-0.405,0.157-0.662,0.236c-0.256,0.078-0.587,0.117-0.993,0.117
		c-0.035,0-0.12-0.003-0.251-0.005c-0.132-0.003-0.288-0.023-0.469-0.058c-0.181-0.038-0.376-0.094-0.582-0.172
		c-0.207-0.078-0.403-0.188-0.587-0.332c-0.185-0.142-0.33-0.285-0.433-0.432c-0.103-0.146-0.17-0.247-0.198-0.303
		c-0.084-0.143-0.166-0.337-0.244-0.583c-0.079-0.245-0.125-0.546-0.14-0.902c-0.007-0.327,0.026-0.626,0.097-0.897
		c0.071-0.27,0.168-0.512,0.287-0.726c0.122-0.213,0.261-0.397,0.417-0.549c0.156-0.154,0.32-0.28,0.492-0.38
		c0.121-0.077,0.224-0.131,0.309-0.159c0.086-0.029,0.157-0.05,0.213-0.065c0.071-0.021,0.179-0.046,0.321-0.075
		c0.142-0.028,0.309-0.042,0.502-0.042c0.434,0,0.797,0.078,1.089,0.235c0.292,0.156,0.519,0.331,0.683,0.523
		c0.114,0.142,0.206,0.295,0.277,0.459c0.072,0.164,0.128,0.329,0.171,0.496c0.043,0.168,0.074,0.333,0.09,0.497
		c0.019,0.164,0.032,0.313,0.039,0.448c0.007,0.086,0.011,0.164,0.011,0.235c0,0.065,0.002,0.139,0.01,0.224H84.682z M90.522,54.018
		c0.092-0.129,0.168-0.224,0.224-0.289c0.058-0.064,0.122-0.121,0.193-0.17c0.178-0.143,0.376-0.248,0.592-0.316
		c0.218-0.067,0.415-0.101,0.593-0.101c0.27-0.014,0.509,0.021,0.715,0.106c0.206,0.086,0.359,0.168,0.459,0.246
		c0.043,0.036,0.08,0.067,0.113,0.097c0.032,0.028,0.065,0.06,0.101,0.095c0.085,0.101,0.156,0.211,0.214,0.332
		c0.056,0.121,0.089,0.185,0.095,0.192c0.086-0.129,0.152-0.224,0.199-0.289c0.044-0.063,0.097-0.125,0.154-0.181
		c0.142-0.149,0.292-0.267,0.449-0.353c0.155-0.085,0.303-0.145,0.442-0.181c0.139-0.035,0.261-0.057,0.363-0.064
		c0.103-0.008,0.177-0.01,0.219-0.01c0.243,0,0.454,0.031,0.635,0.095c0.181,0.065,0.337,0.148,0.465,0.251s0.233,0.219,0.314,0.347
		c0.081,0.128,0.145,0.256,0.187,0.385c0.078,0.206,0.124,0.404,0.133,0.593c0.012,0.188,0.021,0.31,0.028,0.368v3.576h-0.972V55.64
		c0-0.348-0.022-0.633-0.069-0.853c-0.046-0.222-0.151-0.407-0.316-0.556c-0.127-0.114-0.257-0.181-0.389-0.203
		c-0.132-0.021-0.211-0.032-0.239-0.032c-0.186,0-0.368,0.043-0.546,0.128c-0.178,0.086-0.337,0.224-0.481,0.416
		c-0.156,0.207-0.253,0.428-0.292,0.662c-0.041,0.236-0.066,0.456-0.081,0.663v2.882H93v-3.384c-0.015-0.25-0.049-0.482-0.102-0.7
		c-0.053-0.217-0.184-0.393-0.39-0.529c-0.1-0.064-0.196-0.103-0.288-0.116c-0.093-0.015-0.157-0.022-0.192-0.022
		c-0.227,0-0.424,0.05-0.588,0.149c-0.164,0.101-0.284,0.189-0.362,0.267c-0.1,0.1-0.174,0.199-0.219,0.3
		c-0.046,0.099-0.077,0.167-0.092,0.202c-0.042,0.114-0.077,0.25-0.106,0.406c-0.028,0.157-0.049,0.359-0.064,0.609
		c-0.007,0.113-0.011,0.216-0.011,0.309v0.31v2.199h-1.045v-5.52h0.95L90.522,54.018z M102.309,55.48
		c-0.021-0.186-0.054-0.368-0.097-0.55c-0.042-0.181-0.134-0.365-0.276-0.55c-0.086-0.121-0.21-0.231-0.374-0.33
		c-0.162-0.101-0.381-0.146-0.65-0.14c-0.314,0.008-0.595,0.104-0.845,0.289c-0.247,0.185-0.439,0.452-0.575,0.8
		c-0.036,0.1-0.061,0.184-0.074,0.251c-0.016,0.068-0.033,0.145-0.054,0.23H102.309z M99.363,56.259
		c0.014,0.058,0.031,0.159,0.054,0.305c0.02,0.145,0.074,0.301,0.16,0.465c0.056,0.112,0.132,0.226,0.228,0.34
		c0.098,0.115,0.212,0.218,0.349,0.311c0.135,0.092,0.291,0.169,0.47,0.229c0.178,0.061,0.381,0.094,0.607,0.101
		c0.271,0.015,0.515-0.014,0.731-0.085c0.218-0.071,0.372-0.124,0.465-0.16c0.091-0.043,0.172-0.083,0.239-0.123
		c0.069-0.039,0.145-0.083,0.23-0.133v0.96c-0.186,0.079-0.405,0.157-0.661,0.236c-0.257,0.078-0.589,0.117-0.993,0.117
		c-0.036,0-0.12-0.003-0.253-0.005c-0.13-0.003-0.286-0.023-0.469-0.058c-0.182-0.038-0.375-0.094-0.582-0.172
		c-0.206-0.078-0.401-0.188-0.587-0.332c-0.185-0.142-0.329-0.285-0.432-0.432c-0.104-0.146-0.17-0.247-0.198-0.303
		c-0.085-0.143-0.168-0.337-0.246-0.583c-0.079-0.245-0.123-0.546-0.138-0.902c-0.007-0.327,0.024-0.626,0.095-0.897
		c0.073-0.27,0.168-0.512,0.289-0.726c0.121-0.213,0.259-0.397,0.416-0.549c0.157-0.154,0.32-0.28,0.491-0.38
		c0.121-0.077,0.225-0.131,0.31-0.159c0.086-0.029,0.156-0.05,0.215-0.065c0.069-0.021,0.178-0.046,0.319-0.075
		c0.143-0.028,0.31-0.042,0.501-0.042c0.436,0,0.798,0.078,1.09,0.235c0.292,0.156,0.521,0.331,0.684,0.523
		c0.114,0.142,0.206,0.295,0.276,0.459c0.073,0.164,0.13,0.329,0.173,0.496c0.043,0.168,0.071,0.333,0.091,0.497
		c0.018,0.164,0.029,0.313,0.036,0.448c0.007,0.086,0.011,0.164,0.011,0.235c0,0.065,0.004,0.139,0.011,0.224H99.363z
		 M104.23,53.227h1.005v5.52h-1.005V53.227z M104.168,50.825h1.1v1.089h-1.1V50.825z M107.402,54.018
		c0.085-0.1,0.149-0.172,0.192-0.214c0.043-0.043,0.092-0.092,0.149-0.149c0.157-0.136,0.357-0.255,0.603-0.358
		c0.246-0.104,0.559-0.155,0.935-0.155c0.313,0,0.565,0.039,0.758,0.117c0.192,0.078,0.359,0.179,0.502,0.3
		c0.233,0.205,0.396,0.433,0.48,0.683c0.085,0.248,0.143,0.484,0.172,0.704c0.007,0.057,0.012,0.109,0.015,0.155
		c0.004,0.046,0.006,0.101,0.006,0.165c0.006,0.086,0.01,0.164,0.01,0.235s0.003,0.153,0.011,0.246v3h-1.003v-3.065
		c0-0.141-0.004-0.283-0.012-0.426c-0.006-0.143-0.039-0.285-0.095-0.427c-0.022-0.071-0.059-0.155-0.106-0.25
		c-0.05-0.097-0.117-0.188-0.203-0.274c-0.086-0.085-0.193-0.157-0.326-0.218c-0.132-0.061-0.285-0.091-0.465-0.091
		c-0.044,0-0.113,0.006-0.213,0.016c-0.1,0.011-0.211,0.042-0.332,0.096c-0.119,0.053-0.247,0.132-0.378,0.236
		c-0.133,0.102-0.251,0.243-0.357,0.42c-0.121,0.207-0.196,0.431-0.224,0.674c-0.029,0.241-0.047,0.47-0.055,0.682v2.627h-1.025
		v-5.52h0.962V54.018z M115.312,54.199c-0.29-0.099-0.521-0.169-0.692-0.208c-0.171-0.039-0.328-0.059-0.471-0.059
		c-0.156,0-0.287,0.017-0.395,0.054c-0.107,0.034-0.188,0.077-0.246,0.128c-0.013,0.014-0.036,0.035-0.062,0.064
		c-0.03,0.028-0.059,0.06-0.086,0.096c-0.016,0.028-0.036,0.074-0.064,0.138c-0.029,0.065-0.043,0.136-0.043,0.214
		c0.008,0.056,0.017,0.106,0.033,0.143c0.014,0.041,0.026,0.074,0.042,0.102c0.043,0.078,0.099,0.152,0.17,0.219
		c0.071,0.068,0.182,0.145,0.332,0.23c0.021,0.014,0.043,0.027,0.063,0.037c0.022,0.011,0.046,0.023,0.074,0.038
		c0.164,0.085,0.31,0.158,0.432,0.219c0.125,0.06,0.235,0.117,0.332,0.17c0.097,0.054,0.185,0.109,0.262,0.167
		c0.08,0.056,0.156,0.123,0.234,0.202c0.085,0.092,0.171,0.226,0.258,0.4c0.085,0.175,0.127,0.376,0.127,0.603
		c0,0.313-0.096,0.609-0.282,0.886c-0.189,0.278-0.46,0.488-0.817,0.63c-0.172,0.072-0.34,0.112-0.507,0.123
		c-0.168,0.011-0.277,0.02-0.326,0.027c-0.378,0.008-0.688-0.028-0.935-0.107c-0.245-0.078-0.449-0.153-0.613-0.225l0.074-0.918
		c0.043,0.022,0.11,0.055,0.204,0.102c0.092,0.046,0.199,0.093,0.319,0.138c0.121,0.047,0.251,0.086,0.391,0.119
		c0.138,0.032,0.283,0.044,0.432,0.037c0.321-0.008,0.556-0.09,0.706-0.246c0.149-0.156,0.223-0.32,0.223-0.491
		c0-0.178-0.054-0.327-0.159-0.448c-0.059-0.058-0.117-0.106-0.183-0.144c-0.063-0.04-0.128-0.076-0.19-0.113
		c-0.15-0.077-0.294-0.155-0.435-0.229c-0.139-0.075-0.278-0.154-0.421-0.24c-0.113-0.072-0.223-0.143-0.326-0.214
		c-0.103-0.071-0.193-0.157-0.271-0.256c-0.207-0.257-0.317-0.548-0.332-0.875c-0.015-0.271,0.058-0.54,0.213-0.806
		c0.157-0.268,0.396-0.472,0.716-0.614c0.085-0.037,0.201-0.072,0.347-0.108c0.146-0.035,0.323-0.056,0.528-0.063
		c0.257-0.008,0.495,0.011,0.716,0.054c0.221,0.041,0.456,0.099,0.704,0.17L115.312,54.199z M119.659,56.11
		c-0.256-0.021-0.512-0.032-0.771-0.032c-0.177,0-0.326,0.007-0.447,0.022c-0.121,0.013-0.221,0.028-0.299,0.043
		c-0.129,0.028-0.258,0.068-0.39,0.122c-0.131,0.053-0.249,0.121-0.354,0.202c-0.103,0.082-0.188,0.182-0.256,0.3
		c-0.066,0.117-0.101,0.255-0.101,0.411c0,0.163,0.035,0.303,0.106,0.416c0.072,0.114,0.159,0.205,0.269,0.272
		c0.105,0.067,0.223,0.117,0.35,0.15c0.129,0.031,0.254,0.049,0.375,0.049c0.206,0,0.413-0.043,0.618-0.129
		c0.207-0.086,0.395-0.239,0.556-0.459c0.087-0.108,0.146-0.203,0.182-0.289c0.037-0.086,0.062-0.146,0.076-0.181
		c0.027-0.086,0.049-0.185,0.063-0.299c0.015-0.114,0.021-0.263,0.021-0.449V56.11z M116.67,53.591
		c0.07-0.036,0.133-0.069,0.186-0.097c0.055-0.028,0.112-0.06,0.177-0.095c0.149-0.071,0.301-0.125,0.454-0.161
		c0.152-0.035,0.295-0.062,0.427-0.08c0.132-0.018,0.246-0.029,0.342-0.032c0.096-0.004,0.166-0.005,0.208-0.005
		c0.449,0,0.83,0.077,1.148,0.23c0.316,0.153,0.549,0.35,0.697,0.592c0.079,0.114,0.138,0.24,0.172,0.378
		c0.035,0.14,0.075,0.33,0.118,0.572v3.854h-0.875v-0.875c-0.107,0.12-0.206,0.226-0.294,0.315c-0.09,0.089-0.194,0.179-0.314,0.272
		c-0.144,0.1-0.327,0.188-0.552,0.266c-0.223,0.079-0.499,0.111-0.826,0.097c-0.221-0.015-0.434-0.05-0.637-0.107
		s-0.385-0.149-0.548-0.277c-0.143-0.122-0.26-0.266-0.353-0.434c-0.094-0.166-0.157-0.346-0.193-0.538
		c-0.02-0.107-0.032-0.211-0.032-0.31c0-0.22,0.035-0.412,0.103-0.577c0.067-0.163,0.149-0.304,0.251-0.42
		c0.099-0.119,0.211-0.216,0.337-0.294c0.123-0.079,0.24-0.143,0.347-0.192c0.284-0.136,0.584-0.218,0.901-0.246
		c0.317-0.028,0.617-0.043,0.901-0.043c0.143,0,0.282,0.003,0.416,0.005c0.137,0.004,0.271,0.01,0.407,0.017
		c-0.008-0.114-0.016-0.235-0.026-0.364c-0.013-0.128-0.037-0.249-0.08-0.363c-0.07-0.185-0.213-0.355-0.422-0.512
		c-0.211-0.156-0.49-0.235-0.84-0.235c-0.177,0-0.35,0.021-0.517,0.064s-0.322,0.093-0.464,0.149
		c-0.145,0.058-0.268,0.116-0.373,0.176c-0.108,0.061-0.19,0.106-0.246,0.134V53.591z M122.766,54.018
		c0.092-0.129,0.167-0.224,0.225-0.289c0.057-0.064,0.121-0.121,0.192-0.17c0.178-0.143,0.375-0.248,0.592-0.316
		c0.218-0.067,0.414-0.101,0.593-0.101c0.271-0.014,0.51,0.021,0.715,0.106c0.207,0.086,0.359,0.168,0.459,0.246
		c0.044,0.036,0.08,0.067,0.113,0.097c0.031,0.028,0.064,0.06,0.101,0.095c0.086,0.101,0.157,0.211,0.213,0.332
		c0.057,0.121,0.09,0.185,0.097,0.192c0.087-0.129,0.15-0.224,0.197-0.289c0.047-0.063,0.099-0.125,0.155-0.181
		c0.143-0.149,0.292-0.267,0.449-0.353c0.155-0.085,0.304-0.145,0.442-0.181c0.139-0.035,0.26-0.057,0.363-0.064
		c0.103-0.008,0.176-0.01,0.219-0.01c0.242,0,0.453,0.031,0.634,0.095c0.184,0.065,0.338,0.148,0.467,0.251
		c0.128,0.103,0.232,0.219,0.313,0.347c0.082,0.128,0.146,0.256,0.188,0.385c0.079,0.206,0.123,0.404,0.134,0.593
		c0.01,0.188,0.019,0.31,0.027,0.368v3.576h-0.974V55.64c0-0.348-0.022-0.633-0.068-0.853c-0.047-0.222-0.151-0.407-0.315-0.556
		c-0.129-0.114-0.258-0.181-0.39-0.203c-0.132-0.021-0.211-0.032-0.24-0.032c-0.186,0-0.367,0.043-0.543,0.128
		c-0.18,0.086-0.34,0.224-0.482,0.416c-0.156,0.207-0.255,0.428-0.293,0.662c-0.039,0.236-0.066,0.456-0.08,0.663v2.882h-1.025
		v-3.384c-0.014-0.25-0.047-0.482-0.102-0.7c-0.053-0.217-0.183-0.393-0.39-0.529c-0.099-0.064-0.195-0.103-0.288-0.116
		c-0.092-0.015-0.155-0.022-0.191-0.022c-0.228,0-0.423,0.05-0.588,0.149c-0.164,0.101-0.285,0.189-0.363,0.267
		c-0.1,0.1-0.173,0.199-0.22,0.3c-0.045,0.099-0.074,0.167-0.09,0.202c-0.043,0.114-0.078,0.25-0.106,0.406
		c-0.027,0.157-0.051,0.359-0.063,0.609c-0.007,0.113-0.011,0.216-0.011,0.309v0.31v2.199h-1.047v-5.52h0.949L122.766,54.018z
		 M134.82,55.843c-0.008,0.035-0.011,0.071-0.011,0.108v0.095c0,0.334,0.045,0.611,0.138,0.828c0.093,0.216,0.199,0.396,0.321,0.539
		c0.149,0.163,0.29,0.279,0.427,0.347c0.136,0.067,0.235,0.112,0.299,0.133c0.099,0.035,0.194,0.059,0.282,0.07
		c0.09,0.01,0.151,0.016,0.188,0.016c0.207,0,0.385-0.038,0.534-0.113c0.148-0.074,0.263-0.144,0.341-0.208
		c0.136-0.114,0.25-0.244,0.342-0.389c0.093-0.146,0.165-0.298,0.219-0.454c0.054-0.157,0.091-0.311,0.112-0.464
		c0.021-0.153,0.032-0.29,0.032-0.412c-0.014-0.356-0.086-0.687-0.214-0.993c-0.057-0.142-0.131-0.273-0.225-0.394
		c-0.091-0.122-0.202-0.228-0.329-0.321c-0.121-0.086-0.258-0.15-0.407-0.192c-0.149-0.043-0.299-0.061-0.448-0.053
		c-0.057,0-0.157,0.013-0.299,0.042c-0.143,0.029-0.295,0.093-0.459,0.192c-0.207,0.128-0.366,0.28-0.477,0.454
		c-0.109,0.175-0.192,0.344-0.251,0.507c-0.056,0.164-0.09,0.308-0.1,0.433C134.825,55.737,134.82,55.814,134.82,55.843
		 M134.81,50.665v3.459c0.014-0.028,0.059-0.093,0.132-0.192c0.076-0.099,0.162-0.196,0.263-0.289
		c0.135-0.121,0.332-0.236,0.592-0.346s0.564-0.165,0.913-0.165c0.263,0,0.489,0.028,0.678,0.084
		c0.189,0.058,0.333,0.114,0.435,0.171c0.161,0.094,0.33,0.225,0.5,0.396c0.171,0.17,0.323,0.416,0.459,0.737
		c0.071,0.162,0.127,0.329,0.167,0.495c0.039,0.168,0.065,0.321,0.083,0.459c0.019,0.14,0.029,0.262,0.033,0.369
		c0.003,0.108,0.006,0.181,0.006,0.224c0,0.321-0.041,0.651-0.122,0.994c-0.083,0.341-0.26,0.664-0.53,0.97
		c-0.092,0.108-0.195,0.207-0.31,0.3c-0.113,0.092-0.241,0.177-0.384,0.251c-0.142,0.075-0.306,0.133-0.491,0.177
		c-0.184,0.041-0.392,0.066-0.619,0.074c-0.035,0-0.105-0.002-0.208-0.006c-0.104-0.004-0.224-0.017-0.363-0.043
		c-0.139-0.024-0.287-0.071-0.443-0.138c-0.157-0.067-0.31-0.165-0.459-0.294c-0.087-0.071-0.162-0.146-0.229-0.224
		c-0.069-0.078-0.134-0.16-0.198-0.246v0.865h-0.918v-8.082H134.81z M143.67,55.48c-0.021-0.186-0.053-0.368-0.096-0.55
		c-0.042-0.181-0.135-0.365-0.278-0.55c-0.085-0.121-0.209-0.231-0.373-0.33c-0.165-0.101-0.381-0.146-0.651-0.14
		c-0.312,0.008-0.594,0.104-0.844,0.289c-0.248,0.185-0.44,0.452-0.576,0.8c-0.036,0.1-0.06,0.184-0.073,0.251
		c-0.017,0.068-0.032,0.145-0.055,0.23H143.67z M140.724,56.259c0.015,0.058,0.031,0.159,0.055,0.305
		c0.02,0.145,0.073,0.301,0.159,0.465c0.057,0.112,0.134,0.226,0.229,0.34c0.097,0.115,0.212,0.218,0.348,0.311
		c0.135,0.092,0.292,0.169,0.471,0.229c0.178,0.061,0.38,0.094,0.607,0.101c0.272,0.015,0.514-0.014,0.732-0.085
		c0.216-0.071,0.372-0.124,0.465-0.16c0.091-0.043,0.172-0.083,0.239-0.123c0.067-0.039,0.145-0.083,0.229-0.133v0.96
		c-0.185,0.079-0.405,0.157-0.662,0.236c-0.256,0.078-0.587,0.117-0.993,0.117c-0.035,0-0.117-0.003-0.25-0.005
		c-0.131-0.003-0.288-0.023-0.471-0.058c-0.18-0.038-0.374-0.094-0.581-0.172s-0.401-0.188-0.588-0.332
		c-0.184-0.142-0.329-0.285-0.431-0.432c-0.104-0.146-0.169-0.247-0.198-0.303c-0.086-0.143-0.167-0.337-0.246-0.583
		c-0.078-0.245-0.123-0.546-0.139-0.902c-0.008-0.327,0.025-0.626,0.096-0.897c0.073-0.27,0.169-0.512,0.289-0.726
		c0.121-0.213,0.26-0.397,0.416-0.549c0.157-0.154,0.321-0.28,0.492-0.38c0.12-0.077,0.223-0.131,0.309-0.159
		c0.086-0.029,0.157-0.05,0.214-0.065c0.071-0.021,0.178-0.046,0.319-0.075c0.144-0.028,0.31-0.042,0.502-0.042
		c0.435,0,0.799,0.078,1.09,0.235c0.291,0.156,0.521,0.331,0.683,0.523c0.114,0.142,0.207,0.295,0.277,0.459
		c0.072,0.164,0.129,0.329,0.172,0.496c0.043,0.168,0.072,0.333,0.091,0.497c0.018,0.164,0.03,0.313,0.036,0.448
		c0.007,0.086,0.012,0.164,0.012,0.235c0,0.065,0.005,0.139,0.012,0.224H140.724z M148.453,54.199
		c-0.292-0.099-0.522-0.169-0.693-0.208c-0.171-0.039-0.328-0.059-0.47-0.059c-0.157,0-0.288,0.017-0.396,0.054
		c-0.105,0.034-0.188,0.077-0.246,0.128c-0.013,0.014-0.035,0.035-0.062,0.064c-0.029,0.028-0.059,0.06-0.086,0.096
		c-0.015,0.028-0.036,0.074-0.064,0.138c-0.028,0.065-0.043,0.136-0.043,0.214c0.009,0.056,0.019,0.106,0.031,0.143
		c0.016,0.041,0.029,0.074,0.044,0.102c0.042,0.078,0.099,0.152,0.17,0.219c0.072,0.068,0.183,0.145,0.332,0.23
		c0.021,0.014,0.043,0.027,0.063,0.037c0.022,0.011,0.047,0.023,0.074,0.038c0.164,0.085,0.31,0.158,0.433,0.219
		c0.125,0.06,0.234,0.117,0.332,0.17c0.096,0.054,0.183,0.109,0.262,0.167c0.078,0.056,0.156,0.123,0.234,0.202
		c0.085,0.092,0.171,0.226,0.257,0.4c0.085,0.175,0.128,0.376,0.128,0.603c0,0.313-0.094,0.609-0.283,0.886
		c-0.188,0.278-0.462,0.488-0.817,0.63c-0.171,0.072-0.339,0.112-0.506,0.123c-0.169,0.011-0.276,0.02-0.326,0.027
		c-0.376,0.008-0.688-0.028-0.934-0.107c-0.247-0.078-0.451-0.153-0.615-0.225l0.074-0.918c0.043,0.022,0.11,0.055,0.204,0.102
		c0.092,0.046,0.199,0.093,0.321,0.138c0.12,0.047,0.25,0.086,0.389,0.119c0.138,0.032,0.283,0.044,0.432,0.037
		c0.321-0.008,0.557-0.09,0.704-0.246c0.15-0.156,0.226-0.32,0.226-0.491c0-0.178-0.055-0.327-0.16-0.448
		c-0.056-0.058-0.119-0.106-0.182-0.144c-0.063-0.04-0.128-0.076-0.192-0.113c-0.15-0.077-0.293-0.155-0.432-0.229
		c-0.141-0.075-0.281-0.154-0.423-0.24c-0.114-0.072-0.223-0.143-0.325-0.214c-0.104-0.071-0.195-0.157-0.271-0.256
		c-0.207-0.257-0.316-0.548-0.333-0.875c-0.013-0.271,0.06-0.54,0.215-0.806c0.156-0.268,0.395-0.472,0.715-0.614
		c0.086-0.037,0.201-0.072,0.348-0.108c0.146-0.035,0.323-0.056,0.527-0.063c0.258-0.008,0.495,0.011,0.717,0.054
		c0.22,0.041,0.456,0.099,0.706,0.17L148.453,54.199z"/>
	<path clip-path="url(#SVGID_2_)" fill="#F27021" d="M152.457,54.199c-0.292-0.1-0.523-0.17-0.694-0.208
		c-0.169-0.04-0.326-0.059-0.47-0.059c-0.155,0-0.289,0.017-0.395,0.054c-0.106,0.034-0.189,0.077-0.246,0.127
		c-0.013,0.014-0.035,0.035-0.062,0.065c-0.03,0.028-0.059,0.06-0.088,0.095c-0.014,0.028-0.033,0.075-0.062,0.138
		c-0.029,0.065-0.043,0.137-0.043,0.215c0.007,0.056,0.018,0.105,0.032,0.143c0.015,0.04,0.027,0.073,0.043,0.101
		c0.043,0.079,0.1,0.152,0.17,0.22c0.071,0.067,0.183,0.144,0.332,0.23c0.021,0.013,0.042,0.027,0.063,0.036
		c0.021,0.012,0.046,0.023,0.074,0.038c0.164,0.086,0.308,0.158,0.433,0.219c0.124,0.061,0.234,0.118,0.331,0.171
		c0.096,0.053,0.185,0.108,0.262,0.166c0.079,0.056,0.156,0.124,0.234,0.202c0.086,0.093,0.171,0.226,0.257,0.4
		c0.087,0.175,0.129,0.376,0.129,0.604c0,0.313-0.096,0.608-0.284,0.886c-0.189,0.278-0.46,0.487-0.816,0.63
		c-0.171,0.071-0.341,0.112-0.507,0.123c-0.167,0.011-0.276,0.019-0.325,0.026c-0.379,0.008-0.689-0.028-0.936-0.106
		c-0.245-0.078-0.449-0.153-0.613-0.225l0.075-0.918c0.043,0.022,0.109,0.055,0.203,0.101c0.092,0.047,0.199,0.094,0.318,0.139
		c0.121,0.047,0.252,0.085,0.392,0.118c0.138,0.033,0.281,0.045,0.432,0.037c0.32-0.007,0.556-0.089,0.705-0.246
		c0.15-0.155,0.224-0.319,0.224-0.491c0-0.177-0.054-0.326-0.161-0.448c-0.057-0.057-0.116-0.105-0.18-0.144
		c-0.064-0.039-0.129-0.076-0.192-0.113c-0.149-0.077-0.294-0.154-0.434-0.229c-0.138-0.074-0.279-0.154-0.421-0.239
		c-0.114-0.073-0.222-0.144-0.325-0.215c-0.103-0.07-0.194-0.157-0.272-0.256c-0.207-0.257-0.317-0.548-0.331-0.875
		c-0.014-0.27,0.058-0.539,0.214-0.806s0.395-0.471,0.715-0.614c0.086-0.036,0.201-0.071,0.347-0.107
		c0.147-0.035,0.322-0.056,0.528-0.064c0.257-0.007,0.495,0.011,0.716,0.054c0.222,0.041,0.455,0.099,0.704,0.17L152.457,54.199z
		 M157.239,55.48c-0.021-0.186-0.054-0.368-0.095-0.55c-0.042-0.182-0.135-0.366-0.278-0.55c-0.086-0.122-0.21-0.232-0.374-0.331
		c-0.162-0.1-0.381-0.146-0.65-0.139c-0.314,0.007-0.595,0.104-0.845,0.289c-0.248,0.184-0.439,0.451-0.575,0.8
		c-0.036,0.099-0.061,0.184-0.074,0.251c-0.017,0.067-0.033,0.144-0.054,0.23H157.239z M154.294,56.259
		c0.014,0.057,0.031,0.159,0.054,0.304c0.021,0.146,0.074,0.302,0.16,0.465c0.056,0.113,0.132,0.227,0.229,0.34
		c0.096,0.116,0.211,0.219,0.347,0.312c0.137,0.091,0.291,0.168,0.471,0.228c0.178,0.062,0.381,0.095,0.607,0.102
		c0.271,0.015,0.515-0.015,0.733-0.086c0.216-0.071,0.37-0.123,0.464-0.16c0.093-0.043,0.172-0.083,0.239-0.122
		c0.067-0.04,0.144-0.083,0.229-0.134v0.961c-0.185,0.079-0.405,0.157-0.662,0.235c-0.256,0.079-0.588,0.117-0.991,0.117
		c-0.036,0-0.121-0.002-0.251-0.004c-0.134-0.004-0.289-0.024-0.472-0.059c-0.182-0.037-0.375-0.093-0.582-0.171
		c-0.206-0.079-0.401-0.189-0.587-0.332c-0.185-0.142-0.329-0.285-0.432-0.432c-0.104-0.146-0.169-0.248-0.198-0.304
		c-0.086-0.143-0.167-0.336-0.245-0.583c-0.079-0.244-0.124-0.545-0.139-0.901c-0.008-0.327,0.023-0.626,0.095-0.897
		c0.073-0.27,0.168-0.512,0.289-0.727c0.121-0.212,0.259-0.396,0.416-0.549s0.322-0.279,0.493-0.379
		c0.119-0.078,0.223-0.131,0.308-0.159c0.086-0.03,0.158-0.051,0.214-0.066c0.072-0.021,0.179-0.045,0.32-0.074
		c0.142-0.028,0.309-0.043,0.502-0.043c0.435,0,0.798,0.079,1.089,0.235c0.292,0.157,0.521,0.332,0.684,0.524
		c0.113,0.142,0.206,0.295,0.276,0.459c0.073,0.164,0.129,0.329,0.172,0.496s0.073,0.333,0.092,0.496
		c0.018,0.165,0.029,0.314,0.036,0.449c0.008,0.085,0.012,0.163,0.012,0.235c0,0.065,0.003,0.139,0.011,0.224H154.294z
		 M160.134,54.146c0.056-0.099,0.108-0.185,0.153-0.256c0.047-0.071,0.088-0.125,0.125-0.16c0.205-0.236,0.43-0.389,0.671-0.459
		c0.243-0.071,0.468-0.107,0.674-0.107c0.127,0,0.256,0.008,0.385,0.021c0.127,0.015,0.206,0.022,0.234,0.022v0.972
		c-0.144-0.045-0.259-0.076-0.348-0.097c-0.089-0.022-0.205-0.032-0.346-0.032c-0.066,0-0.18,0.013-0.343,0.037
		c-0.162,0.026-0.339,0.116-0.522,0.273c-0.142,0.12-0.252,0.251-0.331,0.389c-0.078,0.14-0.138,0.283-0.176,0.432
		c-0.04,0.149-0.067,0.3-0.081,0.449c-0.013,0.15-0.024,0.288-0.033,0.416v2.702h-1.035v-1.506c0-0.391,0.003-0.749,0.005-1.073
		c0.004-0.323,0.007-0.684,0.007-1.083c0-0.172-0.003-0.332-0.007-0.481c-0.002-0.15-0.007-0.297-0.009-0.443
		c-0.004-0.146-0.01-0.295-0.016-0.448c-0.007-0.153-0.017-0.315-0.023-0.486h0.961L160.134,54.146z M163.463,57.604h1.144v1.142
		h-1.144V57.604z M164.479,56.644h-0.918l-0.151-5.433h1.23L164.479,56.644z"/>
	</g>
    </g>
</g>
</svg>